<svg xmlns="http://www.w3.org/2000/svg" viewBox="-100 -100 200 200" width="400" height="400" role="img" aria-label="职场活佛 avatar"><defs>
      <filter id="fuzzy_av_1779093955014_3zsmvfdcgz7" x="-8%" y="-8%" width="116%" height="116%">
        <feTurbulence baseFrequency="0.045" numOctaves="3" type="fractalNoise" result="noise"/>
        <feDisplacementMap in="SourceGraphic" in2="noise" scale="1.6"/>
      </filter>
      <clipPath id="leftEye_av_1779093955014_3zsmvfdcgz7"><polyline points="-18.6,-1.8 -18.4,-1.9 -18.3,-1.9 -18.1,-2.0 -17.9,-2.0 -17.6,-2.1 -17.4,-2.1 -17.1,-2.2 -16.9,-2.2 -16.6,-2.3 -16.3,-2.3 -15.9,-2.4 -15.6,-2.4 -15.3,-2.5 -14.9,-2.5 -14.5,-2.5 -14.2,-2.6 -13.7,-2.6 -13.3,-2.7 -12.9,-2.7 -12.4,-2.8 -11.9,-2.8 -11.5,-2.8 -11.0,-2.9 -10.4,-2.9 -9.9,-2.9 -9.4,-3.0 -8.8,-3.0 -8.3,-3.0 -7.7,-3.0 -7.1,-3.1 -6.5,-3.1 -5.9,-3.1 -5.3,-3.1 -4.7,-3.1 -4.1,-3.1 -3.5,-3.1 -2.9,-3.1 -2.3,-3.1 -1.7,-3.1 -1.0,-3.1 -0.4,-3.1 0.2,-3.1 0.8,-3.1 1.4,-3.0 2.0,-3.0 2.6,-3.0 3.2,-3.0 3.7,-2.9 4.3,-2.9 4.9,-2.9 5.4,-2.8 6.0,-2.8 6.5,-2.7 7.0,-2.7 7.5,-2.7 8.0,-2.6 8.5,-2.6 9.0,-2.5 9.4,-2.5 9.9,-2.4 10.3,-2.4 10.7,-2.3 11.1,-2.2 11.5,-2.2 11.9,-2.1 12.2,-2.1 12.6,-2.0 12.9,-1.9 13.2,-1.9 13.5,-1.8 13.8,-1.7 14.1,-1.7 14.4,-1.6 14.6,-1.5 14.9,-1.5 15.1,-1.4 15.3,-1.3 15.5,-1.2 15.7,-1.2 14.8,-0.1 14.6,0.0 14.5,0.1 14.3,0.2 14.1,0.3 14.0,0.5 13.8,0.6 13.6,0.7 13.3,0.8 13.1,0.9 12.9,1.0 12.6,1.1 12.3,1.2 12.1,1.3 11.8,1.4 11.5,1.5 11.1,1.6 10.8,1.7 10.5,1.8 10.1,1.9 9.8,2.0 9.4,2.1 9.0,2.2 8.6,2.3 8.2,2.4 7.8,2.5 7.3,2.5 6.9,2.6 6.4,2.7 6.0,2.8 5.5,2.8 5.1,2.9 4.6,2.9 4.1,3.0 3.6,3.0 3.1,3.0 2.6,3.1 2.1,3.1 1.6,3.1 1.0,3.1 0.5,3.1 -0.0,3.1 -0.5,3.1 -1.1,3.0 -1.6,3.0 -2.1,3.0 -2.7,2.9 -3.2,2.9 -3.8,2.8 -4.3,2.8 -4.9,2.7 -5.4,2.6 -5.9,2.6 -6.5,2.5 -7.0,2.4 -7.6,2.3 -8.1,2.2 -8.6,2.1 -9.2,2.0 -9.7,1.9 -10.2,1.7 -10.7,1.6 -11.3,1.5 -11.8,1.4 -12.3,1.3 -12.7,1.2 -13.1,1.1 -13.6,1.0 -14.0,0.9 -14.4,0.8 -14.8,0.7 -15.2,0.6 -15.6,0.5 -16.0,0.4 -16.3,0.3 -16.7,0.2 -17.0,0.1 -17.4,-0.0 -17.7,-0.1 -18.0,-0.2"/></clipPath>
      <clipPath id="rightEye_av_1779093955014_3zsmvfdcgz7"><polyline points="-17.4,-1.3 -17.1,-1.3 -16.9,-1.4 -16.6,-1.4 -16.2,-1.5 -15.9,-1.5 -15.6,-1.6 -15.2,-1.7 -14.8,-1.7 -14.4,-1.8 -14.0,-1.8 -13.6,-1.9 -13.2,-1.9 -12.8,-2.0 -12.3,-2.0 -11.9,-2.1 -11.4,-2.1 -10.8,-2.2 -10.3,-2.3 -9.8,-2.3 -9.2,-2.4 -8.6,-2.4 -8.1,-2.5 -7.5,-2.5 -6.9,-2.6 -6.2,-2.6 -5.6,-2.7 -5.0,-2.7 -4.4,-2.7 -3.7,-2.8 -3.1,-2.8 -2.4,-2.8 -1.8,-2.8 -1.1,-2.9 -0.5,-2.9 0.2,-2.9 0.8,-2.9 1.4,-2.9 2.1,-2.9 2.7,-2.9 3.3,-2.9 3.9,-2.8 4.5,-2.8 5.1,-2.8 5.7,-2.8 6.3,-2.8 6.8,-2.7 7.4,-2.7 7.9,-2.7 8.4,-2.6 8.9,-2.6 9.4,-2.5 9.9,-2.5 10.4,-2.4 10.8,-2.4 11.2,-2.3 11.6,-2.3 12.0,-2.2 12.4,-2.2 12.8,-2.1 13.1,-2.0 13.4,-2.0 13.8,-1.9 14.1,-1.8 14.3,-1.8 14.6,-1.7 14.8,-1.6 15.1,-1.6 15.3,-1.5 15.5,-1.4 15.7,-1.4 15.9,-1.3 16.0,-1.2 16.2,-1.1 16.3,-1.1 16.4,-1.0 16.5,-0.9 16.6,-0.8 16.6,-0.8 16.7,-0.7 13.8,0.1 13.5,0.2 13.2,0.3 12.9,0.4 12.6,0.5 12.3,0.6 12.0,0.7 11.6,0.8 11.3,0.9 10.9,1.0 10.5,1.1 10.1,1.2 9.8,1.3 9.4,1.4 8.9,1.5 8.5,1.6 8.1,1.7 7.7,1.7 7.2,1.8 6.7,1.9 6.3,2.0 5.8,2.1 5.3,2.2 4.8,2.2 4.3,2.3 3.8,2.4 3.3,2.4 2.8,2.5 2.3,2.5 1.8,2.6 1.3,2.6 0.8,2.7 0.3,2.7 -0.3,2.8 -0.8,2.8 -1.3,2.8 -1.8,2.8 -2.3,2.8 -2.8,2.9 -3.3,2.9 -3.8,2.9 -4.3,2.8 -4.8,2.8 -5.3,2.8 -5.8,2.8 -6.2,2.8 -6.7,2.7 -7.2,2.7 -7.6,2.7 -8.1,2.6 -8.5,2.6 -9.0,2.5 -9.4,2.4 -9.8,2.4 -10.3,2.3 -10.7,2.2 -11.1,2.1 -11.5,2.1 -11.9,2.0 -12.3,1.9 -12.7,1.8 -13.1,1.7 -13.5,1.6 -13.9,1.5 -14.3,1.5 -14.6,1.4 -15.0,1.3 -15.3,1.2 -15.6,1.2 -15.9,1.1 -16.2,1.0 -16.5,0.9 -16.8,0.8 -17.0,0.8 -17.3,0.7 -17.6,0.6 -17.8,0.6 -18.0,0.5 -18.3,0.4 -18.5,0.3"/></clipPath>
      <linearGradient id="rainbow_av_1779093955014_3zsmvfdcgz7" x1="0%" y1="0%" x2="100%" y2="0%">
        <stop offset="0%" stop-color="#F97316"/><stop offset="53%" stop-color="#22D3EE"/><stop offset="100%" stop-color="#EA580C"/>
      </linearGradient>
      <linearGradient id="splitHair_av_1779093955014_3zsmvfdcgz7" x1="0%" y1="0%" x2="100%" y2="0%">
        <stop offset="49%" stop-color="#111827"/><stop offset="51%" stop-color="#F9FAFB"/>
      </linearGradient>
      <radialGradient id="halo_av_1779093955014_3zsmvfdcgz7"><stop offset="0%" stop-color="#F97316" stop-opacity=".45"/><stop offset="100%" stop-color="#F97316" stop-opacity="0"/></radialGradient>
    </defs><rect x="-100" y="-100" width="200" height="200" fill="#F5F5DC"/><circle cx="0" cy="-10" r="72" fill="url(#halo_av_1779093955014_3zsmvfdcgz7)"/><g opacity="1"><polyline id="faceContour" class="face-shape" points="55.6,-4.1 55.8,-5.0 55.2,-1.4 55.4,-1.7 54.8,0.4 55.3,-0.8 54.0,3.1 54.0,4.1 53.4,5.8 53.8,5.1 52.7,8.4 52.8,9.0 52.0,10.6 52.7,9.9 51.2,13.8 51.1,14.0 49.6,17.2 49.9,17.2 49.1,19.3 49.1,19.6 48.7,20.9 47.7,23.2 47.0,24.2 46.7,25.5 46.2,26.5 46.2,27.0 46.0,27.4 45.8,28.4 43.3,32.4 43.1,33.3 42.9,33.8 41.9,35.3 42.1,36.0 40.0,39.1 41.4,38.2 39.8,40.3 40.3,40.5 38.1,43.3 37.3,44.7 37.8,44.9 35.3,48.1 36.5,47.8 35.6,49.6 32.9,51.2 32.2,51.3 31.2,51.5 29.6,52.6 29.6,52.0 27.3,53.4 26.9,53.3 24.1,54.6 22.4,55.2 23.3,54.6 21.6,55.2 20.6,55.6 19.0,56.2 15.6,57.2 14.5,57.5 13.8,57.6 12.5,57.9 12.1,57.9 10.7,58.2 10.6,58.1 7.9,58.6 7.8,58.6 6.2,58.7 5.6,58.8 3.7,58.9 3.3,58.9 1.0,59.0 -1.1,59.0 -2.5,59.0 -1.8,59.0 -2.9,59.0 -4.0,58.9 -6.5,58.6 -6.8,58.7 -9.2,58.3 -9.6,58.3 -9.9,58.3 -11.8,57.9 -14.7,57.1 -13.0,57.8 -14.9,57.4 -16.3,57.0 -18.4,56.3 -20.4,55.5 -21.5,55.2 -21.6,55.3 -24.2,54.1 -25.6,53.8 -27.0,53.1 -28.1,52.6 -29.0,52.5 -29.9,52.0 -32.2,51.0 -33.2,50.4 -33.0,51.1 -33.7,50.8 -35.3,48.7 -37.2,46.4 -36.6,46.1 -36.8,45.5 -39.1,42.1 -39.9,40.9 -39.6,40.3 -39.3,40.0 -40.3,38.5 -41.8,36.1 -42.0,35.4 -42.6,34.2 -44.1,31.7 -44.3,30.8 -45.3,28.8 -46.0,27.4 -46.7,25.8 -46.5,25.6 -47.8,23.2 -47.8,22.8 -48.9,20.5 -48.3,21.7 -48.5,20.6 -49.9,17.9 -51.0,15.2 -50.8,15.2 -51.0,14.1 -51.1,13.6 -52.7,9.8 -52.7,9.1 -52.4,9.4 -53.6,5.8 -54.0,4.6 -53.9,4.4 -53.9,3.4 -54.5,1.0 -55.2,-0.3 -55.1,-1.1 -55.1,-2.1 -55.5,-2.5 -55.7,-5.2 -56.2,-6.3 -56.6,-8.9 -56.5,-8.7 -56.6,-11.4 -56.7,-10.3 -56.5,-10.8 -56.8,-12.8 -57.1,-16.1 -56.9,-16.5 -57.1,-17.8 -56.9,-18.3 -56.8,-21.0 -57.1,-20.9 -56.8,-24.6 -56.5,-25.6 -56.8,-26.4 -56.8,-25.5 -56.5,-28.1 -56.2,-30.0 -55.5,-32.7 -55.7,-32.5 -55.2,-35.1 -54.5,-36.7 -54.8,-37.6 -54.4,-38.4 -54.5,-39.0 -53.2,-41.8 -53.9,-40.4 -53.4,-42.3 -52.7,-44.0 -51.3,-46.5 -50.9,-48.2 -51.8,-46.9 -50.9,-48.6 -49.0,-52.1 -49.9,-51.4 -47.7,-54.8 -47.8,-55.2 -46.6,-56.7 -45.7,-58.4 -46.9,-57.9 -45.2,-60.2 -43.9,-61.8 -42.7,-62.4 -41.6,-62.8 -41.3,-62.7 -38.0,-64.4 -38.4,-63.8 -34.1,-65.9 -33.3,-65.9 -30.6,-66.8 -30.3,-66.9 -30.7,-66.4 -26.1,-68.0 -26.8,-67.6 -23.5,-68.5 -22.9,-68.6 -19.3,-69.4 -19.8,-69.2 -16.2,-69.8 -17.5,-69.5 -14.6,-70.0 -13.7,-70.1 -9.7,-70.5 -10.8,-70.3 -8.4,-70.6 -6.0,-70.7 -4.1,-70.8 -3.6,-70.8 -0.7,-70.9 0.7,-70.9 0.9,-70.9 1.1,-70.9 2.7,-70.8 7.6,-70.6 7.6,-70.6 11.3,-70.3 11.1,-70.3 13.1,-70.1 17.0,-69.5 17.8,-69.5 18.1,-69.5 20.4,-69.1 21.9,-68.8 21.5,-68.9 25.6,-68.0 26.5,-67.8 28.1,-67.2 28.6,-67.4 30.7,-66.7 34.2,-65.4 32.0,-66.5 34.3,-65.8 35.2,-65.6 39.3,-63.7 39.2,-64.2 40.0,-63.9 43.0,-62.4 43.4,-62.6 43.9,-61.5 47.0,-57.7 45.4,-58.5 47.9,-55.7 48.6,-54.3 47.4,-54.6 49.4,-52.3 49.2,-51.9 51.0,-48.8 51.2,-48.1 52.4,-46.0 52.5,-44.6 51.7,-45.6 53.3,-42.2 54.3,-40.5 54.2,-39.7 54.1,-39.5 54.7,-38.0 54.5,-37.8 55.0,-36.2 55.5,-33.9 56.0,-32.2 56.3,-30.4 55.9,-31.0 56.5,-27.4 56.7,-27.6 56.4,-27.2 56.9,-24.9 56.8,-24.5 56.8,-23.3 57.1,-20.1 57.1,-19.7 57.0,-17.3 57.0,-17.1 57.1,-14.6 57.2,-15.7 56.5,-10.8 56.6,-11.9 56.6,-9.9 56.5,-9.0 56.6,-8.6 55.6,-4.1 55.8,-5.0" fill="#ffc9a9" stroke="#111" stroke-width="2.2" stroke-linejoin="round" filter="url(#fuzzy_av_1779093955014_3zsmvfdcgz7)"/><g id="leftEye" transform="translate(-26.8 -25.3)"><polyline points="-18.6,-1.8 -18.4,-1.9 -18.3,-1.9 -18.1,-2.0 -17.9,-2.0 -17.6,-2.1 -17.4,-2.1 -17.1,-2.2 -16.9,-2.2 -16.6,-2.3 -16.3,-2.3 -15.9,-2.4 -15.6,-2.4 -15.3,-2.5 -14.9,-2.5 -14.5,-2.5 -14.2,-2.6 -13.7,-2.6 -13.3,-2.7 -12.9,-2.7 -12.4,-2.8 -11.9,-2.8 -11.5,-2.8 -11.0,-2.9 -10.4,-2.9 -9.9,-2.9 -9.4,-3.0 -8.8,-3.0 -8.3,-3.0 -7.7,-3.0 -7.1,-3.1 -6.5,-3.1 -5.9,-3.1 -5.3,-3.1 -4.7,-3.1 -4.1,-3.1 -3.5,-3.1 -2.9,-3.1 -2.3,-3.1 -1.7,-3.1 -1.0,-3.1 -0.4,-3.1 0.2,-3.1 0.8,-3.1 1.4,-3.0 2.0,-3.0 2.6,-3.0 3.2,-3.0 3.7,-2.9 4.3,-2.9 4.9,-2.9 5.4,-2.8 6.0,-2.8 6.5,-2.7 7.0,-2.7 7.5,-2.7 8.0,-2.6 8.5,-2.6 9.0,-2.5 9.4,-2.5 9.9,-2.4 10.3,-2.4 10.7,-2.3 11.1,-2.2 11.5,-2.2 11.9,-2.1 12.2,-2.1 12.6,-2.0 12.9,-1.9 13.2,-1.9 13.5,-1.8 13.8,-1.7 14.1,-1.7 14.4,-1.6 14.6,-1.5 14.9,-1.5 15.1,-1.4 15.3,-1.3 15.5,-1.2 15.7,-1.2 14.8,-0.1 14.6,0.0 14.5,0.1 14.3,0.2 14.1,0.3 14.0,0.5 13.8,0.6 13.6,0.7 13.3,0.8 13.1,0.9 12.9,1.0 12.6,1.1 12.3,1.2 12.1,1.3 11.8,1.4 11.5,1.5 11.1,1.6 10.8,1.7 10.5,1.8 10.1,1.9 9.8,2.0 9.4,2.1 9.0,2.2 8.6,2.3 8.2,2.4 7.8,2.5 7.3,2.5 6.9,2.6 6.4,2.7 6.0,2.8 5.5,2.8 5.1,2.9 4.6,2.9 4.1,3.0 3.6,3.0 3.1,3.0 2.6,3.1 2.1,3.1 1.6,3.1 1.0,3.1 0.5,3.1 -0.0,3.1 -0.5,3.1 -1.1,3.0 -1.6,3.0 -2.1,3.0 -2.7,2.9 -3.2,2.9 -3.8,2.8 -4.3,2.8 -4.9,2.7 -5.4,2.6 -5.9,2.6 -6.5,2.5 -7.0,2.4 -7.6,2.3 -8.1,2.2 -8.6,2.1 -9.2,2.0 -9.7,1.9 -10.2,1.7 -10.7,1.6 -11.3,1.5 -11.8,1.4 -12.3,1.3 -12.7,1.2 -13.1,1.1 -13.6,1.0 -14.0,0.9 -14.4,0.8 -14.8,0.7 -15.2,0.6 -15.6,0.5 -16.0,0.4 -16.3,0.3 -16.7,0.2 -17.0,0.1 -17.4,-0.0 -17.7,-0.1 -18.0,-0.2" fill="#fff" stroke="#fff" stroke-width="0" stroke-linejoin="round" filter="url(#fuzzy_av_1779093955014_3zsmvfdcgz7)"/><polyline points="19.1,-1.2 19.2,-1.3 19.2,-1.4 19.2,-1.4 19.2,-1.5 19.1,-1.5 19.1,-1.6 19.0,-1.6 18.9,-1.7 18.7,-1.8 -18.6,-1.8 -18.4,-1.9 -18.3,-1.9 -18.1,-2.0 -17.9,-2.0 -17.6,-2.1 -17.4,-2.1 -17.1,-2.2 -16.9,-2.2 -16.6,-2.3 -16.3,-2.3 -15.9,-2.4 -15.6,-2.4 -15.3,-2.5 -14.9,-2.5 -14.5,-2.5 -14.2,-2.6 -13.7,-2.6 -13.3,-2.7 -12.9,-2.7 -12.4,-2.8 -11.9,-2.8 -11.5,-2.8 -11.0,-2.9 -10.4,-2.9 -9.9,-2.9 -9.4,-3.0 -8.8,-3.0 -8.3,-3.0 -7.7,-3.0 -7.1,-3.1 -6.5,-3.1 -5.9,-3.1 -5.3,-3.1 -4.7,-3.1 -4.1,-3.1 -3.5,-3.1 -2.9,-3.1 -2.3,-3.1 -1.7,-3.1 -1.0,-3.1 -0.4,-3.1 0.2,-3.1 0.8,-3.1 1.4,-3.0 2.0,-3.0 2.6,-3.0 3.2,-3.0 3.7,-2.9 4.3,-2.9 4.9,-2.9 5.4,-2.8 6.0,-2.8 6.5,-2.7 7.0,-2.7 7.5,-2.7 8.0,-2.6 8.5,-2.6 9.0,-2.5 9.4,-2.5 9.9,-2.4 10.3,-2.4 10.7,-2.3 11.1,-2.2 11.5,-2.2 11.9,-2.1 12.2,-2.1 12.6,-2.0 12.9,-1.9 13.2,-1.9 13.5,-1.8 13.8,-1.7 14.1,-1.7 14.4,-1.6 14.6,-1.5 14.9,-1.5 15.1,-1.4 15.3,-1.3 15.5,-1.2 15.7,-1.2 -15.9,-1.1 -16.0,-1.0 -16.2,-0.9 -16.3,-0.8 -16.4,-0.8 -16.6,-0.7 -16.7,-0.6 -16.8,-0.5 -16.8,-0.4 -16.9,-0.3" fill="none" stroke="#111" stroke-width="2.5129381840279486" stroke-linejoin="round" stroke-linecap="round" filter="url(#fuzzy_av_1779093955014_3zsmvfdcgz7)"/><polyline points="20.2,-0.9 20.1,-0.8 19.9,-0.8 19.7,-0.7 19.5,-0.7 19.3,-0.6 19.1,-0.5 18.8,-0.5 18.6,-0.4 18.3,-0.3 -18.0,-0.2 -17.7,-0.1 -17.4,-0.0 -17.0,0.1 -16.7,0.2 -16.3,0.3 -16.0,0.4 -15.6,0.5 -15.2,0.6 -14.8,0.7 -14.4,0.8 -14.0,0.9 -13.6,1.0 -13.1,1.1 -12.7,1.2 -12.3,1.3 -11.8,1.4 -11.3,1.5 -10.7,1.6 -10.2,1.7 -9.7,1.9 -9.2,2.0 -8.6,2.1 -8.1,2.2 -7.6,2.3 -7.0,2.4 -6.5,2.5 -5.9,2.6 -5.4,2.6 -4.9,2.7 -4.3,2.8 -3.8,2.8 -3.2,2.9 -2.7,2.9 -2.1,3.0 -1.6,3.0 -1.1,3.0 -0.5,3.1 -0.0,3.1 0.5,3.1 1.0,3.1 1.6,3.1 2.1,3.1 2.6,3.1 3.1,3.0 3.6,3.0 4.1,3.0 4.6,2.9 5.1,2.9 5.5,2.8 6.0,2.8 6.4,2.7 6.9,2.6 7.3,2.5 7.8,2.5 8.2,2.4 8.6,2.3 9.0,2.2 9.4,2.1 9.8,2.0 10.1,1.9 10.5,1.8 10.8,1.7 11.1,1.6 11.5,1.5 11.8,1.4 12.1,1.3 12.3,1.2 12.6,1.1 12.9,1.0 13.1,0.9 13.3,0.8 13.6,0.7 13.8,0.6 14.0,0.5 14.1,0.3 14.3,0.2 14.5,0.1 14.6,0.0 14.8,-0.1 -14.9,-0.2 -15.0,-0.3 -15.1,-0.4 -15.2,-0.5 -15.2,-0.6 -15.3,-0.7 -15.3,-0.8 -15.4,-0.9 -15.4,-1.0 -15.4,-1.1" fill="none" stroke="#111" stroke-width="1.856443601856356" stroke-linejoin="round" stroke-linecap="round" filter="url(#fuzzy_av_1779093955014_3zsmvfdcgz7)"/><circle r="3.3577863083733837" cx="-2.7809490389754035" cy="-2.2729009918470466" stroke="#111" fill="none" stroke-width="1.095637641552831" filter="url(#fuzzy_av_1779093955014_3zsmvfdcgz7)" clip-path="url(#leftEye_av_1779093955014_3zsmvfdcgz7)"/><circle r="3.7700175544086343" cx="-2.417142205281883" cy="0.9530808088500579" stroke="#111" fill="none" stroke-width="1.3166168930537756" filter="url(#fuzzy_av_1779093955014_3zsmvfdcgz7)" clip-path="url(#leftEye_av_1779093955014_3zsmvfdcgz7)"/><circle r="3.230048574868213" cx="-2.324636250909559" cy="-0.41616082296209245" stroke="#111" fill="none" stroke-width="1.1663093381001604" filter="url(#fuzzy_av_1779093955014_3zsmvfdcgz7)" clip-path="url(#leftEye_av_1779093955014_3zsmvfdcgz7)"/><circle r="4.5523214018349725" cx="-4.2323851488652915" cy="0.4501629248597879" stroke="#111" fill="none" stroke-width="1.174981001351053" filter="url(#fuzzy_av_1779093955014_3zsmvfdcgz7)" clip-path="url(#leftEye_av_1779093955014_3zsmvfdcgz7)"/><circle r="3.968320828290383" cx="-3.5309785531106614" cy="-2.62865512907391" stroke="#111" fill="none" stroke-width="0.9696842800729462" filter="url(#fuzzy_av_1779093955014_3zsmvfdcgz7)" clip-path="url(#leftEye_av_1779093955014_3zsmvfdcgz7)"/><circle r="3.122038002243892" cx="-2.1002149728485424" cy="-1.7921455760051392" stroke="#111" fill="none" stroke-width="1.368609962094014" filter="url(#fuzzy_av_1779093955014_3zsmvfdcgz7)" clip-path="url(#leftEye_av_1779093955014_3zsmvfdcgz7)"/><circle r="4.008644242504886" cx="-3.029423048243698" cy="0.3181853311938493" stroke="#111" fill="none" stroke-width="1.0277320171691389" filter="url(#fuzzy_av_1779093955014_3zsmvfdcgz7)" clip-path="url(#leftEye_av_1779093955014_3zsmvfdcgz7)"/><circle r="2.3499909026517503" cx="-3.5730610034000163" cy="-2.833811743048595" stroke="#111" fill="none" stroke-width="1.2735521323842942" filter="url(#fuzzy_av_1779093955014_3zsmvfdcgz7)" clip-path="url(#leftEye_av_1779093955014_3zsmvfdcgz7)"/><circle r="3.2584955260280375" cx="-4.618722993954975" cy="-2.2624642458043014" stroke="#111" fill="none" stroke-width="1.135446609678009" filter="url(#fuzzy_av_1779093955014_3zsmvfdcgz7)" clip-path="url(#leftEye_av_1779093955014_3zsmvfdcgz7)"/><circle r="2.6421587564724374" cx="-1.3852674962284195" cy="-2.5050166469513795" stroke="#111" fill="none" stroke-width="1.393002227774295" filter="url(#fuzzy_av_1779093955014_3zsmvfdcgz7)" clip-path="url(#leftEye_av_1779093955014_3zsmvfdcgz7)"/></g><g id="rightEye" transform="translate(26.0 -29.3)"><polyline points="-17.4,-1.3 -17.1,-1.3 -16.9,-1.4 -16.6,-1.4 -16.2,-1.5 -15.9,-1.5 -15.6,-1.6 -15.2,-1.7 -14.8,-1.7 -14.4,-1.8 -14.0,-1.8 -13.6,-1.9 -13.2,-1.9 -12.8,-2.0 -12.3,-2.0 -11.9,-2.1 -11.4,-2.1 -10.8,-2.2 -10.3,-2.3 -9.8,-2.3 -9.2,-2.4 -8.6,-2.4 -8.1,-2.5 -7.5,-2.5 -6.9,-2.6 -6.2,-2.6 -5.6,-2.7 -5.0,-2.7 -4.4,-2.7 -3.7,-2.8 -3.1,-2.8 -2.4,-2.8 -1.8,-2.8 -1.1,-2.9 -0.5,-2.9 0.2,-2.9 0.8,-2.9 1.4,-2.9 2.1,-2.9 2.7,-2.9 3.3,-2.9 3.9,-2.8 4.5,-2.8 5.1,-2.8 5.7,-2.8 6.3,-2.8 6.8,-2.7 7.4,-2.7 7.9,-2.7 8.4,-2.6 8.9,-2.6 9.4,-2.5 9.9,-2.5 10.4,-2.4 10.8,-2.4 11.2,-2.3 11.6,-2.3 12.0,-2.2 12.4,-2.2 12.8,-2.1 13.1,-2.0 13.4,-2.0 13.8,-1.9 14.1,-1.8 14.3,-1.8 14.6,-1.7 14.8,-1.6 15.1,-1.6 15.3,-1.5 15.5,-1.4 15.7,-1.4 15.9,-1.3 16.0,-1.2 16.2,-1.1 16.3,-1.1 16.4,-1.0 16.5,-0.9 16.6,-0.8 16.6,-0.8 16.7,-0.7 13.8,0.1 13.5,0.2 13.2,0.3 12.9,0.4 12.6,0.5 12.3,0.6 12.0,0.7 11.6,0.8 11.3,0.9 10.9,1.0 10.5,1.1 10.1,1.2 9.8,1.3 9.4,1.4 8.9,1.5 8.5,1.6 8.1,1.7 7.7,1.7 7.2,1.8 6.7,1.9 6.3,2.0 5.8,2.1 5.3,2.2 4.8,2.2 4.3,2.3 3.8,2.4 3.3,2.4 2.8,2.5 2.3,2.5 1.8,2.6 1.3,2.6 0.8,2.7 0.3,2.7 -0.3,2.8 -0.8,2.8 -1.3,2.8 -1.8,2.8 -2.3,2.8 -2.8,2.9 -3.3,2.9 -3.8,2.9 -4.3,2.8 -4.8,2.8 -5.3,2.8 -5.8,2.8 -6.2,2.8 -6.7,2.7 -7.2,2.7 -7.6,2.7 -8.1,2.6 -8.5,2.6 -9.0,2.5 -9.4,2.4 -9.8,2.4 -10.3,2.3 -10.7,2.2 -11.1,2.1 -11.5,2.1 -11.9,2.0 -12.3,1.9 -12.7,1.8 -13.1,1.7 -13.5,1.6 -13.9,1.5 -14.3,1.5 -14.6,1.4 -15.0,1.3 -15.3,1.2 -15.6,1.2 -15.9,1.1 -16.2,1.0 -16.5,0.9 -16.8,0.8 -17.0,0.8 -17.3,0.7 -17.6,0.6 -17.8,0.6 -18.0,0.5 -18.3,0.4 -18.5,0.3" fill="#fff" stroke="#fff" stroke-width="0" stroke-linejoin="round" filter="url(#fuzzy_av_1779093955014_3zsmvfdcgz7)"/><polyline points="-19.0,-0.7 -18.9,-0.8 -18.8,-0.8 -18.7,-0.9 -18.6,-0.9 -18.4,-1.0 -18.3,-1.0 -18.1,-1.1 -17.9,-1.1 -17.7,-1.2 -17.4,-1.3 -17.1,-1.3 -16.9,-1.4 -16.6,-1.4 -16.2,-1.5 -15.9,-1.5 -15.6,-1.6 -15.2,-1.7 -14.8,-1.7 -14.4,-1.8 -14.0,-1.8 -13.6,-1.9 -13.2,-1.9 -12.8,-2.0 -12.3,-2.0 -11.9,-2.1 -11.4,-2.1 -10.8,-2.2 -10.3,-2.3 -9.8,-2.3 -9.2,-2.4 -8.6,-2.4 -8.1,-2.5 -7.5,-2.5 -6.9,-2.6 -6.2,-2.6 -5.6,-2.7 -5.0,-2.7 -4.4,-2.7 -3.7,-2.8 -3.1,-2.8 -2.4,-2.8 -1.8,-2.8 -1.1,-2.9 -0.5,-2.9 0.2,-2.9 0.8,-2.9 1.4,-2.9 2.1,-2.9 2.7,-2.9 3.3,-2.9 3.9,-2.8 4.5,-2.8 5.1,-2.8 5.7,-2.8 6.3,-2.8 6.8,-2.7 7.4,-2.7 7.9,-2.7 8.4,-2.6 8.9,-2.6 9.4,-2.5 9.9,-2.5 10.4,-2.4 10.8,-2.4 11.2,-2.3 11.6,-2.3 12.0,-2.2 12.4,-2.2 12.8,-2.1 13.1,-2.0 13.4,-2.0 13.8,-1.9 14.1,-1.8 14.3,-1.8 14.6,-1.7 14.8,-1.6 15.1,-1.6 15.3,-1.5 15.5,-1.4 15.7,-1.4 15.9,-1.3 16.0,-1.2 16.2,-1.1 16.3,-1.1 16.4,-1.0 16.5,-0.9 16.6,-0.8 16.6,-0.8 16.7,-0.7 16.7,-0.6 16.8,-0.5 16.8,-0.5 16.8,-0.4 16.8,-0.3 16.8,-0.2 16.7,-0.1 16.7,-0.1 16.6,0.0 16.5,0.1" fill="none" stroke="#111" stroke-width="2.0081144790569043" stroke-linejoin="round" stroke-linecap="round" filter="url(#fuzzy_av_1779093955014_3zsmvfdcgz7)"/><polyline points="-19.9,-0.2 -19.9,-0.2 -19.8,-0.1 -19.7,-0.1 -19.5,-0.0 -19.4,0.0 -19.2,0.1 -19.1,0.1 -18.9,0.2 -18.7,0.3 -18.5,0.3 -18.3,0.4 -18.0,0.5 -17.8,0.6 -17.6,0.6 -17.3,0.7 -17.0,0.8 -16.8,0.8 -16.5,0.9 -16.2,1.0 -15.9,1.1 -15.6,1.2 -15.3,1.2 -15.0,1.3 -14.6,1.4 -14.3,1.5 -13.9,1.5 -13.5,1.6 -13.1,1.7 -12.7,1.8 -12.3,1.9 -11.9,2.0 -11.5,2.1 -11.1,2.1 -10.7,2.2 -10.3,2.3 -9.8,2.4 -9.4,2.4 -9.0,2.5 -8.5,2.6 -8.1,2.6 -7.6,2.7 -7.2,2.7 -6.7,2.7 -6.2,2.8 -5.8,2.8 -5.3,2.8 -4.8,2.8 -4.3,2.8 -3.8,2.9 -3.3,2.9 -2.8,2.9 -2.3,2.8 -1.8,2.8 -1.3,2.8 -0.8,2.8 -0.3,2.8 0.3,2.7 0.8,2.7 1.3,2.6 1.8,2.6 2.3,2.5 2.8,2.5 3.3,2.4 3.8,2.4 4.3,2.3 4.8,2.2 5.3,2.2 5.8,2.1 6.3,2.0 6.7,1.9 7.2,1.8 7.7,1.7 8.1,1.7 8.5,1.6 8.9,1.5 9.4,1.4 9.8,1.3 10.1,1.2 10.5,1.1 10.9,1.0 11.3,0.9 11.6,0.8 12.0,0.7 12.3,0.6 12.6,0.5 12.9,0.4 13.2,0.3 13.5,0.2 13.8,0.1 14.0,0.0 14.3,-0.1 14.5,-0.2 14.7,-0.3 14.9,-0.4 15.1,-0.5 15.3,-0.6 15.5,-0.7 15.7,-0.8 15.8,-0.9" fill="none" stroke="#111" stroke-width="1.9620355314018847" stroke-linejoin="round" stroke-linecap="round" filter="url(#fuzzy_av_1779093955014_3zsmvfdcgz7)"/><circle r="3.5399546439172145" cx="-9.44615446142228" cy="1.8498987311924244" stroke="#111" fill="none" stroke-width="0.9354337055590287" filter="url(#fuzzy_av_1779093955014_3zsmvfdcgz7)" clip-path="url(#rightEye_av_1779093955014_3zsmvfdcgz7)"/><circle r="3.203116114006064" cx="-9.503075569424498" cy="2.3930333955790624" stroke="#111" fill="none" stroke-width="1.3932815033480057" filter="url(#fuzzy_av_1779093955014_3zsmvfdcgz7)" clip-path="url(#rightEye_av_1779093955014_3zsmvfdcgz7)"/><circle r="3.3277708363865326" cx="-9.883592378778344" cy="1.4882981776290207" stroke="#111" fill="none" stroke-width="0.9717701374438099" filter="url(#fuzzy_av_1779093955014_3zsmvfdcgz7)" clip-path="url(#rightEye_av_1779093955014_3zsmvfdcgz7)"/><circle r="3.7484427920515797" cx="-8.9401400385371" cy="2.7876360948677084" stroke="#111" fill="none" stroke-width="1.02726122299425" filter="url(#fuzzy_av_1779093955014_3zsmvfdcgz7)" clip-path="url(#rightEye_av_1779093955014_3zsmvfdcgz7)"/><circle r="3.556392742169907" cx="-8.103920556008617" cy="1.2782098943275115" stroke="#111" fill="none" stroke-width="0.8115909686130607" filter="url(#fuzzy_av_1779093955014_3zsmvfdcgz7)" clip-path="url(#rightEye_av_1779093955014_3zsmvfdcgz7)"/><circle r="4.186527183791088" cx="-10.718646043086132" cy="2.6439565497337405" stroke="#111" fill="none" stroke-width="1.3228107048916682" filter="url(#fuzzy_av_1779093955014_3zsmvfdcgz7)" clip-path="url(#rightEye_av_1779093955014_3zsmvfdcgz7)"/><circle r="2.474046394641117" cx="-8.626279344142192" cy="0.7947522803586846" stroke="#111" fill="none" stroke-width="1.0149323746610428" filter="url(#fuzzy_av_1779093955014_3zsmvfdcgz7)" clip-path="url(#rightEye_av_1779093955014_3zsmvfdcgz7)"/><circle r="2.5688725749335717" cx="-10.880718856673434" cy="2.7831446421117967" stroke="#111" fill="none" stroke-width="0.8533097875408656" filter="url(#fuzzy_av_1779093955014_3zsmvfdcgz7)" clip-path="url(#rightEye_av_1779093955014_3zsmvfdcgz7)"/><circle r="4.53526859353258" cx="-8.189710287884944" cy="0.5556201293536174" stroke="#111" fill="none" stroke-width="1.3522286635763732" filter="url(#fuzzy_av_1779093955014_3zsmvfdcgz7)" clip-path="url(#rightEye_av_1779093955014_3zsmvfdcgz7)"/><circle r="4.394829633503869" cx="-10.049229543968366" cy="-0.007898014802436792" stroke="#111" fill="none" stroke-width="1.2735860564846848" filter="url(#fuzzy_av_1779093955014_3zsmvfdcgz7)" clip-path="url(#rightEye_av_1779093955014_3zsmvfdcgz7)"/></g><g id="hairs"><polyline points="39.3,-64.7 39.6,-64.7 40.5,-64.9 41.6,-64.2 42.4,-62.5 43.0,-62.7 43.2,-61.8 43.2,-60.8 42.8,-59.0 42.0,-58.5 40.8,-59.3 39.3,-57.8 37.4,-58.4 35.1,-58.0 32.4,-59.3 29.2,-58.9 25.6,-59.7 21.6,-62.2 17.2,-62.9 12.3,-64.6 6.8,-66.0 0.7,-69.7 -6.0,-71.7" fill="none" stroke="rgb(80,68,68)" stroke-width="2.318998750642348" stroke-linejoin="round" stroke-linecap="round" filter="url(#fuzzy_av_1779093955014_3zsmvfdcgz7)" opacity="0.8403974779866595"/><polyline points="-41.3,-63.2 -38.8,-64.6 -36.4,-65.5 -33.7,-65.7 -30.7,-66.1 -27.7,-67.0 -24.5,-66.4 -21.1,-66.7 -17.5,-67.5 -13.7,-67.9 -9.8,-67.8 -5.9,-67.9 -2.0,-68.9 1.9,-68.1 5.5,-68.4 9.1,-68.2 12.6,-68.3 15.9,-69.2 19.1,-68.2 21.8,-68.6 24.3,-69.3 26.5,-68.1" fill="none" stroke="rgb(80,68,68)" stroke-width="2.1875636761021267" stroke-linejoin="round" stroke-linecap="round" filter="url(#fuzzy_av_1779093955014_3zsmvfdcgz7)" opacity="0.8446671814263419"/><polyline points="-51.3,-47.1 -51.2,-48.3 -51.1,-48.2 -50.8,-47.6 -50.4,-47.9 -50.0,-47.4 -49.7,-46.4 -49.5,-44.9 -49.5,-41.6 -49.7,-36.8 -49.9,-33.7 -50.3,-26.9 -50.8,-21.4 -51.4,-13.1 -52.4,-4.4 -53.6,5.2" fill="none" stroke="rgb(80,68,68)" stroke-width="1.1955339040834436" stroke-linejoin="round" stroke-linecap="round" filter="url(#fuzzy_av_1779093955014_3zsmvfdcgz7)" opacity="0.7654441596957813"/><polyline points="-50.9,-49.2 -49.7,-51.6 -48.8,-54.4 -47.7,-56.1 -46.7,-56.3 -45.7,-57.6 -44.8,-58.8 -44.1,-60.4 -43.4,-62.1 -42.8,-63.3 -42.4,-63.8 -42.2,-63.6 -42.3,-62.9 -42.8,-61.8 -43.7,-62.3 -44.9,-59.7 -45.7,-60.2" fill="none" stroke="rgb(80,68,68)" stroke-width="1.457711097944617" stroke-linejoin="round" stroke-linecap="round" filter="url(#fuzzy_av_1779093955014_3zsmvfdcgz7)" opacity="0.8036454835083766"/><polyline points="39.2,-64.8 40.3,-65.4 41.1,-63.5 41.2,-61.5 40.7,-60.2 39.6,-57.1 37.9,-54.1 35.6,-51.3 32.8,-48.1 29.4,-45.2 25.6,-41.0 21.3,-36.8 16.5,-31.7 11.2,-27.6 5.4,-23.2 -0.9,-16.9 -7.7,-11.2 -15.0,-5.3 -22.7,0.5 -30.8,7.0 -39.3,14.4 -48.3,21.2" fill="none" stroke="rgb(80,68,68)" stroke-width="1.8710208716672079" stroke-linejoin="round" stroke-linecap="round" filter="url(#fuzzy_av_1779093955014_3zsmvfdcgz7)" opacity="0.9341689975105056"/><polyline points="-0.7,-72.3 0.3,-71.2 1.4,-72.8 2.9,-71.6 4.8,-71.6 6.9,-71.4 9.0,-71.5 10.7,-70.9 12.0,-70.8 12.8,-70.9 13.1,-71.7 12.6,-70.1 11.3,-71.3 9.0,-71.0 5.5,-71.7 1.1,-72.1" fill="none" stroke="rgb(80,68,68)" stroke-width="1.2963545584198104" stroke-linejoin="round" stroke-linecap="round" filter="url(#fuzzy_av_1779093955014_3zsmvfdcgz7)" opacity="0.7557148578201167"/><polyline points="35.2,-66.7 37.6,-65.6 38.5,-65.2 38.8,-62.6 38.6,-62.7 37.9,-60.8 36.7,-57.7 34.9,-55.1 32.5,-51.9 29.7,-48.6 26.3,-46.3 22.4,-42.7 18.0,-38.1 13.1,-33.3 7.9,-29.7 2.1,-25.8 -4.2,-21.1 -10.9,-16.2 -18.1,-10.4 -25.7,-4.2 -33.7,-0.0 -42.1,6.9 -51.0,12.8" fill="none" stroke="rgb(80,68,68)" stroke-width="0.9352062895599229" stroke-linejoin="round" stroke-linecap="round" filter="url(#fuzzy_av_1779093955014_3zsmvfdcgz7)" opacity="0.7560079303919613"/><polyline points="-16.2,-70.2 -16.2,-69.8 -15.2,-71.2 -13.9,-71.1 -12.8,-69.2 -11.9,-70.0 -11.2,-69.7 -10.7,-68.7 -10.5,-66.0 -10.6,-64.4 -11.0,-64.0 -11.7,-61.7 -12.7,-59.2 -13.9,-57.4 -15.4,-53.3 -17.1,-50.4 -19.1,-46.9 -21.5,-44.1 -24.2,-39.9 -27.3,-36.3 -30.9,-31.2 -34.9,-25.7 -39.2,-20.4 -44.0,-13.8 -49.3,-8.4 -55.1,-3.0" fill="none" stroke="rgb(80,68,68)" stroke-width="0.704516470760585" stroke-linejoin="round" stroke-linecap="round" filter="url(#fuzzy_av_1779093955014_3zsmvfdcgz7)" opacity="0.8074053770926239"/><polyline points="30.7,-66.7 32.1,-66.5 31.9,-65.3 31.2,-65.2 29.9,-63.2 28.0,-61.5 25.2,-58.5 21.5,-55.1 16.8,-51.9 11.2,-47.3 4.5,-42.0 -3.1,-37.1 -11.8,-33.1 -21.4,-27.0 -32.0,-21.0 -43.5,-13.1 -55.7,-5.7" fill="none" stroke="rgb(80,68,68)" stroke-width="0.7573974690626389" stroke-linejoin="round" stroke-linecap="round" filter="url(#fuzzy_av_1779093955014_3zsmvfdcgz7)" opacity="0.7660329735248005"/><polyline points="-51.3,-48.1 -51.2,-48.1 -51.0,-49.7 -50.5,-50.1 -49.9,-51.7 -49.3,-51.8 -48.8,-53.8 -48.4,-54.6 -48.1,-54.7 -47.8,-54.4 -47.7,-55.9 -47.7,-54.2 -47.7,-54.5 -47.7,-53.3 -48.0,-50.9 -48.3,-50.2 -48.9,-47.1 -49.8,-43.0 -51.0,-39.9 -52.5,-36.2 -54.5,-30.6 -56.8,-28.2" fill="none" stroke="rgb(80,68,68)" stroke-width="2.0398621295529153" stroke-linejoin="round" stroke-linecap="round" filter="url(#fuzzy_av_1779093955014_3zsmvfdcgz7)" opacity="0.9194414908059771"/><polyline points="-30.6,-68.2 -30.3,-66.7 -29.4,-66.5 -28.4,-66.3 -27.3,-66.5 -26.4,-65.2 -25.8,-63.6 -25.4,-61.4 -25.4,-60.0 -25.7,-55.7 -26.3,-52.2 -27.2,-49.0 -28.4,-44.7 -29.9,-40.2 -31.8,-34.8 -34.0,-27.4 -36.6,-20.3 -39.6,-13.5 -43.0,-4.6 -46.7,3.3 -51.0,13.0" fill="none" stroke="rgb(80,68,68)" stroke-width="1.0460755078252288" stroke-linejoin="round" stroke-linecap="round" filter="url(#fuzzy_av_1779093955014_3zsmvfdcgz7)" opacity="0.8906686664438934"/><polyline points="-41.3,-63.7 -39.1,-65.5 -37.4,-64.9 -35.8,-66.1 -34.5,-65.3 -33.5,-66.1 -32.9,-65.6 -32.7,-64.9 -32.8,-65.8 -33.1,-64.2 -33.9,-62.1 -35.0,-61.5 -36.6,-58.4 -38.8,-55.3 -41.7,-53.3 -45.2,-49.0 -49.2,-46.1 -53.2,-42.7" fill="none" stroke="rgb(80,68,68)" stroke-width="2.121636822844384" stroke-linejoin="round" stroke-linecap="round" filter="url(#fuzzy_av_1779093955014_3zsmvfdcgz7)" opacity="0.8948646887758099"/><polyline points="-26.8,-68.9 -24.5,-70.1 -23.0,-69.4 -22.1,-69.7 -21.6,-68.0 -21.7,-67.1 -22.2,-64.7 -23.1,-63.7 -24.4,-60.4 -26.3,-58.0 -28.7,-55.3 -31.6,-51.0 -35.3,-46.0 -39.5,-40.5 -44.6,-34.3 -50.3,-28.2 -56.9,-19.8" fill="none" stroke="rgb(80,68,68)" stroke-width="1.896052456420785" stroke-linejoin="round" stroke-linecap="round" filter="url(#fuzzy_av_1779093955014_3zsmvfdcgz7)" opacity="0.7994722228264993"/><polyline points="52.5,-44.8 52.4,-45.2 52.7,-44.3 52.8,-42.2 52.6,-42.9 52.0,-42.1 51.1,-42.0 49.9,-41.4 48.3,-42.8 46.4,-43.2 44.2,-43.4 41.5,-44.2 38.4,-44.7 35.0,-46.6 31.1,-48.6 26.7,-49.9 21.8,-52.5 16.3,-55.5 10.2,-59.9 3.5,-62.8 -3.4,-66.2 -9.7,-70.7" fill="none" stroke="rgb(80,68,68)" stroke-width="0.9050753112874806" stroke-linejoin="round" stroke-linecap="round" filter="url(#fuzzy_av_1779093955014_3zsmvfdcgz7)" opacity="0.8946829620000897"/><polyline points="-50.9,-49.9 -49.6,-51.9 -48.3,-53.6 -46.8,-55.6 -45.0,-56.4 -43.0,-57.9 -40.8,-58.5 -38.5,-61.0 -35.9,-61.9 -33.1,-64.4 -30.2,-63.7 -27.2,-65.4 -24.3,-67.5 -21.3,-67.2 -18.3,-68.4 -15.4,-68.3 -12.7,-68.9 -10.3,-71.3 -8.5,-70.3 -7.0,-70.6 -6.0,-71.4" fill="none" stroke="rgb(80,68,68)" stroke-width="1.9368318470262773" stroke-linejoin="round" stroke-linecap="round" filter="url(#fuzzy_av_1779093955014_3zsmvfdcgz7)" opacity="0.831526179170518"/><polyline points="47.0,-58.2 46.5,-57.7 46.6,-57.9 46.5,-56.5 45.9,-56.6 45.0,-54.9 43.7,-54.7 41.9,-54.6 39.7,-52.8 36.8,-52.8 33.3,-53.5 29.2,-54.9 24.6,-55.6 19.2,-56.1 13.1,-57.1 6.3,-58.7 -1.4,-59.9 -9.9,-62.2 -19.3,-64.5 -30.7,-67.7" fill="none" stroke="rgb(80,68,68)" stroke-width="2.4378220972169675" stroke-linejoin="round" stroke-linecap="round" filter="url(#fuzzy_av_1779093955014_3zsmvfdcgz7)" opacity="0.9160918857865612"/><polyline points="-41.3,-64.3 -38.9,-65.3 -36.8,-65.4 -34.4,-65.6 -32.1,-67.7 -29.8,-67.0 -27.6,-68.7 -25.4,-68.8 -23.3,-69.7 -21.1,-68.9 -18.9,-68.7 -16.9,-69.8 -15.0,-71.0 -13.3,-70.1 -11.9,-70.3 -10.8,-71.3 -10.1,-71.6 -9.8,-71.3 -9.8,-72.1 -10.2,-70.8 -11.1,-70.8 -12.7,-71.9 -14.6,-70.3" fill="none" stroke="rgb(80,68,68)" stroke-width="1.0997359280672228" stroke-linejoin="round" stroke-linecap="round" filter="url(#fuzzy_av_1779093955014_3zsmvfdcgz7)" opacity="0.9353861427244781"/><polyline points="-56.8,-26.1 -56.5,-28.6 -56.0,-31.7 -55.5,-32.1 -54.9,-34.3 -54.4,-37.1 -53.9,-38.5 -53.4,-41.1 -53.0,-41.7 -52.5,-44.0 -52.1,-45.5 -51.6,-46.7 -51.2,-47.9 -50.7,-48.9 -50.4,-50.9 -50.1,-51.2 -49.9,-51.9 -49.9,-50.5 -50.0,-51.0 -50.2,-50.9 -50.5,-49.9 -50.8,-48.3 -51.4,-48.6 -52.7,-45.8" fill="none" stroke="rgb(80,68,68)" stroke-width="2.598089469957289" stroke-linejoin="round" stroke-linecap="round" filter="url(#fuzzy_av_1779093955014_3zsmvfdcgz7)" opacity="0.771677017229313"/><polyline points="-38.0,-66.0 -36.8,-65.5 -34.2,-65.5 -31.1,-67.0 -27.8,-66.6 -24.3,-67.5 -20.4,-67.7 -16.2,-67.5 -11.8,-67.3 -7.1,-67.7 -2.4,-67.8 2.3,-68.9 7.0,-68.2 11.6,-69.0 16.0,-67.5 20.2,-68.9 24.1,-68.8 28.1,-67.8" fill="none" stroke="rgb(80,68,68)" stroke-width="1.9101852402879376" stroke-linejoin="round" stroke-linecap="round" filter="url(#fuzzy_av_1779093955014_3zsmvfdcgz7)" opacity="0.8496732183695999"/><polyline points="-56.8,-24.8 -56.5,-26.8 -56.0,-27.5 -55.1,-28.5 -53.8,-31.1 -52.2,-32.7 -50.4,-34.7 -48.2,-37.1 -45.9,-39.1 -43.4,-41.4 -40.8,-44.3 -37.9,-46.2 -35.0,-49.0 -32.0,-50.2 -28.9,-52.2 -25.8,-54.3 -22.7,-56.6 -19.6,-60.2 -16.6,-61.8 -13.7,-64.0 -10.7,-67.2 -7.5,-68.5 -4.0,-71.2 -0.7,-72.6" fill="none" stroke="rgb(80,68,68)" stroke-width="1.1036088674038886" stroke-linejoin="round" stroke-linecap="round" filter="url(#fuzzy_av_1779093955014_3zsmvfdcgz7)" opacity="0.9535441464204679"/><polyline points="51.0,-49.2 51.4,-48.3 51.7,-47.7 51.8,-47.1 51.8,-46.2 51.6,-46.0 51.3,-46.0 50.6,-44.5 49.6,-46.6 48.3,-46.3 46.6,-48.5 44.6,-50.0 42.1,-50.1 39.2,-53.2 35.8,-55.2 31.9,-58.0 27.5,-61.6 22.7,-64.9 17.8,-70.7" fill="none" stroke="rgb(80,68,68)" stroke-width="0.8433973709905542" stroke-linejoin="round" stroke-linecap="round" filter="url(#fuzzy_av_1779093955014_3zsmvfdcgz7)" opacity="0.7898658402933663"/><polyline points="21.5,-70.1 24.4,-70.0 26.3,-68.7 27.9,-68.5 29.4,-67.0 30.9,-68.0 32.2,-67.7 33.5,-67.1 34.6,-66.7 35.6,-66.2 36.6,-65.0 37.3,-65.8 37.8,-65.6 37.9,-65.4 37.8,-64.1 37.2,-64.4 36.3,-63.8 34.9,-63.8 33.1,-63.8 31.0,-64.9 28.5,-65.9 25.6,-66.7 22.4,-68.4 18.6,-68.9 13.1,-70.2" fill="none" stroke="rgb(80,68,68)" stroke-width="0.9611996858500563" stroke-linejoin="round" stroke-linecap="round" filter="url(#fuzzy_av_1779093955014_3zsmvfdcgz7)" opacity="0.9027691098559"/><polyline points="56.0,-33.9 57.4,-31.6 58.7,-29.8 59.2,-25.9 59.1,-23.6 58.7,-21.5 58.4,-18.1 58.1,-16.7 58.0,-13.9 57.9,-9.7 57.7,-7.9 57.6,-4.9 57.4,-2.3 57.2,0.1 57.0,4.6 56.8,6.9 56.6,9.4 56.4,11.6 56.2,14.3 55.8,16.0 55.3,18.2 54.6,20.6 53.8,24.6 52.8,25.4 51.9,28.2 50.9,31.6 49.9,34.2 49.1,36.0 48.2,38.4 47.3,40.3 46.3,43.6 45.0,47.0 43.4,48.5 41.2,51.0 38.5,51.2 35.7,52.9" fill="none" stroke="rgb(80,68,68)" stroke-width="1.0572023264948103" stroke-linejoin="round" stroke-linecap="round" filter="url(#fuzzy_av_1779093955014_3zsmvfdcgz7)" opacity="0.812979349781652"/><polyline points="55.5,-34.5 61.8,-32.5 62.0,-29.6 61.3,-27.8 60.9,-24.8 60.6,-21.6 60.4,-18.3 60.2,-15.7 59.9,-13.4 59.6,-11.4 59.2,-8.5 58.9,-6.9 58.7,-5.1 58.6,-2.6 58.6,0.1 58.7,3.1 58.8,7.1 59.0,9.0 59.1,10.6 59.2,13.8 59.1,17.5 58.7,18.7 58.1,22.3 57.2,23.8 56.3,27.4 55.5,28.9 54.7,32.4 53.9,35.0 53.1,36.5 52.2,39.4 51.2,42.4 50.0,43.7 48.5,46.6 46.3,48.6 43.5,50.7" fill="none" stroke="rgb(80,68,68)" stroke-width="2.1946265985066384" stroke-linejoin="round" stroke-linecap="round" filter="url(#fuzzy_av_1779093955014_3zsmvfdcgz7)" opacity="0.8297442489181122"/><polyline points="55.0,-38.0 55.8,-34.6 56.5,-31.6 57.5,-28.2 59.2,-25.8 61.3,-24.9 63.6,-21.9 65.8,-19.2 67.3,-16.6 68.1,-13.1 68.3,-10.9 68.1,-7.5 68.0,-5.9 68.1,-2.1 68.3,0.4 68.5,2.7 68.3,5.3 67.6,7.2 66.6,10.9 65.9,13.5 66.1,16.3 67.2,17.9 67.6,20.0" fill="none" stroke="rgb(80,68,68)" stroke-width="1.8687114364063049" stroke-linejoin="round" stroke-linecap="round" filter="url(#fuzzy_av_1779093955014_3zsmvfdcgz7)" opacity="0.9656722894396392"/><polyline points="54.5,-39.3 58.0,-34.6 57.9,-32.0 57.4,-29.2 57.2,-26.3 57.2,-24.6 57.4,-22.5 57.7,-19.5 58.1,-17.5 58.7,-13.8 59.4,-12.4 60.1,-9.4 60.7,-6.2 61.1,-3.7 61.2,-1.4 61.0,0.6 60.5,2.8 59.9,6.0 59.0,8.5 58.1,10.6 57.2,14.1 56.3,16.8 55.3,19.4 54.3,22.9 53.3,24.6 52.2,27.3 51.0,29.3 49.9,31.5 48.9,35.6 48.0,36.9 47.2,38.8 46.4,41.6 46.0,44.8" fill="none" stroke="rgb(80,68,68)" stroke-width="1.0050188499593005" stroke-linejoin="round" stroke-linecap="round" filter="url(#fuzzy_av_1779093955014_3zsmvfdcgz7)" opacity="0.9809432863926095"/><polyline points="54.5,-39.4 55.6,-34.5 56.7,-31.6 58.0,-30.4 59.1,-26.9 59.8,-24.7 60.4,-21.3 60.9,-19.0 61.5,-17.3 62.1,-13.6 62.6,-11.3 63.0,-10.1 63.2,-7.0 63.5,-5.0 63.9,-2.0 64.4,1.5 65.0,3.5 65.4,5.5 65.7,7.8 65.8,10.5 65.7,14.2 65.5,16.1 65.3,19.5 65.0,22.7 64.8,25.2 64.6,26.2 64.1,29.9 63.1,32.2 61.8,34.5" fill="none" stroke="rgb(80,68,68)" stroke-width="2.213901219438587" stroke-linejoin="round" stroke-linecap="round" filter="url(#fuzzy_av_1779093955014_3zsmvfdcgz7)" opacity="0.9859893429683444"/><polyline points="54.5,-38.6 56.6,-35.2 58.4,-32.7 59.8,-28.7 61.1,-26.4 61.9,-24.2 62.4,-21.7 62.5,-19.6 62.5,-17.1 62.5,-14.0 62.7,-11.5 63.0,-9.6 63.3,-6.4 63.6,-4.3 63.7,-1.6 63.6,2.0 63.4,4.0 63.0,6.5 62.7,9.2 62.5,11.7 62.3,14.0 62.2,16.3 62.0,20.1 61.7,22.9 61.2,24.3 60.4,27.0 59.3,30.0 57.9,31.8 56.4,34.3 54.9,37.6 53.4,40.8 51.9,42.7 50.3,45.0 48.5,46.4 46.4,47.9 44.1,50.3 41.7,50.5 38.7,52.7 33.7,54.7" fill="none" stroke="rgb(80,68,68)" stroke-width="1.028120664118218" stroke-linejoin="round" stroke-linecap="round" filter="url(#fuzzy_av_1779093955014_3zsmvfdcgz7)" opacity="0.8609730415499712"/><polyline points="54.1,-40.6 54.7,-37.8 55.5,-35.5 56.1,-31.7 56.5,-30.8 56.8,-28.3 57.0,-24.1 57.2,-22.9 57.3,-18.7 57.4,-16.8 57.5,-15.1 57.4,-12.7 57.3,-10.1 57.0,-7.8 56.7,-3.9 56.2,-2.0 55.7,-0.1 55.1,3.1 54.6,5.6 54.0,7.2 53.3,10.8 52.5,14.3 51.7,17.1 50.7,19.1 49.4,21.4" fill="none" stroke="rgb(80,68,68)" stroke-width="1.0101236714035882" stroke-linejoin="round" stroke-linecap="round" filter="url(#fuzzy_av_1779093955014_3zsmvfdcgz7)" opacity="0.8897520107049655"/><polyline points="54.3,-41.3 54.6,-41.0 55.5,-38.6 56.4,-35.7 57.1,-31.7 57.7,-30.9 58.3,-26.7 59.0,-24.2 59.6,-23.1 60.2,-20.2 60.5,-16.2 60.7,-15.0 60.9,-11.0 61.0,-9.0 61.2,-7.1 61.5,-4.6 61.8,-2.0 62.0,0.7 62.1,4.1 62.0,5.0 61.6,8.0 61.0,12.0 60.4,14.8 59.9,16.2 59.6,18.5 59.3,21.3 59.1,23.6 58.6,26.3 57.7,29.4 56.4,32.3 54.9,35.5 53.7,37.2 53.8,39.1" fill="none" stroke="rgb(80,68,68)" stroke-width="1.7371718194407142" stroke-linejoin="round" stroke-linecap="round" filter="url(#fuzzy_av_1779093955014_3zsmvfdcgz7)" opacity="0.7753748310011034"/><polyline points="51.7,-47.0 53.6,-43.4 54.5,-39.7 55.3,-37.7 56.0,-35.3 56.7,-33.2 57.4,-29.3 58.0,-28.3 58.7,-25.5 59.5,-21.7 60.1,-20.8 60.6,-16.8 60.9,-14.1 61.0,-12.6 61.0,-9.5 61.0,-7.3 61.1,-6.0 61.2,-3.3 61.3,0.1 61.2,2.9 61.0,5.4 60.8,7.4 61.1,9.1" fill="none" stroke="rgb(80,68,68)" stroke-width="1.430370081985942" stroke-linejoin="round" stroke-linecap="round" filter="url(#fuzzy_av_1779093955014_3zsmvfdcgz7)" opacity="0.8125434008241277"/><polyline points="47.9,-56.5 46.3,-59.0 43.9,-62.4 41.5,-63.1 39.3,-64.8 37.2,-65.8 35.0,-66.0 32.5,-67.2 29.7,-68.8 26.6,-69.5 23.5,-70.2 20.3,-71.0 17.0,-71.1 13.6,-70.1 10.1,-72.1 6.3,-72.4 2.5,-72.1 -1.4,-72.4 -5.4,-71.4 -9.5,-72.1 -13.7,-71.9 -18.1,-71.2 -22.5,-69.9 -26.3,-69.5" fill="none" stroke="rgb(80,68,68)" stroke-width="0.7986886640956071" stroke-linejoin="round" stroke-linecap="round" filter="url(#fuzzy_av_1779093955014_3zsmvfdcgz7)" opacity="0.9766339003553222"/><polyline points="47.0,-58.7 41.7,-62.4 38.5,-63.6 35.2,-65.2 31.5,-65.6 27.9,-65.9 24.6,-67.7 21.5,-69.3 18.6,-69.5 15.8,-70.3 13.1,-70.6 10.7,-70.9 8.3,-71.4 6.1,-70.7 4.0,-71.8 1.9,-72.1 0.0,-71.2 -1.6,-72.0 -2.9,-72.2 -4.0,-71.4 -4.8,-70.7 -5.5,-70.4 -6.1,-70.1 -6.6,-69.6 -6.7,-68.8 -6.0,-68.1 -4.9,-67.1 -4.7,-67.3" fill="none" stroke="rgb(80,68,68)" stroke-width="1.319821167041999" stroke-linejoin="round" stroke-linecap="round" filter="url(#fuzzy_av_1779093955014_3zsmvfdcgz7)" opacity="0.8723329186377646"/><polyline points="43.4,-63.0 41.2,-63.7 39.0,-65.4 36.4,-67.0 33.5,-67.4 30.5,-67.7 27.6,-68.5 24.7,-68.4 21.7,-70.1 18.7,-70.3 15.5,-70.5 12.1,-70.0 8.7,-71.6 5.1,-70.5 1.6,-71.7 -1.9,-70.9 -5.5,-70.5 -9.0,-71.4 -12.6,-70.7 -16.2,-70.3 -19.8,-69.7 -23.4,-69.9 -27.0,-69.4 -30.7,-68.4 -34.3,-66.7 -37.9,-67.3 -41.5,-65.6 -45.1,-65.6 -48.6,-62.4 -51.9,-60.6 -54.8,-60.5 -56.5,-57.4" fill="none" stroke="rgb(80,68,68)" stroke-width="1.5738763635594433" stroke-linejoin="round" stroke-linecap="round" filter="url(#fuzzy_av_1779093955014_3zsmvfdcgz7)" opacity="0.8146402053913616"/><polyline points="39.3,-64.3 35.7,-65.1 32.8,-66.3 29.7,-67.0 26.7,-68.3 23.6,-69.1 20.7,-70.4 17.6,-70.8 14.5,-70.9 11.3,-71.0 8.0,-70.3 4.6,-71.1 1.1,-72.2 -2.4,-71.7 -6.0,-70.8 -9.6,-71.5 -13.2,-71.0 -16.7,-71.1 -20.3,-69.7 -23.7,-69.3 -27.1,-68.5 -30.4,-68.4 -33.6,-67.9 -36.8,-66.4 -40.0,-65.9 -43.2,-64.7 -46.4,-62.2 -49.5,-60.0 -52.6,-58.4 -55.5,-57.3 -58.1,-54.5 -60.3,-52.5 -62.2,-49.2 -63.7,-47.5 -65.0,-43.4 -66.3,-41.8 -67.7,-38.5 -69.4,-36.5 -71.3,-34.3" fill="none" stroke="rgb(80,68,68)" stroke-width="1.0116894466501989" stroke-linejoin="round" stroke-linecap="round" filter="url(#fuzzy_av_1779093955014_3zsmvfdcgz7)" opacity="0.9828134223797067"/><polyline points="34.3,-67.3 32.7,-66.7 30.1,-68.8 27.3,-68.3 24.5,-69.1 21.7,-70.0 18.8,-70.1 15.6,-71.3 12.2,-71.7 8.6,-71.3 4.9,-71.3 1.1,-71.9 -2.7,-72.0 -6.6,-71.0 -10.4,-71.3 -14.3,-70.0 -18.1,-69.9 -21.9,-70.7 -25.7,-69.8 -29.4,-68.5 -33.1,-67.7 -36.7,-67.4 -40.4,-65.9 -44.0,-64.8 -47.7,-63.3 -51.3,-62.9 -54.7,-61.5 -57.7,-59.4 -60.4,-57.1 -62.9,-53.9 -65.3,-52.4 -67.8,-48.9 -70.4,-46.4 -73.6,-43.7" fill="none" stroke="rgb(80,68,68)" stroke-width="1.5034466500961865" stroke-linejoin="round" stroke-linecap="round" filter="url(#fuzzy_av_1779093955014_3zsmvfdcgz7)" opacity="0.8011248983433851"/><polyline points="34.2,-65.7 29.6,-68.1 25.7,-69.0 22.3,-70.3 19.2,-69.4 16.3,-69.6 13.2,-70.1 10.1,-70.8 7.1,-71.2 4.1,-71.5 1.2,-70.8 -1.7,-72.5 -4.4,-70.9 -7.1,-71.4 -9.8,-70.2 -12.2,-70.0 -14.5,-70.7 -16.5,-69.9 -18.3,-68.7 -19.8,-69.3 -21.1,-67.7 -22.2,-67.8 -23.1,-67.0 -24.1,-65.4 -25.5,-64.5" fill="none" stroke="rgb(80,68,68)" stroke-width="0.99468599385182" stroke-linejoin="round" stroke-linecap="round" filter="url(#fuzzy_av_1779093955014_3zsmvfdcgz7)" opacity="0.7923471282352905"/><polyline points="26.5,-68.9 24.2,-69.0 22.6,-70.6 19.9,-71.0 16.4,-70.9 12.6,-72.1 8.8,-71.9 5.0,-70.8 1.2,-72.0 -2.5,-72.2 -6.2,-72.2 -9.9,-72.0 -13.7,-71.4 -17.4,-71.5 -21.1,-70.2 -24.9,-70.6 -28.8,-69.4 -32.8,-67.7 -37.1,-68.6 -41.6,-66.1 -46.4,-66.4 -51.4,-65.4 -56.3,-62.7 -60.6,-61.1 -65.0,-58.9" fill="none" stroke="rgb(80,68,68)" stroke-width="1.744096586346023" stroke-linejoin="round" stroke-linecap="round" filter="url(#fuzzy_av_1779093955014_3zsmvfdcgz7)" opacity="0.9683241301412985"/><polyline points="21.9,-69.9 19.4,-71.2 16.1,-69.7 12.4,-72.0 8.7,-71.9 5.3,-71.8 2.0,-71.4 -1.1,-71.5 -4.3,-71.6 -7.6,-72.0 -11.1,-72.2 -14.8,-71.4 -18.7,-69.9 -22.8,-70.4 -27.1,-69.2 -31.7,-69.6 -36.3,-68.5 -40.9,-66.5 -45.4,-65.0 -49.6,-64.2 -53.4,-63.8 -57.0,-61.8 -60.4,-60.9 -64.0,-57.4 -67.9,-54.9 -71.7,-52.2 -74.7,-50.7 -77.0,-48.9" fill="none" stroke="rgb(80,68,68)" stroke-width="1.4372860144800361" stroke-linejoin="round" stroke-linecap="round" filter="url(#fuzzy_av_1779093955014_3zsmvfdcgz7)" opacity="0.9543780951147223"/><polyline points="21.9,-69.2 19.2,-69.3 16.0,-71.0 12.3,-70.3 8.7,-71.6 5.2,-71.0 2.0,-71.1 -1.0,-71.4 -3.9,-71.0 -6.9,-70.7 -9.9,-70.9 -12.9,-70.4 -16.0,-71.3 -19.2,-69.9 -22.4,-69.0 -25.8,-68.3 -29.2,-68.0 -32.7,-66.4 -36.2,-65.4 -39.4,-65.1 -42.5,-63.0 -45.2,-62.4 -47.6,-59.7 -49.7,-58.3 -51.6,-54.9 -53.3,-52.9 -54.8,-50.1 -56.2,-47.5 -57.4,-45.4 -58.7,-40.8" fill="none" stroke="rgb(80,68,68)" stroke-width="1.7848801218967214" stroke-linejoin="round" stroke-linecap="round" filter="url(#fuzzy_av_1779093955014_3zsmvfdcgz7)" opacity="0.9407361860875835"/><polyline points="20.4,-70.4 17.4,-71.4 14.1,-70.6 10.7,-72.1 7.3,-71.5 3.8,-71.9 0.4,-72.3 -2.9,-70.9 -6.3,-70.4 -9.6,-70.6 -12.8,-70.1 -16.1,-69.7 -19.3,-70.2 -22.4,-69.7 -25.4,-67.9 -28.4,-68.0 -31.3,-67.6 -34.2,-65.8 -36.9,-64.8 -39.6,-64.3 -42.1,-61.2 -44.4,-59.2 -46.5,-57.7 -48.3,-56.2 -49.9,-52.8 -51.3,-50.2 -52.5,-49.3 -53.6,-47.2 -54.6,-44.4 -55.6,-42.1 -56.5,-39.1 -57.3,-35.1 -58.1,-32.5 -58.8,-29.8 -59.3,-28.6 -59.7,-25.0 -60.0,-22.1 -60.2,-20.1 -60.2,-17.0" fill="none" stroke="rgb(80,68,68)" stroke-width="1.9525759742889128" stroke-linejoin="round" stroke-linecap="round" filter="url(#fuzzy_av_1779093955014_3zsmvfdcgz7)" opacity="0.8060890342433209"/><polyline points="17.0,-71.5 12.1,-70.7 8.0,-70.8 4.6,-72.1 1.5,-71.7 -1.4,-70.8 -4.5,-72.2 -7.6,-71.2 -10.8,-71.6 -14.1,-70.3 -17.5,-70.1 -21.0,-70.1 -24.6,-69.4 -28.3,-68.8 -32.1,-66.8 -36.1,-65.9 -40.2,-64.7 -44.2,-64.9 -48.0,-62.3 -51.5,-61.4 -54.6,-59.6 -57.3,-57.2 -59.5,-55.7 -61.3,-52.9 -63.1,-49.6 -64.9,-48.1 -66.9,-43.9 -69.1,-41.8 -71.4,-40.7 -73.7,-37.6 -75.8,-34.9 -77.9,-33.4 -79.8,-29.3 -80.4,-27.3" fill="none" stroke="rgb(80,68,68)" stroke-width="2.2759130207417795" stroke-linejoin="round" stroke-linecap="round" filter="url(#fuzzy_av_1779093955014_3zsmvfdcgz7)" opacity="0.8732724134284997"/><polyline points="17.0,-70.3 12.0,-70.1 8.0,-71.7 4.6,-71.9 1.6,-72.4 -1.2,-71.9 -4.0,-71.6 -6.9,-72.2 -9.9,-70.6 -12.8,-71.8 -15.9,-70.2 -19.0,-70.3 -22.1,-70.3 -25.3,-67.8 -28.6,-68.6 -31.7,-67.1 -34.8,-65.5 -37.7,-63.4 -40.2,-62.1 -42.5,-60.4 -44.6,-60.2 -46.3,-56.2 -47.9,-55.3 -49.3,-53.1 -50.5,-50.4 -51.6,-46.7 -52.6,-43.8 -53.5,-42.7 -54.2,-40.6 -54.8,-37.2 -55.2,-35.0 -55.5,-33.7" fill="none" stroke="rgb(80,68,68)" stroke-width="1.5680932444309692" stroke-linejoin="round" stroke-linecap="round" filter="url(#fuzzy_av_1779093955014_3zsmvfdcgz7)" opacity="0.9808700647963078"/><polyline points="7.6,-71.6 3.1,-71.4 -0.2,-72.8 -3.3,-71.3 -6.7,-70.7 -10.1,-71.8 -13.4,-70.1 -16.6,-69.9 -19.8,-69.8 -22.9,-68.7 -25.9,-68.8 -29.0,-68.5 -32.2,-67.7 -35.4,-66.8 -38.6,-64.6 -41.7,-63.2 -44.6,-62.2 -47.4,-59.4 -49.8,-58.7 -52.0,-56.0 -53.9,-52.8 -55.6,-52.0 -57.0,-49.6 -58.2,-45.6 -59.2,-43.1 -60.1,-40.2 -61.0,-39.1 -61.9,-36.5 -62.8,-33.1 -63.7,-30.9 -64.6,-27.9 -65.4,-25.5 -66.2,-21.3 -67.2,-19.2 -68.1,-16.9" fill="none" stroke="rgb(80,68,68)" stroke-width="0.8326470758190418" stroke-linejoin="round" stroke-linecap="round" filter="url(#fuzzy_av_1779093955014_3zsmvfdcgz7)" opacity="0.979022318305393"/><polyline points="1.1,-72.5 -0.5,-71.2 -3.3,-71.3 -6.6,-71.2 -10.0,-70.7 -13.5,-70.9 -16.8,-71.4 -20.1,-70.3 -23.3,-69.7 -26.5,-68.4 -29.6,-68.8 -32.6,-67.6 -35.4,-65.7 -38.2,-65.9 -40.9,-64.0 -43.4,-62.9 -45.9,-60.6 -48.2,-58.5 -50.3,-55.2 -52.3,-52.9 -54.1,-50.6 -55.7,-49.7 -57.1,-45.4 -58.4,-43.5 -59.6,-40.7 -60.7,-38.4 -61.8,-37.0 -62.8,-33.9 -63.9,-29.9 -64.7,-27.4 -65.1,-25.6" fill="none" stroke="rgb(80,68,68)" stroke-width="1.4174392491439005" stroke-linejoin="round" stroke-linecap="round" filter="url(#fuzzy_av_1779093955014_3zsmvfdcgz7)" opacity="0.9012061075497079"/><polyline points="0.7,-72.8 -3.2,-72.0 -6.8,-70.6 -10.3,-72.1 -14.1,-70.0 -18.1,-71.4 -22.4,-69.0 -26.8,-68.6 -30.8,-68.5 -34.2,-68.2 -37.2,-66.6 -39.9,-65.5 -42.5,-64.5 -45.2,-64.1 -48.2,-62.7 -51.5,-60.1 -54.9,-57.0 -58.3,-55.8 -61.5,-52.5 -64.4,-50.4 -66.8,-48.9 -68.7,-45.7 -70.2,-42.7 -71.4,-40.6 -72.5,-37.5 -73.6,-35.6 -74.9,-33.6 -76.4,-30.5 -77.9,-28.1 -79.2,-23.8 -80.2,-22.0 -81.0,-19.0 -82.0,-16.6 -83.6,-15.0 -84.7,-10.8" fill="none" stroke="rgb(80,68,68)" stroke-width="1.418152210047221" stroke-linejoin="round" stroke-linecap="round" filter="url(#fuzzy_av_1779093955014_3zsmvfdcgz7)" opacity="0.9840550055289305"/><polyline points="0.7,-72.4 -2.3,-72.5 -5.2,-71.8 -8.5,-71.3 -12.0,-71.1 -15.4,-70.1 -18.6,-69.6 -21.6,-69.3 -24.4,-68.6 -26.8,-68.8 -28.9,-67.3 -30.7,-65.2 -32.1,-64.5 -33.2,-63.3 -34.0,-62.5 -34.8,-59.8 -35.4,-57.8 -36.2,-56.8 -37.0,-53.0 -37.8,-51.5 -38.5,-48.3 -39.0,-47.2 -39.2,-43.0 -39.1,-40.7 -38.9,-38.3 -38.6,-35.6 -38.2,-34.0 -37.6,-30.3 -36.6,-27.9 -35.5,-25.9 -35.1,-22.6" fill="none" stroke="rgb(80,68,68)" stroke-width="0.9699954230689036" stroke-linejoin="round" stroke-linecap="round" filter="url(#fuzzy_av_1779093955014_3zsmvfdcgz7)" opacity="0.8081822621576368"/><polyline points="-3.6,-72.1 -6.2,-71.4 -9.1,-70.5 -11.7,-71.1 -13.9,-71.5 -16.2,-70.3 -18.5,-69.0 -21.0,-68.5 -23.4,-68.5 -25.5,-67.3 -27.3,-66.2 -28.7,-64.9 -29.8,-64.2 -30.4,-62.5 -30.3,-61.5 -29.5,-59.0 -28.0,-57.0 -26.2,-53.8 -24.5,-52.2 -23.0,-48.4 -21.3,-46.9 -19.1,-44.3 -16.7,-42.9" fill="none" stroke="rgb(80,68,68)" stroke-width="0.7571745919073172" stroke-linejoin="round" stroke-linecap="round" filter="url(#fuzzy_av_1779093955014_3zsmvfdcgz7)" opacity="0.8295627767088221"/><polyline points="-6.0,-71.7 -10.1,-71.7 -13.6,-71.7 -16.8,-70.6 -20.0,-70.1 -23.2,-70.2 -26.4,-68.2 -29.7,-67.2 -32.9,-67.7 -36.0,-66.2 -39.0,-64.9 -41.9,-64.2 -44.6,-60.7 -47.0,-59.7 -49.3,-58.1 -51.2,-55.1 -53.0,-52.7 -54.7,-49.9 -56.2,-47.3 -57.7,-44.9 -59.0,-43.2 -60.2,-41.5 -61.2,-39.0 -62.0,-35.0 -62.8,-31.9 -63.6,-29.9 -64.4,-27.2 -65.4,-24.6 -66.5,-21.5 -67.7,-19.2 -68.8,-17.5 -69.7,-14.0 -70.3,-11.3 -70.6,-9.7 -70.7,-5.8 -70.9,-3.5 -71.3,-1.8 -71.6,-0.6" fill="none" stroke="rgb(80,68,68)" stroke-width="1.1503449581816176" stroke-linejoin="round" stroke-linecap="round" filter="url(#fuzzy_av_1779093955014_3zsmvfdcgz7)" opacity="0.936098942027645"/><polyline points="-8.4,-72.4 -10.8,-70.4 -13.8,-71.9 -16.9,-70.8 -20.2,-70.1 -23.9,-69.7 -28.0,-68.9 -32.4,-68.3 -36.7,-67.4 -40.9,-64.5 -44.8,-64.0 -48.2,-63.2 -51.3,-60.6 -54.0,-59.3 -56.6,-56.7 -59.1,-53.9 -61.5,-52.3 -63.9,-49.4 -66.2,-46.6 -68.2,-45.1 -70.0,-43.0 -71.6,-40.5 -73.2,-37.1 -74.7,-35.5 -76.3,-32.1 -78.0,-29.8 -79.8,-28.0 -81.6,-24.9 -83.2,-22.7 -84.5,-19.8 -86.3,-18.0" fill="none" stroke="rgb(80,68,68)" stroke-width="1.5325549149649054" stroke-linejoin="round" stroke-linecap="round" filter="url(#fuzzy_av_1779093955014_3zsmvfdcgz7)" opacity="0.9753137344905097"/><polyline points="-8.4,-71.5 -10.6,-72.4 -13.5,-70.1 -16.5,-71.2 -19.6,-70.6 -22.8,-69.9 -26.2,-69.2 -29.5,-67.5 -32.8,-67.1 -35.8,-66.2 -38.6,-64.5 -41.1,-62.1 -43.3,-60.3 -45.2,-59.6 -46.9,-55.6 -48.4,-54.6 -49.8,-51.5 -51.0,-48.5 -52.1,-46.2 -53.0,-44.6 -53.9,-41.8 -54.6,-39.2 -55.2,-37.1 -55.7,-34.2 -56.2,-32.3 -56.6,-29.8 -57.0,-26.8 -57.3,-23.5 -57.5,-22.0 -57.6,-18.5 -57.6,-15.6 -57.6,-12.9 -57.5,-11.6 -57.2,-9.4 -56.7,-6.1" fill="none" stroke="rgb(80,68,68)" stroke-width="1.021502272317301" stroke-linejoin="round" stroke-linecap="round" filter="url(#fuzzy_av_1779093955014_3zsmvfdcgz7)" opacity="0.996415038151046"/><polyline points="-13.7,-70.4 -17.9,-71.4 -21.5,-70.5 -24.7,-68.8 -28.0,-68.3 -31.4,-68.9 -34.9,-66.8 -38.3,-67.0 -41.6,-66.0 -44.9,-63.9 -48.1,-62.7 -51.3,-60.7 -54.2,-57.6 -56.9,-55.5 -59.3,-53.1 -61.5,-50.9 -63.8,-48.3 -66.1,-47.1 -68.6,-43.5 -71.2,-41.5 -73.9,-40.2 -76.2,-37.7 -78.7,-32.6" fill="none" stroke="rgb(80,68,68)" stroke-width="1.987061202345191" stroke-linejoin="round" stroke-linecap="round" filter="url(#fuzzy_av_1779093955014_3zsmvfdcgz7)" opacity="0.9890115058669608"/><polyline points="-17.5,-70.3 -20.3,-71.0 -23.4,-68.8 -26.5,-68.6 -29.4,-67.5 -32.2,-67.7 -35.1,-66.8 -38.0,-64.2 -40.9,-64.0 -43.6,-61.7 -46.1,-60.0 -48.1,-58.3 -49.9,-55.6 -51.3,-52.9 -52.6,-50.9 -53.9,-49.0 -55.1,-45.7 -56.3,-43.2 -57.4,-40.4 -58.5,-37.5 -59.5,-35.7 -60.5,-31.6 -61.3,-28.8 -62.2,-27.3 -63.0,-23.5 -63.9,-21.8 -64.6,-18.4 -65.2,-16.1 -65.7,-13.6 -66.0,-11.9 -66.2,-8.6 -66.2,-6.8 -66.1,-4.0 -65.9,-2.5 -65.8,1.0 -65.7,2.5 -65.5,4.0" fill="none" stroke="rgb(80,68,68)" stroke-width="1.6148290334231876" stroke-linejoin="round" stroke-linecap="round" filter="url(#fuzzy_av_1779093955014_3zsmvfdcgz7)" opacity="0.758666175290831"/><polyline points="-22.9,-69.5 -26.4,-68.0 -29.4,-68.7 -32.2,-67.9 -35.0,-66.7 -37.8,-65.0 -40.5,-64.5 -43.1,-61.0 -45.5,-60.3 -47.8,-56.8 -49.8,-55.8 -51.7,-53.0 -53.4,-49.6 -54.9,-47.3 -56.1,-45.9 -57.1,-42.1 -57.9,-40.5 -58.6,-38.1 -59.1,-34.5 -59.5,-33.0 -60.0,-30.0 -60.5,-27.0 -61.1,-23.9 -61.6,-21.5 -62.1,-19.8 -62.6,-15.9 -62.8,-13.0 -62.9,-11.6 -62.9,-8.4 -62.7,-6.3 -62.5,-3.7 -62.3,-2.2 -62.1,1.5 -62.0,2.6 -62.0,5.4" fill="none" stroke="rgb(80,68,68)" stroke-width="1.4637718158243742" stroke-linejoin="round" stroke-linecap="round" filter="url(#fuzzy_av_1779093955014_3zsmvfdcgz7)" opacity="0.8795556386963812"/><polyline points="-26.8,-68.9 -29.6,-67.0 -32.3,-67.7 -35.8,-66.8 -39.8,-64.6 -43.8,-64.6 -47.0,-62.4 -49.5,-60.8 -51.3,-58.5 -52.8,-55.6 -54.2,-52.1 -55.7,-50.9 -57.4,-48.3 -59.0,-45.5 -60.5,-43.5 -61.8,-41.1 -63.0,-37.6 -64.0,-34.8 -65.1,-32.0 -66.2,-29.7 -67.4,-28.2 -68.6,-24.5 -69.9,-22.5 -71.2,-18.2 -72.4,-16.8 -73.3,-14.1 -74.1,-11.8 -74.9,-8.7 -76.0,-6.1 -77.7,-3.7" fill="none" stroke="rgb(80,68,68)" stroke-width="1.3490400669470595" stroke-linejoin="round" stroke-linecap="round" filter="url(#fuzzy_av_1779093955014_3zsmvfdcgz7)" opacity="0.9394437734619739"/><polyline points="-30.7,-67.8 -30.6,-68.0 -30.2,-66.4 -30.9,-64.6 -32.9,-63.3 -35.3,-62.2 -37.2,-61.0 -38.4,-58.9 -38.9,-55.0 -39.0,-54.1 -38.6,-49.8 -37.9,-49.2 -36.9,-45.5 -35.4,-42.7 -33.6,-41.4 -31.6,-37.6 -29.6,-36.4 -27.8,-32.7 -26.2,-30.2 -24.5,-27.5 -21.9,-25.9 -18.1,-22.0 -15.0,-19.7" fill="none" stroke="rgb(80,68,68)" stroke-width="0.9043998289900599" stroke-linejoin="round" stroke-linecap="round" filter="url(#fuzzy_av_1779093955014_3zsmvfdcgz7)" opacity="0.8433257919276362"/><polyline points="-33.3,-67.0 -38.9,-64.8 -41.8,-63.7 -43.8,-63.4 -45.4,-60.6 -46.9,-59.7 -48.3,-55.3 -49.7,-52.9 -51.0,-51.0 -52.4,-48.3 -53.8,-45.9 -55.1,-42.7 -56.5,-42.1 -57.7,-38.8 -58.9,-36.3 -60.0,-35.0 -61.0,-32.4 -62.2,-28.1 -63.3,-25.4 -64.5,-24.4 -65.7,-21.0 -66.9,-18.6 -68.0,-16.3 -68.9,-13.0 -69.4,-11.8 -69.5,-8.2 -69.3,-6.8 -68.9,-3.6 -68.8,-0.6 -69.5,1.7" fill="none" stroke="rgb(80,68,68)" stroke-width="1.2424663823508006" stroke-linejoin="round" stroke-linecap="round" filter="url(#fuzzy_av_1779093955014_3zsmvfdcgz7)" opacity="0.7635032411892789"/><polyline points="-47.7,-55.0 -49.2,-51.7 -50.6,-49.1 -51.7,-46.1 -52.7,-44.6 -53.5,-42.9 -54.3,-38.8 -54.9,-38.1 -55.5,-33.4 -56.0,-31.5 -56.5,-29.8 -56.8,-26.4 -57.1,-23.5 -57.2,-20.1 -57.3,-17.9 -57.3,-15.7 -57.2,-12.5 -57.0,-10.9 -56.7,-8.5 -56.4,-6.1 -56.0,-2.5 -55.5,-1.3 -55.0,0.8 -54.4,3.8 -53.8,7.5 -53.1,9.7 -52.3,12.9 -51.4,14.0 -50.5,18.1 -49.6,20.3 -48.7,23.2 -47.8,24.0 -46.8,27.9 -45.6,29.8" fill="none" stroke="rgb(80,68,68)" stroke-width="1.6354658734281409" stroke-linejoin="round" stroke-linecap="round" filter="url(#fuzzy_av_1779093955014_3zsmvfdcgz7)" opacity="0.7654967910771626"/><polyline points="-50.9,-49.8 -52.7,-44.9 -54.1,-43.5 -55.1,-40.8 -55.7,-37.6 -56.1,-35.3 -56.3,-33.5 -56.6,-29.9 -56.9,-27.8 -57.3,-25.7 -57.6,-23.7 -57.9,-19.4 -58.2,-18.4 -58.3,-14.5 -58.2,-11.9 -58.1,-10.8 -57.9,-8.0 -57.7,-5.6 -57.5,-2.1 -57.2,0.5 -56.9,3.4 -56.6,6.3 -56.1,8.1 -55.4,11.4 -54.6,14.2 -53.7,15.9 -52.7,19.2 -51.6,20.9 -50.5,23.0 -49.4,25.8 -48.2,28.6 -46.9,32.1 -45.7,33.7 -44.5,36.1 -43.4,39.4 -42.2,42.8 -40.5,45.2" fill="none" stroke="rgb(80,68,68)" stroke-width="1.6966623653278967" stroke-linejoin="round" stroke-linecap="round" filter="url(#fuzzy_av_1779093955014_3zsmvfdcgz7)" opacity="0.883045300337857"/><polyline points="-52.7,-46.0 -54.2,-42.8 -54.7,-40.6 -55.0,-38.7 -55.4,-36.1 -55.8,-32.3 -56.2,-30.8 -56.6,-28.6 -57.0,-26.2 -57.3,-23.3 -57.5,-20.1 -57.5,-18.0 -57.5,-14.9 -57.3,-13.3 -57.1,-9.1 -56.8,-8.2 -56.4,-5.2 -56.0,-1.8 -55.5,-0.2 -54.9,2.5 -54.3,5.1 -53.6,7.4 -52.9,10.3 -52.1,13.0 -51.3,16.6 -50.5,18.8 -49.6,20.3 -48.7,23.2 -47.7,26.7 -46.6,27.9 -45.3,31.3 -44.0,33.4 -42.7,37.4 -41.4,40.2 -40.1,42.6 -38.7,43.9 -37.2,47.2" fill="none" stroke="rgb(80,68,68)" stroke-width="2.152051289982377" stroke-linejoin="round" stroke-linecap="round" filter="url(#fuzzy_av_1779093955014_3zsmvfdcgz7)" opacity="0.9682571849003316"/><polyline points="-56.8,-27.2 -57.2,-24.3 -57.6,-23.6 -57.6,-20.6 -57.4,-17.9 -57.3,-15.1 -57.2,-12.7 -57.1,-10.9 -57.0,-7.4 -56.9,-5.4 -56.7,-3.7 -56.4,-0.6 -55.9,2.6 -55.4,4.9 -54.7,6.7 -54.1,9.3 -53.3,13.2 -52.5,15.5 -51.5,17.7 -50.6,20.2 -49.6,22.7 -48.6,24.7 -47.6,27.3 -46.5,29.8 -45.4,33.4 -44.3,36.1 -43.1,38.0 -41.9,41.5 -40.7,44.2 -39.3,45.8 -37.8,49.0 -36.7,49.5" fill="none" stroke="rgb(80,68,68)" stroke-width="2.3803123790775444" stroke-linejoin="round" stroke-linecap="round" filter="url(#fuzzy_av_1779093955014_3zsmvfdcgz7)" opacity="0.7551732538005336"/><polyline points="-56.8,-25.8 -56.8,-25.0 -56.9,-23.0 -57.3,-19.0 -57.8,-17.4 -58.3,-14.4 -58.6,-12.5 -58.8,-9.3 -58.7,-6.8 -58.5,-4.6 -58.4,-2.3 -58.2,0.4 -58.0,3.3 -57.8,5.7 -57.5,7.2 -57.0,10.5 -56.4,13.8 -55.6,15.3 -54.8,17.9 -53.9,20.3 -52.9,22.8 -51.9,26.5 -50.9,28.2 -49.7,29.9 -48.4,32.6 -47.0,37.0 -45.7,39.7 -44.3,41.3 -42.9,44.2 -41.6,46.8 -40.0,47.6 -38.2,49.4 -36.1,51.1 -33.7,51.6 -30.9,53.6" fill="none" stroke="rgb(80,68,68)" stroke-width="1.8211892109595202" stroke-linejoin="round" stroke-linecap="round" filter="url(#fuzzy_av_1779093955014_3zsmvfdcgz7)" opacity="0.8229238022263964"/><polyline points="-56.8,-27.4 -57.7,-24.5 -58.4,-21.7 -59.2,-18.7 -59.8,-17.3 -60.2,-14.0 -60.2,-11.7 -59.9,-9.0 -59.5,-7.2 -58.9,-3.5 -58.2,-2.5 -57.4,0.8 -56.5,3.4 -55.7,6.6 -55.0,8.0 -54.4,10.4 -53.9,12.9 -53.6,15.9 -53.2,18.9 -52.7,21.2 -52.0,22.9 -51.2,25.5 -50.2,29.4 -49.1,32.8 -48.0,34.1 -46.8,36.4 -45.4,39.4 -44.0,41.9 -42.3,44.4 -40.5,46.6 -38.8,49.0 -36.9,51.0 -34.9,51.7 -32.5,52.9" fill="none" stroke="rgb(80,68,68)" stroke-width="1.7836177134004545" stroke-linejoin="round" stroke-linecap="round" filter="url(#fuzzy_av_1779093955014_3zsmvfdcgz7)" opacity="0.9885369090291268"/><polyline points="-57.1,-21.8 -57.0,-19.0 -57.0,-17.3 -57.0,-14.4 -57.0,-11.7 -57.0,-9.1 -56.8,-7.1 -56.6,-4.1 -56.4,-3.1 -56.3,-0.5 -56.3,1.3 -56.3,5.6 -56.4,6.6 -56.4,9.9 -56.2,13.5 -56.0,15.0 -55.6,17.9 -55.2,21.4 -54.6,22.7 -53.9,25.2 -52.8,28.1 -51.6,30.7 -50.3,33.1 -49.2,36.3 -48.5,38.7 -48.0,40.8 -46.7,45.0" fill="none" stroke="rgb(80,68,68)" stroke-width="2.5724719547987958" stroke-linejoin="round" stroke-linecap="round" filter="url(#fuzzy_av_1779093955014_3zsmvfdcgz7)" opacity="0.9427160769589176"/><polyline points="-56.9,-18.3 -56.8,-13.9 -56.7,-12.7 -56.5,-8.6 -56.2,-6.5 -55.9,-4.8 -55.5,-2.8 -55.0,-0.5 -54.5,2.6 -53.9,4.3 -53.3,7.7 -52.6,11.0 -51.8,12.2 -50.9,16.0 -50.0,18.9 -49.0,20.4 -48.0,22.9 -46.9,25.4 -45.9,28.4 -44.7,31.5 -43.6,34.1 -42.3,35.8 -41.1,38.4 -39.8,40.7 -38.4,44.5 -37.0,47.1 -35.4,48.9 -33.5,49.7 -31.1,51.3" fill="none" stroke="rgb(80,68,68)" stroke-width="1.152544324661655" stroke-linejoin="round" stroke-linecap="round" filter="url(#fuzzy_av_1779093955014_3zsmvfdcgz7)" opacity="0.9277037930639461"/><polyline points="-56.7,-10.5 -57.7,-9.1 -57.2,-6.8 -56.9,-5.0 -57.3,-1.8 -58.3,1.0 -59.5,3.1 -60.6,4.8 -61.0,8.6 -60.6,10.1 -59.7,13.9 -58.5,16.1 -57.2,17.9 -56.1,21.5 -55.3,23.7 -54.5,26.2 -53.8,29.3 -53.0,31.2 -52.1,34.9 -50.9,37.0 -49.5,39.2 -48.0,41.8 -46.4,44.3 -44.8,46.8 -43.0,47.7 -41.1,48.6 -39.0,50.9 -36.5,51.5 -33.6,53.7 -30.3,54.5 -26.8,54.6 -23.2,55.2 -19.7,55.4 -16.7,56.8 -13.7,57.1 -10.3,58.3" fill="none" stroke="rgb(80,68,68)" stroke-width="1.1687096074341896" stroke-linejoin="round" stroke-linecap="round" filter="url(#fuzzy_av_1779093955014_3zsmvfdcgz7)" opacity="0.9191330000517357"/><polyline points="-56.7,-11.9 -56.8,-10.2 -56.9,-7.3 -56.8,-4.8 -56.7,-3.0 -56.3,-0.5 -55.7,3.6 -54.9,5.6 -54.2,8.2 -53.5,11.0 -52.9,12.7 -52.2,15.0 -51.5,17.5 -50.6,20.0 -49.6,23.2 -48.5,25.1 -47.4,29.3 -46.3,30.2 -45.2,33.4 -44.1,36.5 -42.9,38.9 -41.6,40.8 -40.3,44.6 -38.8,46.8 -37.1,47.4 -35.3,50.3 -33.3,51.2 -31.0,52.6 -28.4,53.9 -24.9,54.2" fill="none" stroke="rgb(80,68,68)" stroke-width="0.8172260212641097" stroke-linejoin="round" stroke-linecap="round" filter="url(#fuzzy_av_1779093955014_3zsmvfdcgz7)" opacity="0.9371263125250971"/><polyline points="-56.5,-9.3 -56.7,-7.6 -56.5,-4.2 -56.0,-1.3 -55.4,0.5 -54.8,3.4 -54.3,5.3 -53.7,8.0 -53.0,10.0 -52.1,13.3 -51.1,15.6 -50.1,18.0 -49.2,20.3 -48.2,24.1 -47.3,26.6 -46.4,29.0 -45.4,31.8 -44.3,33.9 -43.2,36.7 -41.9,39.3 -40.6,41.2 -39.1,43.9 -37.5,45.7 -35.8,48.9 -34.0,49.3 -31.9,50.2 -29.5,52.5 -26.8,52.2 -23.3,54.9" fill="none" stroke="rgb(80,68,68)" stroke-width="0.7339723446936027" stroke-linejoin="round" stroke-linecap="round" filter="url(#fuzzy_av_1779093955014_3zsmvfdcgz7)" opacity="0.9432871922050021"/><polyline points="-55.5,-4.4 -55.1,-2.3 -54.6,-0.5 -54.1,3.5 -53.5,4.7 -52.9,7.5 -52.2,11.1 -51.5,13.9 -50.7,17.0 -49.7,17.9 -48.7,20.5 -47.7,24.3 -46.5,25.4 -45.4,29.7 -44.2,30.7 -43.0,34.1 -41.9,37.2 -40.7,38.6 -39.4,42.4 -38.1,43.4 -36.5,46.0 -34.8,48.5 -32.8,48.5 -30.6,50.3 -28.2,51.9 -25.6,53.5 -22.9,53.7 -20.2,54.3 -17.4,54.7 -14.7,56.4 -12.4,57.4 -10.3,56.4" fill="none" stroke="rgb(80,68,68)" stroke-width="1.063082666741773" stroke-linejoin="round" stroke-linecap="round" filter="url(#fuzzy_av_1779093955014_3zsmvfdcgz7)" opacity="0.9930649445487719"/><polyline points="-55.5,-2.9 -52.9,-1.6 -52.4,1.3 -52.0,2.5 -51.5,5.3 -50.8,7.3 -49.7,11.4 -48.5,13.3 -47.3,17.1 -46.1,18.1 -45.0,20.7 -43.9,23.2 -42.7,25.6 -41.5,29.1 -40.2,31.2 -38.8,33.3 -37.4,35.9 -36.0,38.4 -34.6,41.4 -33.1,43.7 -31.6,45.4 -29.8,48.0 -27.9,49.7 -25.8,51.5 -23.6,51.0 -21.2,52.1 -18.8,54.7 -16.3,55.1 -13.8,56.1 -11.5,55.8 -9.4,57.2 -7.5,57.2 -5.6,57.6" fill="none" stroke="rgb(80,68,68)" stroke-width="1.8472127651001795" stroke-linejoin="round" stroke-linecap="round" filter="url(#fuzzy_av_1779093955014_3zsmvfdcgz7)" opacity="0.9119676560177681"/><polyline points="-55.1,-2.3 -53.0,-0.1 -49.6,3.5 -46.7,4.6 -44.7,7.6 -43.2,11.6 -41.7,13.4 -40.1,16.2 -38.5,18.3 -36.9,21.6 -35.3,23.3 -33.5,26.6 -31.7,28.5 -29.7,31.4 -27.8,34.7 -26.0,36.9 -24.3,39.3 -22.6,41.9 -20.9,44.2 -19.2,45.8 -17.5,47.4 -15.7,49.3 -13.8,50.9 -11.5,51.4 -8.3,52.4" fill="none" stroke="rgb(80,68,68)" stroke-width="1.9485358390475327" stroke-linejoin="round" stroke-linecap="round" filter="url(#fuzzy_av_1779093955014_3zsmvfdcgz7)" opacity="0.7619365474690636"/><polyline points="-54.0,3.5 -52.9,6.1 -52.2,10.5 -51.4,12.6 -50.6,14.9 -49.8,16.5 -49.1,19.5 -48.2,22.5 -47.3,24.3 -46.2,26.4 -45.1,30.4 -43.8,33.1 -42.6,35.5 -41.3,38.7 -40.0,40.4 -38.6,43.6 -37.1,44.5 -35.5,47.4 -33.7,49.3 -31.8,49.9 -29.7,51.8 -27.5,53.1 -25.1,52.4 -22.4,53.4 -19.3,55.6" fill="none" stroke="rgb(80,68,68)" stroke-width="2.1119505778132535" stroke-linejoin="round" stroke-linecap="round" filter="url(#fuzzy_av_1779093955014_3zsmvfdcgz7)" opacity="0.8893506947760267"/><polyline points="-52.4,8.3 -52.3,9.7 -51.8,11.6 -51.2,15.6 -50.8,17.0 -50.5,19.4 -50.4,23.0 -50.1,23.6 -49.6,28.1 -49.0,29.4 -48.2,31.7 -47.5,36.0 -46.9,37.5 -46.4,40.6 -46.0,43.4 -45.4,45.8 -44.6,47.7 -43.4,49.0 -41.7,51.1 -39.6,52.2 -37.0,52.9 -33.9,52.9 -30.7,54.6" fill="none" stroke="rgb(80,68,68)" stroke-width="2.4802529611370936" stroke-linejoin="round" stroke-linecap="round" filter="url(#fuzzy_av_1779093955014_3zsmvfdcgz7)" opacity="0.9992778110764081"/><polyline points="-52.7,8.8 -51.4,13.0 -50.5,14.7 -49.7,16.7 -48.9,20.8 -48.2,22.7 -47.5,25.1 -46.6,28.4 -45.5,30.3 -44.2,33.8 -42.8,36.4 -41.3,37.9 -39.8,39.8 -38.2,44.1 -36.6,45.8 -35.0,47.1 -33.2,48.3 -31.2,50.4 -29.1,51.6 -26.7,52.2 -24.2,54.3 -21.6,54.1 -18.9,55.7 -16.3,56.2 -13.7,56.9 -11.1,56.5 -8.6,57.5 -6.0,58.3 -3.5,57.5 -0.9,58.7 1.7,58.3 4.3,57.9 7.0,58.3 9.6,57.3 12.2,57.8 14.9,56.3 18.0,56.6 22.1,54.9" fill="none" stroke="rgb(80,68,68)" stroke-width="1.9925505851141125" stroke-linejoin="round" stroke-linecap="round" filter="url(#fuzzy_av_1779093955014_3zsmvfdcgz7)" opacity="0.9466266561572292"/><polyline points="-48.9,19.2 -47.8,22.0 -46.7,24.0 -45.5,27.1 -44.3,30.6 -43.1,34.2 -42.0,36.6 -40.9,38.3 -39.7,41.0 -38.4,42.8 -36.8,46.4 -35.1,47.8 -33.1,48.8 -30.9,51.2 -28.5,52.3 -26.1,53.2 -23.5,54.0 -21.0,53.9 -18.4,56.1 -15.9,56.4 -13.4,55.5 -10.9,56.5 -8.4,57.3 -5.8,56.6 -3.2,56.6 -0.6,57.6 2.2,58.2 4.9,56.9 7.8,57.4 10.7,57.2 13.6,56.4 16.7,57.2 19.9,55.5 23.2,55.6 26.6,53.9 29.9,53.4 33.6,51.9 37.6,51.4" fill="none" stroke="rgb(80,68,68)" stroke-width="1.713868812259006" stroke-linejoin="round" stroke-linecap="round" filter="url(#fuzzy_av_1779093955014_3zsmvfdcgz7)" opacity="0.9988329781374922"/><polyline points="-47.8,21.2 -46.8,24.3 -46.2,26.9 -45.8,30.5 -45.3,33.5 -44.5,35.3 -43.2,38.6 -41.7,42.0 -40.2,43.7 -38.6,46.4 -36.9,47.6 -35.1,49.7 -33.0,50.8 -30.7,52.4 -28.1,51.9 -25.3,53.2 -22.5,53.8 -19.8,54.2 -17.0,56.5 -14.3,55.7 -11.6,56.3 -8.9,57.7 -6.2,58.1 -3.5,58.5 -0.7,58.1 2.1,57.4 5.1,57.9 8.0,57.7 11.0,56.7 14.2,57.6 17.6,57.3 21.3,56.8 25.6,55.8 29.8,53.6" fill="none" stroke="rgb(80,68,68)" stroke-width="2.2412966137987613" stroke-linejoin="round" stroke-linecap="round" filter="url(#fuzzy_av_1779093955014_3zsmvfdcgz7)" opacity="0.8737605058142981"/><polyline points="-46.0,26.6 -44.7,28.5 -43.5,32.2 -42.1,34.5 -40.9,37.6 -39.8,39.5 -38.6,43.0 -37.3,44.1 -35.7,47.1 -33.9,48.7 -31.9,50.7 -29.6,50.5 -27.2,53.2 -24.7,52.5 -22.2,54.5 -19.6,55.4 -17.1,56.2 -14.6,57.2 -12.1,56.0 -9.7,57.2 -7.2,57.2 -4.7,58.3 -2.3,58.1 0.2,58.6 3.9,58.4" fill="none" stroke="rgb(80,68,68)" stroke-width="1.9479877411121014" stroke-linejoin="round" stroke-linecap="round" filter="url(#fuzzy_av_1779093955014_3zsmvfdcgz7)" opacity="0.937650863182685"/><polyline points="-44.1,31.6 -42.5,34.3 -41.7,36.7 -41.1,39.2 -40.5,41.7 -39.5,44.4 -38.1,45.7 -36.4,48.6 -34.4,48.8 -32.3,50.9 -30.0,52.5 -27.6,52.5 -25.1,53.7 -22.5,55.2 -19.8,56.0 -17.0,55.2 -14.3,56.8 -11.6,57.9 -8.9,58.2 -6.3,56.8 -3.8,57.4 -1.1,57.1 1.6,58.7 4.5,57.5 7.2,57.7 9.5,58.6" fill="none" stroke="rgb(80,68,68)" stroke-width="1.6705453829683201" stroke-linejoin="round" stroke-linecap="round" filter="url(#fuzzy_av_1779093955014_3zsmvfdcgz7)" opacity="0.8724339601961757"/><polyline points="-42.0,33.9 -40.7,36.3 -39.7,38.8 -38.6,41.6 -37.1,43.1 -35.5,45.7 -33.6,47.7 -31.6,48.7 -29.5,49.9 -27.2,51.8 -24.8,52.5 -22.3,53.8 -19.8,54.7 -17.3,55.9 -14.8,55.3 -12.4,56.1 -10.0,57.5 -7.6,57.9 -5.2,57.9 -2.8,58.6 -0.5,58.1 1.9,56.9 4.3,57.6 6.6,58.1 9.0,56.9 11.4,55.8 13.9,55.7 16.5,55.7 19.1,54.2 21.8,53.8 24.5,54.2 27.3,51.4 29.9,50.7 32.0,50.0" fill="none" stroke="rgb(80,68,68)" stroke-width="2.525466412208493" stroke-linejoin="round" stroke-linecap="round" filter="url(#fuzzy_av_1779093955014_3zsmvfdcgz7)" opacity="0.9271404895114066"/><polyline points="-42.0,35.0 -40.5,37.3 -39.3,40.1 -37.9,42.2 -36.4,44.6 -34.7,46.7 -32.8,48.3 -30.8,50.4 -28.6,50.0 -26.4,52.3 -24.1,53.5 -21.7,54.4 -19.3,53.8 -16.8,54.8 -14.4,56.6 -12.0,56.1 -9.7,56.8 -7.3,58.0 -5.0,58.2 -2.8,57.7 -0.5,57.7 1.7,57.6 3.9,57.5 6.1,57.3 8.3,58.0 10.4,57.6 12.6,55.8 14.9,55.5 17.1,55.0 19.5,54.8 21.8,54.2 24.1,52.5 26.2,50.8 28.0,49.9 29.5,49.8" fill="none" stroke="rgb(80,68,68)" stroke-width="1.4437904799709065" stroke-linejoin="round" stroke-linecap="round" filter="url(#fuzzy_av_1779093955014_3zsmvfdcgz7)" opacity="0.9498122653903389"/><polyline points="-39.3,39.9 -40.5,39.9 -42.4,44.1 -42.9,44.7 -41.5,47.9 -38.7,49.4 -35.4,51.0 -32.1,51.6 -29.0,52.0 -25.9,53.1 -23.1,55.0 -20.3,54.7 -17.5,55.6 -14.9,56.7 -12.2,57.3 -9.6,56.5 -6.9,57.0 -4.2,57.1 -1.4,58.4 1.6,58.7 4.7,58.5 7.8,57.7 11.0,58.3 14.1,56.8 17.0,57.4 19.9,55.6 22.7,57.1" fill="none" stroke="rgb(80,68,68)" stroke-width="1.3126049430320714" stroke-linejoin="round" stroke-linecap="round" filter="url(#fuzzy_av_1779093955014_3zsmvfdcgz7)" opacity="0.860223328641306"/><polyline points="-39.1,42.0 -37.3,43.5 -35.7,46.8 -34.0,48.5 -32.1,49.3 -30.1,51.1 -28.0,51.3 -25.7,53.7 -23.3,53.1 -20.8,54.9 -18.3,55.0 -15.7,55.1 -13.1,56.5 -10.5,56.0 -7.8,57.3 -5.2,57.0 -2.6,58.4 0.0,57.3 2.7,58.2 5.4,57.4 8.2,58.2 11.0,57.9 13.9,56.2 16.9,56.5 19.9,55.6 23.0,54.5 26.1,54.8 29.3,53.5 32.5,51.2 35.7,51.7 38.9,49.8 42.0,48.6 44.8,45.9 47.1,43.5 48.8,41.7 51.0,39.5" fill="none" stroke="rgb(80,68,68)" stroke-width="2.1418328983296515" stroke-linejoin="round" stroke-linecap="round" filter="url(#fuzzy_av_1779093955014_3zsmvfdcgz7)" opacity="0.8710631970999786"/><polyline points="-36.6,45.5 -35.3,47.2 -33.8,48.5 -32.0,49.8 -29.9,50.6 -27.7,53.0 -25.3,53.1 -22.9,53.7 -20.5,54.2 -18.0,55.6 -15.5,56.9 -13.0,55.5 -10.5,56.9 -7.9,57.2 -5.4,57.9 -2.8,58.1 -0.2,58.2 2.3,58.5 4.9,58.4 7.5,57.3 10.1,57.7 12.9,57.1 15.7,55.9 18.6,56.2 21.7,55.3 24.8,54.0 28.0,52.3 31.1,52.2 34.0,51.1 36.9,49.1 39.8,47.7 42.6,46.5 45.2,43.5 47.2,41.5 48.6,39.0" fill="none" stroke="rgb(80,68,68)" stroke-width="1.5014219485544997" stroke-linejoin="round" stroke-linecap="round" filter="url(#fuzzy_av_1779093955014_3zsmvfdcgz7)" opacity="0.9466895773835082"/><polyline points="-37.2,45.9 -34.8,48.0 -32.8,49.1 -30.7,51.5 -28.5,51.9 -26.3,53.3 -24.1,53.7 -21.8,54.7 -19.6,55.9 -17.2,55.4 -14.7,56.7 -12.1,57.5 -9.4,56.3 -6.6,58.0 -3.9,58.3 -1.1,57.6 1.8,58.1 4.8,58.0 7.7,58.5 10.6,56.8 13.5,56.1 16.3,56.0 19.4,56.2 23.2,56.4 28.8,53.6" fill="none" stroke="rgb(80,68,68)" stroke-width="0.9932329134240403" stroke-linejoin="round" stroke-linecap="round" filter="url(#fuzzy_av_1779093955014_3zsmvfdcgz7)" opacity="0.8092860560038049"/><polyline points="-37.2,45.4 -34.4,48.6 -31.7,49.1 -28.2,50.9 -23.9,51.6 -19.4,52.2 -15.5,53.6 -12.5,53.7 -10.5,56.1 -9.1,54.9 -8.0,57.3 -6.8,57.4 -5.6,56.3 -4.2,57.3 -2.8,57.3 -1.4,57.9 -0.0,57.9 1.1,57.2 2.1,58.1 2.8,57.3 3.3,56.4 3.4,57.6 3.4,57.4 2.8,56.8" fill="none" stroke="rgb(80,68,68)" stroke-width="1.083538455070201" stroke-linejoin="round" stroke-linecap="round" filter="url(#fuzzy_av_1779093955014_3zsmvfdcgz7)" opacity="0.9819702470021984"/></g><circle r="1.3789460550221473" cx="-9.213488993482413" cy="8.428289426673802" stroke="#111" fill="none" stroke-width="1.169703799460595" filter="url(#fuzzy_av_1779093955014_3zsmvfdcgz7)"/><circle r="1.8166545365837679" cx="-9.86514460007344" cy="9.315897110135756" stroke="#111" fill="none" stroke-width="0.9579796479138314" filter="url(#fuzzy_av_1779093955014_3zsmvfdcgz7)"/><circle r="1.656119803555157" cx="-9.936184557741942" cy="9.668004588553947" stroke="#111" fill="none" stroke-width="1.2542206070988249" filter="url(#fuzzy_av_1779093955014_3zsmvfdcgz7)"/><circle r="2.2584232877946535" cx="-9.199463938719537" cy="6.914568709892137" stroke="#111" fill="none" stroke-width="1.1440719103422907" filter="url(#fuzzy_av_1779093955014_3zsmvfdcgz7)"/><circle r="2.0210674530652772" cx="-9.10755475211491" cy="9.475163522920742" stroke="#111" fill="none" stroke-width="1.1510410815896959" filter="url(#fuzzy_av_1779093955014_3zsmvfdcgz7)"/><circle r="2.054563365883813" cx="-8.130386815846778" cy="8.396763798837368" stroke="#111" fill="none" stroke-width="1.2750387529309009" filter="url(#fuzzy_av_1779093955014_3zsmvfdcgz7)"/><circle r="0.8938240449664396" cx="-7.070375923603923" cy="7.367586090793953" stroke="#111" fill="none" stroke-width="0.8139738103952385" filter="url(#fuzzy_av_1779093955014_3zsmvfdcgz7)"/><circle r="1.7633919671892326" cx="-7.654695269085136" cy="8.627284175069587" stroke="#111" fill="none" stroke-width="0.833473638003604" filter="url(#fuzzy_av_1779093955014_3zsmvfdcgz7)"/><circle r="2.269657867033213" cx="-7.042320375044637" cy="7.645307495534992" stroke="#111" fill="none" stroke-width="0.9893021350690736" filter="url(#fuzzy_av_1779093955014_3zsmvfdcgz7)"/><circle r="2.190134619618014" cx="-8.98964806580037" cy="6.672923144411585" stroke="#111" fill="none" stroke-width="1.212918190706295" filter="url(#fuzzy_av_1779093955014_3zsmvfdcgz7)"/><circle r="1.7309906324357827" cx="6.253507734096736" cy="2.4423956005928797" stroke="#111" fill="none" stroke-width="1.1728573960734656" filter="url(#fuzzy_av_1779093955014_3zsmvfdcgz7)"/><circle r="0.9872942885193738" cx="9.251685316601439" cy="3.5310167233527423" stroke="#111" fill="none" stroke-width="1.1799958783015525" filter="url(#fuzzy_av_1779093955014_3zsmvfdcgz7)"/><circle r="0.9082176143128442" cx="6.883146012036505" cy="3.2119264615618137" stroke="#111" fill="none" stroke-width="1.099500671906604" filter="url(#fuzzy_av_1779093955014_3zsmvfdcgz7)"/><circle r="1.4386975231931025" cx="8.614332304383607" cy="2.0904945580924075" stroke="#111" fill="none" stroke-width="1.2934464005956146" filter="url(#fuzzy_av_1779093955014_3zsmvfdcgz7)"/><circle r="1.2330552021528645" cx="8.040702176642137" cy="3.2118359595690933" stroke="#111" fill="none" stroke-width="0.9928382066376107" filter="url(#fuzzy_av_1779093955014_3zsmvfdcgz7)"/><circle r="1.6827058529473757" cx="9.571803145001185" cy="2.606761207611732" stroke="#111" fill="none" stroke-width="0.822423047340713" filter="url(#fuzzy_av_1779093955014_3zsmvfdcgz7)"/><circle r="1.4670670458698551" cx="8.826136482188367" cy="2.376443022181773" stroke="#111" fill="none" stroke-width="1.034448874153167" filter="url(#fuzzy_av_1779093955014_3zsmvfdcgz7)"/><circle r="2.494872430951825" cx="8.761621572371586" cy="3.195254103633305" stroke="#111" fill="none" stroke-width="1.010883320255197" filter="url(#fuzzy_av_1779093955014_3zsmvfdcgz7)"/><circle r="1.5104447105836767" cx="9.049820684244182" cy="2.6842377158831185" stroke="#111" fill="none" stroke-width="0.9688933447011583" filter="url(#fuzzy_av_1779093955014_3zsmvfdcgz7)"/><circle r="1.4251096013649918" cx="7.918905513013057" cy="3.232843729653883" stroke="#111" fill="none" stroke-width="0.8144536264933468" filter="url(#fuzzy_av_1779093955014_3zsmvfdcgz7)"/><polyline points="-33.1,39.0 -32.3,39.0 -31.4,38.9 -30.6,38.8 -29.7,38.7 -28.9,38.6 -28.0,38.4 -27.2,38.3 -26.3,38.1 -25.4,37.9 -24.6,37.7 -23.7,37.5 -22.9,37.3 -22.0,37.0 -21.2,36.7 -20.4,36.5 -19.5,36.2 -18.7,35.9 -17.8,35.6 -17.0,35.3 -16.1,34.9 -15.3,34.6 -14.5,34.3 -13.6,33.9 -12.8,33.6 -12.0,33.2 -11.2,32.8 -10.3,32.4 -9.5,32.1 -8.7,31.7 -7.9,31.3 -7.1,30.9 -6.3,30.5 -5.5,30.1 -4.7,29.7 -3.9,29.3 -3.1,28.9 -2.3,28.5 -1.6,28.1 -0.8,27.7 -0.0,27.4 0.7,27.0 1.5,26.6 2.2,26.2 3.0,25.8 3.7,25.5 4.5,25.1 5.2,24.8 5.9,24.4 6.6,24.1 7.3,23.8 8.0,23.4 8.7,23.1 9.4,22.8 10.1,22.5 10.7,22.3 11.4,22.0 12.1,21.8 12.7,21.5 13.3,21.3 14.0,21.1 14.6,20.9 15.2,20.7 15.8,20.6 16.4,20.4 17.0,20.3 17.6,20.2 18.1,20.1 18.7,20.0 19.2,20.0 19.8,19.9 20.3,19.9 20.8,20.0 21.3,20.0 21.8,20.1 22.3,20.1 22.8,20.3 23.3,20.4 23.7,20.5 24.1,20.7 24.6,20.9 25.0,21.2 25.4,21.5 25.8,21.8 26.2,22.1 26.5,22.4 26.9,22.8 27.2,23.2 27.6,23.7 27.9,24.2 28.2,24.7 28.5,25.2 28.8,25.8 29.0,26.4 29.3,27.1 29.5,27.8 29.7,28.5 30.0,29.3 30.1,30.1 30.3,30.9 30.5,31.8 30.3,30.9 30.1,30.1 30.0,29.3 29.7,28.5 29.5,27.8 29.3,27.1 29.0,26.4 28.8,25.8 28.5,25.2 28.2,24.7 27.9,24.2 27.6,23.7 27.2,23.2 26.9,22.8 26.5,22.4 26.2,22.1 25.8,21.8 25.4,21.5 25.0,21.2 24.6,20.9 24.1,20.7 23.7,20.5 23.3,20.4 22.8,20.3 22.3,20.1 21.8,20.1 21.3,20.0 20.8,20.0 20.3,19.9 19.8,19.9 19.2,20.0 18.7,20.0 18.1,20.1 17.6,20.2 17.0,20.3 16.4,20.4 15.8,20.6 15.2,20.7 14.6,20.9 14.0,21.1 13.3,21.3 12.7,21.5 12.1,21.8 11.4,22.0 10.7,22.3 10.1,22.5 9.4,22.8 8.7,23.1 8.0,23.4 7.3,23.8 6.6,24.1 5.9,24.4 5.2,24.8 4.5,25.1 3.7,25.5 3.0,25.8 2.2,26.2 1.5,26.6 0.7,27.0 -0.0,27.4 -0.8,27.7 -1.6,28.1 -2.3,28.5 -3.1,28.9 -3.9,29.3 -4.7,29.7 -5.5,30.1 -6.3,30.5 -7.1,30.9 -7.9,31.3 -8.7,31.7 -9.5,32.1 -10.3,32.4 -11.2,32.8 -12.0,33.2 -12.8,33.6 -13.6,33.9 -14.5,34.3 -15.3,34.6 -16.1,34.9 -17.0,35.3 -17.8,35.6 -18.7,35.9 -19.5,36.2 -20.4,36.5 -21.2,36.7 -22.0,37.0 -22.9,37.3 -23.7,37.5 -24.6,37.7 -25.4,37.9 -26.3,38.1 -27.2,38.3 -28.0,38.4 -28.9,38.6 -29.7,38.7 -30.6,38.8 -31.4,38.9 -32.3,39.0" fill="rgb(215,127,140)" stroke="#111" stroke-width="2.5962086414295187" stroke-linejoin="round" filter="url(#fuzzy_av_1779093955014_3zsmvfdcgz7)"/></g><g class="accessory-svg accessory-zen" transform="translate(73.8 -22.9) rotate(1.9) scale(1.185)">
      <circle cx="0" cy="0" r="11" fill="#f8fafc" stroke="#111827" stroke-width="1.1"/><path d="M0-10c6 4 6 16 0 20-6-4-6-16 0-20z" fill="#EA580C"/><circle cx="0" cy="-5" r="2" fill="#f8fafc"/><circle cx="0" cy="5" r="2" fill="#EA580C"/>
    </g><g class="accessory-svg accessory-lotus" transform="translate(26.8 73.0) rotate(-8.7) scale(1.040)">
      <path d="M0-10c5 6 5 12 0 18-5-6-5-12 0-18z" fill="#f9a8d4" stroke="#111827" stroke-width=".9"/><path d="M-3 8c-7-2-9-7-6-12 6 2 8 7 6 12zM3 8c7-2 9-7 6-12-6 2-8 7-6 12z" fill="#f472b6" stroke="#111827" stroke-width=".9"/><path d="M-10 10h20" stroke="#22c55e" stroke-width="1.2" stroke-linecap="round"/>
    </g><g class="accessory-svg accessory-yin-yang" transform="translate(-69.9 -32.5) rotate(1.2) scale(0.949)">
      <circle cx="0" cy="0" r="11" fill="#f8fafc" stroke="#111827" stroke-width="1.1"/><path d="M0-11a5.5 5.5 0 0 1 0 11 5.5 5.5 0 0 0 0 11 11 11 0 0 0 0-22z" fill="#EA580C"/><circle cx="0" cy="-5.5" r="1.7" fill="#EA580C"/><circle cx="0" cy="5.5" r="1.7" fill="#f8fafc"/>
    </g><g class="accessory-svg accessory-beads" transform="translate(-5.2 -76.9) rotate(0.4) scale(1.318)">
      <path d="M-3-10h6l3 4-3 18h-6l-3-18z" fill="#F97316" stroke="#111827" stroke-width="1.1"/><path d="M-3-10l3 4 3-4" fill="#f8fafc" stroke="#111827" stroke-width=".8"/>
    </g></svg>