<svg xmlns="http://www.w3.org/2000/svg" viewBox="-100 -100 200 200" width="400" height="400" role="img" aria-label="六边形战士 avatar"><defs>
      <filter id="fuzzy_av_1779093955010_hhs60h9ly4h" x="-8%" y="-8%" width="116%" height="116%">
        <feTurbulence baseFrequency="0.045" numOctaves="3" type="fractalNoise" result="noise"/>
        <feDisplacementMap in="SourceGraphic" in2="noise" scale="1.6"/>
      </filter>
      <clipPath id="leftEye_av_1779093955010_hhs60h9ly4h"><polyline points="-13.3,-3.8 -13.3,-4.0 -13.3,-4.1 -13.3,-4.3 -13.3,-4.4 -13.3,-4.6 -13.2,-4.7 -13.1,-4.8 -13.0,-5.0 -12.9,-5.1 -12.8,-5.2 -12.7,-5.3 -12.5,-5.4 -12.3,-5.5 -12.2,-5.6 -12.0,-5.7 -11.8,-5.8 -11.6,-5.9 -11.4,-6.1 -11.2,-6.2 -10.9,-6.2 -10.7,-6.3 -10.4,-6.4 -10.0,-6.5 -9.7,-6.5 -9.3,-6.6 -8.9,-6.6 -8.5,-6.7 -8.0,-6.7 -7.6,-6.7 -7.1,-6.8 -6.6,-6.8 -6.1,-6.8 -5.6,-6.8 -5.0,-6.8 -4.5,-6.8 -3.9,-6.7 -3.4,-6.7 -2.8,-6.7 -2.2,-6.7 -1.6,-6.6 -1.1,-6.6 -0.5,-6.5 0.1,-6.5 0.7,-6.4 1.2,-6.4 1.8,-6.3 2.4,-6.2 2.9,-6.2 3.5,-6.1 4.0,-6.0 4.6,-5.9 5.1,-5.9 5.6,-5.8 6.1,-5.7 6.6,-5.6 7.1,-5.5 7.6,-5.4 8.0,-5.3 8.5,-5.2 8.9,-5.1 9.3,-5.0 9.7,-4.9 10.1,-4.8 10.5,-4.7 10.8,-4.6 11.2,-4.5 11.5,-4.4 11.9,-4.2 12.2,-4.1 12.5,-4.0 12.8,-3.9 13.1,-3.8 13.3,-3.6 13.6,-3.5 13.8,-3.4 14.1,-3.3 14.3,-3.1 14.5,-3.0 14.7,-2.9 15.3,0.6 15.1,0.8 14.8,1.0 14.6,1.2 14.4,1.4 14.2,1.7 13.9,1.9 13.6,2.1 13.4,2.3 13.1,2.6 12.8,2.8 12.5,3.0 12.3,3.2 11.9,3.4 11.6,3.7 11.3,3.9 11.0,4.1 10.7,4.3 10.3,4.5 10.0,4.7 9.6,4.9 9.2,5.1 8.9,5.2 8.5,5.4 8.1,5.6 7.7,5.7 7.3,5.9 6.9,6.0 6.5,6.1 6.1,6.3 5.6,6.4 5.2,6.4 4.8,6.5 4.3,6.6 3.9,6.6 3.4,6.7 3.0,6.7 2.5,6.7 2.1,6.7 1.6,6.6 1.2,6.6 0.7,6.5 0.3,6.4 -0.2,6.3 -0.6,6.2 -1.0,6.1 -1.5,6.0 -1.9,5.8 -2.4,5.7 -2.8,5.5 -3.2,5.3 -3.6,5.1 -4.1,4.9 -4.5,4.7 -4.9,4.5 -5.3,4.2 -5.7,4.0 -6.0,3.7 -6.4,3.5 -6.8,3.2 -7.1,3.0 -7.5,2.7 -7.8,2.4 -8.2,2.2 -8.5,1.9 -8.8,1.7 -9.1,1.5 -9.4,1.2 -9.7,1.0 -9.9,0.8 -10.2,0.6 -10.5,0.3 -10.7,0.1 -11.0,-0.1 -11.2,-0.3 -11.4,-0.5 -11.6,-0.7 -11.8,-0.9 -12.1,-1.1 -12.2,-1.3"/></clipPath>
      <clipPath id="rightEye_av_1779093955010_hhs60h9ly4h"><polyline points="-13.0,-2.8 -13.0,-2.8 -12.9,-2.9 -12.9,-3.0 -12.8,-3.1 -12.7,-3.2 -12.6,-3.3 -12.5,-3.4 -12.3,-3.4 -12.2,-3.5 -12.0,-3.6 -11.8,-3.6 -11.6,-3.7 -11.4,-3.8 -11.2,-3.8 -11.0,-3.9 -10.8,-4.0 -10.6,-4.0 -10.3,-4.1 -10.1,-4.2 -9.8,-4.2 -9.5,-4.3 -9.1,-4.3 -8.7,-4.4 -8.3,-4.4 -7.9,-4.4 -7.5,-4.5 -7.0,-4.5 -6.5,-4.5 -6.1,-4.5 -5.5,-4.6 -5.0,-4.6 -4.5,-4.6 -3.9,-4.6 -3.3,-4.6 -2.8,-4.6 -2.2,-4.6 -1.6,-4.5 -1.0,-4.5 -0.4,-4.5 0.2,-4.5 0.8,-4.4 1.4,-4.4 2.0,-4.4 2.6,-4.3 3.2,-4.3 3.7,-4.3 4.3,-4.2 4.9,-4.2 5.4,-4.1 6.0,-4.1 6.5,-4.0 7.0,-4.0 7.5,-3.9 8.0,-3.8 8.4,-3.8 8.9,-3.7 9.3,-3.6 9.8,-3.6 10.2,-3.5 10.6,-3.4 10.9,-3.4 11.3,-3.3 11.6,-3.2 12.0,-3.1 12.3,-3.0 12.6,-3.0 12.9,-2.9 13.1,-2.8 13.4,-2.7 13.6,-2.6 13.9,-2.5 14.1,-2.5 14.3,-2.4 14.5,-2.3 14.6,-2.2 14.8,-2.1 14.9,-2.0 15.0,-1.9 15.2,-1.8 15.4,0.1 15.1,0.2 14.8,0.4 14.5,0.5 14.2,0.6 13.9,0.8 13.6,0.9 13.2,1.1 12.9,1.2 12.6,1.4 12.2,1.5 11.9,1.7 11.5,1.8 11.1,1.9 10.7,2.1 10.4,2.2 10.0,2.4 9.6,2.5 9.2,2.6 8.8,2.8 8.3,2.9 7.9,3.1 7.5,3.2 7.0,3.3 6.6,3.4 6.2,3.6 5.7,3.7 5.3,3.8 4.8,3.9 4.4,4.0 3.9,4.1 3.4,4.1 3.0,4.2 2.5,4.3 2.1,4.3 1.6,4.4 1.1,4.4 0.7,4.4 0.2,4.5 -0.2,4.5 -0.6,4.5 -1.1,4.5 -1.5,4.4 -1.9,4.4 -2.4,4.4 -2.8,4.3 -3.2,4.3 -3.6,4.2 -4.0,4.1 -4.4,4.0 -4.8,3.9 -5.1,3.8 -5.5,3.7 -5.8,3.6 -6.2,3.4 -6.5,3.3 -6.9,3.1 -7.2,3.0 -7.5,2.8 -7.8,2.6 -8.1,2.5 -8.4,2.3 -8.6,2.1 -8.9,1.9 -9.1,1.7 -9.4,1.6 -9.6,1.4 -9.8,1.3 -10.1,1.1 -10.3,0.9 -10.5,0.8 -10.7,0.6 -10.9,0.5 -11.1,0.3 -11.3,0.2 -11.4,0.0 -11.6,-0.1 -11.8,-0.3 -11.9,-0.4 -12.1,-0.6"/></clipPath>
      <linearGradient id="rainbow_av_1779093955010_hhs60h9ly4h" x1="0%" y1="0%" x2="100%" y2="0%">
        <stop offset="0%" stop-color="#F59E0B"/><stop offset="67%" stop-color="#22D3EE"/><stop offset="100%" stop-color="#D97706"/>
      </linearGradient>
      <linearGradient id="splitHair_av_1779093955010_hhs60h9ly4h" x1="0%" y1="0%" x2="100%" y2="0%">
        <stop offset="49%" stop-color="#111827"/><stop offset="51%" stop-color="#F9FAFB"/>
      </linearGradient>
      <radialGradient id="halo_av_1779093955010_hhs60h9ly4h"><stop offset="0%" stop-color="#F59E0B" stop-opacity=".45"/><stop offset="100%" stop-color="#F59E0B" stop-opacity="0"/></radialGradient>
    </defs><rect x="-100" y="-100" width="200" height="200" fill="#FEF3C7"/><circle cx="0" cy="-10" r="72" fill="url(#halo_av_1779093955010_hhs60h9ly4h)"/><g opacity="1"><polyline id="faceContour" class="face-shape" points="44.2,-5.6 44.2,-4.2 44.1,-2.1 44.1,-1.6 44.3,-1.6 44.4,-0.1 44.3,3.2 44.4,2.1 44.1,3.8 43.9,4.5 44.0,6.1 43.8,8.9 43.7,9.2 43.4,9.5 43.1,12.0 43.1,13.4 43.1,12.9 42.5,14.5 41.9,17.1 41.6,17.7 41.4,19.3 40.9,20.6 40.7,20.7 40.5,21.8 39.8,23.6 39.5,24.5 39.3,24.5 38.8,25.9 37.7,28.3 38.0,27.5 36.4,30.2 35.8,31.4 36.0,31.1 34.3,33.6 34.3,33.6 33.0,35.6 33.6,34.5 32.8,35.3 31.5,36.9 29.8,39.3 30.6,38.1 28.4,40.3 28.8,40.1 28.7,40.1 26.6,42.0 26.5,42.2 24.1,44.0 24.3,43.9 22.5,45.2 22.3,45.4 20.8,46.2 21.0,46.3 18.6,47.5 18.9,47.2 16.2,48.6 16.9,48.5 16.6,48.6 14.7,49.3 12.1,50.3 11.8,50.3 10.3,50.9 9.0,51.3 9.1,51.4 8.1,51.5 7.4,51.8 7.0,51.8 2.9,52.4 2.8,52.5 1.9,52.5 0.8,52.6 -1.9,52.7 -2.0,52.7 -3.0,52.8 -2.9,52.7 -4.7,52.7 -6.2,52.4 -7.1,52.5 -8.5,52.3 -7.6,52.3 -8.7,52.2 -12.2,51.6 -12.3,51.4 -12.8,51.3 -13.7,51.2 -14.2,50.9 -16.8,49.9 -16.3,50.2 -19.0,49.1 -17.6,49.6 -19.9,48.6 -20.5,48.3 -23.2,46.8 -23.9,46.4 -23.4,46.9 -25.4,45.3 -26.9,44.2 -27.9,43.3 -28.0,43.3 -27.3,43.8 -28.8,42.6 -30.5,40.8 -31.0,40.2 -32.0,39.0 -31.9,39.5 -32.9,38.1 -34.0,36.7 -34.8,35.3 -34.6,35.9 -35.1,35.2 -35.9,33.6 -37.5,31.1 -38.2,29.8 -38.5,28.8 -38.9,28.1 -38.4,29.1 -39.5,26.8 -40.3,24.9 -40.1,25.1 -40.7,23.6 -41.5,21.3 -41.5,21.3 -41.9,20.1 -42.1,18.4 -42.8,16.1 -42.6,16.6 -43.0,14.8 -43.1,14.3 -43.6,11.3 -43.7,9.5 -43.9,9.1 -44.0,7.9 -44.1,5.0 -44.0,6.5 -44.1,4.5 -44.1,2.2 -44.2,0.3 -44.0,-1.3 -44.0,-3.0 -44.1,-4.7 -44.0,-4.5 -44.0,-7.3 -44.0,-7.0 -43.7,-8.8 -43.9,-8.1 -43.6,-10.7 -43.5,-12.6 -43.0,-15.2 -43.0,-15.7 -42.5,-17.8 -42.7,-16.9 -41.9,-19.8 -41.3,-22.7 -41.8,-20.6 -41.3,-23.1 -40.4,-26.4 -39.8,-27.8 -39.8,-28.1 -39.2,-30.0 -38.6,-31.4 -38.9,-30.8 -38.0,-33.1 -37.7,-33.5 -36.7,-36.1 -37.2,-35.0 -35.8,-37.9 -35.0,-39.4 -34.4,-40.7 -34.7,-40.2 -33.9,-42.0 -33.7,-41.9 -32.4,-44.5 -31.7,-45.3 -31.6,-45.7 -30.1,-48.0 -30.4,-47.6 -29.5,-48.6 -28.4,-50.2 -27.9,-50.6 -27.6,-50.9 -26.9,-52.1 -24.5,-54.3 -25.2,-53.8 -24.8,-54.3 -24.4,-54.5 -22.5,-56.3 -21.7,-57.1 -21.0,-57.7 -20.2,-58.4 -18.6,-59.6 -18.9,-59.0 -16.6,-60.6 -16.9,-60.4 -15.2,-61.5 -15.5,-61.2 -13.6,-62.2 -13.6,-62.3 -12.1,-62.6 -10.9,-63.3 -10.4,-63.5 -10.4,-63.4 -8.5,-64.0 -9.5,-63.7 -6.2,-64.3 -6.7,-64.4 -6.3,-64.4 -4.6,-64.5 -4.2,-64.7 -3.0,-64.7 -3.2,-64.7 -0.1,-64.6 0.9,-64.7 1.4,-64.6 2.1,-64.6 3.3,-64.3 3.9,-64.2 5.3,-63.9 5.7,-63.7 7.3,-63.4 8.2,-63.0 9.4,-62.6 10.1,-62.3 10.2,-62.2 10.2,-62.2 11.2,-61.9 11.4,-61.7 13.5,-60.5 14.4,-60.0 16.3,-59.0 15.3,-59.6 15.8,-59.2 17.7,-58.0 19.3,-56.8 18.8,-57.1 20.2,-56.0 20.9,-55.4 20.9,-55.4 22.5,-54.1 23.5,-52.8 24.6,-51.9 25.5,-50.7 24.5,-52.0 25.5,-50.8 28.1,-47.9 26.9,-49.3 29.5,-46.0 29.1,-46.8 30.1,-45.4 31.1,-43.8 31.8,-42.5 32.1,-42.1 33.2,-40.5 33.2,-40.6 33.6,-40.1 35.1,-37.1 33.9,-39.2 35.1,-37.1 36.1,-35.0 36.1,-35.3 37.7,-31.6 38.2,-30.5 38.2,-30.2 38.4,-29.7 39.2,-27.6 38.9,-28.7 39.8,-26.5 40.9,-23.2 40.8,-23.7 40.8,-23.2 41.0,-22.3 41.6,-20.5 42.4,-17.1 42.9,-15.5 42.3,-17.5 42.7,-15.5 43.3,-11.7 43.0,-13.6 43.2,-12.5 43.7,-9.4 43.7,-8.7 43.8,-7.3 44.2,-5.6 44.2,-4.2" fill="#ffc9a9" stroke="#111" stroke-width="2.2" stroke-linejoin="round" filter="url(#fuzzy_av_1779093955010_hhs60h9ly4h)"/><g id="leftEye" transform="translate(-15.9 -26.5)"><polyline points="-13.3,-3.8 -13.3,-4.0 -13.3,-4.1 -13.3,-4.3 -13.3,-4.4 -13.3,-4.6 -13.2,-4.7 -13.1,-4.8 -13.0,-5.0 -12.9,-5.1 -12.8,-5.2 -12.7,-5.3 -12.5,-5.4 -12.3,-5.5 -12.2,-5.6 -12.0,-5.7 -11.8,-5.8 -11.6,-5.9 -11.4,-6.1 -11.2,-6.2 -10.9,-6.2 -10.7,-6.3 -10.4,-6.4 -10.0,-6.5 -9.7,-6.5 -9.3,-6.6 -8.9,-6.6 -8.5,-6.7 -8.0,-6.7 -7.6,-6.7 -7.1,-6.8 -6.6,-6.8 -6.1,-6.8 -5.6,-6.8 -5.0,-6.8 -4.5,-6.8 -3.9,-6.7 -3.4,-6.7 -2.8,-6.7 -2.2,-6.7 -1.6,-6.6 -1.1,-6.6 -0.5,-6.5 0.1,-6.5 0.7,-6.4 1.2,-6.4 1.8,-6.3 2.4,-6.2 2.9,-6.2 3.5,-6.1 4.0,-6.0 4.6,-5.9 5.1,-5.9 5.6,-5.8 6.1,-5.7 6.6,-5.6 7.1,-5.5 7.6,-5.4 8.0,-5.3 8.5,-5.2 8.9,-5.1 9.3,-5.0 9.7,-4.9 10.1,-4.8 10.5,-4.7 10.8,-4.6 11.2,-4.5 11.5,-4.4 11.9,-4.2 12.2,-4.1 12.5,-4.0 12.8,-3.9 13.1,-3.8 13.3,-3.6 13.6,-3.5 13.8,-3.4 14.1,-3.3 14.3,-3.1 14.5,-3.0 14.7,-2.9 15.3,0.6 15.1,0.8 14.8,1.0 14.6,1.2 14.4,1.4 14.2,1.7 13.9,1.9 13.6,2.1 13.4,2.3 13.1,2.6 12.8,2.8 12.5,3.0 12.3,3.2 11.9,3.4 11.6,3.7 11.3,3.9 11.0,4.1 10.7,4.3 10.3,4.5 10.0,4.7 9.6,4.9 9.2,5.1 8.9,5.2 8.5,5.4 8.1,5.6 7.7,5.7 7.3,5.9 6.9,6.0 6.5,6.1 6.1,6.3 5.6,6.4 5.2,6.4 4.8,6.5 4.3,6.6 3.9,6.6 3.4,6.7 3.0,6.7 2.5,6.7 2.1,6.7 1.6,6.6 1.2,6.6 0.7,6.5 0.3,6.4 -0.2,6.3 -0.6,6.2 -1.0,6.1 -1.5,6.0 -1.9,5.8 -2.4,5.7 -2.8,5.5 -3.2,5.3 -3.6,5.1 -4.1,4.9 -4.5,4.7 -4.9,4.5 -5.3,4.2 -5.7,4.0 -6.0,3.7 -6.4,3.5 -6.8,3.2 -7.1,3.0 -7.5,2.7 -7.8,2.4 -8.2,2.2 -8.5,1.9 -8.8,1.7 -9.1,1.5 -9.4,1.2 -9.7,1.0 -9.9,0.8 -10.2,0.6 -10.5,0.3 -10.7,0.1 -11.0,-0.1 -11.2,-0.3 -11.4,-0.5 -11.6,-0.7 -11.8,-0.9 -12.1,-1.1 -12.2,-1.3" fill="#fff" stroke="#fff" stroke-width="0" stroke-linejoin="round" filter="url(#fuzzy_av_1779093955010_hhs60h9ly4h)"/><polyline points="12.4,-1.9 12.5,-2.1 12.7,-2.3 12.8,-2.5 12.9,-2.7 13.0,-2.9 13.1,-3.1 13.2,-3.3 13.2,-3.5 13.3,-3.6 -13.3,-3.8 -13.3,-4.0 -13.3,-4.1 -13.3,-4.3 -13.3,-4.4 -13.3,-4.6 -13.2,-4.7 -13.1,-4.8 -13.0,-5.0 -12.9,-5.1 -12.8,-5.2 -12.7,-5.3 -12.5,-5.4 -12.3,-5.5 -12.2,-5.6 -12.0,-5.7 -11.8,-5.8 -11.6,-5.9 -11.4,-6.1 -11.2,-6.2 -10.9,-6.2 -10.7,-6.3 -10.4,-6.4 -10.0,-6.5 -9.7,-6.5 -9.3,-6.6 -8.9,-6.6 -8.5,-6.7 -8.0,-6.7 -7.6,-6.7 -7.1,-6.8 -6.6,-6.8 -6.1,-6.8 -5.6,-6.8 -5.0,-6.8 -4.5,-6.8 -3.9,-6.7 -3.4,-6.7 -2.8,-6.7 -2.2,-6.7 -1.6,-6.6 -1.1,-6.6 -0.5,-6.5 0.1,-6.5 0.7,-6.4 1.2,-6.4 1.8,-6.3 2.4,-6.2 2.9,-6.2 3.5,-6.1 4.0,-6.0 4.6,-5.9 5.1,-5.9 5.6,-5.8 6.1,-5.7 6.6,-5.6 7.1,-5.5 7.6,-5.4 8.0,-5.3 8.5,-5.2 8.9,-5.1 9.3,-5.0 9.7,-4.9 10.1,-4.8 10.5,-4.7 10.8,-4.6 11.2,-4.5 11.5,-4.4 11.9,-4.2 12.2,-4.1 12.5,-4.0 12.8,-3.9 13.1,-3.8 13.3,-3.6 13.6,-3.5 13.8,-3.4 14.1,-3.3 14.3,-3.1 14.5,-3.0 14.7,-2.9 -14.9,-2.7 -15.0,-2.6 -15.2,-2.4 -15.4,-2.3 -15.5,-2.2 -15.6,-2.0 -15.8,-1.9 -15.9,-1.7 -16.0,-1.6 -16.1,-1.4" fill="none" stroke="#111" stroke-width="3.0484840312804447" stroke-linejoin="round" stroke-linecap="round" filter="url(#fuzzy_av_1779093955010_hhs60h9ly4h)"/><polyline points="13.7,-2.7 13.6,-2.6 13.5,-2.5 13.3,-2.4 13.2,-2.3 13.1,-2.1 12.9,-2.0 12.8,-1.8 12.6,-1.6 12.4,-1.5 -12.2,-1.3 -12.1,-1.1 -11.8,-0.9 -11.6,-0.7 -11.4,-0.5 -11.2,-0.3 -11.0,-0.1 -10.7,0.1 -10.5,0.3 -10.2,0.6 -9.9,0.8 -9.7,1.0 -9.4,1.2 -9.1,1.5 -8.8,1.7 -8.5,1.9 -8.2,2.2 -7.8,2.4 -7.5,2.7 -7.1,3.0 -6.8,3.2 -6.4,3.5 -6.0,3.7 -5.7,4.0 -5.3,4.2 -4.9,4.5 -4.5,4.7 -4.1,4.9 -3.6,5.1 -3.2,5.3 -2.8,5.5 -2.4,5.7 -1.9,5.8 -1.5,6.0 -1.0,6.1 -0.6,6.2 -0.2,6.3 0.3,6.4 0.7,6.5 1.2,6.6 1.6,6.6 2.1,6.7 2.5,6.7 3.0,6.7 3.4,6.7 3.9,6.6 4.3,6.6 4.8,6.5 5.2,6.4 5.6,6.4 6.1,6.3 6.5,6.1 6.9,6.0 7.3,5.9 7.7,5.7 8.1,5.6 8.5,5.4 8.9,5.2 9.2,5.1 9.6,4.9 10.0,4.7 10.3,4.5 10.7,4.3 11.0,4.1 11.3,3.9 11.6,3.7 11.9,3.4 12.3,3.2 12.5,3.0 12.8,2.8 13.1,2.6 13.4,2.3 13.6,2.1 13.9,1.9 14.2,1.7 14.4,1.4 14.6,1.2 14.8,1.0 15.1,0.8 15.3,0.6 -15.5,0.3 -15.7,0.1 -15.9,-0.1 -16.0,-0.3 -16.2,-0.5 -16.4,-0.7 -16.5,-0.9 -16.7,-1.1 -16.8,-1.3 -16.9,-1.5" fill="none" stroke="#111" stroke-width="2.7663196608193177" stroke-linejoin="round" stroke-linecap="round" filter="url(#fuzzy_av_1779093955010_hhs60h9ly4h)"/><circle r="4.540141950644914" cx="-8.476258116740762" cy="-3.6005439297919026" stroke="#111" fill="none" stroke-width="1.140413651779148" filter="url(#fuzzy_av_1779093955010_hhs60h9ly4h)" clip-path="url(#leftEye_av_1779093955010_hhs60h9ly4h)"/><circle r="3.4362889880222425" cx="-8.817536302491373" cy="-3.4488882986050724" stroke="#111" fill="none" stroke-width="1.151519835683357" filter="url(#fuzzy_av_1779093955010_hhs60h9ly4h)" clip-path="url(#leftEye_av_1779093955010_hhs60h9ly4h)"/><circle r="3.97136680777878" cx="-10.133218538600186" cy="-0.5020571772374405" stroke="#111" fill="none" stroke-width="1.2542737338720147" filter="url(#fuzzy_av_1779093955010_hhs60h9ly4h)" clip-path="url(#leftEye_av_1779093955010_hhs60h9ly4h)"/><circle r="2.843354628533639" cx="-10.289292975303773" cy="-2.368981730152763" stroke="#111" fill="none" stroke-width="1.0599149997891424" filter="url(#fuzzy_av_1779093955010_hhs60h9ly4h)" clip-path="url(#leftEye_av_1779093955010_hhs60h9ly4h)"/><circle r="4.6884603313087085" cx="-7.042085367751152" cy="-3.460475981824939" stroke="#111" fill="none" stroke-width="0.9618391827296338" filter="url(#fuzzy_av_1779093955010_hhs60h9ly4h)" clip-path="url(#leftEye_av_1779093955010_hhs60h9ly4h)"/><circle r="3.6737069816283334" cx="-7.432038148100411" cy="-1.157136713073029" stroke="#111" fill="none" stroke-width="1.0720679116929852" filter="url(#fuzzy_av_1779093955010_hhs60h9ly4h)" clip-path="url(#leftEye_av_1779093955010_hhs60h9ly4h)"/><circle r="3.2121472787101535" cx="-7.240153646072171" cy="-0.6639249135063108" stroke="#111" fill="none" stroke-width="1.351487070261399" filter="url(#fuzzy_av_1779093955010_hhs60h9ly4h)" clip-path="url(#leftEye_av_1779093955010_hhs60h9ly4h)"/><circle r="3.8637335870779523" cx="-8.148824403795265" cy="-4.270969156851022" stroke="#111" fill="none" stroke-width="1.1442241180774575" filter="url(#fuzzy_av_1779093955010_hhs60h9ly4h)" clip-path="url(#leftEye_av_1779093955010_hhs60h9ly4h)"/><circle r="3.415124594070135" cx="-9.882942974574398" cy="-1.9486187936971548" stroke="#111" fill="none" stroke-width="1.2420711897579824" filter="url(#fuzzy_av_1779093955010_hhs60h9ly4h)" clip-path="url(#leftEye_av_1779093955010_hhs60h9ly4h)"/><circle r="2.8469071582409375" cx="-9.166247733332405" cy="-4.250427017154573" stroke="#111" fill="none" stroke-width="0.9149266045153934" filter="url(#fuzzy_av_1779093955010_hhs60h9ly4h)" clip-path="url(#leftEye_av_1779093955010_hhs60h9ly4h)"/></g><g id="rightEye" transform="translate(26.3 -28.0)"><polyline points="-13.0,-2.8 -13.0,-2.8 -12.9,-2.9 -12.9,-3.0 -12.8,-3.1 -12.7,-3.2 -12.6,-3.3 -12.5,-3.4 -12.3,-3.4 -12.2,-3.5 -12.0,-3.6 -11.8,-3.6 -11.6,-3.7 -11.4,-3.8 -11.2,-3.8 -11.0,-3.9 -10.8,-4.0 -10.6,-4.0 -10.3,-4.1 -10.1,-4.2 -9.8,-4.2 -9.5,-4.3 -9.1,-4.3 -8.7,-4.4 -8.3,-4.4 -7.9,-4.4 -7.5,-4.5 -7.0,-4.5 -6.5,-4.5 -6.1,-4.5 -5.5,-4.6 -5.0,-4.6 -4.5,-4.6 -3.9,-4.6 -3.3,-4.6 -2.8,-4.6 -2.2,-4.6 -1.6,-4.5 -1.0,-4.5 -0.4,-4.5 0.2,-4.5 0.8,-4.4 1.4,-4.4 2.0,-4.4 2.6,-4.3 3.2,-4.3 3.7,-4.3 4.3,-4.2 4.9,-4.2 5.4,-4.1 6.0,-4.1 6.5,-4.0 7.0,-4.0 7.5,-3.9 8.0,-3.8 8.4,-3.8 8.9,-3.7 9.3,-3.6 9.8,-3.6 10.2,-3.5 10.6,-3.4 10.9,-3.4 11.3,-3.3 11.6,-3.2 12.0,-3.1 12.3,-3.0 12.6,-3.0 12.9,-2.9 13.1,-2.8 13.4,-2.7 13.6,-2.6 13.9,-2.5 14.1,-2.5 14.3,-2.4 14.5,-2.3 14.6,-2.2 14.8,-2.1 14.9,-2.0 15.0,-1.9 15.2,-1.8 15.4,0.1 15.1,0.2 14.8,0.4 14.5,0.5 14.2,0.6 13.9,0.8 13.6,0.9 13.2,1.1 12.9,1.2 12.6,1.4 12.2,1.5 11.9,1.7 11.5,1.8 11.1,1.9 10.7,2.1 10.4,2.2 10.0,2.4 9.6,2.5 9.2,2.6 8.8,2.8 8.3,2.9 7.9,3.1 7.5,3.2 7.0,3.3 6.6,3.4 6.2,3.6 5.7,3.7 5.3,3.8 4.8,3.9 4.4,4.0 3.9,4.1 3.4,4.1 3.0,4.2 2.5,4.3 2.1,4.3 1.6,4.4 1.1,4.4 0.7,4.4 0.2,4.5 -0.2,4.5 -0.6,4.5 -1.1,4.5 -1.5,4.4 -1.9,4.4 -2.4,4.4 -2.8,4.3 -3.2,4.3 -3.6,4.2 -4.0,4.1 -4.4,4.0 -4.8,3.9 -5.1,3.8 -5.5,3.7 -5.8,3.6 -6.2,3.4 -6.5,3.3 -6.9,3.1 -7.2,3.0 -7.5,2.8 -7.8,2.6 -8.1,2.5 -8.4,2.3 -8.6,2.1 -8.9,1.9 -9.1,1.7 -9.4,1.6 -9.6,1.4 -9.8,1.3 -10.1,1.1 -10.3,0.9 -10.5,0.8 -10.7,0.6 -10.9,0.5 -11.1,0.3 -11.3,0.2 -11.4,0.0 -11.6,-0.1 -11.8,-0.3 -11.9,-0.4 -12.1,-0.6" fill="#fff" stroke="#fff" stroke-width="0" stroke-linejoin="round" filter="url(#fuzzy_av_1779093955010_hhs60h9ly4h)"/><polyline points="-12.9,-1.7 -12.9,-1.8 -13.0,-1.9 -13.0,-2.0 -13.0,-2.1 -13.1,-2.3 -13.1,-2.4 -13.1,-2.5 -13.1,-2.6 -13.1,-2.7 -13.0,-2.8 -13.0,-2.8 -12.9,-2.9 -12.9,-3.0 -12.8,-3.1 -12.7,-3.2 -12.6,-3.3 -12.5,-3.4 -12.3,-3.4 -12.2,-3.5 -12.0,-3.6 -11.8,-3.6 -11.6,-3.7 -11.4,-3.8 -11.2,-3.8 -11.0,-3.9 -10.8,-4.0 -10.6,-4.0 -10.3,-4.1 -10.1,-4.2 -9.8,-4.2 -9.5,-4.3 -9.1,-4.3 -8.7,-4.4 -8.3,-4.4 -7.9,-4.4 -7.5,-4.5 -7.0,-4.5 -6.5,-4.5 -6.1,-4.5 -5.5,-4.6 -5.0,-4.6 -4.5,-4.6 -3.9,-4.6 -3.3,-4.6 -2.8,-4.6 -2.2,-4.6 -1.6,-4.5 -1.0,-4.5 -0.4,-4.5 0.2,-4.5 0.8,-4.4 1.4,-4.4 2.0,-4.4 2.6,-4.3 3.2,-4.3 3.7,-4.3 4.3,-4.2 4.9,-4.2 5.4,-4.1 6.0,-4.1 6.5,-4.0 7.0,-4.0 7.5,-3.9 8.0,-3.8 8.4,-3.8 8.9,-3.7 9.3,-3.6 9.8,-3.6 10.2,-3.5 10.6,-3.4 10.9,-3.4 11.3,-3.3 11.6,-3.2 12.0,-3.1 12.3,-3.0 12.6,-3.0 12.9,-2.9 13.1,-2.8 13.4,-2.7 13.6,-2.6 13.9,-2.5 14.1,-2.5 14.3,-2.4 14.5,-2.3 14.6,-2.2 14.8,-2.1 14.9,-2.0 15.0,-1.9 15.2,-1.8 15.3,-1.7 15.4,-1.6 15.4,-1.5 15.5,-1.4 15.6,-1.3 15.6,-1.1 15.6,-1.0 15.7,-0.9 15.7,-0.8 15.7,-0.7" fill="none" stroke="#111" stroke-width="2.008684965132702" stroke-linejoin="round" stroke-linecap="round" filter="url(#fuzzy_av_1779093955010_hhs60h9ly4h)"/><polyline points="-13.2,-1.7 -13.1,-1.6 -13.0,-1.5 -12.9,-1.4 -12.8,-1.3 -12.7,-1.2 -12.6,-1.1 -12.5,-1.0 -12.4,-0.9 -12.2,-0.7 -12.1,-0.6 -11.9,-0.4 -11.8,-0.3 -11.6,-0.1 -11.4,0.0 -11.3,0.2 -11.1,0.3 -10.9,0.5 -10.7,0.6 -10.5,0.8 -10.3,0.9 -10.1,1.1 -9.8,1.3 -9.6,1.4 -9.4,1.6 -9.1,1.7 -8.9,1.9 -8.6,2.1 -8.4,2.3 -8.1,2.5 -7.8,2.6 -7.5,2.8 -7.2,3.0 -6.9,3.1 -6.5,3.3 -6.2,3.4 -5.8,3.6 -5.5,3.7 -5.1,3.8 -4.8,3.9 -4.4,4.0 -4.0,4.1 -3.6,4.2 -3.2,4.3 -2.8,4.3 -2.4,4.4 -1.9,4.4 -1.5,4.4 -1.1,4.5 -0.6,4.5 -0.2,4.5 0.2,4.5 0.7,4.4 1.1,4.4 1.6,4.4 2.1,4.3 2.5,4.3 3.0,4.2 3.4,4.1 3.9,4.1 4.4,4.0 4.8,3.9 5.3,3.8 5.7,3.7 6.2,3.6 6.6,3.4 7.0,3.3 7.5,3.2 7.9,3.1 8.3,2.9 8.8,2.8 9.2,2.6 9.6,2.5 10.0,2.4 10.4,2.2 10.7,2.1 11.1,1.9 11.5,1.8 11.9,1.7 12.2,1.5 12.6,1.4 12.9,1.2 13.2,1.1 13.6,0.9 13.9,0.8 14.2,0.6 14.5,0.5 14.8,0.4 15.1,0.2 15.4,0.1 15.7,-0.0 15.9,-0.2 16.2,-0.3 16.4,-0.4 16.7,-0.6 16.9,-0.7 17.2,-0.8 17.4,-1.0 17.6,-1.1 17.8,-1.2" fill="none" stroke="#111" stroke-width="1.919083202143089" stroke-linejoin="round" stroke-linecap="round" filter="url(#fuzzy_av_1779093955010_hhs60h9ly4h)"/><circle r="3.923035640845071" cx="9.388834469035022" cy="1.8441712295911536" stroke="#111" fill="none" stroke-width="1.1780142380941885" filter="url(#fuzzy_av_1779093955010_hhs60h9ly4h)" clip-path="url(#rightEye_av_1779093955010_hhs60h9ly4h)"/><circle r="3.5648816355581623" cx="11.743642012091229" cy="-1.202306196231989" stroke="#111" fill="none" stroke-width="0.9982201478764587" filter="url(#fuzzy_av_1779093955010_hhs60h9ly4h)" clip-path="url(#rightEye_av_1779093955010_hhs60h9ly4h)"/><circle r="3.5640219379916935" cx="9.074869752283085" cy="-0.35458272695971904" stroke="#111" fill="none" stroke-width="1.3850299714669663" filter="url(#fuzzy_av_1779093955010_hhs60h9ly4h)" clip-path="url(#rightEye_av_1779093955010_hhs60h9ly4h)"/><circle r="3.307264602476977" cx="11.583700148660665" cy="1.4657201414681962" stroke="#111" fill="none" stroke-width="1.2346275594136173" filter="url(#fuzzy_av_1779093955010_hhs60h9ly4h)" clip-path="url(#rightEye_av_1779093955010_hhs60h9ly4h)"/><circle r="3.3980680790443385" cx="11.616861283409694" cy="0.2020086672693837" stroke="#111" fill="none" stroke-width="1.2003182613441823" filter="url(#fuzzy_av_1779093955010_hhs60h9ly4h)" clip-path="url(#rightEye_av_1779093955010_hhs60h9ly4h)"/><circle r="4.393150695769878" cx="10.359105236113738" cy="-1.8451804737696178" stroke="#111" fill="none" stroke-width="1.0135432390373165" filter="url(#fuzzy_av_1779093955010_hhs60h9ly4h)" clip-path="url(#rightEye_av_1779093955010_hhs60h9ly4h)"/><circle r="4.574697415170938" cx="10.144804497199862" cy="0.336940499358356" stroke="#111" fill="none" stroke-width="1.3529421035712956" filter="url(#fuzzy_av_1779093955010_hhs60h9ly4h)" clip-path="url(#rightEye_av_1779093955010_hhs60h9ly4h)"/><circle r="4.497898356066069" cx="8.553076685608465" cy="1.2780437571564824" stroke="#111" fill="none" stroke-width="0.8660587270399618" filter="url(#fuzzy_av_1779093955010_hhs60h9ly4h)" clip-path="url(#rightEye_av_1779093955010_hhs60h9ly4h)"/><circle r="3.6749141554770004" cx="10.355415348167817" cy="0.7722360325477735" stroke="#111" fill="none" stroke-width="0.9725245085107308" filter="url(#fuzzy_av_1779093955010_hhs60h9ly4h)" clip-path="url(#rightEye_av_1779093955010_hhs60h9ly4h)"/><circle r="4.08317729087131" cx="11.681260391393948" cy="1.5511342427608288" stroke="#111" fill="none" stroke-width="1.2984774509018067" filter="url(#fuzzy_av_1779093955010_hhs60h9ly4h)" clip-path="url(#rightEye_av_1779093955010_hhs60h9ly4h)"/></g><g id="hairs"><polyline points="-27.9,-51.7 -27.3,-51.7 -26.1,-53.5 -24.8,-53.5 -23.4,-55.7 -21.9,-56.3 -20.2,-56.3 -18.3,-56.9 -16.2,-58.7 -14.1,-59.7 -11.9,-59.1 -9.8,-60.1 -7.7,-60.7 -5.6,-61.7 -3.5,-62.3 -1.5,-63.5 0.5,-63.0 2.3,-63.7 3.9,-62.9 5.0,-64.0 5.7,-65.5" fill="none" stroke="#D97706" stroke-width="2.5980782300439698" stroke-linejoin="round" stroke-linecap="round" filter="url(#fuzzy_av_1779093955010_hhs60h9ly4h)" opacity="0.7618816517952106"/><polyline points="-25.2,-54.0 -24.7,-54.8 -24.0,-55.4 -23.2,-55.7 -22.4,-57.3 -21.8,-56.8 -21.3,-57.5 -21.0,-58.7 -20.9,-58.8 -21.0,-58.2 -21.4,-57.0 -22.0,-56.1 -22.8,-55.1 -23.9,-53.4 -25.3,-50.4 -27.0,-48.1 -29.1,-46.2 -31.5,-42.6 -34.4,-38.3 -37.7,-33.5" fill="none" stroke="#D97706" stroke-width="2.2681030045749635" stroke-linejoin="round" stroke-linecap="round" filter="url(#fuzzy_av_1779093955010_hhs60h9ly4h)" opacity="0.9506792158522241"/><polyline points="-10.4,-64.7 -9.3,-65.6 -8.6,-64.3 -7.9,-65.0 -7.5,-64.1 -7.3,-65.0 -7.2,-64.5 -7.4,-63.9 -7.9,-64.3 -8.5,-62.5 -9.5,-61.8 -10.8,-61.8 -12.6,-58.8 -14.9,-58.2 -17.8,-55.9 -21.1,-54.0 -24.9,-51.4 -29.5,-49.7" fill="none" stroke="#D97706" stroke-width="2.420341028904436" stroke-linejoin="round" stroke-linecap="round" filter="url(#fuzzy_av_1779093955010_hhs60h9ly4h)" opacity="0.8796505908269652"/><polyline points="7.3,-64.0 8.1,-63.4 8.7,-62.7 8.9,-64.4 8.8,-63.8 8.5,-63.6 8.1,-63.0 7.4,-61.7 6.6,-60.7 5.4,-60.8 3.8,-60.6 1.7,-59.5 -0.9,-59.0 -3.9,-58.3 -7.4,-57.3 -11.3,-56.5 -15.7,-54.6 -20.6,-55.2 -26.9,-53.4" fill="none" stroke="#D97706" stroke-width="1.383757039354217" stroke-linejoin="round" stroke-linecap="round" filter="url(#fuzzy_av_1779093955010_hhs60h9ly4h)" opacity="0.9098098671879329"/><polyline points="-30.4,-49.5 -29.5,-49.0 -28.9,-49.8 -28.5,-51.4 -28.2,-51.7 -28.0,-51.0 -28.0,-49.5 -28.2,-48.1 -28.6,-46.5 -29.2,-44.5 -30.0,-43.0 -31.0,-39.5 -32.4,-36.9 -34.0,-31.4 -36.0,-27.3 -38.3,-21.0 -40.9,-15.5 -44.0,-8.7" fill="none" stroke="#D97706" stroke-width="1.8411862032554116" stroke-linejoin="round" stroke-linecap="round" filter="url(#fuzzy_av_1779093955010_hhs60h9ly4h)" opacity="0.9146841735633584"/><polyline points="-44.0,-8.2 -43.7,-9.9 -43.3,-9.7 -42.6,-13.2 -41.6,-15.3 -40.5,-17.7 -39.1,-18.5 -37.6,-22.5 -35.9,-23.9 -34.0,-26.2 -31.9,-28.9 -29.7,-31.7 -27.4,-34.1 -25.0,-38.6 -22.6,-40.9 -20.1,-44.5 -17.6,-46.4 -15.1,-49.0 -12.6,-52.0 -10.1,-55.0 -7.6,-57.4 -5.1,-61.1 -2.5,-63.5 -0.1,-65.0" fill="none" stroke="#D97706" stroke-width="1.248441594039798" stroke-linejoin="round" stroke-linecap="round" filter="url(#fuzzy_av_1779093955010_hhs60h9ly4h)" opacity="0.8401958685575237"/><polyline points="5.3,-64.7 6.1,-64.5 7.2,-63.4 8.4,-64.6 9.5,-63.0 10.5,-63.9 11.3,-62.3 12.1,-62.7 12.8,-61.9 13.5,-61.8 14.1,-60.5 14.6,-61.2 14.7,-60.9 14.5,-61.6 13.7,-61.0 12.4,-61.9 11.2,-63.5" fill="none" stroke="#D97706" stroke-width="1.2544157222011192" stroke-linejoin="round" stroke-linecap="round" filter="url(#fuzzy_av_1779093955010_hhs60h9ly4h)" opacity="0.8912453675045318"/><polyline points="2.1,-65.3 3.0,-65.2 3.7,-64.1 4.3,-65.4 4.6,-65.1 4.7,-64.0 4.6,-62.6 4.1,-61.7 3.2,-60.1 2.0,-60.4 0.5,-58.7 -1.3,-57.1 -3.3,-55.4 -5.6,-54.7 -8.3,-52.2 -11.3,-50.3 -14.9,-46.5 -18.8,-44.1 -23.2,-42.0 -28.0,-37.7 -33.2,-34.1 -38.6,-33.1" fill="none" stroke="#D97706" stroke-width="1.9840553766128812" stroke-linejoin="round" stroke-linecap="round" filter="url(#fuzzy_av_1779093955010_hhs60h9ly4h)" opacity="0.9640086197531288"/><polyline points="-39.2,-30.8 -38.8,-31.2 -38.5,-32.7 -38.0,-33.6 -37.4,-35.6 -36.8,-37.4 -36.3,-38.5 -35.7,-39.1 -35.3,-40.2 -34.9,-40.9 -34.6,-42.3 -34.4,-41.6 -34.3,-42.6 -34.3,-40.9 -34.5,-42.1 -34.8,-39.7 -35.3,-39.7 -36.0,-36.9 -36.9,-34.9 -37.9,-32.9 -39.2,-30.8" fill="none" stroke="#D97706" stroke-width="2.4013490194197273" stroke-linejoin="round" stroke-linecap="round" filter="url(#fuzzy_av_1779093955010_hhs60h9ly4h)" opacity="0.7898644405322033"/><polyline points="20.9,-55.9 22.2,-54.4 22.9,-53.5 23.3,-53.7 23.3,-52.4 23.1,-51.0 22.8,-50.8 22.2,-49.9 21.4,-49.3 20.4,-46.9 19.0,-47.1 17.4,-45.6 15.5,-45.4 13.3,-43.8 10.7,-42.2 7.7,-40.5 4.4,-39.2 0.8,-38.7 -3.2,-36.5 -7.5,-36.6 -12.1,-34.7 -17.1,-33.2 -22.3,-32.6 -27.9,-29.9 -33.9,-29.6 -40.4,-28.4" fill="none" stroke="#D97706" stroke-width="1.1732673242141636" stroke-linejoin="round" stroke-linecap="round" filter="url(#fuzzy_av_1779093955010_hhs60h9ly4h)" opacity="0.9151472571475714"/><polyline points="-15.5,-62.8 -14.2,-62.2 -13.4,-64.0 -12.8,-63.2 -12.3,-63.8 -12.0,-63.2 -12.0,-62.3 -12.1,-61.5 -12.5,-60.7 -13.0,-59.7 -13.8,-60.4 -14.8,-57.6 -16.1,-55.8 -17.7,-53.8 -19.6,-51.6 -21.8,-50.0 -24.4,-47.5 -27.4,-43.7 -30.8,-39.0 -34.7,-36.4 -38.6,-32.0" fill="none" stroke="#D97706" stroke-width="2.514331222138198" stroke-linejoin="round" stroke-linecap="round" filter="url(#fuzzy_av_1779093955010_hhs60h9ly4h)" opacity="0.9929762260961958"/><polyline points="-22.5,-57.2 -21.8,-57.4 -21.1,-59.0 -20.6,-58.3 -20.1,-57.9 -19.8,-59.0 -19.7,-57.5 -19.8,-58.0 -20.2,-57.1 -20.8,-54.1 -21.6,-52.6 -22.7,-50.4 -24.1,-46.9 -25.8,-45.3 -27.8,-41.6 -30.2,-36.6 -32.9,-33.3 -36.0,-27.0 -39.3,-20.9 -43.0,-16.5" fill="none" stroke="#D97706" stroke-width="1.7171343897793976" stroke-linejoin="round" stroke-linecap="round" filter="url(#fuzzy_av_1779093955010_hhs60h9ly4h)" opacity="0.7856674792590134"/><polyline points="29.1,-48.0 29.8,-46.2 30.1,-46.4 29.9,-44.0 29.1,-43.5 27.9,-43.6 26.1,-43.8 23.7,-43.7 20.9,-44.3 17.4,-44.8 13.3,-46.4 8.7,-46.3 3.3,-49.0 -2.7,-49.5 -9.6,-49.7 -17.1,-51.6 -25.2,-54.8" fill="none" stroke="#D97706" stroke-width="1.5148864642318467" stroke-linejoin="round" stroke-linecap="round" filter="url(#fuzzy_av_1779093955010_hhs60h9ly4h)" opacity="0.8249742495755148"/><polyline points="3.9,-65.8 5.0,-65.9 6.0,-65.5 6.9,-63.5 7.6,-63.8 8.2,-64.5 8.4,-63.2 8.4,-63.9 8.0,-64.1 7.5,-63.6 6.7,-64.4 5.5,-63.7 4.0,-63.2 2.1,-63.8 -0.4,-65.3 -3.4,-64.8 -6.7,-66.2" fill="none" stroke="#D97706" stroke-width="0.7172551715222719" stroke-linejoin="round" stroke-linecap="round" filter="url(#fuzzy_av_1779093955010_hhs60h9ly4h)" opacity="0.8601538419197364"/><polyline points="-6.3,-66.1 -5.1,-64.6 -4.3,-65.3 -3.7,-65.2 -3.1,-64.8 -2.6,-65.3 -2.4,-64.3 -2.5,-65.1 -2.9,-63.3 -3.7,-63.7 -4.9,-62.0 -6.4,-61.0 -8.2,-60.1 -10.5,-59.3 -13.2,-58.1 -16.5,-56.0 -20.2,-53.5 -24.5,-51.8 -29.5,-49.8" fill="none" stroke="#D97706" stroke-width="1.487934967195023" stroke-linejoin="round" stroke-linecap="round" filter="url(#fuzzy_av_1779093955010_hhs60h9ly4h)" opacity="0.8741825748528893"/><polyline points="-10.9,-64.0 -10.4,-63.9 -9.7,-64.7 -8.8,-65.1 -7.7,-65.4 -6.5,-65.5 -5.4,-65.8 -4.2,-64.2 -3.1,-64.9 -1.9,-64.6 -0.7,-64.5 0.5,-64.3 1.5,-64.4 2.4,-65.7 3.1,-64.2 3.5,-65.6 3.8,-65.3 3.7,-64.9 3.5,-66.2 3.0,-65.0 2.2,-65.9 1.3,-66.0 -0.1,-64.7" fill="none" stroke="#D97706" stroke-width="2.0946438876602054" stroke-linejoin="round" stroke-linecap="round" filter="url(#fuzzy_av_1779093955010_hhs60h9ly4h)" opacity="0.9291819335157283"/><polyline points="-27.9,-51.4 -27.4,-53.0 -26.4,-53.9 -25.4,-55.1 -24.5,-56.0 -23.6,-56.4 -22.5,-56.6 -21.5,-57.9 -20.4,-58.9 -19.3,-58.4 -18.3,-59.8 -17.5,-61.3 -16.7,-62.1 -16.2,-60.8 -15.8,-62.8 -15.7,-62.3 -15.7,-62.6 -16.0,-62.6 -16.5,-60.8 -17.3,-61.2 -18.5,-59.7 -20.2,-58.8" fill="none" stroke="#D97706" stroke-width="1.409238084781408" stroke-linejoin="round" stroke-linecap="round" filter="url(#fuzzy_av_1779093955010_hhs60h9ly4h)" opacity="0.9385546947175475"/><polyline points="-25.2,-54.6 -24.7,-55.3 -23.9,-55.4 -22.9,-56.7 -21.9,-58.7 -21.0,-59.1 -20.2,-58.3 -19.6,-59.9 -19.1,-60.2 -18.8,-59.2 -18.7,-59.3 -18.8,-60.4 -19.1,-60.5 -19.6,-58.8 -20.4,-58.8 -21.5,-56.4 -22.9,-55.2 -24.7,-53.7 -26.8,-51.5 -29.5,-49.8" fill="none" stroke="#D97706" stroke-width="1.8468894667556701" stroke-linejoin="round" stroke-linecap="round" filter="url(#fuzzy_av_1779093955010_hhs60h9ly4h)" opacity="0.7567758270805163"/><polyline points="23.5,-53.1 24.2,-52.6 24.1,-52.4 23.7,-52.3 23.0,-50.5 21.9,-49.2 20.4,-48.6 18.4,-47.6 15.9,-45.2 12.9,-44.2 9.3,-42.2 5.1,-40.0 0.3,-39.2 -5.0,-35.7 -11.0,-34.1 -17.7,-31.9 -25.0,-29.2 -33.1,-26.7 -41.8,-20.7" fill="none" stroke="#D97706" stroke-width="1.6274926045837157" stroke-linejoin="round" stroke-linecap="round" filter="url(#fuzzy_av_1779093955010_hhs60h9ly4h)" opacity="0.8375457590220788"/><polyline points="-32.4,-46.3 -31.8,-45.9 -31.2,-46.2 -30.7,-47.3 -30.2,-48.2 -29.7,-49.5 -29.3,-49.1 -28.9,-50.8 -28.7,-50.2 -28.7,-49.7 -28.7,-50.1 -29.1,-49.8 -29.6,-48.6 -30.4,-45.7 -31.4,-45.5 -32.7,-41.5 -34.3,-40.4 -36.4,-36.2 -38.9,-32.1" fill="none" stroke="#D97706" stroke-width="2.13437403775247" stroke-linejoin="round" stroke-linecap="round" filter="url(#fuzzy_av_1779093955010_hhs60h9ly4h)" opacity="0.8983458574730572"/><polyline points="-16.6,-61.9 -16.3,-61.6 -15.5,-63.1 -14.6,-62.9 -13.6,-62.0 -12.6,-64.0 -11.5,-63.2 -10.5,-63.8 -9.6,-65.2 -8.8,-64.2 -8.1,-64.1 -7.5,-64.5 -6.9,-64.5 -6.5,-65.4 -6.2,-65.1 -6.1,-66.2 -6.1,-65.4 -6.3,-64.7 -6.7,-65.2 -7.3,-64.6 -8.2,-64.6 -9.4,-63.7 -11.2,-62.9 -13.6,-63.6" fill="none" stroke="#D97706" stroke-width="2.492537133788171" stroke-linejoin="round" stroke-linecap="round" filter="url(#fuzzy_av_1779093955010_hhs60h9ly4h)" opacity="0.9804286878700122"/><polyline points="25.5,-52.1 26.9,-50.6 27.5,-49.7 27.9,-49.5 28.1,-48.0 28.0,-47.8 27.7,-47.0 27.1,-49.0 26.0,-49.0 24.6,-49.6 22.7,-51.5 20.4,-51.9 17.6,-54.7 14.3,-55.5 10.5,-59.7 6.2,-62.9 1.4,-64.6" fill="none" stroke="#D97706" stroke-width="1.946263558225824" stroke-linejoin="round" stroke-linecap="round" filter="url(#fuzzy_av_1779093955010_hhs60h9ly4h)" opacity="0.9144038266837848"/><polyline points="40.8,-24.6 43.6,-21.5 44.5,-18.9 44.8,-16.0 45.0,-13.3 45.3,-11.5 45.6,-8.7 45.8,-7.1 45.9,-3.3 46.0,-1.2 46.2,1.5 46.4,4.2 46.9,5.0 47.4,8.1 48.0,10.8 48.4,12.3 48.4,16.0 48.1,16.5 47.5,19.6 46.5,22.3 45.3,24.2 44.0,26.5 42.7,27.2 41.5,30.0 40.5,31.5 39.6,34.3 38.8,35.7 37.9,36.3 36.8,37.8 35.7,40.8 34.0,41.6" fill="none" stroke="#D97706" stroke-width="1.1098088691019972" stroke-linejoin="round" stroke-linecap="round" filter="url(#fuzzy_av_1779093955010_hhs60h9ly4h)" opacity="0.8789894866863195"/><polyline points="40.8,-24.9 42.5,-22.6 43.8,-20.8 44.3,-16.8 44.7,-15.7 45.2,-12.9 45.7,-10.3 46.0,-7.0 46.2,-4.0 46.3,-1.6 46.4,0.8 46.4,3.0 46.3,4.0 46.2,7.4 46.0,9.4 45.8,12.5 45.6,13.3 45.3,16.9 45.0,18.5 44.6,21.6 44.1,23.1 43.4,25.5 42.7,27.4 41.9,28.7 41.0,30.4 40.0,33.0 39.1,35.2 37.9,36.1 36.5,37.1 34.7,40.3 32.6,41.2 30.4,42.1 28.3,44.2 26.2,44.8 24.0,46.6" fill="none" stroke="#D97706" stroke-width="2.5774923257353843" stroke-linejoin="round" stroke-linecap="round" filter="url(#fuzzy_av_1779093955010_hhs60h9ly4h)" opacity="0.9086363676297585"/><polyline points="39.8,-26.9 40.6,-24.6 41.5,-22.3 42.4,-19.3 43.5,-18.3 44.6,-15.4 45.6,-12.6 46.4,-10.1 46.9,-7.3 47.1,-5.1 47.2,-1.5 47.3,-0.9 47.6,3.1 48.0,4.3 48.6,7.3 49.3,10.4 49.8,11.1 50.0,13.8 49.9,15.9 49.5,17.8 48.8,20.8 47.8,23.3 46.7,24.1 45.7,27.2 44.6,29.7 43.6,30.0 42.5,32.6 41.3,34.7 39.8,35.0 38.1,37.6 36.3,40.2 34.3,41.1 32.2,42.7 30.1,43.7 27.8,45.7" fill="none" stroke="#D97706" stroke-width="2.346390177128682" stroke-linejoin="round" stroke-linecap="round" filter="url(#fuzzy_av_1779093955010_hhs60h9ly4h)" opacity="0.9546006408223247"/><polyline points="39.2,-28.0 40.2,-26.7 41.5,-24.9 43.0,-22.7 44.3,-19.7 45.3,-17.7 46.1,-16.0 46.9,-12.4 47.5,-10.7 48.2,-7.4 48.9,-5.7 49.5,-2.5 50.1,0.2 50.6,1.4 51.0,5.0 51.3,7.5 51.5,9.3 51.7,11.3 51.7,13.4 51.6,16.2 51.4,17.8 51.2,19.6 51.1,23.0 50.9,23.9 49.8,26.9" fill="none" stroke="#D97706" stroke-width="2.120345664400187" stroke-linejoin="round" stroke-linecap="round" filter="url(#fuzzy_av_1779093955010_hhs60h9ly4h)" opacity="0.9155829765146214"/><polyline points="35.1,-39.0 36.2,-38.2 37.9,-34.6 39.4,-32.6 40.5,-31.7 41.6,-27.6 42.9,-26.7 44.4,-24.5 46.1,-21.3 47.8,-19.9 49.3,-15.8 50.7,-13.8 51.7,-11.2 52.5,-8.7 53.0,-7.6 53.2,-5.3 53.1,-3.1 52.8,0.7 52.5,2.5 52.1,5.1 52.0,7.6 52.0,9.3 52.1,12.5 52.2,14.8 52.2,17.8 52.3,18.2 52.4,22.2 52.4,23.6 51.9,25.9 51.0,25.6" fill="none" stroke="#D97706" stroke-width="1.004269431131461" stroke-linejoin="round" stroke-linecap="round" filter="url(#fuzzy_av_1779093955010_hhs60h9ly4h)" opacity="0.9408862910764779"/><polyline points="33.2,-42.3 39.1,-38.5 40.3,-37.3 40.1,-35.7 40.2,-34.2 40.8,-31.7 41.8,-27.8 42.9,-26.1 44.1,-24.1 45.5,-22.1 47.1,-19.9 48.8,-16.7 50.6,-15.3 52.4,-12.3 54.0,-9.0 55.4,-7.2 56.5,-4.6 57.4,-3.3 58.3,0.2 58.9,2.6 59.2,4.9 59.1,7.5 59.1,9.2 59.9,11.7 61.7,13.6" fill="none" stroke="#D97706" stroke-width="2.264361793234344" stroke-linejoin="round" stroke-linecap="round" filter="url(#fuzzy_av_1779093955010_hhs60h9ly4h)" opacity="0.8282909670850886"/><polyline points="31.1,-44.9 32.1,-43.5 33.0,-41.3 33.8,-39.5 34.4,-37.2 34.9,-36.0 35.4,-32.9 35.9,-30.8 36.4,-29.1 36.8,-26.0 37.2,-23.8 37.4,-21.7 37.5,-19.6 37.3,-17.8 37.1,-15.1 36.8,-11.6 36.5,-10.6 36.3,-7.0 36.1,-5.1 35.9,-3.2 35.4,-1.3 34.6,2.4 33.6,4.7 32.5,6.5 31.1,9.3" fill="none" stroke="#D97706" stroke-width="1.6720715705148543" stroke-linejoin="round" stroke-linecap="round" filter="url(#fuzzy_av_1779093955010_hhs60h9ly4h)" opacity="0.8672412018682493"/><polyline points="29.1,-47.9 30.8,-44.8 32.5,-44.1 34.5,-41.7 36.6,-39.3 38.6,-36.6 40.3,-36.0 41.7,-33.2 43.1,-31.5 44.6,-28.7 46.3,-26.4 48.0,-23.9 49.3,-21.8 50.4,-18.9 51.2,-16.6 51.8,-14.0 52.6,-12.8 53.5,-10.9 54.6,-7.9 55.8,-5.2 57.0,-1.8 58.3,0.2 59.4,1.0 60.3,4.0 60.9,6.6 61.2,10.0 61.8,13.1" fill="none" stroke="#D97706" stroke-width="1.2575328393910232" stroke-linejoin="round" stroke-linecap="round" filter="url(#fuzzy_av_1779093955010_hhs60h9ly4h)" opacity="0.7876934795552692"/><polyline points="26.9,-50.7 28.9,-48.2 30.6,-46.5 31.9,-43.6 33.2,-42.1 34.3,-38.9 35.3,-38.1 36.3,-35.0 37.3,-32.9 38.3,-30.5 39.2,-28.8 40.0,-26.9 40.8,-23.5 41.5,-21.1 42.1,-19.6 42.7,-16.9 43.1,-15.5 43.5,-13.0 43.8,-8.7 44.1,-7.3 44.2,-5.6 44.3,-2.9 44.3,0.0 44.3,2.3 44.1,4.7 43.9,7.7 43.6,10.2 43.2,11.2 42.8,13.5 42.2,17.8 41.6,18.9 41.0,21.2 40.2,23.3" fill="none" stroke="#D97706" stroke-width="1.7476020556897658" stroke-linejoin="round" stroke-linecap="round" filter="url(#fuzzy_av_1779093955010_hhs60h9ly4h)" opacity="0.7667841321287592"/><polyline points="25.5,-52.4 27.4,-50.3 29.4,-48.2 31.6,-45.6 33.9,-42.8 36.2,-41.8 38.1,-39.8 39.8,-37.6 41.2,-35.1 42.4,-33.4 43.5,-30.5 44.7,-28.6 45.7,-27.5 46.8,-23.3 47.7,-21.3 48.7,-19.4 49.7,-16.3 50.8,-14.3 52.1,-13.0 53.5,-9.5 55.0,-6.7 56.3,-5.6 57.4,-1.6 58.1,0.1 58.3,1.8 58.3,5.4 58.0,7.2 57.8,9.8 57.6,11.9 57.6,13.9 57.6,16.5 57.5,19.1 57.4,21.9 57.5,23.9 57.7,25.2 58.1,27.4" fill="none" stroke="#D97706" stroke-width="1.4480672077044048" stroke-linejoin="round" stroke-linecap="round" filter="url(#fuzzy_av_1779093955010_hhs60h9ly4h)" opacity="0.9530507521292569"/><polyline points="20.9,-56.2 22.5,-54.3 24.0,-52.5 25.5,-52.2 27.1,-50.5 28.6,-48.2 29.9,-45.9 31.2,-45.1 32.3,-42.0 33.4,-41.2 34.5,-39.2 35.5,-36.2 36.6,-33.7 37.6,-33.2 38.5,-30.8 39.4,-27.4 40.1,-24.9 40.9,-23.9 41.5,-21.5 42.1,-18.2 42.6,-17.0 43.1,-13.3 43.5,-10.5 43.8,-8.4 44.1,-6.9 44.3,-4.3 44.4,-0.6 44.4,1.4 44.4,3.8 44.3,5.7" fill="none" stroke="#D97706" stroke-width="1.7330633853391435" stroke-linejoin="round" stroke-linecap="round" filter="url(#fuzzy_av_1779093955010_hhs60h9ly4h)" opacity="0.9076191639817479"/><polyline points="18.8,-57.3 20.7,-57.2 22.4,-55.4 24.0,-54.0 25.6,-50.9 27.2,-48.9 28.7,-47.2 30.2,-45.8 31.7,-44.8 33.1,-42.5 34.5,-40.0 35.9,-39.2 37.3,-37.2 38.5,-35.4 39.7,-32.8 40.7,-29.8 41.7,-28.4 42.7,-25.6 43.7,-23.2 44.7,-21.9 45.6,-18.8 46.5,-16.9 47.3,-13.8 47.9,-10.6 48.5,-9.1 49.0,-6.3 49.5,-2.8 50.0,-1.7 50.5,1.2 51.0,2.6 51.4,5.9 51.6,8.5 51.2,11.9" fill="none" stroke="#D97706" stroke-width="2.4638707277193452" stroke-linejoin="round" stroke-linecap="round" filter="url(#fuzzy_av_1779093955010_hhs60h9ly4h)" opacity="0.9654304154945736"/><polyline points="15.3,-59.8 17.2,-60.1 18.9,-58.4 20.6,-55.9 22.2,-55.8 23.7,-53.1 25.3,-51.5 26.8,-50.7 28.3,-47.9 29.6,-45.6 30.9,-45.2 32.1,-42.6 33.2,-42.2 34.2,-39.3 35.3,-37.2 36.4,-35.0 37.4,-33.8 38.4,-30.6 39.3,-28.4 40.1,-26.1 40.8,-23.5 41.5,-21.9 42.1,-20.5 42.5,-18.9" fill="none" stroke="#D97706" stroke-width="1.815053997895493" stroke-linejoin="round" stroke-linecap="round" filter="url(#fuzzy_av_1779093955010_hhs60h9ly4h)" opacity="0.789106906713813"/><polyline points="14.4,-61.2 15.4,-61.2 16.0,-58.9 16.6,-57.2 17.3,-57.2 18.3,-54.8 19.6,-53.2 20.9,-50.9 22.1,-50.6 23.2,-47.5 24.1,-45.8 24.9,-43.9 25.5,-42.6 26.0,-39.9 26.4,-39.7 26.7,-36.9 26.9,-34.7 27.1,-33.1 27.1,-30.2 26.9,-28.7 26.5,-26.2 25.8,-22.9 24.9,-21.0 23.8,-18.6 22.7,-17.4 21.8,-14.7 21.0,-11.3 20.1,-9.5 19.3,-6.0 18.4,-4.6 17.1,-1.0 14.8,2.0 12.5,3.5" fill="none" stroke="#D97706" stroke-width="1.367528301876097" stroke-linejoin="round" stroke-linecap="round" filter="url(#fuzzy_av_1779093955010_hhs60h9ly4h)" opacity="0.753727478301347"/><polyline points="11.4,-63.0 13.7,-60.8 15.4,-61.0 17.0,-58.7 18.6,-58.0 20.1,-57.3 21.6,-55.2 23.2,-54.3 24.6,-52.3 26.0,-50.5 27.3,-47.7 28.5,-47.2 29.6,-45.1 30.6,-43.6 31.6,-40.8 32.5,-38.9 33.5,-36.4 34.4,-34.5 35.2,-31.6 35.9,-30.3 36.6,-27.6 37.1,-25.9 37.5,-23.3 37.9,-21.5 38.2,-19.1 38.5,-16.4 38.7,-13.9 38.8,-10.9 38.8,-8.0 38.8,-6.1 38.7,-3.4 38.6,-1.0 38.4,1.2 38.1,3.4 37.6,6.0 37.1,8.5 36.4,10.1" fill="none" stroke="#D97706" stroke-width="2.2497892171498592" stroke-linejoin="round" stroke-linecap="round" filter="url(#fuzzy_av_1779093955010_hhs60h9ly4h)" opacity="0.9437597361633929"/><polyline points="11.4,-62.6 13.8,-60.4 15.8,-59.5 17.8,-59.0 20.0,-57.3 22.5,-56.6 25.0,-54.8 27.3,-52.9 29.4,-51.3 31.3,-49.3 33.1,-48.5 34.9,-47.0 36.5,-43.9 38.0,-42.4 39.5,-40.7 40.8,-39.3 42.2,-37.6 43.8,-35.1 45.6,-33.3 47.6,-30.5 49.6,-27.8 51.6,-26.6 53.6,-24.5 55.7,-21.7 58.0,-19.1 60.2,-17.6 61.9,-15.1 63.0,-11.4 64.4,-9.2" fill="none" stroke="#D97706" stroke-width="1.7971412192634448" stroke-linejoin="round" stroke-linecap="round" filter="url(#fuzzy_av_1779093955010_hhs60h9ly4h)" opacity="0.95560726540448"/><polyline points="10.2,-63.8 12.0,-62.3 13.9,-61.3 15.7,-59.7 17.4,-59.1 19.1,-57.3 20.9,-56.1 22.7,-55.3 24.6,-54.0 26.4,-52.3 28.2,-49.5 29.9,-48.5 31.5,-46.2 33.1,-44.5 34.5,-43.4 36.0,-41.3 37.4,-39.8 39.0,-38.6 40.6,-36.0 42.3,-34.0 43.8,-31.9 44.9,-28.1 45.8,-26.8 47.0,-24.0" fill="none" stroke="#D97706" stroke-width="2.0676881505326623" stroke-linejoin="round" stroke-linecap="round" filter="url(#fuzzy_av_1779093955010_hhs60h9ly4h)" opacity="0.8268937395187208"/><polyline points="10.1,-62.8 10.7,-63.4 12.1,-62.8 13.7,-61.0 15.4,-59.9 17.2,-58.5 19.0,-57.1 20.8,-55.9 22.7,-55.8 24.5,-53.3 26.3,-52.1 28.1,-50.3 29.9,-47.4 31.6,-47.0 33.3,-44.1 34.9,-43.2 36.4,-41.6 37.8,-38.8 39.1,-37.5 40.4,-36.0 41.8,-32.1 43.2,-30.8 44.7,-28.9 46.2,-25.7 47.7,-23.9 49.4,-21.0 51.1,-19.2 52.7,-16.3 54.1,-15.2 55.1,-12.3 55.6,-9.2 56.5,-6.5" fill="none" stroke="#D97706" stroke-width="1.6604480360988516" stroke-linejoin="round" stroke-linecap="round" filter="url(#fuzzy_av_1779093955010_hhs60h9ly4h)" opacity="0.8630563769937525"/><polyline points="5.3,-65.6 7.2,-64.9 8.9,-63.2 10.6,-63.0 12.2,-63.0 13.9,-62.5 15.6,-61.0 17.3,-59.7 18.9,-57.7 20.7,-56.6 22.4,-56.3 24.2,-54.3 26.0,-53.5 27.9,-52.4 29.7,-51.0 31.5,-48.1 33.4,-45.6 35.1,-44.6 36.8,-43.0 38.4,-40.5 39.8,-39.7 41.1,-37.1 42.4,-34.7 43.8,-33.4 45.4,-30.5 47.1,-27.8 49.3,-23.7" fill="none" stroke="#D97706" stroke-width="1.2837931899624584" stroke-linejoin="round" stroke-linecap="round" filter="url(#fuzzy_av_1779093955010_hhs60h9ly4h)" opacity="0.7931174441435107"/><polyline points="3.9,-64.8 5.8,-65.5 7.6,-63.9 9.2,-63.7 10.6,-63.8 12.1,-61.2 13.7,-61.1 15.3,-59.5 17.0,-58.4 18.7,-58.8 20.4,-55.9 22.1,-55.9 23.7,-54.3 25.3,-52.6 26.8,-51.1 28.3,-48.7 29.6,-46.9 31.0,-44.6 32.2,-43.3 33.4,-41.2 34.6,-40.2 35.7,-37.3 36.8,-34.5 38.0,-33.8 39.0,-30.6 40.0,-29.2 40.9,-26.2 41.7,-24.9 42.5,-21.8 43.2,-19.8 43.6,-18.1" fill="none" stroke="#D97706" stroke-width="1.1779325796590614" stroke-linejoin="round" stroke-linecap="round" filter="url(#fuzzy_av_1779093955010_hhs60h9ly4h)" opacity="0.7875234834849418"/><polyline points="3.9,-65.2 5.9,-65.2 7.7,-63.5 9.3,-63.9 10.8,-63.3 12.3,-61.4 13.9,-61.4 15.5,-61.0 17.2,-60.1 18.9,-58.1 20.6,-55.9 22.3,-55.6 24.0,-53.8 25.7,-51.9 27.3,-49.8 28.9,-48.2 30.4,-46.0 31.8,-45.9 33.1,-42.8 34.4,-40.6 35.6,-38.7 36.9,-36.5 38.1,-35.0 39.3,-33.3 40.3,-30.2 41.3,-28.7 42.2,-26.9 43.1,-23.4 44.0,-22.6 44.8,-19.7 45.6,-16.1 46.2,-14.3 46.5,-12.9" fill="none" stroke="#D97706" stroke-width="1.317471554632359" stroke-linejoin="round" stroke-linecap="round" filter="url(#fuzzy_av_1779093955010_hhs60h9ly4h)" opacity="0.9346305084309672"/><polyline points="-4.2,-66.6 -2.4,-65.5 -0.2,-66.2 1.8,-64.7 3.8,-65.7 5.6,-65.5 7.3,-63.5 9.0,-62.8 10.6,-63.8 12.2,-61.7 13.9,-61.7 15.6,-61.1 17.4,-60.2 19.3,-58.2 21.2,-56.8 23.1,-55.2 24.9,-54.3 26.7,-53.1 28.4,-50.2 30.1,-48.8 31.7,-47.7 33.3,-44.7 34.8,-44.0 36.3,-41.0 37.8,-39.3 39.3,-37.0 40.9,-35.2 42.4,-32.4 43.8,-30.7 44.9,-28.9 45.9,-26.8 47.2,-23.9" fill="none" stroke="#D97706" stroke-width="0.8083157675591235" stroke-linejoin="round" stroke-linecap="round" filter="url(#fuzzy_av_1779093955010_hhs60h9ly4h)" opacity="0.8333972836477512"/><polyline points="-6.3,-65.6 -4.4,-65.8 -2.4,-65.3 -0.3,-66.3 1.7,-65.0 3.7,-64.2 5.5,-64.5 7.3,-63.8 9.0,-64.2 10.6,-63.1 12.2,-62.1 13.9,-61.9 15.7,-60.4 17.5,-60.3 19.3,-59.0 21.1,-57.7 22.9,-55.7 24.7,-53.4 26.4,-51.6 28.2,-50.1 29.9,-49.0 31.7,-47.0 33.3,-45.0 34.8,-44.1 36.1,-43.0 37.2,-40.1 38.6,-39.3 40.6,-35.5" fill="none" stroke="#D97706" stroke-width="2.251928180271671" stroke-linejoin="round" stroke-linecap="round" filter="url(#fuzzy_av_1779093955010_hhs60h9ly4h)" opacity="0.9591212355412442"/><polyline points="-9.5,-63.7 -6.0,-64.4 -4.1,-65.5 -2.5,-66.4 -0.8,-65.7 0.8,-64.5 2.4,-64.3 3.8,-64.3 5.2,-63.4 6.5,-63.7 7.7,-63.6 8.8,-62.0 9.9,-61.1 11.0,-61.4 12.1,-59.0 13.2,-57.6 14.3,-57.6 15.5,-55.2 16.6,-55.5 17.8,-52.1 18.8,-52.1 19.6,-49.3 20.3,-47.8 20.7,-45.7 21.1,-44.4 21.4,-42.1 21.8,-40.1 22.2,-39.1 22.4,-35.6 22.5,-35.3 22.3,-32.6 21.7,-30.8 20.9,-27.3 20.2,-25.4 19.6,-23.0 19.2,-20.5 18.7,-18.9 17.9,-17.2 16.6,-14.1" fill="none" stroke="#D97706" stroke-width="0.8325551811550004" stroke-linejoin="round" stroke-linecap="round" filter="url(#fuzzy_av_1779093955010_hhs60h9ly4h)" opacity="0.8710804630616152"/><polyline points="-10.4,-63.4 -9.0,-65.0 -7.1,-64.1 -5.1,-65.7 -3.0,-66.3 -0.9,-65.6 1.1,-65.9 3.2,-65.1 5.3,-65.0 7.3,-64.6 9.2,-63.2 11.2,-63.8 13.1,-63.0 15.1,-61.0 17.1,-61.3 19.2,-59.3 21.4,-58.7 23.6,-56.8 25.9,-55.4 28.2,-54.8 30.6,-53.1 33.0,-51.6 35.5,-51.2 38.1,-48.2 40.7,-47.4 43.2,-44.8 45.7,-43.7 48.7,-41.3" fill="none" stroke="#D97706" stroke-width="2.0859451019630573" stroke-linejoin="round" stroke-linecap="round" filter="url(#fuzzy_av_1779093955010_hhs60h9ly4h)" opacity="0.988532071736324"/><polyline points="-10.9,-63.7 -10.2,-64.6 -8.8,-65.1 -7.0,-65.1 -5.1,-65.3 -3.0,-66.0 -0.9,-66.2 1.2,-65.2 3.3,-65.3 5.4,-63.8 7.4,-64.6 9.3,-63.3 11.3,-62.3 13.2,-62.6 15.2,-62.2 17.2,-60.9 19.3,-60.0 21.4,-57.7 23.4,-58.2 25.4,-56.7 27.3,-53.9 29.1,-53.3 30.8,-52.7 32.6,-49.6 34.5,-49.3 36.4,-45.8 38.4,-43.9 40.5,-42.3 42.7,-40.7 44.9,-38.6 47.3,-37.4 49.8,-34.4 52.1,-33.3 54.3,-29.8 56.1,-28.4 57.8,-26.2 59.2,-23.6" fill="none" stroke="#D97706" stroke-width="0.9651605333365374" stroke-linejoin="round" stroke-linecap="round" filter="url(#fuzzy_av_1779093955010_hhs60h9ly4h)" opacity="0.863492619642138"/><polyline points="-12.1,-63.1 -10.4,-63.6 -8.8,-65.5 -7.4,-65.8 -5.9,-65.7 -4.2,-65.8 -2.4,-65.9 -0.4,-65.9 1.7,-65.8 3.7,-65.8 5.8,-64.5 7.7,-64.5 9.6,-62.8 11.4,-63.0 13.2,-61.1 14.9,-60.4 16.8,-61.3 18.6,-59.8 20.6,-57.3 22.7,-56.8 24.8,-55.3 27.0,-54.8 29.3,-52.5 31.5,-50.0 33.6,-49.2 35.6,-47.5 37.6,-46.2 39.3,-44.5 40.9,-41.5 42.5,-39.9 44.1,-38.5 45.8,-35.2 47.5,-33.6 49.3,-30.8 51.0,-28.6 52.4,-26.9" fill="none" stroke="#D97706" stroke-width="2.488664515281684" stroke-linejoin="round" stroke-linecap="round" filter="url(#fuzzy_av_1779093955010_hhs60h9ly4h)" opacity="0.9215353846705967"/><polyline points="-13.6,-62.3 -12.6,-63.9 -11.4,-64.9 -9.9,-64.8 -8.2,-65.9 -6.4,-64.6 -4.5,-64.8 -2.5,-64.7 -0.5,-65.8 1.6,-65.4 3.7,-64.3 5.8,-64.0 7.7,-64.5 9.7,-64.0 11.6,-62.4 13.6,-61.4 15.7,-61.4 17.8,-59.9 20.0,-60.1 22.3,-59.4 24.6,-57.0 27.1,-55.4 29.7,-53.5 32.5,-53.0 35.6,-50.6 38.9,-48.8 41.8,-46.9 43.0,-45.9" fill="none" stroke="#D97706" stroke-width="1.9923486675917335" stroke-linejoin="round" stroke-linecap="round" filter="url(#fuzzy_av_1779093955010_hhs60h9ly4h)" opacity="0.7509364755323904"/><polyline points="-15.2,-63.1 -14.5,-63.4 -12.7,-64.0 -10.9,-64.6 -9.3,-65.1 -7.8,-65.0 -6.3,-65.3 -4.5,-64.6 -2.6,-65.8 -0.5,-65.1 1.6,-65.1 3.7,-65.0 5.8,-65.3 7.8,-64.1 9.7,-63.2 11.6,-63.8 13.6,-62.4 15.5,-61.7 17.5,-60.9 19.5,-58.7 21.6,-58.7 23.7,-56.3 25.9,-55.7 28.2,-54.9 30.6,-51.8 33.0,-50.5 35.4,-49.9 37.6,-47.1 39.7,-45.1 41.8,-44.0 44.0,-41.5 46.4,-40.3 48.9,-37.7 51.5,-35.5 53.7,-32.8 55.9,-31.3" fill="none" stroke="#D97706" stroke-width="1.8317365724477936" stroke-linejoin="round" stroke-linecap="round" filter="url(#fuzzy_av_1779093955010_hhs60h9ly4h)" opacity="0.9272702258120311"/><polyline points="-16.9,-61.2 -15.4,-62.2 -13.7,-62.4 -12.1,-64.4 -10.5,-64.6 -8.8,-65.3 -7.1,-65.3 -5.2,-64.5 -3.2,-65.0 -1.2,-66.1 0.8,-65.9 2.7,-65.1 4.6,-65.1 6.5,-63.9 8.3,-63.7 10.2,-63.8 11.9,-62.5 13.7,-60.9 15.5,-60.9 17.3,-58.9 19.1,-58.9 20.8,-57.2 22.5,-55.3 24.1,-54.4 25.7,-53.6 27.3,-51.1 29.0,-49.9 30.7,-48.5 32.5,-47.0 34.4,-45.4 36.3,-42.8 38.0,-40.2 39.5,-38.9 40.8,-36.8 42.1,-36.5" fill="none" stroke="#D97706" stroke-width="1.16253550956372" stroke-linejoin="round" stroke-linecap="round" filter="url(#fuzzy_av_1779093955010_hhs60h9ly4h)" opacity="0.7511966671175878"/><polyline points="-21.7,-58.2 -20.9,-59.8 -19.9,-60.3 -18.6,-61.3 -17.0,-61.9 -15.3,-62.8 -13.5,-64.1 -11.8,-64.3 -10.0,-65.1 -8.1,-64.7 -6.0,-65.9 -3.9,-65.6 -1.7,-65.8 0.5,-64.5 2.7,-65.1 4.9,-63.9 7.0,-63.4 9.1,-63.0 11.3,-62.4 13.4,-63.5 15.6,-61.7 18.0,-60.1 20.4,-60.6 22.8,-59.9 25.3,-57.4 27.8,-56.7 30.3,-56.2 32.7,-54.6 34.9,-53.1 36.7,-51.9 38.7,-51.1" fill="none" stroke="#D97706" stroke-width="1.7105029439015926" stroke-linejoin="round" stroke-linecap="round" filter="url(#fuzzy_av_1779093955010_hhs60h9ly4h)" opacity="0.9611448513505447"/><polyline points="-24.8,-55.3 -23.5,-57.8 -21.7,-59.0 -19.8,-60.6 -18.2,-61.3 -16.8,-61.7 -15.4,-63.4 -14.0,-64.2 -12.6,-64.3 -11.0,-64.6 -9.3,-65.1 -7.5,-65.5 -5.5,-66.2 -3.5,-65.4 -1.3,-66.2 0.9,-65.9 3.3,-66.0 5.6,-65.0 8.0,-64.8 10.3,-64.4 12.4,-63.0 14.1,-62.4 15.4,-61.8" fill="none" stroke="#D97706" stroke-width="1.7173732360397833" stroke-linejoin="round" stroke-linecap="round" filter="url(#fuzzy_av_1779093955010_hhs60h9ly4h)" opacity="0.8309578843603567"/><polyline points="-24.8,-55.4 -22.8,-57.3 -20.9,-59.1 -19.1,-59.3 -17.4,-60.3 -15.8,-63.0 -14.3,-62.1 -12.8,-64.0 -11.3,-65.0 -9.7,-64.1 -8.1,-64.0 -6.4,-66.0 -4.6,-65.8 -2.6,-64.4 -0.6,-65.1 1.5,-64.5 3.7,-65.6 5.9,-65.4 8.1,-63.9 10.1,-64.4 12.2,-62.1 14.2,-61.5 16.1,-62.2 18.1,-61.2 20.1,-59.9 22.1,-58.7 24.2,-56.9 26.5,-56.0 29.0,-53.8 31.5,-52.9 34.2,-51.7 36.8,-50.1 39.3,-47.3 41.4,-46.3 43.7,-44.4" fill="none" stroke="#D97706" stroke-width="1.582756989290914" stroke-linejoin="round" stroke-linecap="round" filter="url(#fuzzy_av_1779093955010_hhs60h9ly4h)" opacity="0.9687180326761897"/><polyline points="-29.5,-50.6 -28.2,-50.4 -26.9,-53.4 -25.6,-55.0 -24.1,-56.0 -22.5,-57.0 -20.8,-59.2 -19.2,-59.7 -17.6,-60.5 -15.9,-61.2 -14.3,-61.6 -12.6,-63.7 -11.0,-63.2 -9.3,-64.0 -7.5,-64.9 -5.7,-64.1 -3.8,-65.6 -1.9,-66.1 0.1,-64.3 2.1,-65.7 4.0,-64.0 5.8,-64.4 7.6,-64.1 9.3,-63.6 11.0,-62.5 12.6,-61.5 14.3,-62.0 16.0,-60.1 17.7,-60.3 20.2,-58.5" fill="none" stroke="#D97706" stroke-width="2.2737004552172255" stroke-linejoin="round" stroke-linecap="round" filter="url(#fuzzy_av_1779093955010_hhs60h9ly4h)" opacity="0.9154821539095575"/><polyline points="-30.4,-49.1 -28.7,-51.1 -27.3,-51.5 -26.0,-53.5 -24.9,-56.0 -23.7,-57.5 -22.3,-58.4 -20.7,-58.8 -18.9,-61.3 -17.1,-61.1 -15.3,-63.3 -13.6,-63.3 -11.8,-63.9 -10.1,-65.1 -8.4,-64.7 -6.6,-64.4 -4.7,-66.0 -2.8,-64.7 -0.7,-65.6 1.4,-65.3 3.7,-65.3 5.9,-64.1 8.2,-64.9 10.4,-62.8 12.5,-63.7 14.6,-63.2 16.8,-62.5 18.9,-60.3 21.2,-60.6 23.5,-58.7 25.8,-57.0 28.2,-55.9 30.6,-54.8 33.1,-53.3 35.9,-50.8 39.6,-49.5" fill="none" stroke="#D97706" stroke-width="2.018661036746935" stroke-linejoin="round" stroke-linecap="round" filter="url(#fuzzy_av_1779093955010_hhs60h9ly4h)" opacity="0.7742420553159091"/><polyline points="-30.4,-48.6 -28.9,-51.3 -27.4,-51.5 -25.9,-53.2 -24.4,-55.5 -22.8,-56.6 -21.2,-57.5 -19.5,-60.2 -17.8,-61.1 -16.2,-61.3 -14.5,-61.7 -13.0,-63.1 -11.4,-63.9 -9.8,-65.3 -8.3,-65.8 -6.8,-66.0 -5.2,-65.0 -3.5,-65.0 -1.7,-65.2 0.3,-66.3 2.3,-65.7 4.2,-64.5 5.9,-65.2" fill="none" stroke="#D97706" stroke-width="1.6940950236565278" stroke-linejoin="round" stroke-linecap="round" filter="url(#fuzzy_av_1779093955010_hhs60h9ly4h)" opacity="0.9525434363958806"/><polyline points="-33.7,-43.1 -32.0,-45.4 -30.6,-48.2 -29.4,-50.6 -28.1,-51.8 -26.9,-52.7 -25.5,-54.5 -24.0,-56.2 -22.5,-56.8 -20.9,-57.4 -19.3,-58.5 -17.7,-60.6 -16.1,-62.2 -14.5,-62.5 -12.8,-63.0 -11.2,-63.0 -9.6,-64.7 -7.8,-64.8 -6.1,-65.7 -4.2,-66.1 -2.2,-65.1 -0.3,-65.1 1.6,-66.3 3.5,-65.5 5.4,-64.5 7.3,-64.0" fill="none" stroke="#D97706" stroke-width="2.087137910606658" stroke-linejoin="round" stroke-linecap="round" filter="url(#fuzzy_av_1779093955010_hhs60h9ly4h)" opacity="0.8216786570933863"/><polyline points="-34.4,-40.8 -33.7,-43.3 -32.9,-46.0 -32.1,-47.4 -31.1,-48.0 -30.0,-50.8 -28.6,-51.3 -27.1,-53.8 -25.5,-55.5 -23.8,-55.7 -22.1,-57.6 -20.4,-60.0 -18.6,-61.4 -16.8,-61.4 -15.1,-61.8 -13.5,-63.1 -11.8,-63.3 -10.2,-63.9 -8.7,-65.0 -7.1,-65.2 -5.5,-66.1 -3.7,-66.3 -1.8,-65.2 0.3,-64.8 2.4,-66.2 4.4,-64.5 6.4,-64.4" fill="none" stroke="#D97706" stroke-width="0.8178903139120314" stroke-linejoin="round" stroke-linecap="round" filter="url(#fuzzy_av_1779093955010_hhs60h9ly4h)" opacity="0.8339863435090437"/><polyline points="-37.2,-35.3 -35.6,-38.6 -34.5,-41.7 -33.3,-44.1 -32.0,-44.9 -30.8,-47.6 -29.5,-49.5 -28.2,-50.6 -26.9,-53.2 -25.6,-53.5 -24.1,-56.4 -22.6,-57.4 -21.1,-57.5 -19.5,-60.1 -17.8,-60.3 -16.2,-61.5 -14.5,-62.8 -12.9,-64.0 -11.2,-63.1 -9.5,-64.1 -7.7,-65.5 -5.9,-64.4 -4.0,-64.3 -2.1,-65.3 -0.1,-65.7 1.8,-65.0 3.7,-64.1 5.6,-64.3 7.3,-65.1 9.0,-63.7 10.4,-62.7 11.9,-62.0 13.8,-61.2" fill="none" stroke="#D97706" stroke-width="1.807330247251991" stroke-linejoin="round" stroke-linecap="round" filter="url(#fuzzy_av_1779093955010_hhs60h9ly4h)" opacity="0.8455498107084055"/><polyline points="-37.2,-36.5 -37.5,-38.2 -36.0,-40.8 -34.5,-43.2 -33.4,-46.0 -32.7,-48.3 -32.2,-48.9 -31.6,-50.9 -30.6,-52.6 -29.3,-53.5 -27.6,-56.1 -25.6,-56.4 -23.5,-58.5 -21.4,-60.0 -19.4,-60.4 -17.5,-62.4 -15.6,-61.9 -13.8,-63.3 -12.0,-63.9 -10.2,-63.3 -8.3,-63.6 -6.3,-64.9 -4.2,-65.3 -2.1,-65.3 0.2,-64.3 2.5,-64.9 4.9,-64.3 7.2,-64.5 9.6,-64.4 11.9,-63.9 14.1,-63.3 16.3,-62.5 18.6,-61.3 21.0,-61.4 22.2,-60.3" fill="none" stroke="#D97706" stroke-width="1.0258124008831553" stroke-linejoin="round" stroke-linecap="round" filter="url(#fuzzy_av_1779093955010_hhs60h9ly4h)" opacity="0.8239345824016513"/><polyline points="-36.7,-36.9 -36.5,-38.9 -36.2,-40.4 -35.5,-42.9 -34.4,-45.4 -33.0,-45.8 -31.6,-47.5 -30.2,-49.3 -28.9,-51.4 -27.6,-53.7 -26.1,-55.8 -24.6,-57.0 -22.9,-57.7 -21.2,-59.8 -19.4,-60.2 -17.6,-62.1 -15.9,-63.3 -14.1,-63.5 -12.4,-64.6 -10.7,-65.1 -9.0,-65.2 -7.3,-65.5 -5.5,-65.1 -3.6,-64.8 -1.6,-64.8 0.6,-65.2 2.8,-65.5 5.1,-64.7 7.4,-64.7 9.5,-63.8 11.4,-63.9 12.9,-62.2 14.2,-61.9" fill="none" stroke="#D97706" stroke-width="1.0653529954834502" stroke-linejoin="round" stroke-linecap="round" filter="url(#fuzzy_av_1779093955010_hhs60h9ly4h)" opacity="0.9895023956588078"/><polyline points="-38.0,-34.8 -36.9,-37.0 -35.9,-38.5 -35.1,-41.8 -34.5,-42.5 -33.9,-44.3 -33.2,-45.8 -32.3,-47.4 -31.1,-50.5 -29.8,-52.2 -28.3,-53.6 -26.8,-54.7 -25.3,-56.3 -23.8,-57.2 -22.3,-59.7 -20.7,-59.4 -19.0,-60.5 -17.2,-62.6 -15.4,-62.1 -13.5,-62.9 -11.7,-64.8 -9.9,-64.7 -8.0,-65.7 -6.2,-64.6 -4.2,-66.1 -2.0,-64.6 0.4,-66.3 2.9,-64.6 5.4,-64.4 8.0,-65.0 11.1,-64.0" fill="none" stroke="#D97706" stroke-width="1.4605144856690693" stroke-linejoin="round" stroke-linecap="round" filter="url(#fuzzy_av_1779093955010_hhs60h9ly4h)" opacity="0.8962905571435621"/><polyline points="-38.0,-34.1 -37.6,-36.3 -36.4,-39.5 -35.2,-41.8 -34.0,-43.8 -33.0,-43.8 -32.1,-47.4 -31.1,-48.5 -30.1,-50.0 -29.0,-52.7 -27.8,-52.9 -26.4,-54.5 -24.9,-55.7 -23.3,-56.9 -21.6,-59.8 -19.8,-60.2 -18.0,-62.0 -16.2,-62.2 -14.5,-62.2 -12.8,-62.8 -11.2,-64.6 -9.6,-65.1 -7.9,-66.0 -6.3,-65.8 -4.6,-66.2 -2.4,-65.7 1.0,-65.3" fill="none" stroke="#D97706" stroke-width="1.9021445224105131" stroke-linejoin="round" stroke-linecap="round" filter="url(#fuzzy_av_1779093955010_hhs60h9ly4h)" opacity="0.8860726175808473"/><polyline points="-38.0,-34.9 -37.3,-37.6 -36.6,-38.6 -35.7,-41.8 -34.7,-41.9 -33.6,-44.5 -32.4,-47.4 -31.2,-47.7 -29.9,-50.2 -28.4,-52.9 -26.9,-52.6 -25.3,-54.3 -23.6,-56.6 -21.9,-58.8 -20.2,-59.0 -18.4,-61.2 -16.7,-60.7 -15.0,-61.7 -13.3,-63.1 -11.7,-63.5 -10.1,-63.6 -8.4,-65.1 -6.8,-64.6 -5.0,-65.0 -3.2,-66.3 -1.4,-65.5 0.6,-64.9 2.6,-64.9 4.6,-64.5 6.6,-64.8 8.5,-64.6 10.2,-63.9 11.8,-62.7 13.4,-62.2 15.3,-60.9 17.0,-60.2" fill="none" stroke="#D97706" stroke-width="0.9598603314967218" stroke-linejoin="round" stroke-linecap="round" filter="url(#fuzzy_av_1779093955010_hhs60h9ly4h)" opacity="0.9372144290058216"/><polyline points="-38.6,-32.8 -37.8,-35.2 -36.7,-36.1 -35.7,-39.1 -34.6,-40.4 -33.6,-43.0 -32.5,-45.4 -31.3,-46.4 -30.1,-48.3 -28.8,-49.4 -27.4,-52.0 -25.9,-53.9 -24.4,-54.0 -22.8,-55.9 -21.2,-57.4 -19.5,-59.8 -17.9,-60.3 -16.2,-62.4 -14.5,-62.5 -12.9,-63.7 -11.3,-62.8 -9.7,-64.2 -8.2,-65.4 -6.7,-64.9 -5.1,-64.8 -3.5,-64.8 -1.7,-66.4 0.2,-65.9 2.1,-65.5 3.9,-64.8 5.6,-64.1" fill="none" stroke="#D97706" stroke-width="0.816564175965417" stroke-linejoin="round" stroke-linecap="round" filter="url(#fuzzy_av_1779093955010_hhs60h9ly4h)" opacity="0.7569913309659402"/><polyline points="-40.4,-26.7 -37.8,-29.1 -37.1,-32.3 -36.4,-34.4 -35.2,-36.5 -33.4,-38.0 -31.0,-41.4 -28.4,-42.8 -25.7,-45.3 -23.4,-46.0 -21.7,-47.0 -20.5,-49.6 -19.6,-51.8 -18.8,-52.8 -17.8,-53.8 -16.5,-55.9 -14.9,-58.0 -13.2,-59.7 -11.4,-60.8 -9.7,-61.9 -8.2,-63.2 -6.8,-64.0 -5.5,-64.1 -3.9,-65.0" fill="none" stroke="#D97706" stroke-width="1.444749890226874" stroke-linejoin="round" stroke-linecap="round" filter="url(#fuzzy_av_1779093955010_hhs60h9ly4h)" opacity="0.8595117258304257"/><polyline points="-40.4,-28.2 -41.1,-29.4 -40.5,-31.6 -39.9,-34.7 -39.3,-36.4 -38.6,-38.9 -37.8,-40.8 -36.7,-43.1 -35.5,-43.7 -34.4,-45.7 -33.6,-47.4 -33.0,-50.2 -32.7,-51.3 -32.3,-52.6 -31.8,-55.1 -30.9,-56.1 -29.5,-57.3 -27.7,-59.4 -25.7,-59.6 -23.6,-60.7 -21.5,-62.0 -19.4,-63.6 -17.3,-63.8 -15.2,-63.9 -12.6,-65.5" fill="none" stroke="#D97706" stroke-width="1.6794923622814064" stroke-linejoin="round" stroke-linecap="round" filter="url(#fuzzy_av_1779093955010_hhs60h9ly4h)" opacity="0.8582102165670391"/><polyline points="-40.4,-27.2 -39.7,-29.6 -38.8,-31.1 -37.9,-33.2 -36.9,-36.4 -36.0,-38.6 -34.9,-40.5 -33.9,-42.1 -32.8,-45.0 -31.6,-46.4 -30.3,-48.9 -29.0,-51.0 -27.6,-52.4 -26.1,-53.6 -24.6,-55.2 -23.0,-56.6 -21.4,-57.3 -19.8,-59.4 -18.1,-61.0 -16.4,-61.2 -14.7,-61.2 -13.1,-63.8 -11.4,-63.8 -9.8,-64.5 -8.2,-65.5 -6.6,-64.3 -5.0,-65.1 -3.3,-64.4 -1.5,-65.8 0.4,-65.0 2.4,-64.6 4.3,-63.9 6.2,-63.5 8.0,-64.1 9.5,-63.0 10.7,-62.2 11.6,-62.6" fill="none" stroke="#D97706" stroke-width="2.421813757913836" stroke-linejoin="round" stroke-linecap="round" filter="url(#fuzzy_av_1779093955010_hhs60h9ly4h)" opacity="0.7570591736285718"/><polyline points="-41.3,-24.5 -40.8,-27.1 -40.8,-30.0 -40.4,-31.5 -39.5,-33.5 -38.4,-35.9 -37.3,-38.8 -36.2,-41.3 -35.2,-42.0 -34.1,-46.0 -33.0,-46.6 -31.8,-49.2 -30.6,-49.7 -29.2,-52.9 -27.8,-54.5 -26.4,-55.6 -24.9,-56.8 -23.3,-57.0 -21.8,-58.3 -20.2,-59.8 -18.5,-61.4 -16.7,-61.6 -14.9,-62.7 -13.0,-62.6 -11.0,-64.2 -9.0,-64.5 -6.9,-65.6 -4.7,-64.6 -2.5,-66.0 -0.2,-65.9 2.1,-65.8 4.5,-64.8 6.8,-64.3 9.0,-64.5 11.1,-62.8 12.9,-62.4 14.4,-63.2" fill="none" stroke="#D97706" stroke-width="1.6598533586751718" stroke-linejoin="round" stroke-linecap="round" filter="url(#fuzzy_av_1779093955010_hhs60h9ly4h)" opacity="0.9684635085155077"/><polyline points="-41.3,-23.4 -40.4,-27.6 -40.3,-29.5 -40.4,-32.4 -40.3,-33.6 -39.5,-35.7 -38.3,-37.8 -36.8,-40.4 -35.2,-42.6 -33.8,-45.3 -32.5,-47.0 -31.3,-48.3 -30.2,-49.7 -29.0,-51.7 -27.7,-53.7 -26.4,-55.2 -24.9,-56.9 -23.4,-57.2 -21.8,-58.3 -20.2,-60.6 -18.5,-62.0 -16.7,-62.0 -14.8,-63.9 -12.9,-63.7 -10.9,-65.2 -8.9,-65.1 -6.8,-64.3 -4.6,-65.9 -2.4,-65.5 -0.1,-64.7 2.2,-65.7 4.5,-65.9 6.7,-64.0 9.0,-63.6 11.1,-63.7 13.0,-62.9 15.0,-61.5 17.3,-61.2" fill="none" stroke="#D97706" stroke-width="1.7572316508358004" stroke-linejoin="round" stroke-linecap="round" filter="url(#fuzzy_av_1779093955010_hhs60h9ly4h)" opacity="0.8938343906600381"/><polyline points="-42.5,-19.6 -42.7,-21.4 -42.3,-22.6 -41.4,-26.6 -40.4,-28.0 -39.4,-30.8 -38.6,-34.6 -37.7,-36.4 -36.9,-38.0 -36.0,-40.5 -35.0,-42.3 -33.9,-43.8 -32.7,-46.9 -31.4,-48.5 -30.0,-49.8 -28.6,-50.7 -27.1,-53.3 -25.5,-54.6 -23.9,-57.0 -22.3,-57.4 -20.7,-58.9 -19.0,-60.7 -17.3,-60.4 -15.6,-62.1 -14.0,-62.1 -12.3,-64.0 -10.6,-64.5 -9.0,-65.4 -7.4,-65.3 -5.7,-66.2 -3.9,-64.6 -1.9,-65.2 0.2,-65.8 2.4,-64.9 4.4,-64.1 6.4,-64.0" fill="none" stroke="#D97706" stroke-width="2.4653523132286295" stroke-linejoin="round" stroke-linecap="round" filter="url(#fuzzy_av_1779093955010_hhs60h9ly4h)" opacity="0.9201556260542703"/><polyline points="-43.0,-15.4 -42.6,-18.0 -42.1,-20.7 -41.6,-23.4 -41.1,-26.1 -40.4,-28.0 -39.7,-31.9 -38.8,-34.3 -37.9,-36.8 -36.9,-37.7 -35.9,-39.8 -34.9,-42.4 -33.8,-45.0 -32.7,-47.0 -31.5,-47.1 -30.3,-48.8 -29.0,-52.3 -27.7,-53.5 -26.3,-54.6 -24.8,-56.6 -23.3,-57.1 -21.7,-59.9 -20.1,-59.3 -18.4,-61.2 -16.6,-61.2 -14.9,-63.5 -13.1,-62.8 -11.4,-64.7 -9.7,-64.9 -8.0,-65.0 -6.2,-65.6 -4.4,-66.3 -2.3,-64.8 0.2,-66.7 2.5,-65.5" fill="none" stroke="#D97706" stroke-width="1.1879091914024167" stroke-linejoin="round" stroke-linecap="round" filter="url(#fuzzy_av_1779093955010_hhs60h9ly4h)" opacity="0.9284395456674732"/><polyline points="-43.5,-13.2 -44.2,-9.6 -44.4,-8.7 -44.7,-4.8 -45.0,-3.6 -45.3,-1.0 -45.6,2.4 -46.0,5.2 -46.3,6.7 -46.4,10.4 -46.3,11.8 -45.9,14.9 -45.2,16.4 -44.3,19.7 -43.3,22.1 -42.2,23.4 -41.2,26.1 -40.2,27.8 -39.1,29.7 -38.0,32.6 -36.9,34.2 -35.7,36.9 -34.5,38.5 -33.3,38.8 -32.0,40.3 -30.6,42.8 -29.1,43.3 -27.3,44.3 -25.5,46.5 -23.4,46.6 -21.1,48.3 -18.7,48.2 -16.3,50.3 -13.9,49.5 -11.7,50.5 -9.7,52.0 -7.5,50.7" fill="none" stroke="#D97706" stroke-width="2.118719767301722" stroke-linejoin="round" stroke-linecap="round" filter="url(#fuzzy_av_1779093955010_hhs60h9ly4h)" opacity="0.9637281496601577"/><polyline points="-43.6,-11.2 -43.8,-9.8 -43.9,-6.8 -44.0,-5.5 -44.1,-2.0 -44.3,-0.0 -44.5,2.4 -44.6,5.5 -44.7,9.5 -44.6,11.5 -44.4,13.9 -44.0,17.2 -43.5,19.0 -42.9,21.5 -42.2,23.7 -41.4,25.5 -40.6,27.8 -39.7,29.8 -38.7,31.9 -37.6,32.5 -36.4,35.9 -35.1,36.9 -33.7,39.2 -32.2,40.7 -30.7,42.5 -29.1,43.9 -27.4,44.6 -25.5,46.0 -22.8,46.5" fill="none" stroke="#D97706" stroke-width="1.7095170577235757" stroke-linejoin="round" stroke-linecap="round" filter="url(#fuzzy_av_1779093955010_hhs60h9ly4h)" opacity="0.8890501538937415"/><polyline points="-43.7,-10.1 -43.9,-8.1 -43.8,-4.8 -43.4,-2.0 -42.9,-0.3 -42.3,4.1 -41.5,5.8 -40.7,8.7 -39.8,11.1 -39.0,13.8 -38.3,16.3 -37.7,19.0 -37.1,21.8 -36.5,22.8 -35.7,24.7 -34.8,27.3 -33.7,29.5 -32.3,31.9 -30.8,34.0 -29.1,34.7 -27.4,36.7 -25.6,38.6 -23.8,40.6 -22.0,42.6 -20.2,42.7 -18.5,45.2 -16.7,45.8 -14.7,47.1 -12.7,49.1 -11.0,49.0" fill="none" stroke="#D97706" stroke-width="2.3193504654126342" stroke-linejoin="round" stroke-linecap="round" filter="url(#fuzzy_av_1779093955010_hhs60h9ly4h)" opacity="0.8472752318436468"/><polyline points="-43.7,-10.3 -44.6,-7.2 -45.1,-5.8 -45.1,-3.1 -44.9,1.0 -44.9,4.3 -44.9,5.7 -45.1,9.5 -45.5,12.0 -45.8,14.8 -45.9,16.8 -45.8,18.9 -45.3,21.2 -44.4,23.9 -43.4,26.2 -42.4,28.3 -41.4,30.5 -40.5,31.2 -39.7,34.1 -39.0,36.0 -38.4,37.7 -37.6,38.2 -36.7,39.7 -35.4,42.0 -33.7,43.2 -31.7,44.6 -29.4,45.1 -27.0,46.6 -24.7,47.7 -22.5,49.4 -20.3,49.3 -18.1,50.7 -15.5,51.3 -10.9,51.8" fill="none" stroke="#D97706" stroke-width="2.4136173247837647" stroke-linejoin="round" stroke-linecap="round" filter="url(#fuzzy_av_1779093955010_hhs60h9ly4h)" opacity="0.7773546209688871"/><polyline points="-44.0,-8.5 -44.2,-6.4 -44.7,-3.6 -45.4,-0.3 -46.2,2.3 -46.8,5.0 -47.1,7.9 -47.2,10.6 -46.9,12.4 -46.4,15.0 -45.8,16.7 -45.1,20.2 -44.5,22.0 -44.0,23.9 -43.6,25.4 -43.2,29.1 -42.7,31.5 -42.1,33.6 -41.2,35.4 -40.1,36.0 -38.7,38.9 -37.2,40.2 -35.7,40.8 -34.1,43.0 -32.5,43.8 -30.7,44.6 -28.9,45.6 -26.6,47.5" fill="none" stroke="#D97706" stroke-width="1.5542481532992887" stroke-linejoin="round" stroke-linecap="round" filter="url(#fuzzy_av_1779093955010_hhs60h9ly4h)" opacity="0.8146881974265686"/><polyline points="-44.0,-7.4 -45.9,-6.4 -46.3,-3.9 -46.4,-1.5 -46.4,1.2 -46.3,4.3 -46.4,6.6 -46.6,10.0 -46.9,12.2 -47.2,14.1 -47.3,17.9 -47.3,19.6 -47.3,21.4 -47.2,24.5 -47.1,26.8 -46.9,29.5 -46.5,29.7 -45.8,33.5 -44.9,33.7 -43.8,36.7 -42.4,37.3 -41.0,39.7 -39.4,41.4 -37.6,43.2 -35.7,43.6 -33.6,44.3 -31.4,46.8 -29.3,47.8 -27.2,47.7 -24.6,49.7 -20.7,49.2" fill="none" stroke="#D97706" stroke-width="1.9430973423679472" stroke-linejoin="round" stroke-linecap="round" filter="url(#fuzzy_av_1779093955010_hhs60h9ly4h)" opacity="0.84332084835608"/><polyline points="-44.0,-5.5 -44.1,-3.3 -44.3,0.0 -44.5,2.8 -44.5,5.6 -44.2,6.4 -43.8,9.6 -43.3,12.9 -42.8,14.9 -42.2,18.2 -41.6,20.8 -40.9,23.1 -40.0,24.9 -39.1,26.4 -38.1,29.6 -37.0,30.7 -35.8,32.4 -34.6,35.0 -33.2,36.3 -31.8,38.8 -30.4,40.1 -28.9,40.3 -27.3,43.6 -25.6,44.1 -23.9,44.9 -22.1,45.5 -20.2,46.9 -18.3,49.1 -16.2,49.5 -14.1,48.7 -12.0,49.9 -9.9,51.4 -7.8,50.3 -5.7,52.3 -3.5,51.9 -1.3,50.6 1.1,51.9 3.9,51.5 7.5,50.4" fill="none" stroke="#D97706" stroke-width="2.335221319726596" stroke-linejoin="round" stroke-linecap="round" filter="url(#fuzzy_av_1779093955010_hhs60h9ly4h)" opacity="0.802233227503153"/><polyline points="-44.1,-5.7 -44.6,-2.8 -44.4,0.2 -44.3,4.1 -44.2,6.4 -44.2,9.0 -44.2,12.5 -44.1,14.7 -43.8,16.5 -43.3,19.2 -42.6,22.2 -41.9,23.5 -41.0,26.1 -40.1,27.0 -39.1,30.0 -37.9,32.2 -36.7,34.4 -35.3,34.6 -34.0,37.5 -32.5,38.3 -31.1,41.0 -29.6,42.5 -28.0,42.7 -26.2,44.4 -24.3,45.7 -22.2,47.8 -20.1,48.7 -18.1,49.7 -16.3,49.5 -14.5,49.5 -12.3,50.0 -8.7,51.1" fill="none" stroke="#D97706" stroke-width="0.7334770921307245" stroke-linejoin="round" stroke-linecap="round" filter="url(#fuzzy_av_1779093955010_hhs60h9ly4h)" opacity="0.881406101401216"/><polyline points="-44.2,-0.8 -44.5,2.5 -44.4,4.7 -44.2,8.4 -44.0,9.7 -44.0,11.8 -44.0,15.2 -44.2,17.8 -44.4,20.3 -44.6,22.5 -44.7,25.3 -44.5,27.2 -44.1,28.6 -43.3,31.5 -42.3,33.0 -41.2,34.4 -40.0,37.4 -38.8,38.6 -37.6,39.7 -36.2,42.1 -34.6,43.1 -32.9,44.0 -31.1,44.9 -29.1,46.4 -27.1,46.9 -24.9,47.8 -22.4,49.5 -19.7,50.0 -16.6,50.3 -12.8,52.2" fill="none" stroke="#D97706" stroke-width="0.7840244383881133" stroke-linejoin="round" stroke-linecap="round" filter="url(#fuzzy_av_1779093955010_hhs60h9ly4h)" opacity="0.9783293870249744"/><polyline points="-44.1,1.0 -44.2,4.9 -44.5,7.1 -44.5,9.7 -44.2,11.3 -43.6,14.6 -43.2,16.8 -42.8,20.2 -42.4,21.1 -42.1,23.9 -41.6,26.2 -41.0,27.1 -40.2,29.4 -39.3,31.7 -38.3,33.3 -37.1,35.2 -35.8,36.6 -34.3,38.9 -32.6,39.9 -30.8,42.4 -28.9,42.6 -26.8,44.7 -24.8,46.1 -22.7,47.7 -20.6,47.7 -18.6,48.6 -16.6,50.4 -14.6,50.5 -12.5,49.6 -10.3,51.8 -8.1,50.4 -5.7,50.6 -3.3,51.4 -0.7,51.7 2.1,52.1 5.3,50.3 8.7,50.5 11.8,50.8" fill="none" stroke="#D97706" stroke-width="1.307453035020059" stroke-linejoin="round" stroke-linecap="round" filter="url(#fuzzy_av_1779093955010_hhs60h9ly4h)" opacity="0.8131465391308442"/><polyline points="-44.1,2.1 -44.5,4.8 -45.1,6.3 -45.3,9.6 -45.1,11.6 -44.7,15.0 -44.1,16.5 -43.4,20.4 -42.5,21.8 -41.7,23.6 -40.7,26.0 -39.8,27.6 -38.7,29.6 -37.5,31.1 -36.3,34.6 -35.0,36.4 -33.6,37.3 -32.2,39.3 -30.8,39.6 -29.2,41.3 -27.5,44.2 -25.7,45.1 -23.8,46.6 -21.8,47.1 -19.7,48.4 -17.7,49.7 -15.6,49.8 -13.5,49.3 -11.4,50.9 -9.4,51.6 -7.2,51.5 -5.1,50.7 -2.9,52.1 -0.5,52.2 2.0,50.5 4.9,50.5 8.0,51.7 10.7,49.8" fill="none" stroke="#D97706" stroke-width="0.9432460186900286" stroke-linejoin="round" stroke-linecap="round" filter="url(#fuzzy_av_1779093955010_hhs60h9ly4h)" opacity="0.9363792042635786"/><polyline points="-44.1,4.1 -45.3,6.7 -44.6,9.6 -43.9,13.0 -43.3,14.6 -42.9,18.5 -42.4,19.6 -41.9,23.0 -41.3,25.1 -40.5,27.2 -39.7,28.8 -38.7,30.8 -37.8,33.3 -36.8,33.9 -35.8,37.3 -34.6,38.3 -33.4,39.2 -32.0,40.4 -30.3,43.5 -28.5,44.8 -26.6,45.7 -24.6,45.4 -22.7,48.2 -20.8,49.0 -18.7,50.1 -15.9,49.4" fill="none" stroke="#D97706" stroke-width="2.2798632919253015" stroke-linejoin="round" stroke-linecap="round" filter="url(#fuzzy_av_1779093955010_hhs60h9ly4h)" opacity="0.8255417785420563"/><polyline points="-43.0,13.8 -45.0,15.2 -46.8,18.3 -47.0,21.5 -46.2,23.6 -45.1,25.5 -44.0,28.0 -43.0,29.0 -41.8,31.1 -40.5,33.1 -38.9,34.9 -37.2,37.0 -35.4,38.4 -33.7,40.0 -32.0,40.7 -30.3,43.8 -28.7,43.2 -27.0,44.8 -25.3,46.8 -23.4,46.8 -21.3,47.6 -19.2,49.1 -16.9,49.7 -14.6,50.1 -12.3,50.8 -9.9,52.0 -7.4,51.6 -4.8,51.2 -2.0,50.8 1.1,52.4" fill="none" stroke="#D97706" stroke-width="0.9699362454388057" stroke-linejoin="round" stroke-linecap="round" filter="url(#fuzzy_av_1779093955010_hhs60h9ly4h)" opacity="0.8680420901948214"/><polyline points="-43.0,13.0 -42.7,16.0 -42.2,19.1 -41.8,20.4 -41.6,23.8 -41.5,24.3 -41.7,26.5 -41.8,28.4 -41.8,31.9 -41.5,34.0 -40.8,34.4 -39.9,36.3 -38.7,38.4 -37.3,40.2 -35.5,41.2 -33.5,43.3 -31.3,44.6 -28.8,45.7 -26.2,45.5 -23.7,46.6 -21.2,48.8 -18.7,49.8 -16.3,50.5 -14.0,51.0 -11.7,51.4 -9.4,51.3 -7.0,52.0 -4.4,51.3 -1.6,52.1 1.6,51.4 5.3,50.7 10.3,51.3" fill="none" stroke="#D97706" stroke-width="2.388184398891303" stroke-linejoin="round" stroke-linecap="round" filter="url(#fuzzy_av_1779093955010_hhs60h9ly4h)" opacity="0.7866785521731747"/><polyline points="-42.8,14.8 -42.6,18.4 -42.5,20.7 -42.5,22.2 -42.3,24.8 -41.8,27.7 -40.8,29.0 -39.4,31.0 -38.0,33.4 -36.6,34.6 -35.4,37.6 -34.3,38.4 -33.3,40.4 -32.4,40.8 -31.5,42.2 -30.4,45.1 -29.1,45.6 -27.5,47.1 -25.6,47.3 -23.5,47.4 -21.0,48.1 -18.5,48.9 -15.8,50.9 -13.2,50.4 -10.7,51.5 -8.0,51.1 -4.2,51.9" fill="none" stroke="#D97706" stroke-width="1.7004705325098644" stroke-linejoin="round" stroke-linecap="round" filter="url(#fuzzy_av_1779093955010_hhs60h9ly4h)" opacity="0.8547599768510418"/><polyline points="-39.5,26.4 -38.8,28.4 -37.7,29.7 -36.5,31.7 -35.1,33.7 -33.8,35.1 -32.5,36.7 -31.2,38.1 -29.7,41.2 -28.2,41.0 -26.7,43.9 -25.0,45.2 -23.2,45.2 -21.4,46.8 -19.4,47.8 -17.4,48.6 -15.4,48.7 -13.3,50.2 -11.2,49.6 -9.1,51.3 -7.0,51.4 -4.8,51.7 -2.7,51.7 -0.4,50.3 1.8,51.7 4.1,51.6 6.3,49.7 8.6,50.0 10.8,49.2 13.1,48.7 15.4,47.9 17.7,47.6 19.9,45.6 21.9,44.3 23.8,45.1 25.7,43.1" fill="none" stroke="#D97706" stroke-width="2.077342510207897" stroke-linejoin="round" stroke-linecap="round" filter="url(#fuzzy_av_1779093955010_hhs60h9ly4h)" opacity="0.7619886062105423"/><polyline points="-38.4,28.1 -40.3,28.8 -40.7,29.7 -39.6,32.3 -38.1,33.9 -36.7,35.4 -35.1,37.5 -33.4,39.4 -31.6,41.0 -29.6,42.2 -27.6,43.6 -25.6,44.7 -23.6,46.6 -21.7,47.9 -19.8,47.3 -17.9,48.8 -16.1,50.5 -14.1,49.3 -12.1,49.9 -9.9,51.9 -7.7,50.5 -5.3,51.4 -2.7,51.9 0.0,50.6 3.0,51.1 6.1,51.4 9.2,50.3 12.2,50.7 15.1,50.3 18.6,49.1 24.0,47.7" fill="none" stroke="#D97706" stroke-width="1.4298767689399563" stroke-linejoin="round" stroke-linecap="round" filter="url(#fuzzy_av_1779093955010_hhs60h9ly4h)" opacity="0.9660470729173964"/><polyline points="-38.4,27.2 -39.3,29.5 -39.4,30.0 -38.5,31.7 -37.1,35.3 -35.7,36.6 -34.4,38.4 -33.2,39.4 -31.8,41.7 -30.3,42.2 -28.5,44.6 -26.5,45.6 -24.4,45.3 -22.4,46.3 -20.5,47.8 -18.6,48.8 -16.7,50.1 -14.7,50.5 -12.6,50.5 -10.3,50.5 -7.9,50.8 -5.4,50.5 -2.7,51.8 -0.0,51.4 2.9,50.7 5.9,50.8 9.0,50.7 12.1,51.1 15.3,49.8 18.9,49.1 23.7,47.0" fill="none" stroke="#D97706" stroke-width="1.9391863462303933" stroke-linejoin="round" stroke-linecap="round" filter="url(#fuzzy_av_1779093955010_hhs60h9ly4h)" opacity="0.9601269256442161"/><polyline points="-38.4,28.1 -36.3,28.3 -35.5,29.8 -34.4,33.4 -32.8,34.8 -30.7,35.8 -28.3,38.4 -25.8,40.2 -23.2,41.2 -20.6,43.1 -18.2,44.4 -16.0,44.2 -14.0,46.9 -12.2,47.3 -10.5,48.2 -8.9,49.8 -7.4,49.9 -6.0,49.4 -4.8,50.7 -3.7,50.4 -2.6,51.2 -1.7,51.4 -0.9,52.1 -0.2,51.2 0.3,50.8" fill="none" stroke="#D97706" stroke-width="2.34415335525488" stroke-linejoin="round" stroke-linecap="round" filter="url(#fuzzy_av_1779093955010_hhs60h9ly4h)" opacity="0.996297829186968"/><polyline points="-38.4,27.3 -38.1,28.7 -37.3,30.1 -36.1,32.5 -35.0,33.6 -33.8,36.6 -32.7,37.5 -31.3,40.1 -29.8,40.7 -28.2,42.6 -26.5,43.1 -24.7,44.1 -22.9,46.5 -21.1,47.6 -19.3,48.0 -17.4,49.9 -15.6,49.5 -13.6,50.8 -11.6,50.8 -9.4,50.9 -7.1,50.1 -4.7,51.5 -2.2,51.8 0.5,51.0 3.2,51.9 6.0,50.0 8.8,49.9 11.6,49.5 14.3,49.5 17.1,49.0 19.8,48.5 22.7,46.8 25.5,47.1 28.4,44.3 31.3,43.9 34.1,43.9" fill="none" stroke="#D97706" stroke-width="1.643126221427818" stroke-linejoin="round" stroke-linecap="round" filter="url(#fuzzy_av_1779093955010_hhs60h9ly4h)" opacity="0.9229351811077378"/><polyline points="-38.9,28.0 -37.8,28.3 -36.6,32.4 -35.6,32.8 -34.7,35.6 -33.8,38.4 -32.6,38.6 -31.3,40.2 -29.8,40.8 -28.3,43.3 -26.7,44.4 -24.9,45.8 -23.0,45.7 -20.9,48.2 -18.9,49.2 -16.7,48.5 -14.6,50.2 -12.5,50.8 -10.4,50.1 -8.3,50.4 -6.2,50.7 -4.0,51.4 -2.3,52.3" fill="none" stroke="#D97706" stroke-width="1.6478289986562442" stroke-linejoin="round" stroke-linecap="round" filter="url(#fuzzy_av_1779093955010_hhs60h9ly4h)" opacity="0.9500612779221235"/><polyline points="-37.5,29.5 -35.9,33.4 -34.8,34.5 -33.7,37.4 -32.4,37.8 -31.2,38.9 -29.9,40.3 -28.5,43.3 -27.0,44.5 -25.2,45.7 -23.2,46.6 -21.1,47.9 -18.9,48.2 -16.9,49.5 -14.8,50.5 -12.8,49.7 -10.9,51.0 -8.8,51.0 -6.8,51.1 -4.7,51.2 -2.5,50.6 -0.1,51.5 2.4,51.9 5.0,50.8 7.8,51.1 10.3,51.1 12.5,49.1 14.4,49.3" fill="none" stroke="#D97706" stroke-width="1.61621558101249" stroke-linejoin="round" stroke-linecap="round" filter="url(#fuzzy_av_1779093955010_hhs60h9ly4h)" opacity="0.7869316683383718"/><polyline points="-35.9,32.4 -34.8,35.4 -33.6,35.6 -32.3,38.2 -31.0,39.0 -29.6,39.7 -28.1,41.4 -26.5,43.2 -24.8,45.0 -23.1,45.0 -21.2,46.3 -19.3,47.1 -17.3,48.8 -15.3,48.5 -13.2,49.4 -11.1,49.5 -9.1,51.6 -7.0,50.4 -4.9,52.1 -2.8,51.8 -0.6,50.6 1.7,51.1 4.0,51.6 6.3,50.3 8.5,50.1 10.8,50.1 13.0,49.7 15.4,49.1 17.9,48.0 20.1,46.5" fill="none" stroke="#D97706" stroke-width="2.4979656526611898" stroke-linejoin="round" stroke-linecap="round" filter="url(#fuzzy_av_1779093955010_hhs60h9ly4h)" opacity="0.8778719357772269"/><polyline points="-35.1,34.8 -34.4,35.1 -33.2,35.7 -32.0,37.7 -30.6,39.4 -29.3,40.7 -27.8,43.3 -26.1,43.5 -24.3,45.2 -22.3,45.9 -20.2,47.4 -18.2,47.6 -16.1,49.4 -14.1,49.9 -12.2,50.3 -10.2,49.9 -8.2,51.5 -6.2,50.8 -4.1,51.0 -1.9,51.1 0.4,51.2 2.8,51.3 5.2,50.3 7.6,50.5 10.1,49.8 12.4,48.7 14.8,47.8 17.1,47.1 19.4,46.9 21.6,45.6 23.9,46.0 26.1,43.9 28.4,42.2 31.0,41.2" fill="none" stroke="#D97706" stroke-width="1.4898228387974704" stroke-linejoin="round" stroke-linecap="round" filter="url(#fuzzy_av_1779093955010_hhs60h9ly4h)" opacity="0.8946647552570394"/><polyline points="-34.0,36.1 -32.3,37.2 -30.9,38.7 -29.5,41.6 -28.1,41.1 -26.6,43.7 -25.0,44.8 -23.4,45.9 -21.6,46.2 -19.8,47.9 -17.9,48.8 -15.8,49.8 -13.8,49.8 -11.6,50.9 -9.5,51.6 -7.4,50.4 -5.3,51.0 -3.1,52.2 -0.8,52.1 1.6,51.8 4.0,51.8 6.5,50.4 8.5,50.0 9.8,50.1" fill="none" stroke="#D97706" stroke-width="0.8351539224568303" stroke-linejoin="round" stroke-linecap="round" filter="url(#fuzzy_av_1779093955010_hhs60h9ly4h)" opacity="0.832295769986808"/></g><circle r="0.9326572997640261" cx="-5.693202972827571" cy="6.7498978489350465" stroke="#111" fill="none" stroke-width="1.127161436258924" filter="url(#fuzzy_av_1779093955010_hhs60h9ly4h)"/><circle r="1.7708602619480938" cx="-5.3617274486533395" cy="6.561575507570554" stroke="#111" fill="none" stroke-width="0.9649582988112838" filter="url(#fuzzy_av_1779093955010_hhs60h9ly4h)"/><circle r="1.1599591687737885" cx="-6.328273033234676" cy="4.639330068941928" stroke="#111" fill="none" stroke-width="1.1057819555850836" filter="url(#fuzzy_av_1779093955010_hhs60h9ly4h)"/><circle r="2.1531157894213218" cx="-5.468909712405994" cy="6.545007936654508" stroke="#111" fill="none" stroke-width="0.9681635440397027" filter="url(#fuzzy_av_1779093955010_hhs60h9ly4h)"/><circle r="1.060446878717446" cx="-5.346213438495559" cy="6.599328004508203" stroke="#111" fill="none" stroke-width="0.9382662708749422" filter="url(#fuzzy_av_1779093955010_hhs60h9ly4h)"/><circle r="1.603016682365218" cx="-6.397237013736392" cy="7.429128518443014" stroke="#111" fill="none" stroke-width="1.0881774992125781" filter="url(#fuzzy_av_1779093955010_hhs60h9ly4h)"/><circle r="2.2930524747315983" cx="-6.481700521955734" cy="4.365466768201741" stroke="#111" fill="none" stroke-width="1.1765491624555442" filter="url(#fuzzy_av_1779093955010_hhs60h9ly4h)"/><circle r="2.0322958390703203" cx="-6.8771683798082925" cy="4.63093943521766" stroke="#111" fill="none" stroke-width="0.8835581559423822" filter="url(#fuzzy_av_1779093955010_hhs60h9ly4h)"/><circle r="1.8236503101106796" cx="-7.1614802772890656" cy="4.748202246407523" stroke="#111" fill="none" stroke-width="1.2889802745666679" filter="url(#fuzzy_av_1779093955010_hhs60h9ly4h)"/><circle r="1.279929234449189" cx="-4.081111373568618" cy="4.456710384785531" stroke="#111" fill="none" stroke-width="1.1540488161196822" filter="url(#fuzzy_av_1779093955010_hhs60h9ly4h)"/><circle r="2.07648675405124" cx="7.379834439204953" cy="0.293403433979029" stroke="#111" fill="none" stroke-width="0.9757594547881747" filter="url(#fuzzy_av_1779093955010_hhs60h9ly4h)"/><circle r="2.0341280698460564" cx="5.393829051033336" cy="-0.016331891200053184" stroke="#111" fill="none" stroke-width="1.2329765041735643" filter="url(#fuzzy_av_1779093955010_hhs60h9ly4h)"/><circle r="2.1044097343419224" cx="7.156829867407053" cy="-0.9156212717858059" stroke="#111" fill="none" stroke-width="1.1041669321243983" filter="url(#fuzzy_av_1779093955010_hhs60h9ly4h)"/><circle r="1.5488913087142655" cx="6.443537009139516" cy="-0.9103931753510278" stroke="#111" fill="none" stroke-width="1.1346113405989513" filter="url(#fuzzy_av_1779093955010_hhs60h9ly4h)"/><circle r="1.7993728217396798" cx="8.083134135321977" cy="0.4719489349833774" stroke="#111" fill="none" stroke-width="0.9623874451446768" filter="url(#fuzzy_av_1779093955010_hhs60h9ly4h)"/><circle r="1.3331295624693476" cx="8.107679063587234" cy="-0.32569540032820754" stroke="#111" fill="none" stroke-width="0.9626071903658344" filter="url(#fuzzy_av_1779093955010_hhs60h9ly4h)"/><circle r="1.379309295665379" cx="6.04832638390161" cy="0.1275601228927623" stroke="#111" fill="none" stroke-width="0.9382594674433641" filter="url(#fuzzy_av_1779093955010_hhs60h9ly4h)"/><circle r="2.365832164587328" cx="5.623504589751785" cy="0.25151702212888005" stroke="#111" fill="none" stroke-width="1.2019124665316845" filter="url(#fuzzy_av_1779093955010_hhs60h9ly4h)"/><circle r="1.7201715582255919" cx="8.414711257945074" cy="0.5576482028996887" stroke="#111" fill="none" stroke-width="1.11889128169219" filter="url(#fuzzy_av_1779093955010_hhs60h9ly4h)"/><circle r="1.4894602227827898" cx="6.505548339114128" cy="1.2065390022044553" stroke="#111" fill="none" stroke-width="1.0050477806508917" filter="url(#fuzzy_av_1779093955010_hhs60h9ly4h)"/><polyline points="-32.8,18.3 -32.3,19.3 -31.8,20.2 -31.2,21.1 -30.7,22.0 -30.1,22.8 -29.6,23.6 -29.0,24.4 -28.5,25.1 -27.9,25.8 -27.3,26.4 -26.8,27.1 -26.2,27.6 -25.6,28.2 -25.0,28.7 -24.4,29.2 -23.8,29.7 -23.2,30.1 -22.6,30.5 -22.0,30.8 -21.4,31.2 -20.8,31.5 -20.2,31.8 -19.6,32.0 -18.9,32.3 -18.3,32.5 -17.7,32.6 -17.1,32.8 -16.4,32.9 -15.8,33.0 -15.2,33.1 -14.5,33.2 -13.9,33.2 -13.2,33.3 -12.6,33.3 -11.9,33.2 -11.3,33.2 -10.6,33.2 -10.0,33.1 -9.3,33.0 -8.7,32.9 -8.0,32.8 -7.4,32.6 -6.7,32.5 -6.0,32.3 -5.4,32.1 -4.7,31.9 -4.1,31.7 -3.4,31.5 -2.7,31.3 -2.1,31.1 -1.4,30.8 -0.7,30.6 -0.1,30.3 0.6,30.0 1.3,29.8 1.9,29.5 2.6,29.2 3.3,28.9 3.9,28.6 4.6,28.3 5.3,28.0 5.9,27.7 6.6,27.3 7.2,27.0 7.9,26.7 8.6,26.4 9.2,26.1 9.9,25.8 10.5,25.4 11.2,25.1 11.8,24.8 12.5,24.5 13.1,24.2 13.8,23.9 14.4,23.6 15.1,23.3 15.7,23.0 16.4,22.8 17.0,22.5 17.6,22.2 18.3,22.0 18.9,21.7 19.5,21.5 20.2,21.3 20.8,21.1 21.4,20.9 22.0,20.7 22.6,20.5 23.2,20.3 23.9,20.2 24.5,20.1 25.1,19.9 25.7,19.8 26.2,19.8 26.8,19.7 27.4,19.6 28.0,19.6 28.6,19.6 29.2,19.6 29.7,19.6 29.2,19.6 28.6,19.6 28.0,19.6 27.4,19.6 26.8,19.7 26.2,19.8 25.7,19.8 25.1,19.9 24.5,20.1 23.9,20.2 23.2,20.3 22.6,20.5 22.0,20.7 21.4,20.9 20.8,21.1 20.2,21.3 19.5,21.5 18.9,21.7 18.3,22.0 17.6,22.2 17.0,22.5 16.4,22.8 15.7,23.0 15.1,23.3 14.4,23.6 13.8,23.9 13.1,24.2 12.5,24.5 11.8,24.8 11.2,25.1 10.5,25.4 9.9,25.8 9.2,26.1 8.6,26.4 7.9,26.7 7.2,27.0 6.6,27.3 5.9,27.7 5.3,28.0 4.6,28.3 3.9,28.6 3.3,28.9 2.6,29.2 1.9,29.5 1.3,29.8 0.6,30.0 -0.1,30.3 -0.7,30.6 -1.4,30.8 -2.1,31.1 -2.7,31.3 -3.4,31.5 -4.1,31.7 -4.7,31.9 -5.4,32.1 -6.0,32.3 -6.7,32.5 -7.4,32.6 -8.0,32.8 -8.7,32.9 -9.3,33.0 -10.0,33.1 -10.6,33.2 -11.3,33.2 -11.9,33.2 -12.6,33.3 -13.2,33.3 -13.9,33.2 -14.5,33.2 -15.2,33.1 -15.8,33.0 -16.4,32.9 -17.1,32.8 -17.7,32.6 -18.3,32.5 -18.9,32.3 -19.6,32.0 -20.2,31.8 -20.8,31.5 -21.4,31.2 -22.0,30.8 -22.6,30.5 -23.2,30.1 -23.8,29.7 -24.4,29.2 -25.0,28.7 -25.6,28.2 -26.2,27.6 -26.8,27.1 -27.3,26.4 -27.9,25.8 -28.5,25.1 -29.0,24.4 -29.6,23.6 -30.1,22.8 -30.7,22.0 -31.2,21.1 -31.8,20.2 -32.3,19.3" fill="rgb(215,127,140)" stroke="#111" stroke-width="2.590443318045045" stroke-linejoin="round" filter="url(#fuzzy_av_1779093955010_hhs60h9ly4h)"/></g><g class="accessory-svg accessory-star" transform="translate(73.6 16.0) rotate(-7.8) scale(1.326)">
      <path d="M0-12l3.5 7.5L12-3 5.8 2.7 7.5 11 0 6.7-7.5 11l1.7-8.3L-12-3l8.5-1.5z" fill="#fbbf24" stroke="#111827" stroke-width="1.1" stroke-linejoin="round"/>
    </g><g class="accessory-svg accessory-flame" transform="translate(22.0 73.1) rotate(-3.5) scale(0.997)">
      <path d="M1 11C-7 8-9 1-4-5c1 4 3 4 4-2 3 3 8 8 5 14 3-1 5-4 5-7 4 7 0 13-9 11z" fill="#ef4444" stroke="#111827" stroke-width="1.1" stroke-linejoin="round"/><path d="M1 8c-3-2-3-5 0-8 1 3 4 4 2 8 2-1 3-3 3-5 2 4 0 7-5 5z" fill="#fbbf24" opacity=".95"/>
    </g><g class="accessory-svg accessory-trophy" transform="translate(-71.1 13.3) rotate(-0.2) scale(1.343)">
      <path d="M-7-8h14v6c0 6-3 9-7 9s-7-3-7-9z" fill="#fbbf24" stroke="#111827" stroke-width="1.1"/><path d="M-7-5h-5c0 5 2 7 6 7M7-5h5c0 5-2 7-6 7M0 7v4M-5 12h10" fill="none" stroke="#111827" stroke-width="1.2"/>
    </g><g class="accessory-svg accessory-sword" transform="translate(-4.2 -73.4) rotate(5.1) scale(0.984)">
      <path d="M-2 5L8-12l4-2-2 4L-5 8z" fill="#f8fafc" stroke="#111827" stroke-width="1.1"/><path d="M-8 10l6-6M-7 2l7 7" stroke="#fbbf24" stroke-width="2" stroke-linecap="round"/>
    </g></svg>