<svg xmlns="http://www.w3.org/2000/svg" viewBox="-100 -100 200 200" width="400" height="400" role="img" aria-label="互联网嘴替 avatar"><defs>
      <filter id="fuzzy_av_1779093955017_xjx28zk7uh8" x="-8%" y="-8%" width="116%" height="116%">
        <feTurbulence baseFrequency="0.045" numOctaves="3" type="fractalNoise" result="noise"/>
        <feDisplacementMap in="SourceGraphic" in2="noise" scale="1.6"/>
      </filter>
      <clipPath id="leftEye_av_1779093955017_xjx28zk7uh8"><polyline points="-21.7,1.0 -21.6,0.6 -21.4,0.2 -21.2,-0.2 -21.0,-0.5 -20.7,-0.9 -20.5,-1.3 -20.1,-1.7 -19.8,-2.1 -19.4,-2.5 -19.0,-2.8 -18.6,-3.2 -18.1,-3.6 -17.6,-3.9 -17.1,-4.3 -16.6,-4.6 -16.0,-5.0 -15.4,-5.4 -14.8,-5.8 -14.2,-6.2 -13.5,-6.6 -12.8,-6.9 -12.1,-7.3 -11.3,-7.6 -10.5,-7.9 -9.7,-8.3 -8.9,-8.5 -8.1,-8.8 -7.2,-9.1 -6.4,-9.3 -5.5,-9.6 -4.7,-9.8 -3.8,-10.0 -2.9,-10.1 -2.1,-10.3 -1.2,-10.4 -0.3,-10.5 0.5,-10.6 1.3,-10.7 2.2,-10.7 3.0,-10.7 3.8,-10.7 4.6,-10.7 5.3,-10.7 6.1,-10.7 6.8,-10.6 7.5,-10.5 8.2,-10.4 8.9,-10.3 9.5,-10.1 10.1,-10.0 10.7,-9.8 11.3,-9.6 11.8,-9.4 12.3,-9.2 12.8,-9.0 13.3,-8.8 13.8,-8.5 14.2,-8.3 14.6,-8.0 15.0,-7.8 15.3,-7.5 15.7,-7.2 16.0,-7.0 16.3,-6.7 16.6,-6.4 16.9,-6.2 17.1,-5.9 17.4,-5.6 17.6,-5.3 17.8,-5.0 18.0,-4.7 18.2,-4.5 18.3,-4.2 18.5,-3.9 18.6,-3.6 18.8,-3.3 18.9,-3.1 19.0,-2.8 19.1,-2.5 14.3,4.0 14.0,4.2 13.7,4.3 13.3,4.5 12.9,4.7 12.6,4.9 12.2,5.1 11.8,5.2 11.4,5.4 11.1,5.6 10.7,5.8 10.3,6.0 9.9,6.1 9.4,6.3 9.0,6.5 8.6,6.7 8.2,6.9 7.7,7.1 7.3,7.3 6.9,7.5 6.4,7.6 5.9,7.8 5.5,8.0 5.0,8.2 4.5,8.4 4.1,8.6 3.6,8.8 3.1,9.0 2.6,9.1 2.1,9.3 1.6,9.5 1.1,9.6 0.6,9.8 0.1,10.0 -0.4,10.1 -0.9,10.3 -1.4,10.4 -1.9,10.5 -2.5,10.6 -3.0,10.7 -3.5,10.8 -4.0,10.9 -4.6,11.0 -5.1,11.1 -5.6,11.1 -6.2,11.1 -6.7,11.2 -7.2,11.2 -7.8,11.2 -8.3,11.1 -8.9,11.1 -9.4,11.0 -10.0,11.0 -10.5,10.9 -11.1,10.8 -11.6,10.6 -12.2,10.5 -12.8,10.3 -13.3,10.1 -13.9,9.9 -14.4,9.7 -15.0,9.5 -15.6,9.2 -16.1,9.0 -16.7,8.7 -17.1,8.5 -17.5,8.3 -18.0,8.1 -18.4,7.8 -18.8,7.6 -19.2,7.3 -19.6,7.1 -20.0,6.8 -20.3,6.5 -20.7,6.3 -21.0,6.0 -21.4,5.7 -21.7,5.4 -21.9,5.1 -22.2,4.8"/></clipPath>
      <clipPath id="rightEye_av_1779093955017_xjx28zk7uh8"><polyline points="-20.6,2.6 -20.7,2.1 -20.8,1.6 -20.8,1.2 -20.8,0.7 -20.7,0.2 -20.6,-0.2 -20.4,-0.7 -20.2,-1.2 -19.9,-1.6 -19.6,-2.1 -19.3,-2.5 -18.9,-2.9 -18.6,-3.4 -18.1,-3.8 -17.7,-4.2 -17.2,-4.7 -16.6,-5.2 -16.1,-5.6 -15.5,-6.1 -14.8,-6.5 -14.2,-7.0 -13.5,-7.4 -12.8,-7.8 -12.0,-8.3 -11.3,-8.7 -10.5,-9.1 -9.7,-9.4 -8.9,-9.8 -8.1,-10.1 -7.3,-10.5 -6.5,-10.8 -5.7,-11.1 -4.9,-11.3 -4.0,-11.6 -3.2,-11.8 -2.4,-12.0 -1.6,-12.2 -0.9,-12.3 -0.1,-12.5 0.7,-12.6 1.4,-12.7 2.2,-12.7 2.9,-12.7 3.6,-12.7 4.2,-12.7 4.9,-12.7 5.5,-12.6 6.1,-12.5 6.7,-12.4 7.3,-12.3 7.8,-12.1 8.4,-12.0 8.9,-11.8 9.3,-11.6 9.8,-11.3 10.2,-11.1 10.6,-10.8 11.0,-10.6 11.4,-10.3 11.7,-10.0 12.1,-9.7 12.4,-9.4 12.7,-9.1 13.0,-8.8 13.2,-8.4 13.5,-8.1 13.7,-7.8 14.0,-7.5 14.2,-7.1 14.4,-6.8 14.6,-6.4 14.7,-6.1 14.9,-5.7 15.0,-5.4 15.2,-5.0 15.3,-4.7 15.4,-4.3 15.5,-4.0 15.6,-3.6 12.3,5.6 12.0,5.8 11.8,6.0 11.5,6.2 11.3,6.4 11.0,6.6 10.7,6.8 10.5,7.0 10.2,7.2 9.9,7.4 9.6,7.6 9.3,7.8 9.1,7.9 8.8,8.1 8.5,8.3 8.2,8.5 7.9,8.7 7.5,8.9 7.2,9.1 6.9,9.3 6.6,9.5 6.2,9.7 5.9,9.9 5.6,10.1 5.2,10.3 4.9,10.5 4.5,10.7 4.1,10.9 3.8,11.1 3.4,11.3 3.0,11.4 2.6,11.6 2.3,11.7 1.9,11.9 1.5,12.0 1.0,12.2 0.6,12.3 0.2,12.4 -0.2,12.5 -0.7,12.6 -1.1,12.6 -1.6,12.7 -2.1,12.8 -2.6,12.8 -3.0,12.8 -3.6,12.8 -4.1,12.8 -4.6,12.8 -5.1,12.7 -5.7,12.7 -6.3,12.6 -6.8,12.5 -7.4,12.4 -8.0,12.3 -8.7,12.1 -9.3,12.0 -9.9,11.8 -10.6,11.6 -11.3,11.4 -12.0,11.2 -12.6,10.9 -13.3,10.6 -14.0,10.4 -14.8,10.1 -15.5,9.8 -16.0,9.5 -16.6,9.3 -17.1,9.0 -17.6,8.8 -18.1,8.5 -18.6,8.3 -19.1,8.0 -19.6,7.7 -20.1,7.4 -20.6,7.1 -21.0,6.8 -21.4,6.5 -21.8,6.2 -22.2,5.9 -22.6,5.5"/></clipPath>
      <linearGradient id="rainbow_av_1779093955017_xjx28zk7uh8" x1="0%" y1="0%" x2="100%" y2="0%">
        <stop offset="0%" stop-color="#8B5CF6"/><stop offset="23%" stop-color="#22D3EE"/><stop offset="100%" stop-color="#7C3AED"/>
      </linearGradient>
      <linearGradient id="splitHair_av_1779093955017_xjx28zk7uh8" x1="0%" y1="0%" x2="100%" y2="0%">
        <stop offset="49%" stop-color="#111827"/><stop offset="51%" stop-color="#F9FAFB"/>
      </linearGradient>
      <radialGradient id="halo_av_1779093955017_xjx28zk7uh8"><stop offset="0%" stop-color="#8B5CF6" stop-opacity=".45"/><stop offset="100%" stop-color="#8B5CF6" stop-opacity="0"/></radialGradient>
    </defs><rect x="-100" y="-100" width="200" height="200" fill="#D1D5DB"/><g opacity="1"><polyline id="faceContour" class="face-shape" points="55.6,-4.6 55.6,-4.7 55.7,-4.3 55.0,-1.5 55.3,-1.8 54.8,-1.4 54.6,1.5 54.0,3.1 53.6,3.6 52.7,6.4 53.4,5.2 52.1,8.7 51.6,10.4 51.0,11.9 50.6,12.0 51.2,11.0 50.3,13.5 50.2,12.9 49.2,15.4 47.8,18.2 47.3,19.5 47.7,18.5 46.8,20.2 45.1,23.0 45.0,23.1 45.0,22.9 43.7,24.7 42.7,26.4 42.8,26.3 40.9,28.9 40.3,29.4 39.5,30.4 38.9,31.0 37.8,32.3 36.2,33.9 35.4,34.9 35.9,34.3 35.9,34.6 34.7,35.6 33.1,37.1 33.6,36.8 29.9,39.8 30.3,39.7 27.6,41.5 27.2,41.8 25.5,42.9 25.8,42.9 24.0,43.8 24.0,43.8 23.3,44.4 21.4,45.4 21.1,45.6 18.9,46.7 18.6,46.8 17.5,47.2 16.5,47.8 14.9,48.3 15.4,48.3 13.9,48.8 12.5,49.2 11.2,49.6 11.5,49.5 7.2,50.5 6.5,50.6 6.6,50.7 3.9,51.1 3.7,51.0 4.0,51.2 3.0,51.2 0.5,51.4 -0.9,51.3 -0.1,51.3 -3.0,51.5 -3.8,51.3 -6.0,51.1 -4.6,51.4 -5.7,51.3 -6.6,51.1 -7.0,51.1 -10.0,50.5 -13.1,49.9 -12.0,50.1 -12.4,50.1 -13.8,49.7 -17.4,48.4 -16.0,49.0 -17.7,48.5 -18.2,48.1 -19.3,47.6 -20.1,47.3 -22.2,46.3 -23.7,45.4 -24.2,45.1 -25.4,44.4 -26.3,43.8 -28.5,42.5 -27.5,43.2 -30.1,41.3 -31.5,40.2 -29.8,41.5 -31.0,40.5 -33.7,38.3 -33.5,38.5 -35.3,36.9 -34.7,37.4 -35.2,36.8 -36.6,35.2 -39.4,32.4 -39.0,32.7 -40.7,30.6 -41.5,29.9 -41.1,30.2 -41.0,30.1 -42.8,27.8 -43.9,26.2 -44.9,24.5 -45.3,24.2 -46.9,21.4 -46.6,21.8 -47.5,20.3 -48.3,19.1 -49.3,16.7 -48.4,18.9 -48.8,17.7 -49.7,15.8 -50.0,14.6 -50.7,12.9 -51.7,10.7 -51.8,10.4 -52.7,8.3 -53.0,7.2 -53.2,5.9 -54.0,3.8 -54.4,1.3 -54.0,2.6 -54.6,0.4 -54.4,1.0 -55.3,-3.2 -55.6,-5.6 -55.5,-5.3 -55.9,-6.4 -56.2,-8.4 -56.1,-9.9 -56.0,-9.0 -56.3,-12.9 -56.2,-10.8 -56.3,-14.4 -56.1,-16.1 -55.9,-18.6 -56.0,-18.2 -55.8,-19.1 -55.7,-21.3 -55.5,-20.9 -55.4,-22.7 -55.4,-23.7 -54.7,-26.4 -54.9,-26.2 -54.5,-28.2 -54.2,-28.9 -53.3,-31.0 -53.6,-30.7 -53.2,-32.2 -52.5,-34.2 -52.0,-35.2 -51.9,-35.6 -51.0,-36.9 -50.8,-37.9 -48.6,-41.1 -49.7,-39.3 -48.8,-40.9 -47.3,-43.1 -46.8,-43.7 -45.0,-46.2 -44.0,-47.0 -44.0,-46.9 -43.8,-47.6 -42.0,-49.3 -41.4,-49.8 -41.8,-49.4 -40.6,-50.6 -38.7,-52.1 -36.6,-53.8 -37.2,-53.2 -36.7,-53.7 -35.8,-54.1 -35.0,-54.7 -34.2,-55.3 -30.7,-57.2 -29.5,-57.6 -28.0,-58.5 -27.5,-58.4 -25.8,-59.2 -24.0,-59.9 -23.6,-60.1 -21.3,-60.8 -21.6,-60.7 -19.1,-61.4 -18.5,-61.6 -15.5,-62.1 -17.4,-61.8 -14.6,-62.4 -12.3,-62.8 -11.1,-62.9 -12.0,-62.8 -8.0,-63.3 -6.0,-63.3 -5.7,-63.3 -3.6,-63.5 -3.8,-63.5 -0.8,-63.5 1.0,-63.4 0.6,-63.3 3.1,-63.3 4.2,-63.3 5.6,-63.0 8.5,-62.8 8.0,-62.6 8.5,-62.7 10.5,-62.4 13.6,-61.7 14.2,-61.8 16.9,-61.1 16.9,-61.0 19.2,-60.3 17.8,-60.7 22.5,-59.3 22.0,-59.4 25.0,-58.4 25.8,-58.0 25.3,-58.1 27.5,-57.2 30.7,-55.5 31.4,-55.3 29.4,-56.2 31.7,-55.0 33.2,-54.2 34.8,-53.1 35.2,-53.0 36.6,-52.0 38.5,-50.5 40.4,-49.0 40.2,-49.1 41.8,-47.8 42.4,-47.3 42.7,-47.1 43.8,-45.6 44.8,-44.3 45.7,-43.6 46.0,-43.3 47.4,-41.4 47.3,-41.6 49.3,-38.4 48.9,-39.4 50.0,-37.3 50.8,-35.9 51.0,-35.7 51.7,-34.4 51.8,-34.1 52.1,-33.4 53.0,-31.4 53.7,-29.5 54.3,-27.4 53.8,-28.2 54.4,-26.6 54.7,-25.3 55.2,-24.4 55.0,-24.6 55.5,-22.0 55.5,-20.9 56.0,-18.7 56.1,-19.2 56.0,-18.3 56.1,-14.6 56.1,-14.8 56.3,-13.1 56.2,-12.0 55.9,-9.9 56.0,-10.1 55.8,-8.7 56.1,-7.8 55.6,-4.6 55.6,-4.7" fill="#ffc9a9" stroke="#111" stroke-width="2.2" stroke-linejoin="round" filter="url(#fuzzy_av_1779093955017_xjx28zk7uh8)"/><g id="leftEye" transform="translate(-34.8 -26.5)"><polyline points="-21.7,1.0 -21.6,0.6 -21.4,0.2 -21.2,-0.2 -21.0,-0.5 -20.7,-0.9 -20.5,-1.3 -20.1,-1.7 -19.8,-2.1 -19.4,-2.5 -19.0,-2.8 -18.6,-3.2 -18.1,-3.6 -17.6,-3.9 -17.1,-4.3 -16.6,-4.6 -16.0,-5.0 -15.4,-5.4 -14.8,-5.8 -14.2,-6.2 -13.5,-6.6 -12.8,-6.9 -12.1,-7.3 -11.3,-7.6 -10.5,-7.9 -9.7,-8.3 -8.9,-8.5 -8.1,-8.8 -7.2,-9.1 -6.4,-9.3 -5.5,-9.6 -4.7,-9.8 -3.8,-10.0 -2.9,-10.1 -2.1,-10.3 -1.2,-10.4 -0.3,-10.5 0.5,-10.6 1.3,-10.7 2.2,-10.7 3.0,-10.7 3.8,-10.7 4.6,-10.7 5.3,-10.7 6.1,-10.7 6.8,-10.6 7.5,-10.5 8.2,-10.4 8.9,-10.3 9.5,-10.1 10.1,-10.0 10.7,-9.8 11.3,-9.6 11.8,-9.4 12.3,-9.2 12.8,-9.0 13.3,-8.8 13.8,-8.5 14.2,-8.3 14.6,-8.0 15.0,-7.8 15.3,-7.5 15.7,-7.2 16.0,-7.0 16.3,-6.7 16.6,-6.4 16.9,-6.2 17.1,-5.9 17.4,-5.6 17.6,-5.3 17.8,-5.0 18.0,-4.7 18.2,-4.5 18.3,-4.2 18.5,-3.9 18.6,-3.6 18.8,-3.3 18.9,-3.1 19.0,-2.8 19.1,-2.5 14.3,4.0 14.0,4.2 13.7,4.3 13.3,4.5 12.9,4.7 12.6,4.9 12.2,5.1 11.8,5.2 11.4,5.4 11.1,5.6 10.7,5.8 10.3,6.0 9.9,6.1 9.4,6.3 9.0,6.5 8.6,6.7 8.2,6.9 7.7,7.1 7.3,7.3 6.9,7.5 6.4,7.6 5.9,7.8 5.5,8.0 5.0,8.2 4.5,8.4 4.1,8.6 3.6,8.8 3.1,9.0 2.6,9.1 2.1,9.3 1.6,9.5 1.1,9.6 0.6,9.8 0.1,10.0 -0.4,10.1 -0.9,10.3 -1.4,10.4 -1.9,10.5 -2.5,10.6 -3.0,10.7 -3.5,10.8 -4.0,10.9 -4.6,11.0 -5.1,11.1 -5.6,11.1 -6.2,11.1 -6.7,11.2 -7.2,11.2 -7.8,11.2 -8.3,11.1 -8.9,11.1 -9.4,11.0 -10.0,11.0 -10.5,10.9 -11.1,10.8 -11.6,10.6 -12.2,10.5 -12.8,10.3 -13.3,10.1 -13.9,9.9 -14.4,9.7 -15.0,9.5 -15.6,9.2 -16.1,9.0 -16.7,8.7 -17.1,8.5 -17.5,8.3 -18.0,8.1 -18.4,7.8 -18.8,7.6 -19.2,7.3 -19.6,7.1 -20.0,6.8 -20.3,6.5 -20.7,6.3 -21.0,6.0 -21.4,5.7 -21.7,5.4 -21.9,5.1 -22.2,4.8" fill="#fff" stroke="#fff" stroke-width="0" stroke-linejoin="round" filter="url(#fuzzy_av_1779093955017_xjx28zk7uh8)"/><polyline points="20.8,5.0 21.0,4.6 21.3,4.2 21.5,3.8 21.6,3.4 21.7,3.0 21.8,2.6 21.8,2.2 21.8,1.8 21.8,1.4 -21.7,1.0 -21.6,0.6 -21.4,0.2 -21.2,-0.2 -21.0,-0.5 -20.7,-0.9 -20.5,-1.3 -20.1,-1.7 -19.8,-2.1 -19.4,-2.5 -19.0,-2.8 -18.6,-3.2 -18.1,-3.6 -17.6,-3.9 -17.1,-4.3 -16.6,-4.6 -16.0,-5.0 -15.4,-5.4 -14.8,-5.8 -14.2,-6.2 -13.5,-6.6 -12.8,-6.9 -12.1,-7.3 -11.3,-7.6 -10.5,-7.9 -9.7,-8.3 -8.9,-8.5 -8.1,-8.8 -7.2,-9.1 -6.4,-9.3 -5.5,-9.6 -4.7,-9.8 -3.8,-10.0 -2.9,-10.1 -2.1,-10.3 -1.2,-10.4 -0.3,-10.5 0.5,-10.6 1.3,-10.7 2.2,-10.7 3.0,-10.7 3.8,-10.7 4.6,-10.7 5.3,-10.7 6.1,-10.7 6.8,-10.6 7.5,-10.5 8.2,-10.4 8.9,-10.3 9.5,-10.1 10.1,-10.0 10.7,-9.8 11.3,-9.6 11.8,-9.4 12.3,-9.2 12.8,-9.0 13.3,-8.8 13.8,-8.5 14.2,-8.3 14.6,-8.0 15.0,-7.8 15.3,-7.5 15.7,-7.2 16.0,-7.0 16.3,-6.7 16.6,-6.4 16.9,-6.2 17.1,-5.9 17.4,-5.6 17.6,-5.3 17.8,-5.0 18.0,-4.7 18.2,-4.5 18.3,-4.2 18.5,-3.9 18.6,-3.6 18.8,-3.3 18.9,-3.1 19.0,-2.8 19.1,-2.5 -19.2,-2.2 -19.3,-2.0 -19.3,-1.7 -19.4,-1.4 -19.5,-1.2 -19.5,-0.9 -19.6,-0.7 -19.6,-0.4 -19.6,-0.2 -19.6,0.0" fill="none" stroke="#111" stroke-width="2.8678217582581005" stroke-linejoin="round" stroke-linecap="round" filter="url(#fuzzy_av_1779093955017_xjx28zk7uh8)"/><polyline points="23.4,1.5 23.4,1.8 23.4,2.2 23.4,2.5 23.3,2.8 23.2,3.1 23.0,3.5 22.9,3.8 22.7,4.1 22.5,4.4 -22.2,4.8 -21.9,5.1 -21.7,5.4 -21.4,5.7 -21.0,6.0 -20.7,6.3 -20.3,6.5 -20.0,6.8 -19.6,7.1 -19.2,7.3 -18.8,7.6 -18.4,7.8 -18.0,8.1 -17.5,8.3 -17.1,8.5 -16.7,8.7 -16.1,9.0 -15.6,9.2 -15.0,9.5 -14.4,9.7 -13.9,9.9 -13.3,10.1 -12.8,10.3 -12.2,10.5 -11.6,10.6 -11.1,10.8 -10.5,10.9 -10.0,11.0 -9.4,11.0 -8.9,11.1 -8.3,11.1 -7.8,11.2 -7.2,11.2 -6.7,11.2 -6.2,11.1 -5.6,11.1 -5.1,11.1 -4.6,11.0 -4.0,10.9 -3.5,10.8 -3.0,10.7 -2.5,10.6 -1.9,10.5 -1.4,10.4 -0.9,10.3 -0.4,10.1 0.1,10.0 0.6,9.8 1.1,9.6 1.6,9.5 2.1,9.3 2.6,9.1 3.1,9.0 3.6,8.8 4.1,8.6 4.5,8.4 5.0,8.2 5.5,8.0 5.9,7.8 6.4,7.6 6.9,7.5 7.3,7.3 7.7,7.1 8.2,6.9 8.6,6.7 9.0,6.5 9.4,6.3 9.9,6.1 10.3,6.0 10.7,5.8 11.1,5.6 11.4,5.4 11.8,5.2 12.2,5.1 12.6,4.9 12.9,4.7 13.3,4.5 13.7,4.3 14.0,4.2 14.3,4.0 -14.7,3.8 -15.0,3.6 -15.3,3.5 -15.6,3.3 -15.9,3.1 -16.2,3.0 -16.5,2.8 -16.8,2.6 -17.1,2.5 -17.4,2.3" fill="none" stroke="#111" stroke-width="2.131834253241195" stroke-linejoin="round" stroke-linecap="round" filter="url(#fuzzy_av_1779093955017_xjx28zk7uh8)"/><circle r="3.1088634706828095" cx="7.559697309655852" cy="-2.752597510842195" stroke="#111" fill="none" stroke-width="1.3966509742522502" filter="url(#fuzzy_av_1779093955017_xjx28zk7uh8)" clip-path="url(#leftEye_av_1779093955017_xjx28zk7uh8)"/><circle r="3.9198968132858276" cx="7.635848433567347" cy="-5.480555969849345" stroke="#111" fill="none" stroke-width="1.1884548744368724" filter="url(#fuzzy_av_1779093955017_xjx28zk7uh8)" clip-path="url(#leftEye_av_1779093955017_xjx28zk7uh8)"/><circle r="2.5642409609893595" cx="10.440807987026528" cy="-6.227356658422938" stroke="#111" fill="none" stroke-width="1.0355749553873745" filter="url(#fuzzy_av_1779093955017_xjx28zk7uh8)" clip-path="url(#leftEye_av_1779093955017_xjx28zk7uh8)"/><circle r="2.5885746050889544" cx="8.85177150991126" cy="-4.584243629827027" stroke="#111" fill="none" stroke-width="1.3366528087641265" filter="url(#fuzzy_av_1779093955017_xjx28zk7uh8)" clip-path="url(#leftEye_av_1779093955017_xjx28zk7uh8)"/><circle r="4.561667133482968" cx="9.119682355363219" cy="-4.007829334390812" stroke="#111" fill="none" stroke-width="0.8239085079600604" filter="url(#fuzzy_av_1779093955017_xjx28zk7uh8)" clip-path="url(#leftEye_av_1779093955017_xjx28zk7uh8)"/><circle r="3.0440310125492767" cx="8.508202516482507" cy="-3.4124734391851574" stroke="#111" fill="none" stroke-width="0.9651252185260675" filter="url(#fuzzy_av_1779093955017_xjx28zk7uh8)" clip-path="url(#leftEye_av_1779093955017_xjx28zk7uh8)"/><circle r="4.1100562818194195" cx="9.180554279582495" cy="-3.3811791343491713" stroke="#111" fill="none" stroke-width="1.0650872406851946" filter="url(#fuzzy_av_1779093955017_xjx28zk7uh8)" clip-path="url(#leftEye_av_1779093955017_xjx28zk7uh8)"/><circle r="3.679666281838685" cx="7.596085181025013" cy="-4.330440958927786" stroke="#111" fill="none" stroke-width="1.0864800759670072" filter="url(#fuzzy_av_1779093955017_xjx28zk7uh8)" clip-path="url(#leftEye_av_1779093955017_xjx28zk7uh8)"/><circle r="2.8253026430477295" cx="9.500912662870826" cy="-5.721171484836356" stroke="#111" fill="none" stroke-width="0.8999978264755051" filter="url(#fuzzy_av_1779093955017_xjx28zk7uh8)" clip-path="url(#leftEye_av_1779093955017_xjx28zk7uh8)"/><circle r="3.56278198078037" cx="11.079012132387662" cy="-4.860642473625264" stroke="#111" fill="none" stroke-width="1.1303465869691556" filter="url(#fuzzy_av_1779093955017_xjx28zk7uh8)" clip-path="url(#leftEye_av_1779093955017_xjx28zk7uh8)"/></g><g id="rightEye" transform="translate(24.0 -27.6)"><polyline points="-20.6,2.6 -20.7,2.1 -20.8,1.6 -20.8,1.2 -20.8,0.7 -20.7,0.2 -20.6,-0.2 -20.4,-0.7 -20.2,-1.2 -19.9,-1.6 -19.6,-2.1 -19.3,-2.5 -18.9,-2.9 -18.6,-3.4 -18.1,-3.8 -17.7,-4.2 -17.2,-4.7 -16.6,-5.2 -16.1,-5.6 -15.5,-6.1 -14.8,-6.5 -14.2,-7.0 -13.5,-7.4 -12.8,-7.8 -12.0,-8.3 -11.3,-8.7 -10.5,-9.1 -9.7,-9.4 -8.9,-9.8 -8.1,-10.1 -7.3,-10.5 -6.5,-10.8 -5.7,-11.1 -4.9,-11.3 -4.0,-11.6 -3.2,-11.8 -2.4,-12.0 -1.6,-12.2 -0.9,-12.3 -0.1,-12.5 0.7,-12.6 1.4,-12.7 2.2,-12.7 2.9,-12.7 3.6,-12.7 4.2,-12.7 4.9,-12.7 5.5,-12.6 6.1,-12.5 6.7,-12.4 7.3,-12.3 7.8,-12.1 8.4,-12.0 8.9,-11.8 9.3,-11.6 9.8,-11.3 10.2,-11.1 10.6,-10.8 11.0,-10.6 11.4,-10.3 11.7,-10.0 12.1,-9.7 12.4,-9.4 12.7,-9.1 13.0,-8.8 13.2,-8.4 13.5,-8.1 13.7,-7.8 14.0,-7.5 14.2,-7.1 14.4,-6.8 14.6,-6.4 14.7,-6.1 14.9,-5.7 15.0,-5.4 15.2,-5.0 15.3,-4.7 15.4,-4.3 15.5,-4.0 15.6,-3.6 12.3,5.6 12.0,5.8 11.8,6.0 11.5,6.2 11.3,6.4 11.0,6.6 10.7,6.8 10.5,7.0 10.2,7.2 9.9,7.4 9.6,7.6 9.3,7.8 9.1,7.9 8.8,8.1 8.5,8.3 8.2,8.5 7.9,8.7 7.5,8.9 7.2,9.1 6.9,9.3 6.6,9.5 6.2,9.7 5.9,9.9 5.6,10.1 5.2,10.3 4.9,10.5 4.5,10.7 4.1,10.9 3.8,11.1 3.4,11.3 3.0,11.4 2.6,11.6 2.3,11.7 1.9,11.9 1.5,12.0 1.0,12.2 0.6,12.3 0.2,12.4 -0.2,12.5 -0.7,12.6 -1.1,12.6 -1.6,12.7 -2.1,12.8 -2.6,12.8 -3.0,12.8 -3.6,12.8 -4.1,12.8 -4.6,12.8 -5.1,12.7 -5.7,12.7 -6.3,12.6 -6.8,12.5 -7.4,12.4 -8.0,12.3 -8.7,12.1 -9.3,12.0 -9.9,11.8 -10.6,11.6 -11.3,11.4 -12.0,11.2 -12.6,10.9 -13.3,10.6 -14.0,10.4 -14.8,10.1 -15.5,9.8 -16.0,9.5 -16.6,9.3 -17.1,9.0 -17.6,8.8 -18.1,8.5 -18.6,8.3 -19.1,8.0 -19.6,7.7 -20.1,7.4 -20.6,7.1 -21.0,6.8 -21.4,6.5 -21.8,6.2 -22.2,5.9 -22.6,5.5" fill="#fff" stroke="#fff" stroke-width="0" stroke-linejoin="round" filter="url(#fuzzy_av_1779093955017_xjx28zk7uh8)"/><polyline points="-16.2,7.6 -17.0,7.1 -17.6,6.6 -18.2,6.1 -18.8,5.6 -19.2,5.1 -19.6,4.6 -20.0,4.1 -20.3,3.6 -20.5,3.1 -20.6,2.6 -20.7,2.1 -20.8,1.6 -20.8,1.2 -20.8,0.7 -20.7,0.2 -20.6,-0.2 -20.4,-0.7 -20.2,-1.2 -19.9,-1.6 -19.6,-2.1 -19.3,-2.5 -18.9,-2.9 -18.6,-3.4 -18.1,-3.8 -17.7,-4.2 -17.2,-4.7 -16.6,-5.2 -16.1,-5.6 -15.5,-6.1 -14.8,-6.5 -14.2,-7.0 -13.5,-7.4 -12.8,-7.8 -12.0,-8.3 -11.3,-8.7 -10.5,-9.1 -9.7,-9.4 -8.9,-9.8 -8.1,-10.1 -7.3,-10.5 -6.5,-10.8 -5.7,-11.1 -4.9,-11.3 -4.0,-11.6 -3.2,-11.8 -2.4,-12.0 -1.6,-12.2 -0.9,-12.3 -0.1,-12.5 0.7,-12.6 1.4,-12.7 2.2,-12.7 2.9,-12.7 3.6,-12.7 4.2,-12.7 4.9,-12.7 5.5,-12.6 6.1,-12.5 6.7,-12.4 7.3,-12.3 7.8,-12.1 8.4,-12.0 8.9,-11.8 9.3,-11.6 9.8,-11.3 10.2,-11.1 10.6,-10.8 11.0,-10.6 11.4,-10.3 11.7,-10.0 12.1,-9.7 12.4,-9.4 12.7,-9.1 13.0,-8.8 13.2,-8.4 13.5,-8.1 13.7,-7.8 14.0,-7.5 14.2,-7.1 14.4,-6.8 14.6,-6.4 14.7,-6.1 14.9,-5.7 15.0,-5.4 15.2,-5.0 15.3,-4.7 15.4,-4.3 15.5,-4.0 15.6,-3.6 15.7,-3.3 15.8,-3.0 15.9,-2.6 15.9,-2.3 16.0,-2.0 16.0,-1.6 16.1,-1.3 16.1,-1.0 16.2,-0.7 16.2,-0.4" fill="none" stroke="#111" stroke-width="3.1092073903697717" stroke-linejoin="round" stroke-linecap="round" filter="url(#fuzzy_av_1779093955017_xjx28zk7uh8)"/><polyline points="-24.2,2.3 -24.2,2.6 -24.2,2.9 -24.2,3.2 -24.0,3.6 -23.9,3.9 -23.7,4.2 -23.5,4.6 -23.2,4.9 -22.9,5.2 -22.6,5.5 -22.2,5.9 -21.8,6.2 -21.4,6.5 -21.0,6.8 -20.6,7.1 -20.1,7.4 -19.6,7.7 -19.1,8.0 -18.6,8.3 -18.1,8.5 -17.6,8.8 -17.1,9.0 -16.6,9.3 -16.0,9.5 -15.5,9.8 -14.8,10.1 -14.0,10.4 -13.3,10.6 -12.6,10.9 -12.0,11.2 -11.3,11.4 -10.6,11.6 -9.9,11.8 -9.3,12.0 -8.7,12.1 -8.0,12.3 -7.4,12.4 -6.8,12.5 -6.3,12.6 -5.7,12.7 -5.1,12.7 -4.6,12.8 -4.1,12.8 -3.6,12.8 -3.0,12.8 -2.6,12.8 -2.1,12.8 -1.6,12.7 -1.1,12.6 -0.7,12.6 -0.2,12.5 0.2,12.4 0.6,12.3 1.0,12.2 1.5,12.0 1.9,11.9 2.3,11.7 2.6,11.6 3.0,11.4 3.4,11.3 3.8,11.1 4.1,10.9 4.5,10.7 4.9,10.5 5.2,10.3 5.6,10.1 5.9,9.9 6.2,9.7 6.6,9.5 6.9,9.3 7.2,9.1 7.5,8.9 7.9,8.7 8.2,8.5 8.5,8.3 8.8,8.1 9.1,7.9 9.3,7.8 9.6,7.6 9.9,7.4 10.2,7.2 10.5,7.0 10.7,6.8 11.0,6.6 11.3,6.4 11.5,6.2 11.8,6.0 12.0,5.8 12.3,5.6 12.5,5.5 12.8,5.3 13.0,5.1 13.2,4.9 13.5,4.8 13.7,4.6 13.9,4.4 14.1,4.2 14.3,4.1 14.5,3.9" fill="none" stroke="#111" stroke-width="2.3173526121996693" stroke-linejoin="round" stroke-linecap="round" filter="url(#fuzzy_av_1779093955017_xjx28zk7uh8)"/><circle r="3.2658732926990792" cx="4.340394520422411" cy="4.135592697809207" stroke="#111" fill="none" stroke-width="1.2183837683225673" filter="url(#fuzzy_av_1779093955017_xjx28zk7uh8)" clip-path="url(#rightEye_av_1779093955017_xjx28zk7uh8)"/><circle r="3.3146072558457114" cx="7.0575781302614065" cy="3.179615870486289" stroke="#111" fill="none" stroke-width="1.1948168428144141" filter="url(#fuzzy_av_1779093955017_xjx28zk7uh8)" clip-path="url(#rightEye_av_1779093955017_xjx28zk7uh8)"/><circle r="4.442608587218773" cx="6.493619741702096" cy="4.217565862412113" stroke="#111" fill="none" stroke-width="1.1058965496996387" filter="url(#fuzzy_av_1779093955017_xjx28zk7uh8)" clip-path="url(#rightEye_av_1779093955017_xjx28zk7uh8)"/><circle r="3.124569822415277" cx="4.689560616734032" cy="4.328059690723823" stroke="#111" fill="none" stroke-width="0.8631154379955217" filter="url(#fuzzy_av_1779093955017_xjx28zk7uh8)" clip-path="url(#rightEye_av_1779093955017_xjx28zk7uh8)"/><circle r="4.014836333727855" cx="4.511332005675143" cy="3.784523665204658" stroke="#111" fill="none" stroke-width="0.8584777134392888" filter="url(#fuzzy_av_1779093955017_xjx28zk7uh8)" clip-path="url(#rightEye_av_1779093955017_xjx28zk7uh8)"/><circle r="3.9678505085585907" cx="6.201620567518287" cy="4.537157588662088" stroke="#111" fill="none" stroke-width="0.8672113470159706" filter="url(#fuzzy_av_1779093955017_xjx28zk7uh8)" clip-path="url(#rightEye_av_1779093955017_xjx28zk7uh8)"/><circle r="4.476266330157697" cx="6.115936817601542" cy="5.002468643619799" stroke="#111" fill="none" stroke-width="1.0679676981097657" filter="url(#fuzzy_av_1779093955017_xjx28zk7uh8)" clip-path="url(#rightEye_av_1779093955017_xjx28zk7uh8)"/><circle r="2.387265374750496" cx="4.917996048216951" cy="1.9289333955689951" stroke="#111" fill="none" stroke-width="0.8692092612580208" filter="url(#fuzzy_av_1779093955017_xjx28zk7uh8)" clip-path="url(#rightEye_av_1779093955017_xjx28zk7uh8)"/><circle r="2.6762534279918455" cx="5.817127660662462" cy="1.7717939476053788" stroke="#111" fill="none" stroke-width="1.1684952464521923" filter="url(#fuzzy_av_1779093955017_xjx28zk7uh8)" clip-path="url(#rightEye_av_1779093955017_xjx28zk7uh8)"/><circle r="3.6998737016117493" cx="6.968138448158024" cy="4.392598423828735" stroke="#111" fill="none" stroke-width="1.2533750472925962" filter="url(#fuzzy_av_1779093955017_xjx28zk7uh8)" clip-path="url(#rightEye_av_1779093955017_xjx28zk7uh8)"/></g><g id="hairs"><polyline points="38.5,-50.6 39.6,-50.9 40.0,-50.3 40.0,-49.9 39.6,-48.3 38.8,-48.8 37.6,-48.4 36.0,-48.6 33.9,-47.3 31.2,-46.5 28.0,-48.2 24.2,-47.7 19.8,-46.6 14.7,-46.5 8.9,-47.9 2.4,-48.6 -4.6,-48.0 -12.1,-48.9 -20.1,-51.2 -28.8,-53.0 -38.7,-52.6" fill="none" stroke="rgb(80,68,68)" stroke-width="2.5328818066644416" stroke-linejoin="round" stroke-linecap="round" filter="url(#fuzzy_av_1779093955017_xjx28zk7uh8)" opacity="0.8042714448753765"/><polyline points="-14.6,-64.3 -12.8,-63.8 -11.4,-64.2 -9.9,-63.3 -8.2,-63.7 -6.5,-63.7 -4.9,-64.7 -3.4,-65.1 -2.0,-63.6 -0.8,-65.0 0.3,-65.1 1.2,-63.8 1.8,-64.6 2.3,-65.2 2.4,-64.7 2.2,-63.3 1.7,-64.9 0.7,-64.5 -0.6,-63.3 -2.4,-64.6 -4.6,-62.8 -7.2,-62.7 -10.4,-63.0 -14.6,-63.9" fill="none" stroke="rgb(80,68,68)" stroke-width="2.223626192785004" stroke-linejoin="round" stroke-linecap="round" filter="url(#fuzzy_av_1779093955017_xjx28zk7uh8)" opacity="0.7620919351714042"/><polyline points="-54.7,-27.2 -54.7,-28.0 -54.5,-28.9 -54.2,-29.2 -53.9,-30.0 -53.6,-32.1 -53.3,-31.4 -53.1,-32.5 -52.8,-32.4 -52.6,-32.4 -52.3,-32.3 -52.1,-30.7 -52.0,-30.7 -51.9,-28.4 -51.8,-27.1 -51.8,-23.5 -51.9,-21.6 -52.0,-18.2 -52.2,-13.1 -52.7,-8.1 -53.3,-3.5 -54.4,-0.3" fill="none" stroke="rgb(80,68,68)" stroke-width="2.0329749910994597" stroke-linejoin="round" stroke-linecap="round" filter="url(#fuzzy_av_1779093955017_xjx28zk7uh8)" opacity="0.9200366080089905"/><polyline points="-55.5,-21.4 -55.3,-24.4 -54.8,-25.9 -54.0,-27.0 -53.1,-28.6 -52.0,-30.3 -50.8,-33.1 -49.4,-34.3 -48.0,-37.4 -46.5,-39.6 -44.9,-40.3 -43.3,-43.8 -41.7,-46.2 -40.2,-47.5 -38.7,-48.3 -37.4,-51.3 -36.2,-52.4 -35.3,-52.8 -34.9,-55.1 -34.9,-55.9 -35.0,-55.0" fill="none" stroke="rgb(80,68,68)" stroke-width="1.9687961791333515" stroke-linejoin="round" stroke-linecap="round" filter="url(#fuzzy_av_1779093955017_xjx28zk7uh8)" opacity="0.8501980269763478"/><polyline points="31.7,-56.5 32.8,-55.0 33.2,-55.0 32.9,-52.8 32.1,-52.3 30.6,-52.3 28.3,-50.8 25.2,-51.3 21.1,-49.8 16.1,-49.7 10.2,-48.8 3.4,-49.2 -4.3,-47.7 -12.9,-47.8 -22.5,-48.7 -32.9,-47.9 -44.0,-48.2" fill="none" stroke="rgb(80,68,68)" stroke-width="1.6376770497607545" stroke-linejoin="round" stroke-linecap="round" filter="url(#fuzzy_av_1779093955017_xjx28zk7uh8)" opacity="0.7876126700172861"/><polyline points="-51.0,-38.2 -50.4,-39.0 -49.7,-40.9 -49.1,-40.5 -48.4,-41.4 -47.7,-43.0 -47.0,-45.1 -46.3,-45.6 -45.8,-45.8 -45.4,-46.2 -45.1,-46.7 -45.0,-45.2 -44.9,-44.9 -45.0,-44.0 -45.1,-43.6 -45.4,-42.6 -45.8,-41.1 -46.4,-39.0 -47.2,-38.3 -48.2,-34.6 -49.4,-32.5 -50.7,-28.7 -52.2,-25.5 -53.9,-22.5 -55.9,-20.2" fill="none" stroke="rgb(80,68,68)" stroke-width="1.1406834942168018" stroke-linejoin="round" stroke-linecap="round" filter="url(#fuzzy_av_1779093955017_xjx28zk7uh8)" opacity="0.88151310368015"/><polyline points="42.7,-47.4 43.7,-46.4 44.6,-46.2 45.4,-43.9 46.1,-43.5 46.8,-42.3 47.4,-41.6 47.9,-42.3 48.2,-41.7 48.5,-41.1 48.5,-40.2 48.4,-40.5 48.1,-40.0 47.5,-39.5 46.8,-41.0 45.9,-40.2 44.8,-41.3 43.5,-43.2 41.9,-42.9 40.1,-44.5 38.0,-45.9 35.6,-49.1 32.9,-51.6 29.9,-54.2 26.5,-57.4 22.0,-59.6" fill="none" stroke="rgb(80,68,68)" stroke-width="0.885236533002381" stroke-linejoin="round" stroke-linecap="round" filter="url(#fuzzy_av_1779093955017_xjx28zk7uh8)" opacity="0.7513828578235201"/><polyline points="-53.3,-32.7 -53.4,-32.2 -53.1,-33.1 -52.7,-34.7 -52.3,-35.8 -51.9,-36.1 -51.5,-35.5 -51.0,-36.4 -50.6,-35.5 -50.2,-35.5 -49.8,-34.9 -49.4,-33.9 -49.1,-32.3 -48.8,-31.8 -48.6,-29.7 -48.6,-26.9 -48.6,-23.5 -48.8,-21.1 -49.0,-16.0 -49.3,-12.6 -49.6,-5.8 -49.9,-2.0 -50.3,5.7 -50.7,12.5" fill="none" stroke="rgb(80,68,68)" stroke-width="0.9759054009976382" stroke-linejoin="round" stroke-linecap="round" filter="url(#fuzzy_av_1779093955017_xjx28zk7uh8)" opacity="0.7788658455779218"/><polyline points="-48.8,-41.3 -47.5,-44.1 -46.2,-46.1 -44.8,-45.8 -43.5,-47.8 -42.1,-48.9 -40.7,-49.8 -39.3,-51.2 -37.9,-51.5 -36.4,-53.5 -35.0,-53.4 -33.6,-56.0 -32.3,-55.6 -31.2,-56.4 -30.4,-58.4 -29.8,-58.0 -29.4,-59.1 -29.2,-58.1 -29.2,-59.2 -29.7,-57.7 -30.7,-58.5" fill="none" stroke="rgb(80,68,68)" stroke-width="1.0136210029362591" stroke-linejoin="round" stroke-linecap="round" filter="url(#fuzzy_av_1779093955017_xjx28zk7uh8)" opacity="0.9797253425232763"/><polyline points="-15.5,-63.6 -15.9,-63.4 -14.9,-62.3 -13.9,-62.3 -12.9,-61.8 -12.2,-62.0 -11.6,-61.6 -11.2,-60.0 -11.1,-60.3 -11.3,-58.9 -11.7,-56.2 -12.4,-55.3 -13.3,-52.2 -14.6,-49.1 -16.1,-47.3 -17.9,-44.7 -20.0,-41.0 -22.4,-38.1 -25.1,-33.8 -28.1,-28.3 -31.4,-23.6 -35.1,-18.1 -39.1,-13.4 -43.5,-8.6 -48.3,-2.5 -53.2,5.7" fill="none" stroke="rgb(80,68,68)" stroke-width="1.6518677465441205" stroke-linejoin="round" stroke-linecap="round" filter="url(#fuzzy_av_1779093955017_xjx28zk7uh8)" opacity="0.9064523467426913"/><polyline points="-51.0,-37.5 -50.3,-39.1 -49.3,-40.1 -48.3,-41.3 -47.0,-43.6 -45.5,-43.7 -43.8,-46.4 -42.1,-47.9 -40.4,-48.6 -38.7,-51.0 -37.1,-52.2 -35.4,-52.8 -33.8,-53.5 -32.3,-55.1 -30.8,-56.2 -29.4,-57.6 -28.0,-58.4 -26.9,-58.8 -25.9,-59.6 -25.1,-59.9 -24.5,-59.7 -24.0,-59.7 -23.8,-61.0 -23.8,-61.8 -24.0,-60.7" fill="none" stroke="rgb(80,68,68)" stroke-width="1.9691406600464443" stroke-linejoin="round" stroke-linecap="round" filter="url(#fuzzy_av_1779093955017_xjx28zk7uh8)" opacity="0.8521690857001596"/><polyline points="-11.1,-63.1 -10.5,-63.5 -8.7,-63.8 -6.9,-63.5 -5.4,-64.2 -4.0,-63.7 -2.6,-64.3 -1.4,-65.0 -0.2,-64.9 0.8,-64.6 1.7,-65.0 2.3,-64.8 2.8,-63.3 2.9,-64.2 2.8,-63.5 2.4,-64.4 1.8,-63.9 0.8,-63.6 -0.6,-62.8 -2.3,-62.7 -4.4,-63.0 -7.0,-62.7 -10.0,-62.8 -13.6,-62.8 -17.5,-62.1 -21.3,-62.6" fill="none" stroke="rgb(80,68,68)" stroke-width="2.199834269750112" stroke-linejoin="round" stroke-linecap="round" filter="url(#fuzzy_av_1779093955017_xjx28zk7uh8)" opacity="0.9388606527736101"/><polyline points="-54.7,-27.8 -54.6,-27.5 -54.0,-29.7 -53.1,-30.1 -52.0,-32.7 -50.8,-34.2 -49.5,-36.5 -48.0,-38.4 -46.4,-41.1 -44.8,-43.2 -43.2,-43.7 -41.6,-47.4 -40.1,-48.4 -38.7,-50.4 -37.6,-52.0 -36.8,-52.1 -36.4,-53.1 -36.1,-55.1 -35.8,-54.7" fill="none" stroke="rgb(80,68,68)" stroke-width="1.0027403543971556" stroke-linejoin="round" stroke-linecap="round" filter="url(#fuzzy_av_1779093955017_xjx28zk7uh8)" opacity="0.9363129392418521"/><polyline points="-27.5,-58.8 -26.1,-60.3 -25.2,-59.9 -24.8,-59.0 -24.7,-58.6 -25.0,-55.4 -25.8,-54.3 -26.9,-50.0 -28.5,-47.4 -30.6,-43.9 -33.2,-38.1 -36.2,-31.8 -39.8,-24.3 -44.0,-16.1 -48.7,-7.7 -54.0,0.8" fill="none" stroke="rgb(80,68,68)" stroke-width="0.981906110410485" stroke-linejoin="round" stroke-linecap="round" filter="url(#fuzzy_av_1779093955017_xjx28zk7uh8)" opacity="0.8083134585227101"/><polyline points="-41.8,-50.8 -40.5,-51.3 -39.2,-51.9 -38.3,-52.4 -37.8,-54.2 -37.5,-53.3 -37.2,-53.3 -36.9,-51.8 -36.6,-51.7 -36.4,-49.8 -36.4,-49.3 -36.6,-48.3 -37.1,-46.1 -37.9,-43.7 -39.0,-40.4 -40.5,-36.2 -42.2,-33.5 -44.3,-29.2 -46.7,-24.7 -49.3,-17.8 -52.3,-12.1 -55.5,-6.6" fill="none" stroke="rgb(80,68,68)" stroke-width="1.4963609589567963" stroke-linejoin="round" stroke-linecap="round" filter="url(#fuzzy_av_1779093955017_xjx28zk7uh8)" opacity="0.8435055789873647"/><polyline points="-24.0,-60.2 -23.2,-60.3 -22.3,-60.9 -21.4,-60.9 -20.7,-62.1 -20.1,-61.3 -19.8,-60.6 -19.7,-61.5 -19.9,-60.9 -20.4,-58.8 -21.1,-57.6 -22.3,-57.8 -23.8,-56.1 -25.7,-54.6 -28.1,-52.2 -31.0,-49.3 -34.4,-45.8 -38.4,-44.0 -42.9,-40.3 -48.0,-35.5 -53.6,-31.9" fill="none" stroke="rgb(80,68,68)" stroke-width="2.537990441114001" stroke-linejoin="round" stroke-linecap="round" filter="url(#fuzzy_av_1779093955017_xjx28zk7uh8)" opacity="0.9254431967786529"/><polyline points="4.2,-64.7 5.8,-63.7 7.2,-63.4 8.3,-63.9 9.4,-63.2 10.6,-63.0 11.7,-62.8 12.6,-63.4 13.1,-63.2 13.3,-63.6 13.0,-62.8 12.3,-61.9 11.1,-61.6 9.5,-61.8 7.3,-63.2 4.5,-62.8 1.0,-63.7 -3.0,-63.0 -8.0,-63.5" fill="none" stroke="rgb(80,68,68)" stroke-width="2.169998514059717" stroke-linejoin="round" stroke-linecap="round" filter="url(#fuzzy_av_1779093955017_xjx28zk7uh8)" opacity="0.9090044344875019"/><polyline points="-15.5,-63.4 -16.0,-62.7 -15.4,-63.4 -14.8,-61.2 -14.7,-59.7 -15.0,-58.1 -15.7,-56.1 -16.9,-53.3 -18.6,-50.7 -20.9,-46.4 -23.7,-41.2 -27.2,-36.0 -31.2,-29.8 -35.8,-22.7 -41.2,-14.5 -47.3,-6.5 -54.0,3.5" fill="none" stroke="rgb(80,68,68)" stroke-width="1.2342590712006616" stroke-linejoin="round" stroke-linecap="round" filter="url(#fuzzy_av_1779093955017_xjx28zk7uh8)" opacity="0.9699996031241354"/><polyline points="30.7,-57.1 30.9,-55.8 31.2,-57.2 32.1,-55.1 33.3,-54.1 34.5,-54.6 35.6,-52.5 36.6,-52.8 37.3,-52.5 37.7,-51.4 37.8,-52.4 37.5,-51.1 36.7,-52.0 35.7,-53.9 34.3,-54.7 32.4,-55.8 29.4,-56.8 25.3,-59.0" fill="none" stroke="rgb(80,68,68)" stroke-width="0.9094049806113988" stroke-linejoin="round" stroke-linecap="round" filter="url(#fuzzy_av_1779093955017_xjx28zk7uh8)" opacity="0.9568721276739247"/><polyline points="-56.3,-15.7 -56.0,-18.1 -55.6,-19.6 -55.0,-21.0 -54.3,-20.7 -53.3,-23.4 -52.3,-24.0 -51.0,-26.5 -49.6,-28.4 -48.2,-31.7 -46.6,-32.2 -44.9,-34.5 -43.2,-37.3 -41.4,-39.6 -39.6,-42.8 -37.9,-45.0 -36.1,-46.3 -34.4,-47.9 -32.6,-49.6 -30.9,-51.7 -29.3,-54.7 -27.8,-56.4 -26.4,-57.5 -25.2,-59.2 -24.1,-60.9 -23.6,-61.2" fill="none" stroke="rgb(80,68,68)" stroke-width="2.058338994566385" stroke-linejoin="round" stroke-linecap="round" filter="url(#fuzzy_av_1779093955017_xjx28zk7uh8)" opacity="0.8888016264458976"/><polyline points="55.5,-21.1 56.0,-18.7 56.7,-16.5 57.4,-13.3 57.8,-12.0 57.9,-9.1 57.8,-7.2 57.7,-4.1 57.5,-3.3 57.4,0.1 57.1,1.1 56.6,4.9 56.1,7.7 55.4,10.3 54.7,11.6 53.9,14.2 53.2,15.8 52.4,17.5 51.6,20.5 50.8,23.2 49.9,25.0 48.8,26.7 47.7,27.5 46.4,29.9 45.0,31.4 43.5,34.2 41.9,36.1 40.3,37.2 38.5,39.3 36.6,39.4 34.5,41.7 32.3,43.0 29.8,44.2 27.1,45.0 24.3,45.7 21.6,47.0" fill="none" stroke="rgb(80,68,68)" stroke-width="1.3119595416783572" stroke-linejoin="round" stroke-linecap="round" filter="url(#fuzzy_av_1779093955017_xjx28zk7uh8)" opacity="0.9546922495571458"/><polyline points="54.4,-28.1 54.5,-26.1 53.9,-23.1 52.3,-20.1 50.6,-19.0 49.5,-15.3 49.2,-13.9 49.4,-12.0 49.4,-8.7 49.1,-6.5 48.3,-5.0 47.2,-0.6 45.8,1.1 44.4,3.1 43.2,6.4 42.2,8.7 41.3,10.0 40.5,11.8 39.6,15.0 38.3,17.5 36.7,20.1 34.7,21.9 32.6,22.7 30.5,26.4 28.6,28.5 26.9,28.9 25.5,31.0 24.0,34.1 22.5,35.0 20.7,37.3 18.8,39.4 16.8,39.5 14.9,41.3 13.2,43.0 11.8,42.9 10.5,44.1 9.1,46.3" fill="none" stroke="rgb(80,68,68)" stroke-width="2.560018185373532" stroke-linejoin="round" stroke-linecap="round" filter="url(#fuzzy_av_1779093955017_xjx28zk7uh8)" opacity="0.9209633298692697"/><polyline points="46.0,-44.6 47.5,-42.6 49.1,-39.8 50.8,-37.1 52.2,-34.9 53.3,-33.6 54.2,-30.9 54.8,-30.0 55.3,-26.8 55.8,-24.3 56.3,-22.4 56.7,-20.7 57.1,-17.4 57.5,-14.3 57.8,-12.7 58.0,-11.2 58.2,-8.7 58.3,-5.3 58.2,-4.0 57.9,-0.3 57.5,1.8 56.9,3.3 56.2,5.9 55.3,7.8 54.4,11.7 53.5,12.9 52.6,16.7 51.6,18.7 50.7,19.9 49.6,21.5 48.4,25.1 47.2,25.9 45.8,28.3 44.4,30.4 43.0,32.3 41.7,33.5 40.4,34.2 38.7,36.6 36.0,38.0" fill="none" stroke="rgb(80,68,68)" stroke-width="2.1845517605820906" stroke-linejoin="round" stroke-linecap="round" filter="url(#fuzzy_av_1779093955017_xjx28zk7uh8)" opacity="0.7783072622009704"/><polyline points="43.8,-46.6 45.7,-43.7 47.3,-42.1 48.7,-41.1 50.1,-38.1 51.6,-37.3 53.0,-35.3 54.3,-32.2 55.4,-30.1 56.3,-28.8 57.0,-26.1 57.6,-23.6 58.2,-22.5 58.7,-19.0 59.2,-17.3 59.6,-15.8 59.9,-12.9 60.2,-9.3 60.4,-8.0 60.7,-5.3 60.8,-2.7 60.9,-1.2 60.6,2.2 59.9,5.1" fill="none" stroke="rgb(80,68,68)" stroke-width="2.2704663153962072" stroke-linejoin="round" stroke-linecap="round" filter="url(#fuzzy_av_1779093955017_xjx28zk7uh8)" opacity="0.8993151764126722"/><polyline points="16.9,-62.4 19.1,-60.9 20.8,-61.4 22.2,-59.5 23.8,-59.2 25.7,-58.0 27.8,-55.8 29.9,-54.4 31.9,-54.5 33.6,-51.3 35.0,-49.5 36.1,-48.5 37.0,-47.7 37.8,-44.6 38.4,-43.1 39.0,-41.3 39.5,-40.2 39.8,-37.7 40.1,-35.3 40.2,-34.2 40.2,-31.4 39.9,-29.4 39.5,-27.0 39.0,-25.5 38.4,-22.5 37.6,-19.8 36.8,-17.0 35.9,-15.4 35.1,-12.9 34.6,-11.4 34.3,-7.8" fill="none" stroke="rgb(80,68,68)" stroke-width="2.103811603095627" stroke-linejoin="round" stroke-linecap="round" filter="url(#fuzzy_av_1779093955017_xjx28zk7uh8)" opacity="0.8656922218941223"/><polyline points="10.5,-63.2 13.8,-62.8 16.7,-62.2 19.6,-60.6 22.5,-60.3 25.5,-58.9 28.4,-57.3 31.2,-57.7 34.0,-55.6 36.7,-54.0 39.5,-53.4 42.5,-51.3 45.7,-50.0 49.1,-48.1 52.4,-46.9 55.3,-44.8 57.7,-43.0 59.6,-41.5 61.1,-38.2 62.3,-37.3 63.6,-35.7 65.2,-33.2 67.1,-31.4 69.2,-28.4 71.4,-26.7 73.6,-23.5 75.7,-22.2 77.7,-18.9 79.4,-16.0" fill="none" stroke="rgb(80,68,68)" stroke-width="2.5253819576576477" stroke-linejoin="round" stroke-linecap="round" filter="url(#fuzzy_av_1779093955017_xjx28zk7uh8)" opacity="0.9807883405591565"/><polyline points="8.5,-64.6 14.9,-62.9 18.1,-61.7 20.5,-60.9 22.9,-60.4 25.4,-59.7 28.2,-58.6 31.2,-58.1 34.2,-57.2 37.3,-55.9 40.3,-53.0 43.2,-52.5 45.9,-50.1 48.4,-48.0 50.8,-47.2 53.0,-46.0 55.3,-43.5 57.7,-41.8 60.2,-39.0 62.8,-36.8 65.6,-35.9 68.3,-32.7 70.9,-30.8 73.4,-28.9 75.7,-26.6 78.0,-25.4 80.1,-22.5 82.2,-21.1 84.1,-18.2 85.5,-16.4 86.4,-12.9" fill="none" stroke="rgb(80,68,68)" stroke-width="1.4642635031065068" stroke-linejoin="round" stroke-linecap="round" filter="url(#fuzzy_av_1779093955017_xjx28zk7uh8)" opacity="0.9323059225064987"/><polyline points="5.6,-63.8 8.1,-63.4 10.7,-62.7 13.4,-63.1 16.0,-61.4 18.8,-62.3 21.6,-59.6 24.5,-59.1 27.3,-58.6 29.9,-56.6 32.5,-55.6 34.9,-53.9 37.3,-53.5 39.7,-52.4 41.9,-50.6 44.0,-48.5 46.0,-46.0 47.8,-45.5 49.6,-44.1 51.4,-41.1 53.2,-40.1 55.0,-36.9 56.5,-36.4 57.9,-33.9 59.3,-29.9" fill="none" stroke="rgb(80,68,68)" stroke-width="0.7365209231872475" stroke-linejoin="round" stroke-linecap="round" filter="url(#fuzzy_av_1779093955017_xjx28zk7uh8)" opacity="0.8442644273398754"/><polyline points="0.6,-65.2 4.3,-64.6 7.3,-64.5 10.2,-62.9 13.4,-61.7 16.6,-61.3 19.7,-60.6 22.6,-60.0 25.3,-59.2 27.8,-57.6 30.1,-56.7 32.4,-55.5 34.7,-55.5 37.0,-54.1 39.4,-51.8 41.8,-51.1 44.2,-49.6 46.5,-46.6 48.9,-45.6 51.2,-42.8 53.5,-41.6 55.8,-38.9 58.1,-37.0 60.5,-35.1 62.8,-33.7 65.0,-31.2 66.9,-29.1 68.4,-27.7 69.4,-25.3 70.0,-22.2 70.4,-21.0 70.7,-18.2 71.0,-14.7 71.7,-13.2 72.6,-9.7 73.3,-7.7 73.5,-5.3 73.3,-2.1" fill="none" stroke="rgb(80,68,68)" stroke-width="0.8737957695757821" stroke-linejoin="round" stroke-linecap="round" filter="url(#fuzzy_av_1779093955017_xjx28zk7uh8)" opacity="0.9872280854095052"/><polyline points="-15.5,-63.8 -14.0,-64.4 -11.9,-64.6 -9.6,-63.4 -6.9,-64.2 -3.9,-65.2 -0.9,-63.4 2.2,-64.9 5.2,-64.4 8.1,-62.8 11.0,-62.8 14.1,-62.0 17.3,-61.8 20.7,-60.9 24.3,-60.8 28.1,-59.7 31.8,-59.5 35.3,-57.4 38.9,-57.4 42.6,-55.2 46.7,-53.4 51.3,-52.8 56.4,-50.2" fill="none" stroke="rgb(80,68,68)" stroke-width="1.1948914928640966" stroke-linejoin="round" stroke-linecap="round" filter="url(#fuzzy_av_1779093955017_xjx28zk7uh8)" opacity="0.9670001584698124"/><polyline points="-18.5,-63.5 -16.5,-63.9 -13.8,-62.7 -10.9,-63.9 -7.9,-64.5 -4.9,-63.8 -1.9,-64.1 1.0,-63.3 4.0,-63.6 7.0,-62.7 10.2,-62.8 13.5,-63.0 16.8,-62.7 20.2,-61.3 23.6,-61.4 27.0,-60.1 30.3,-59.9 33.6,-59.1 37.1,-56.6 40.6,-55.3 44.3,-54.1 47.9,-53.5 51.5,-51.5 55.1,-50.9 58.5,-48.4" fill="none" stroke="rgb(80,68,68)" stroke-width="1.598438496475938" stroke-linejoin="round" stroke-linecap="round" filter="url(#fuzzy_av_1779093955017_xjx28zk7uh8)" opacity="0.9232295840956342"/><polyline points="-21.6,-60.9 -19.0,-61.6 -16.4,-62.0 -13.7,-63.4 -10.8,-64.6 -7.9,-63.5 -5.0,-63.7 -2.1,-63.6 0.9,-63.2 4.0,-64.8 7.2,-63.9 10.6,-63.6 14.0,-63.1 17.5,-61.8 20.9,-61.1 24.2,-60.7 27.3,-58.9 30.2,-58.4 33.1,-57.1 35.9,-57.4 39.0,-54.9 42.2,-53.7 45.7,-52.6 49.1,-50.8 52.5,-50.2 55.5,-48.5 58.2,-45.3 60.7,-44.7 63.2,-41.6 65.8,-39.2 68.7,-38.0 71.7,-36.1 74.8,-34.1 78.4,-32.8" fill="none" stroke="rgb(80,68,68)" stroke-width="0.7502474867927446" stroke-linejoin="round" stroke-linecap="round" filter="url(#fuzzy_av_1779093955017_xjx28zk7uh8)" opacity="0.8441461879036666"/><polyline points="-21.3,-61.6 -19.3,-63.3 -16.8,-62.7 -14.3,-63.1 -11.7,-64.5 -9.1,-64.9 -6.4,-63.2 -3.6,-64.3 -0.7,-64.0 2.2,-64.5 5.3,-64.6 8.4,-63.2 11.6,-62.8 14.9,-63.2 18.4,-63.1 22.0,-62.4 25.8,-60.4 29.8,-59.7 33.7,-58.1 37.4,-58.1 40.6,-57.4 43.6,-56.1 46.5,-53.2 50.1,-52.8 55.6,-49.6" fill="none" stroke="rgb(80,68,68)" stroke-width="1.6543288261869054" stroke-linejoin="round" stroke-linecap="round" filter="url(#fuzzy_av_1779093955017_xjx28zk7uh8)" opacity="0.910669666209927"/><polyline points="-23.6,-60.8 -21.5,-60.9 -19.1,-63.2 -16.6,-63.3 -14.0,-63.2 -11.2,-63.4 -8.3,-64.6 -5.3,-64.0 -2.3,-64.1 0.6,-64.1 3.5,-64.1 6.4,-63.1 9.5,-64.2 12.6,-63.4 15.7,-61.5 18.8,-61.0 21.9,-61.3 24.8,-59.7 27.6,-58.1 30.3,-58.5 33.0,-56.8 35.7,-55.6 38.6,-54.4 41.7,-52.5 44.8,-52.3 47.7,-49.5 50.3,-48.8" fill="none" stroke="rgb(80,68,68)" stroke-width="2.528619047485182" stroke-linejoin="round" stroke-linecap="round" filter="url(#fuzzy_av_1779093955017_xjx28zk7uh8)" opacity="0.7802754734545072"/><polyline points="-23.6,-60.2 -21.8,-61.4 -19.6,-61.9 -17.2,-62.6 -14.5,-63.7 -11.5,-64.0 -8.3,-63.0 -5.1,-63.4 -2.0,-63.8 1.2,-64.3 4.3,-63.0 7.5,-64.0 10.6,-63.4 13.8,-62.7 16.9,-61.8 20.0,-61.5 23.0,-61.2 25.9,-59.5 28.8,-58.8 31.7,-58.1 34.7,-57.4 37.8,-54.5 40.9,-54.8 44.2,-52.5 47.5,-51.1 50.8,-49.4 54.0,-47.5 56.9,-45.6 59.5,-44.2 61.8,-41.6 63.8,-40.6 65.7,-37.6 67.4,-36.4 69.0,-33.9 70.6,-31.4 72.4,-29.4 74.2,-26.9" fill="none" stroke="rgb(80,68,68)" stroke-width="0.7843378872489047" stroke-linejoin="round" stroke-linecap="round" filter="url(#fuzzy_av_1779093955017_xjx28zk7uh8)" opacity="0.9482524649822995"/><polyline points="-28.0,-59.1 -30.9,-58.4 -33.6,-56.5 -35.9,-56.0 -38.0,-54.5 -40.2,-52.9 -42.3,-51.5 -44.6,-49.2 -46.8,-46.6 -49.0,-45.3 -51.1,-43.4 -53.3,-42.3 -55.5,-40.3 -57.7,-38.1 -59.7,-36.2 -61.4,-33.6 -62.9,-30.2 -64.2,-28.7 -65.4,-26.3 -66.6,-24.3 -67.9,-20.9 -69.2,-18.9 -69.5,-17.9" fill="none" stroke="rgb(80,68,68)" stroke-width="0.8415038905755692" stroke-linejoin="round" stroke-linecap="round" filter="url(#fuzzy_av_1779093955017_xjx28zk7uh8)" opacity="0.9640438610608415"/><polyline points="-30.7,-58.2 -34.9,-55.6 -38.8,-55.1 -42.2,-54.0 -44.9,-52.3 -46.9,-50.8 -48.3,-48.2 -49.8,-48.4 -51.5,-45.0 -53.5,-44.3 -55.8,-41.2 -58.5,-38.5 -61.6,-37.8 -65.0,-34.3 -68.3,-32.2 -70.9,-31.7 -72.6,-27.6 -73.1,-27.0 -73.0,-23.6 -73.1,-20.6 -74.0,-18.3 -76.4,-15.9 -80.1,-11.8" fill="none" stroke="rgb(80,68,68)" stroke-width="1.438439735505766" stroke-linejoin="round" stroke-linecap="round" filter="url(#fuzzy_av_1779093955017_xjx28zk7uh8)" opacity="0.7614380439766163"/><polyline points="-34.2,-56.8 -38.8,-56.1 -40.3,-54.1 -42.4,-52.7 -45.3,-50.4 -48.4,-49.7 -51.2,-47.9 -53.7,-45.6 -56.0,-43.7 -58.0,-41.5 -59.6,-39.0 -60.9,-38.1 -62.1,-36.0 -63.1,-33.1 -64.2,-31.3 -65.5,-29.2 -66.9,-26.7 -68.4,-24.3 -69.9,-22.0 -71.4,-19.3 -72.8,-18.2 -74.2,-15.5 -75.7,-11.7 -77.1,-10.7 -78.2,-6.4 -78.8,-4.0 -78.6,-0.9 -78.1,0.3 -78.4,3.6" fill="none" stroke="rgb(80,68,68)" stroke-width="2.475477052473556" stroke-linejoin="round" stroke-linecap="round" filter="url(#fuzzy_av_1779093955017_xjx28zk7uh8)" opacity="0.8359076569095617"/><polyline points="-35.8,-54.7 -37.2,-53.5 -38.9,-53.5 -40.5,-51.1 -42.1,-50.3 -43.6,-48.1 -45.0,-45.5 -46.5,-44.7 -47.8,-41.1 -49.1,-39.8 -50.2,-38.1 -51.2,-34.3 -52.0,-32.6 -52.6,-30.9 -53.0,-28.3 -53.3,-27.0 -53.5,-23.9 -53.6,-22.5 -53.6,-19.8 -53.6,-16.5 -53.6,-14.6 -53.5,-11.4 -53.4,-9.9 -53.1,-6.7 -52.6,-3.4 -52.0,-2.1 -51.2,1.6 -50.4,4.8 -49.6,6.1 -48.7,8.9 -47.8,11.8 -46.8,15.1 -46.0,16.5 -45.4,17.7" fill="none" stroke="rgb(80,68,68)" stroke-width="0.7324498934329308" stroke-linejoin="round" stroke-linecap="round" filter="url(#fuzzy_av_1779093955017_xjx28zk7uh8)" opacity="0.9174697405366737"/><polyline points="-36.7,-54.7 -39.4,-53.2 -42.5,-52.3 -44.5,-50.5 -46.0,-48.8 -47.6,-47.1 -49.5,-44.8 -51.6,-43.3 -53.7,-41.2 -55.7,-39.1 -57.5,-37.4 -59.1,-34.2 -60.8,-32.5 -62.7,-31.0 -64.6,-27.6 -66.7,-25.1 -68.6,-22.3 -70.1,-21.2 -71.4,-17.3 -72.3,-15.2 -73.1,-13.3 -73.7,-9.7 -74.2,-7.6 -74.5,-6.7 -75.0,-2.9 -76.2,-2.1 -78.7,0.3" fill="none" stroke="rgb(80,68,68)" stroke-width="0.7769685794598624" stroke-linejoin="round" stroke-linecap="round" filter="url(#fuzzy_av_1779093955017_xjx28zk7uh8)" opacity="0.911145652239116"/><polyline points="-36.7,-53.9 -37.7,-54.2 -39.6,-52.3 -41.3,-51.1 -43.0,-48.2 -44.6,-47.9 -46.2,-44.3 -47.6,-43.9 -49.0,-40.2 -50.3,-39.1 -51.5,-37.0 -52.6,-35.2 -53.5,-33.3 -54.3,-30.4 -55.0,-28.1 -55.6,-25.9 -56.1,-22.0 -56.5,-20.2 -56.8,-18.0 -57.0,-15.6 -57.1,-13.8 -57.1,-10.3 -56.9,-8.6 -56.7,-5.4 -56.4,-2.8 -56.0,-1.0 -55.5,1.4 -54.9,4.6 -54.3,7.4 -53.6,10.6" fill="none" stroke="rgb(80,68,68)" stroke-width="1.0540473359699398" stroke-linejoin="round" stroke-linecap="round" filter="url(#fuzzy_av_1779093955017_xjx28zk7uh8)" opacity="0.838963907560196"/><polyline points="-38.7,-53.5 -42.5,-50.7 -43.9,-50.5 -45.3,-48.8 -47.2,-46.4 -49.3,-44.3 -51.5,-40.9 -53.6,-39.6 -55.4,-38.1 -57.0,-35.0 -58.4,-32.5 -59.7,-29.9 -60.9,-28.4 -61.9,-25.0 -62.9,-24.0 -63.7,-20.6 -64.2,-18.9 -64.5,-17.2 -64.5,-14.7 -64.4,-12.4 -64.1,-8.7 -63.9,-5.7 -63.6,-2.8 -63.3,-1.0 -63.1,2.4 -62.9,4.1 -62.7,7.6 -62.5,9.7 -62.2,12.4 -61.9,15.5 -61.5,16.2 -61.1,19.6 -60.5,20.4 -59.6,24.3 -58.0,25.8 -55.5,28.9" fill="none" stroke="rgb(80,68,68)" stroke-width="1.1088448459013698" stroke-linejoin="round" stroke-linecap="round" filter="url(#fuzzy_av_1779093955017_xjx28zk7uh8)" opacity="0.8182010332148737"/><polyline points="-52.0,-36.9 -52.9,-34.2 -53.4,-32.2 -53.8,-28.7 -53.9,-27.8 -53.5,-25.4 -52.4,-21.9 -50.4,-20.0 -48.0,-16.0 -45.5,-14.6 -43.2,-11.7 -41.2,-9.8 -39.2,-7.1 -37.0,-3.7 -34.6,-1.9 -32.0,-0.3 -29.6,2.9 -27.4,5.4 -25.7,9.2 -24.3,11.8 -23.2,13.7 -22.2,15.5 -21.1,18.1 -20.1,19.5 -18.9,23.0 -17.5,24.8 -15.8,26.9 -13.9,27.7 -11.9,30.7 -10.0,32.6 -8.4,35.1 -7.1,36.2 -6.1,37.4 -4.9,39.4 -3.3,40.1 -1.8,41.5" fill="none" stroke="rgb(80,68,68)" stroke-width="1.0070393346818631" stroke-linejoin="round" stroke-linecap="round" filter="url(#fuzzy_av_1779093955017_xjx28zk7uh8)" opacity="0.7886935339829994"/><polyline points="-55.7,-22.0 -56.2,-19.1 -56.5,-17.1 -57.3,-12.8 -58.4,-10.6 -59.2,-8.9 -59.6,-6.0 -59.6,-4.8 -59.3,-0.9 -58.9,1.8 -58.5,3.4 -58.0,5.9 -57.4,8.5 -56.7,11.7 -55.9,13.5 -55.0,15.9 -54.0,19.1 -52.9,20.5 -51.7,23.1 -50.5,25.5 -49.4,27.3 -48.2,28.6 -46.9,31.1 -45.5,33.6 -43.9,34.2 -42.2,35.3 -40.3,38.8 -38.2,39.9 -36.0,39.8 -33.7,42.8 -31.3,42.9 -28.8,44.4 -26.2,46.5 -23.6,46.8 -21.1,47.8 -18.7,48.0 -16.4,48.6 -14.0,49.6" fill="none" stroke="rgb(80,68,68)" stroke-width="0.7574771058691182" stroke-linejoin="round" stroke-linecap="round" filter="url(#fuzzy_av_1779093955017_xjx28zk7uh8)" opacity="0.9103032005607011"/><polyline points="-56.0,-19.3 -56.2,-15.4 -56.4,-12.6 -56.6,-10.1 -56.8,-9.3 -57.0,-6.1 -57.6,-3.7 -58.4,-0.9 -59.6,1.6 -60.6,2.6 -61.2,5.6 -61.0,9.4 -60.0,11.9 -58.5,13.1 -56.7,15.0 -55.0,17.5 -53.6,19.6 -52.4,22.4 -51.4,24.1 -50.6,27.4 -49.8,29.0 -48.9,31.6 -47.7,33.4 -46.2,35.2 -44.4,36.5 -42.5,37.4 -40.8,38.5 -39.3,40.0 -37.9,40.9 -35.2,42.9" fill="none" stroke="rgb(80,68,68)" stroke-width="2.4029630953771566" stroke-linejoin="round" stroke-linecap="round" filter="url(#fuzzy_av_1779093955017_xjx28zk7uh8)" opacity="0.9946162662448601"/><polyline points="-55.9,-20.2 -56.4,-15.4 -56.7,-13.0 -56.6,-11.7 -56.3,-8.0 -55.9,-4.7 -55.4,-1.5 -55.0,0.6 -54.7,2.2 -54.5,6.5 -54.3,9.2 -54.0,10.9 -53.6,12.3 -52.9,15.7 -52.1,18.4 -51.0,20.2 -49.8,22.0 -48.5,23.8 -47.0,26.1 -45.5,27.7 -43.8,30.4 -42.1,31.6 -40.3,34.5 -38.4,36.6 -36.6,36.9 -34.8,38.2 -33.0,40.9 -31.1,42.3 -29.1,43.6 -27.1,43.3 -25.0,45.9 -22.9,47.2 -20.8,48.1 -18.6,47.7 -16.1,48.8 -13.2,49.8 -8.4,50.5" fill="none" stroke="rgb(80,68,68)" stroke-width="1.8824753497662376" stroke-linejoin="round" stroke-linecap="round" filter="url(#fuzzy_av_1779093955017_xjx28zk7uh8)" opacity="0.9381772005725607"/><polyline points="-55.9,-19.0 -55.3,-16.4 -53.6,-13.5 -51.6,-10.9 -49.8,-9.0 -48.5,-4.5 -47.4,-3.2 -46.4,0.8 -45.6,3.4 -45.1,6.3 -44.7,7.7 -44.2,10.4 -43.7,12.4 -42.8,15.3 -41.8,18.3 -40.6,19.0 -39.2,21.7 -37.7,24.8 -36.2,25.4 -34.5,28.0 -32.7,30.6 -30.8,31.6 -28.9,34.3 -27.0,36.6 -25.2,36.6 -23.5,38.6 -21.8,41.3 -20.0,42.1 -18.0,42.6 -16.2,44.5 -14.4,44.9 -12.2,47.3" fill="none" stroke="rgb(80,68,68)" stroke-width="1.8150159977789666" stroke-linejoin="round" stroke-linecap="round" filter="url(#fuzzy_av_1779093955017_xjx28zk7uh8)" opacity="0.902164135481466"/><polyline points="-55.9,-7.5 -55.5,-4.6 -55.0,-1.5 -54.4,-0.0 -54.0,3.5 -53.5,6.9 -53.0,7.9 -52.2,10.4 -51.3,14.2 -50.3,16.4 -49.0,17.7 -47.7,20.0 -46.3,22.8 -44.8,25.4 -43.3,27.4 -41.8,28.0 -40.3,31.1 -38.8,33.6 -37.2,34.5 -35.6,36.3 -34.0,36.7 -32.4,38.1 -30.7,41.0 -28.9,42.4 -27.0,42.7 -25.0,43.8 -23.0,45.6 -20.9,46.8 -18.8,47.2 -16.6,47.9 -14.3,49.4 -11.9,49.0 -9.6,48.9 -7.4,50.3 -5.4,50.9 -3.4,51.1 -1.0,49.9" fill="none" stroke="rgb(80,68,68)" stroke-width="1.7625131943271097" stroke-linejoin="round" stroke-linecap="round" filter="url(#fuzzy_av_1779093955017_xjx28zk7uh8)" opacity="0.9401729396151451"/><polyline points="-55.6,-6.3 -54.9,-2.1 -54.6,0.2 -54.4,3.2 -53.8,5.0 -52.9,9.2 -51.8,12.1 -50.7,12.9 -49.6,16.5 -48.5,18.4 -47.5,20.1 -46.4,23.2 -45.3,25.1 -44.1,26.8 -42.8,29.2 -41.4,30.3 -39.9,32.9 -38.3,34.3 -36.6,36.8 -35.0,38.3 -33.4,39.8 -31.8,41.3 -30.0,42.1 -28.1,42.5 -26.0,45.1 -23.8,46.2 -21.5,47.1 -19.6,47.4" fill="none" stroke="rgb(80,68,68)" stroke-width="1.0548046097975088" stroke-linejoin="round" stroke-linecap="round" filter="url(#fuzzy_av_1779093955017_xjx28zk7uh8)" opacity="0.8688334157635809"/><polyline points="-55.3,-3.9 -58.7,-1.8 -61.5,2.0 -61.4,4.4 -59.4,7.6 -57.3,8.8 -55.8,11.8 -55.2,14.9 -55.0,16.3 -54.6,19.5 -53.6,20.5 -52.0,22.5 -50.1,25.7 -48.1,27.4 -46.3,29.0 -44.8,30.9 -43.7,33.8 -42.7,33.9 -41.8,37.5 -40.8,39.0 -39.5,40.2 -37.8,40.9 -35.6,41.3 -33.1,44.0 -30.3,44.5 -27.3,45.4 -24.3,46.7 -21.4,47.5 -18.5,48.6 -15.7,48.9 -12.8,48.6 -10.0,49.4 -7.1,50.3 -4.2,49.6 -0.1,49.8" fill="none" stroke="rgb(80,68,68)" stroke-width="1.4537480520182928" stroke-linejoin="round" stroke-linecap="round" filter="url(#fuzzy_av_1779093955017_xjx28zk7uh8)" opacity="0.846158616330699"/><polyline points="-54.6,-0.7 -54.4,0.7 -53.6,3.6 -52.9,7.6 -52.4,10.1 -52.0,13.1 -51.7,14.6 -51.2,17.0 -50.3,18.6 -49.1,20.4 -47.6,22.3 -46.0,25.8 -44.3,28.1 -42.7,29.2 -41.1,30.5 -39.4,33.4 -37.8,34.3 -36.2,36.1 -34.5,38.9 -32.9,39.0 -31.1,40.5 -29.3,42.8 -27.4,44.3 -25.3,44.5 -23.1,44.8 -20.7,46.0 -18.3,48.1 -15.8,48.3 -13.3,48.4 -10.8,48.8 -8.3,49.0 -5.8,50.6 -3.4,50.4 -0.9,51.0 1.5,50.5 3.9,49.6 6.0,50.7 8.6,49.8" fill="none" stroke="rgb(80,68,68)" stroke-width="1.2880910091691693" stroke-linejoin="round" stroke-linecap="round" filter="url(#fuzzy_av_1779093955017_xjx28zk7uh8)" opacity="0.8530459494262275"/><polyline points="-53.2,5.1 -52.7,8.0 -51.9,10.4 -50.9,12.9 -50.0,14.9 -49.2,16.8 -48.2,19.2 -47.1,21.4 -45.7,23.4 -44.2,24.6 -42.7,27.3 -41.0,29.8 -39.4,32.2 -37.7,34.1 -36.1,35.9 -34.4,36.5 -32.6,38.7 -30.8,39.6 -29.0,41.7 -27.0,41.7 -24.9,44.5 -22.8,44.9 -20.5,45.6 -18.3,47.0 -16.1,46.8 -13.8,48.0 -11.6,48.2 -9.4,49.2 -7.2,49.8 -5.0,50.1 -2.9,50.8 -0.8,50.8 1.3,50.0 3.2,50.6 4.2,49.7" fill="none" stroke="rgb(80,68,68)" stroke-width="0.7410164572373713" stroke-linejoin="round" stroke-linecap="round" filter="url(#fuzzy_av_1779093955017_xjx28zk7uh8)" opacity="0.911059441964196"/><polyline points="-49.7,15.7 -48.7,17.9 -47.8,18.2 -46.8,20.9 -45.7,23.5 -44.4,24.1 -43.0,27.5 -41.6,29.2 -40.1,31.1 -38.6,33.9 -37.0,35.8 -35.3,36.1 -33.6,38.2 -31.9,39.8 -30.1,40.6 -28.2,42.4 -26.4,42.3 -24.4,44.5 -22.5,45.8 -20.4,45.6 -18.3,48.1 -16.1,47.2 -13.8,49.3 -11.5,48.2 -9.2,48.8 -7.0,50.8 -4.9,49.2 -2.7,49.5 -0.2,49.7 2.3,49.4 4.2,50.1" fill="none" stroke="rgb(80,68,68)" stroke-width="1.6334126494803263" stroke-linejoin="round" stroke-linecap="round" filter="url(#fuzzy_av_1779093955017_xjx28zk7uh8)" opacity="0.9499203804318117"/><polyline points="-48.4,18.3 -47.6,18.3 -45.7,20.7 -43.3,22.2 -40.8,24.3 -38.3,28.0 -36.2,30.1 -34.3,31.2 -32.6,32.6 -30.9,34.2 -29.3,37.4 -27.6,38.9 -25.9,39.5 -24.1,41.2 -22.1,41.1 -20.0,44.0 -17.9,43.5 -15.9,44.8 -14.0,45.8 -12.2,46.8 -10.6,48.3 -8.9,48.0 -7.2,48.9 -5.6,49.3 -4.2,50.8 -3.8,50.4" fill="none" stroke="rgb(80,68,68)" stroke-width="2.54227855492688" stroke-linejoin="round" stroke-linecap="round" filter="url(#fuzzy_av_1779093955017_xjx28zk7uh8)" opacity="0.9540069832022396"/><polyline points="-48.3,17.7 -48.0,21.5 -46.4,23.1 -44.7,25.0 -43.3,27.7 -42.1,28.8 -40.9,32.1 -39.7,33.2 -38.3,34.6 -36.8,36.6 -35.3,38.1 -33.7,38.4 -32.1,41.4 -30.4,41.4 -28.5,44.2 -26.5,44.8 -24.5,45.7 -22.5,45.8 -20.5,46.3 -18.4,48.7 -16.2,48.4 -13.4,48.8 -8.6,50.7" fill="none" stroke="rgb(80,68,68)" stroke-width="1.471995705804475" stroke-linejoin="round" stroke-linecap="round" filter="url(#fuzzy_av_1779093955017_xjx28zk7uh8)" opacity="0.8336808102584471"/><polyline points="-46.9,19.5 -45.2,23.6 -44.1,26.6 -43.7,28.3 -43.2,29.1 -42.3,30.9 -40.9,34.6 -39.3,36.2 -37.7,37.6 -36.2,38.4 -34.7,40.2 -33.2,41.3 -31.4,41.7 -29.4,43.3 -27.0,45.1 -24.4,46.5 -21.7,47.4 -19.1,48.6 -16.4,49.0 -13.8,49.7 -11.2,50.2 -8.6,49.3 -6.1,50.6 -3.5,49.7 -0.1,50.8" fill="none" stroke="rgb(80,68,68)" stroke-width="0.9532202206472562" stroke-linejoin="round" stroke-linecap="round" filter="url(#fuzzy_av_1779093955017_xjx28zk7uh8)" opacity="0.9263946063882118"/><polyline points="-41.1,28.9 -40.3,31.1 -38.8,31.4 -37.1,34.2 -35.5,35.3 -34.0,38.3 -32.4,39.1 -30.7,40.5 -28.8,40.6 -26.8,43.5 -24.6,43.8 -22.3,45.8 -20.0,45.8 -17.8,46.2 -15.6,48.4 -13.4,48.2 -11.3,48.5 -9.1,49.2 -6.9,50.0 -4.7,50.6 -2.5,50.6 -0.3,50.3 1.9,51.0 4.2,49.4 6.7,50.2 9.4,50.0 12.2,49.3 15.0,48.8 17.6,46.6 19.7,47.3" fill="none" stroke="rgb(80,68,68)" stroke-width="1.3654568341181017" stroke-linejoin="round" stroke-linecap="round" filter="url(#fuzzy_av_1779093955017_xjx28zk7uh8)" opacity="0.7750295542264609"/><polyline points="-39.4,30.7 -39.3,33.6 -37.6,36.6 -35.7,36.8 -33.9,38.8 -32.2,39.3 -30.5,41.9 -28.6,42.8 -26.6,44.5 -24.4,44.7 -22.0,45.2 -19.6,47.3 -17.1,47.0 -14.6,47.5 -12.2,49.1 -9.9,49.1 -7.5,48.9 -5.2,50.4 -2.8,49.5 -0.4,49.8 2.0,50.5 4.4,49.0 7.1,49.3 10.1,50.1 13.6,49.7 16.2,47.2" fill="none" stroke="rgb(80,68,68)" stroke-width="0.7669130581761329" stroke-linejoin="round" stroke-linecap="round" filter="url(#fuzzy_av_1779093955017_xjx28zk7uh8)" opacity="0.987798065661308"/><polyline points="-33.5,37.7 -32.5,38.0 -31.4,39.6 -29.5,40.4 -27.3,43.6 -25.1,44.3 -22.9,44.0 -20.8,46.4 -18.8,45.9 -16.7,47.4 -14.6,48.3 -12.4,49.1 -10.2,49.7 -8.0,49.2 -5.8,50.6 -3.6,49.7 -1.4,49.2 0.9,49.8 3.2,50.2 5.6,49.8 8.0,48.5 10.5,48.7 13.0,48.2 15.5,46.7 18.0,46.9 20.5,46.1 23.0,43.8 25.6,43.7 28.1,42.2 30.8,41.7 33.4,39.3 36.2,38.3 38.8,37.2 41.2,34.7 43.1,32.7 44.3,32.0" fill="none" stroke="rgb(80,68,68)" stroke-width="2.1089321948713846" stroke-linejoin="round" stroke-linecap="round" filter="url(#fuzzy_av_1779093955017_xjx28zk7uh8)" opacity="0.9952660410638531"/></g><path d="M -7.9367964913455005 13.590451794349441 Q 6.851024874856264 15.021235821831667, -0.5428858082446184 4.724473433549257" fill="none" stroke="#111" stroke-width="2.226073165356288" stroke-linejoin="round" filter="url(#fuzzy_av_1779093955017_xjx28zk7uh8)"/><polyline points="-16.8,43.9 -16.6,43.2 -16.5,42.6 -16.3,42.0 -16.1,41.3 -16.0,40.7 -15.8,40.1 -15.6,39.6 -15.4,39.0 -15.2,38.4 -15.0,37.9 -14.8,37.3 -14.5,36.8 -14.3,36.3 -14.1,35.8 -13.8,35.3 -13.6,34.8 -13.3,34.3 -13.1,33.9 -12.8,33.4 -12.5,33.0 -12.2,32.6 -11.9,32.2 -11.6,31.8 -11.3,31.4 -11.0,31.0 -10.7,30.6 -10.4,30.3 -10.1,30.0 -9.8,29.6 -9.4,29.3 -9.1,29.0 -8.8,28.8 -8.4,28.5 -8.1,28.2 -7.7,28.0 -7.4,27.8 -7.0,27.5 -6.6,27.3 -6.3,27.2 -5.9,27.0 -5.5,26.8 -5.1,26.7 -4.8,26.6 -4.4,26.4 -4.0,26.3 -3.6,26.2 -3.2,26.2 -2.8,26.1 -2.4,26.1 -2.0,26.0 -1.6,26.0 -1.1,26.0 -0.7,26.0 -0.3,26.1 0.1,26.1 0.5,26.2 1.0,26.3 1.4,26.4 1.8,26.5 2.3,26.6 2.7,26.7 3.1,26.9 3.6,27.1 4.0,27.2 4.4,27.5 4.9,27.7 5.3,27.9 5.8,28.2 6.2,28.4 6.7,28.7 7.1,29.0 7.6,29.3 8.0,29.7 8.5,30.0 8.9,30.4 9.4,30.8 9.8,31.2 10.3,31.6 10.7,32.1 11.2,32.5 11.6,33.0 12.1,33.5 12.5,34.0 13.0,34.5 13.4,35.1 13.9,35.6 14.3,36.2 14.8,36.8 15.2,37.4 15.6,38.1 16.1,38.7 16.5,39.4 17.0,40.1 17.4,40.8 17.9,41.5 18.3,42.3 18.7,43.1 19.2,43.9 19.6,44.7 20.0,45.5 19.6,44.7 19.2,43.9 18.7,43.1 18.3,42.3 17.9,41.5 17.4,40.8 17.0,40.1 16.5,39.4 16.1,38.7 15.6,38.1 15.2,37.4 14.8,36.8 14.3,36.2 13.9,35.6 13.4,35.1 13.0,34.5 12.5,34.0 12.1,33.5 11.6,33.0 11.2,32.5 10.7,32.1 10.3,31.6 9.8,31.2 9.4,30.8 8.9,30.4 8.5,30.0 8.0,29.7 7.6,29.3 7.1,29.0 6.7,28.7 6.2,28.4 5.8,28.2 5.3,27.9 4.9,27.7 4.4,27.5 4.0,27.2 3.6,27.1 3.1,26.9 2.7,26.7 2.3,26.6 1.8,26.5 1.4,26.4 1.0,26.3 0.5,26.2 0.1,26.1 -0.3,26.1 -0.7,26.0 -1.1,26.0 -1.6,26.0 -2.0,26.0 -2.4,26.1 -2.8,26.1 -3.2,26.2 -3.6,26.2 -4.0,26.3 -4.4,26.4 -4.8,26.6 -5.1,26.7 -5.5,26.8 -5.9,27.0 -6.3,27.2 -6.6,27.3 -7.0,27.5 -7.4,27.8 -7.7,28.0 -8.1,28.2 -8.4,28.5 -8.8,28.8 -9.1,29.0 -9.4,29.3 -9.8,29.6 -10.1,30.0 -10.4,30.3 -10.7,30.6 -11.0,31.0 -11.3,31.4 -11.6,31.8 -11.9,32.2 -12.2,32.6 -12.5,33.0 -12.8,33.4 -13.1,33.9 -13.3,34.3 -13.6,34.8 -13.8,35.3 -14.1,35.8 -14.3,36.3 -14.5,36.8 -14.8,37.3 -15.0,37.9 -15.2,38.4 -15.4,39.0 -15.6,39.6 -15.8,40.1 -16.0,40.7 -16.1,41.3 -16.3,42.0 -16.5,42.6 -16.6,43.2" fill="rgb(215,127,140)" stroke="#111" stroke-width="2.6314143464028716" stroke-linejoin="round" filter="url(#fuzzy_av_1779093955017_xjx28zk7uh8)"/></g><g class="accessory-svg accessory-microphone" transform="translate(65.9 30.0) rotate(-3.1) scale(1.204)">
      <rect x="-5" y="-12" width="10" height="15" rx="5" fill="#7C3AED" stroke="#111827" stroke-width="1.1"/><path d="M-9-2c0 6 18 6 18 0M0 4v7M-5 12h10" fill="none" stroke="#111827" stroke-width="1.3"/><path d="M-2-8h4M-2-4h4" stroke="#f8fafc" stroke-width=".8"/>
    </g><g class="accessory-svg accessory-speech" transform="translate(-20.2 73.5) rotate(-10.8) scale(0.962)">
      <path d="M-11-7h22v13H1l-6 6 1-6h-7z" fill="#f8fafc" stroke="#111827" stroke-width="1.1"/><circle cx="-5" cy="0" r="1.3" fill="#8B5CF6"/><circle cx="0" cy="0" r="1.3" fill="#8B5CF6"/><circle cx="5" cy="0" r="1.3" fill="#8B5CF6"/>
    </g><g class="accessory-svg accessory-keyboard" transform="translate(-77.2 10.1) rotate(-1.2) scale(1.047)">
      <rect x="-12" y="-7" width="24" height="14" rx="2" fill="#7C3AED" stroke="#111827" stroke-width="1"/><g fill="#f8fafc" opacity=".85"><rect x="-9" y="-4" width="3" height="2"/><rect x="-4" y="-4" width="3" height="2"/><rect x="1" y="-4" width="3" height="2"/><rect x="6" y="-4" width="3" height="2"/><rect x="-7" y="1" width="14" height="2"/></g>
    </g><g class="accessory-svg accessory-phone" transform="translate(-9.1 -75.5) rotate(-11.3) scale(0.908)">
      <rect x="-6" y="-12" width="12" height="24" rx="3" fill="#7C3AED" stroke="#111827" stroke-width="1.1"/><rect x="-4" y="-8" width="8" height="15" fill="#38bdf8" opacity=".7"/><circle cx="0" cy="9" r="1" fill="#f8fafc"/>
    </g><g class="accessory-svg accessory-speech" transform="translate(77.3 7.1) rotate(0.1) scale(0.903)">
      <path d="M-11-7h22v13H1l-6 6 1-6h-7z" fill="#f8fafc" stroke="#111827" stroke-width="1.1"/><circle cx="-5" cy="0" r="1.3" fill="#8B5CF6"/><circle cx="0" cy="0" r="1.3" fill="#8B5CF6"/><circle cx="5" cy="0" r="1.3" fill="#8B5CF6"/>
    </g><g class="accessory-svg accessory-keyboard" transform="translate(-45.0 56.5) rotate(-6.9) scale(0.834)">
      <rect x="-12" y="-7" width="24" height="14" rx="2" fill="#7C3AED" stroke="#111827" stroke-width="1"/><g fill="#f8fafc" opacity=".85"><rect x="-9" y="-4" width="3" height="2"/><rect x="-4" y="-4" width="3" height="2"/><rect x="1" y="-4" width="3" height="2"/><rect x="6" y="-4" width="3" height="2"/><rect x="-7" y="1" width="14" height="2"/></g>
    </g><g class="accessory-svg accessory-sparkle" transform="translate(-59.0 -42.9) rotate(4.5) scale(1.057)">
      <path d="M0-12l3.5 7.5L12-3 5.8 2.7 7.5 11 0 6.7-7.5 11l1.7-8.3L-12-3l8.5-1.5z" fill="#fbbf24" stroke="#111827" stroke-width="1.1" stroke-linejoin="round"/>
    </g></svg>