<svg xmlns="http://www.w3.org/2000/svg" viewBox="-100 -100 200 200" width="400" height="400" role="img" aria-label="独狼 avatar"><defs>
      <filter id="fuzzy_av_1779093954972_31oifjpdd05" x="-8%" y="-8%" width="116%" height="116%">
        <feTurbulence baseFrequency="0.045" numOctaves="3" type="fractalNoise" result="noise"/>
        <feDisplacementMap in="SourceGraphic" in2="noise" scale="1.6"/>
      </filter>
      <clipPath id="leftEye_av_1779093954972_31oifjpdd05"><polyline points="-22.9,-1.5 -22.8,-2.2 -22.6,-2.9 -22.3,-3.5 -22.1,-4.2 -21.8,-4.8 -21.5,-5.5 -21.2,-6.1 -20.8,-6.6 -20.4,-7.2 -20.0,-7.7 -19.5,-8.2 -19.1,-8.7 -18.6,-9.2 -18.1,-9.6 -17.6,-10.0 -17.0,-10.6 -16.4,-11.2 -15.8,-11.8 -15.2,-12.3 -14.5,-12.7 -13.8,-13.1 -13.1,-13.5 -12.4,-13.7 -11.7,-14.0 -10.9,-14.2 -10.2,-14.3 -9.4,-14.4 -8.6,-14.4 -7.8,-14.4 -7.1,-14.4 -6.3,-14.3 -5.5,-14.1 -4.7,-14.0 -3.9,-13.8 -3.2,-13.6 -2.4,-13.3 -1.7,-13.0 -0.9,-12.7 -0.2,-12.4 0.5,-12.0 1.2,-11.7 1.9,-11.3 2.6,-10.9 3.2,-10.5 3.9,-10.1 4.5,-9.7 5.1,-9.2 5.6,-8.8 6.2,-8.4 6.7,-8.0 7.2,-7.5 7.7,-7.1 8.2,-6.7 8.6,-6.3 9.1,-5.9 9.5,-5.5 9.8,-5.1 10.2,-4.7 10.6,-4.4 10.9,-4.0 11.2,-3.7 11.5,-3.3 11.8,-3.0 12.0,-2.7 12.3,-2.4 12.5,-2.1 12.8,-1.8 13.0,-1.5 13.2,-1.2 13.4,-1.0 13.5,-0.7 13.7,-0.5 13.9,-0.3 14.0,-0.0 14.1,0.2 14.3,0.4 14.4,0.6 14.5,0.8 14.6,1.0 14.0,4.5 13.9,4.6 13.7,4.8 13.5,4.9 13.4,5.0 13.2,5.1 13.0,5.3 12.8,5.4 12.6,5.6 12.4,5.7 12.2,5.9 11.9,6.1 11.7,6.2 11.4,6.4 11.2,6.6 10.9,6.8 10.6,6.9 10.3,7.1 10.0,7.3 9.6,7.5 9.3,7.8 8.9,8.0 8.5,8.2 8.1,8.4 7.7,8.6 7.3,8.9 6.9,9.1 6.4,9.3 5.9,9.6 5.4,9.8 4.9,10.0 4.4,10.3 3.8,10.5 3.2,10.7 2.6,11.0 2.0,11.2 1.4,11.4 0.8,11.6 0.1,11.8 -0.5,12.0 -1.2,12.2 -1.9,12.4 -2.6,12.6 -3.3,12.7 -4.0,12.8 -4.7,12.9 -5.5,13.0 -6.2,13.1 -7.0,13.2 -7.7,13.2 -8.4,13.2 -9.2,13.2 -9.9,13.2 -10.7,13.1 -11.4,13.0 -12.1,12.9 -12.8,12.7 -13.5,12.5 -14.2,12.3 -14.9,12.1 -15.5,11.8 -16.2,11.5 -16.8,11.2 -17.4,10.8 -18.0,10.4 -18.5,10.2 -19.1,9.9 -19.6,9.6 -20.1,9.3 -20.5,8.9 -21.0,8.6 -21.4,8.2 -21.9,7.8 -22.3,7.4 -22.6,6.9 -23.0,6.5 -23.3,6.0 -23.6,5.5 -23.9,5.0 -24.2,4.5"/></clipPath>
      <clipPath id="rightEye_av_1779093954972_31oifjpdd05"><polyline points="-22.6,-1.0 -22.4,-1.7 -22.1,-2.4 -21.8,-3.0 -21.5,-3.7 -21.1,-4.3 -20.7,-4.9 -20.3,-5.5 -19.9,-6.1 -19.4,-6.6 -19.0,-7.1 -18.5,-7.6 -17.9,-8.1 -17.4,-8.5 -16.9,-8.9 -16.3,-9.3 -15.7,-10.0 -15.0,-10.5 -14.3,-11.1 -13.6,-11.6 -12.9,-12.0 -12.2,-12.4 -11.5,-12.7 -10.7,-13.0 -10.0,-13.2 -9.2,-13.4 -8.4,-13.6 -7.6,-13.7 -6.9,-13.7 -6.1,-13.8 -5.3,-13.7 -4.6,-13.7 -3.8,-13.6 -3.0,-13.4 -2.3,-13.3 -1.6,-13.1 -0.8,-12.9 -0.1,-12.6 0.6,-12.3 1.3,-12.1 1.9,-11.7 2.6,-11.4 3.2,-11.1 3.9,-10.7 4.5,-10.3 5.0,-10.0 5.6,-9.6 6.1,-9.2 6.7,-8.8 7.2,-8.4 7.6,-8.0 8.1,-7.6 8.5,-7.2 9.0,-6.9 9.4,-6.5 9.7,-6.1 10.1,-5.7 10.4,-5.4 10.8,-5.0 11.1,-4.7 11.4,-4.3 11.6,-4.0 11.9,-3.7 12.1,-3.4 12.4,-3.1 12.6,-2.8 12.8,-2.5 13.0,-2.2 13.2,-1.9 13.4,-1.7 13.5,-1.4 13.7,-1.2 13.8,-0.9 14.0,-0.7 14.1,-0.5 14.2,-0.3 14.3,-0.1 14.4,0.1 14.5,0.3 14.6,0.5 13.7,4.3 13.5,4.4 13.4,4.5 13.2,4.6 13.0,4.8 12.8,4.9 12.6,5.1 12.4,5.2 12.2,5.4 12.0,5.5 11.7,5.7 11.5,5.9 11.2,6.0 10.9,6.2 10.6,6.4 10.3,6.6 10.0,6.8 9.7,6.9 9.3,7.1 9.0,7.3 8.6,7.6 8.2,7.8 7.8,8.0 7.4,8.2 6.9,8.4 6.4,8.7 6.0,8.9 5.5,9.1 4.9,9.3 4.4,9.6 3.8,9.8 3.3,10.0 2.7,10.3 2.1,10.5 1.4,10.7 0.8,10.9 0.1,11.2 -0.6,11.4 -1.2,11.6 -1.9,11.7 -2.7,11.9 -3.4,12.1 -4.1,12.2 -4.9,12.4 -5.6,12.5 -6.4,12.6 -7.1,12.7 -7.9,12.8 -8.6,12.8 -9.4,12.8 -10.1,12.8 -10.9,12.8 -11.6,12.8 -12.4,12.7 -13.1,12.6 -13.8,12.4 -14.5,12.3 -15.2,12.1 -15.8,11.9 -16.5,11.6 -17.1,11.4 -17.7,11.0 -18.2,10.7 -18.8,10.3 -19.3,9.9 -19.8,9.6 -20.3,9.3 -20.7,9.0 -21.1,8.7 -21.5,8.3 -21.9,7.9 -22.3,7.5 -22.6,7.1 -23.0,6.7 -23.3,6.2 -23.5,5.7 -23.8,5.2 -24.0,4.7 -24.2,4.2 -24.3,3.6"/></clipPath>
      <linearGradient id="rainbow_av_1779093954972_31oifjpdd05" x1="0%" y1="0%" x2="100%" y2="0%">
        <stop offset="0%" stop-color="#374151"/><stop offset="32%" stop-color="#22D3EE"/><stop offset="100%" stop-color="#1F2937"/>
      </linearGradient>
      <linearGradient id="splitHair_av_1779093954972_31oifjpdd05" x1="0%" y1="0%" x2="100%" y2="0%">
        <stop offset="49%" stop-color="#111827"/><stop offset="51%" stop-color="#F9FAFB"/>
      </linearGradient>
      <radialGradient id="halo_av_1779093954972_31oifjpdd05"><stop offset="0%" stop-color="#374151" stop-opacity=".45"/><stop offset="100%" stop-color="#374151" stop-opacity="0"/></radialGradient>
    </defs><rect x="-100" y="-100" width="200" height="200" fill="#87CEEB"/><g opacity="1"><polyline id="faceContour" class="face-shape" points="54.2,-6.0 54.0,-3.5 54.1,-4.5 54.0,-4.0 53.7,-2.3 52.9,1.6 53.3,0.9 52.8,3.5 52.2,5.5 52.2,5.0 51.2,8.3 51.2,8.7 51.2,8.8 50.8,9.9 49.7,12.2 49.2,13.5 48.4,15.2 48.6,15.0 47.7,16.7 48.3,16.3 47.7,17.0 46.3,20.1 45.9,20.8 45.5,21.7 44.3,23.4 43.4,24.7 44.4,23.4 43.3,25.0 41.6,27.4 40.8,28.4 40.3,29.4 39.7,29.9 39.1,30.4 38.0,31.8 37.4,32.8 36.2,34.3 35.3,35.1 34.1,36.1 32.9,37.5 33.1,37.2 30.2,39.7 30.5,39.4 29.9,40.2 30.2,39.6 27.8,41.6 26.0,42.8 26.5,42.6 24.7,43.9 23.0,44.9 22.6,45.1 20.4,46.3 20.0,46.6 18.5,47.4 18.6,47.2 19.0,47.1 17.1,48.0 16.1,48.5 15.5,48.8 12.5,49.9 13.3,49.6 9.9,50.5 11.4,50.2 7.4,51.2 8.9,50.9 5.7,51.7 5.4,51.7 5.2,51.6 3.1,52.1 2.8,52.1 1.3,52.1 -0.3,52.3 -1.4,52.4 -0.7,52.3 -2.5,52.2 -4.2,52.2 -5.6,52.3 -7.2,52.0 -7.2,52.2 -10.5,51.5 -8.8,51.7 -10.1,51.6 -11.5,51.3 -14.0,50.7 -12.4,51.1 -16.0,49.9 -16.7,49.7 -18.1,49.3 -18.9,48.9 -21.6,47.7 -21.8,47.6 -22.3,47.4 -23.0,47.0 -23.2,47.0 -26.0,45.3 -25.5,45.6 -26.2,45.0 -28.0,43.9 -29.1,43.0 -28.6,43.6 -31.5,41.3 -31.6,41.2 -33.8,39.3 -32.9,40.1 -33.7,39.2 -35.5,37.6 -36.3,36.5 -36.3,36.7 -38.6,34.0 -38.8,33.8 -39.9,32.1 -40.9,31.3 -41.1,30.6 -42.7,28.5 -43.3,27.4 -43.9,26.9 -43.7,26.6 -44.1,25.9 -45.9,23.3 -45.1,24.5 -46.8,20.9 -47.9,19.0 -47.5,19.8 -48.0,18.7 -48.6,17.4 -49.2,15.8 -49.6,15.4 -49.9,14.1 -50.6,12.5 -51.5,9.1 -51.8,8.4 -51.8,7.5 -52.4,5.8 -52.8,5.1 -52.9,3.8 -53.2,2.4 -53.1,2.0 -53.5,-0.2 -54.0,-2.7 -54.3,-3.6 -54.2,-4.4 -54.4,-5.9 -54.5,-6.8 -54.4,-8.8 -54.6,-8.6 -54.7,-10.3 -54.5,-13.1 -54.6,-16.1 -54.5,-17.1 -54.3,-15.7 -54.5,-18.3 -54.1,-19.3 -54.1,-20.6 -53.9,-20.9 -53.7,-22.3 -53.5,-24.3 -52.9,-26.7 -52.8,-26.5 -52.1,-28.7 -52.4,-28.7 -51.4,-31.3 -50.5,-34.7 -50.3,-34.5 -50.4,-34.7 -49.2,-37.1 -48.9,-37.3 -48.5,-38.6 -48.4,-38.9 -46.6,-42.1 -47.4,-40.8 -45.2,-44.0 -44.5,-44.6 -44.2,-45.1 -44.2,-45.3 -42.9,-47.2 -41.3,-49.0 -41.8,-48.0 -40.8,-49.1 -39.2,-50.8 -38.8,-51.3 -38.6,-51.2 -37.7,-52.1 -35.6,-53.9 -33.4,-55.6 -32.6,-55.9 -33.8,-55.3 -31.4,-56.7 -29.5,-57.7 -28.5,-58.3 -29.6,-57.8 -28.2,-58.5 -24.4,-60.2 -24.3,-60.3 -22.3,-61.1 -21.3,-61.5 -19.7,-62.0 -21.0,-61.5 -16.9,-62.6 -16.6,-62.7 -16.0,-62.9 -15.1,-63.1 -14.3,-63.2 -11.4,-63.8 -11.7,-63.7 -8.5,-64.2 -8.9,-64.1 -7.1,-64.3 -6.4,-64.1 -3.3,-64.3 -1.2,-64.3 -1.4,-64.2 2.1,-64.1 0.7,-64.1 3.0,-64.0 4.6,-63.9 5.7,-63.7 8.5,-63.4 8.2,-63.3 10.5,-63.1 10.2,-63.0 11.5,-62.7 13.2,-62.4 14.8,-61.9 16.0,-61.4 17.6,-61.1 18.0,-60.7 18.5,-60.5 21.0,-59.9 23.9,-58.7 21.6,-59.5 24.2,-58.5 24.6,-58.1 28.5,-56.2 29.1,-56.0 30.1,-55.2 30.7,-55.0 32.7,-53.5 32.7,-53.5 34.8,-52.0 33.6,-52.7 35.0,-51.7 36.5,-50.8 38.2,-49.1 38.3,-49.1 38.8,-48.6 40.5,-46.9 41.8,-45.7 42.1,-45.2 42.2,-45.1 42.3,-44.9 44.1,-42.8 46.4,-39.7 46.7,-39.2 46.4,-39.3 47.5,-37.6 47.5,-37.6 48.2,-36.6 49.3,-34.6 48.8,-35.0 49.7,-33.8 51.0,-30.8 51.0,-30.4 51.9,-28.4 51.8,-28.6 52.2,-26.5 52.8,-25.7 53.2,-22.9 53.0,-24.7 53.3,-23.0 53.5,-21.0 53.7,-20.2 54.0,-17.9 54.3,-16.3 54.3,-14.9 54.5,-13.2 54.3,-14.2 54.6,-13.2 54.5,-10.0 54.6,-10.8 54.5,-9.7 54.3,-8.4 54.2,-6.0 54.0,-3.5" fill="#ffc9a9" stroke="#111" stroke-width="2.2" stroke-linejoin="round" filter="url(#fuzzy_av_1779093954972_31oifjpdd05)"/><g id="leftEye" transform="translate(-25.3 -30.0)"><polyline points="-22.9,-1.5 -22.8,-2.2 -22.6,-2.9 -22.3,-3.5 -22.1,-4.2 -21.8,-4.8 -21.5,-5.5 -21.2,-6.1 -20.8,-6.6 -20.4,-7.2 -20.0,-7.7 -19.5,-8.2 -19.1,-8.7 -18.6,-9.2 -18.1,-9.6 -17.6,-10.0 -17.0,-10.6 -16.4,-11.2 -15.8,-11.8 -15.2,-12.3 -14.5,-12.7 -13.8,-13.1 -13.1,-13.5 -12.4,-13.7 -11.7,-14.0 -10.9,-14.2 -10.2,-14.3 -9.4,-14.4 -8.6,-14.4 -7.8,-14.4 -7.1,-14.4 -6.3,-14.3 -5.5,-14.1 -4.7,-14.0 -3.9,-13.8 -3.2,-13.6 -2.4,-13.3 -1.7,-13.0 -0.9,-12.7 -0.2,-12.4 0.5,-12.0 1.2,-11.7 1.9,-11.3 2.6,-10.9 3.2,-10.5 3.9,-10.1 4.5,-9.7 5.1,-9.2 5.6,-8.8 6.2,-8.4 6.7,-8.0 7.2,-7.5 7.7,-7.1 8.2,-6.7 8.6,-6.3 9.1,-5.9 9.5,-5.5 9.8,-5.1 10.2,-4.7 10.6,-4.4 10.9,-4.0 11.2,-3.7 11.5,-3.3 11.8,-3.0 12.0,-2.7 12.3,-2.4 12.5,-2.1 12.8,-1.8 13.0,-1.5 13.2,-1.2 13.4,-1.0 13.5,-0.7 13.7,-0.5 13.9,-0.3 14.0,-0.0 14.1,0.2 14.3,0.4 14.4,0.6 14.5,0.8 14.6,1.0 14.0,4.5 13.9,4.6 13.7,4.8 13.5,4.9 13.4,5.0 13.2,5.1 13.0,5.3 12.8,5.4 12.6,5.6 12.4,5.7 12.2,5.9 11.9,6.1 11.7,6.2 11.4,6.4 11.2,6.6 10.9,6.8 10.6,6.9 10.3,7.1 10.0,7.3 9.6,7.5 9.3,7.8 8.9,8.0 8.5,8.2 8.1,8.4 7.7,8.6 7.3,8.9 6.9,9.1 6.4,9.3 5.9,9.6 5.4,9.8 4.9,10.0 4.4,10.3 3.8,10.5 3.2,10.7 2.6,11.0 2.0,11.2 1.4,11.4 0.8,11.6 0.1,11.8 -0.5,12.0 -1.2,12.2 -1.9,12.4 -2.6,12.6 -3.3,12.7 -4.0,12.8 -4.7,12.9 -5.5,13.0 -6.2,13.1 -7.0,13.2 -7.7,13.2 -8.4,13.2 -9.2,13.2 -9.9,13.2 -10.7,13.1 -11.4,13.0 -12.1,12.9 -12.8,12.7 -13.5,12.5 -14.2,12.3 -14.9,12.1 -15.5,11.8 -16.2,11.5 -16.8,11.2 -17.4,10.8 -18.0,10.4 -18.5,10.2 -19.1,9.9 -19.6,9.6 -20.1,9.3 -20.5,8.9 -21.0,8.6 -21.4,8.2 -21.9,7.8 -22.3,7.4 -22.6,6.9 -23.0,6.5 -23.3,6.0 -23.6,5.5 -23.9,5.0 -24.2,4.5" fill="#fff" stroke="#fff" stroke-width="0" stroke-linejoin="round" filter="url(#fuzzy_av_1779093954972_31oifjpdd05)"/><polyline points="22.5,5.6 22.7,5.0 22.9,4.3 23.0,3.6 23.1,2.8 23.2,2.1 23.2,1.4 23.2,0.7 23.1,-0.0 23.0,-0.8 -22.9,-1.5 -22.8,-2.2 -22.6,-2.9 -22.3,-3.5 -22.1,-4.2 -21.8,-4.8 -21.5,-5.5 -21.2,-6.1 -20.8,-6.6 -20.4,-7.2 -20.0,-7.7 -19.5,-8.2 -19.1,-8.7 -18.6,-9.2 -18.1,-9.6 -17.6,-10.0 -17.0,-10.6 -16.4,-11.2 -15.8,-11.8 -15.2,-12.3 -14.5,-12.7 -13.8,-13.1 -13.1,-13.5 -12.4,-13.7 -11.7,-14.0 -10.9,-14.2 -10.2,-14.3 -9.4,-14.4 -8.6,-14.4 -7.8,-14.4 -7.1,-14.4 -6.3,-14.3 -5.5,-14.1 -4.7,-14.0 -3.9,-13.8 -3.2,-13.6 -2.4,-13.3 -1.7,-13.0 -0.9,-12.7 -0.2,-12.4 0.5,-12.0 1.2,-11.7 1.9,-11.3 2.6,-10.9 3.2,-10.5 3.9,-10.1 4.5,-9.7 5.1,-9.2 5.6,-8.8 6.2,-8.4 6.7,-8.0 7.2,-7.5 7.7,-7.1 8.2,-6.7 8.6,-6.3 9.1,-5.9 9.5,-5.5 9.8,-5.1 10.2,-4.7 10.6,-4.4 10.9,-4.0 11.2,-3.7 11.5,-3.3 11.8,-3.0 12.0,-2.7 12.3,-2.4 12.5,-2.1 12.8,-1.8 13.0,-1.5 13.2,-1.2 13.4,-1.0 13.5,-0.7 13.7,-0.5 13.9,-0.3 14.0,-0.0 14.1,0.2 14.3,0.4 14.4,0.6 14.5,0.8 14.6,1.0 -14.7,1.1 -14.8,1.3 -14.8,1.5 -14.9,1.6 -15.0,1.8 -15.0,1.9 -15.1,2.0 -15.1,2.2 -15.2,2.3 -15.2,2.4" fill="none" stroke="#111" stroke-width="3.010340801982025" stroke-linejoin="round" stroke-linecap="round" filter="url(#fuzzy_av_1779093954972_31oifjpdd05)"/><polyline points="25.2,-1.3 25.2,-0.7 25.2,-0.1 25.2,0.5 25.2,1.1 25.1,1.7 24.9,2.3 24.8,2.9 24.6,3.4 24.4,4.0 -24.2,4.5 -23.9,5.0 -23.6,5.5 -23.3,6.0 -23.0,6.5 -22.6,6.9 -22.3,7.4 -21.9,7.8 -21.4,8.2 -21.0,8.6 -20.5,8.9 -20.1,9.3 -19.6,9.6 -19.1,9.9 -18.5,10.2 -18.0,10.4 -17.4,10.8 -16.8,11.2 -16.2,11.5 -15.5,11.8 -14.9,12.1 -14.2,12.3 -13.5,12.5 -12.8,12.7 -12.1,12.9 -11.4,13.0 -10.7,13.1 -9.9,13.2 -9.2,13.2 -8.4,13.2 -7.7,13.2 -7.0,13.2 -6.2,13.1 -5.5,13.0 -4.7,12.9 -4.0,12.8 -3.3,12.7 -2.6,12.6 -1.9,12.4 -1.2,12.2 -0.5,12.0 0.1,11.8 0.8,11.6 1.4,11.4 2.0,11.2 2.6,11.0 3.2,10.7 3.8,10.5 4.4,10.3 4.9,10.0 5.4,9.8 5.9,9.6 6.4,9.3 6.9,9.1 7.3,8.9 7.7,8.6 8.1,8.4 8.5,8.2 8.9,8.0 9.3,7.8 9.6,7.5 10.0,7.3 10.3,7.1 10.6,6.9 10.9,6.8 11.2,6.6 11.4,6.4 11.7,6.2 11.9,6.1 12.2,5.9 12.4,5.7 12.6,5.6 12.8,5.4 13.0,5.3 13.2,5.1 13.4,5.0 13.5,4.9 13.7,4.8 13.9,4.6 14.0,4.5 -14.1,4.4 -14.3,4.3 -14.4,4.2 -14.5,4.1 -14.6,4.0 -14.7,3.9 -14.8,3.8 -14.9,3.7 -15.0,3.6 -15.1,3.5" fill="none" stroke="#111" stroke-width="2.4022443501404016" stroke-linejoin="round" stroke-linecap="round" filter="url(#fuzzy_av_1779093954972_31oifjpdd05)"/><circle r="4.087104241864104" cx="8.551431095495182" cy="4.975990203531213" stroke="#111" fill="none" stroke-width="0.9480286108398494" filter="url(#fuzzy_av_1779093954972_31oifjpdd05)" clip-path="url(#leftEye_av_1779093954972_31oifjpdd05)"/><circle r="3.1519692280593157" cx="7.3577105546915185" cy="5.362622934980303" stroke="#111" fill="none" stroke-width="0.8566559966578686" filter="url(#fuzzy_av_1779093954972_31oifjpdd05)" clip-path="url(#leftEye_av_1779093954972_31oifjpdd05)"/><circle r="2.7507548582280976" cx="9.402588724710405" cy="6.210028964390284" stroke="#111" fill="none" stroke-width="0.8295421104117284" filter="url(#fuzzy_av_1779093954972_31oifjpdd05)" clip-path="url(#leftEye_av_1779093954972_31oifjpdd05)"/><circle r="3.383837903886393" cx="9.419866803346789" cy="6.785467493289296" stroke="#111" fill="none" stroke-width="1.0776441982562754" filter="url(#fuzzy_av_1779093954972_31oifjpdd05)" clip-path="url(#leftEye_av_1779093954972_31oifjpdd05)"/><circle r="2.3670242984123737" cx="8.199271719123068" cy="8.310258206991362" stroke="#111" fill="none" stroke-width="1.191148819426015" filter="url(#fuzzy_av_1779093954972_31oifjpdd05)" clip-path="url(#leftEye_av_1779093954972_31oifjpdd05)"/><circle r="2.415603143417236" cx="6.725905184529644" cy="4.848253075233637" stroke="#111" fill="none" stroke-width="1.2513529523408744" filter="url(#fuzzy_av_1779093954972_31oifjpdd05)" clip-path="url(#leftEye_av_1779093954972_31oifjpdd05)"/><circle r="3.676483192903945" cx="6.29392581276547" cy="7.292517521305457" stroke="#111" fill="none" stroke-width="1.2850225939118876" filter="url(#fuzzy_av_1779093954972_31oifjpdd05)" clip-path="url(#leftEye_av_1779093954972_31oifjpdd05)"/><circle r="3.2888639677681715" cx="6.605114166121766" cy="5.438881769511216" stroke="#111" fill="none" stroke-width="1.079038145894366" filter="url(#fuzzy_av_1779093954972_31oifjpdd05)" clip-path="url(#leftEye_av_1779093954972_31oifjpdd05)"/><circle r="2.8508513564605034" cx="7.116883143719885" cy="4.932301179202851" stroke="#111" fill="none" stroke-width="1.1240847321901102" filter="url(#fuzzy_av_1779093954972_31oifjpdd05)" clip-path="url(#leftEye_av_1779093954972_31oifjpdd05)"/><circle r="3.6731920809290832" cx="7.166395370880589" cy="6.58137224291438" stroke="#111" fill="none" stroke-width="1.3941659579275965" filter="url(#fuzzy_av_1779093954972_31oifjpdd05)" clip-path="url(#leftEye_av_1779093954972_31oifjpdd05)"/></g><g id="rightEye" transform="translate(25.5 -26.4)"><polyline points="-22.6,-1.0 -22.4,-1.7 -22.1,-2.4 -21.8,-3.0 -21.5,-3.7 -21.1,-4.3 -20.7,-4.9 -20.3,-5.5 -19.9,-6.1 -19.4,-6.6 -19.0,-7.1 -18.5,-7.6 -17.9,-8.1 -17.4,-8.5 -16.9,-8.9 -16.3,-9.3 -15.7,-10.0 -15.0,-10.5 -14.3,-11.1 -13.6,-11.6 -12.9,-12.0 -12.2,-12.4 -11.5,-12.7 -10.7,-13.0 -10.0,-13.2 -9.2,-13.4 -8.4,-13.6 -7.6,-13.7 -6.9,-13.7 -6.1,-13.8 -5.3,-13.7 -4.6,-13.7 -3.8,-13.6 -3.0,-13.4 -2.3,-13.3 -1.6,-13.1 -0.8,-12.9 -0.1,-12.6 0.6,-12.3 1.3,-12.1 1.9,-11.7 2.6,-11.4 3.2,-11.1 3.9,-10.7 4.5,-10.3 5.0,-10.0 5.6,-9.6 6.1,-9.2 6.7,-8.8 7.2,-8.4 7.6,-8.0 8.1,-7.6 8.5,-7.2 9.0,-6.9 9.4,-6.5 9.7,-6.1 10.1,-5.7 10.4,-5.4 10.8,-5.0 11.1,-4.7 11.4,-4.3 11.6,-4.0 11.9,-3.7 12.1,-3.4 12.4,-3.1 12.6,-2.8 12.8,-2.5 13.0,-2.2 13.2,-1.9 13.4,-1.7 13.5,-1.4 13.7,-1.2 13.8,-0.9 14.0,-0.7 14.1,-0.5 14.2,-0.3 14.3,-0.1 14.4,0.1 14.5,0.3 14.6,0.5 13.7,4.3 13.5,4.4 13.4,4.5 13.2,4.6 13.0,4.8 12.8,4.9 12.6,5.1 12.4,5.2 12.2,5.4 12.0,5.5 11.7,5.7 11.5,5.9 11.2,6.0 10.9,6.2 10.6,6.4 10.3,6.6 10.0,6.8 9.7,6.9 9.3,7.1 9.0,7.3 8.6,7.6 8.2,7.8 7.8,8.0 7.4,8.2 6.9,8.4 6.4,8.7 6.0,8.9 5.5,9.1 4.9,9.3 4.4,9.6 3.8,9.8 3.3,10.0 2.7,10.3 2.1,10.5 1.4,10.7 0.8,10.9 0.1,11.2 -0.6,11.4 -1.2,11.6 -1.9,11.7 -2.7,11.9 -3.4,12.1 -4.1,12.2 -4.9,12.4 -5.6,12.5 -6.4,12.6 -7.1,12.7 -7.9,12.8 -8.6,12.8 -9.4,12.8 -10.1,12.8 -10.9,12.8 -11.6,12.8 -12.4,12.7 -13.1,12.6 -13.8,12.4 -14.5,12.3 -15.2,12.1 -15.8,11.9 -16.5,11.6 -17.1,11.4 -17.7,11.0 -18.2,10.7 -18.8,10.3 -19.3,9.9 -19.8,9.6 -20.3,9.3 -20.7,9.0 -21.1,8.7 -21.5,8.3 -21.9,7.9 -22.3,7.5 -22.6,7.1 -23.0,6.7 -23.3,6.2 -23.5,5.7 -23.8,5.2 -24.0,4.7 -24.2,4.2 -24.3,3.6" fill="#fff" stroke="#fff" stroke-width="0" stroke-linejoin="round" filter="url(#fuzzy_av_1779093954972_31oifjpdd05)"/><polyline points="-23.0,6.0 -23.2,5.4 -23.3,4.7 -23.3,4.0 -23.4,3.2 -23.3,2.5 -23.3,1.8 -23.2,1.1 -23.0,0.4 -22.8,-0.3 -22.6,-1.0 -22.4,-1.7 -22.1,-2.4 -21.8,-3.0 -21.5,-3.7 -21.1,-4.3 -20.7,-4.9 -20.3,-5.5 -19.9,-6.1 -19.4,-6.6 -19.0,-7.1 -18.5,-7.6 -17.9,-8.1 -17.4,-8.5 -16.9,-8.9 -16.3,-9.3 -15.7,-10.0 -15.0,-10.5 -14.3,-11.1 -13.6,-11.6 -12.9,-12.0 -12.2,-12.4 -11.5,-12.7 -10.7,-13.0 -10.0,-13.2 -9.2,-13.4 -8.4,-13.6 -7.6,-13.7 -6.9,-13.7 -6.1,-13.8 -5.3,-13.7 -4.6,-13.7 -3.8,-13.6 -3.0,-13.4 -2.3,-13.3 -1.6,-13.1 -0.8,-12.9 -0.1,-12.6 0.6,-12.3 1.3,-12.1 1.9,-11.7 2.6,-11.4 3.2,-11.1 3.9,-10.7 4.5,-10.3 5.0,-10.0 5.6,-9.6 6.1,-9.2 6.7,-8.8 7.2,-8.4 7.6,-8.0 8.1,-7.6 8.5,-7.2 9.0,-6.9 9.4,-6.5 9.7,-6.1 10.1,-5.7 10.4,-5.4 10.8,-5.0 11.1,-4.7 11.4,-4.3 11.6,-4.0 11.9,-3.7 12.1,-3.4 12.4,-3.1 12.6,-2.8 12.8,-2.5 13.0,-2.2 13.2,-1.9 13.4,-1.7 13.5,-1.4 13.7,-1.2 13.8,-0.9 14.0,-0.7 14.1,-0.5 14.2,-0.3 14.3,-0.1 14.4,0.1 14.5,0.3 14.6,0.5 14.7,0.7 14.7,0.8 14.8,1.0 14.9,1.2 14.9,1.3 15.0,1.4 15.0,1.6 15.1,1.7 15.1,1.8 15.1,2.0" fill="none" stroke="#111" stroke-width="3.157369834439729" stroke-linejoin="round" stroke-linecap="round" filter="url(#fuzzy_av_1779093954972_31oifjpdd05)"/><polyline points="-24.0,-2.7 -24.2,-2.0 -24.4,-1.3 -24.5,-0.7 -24.6,-0.0 -24.6,0.6 -24.6,1.3 -24.6,1.9 -24.5,2.5 -24.4,3.1 -24.3,3.6 -24.2,4.2 -24.0,4.7 -23.8,5.2 -23.5,5.7 -23.3,6.2 -23.0,6.7 -22.6,7.1 -22.3,7.5 -21.9,7.9 -21.5,8.3 -21.1,8.7 -20.7,9.0 -20.3,9.3 -19.8,9.6 -19.3,9.9 -18.8,10.3 -18.2,10.7 -17.7,11.0 -17.1,11.4 -16.5,11.6 -15.8,11.9 -15.2,12.1 -14.5,12.3 -13.8,12.4 -13.1,12.6 -12.4,12.7 -11.6,12.8 -10.9,12.8 -10.1,12.8 -9.4,12.8 -8.6,12.8 -7.9,12.8 -7.1,12.7 -6.4,12.6 -5.6,12.5 -4.9,12.4 -4.1,12.2 -3.4,12.1 -2.7,11.9 -1.9,11.7 -1.2,11.6 -0.6,11.4 0.1,11.2 0.8,10.9 1.4,10.7 2.1,10.5 2.7,10.3 3.3,10.0 3.8,9.8 4.4,9.6 4.9,9.3 5.5,9.1 6.0,8.9 6.4,8.7 6.9,8.4 7.4,8.2 7.8,8.0 8.2,7.8 8.6,7.6 9.0,7.3 9.3,7.1 9.7,6.9 10.0,6.8 10.3,6.6 10.6,6.4 10.9,6.2 11.2,6.0 11.5,5.9 11.7,5.7 12.0,5.5 12.2,5.4 12.4,5.2 12.6,5.1 12.8,4.9 13.0,4.8 13.2,4.6 13.4,4.5 13.5,4.4 13.7,4.3 13.8,4.1 14.0,4.0 14.1,3.9 14.2,3.8 14.4,3.7 14.5,3.6 14.6,3.5 14.7,3.4 14.8,3.3 14.9,3.2" fill="none" stroke="#111" stroke-width="2.08773636780003" stroke-linejoin="round" stroke-linecap="round" filter="url(#fuzzy_av_1779093954972_31oifjpdd05)"/><circle r="3.5052048755515184" cx="5.261047126456651" cy="-2.453008307234094" stroke="#111" fill="none" stroke-width="0.9306206843552571" filter="url(#fuzzy_av_1779093954972_31oifjpdd05)" clip-path="url(#rightEye_av_1779093954972_31oifjpdd05)"/><circle r="2.655960006760558" cx="4.979969579453165" cy="-0.38979218592931897" stroke="#111" fill="none" stroke-width="1.0162922631126823" filter="url(#fuzzy_av_1779093954972_31oifjpdd05)" clip-path="url(#rightEye_av_1779093954972_31oifjpdd05)"/><circle r="2.7920540377933176" cx="4.111660037435275" cy="-1.5736276191606837" stroke="#111" fill="none" stroke-width="1.0729481211162106" filter="url(#fuzzy_av_1779093954972_31oifjpdd05)" clip-path="url(#rightEye_av_1779093954972_31oifjpdd05)"/><circle r="2.506239636433756" cx="5.164130035298863" cy="-4.101633244822596" stroke="#111" fill="none" stroke-width="1.345567412014117" filter="url(#fuzzy_av_1779093954972_31oifjpdd05)" clip-path="url(#rightEye_av_1779093954972_31oifjpdd05)"/><circle r="4.427111087432156" cx="4.871555847376081" cy="-3.762219115062193" stroke="#111" fill="none" stroke-width="0.901491118471164" filter="url(#fuzzy_av_1779093954972_31oifjpdd05)" clip-path="url(#rightEye_av_1779093954972_31oifjpdd05)"/><circle r="2.5724927287796504" cx="5.799548762089518" cy="-0.6436421088224367" stroke="#111" fill="none" stroke-width="1.2630984770927476" filter="url(#fuzzy_av_1779093954972_31oifjpdd05)" clip-path="url(#rightEye_av_1779093954972_31oifjpdd05)"/><circle r="3.026632530408858" cx="3.2561241495746835" cy="-0.8782363439107144" stroke="#111" fill="none" stroke-width="0.9380029960364232" filter="url(#fuzzy_av_1779093954972_31oifjpdd05)" clip-path="url(#rightEye_av_1779093954972_31oifjpdd05)"/><circle r="3.576402899348042" cx="6.26177096296938" cy="-1.0221717481749928" stroke="#111" fill="none" stroke-width="1.3251670013765544" filter="url(#fuzzy_av_1779093954972_31oifjpdd05)" clip-path="url(#rightEye_av_1779093954972_31oifjpdd05)"/><circle r="2.679393975912989" cx="4.163298271918043" cy="-1.95706015743583" stroke="#111" fill="none" stroke-width="1.1871602550158906" filter="url(#fuzzy_av_1779093954972_31oifjpdd05)" clip-path="url(#rightEye_av_1779093954972_31oifjpdd05)"/><circle r="3.4294100660121396" cx="4.665938855741025" cy="-3.3103227706683374" stroke="#111" fill="none" stroke-width="0.8252834973560323" filter="url(#fuzzy_av_1779093954972_31oifjpdd05)" clip-path="url(#rightEye_av_1779093954972_31oifjpdd05)"/></g><g id="hairs"><polyline points="-22.3,-61.6 -21.3,-62.3 -20.3,-62.9 -19.3,-63.6 -18.2,-63.4 -17.1,-63.6 -16.2,-63.0 -15.3,-63.6 -14.6,-64.5 -13.9,-64.8 -13.5,-63.7 -13.2,-65.0 -13.3,-64.5 -13.6,-62.8 -14.3,-62.6 -15.3,-61.7 -16.6,-61.4 -18.3,-60.5 -20.6,-60.0 -23.3,-59.4 -26.5,-58.5 -29.8,-57.4 -33.4,-56.3" fill="none" stroke="rgb(128,128,128)" stroke-width="0.720893091512892" stroke-linejoin="round" stroke-linecap="round" filter="url(#fuzzy_av_1779093954972_31oifjpdd05)" opacity="0.9436044578138189"/><polyline points="-32.6,-57.3 -32.6,-57.2 -31.6,-57.2 -30.5,-58.3 -29.5,-58.7 -28.7,-60.1 -27.8,-58.6 -27.0,-59.7 -26.4,-60.9 -26.0,-59.7 -25.8,-60.8 -26.0,-59.3 -26.5,-58.6 -27.2,-58.1 -28.3,-58.0 -29.7,-56.7 -31.5,-53.7 -33.6,-53.5 -36.1,-50.0 -39.0,-48.2 -42.5,-46.8 -47.4,-42.3" fill="none" stroke="rgb(128,128,128)" stroke-width="2.4329368355930434" stroke-linejoin="round" stroke-linecap="round" filter="url(#fuzzy_av_1779093954972_31oifjpdd05)" opacity="0.8327517185961404"/><polyline points="44.1,-43.2 45.3,-42.0 45.1,-41.2 43.9,-39.7 42.2,-37.7 39.7,-36.7 36.7,-35.6 33.0,-33.4 28.6,-29.9 23.6,-29.0 17.9,-25.6 11.5,-22.3 4.4,-19.4 -3.5,-15.4 -12.0,-12.3 -21.2,-8.7 -31.1,-5.2 -41.6,-0.3 -52.9,2.5" fill="none" stroke="rgb(128,128,128)" stroke-width="1.5290191741937806" stroke-linejoin="round" stroke-linecap="round" filter="url(#fuzzy_av_1779093954972_31oifjpdd05)" opacity="0.765016281203612"/><polyline points="-1.4,-64.5 0.6,-64.7 1.6,-65.7 2.5,-65.3 3.4,-64.9 4.1,-64.8 4.6,-65.2 4.7,-63.6 4.4,-64.7 3.8,-63.4 2.7,-62.7 1.3,-62.7 -0.6,-61.9 -2.9,-61.9 -5.7,-61.5 -9.0,-61.1 -12.9,-58.7 -17.3,-58.0 -22.3,-57.1 -27.6,-57.7 -33.4,-55.9" fill="none" stroke="rgb(128,128,128)" stroke-width="1.9218848917533764" stroke-linejoin="round" stroke-linecap="round" filter="url(#fuzzy_av_1779093954972_31oifjpdd05)" opacity="0.9945810568238695"/><polyline points="-8.5,-64.7 -8.2,-64.9 -7.2,-65.2 -5.9,-64.8 -4.6,-65.9 -3.5,-65.8 -2.7,-65.1 -2.2,-65.6 -1.9,-63.8 -1.9,-64.9 -2.0,-63.6 -2.5,-62.5 -3.3,-62.1 -4.4,-62.5 -6.0,-61.6 -7.9,-59.8 -10.3,-58.4 -12.9,-58.3 -16.0,-56.1 -19.4,-56.3 -23.3,-54.9 -27.6,-52.3 -32.5,-50.6 -37.9,-48.9 -44.2,-46.4" fill="none" stroke="rgb(128,128,128)" stroke-width="2.445341978400999" stroke-linejoin="round" stroke-linecap="round" filter="url(#fuzzy_av_1779093954972_31oifjpdd05)" opacity="0.7942122617910229"/><polyline points="-50.3,-35.6 -50.0,-36.5 -49.6,-36.8 -49.2,-37.1 -48.8,-37.3 -48.4,-37.3 -48.1,-36.6 -47.7,-35.9 -47.4,-34.6 -47.2,-33.4 -47.1,-30.9 -47.2,-27.8 -47.3,-24.6 -47.4,-20.2 -47.7,-14.5 -48.0,-8.9 -48.4,-2.3 -48.9,6.3 -49.6,15.3" fill="none" stroke="rgb(128,128,128)" stroke-width="2.0211954277301305" stroke-linejoin="round" stroke-linecap="round" filter="url(#fuzzy_av_1779093954972_31oifjpdd05)" opacity="0.7523686802263656"/><polyline points="38.2,-49.9 38.3,-49.0 38.4,-48.4 38.2,-46.4 37.5,-44.9 36.3,-43.7 34.6,-42.8 32.4,-40.6 29.9,-38.3 26.8,-33.4 23.3,-30.8 19.2,-28.7 14.6,-25.2 9.4,-21.8 3.8,-16.5 -2.3,-12.2 -8.8,-8.7 -15.7,-3.5 -23.1,1.1 -31.0,6.2 -39.3,11.4 -48.0,18.4" fill="none" stroke="rgb(128,128,128)" stroke-width="1.5257186425178577" stroke-linejoin="round" stroke-linecap="round" filter="url(#fuzzy_av_1779093954972_31oifjpdd05)" opacity="0.9810902956638341"/><polyline points="5.7,-64.4 7.5,-65.2 8.7,-64.3 9.6,-63.4 10.4,-62.9 11.3,-64.2 12.1,-63.9 12.8,-62.9 13.3,-63.9 13.6,-63.2 13.6,-62.3 13.4,-61.3 12.9,-61.3 12.1,-61.3 10.9,-61.0 9.5,-60.7 7.7,-61.1 5.6,-61.5 3.0,-61.3 0.0,-61.4 -3.5,-61.5 -7.5,-61.2 -12.0,-62.1 -16.8,-61.5 -22.3,-61.9" fill="none" stroke="rgb(128,128,128)" stroke-width="2.1613000913649056" stroke-linejoin="round" stroke-linecap="round" filter="url(#fuzzy_av_1779093954972_31oifjpdd05)" opacity="0.8133482314409617"/><polyline points="-54.4,-7.2 -54.4,-7.5 -54.4,-9.5 -54.4,-11.2 -54.3,-14.1 -54.2,-15.3 -54.1,-16.9 -53.9,-19.9 -53.8,-20.7 -53.7,-22.5 -53.6,-23.1 -53.6,-23.4 -53.5,-23.5 -53.6,-23.7 -53.6,-23.5 -53.8,-22.3 -53.9,-21.5 -54.1,-20.7" fill="none" stroke="rgb(128,128,128)" stroke-width="1.558950323210825" stroke-linejoin="round" stroke-linecap="round" filter="url(#fuzzy_av_1779093954972_31oifjpdd05)" opacity="0.9872666368630056"/><polyline points="38.2,-49.4 38.4,-48.9 38.9,-49.0 39.3,-49.2 39.4,-47.1 39.2,-48.3 38.7,-47.5 38.0,-47.2 37.0,-46.5 35.7,-45.3 34.0,-45.5 31.9,-45.4 29.3,-44.4 26.3,-45.5 22.8,-44.6 18.9,-45.5 14.6,-46.5 9.9,-47.2 4.7,-47.1 -0.9,-48.3 -6.9,-49.2 -13.5,-49.8 -20.6,-51.7 -28.6,-52.5 -37.7,-53.5" fill="none" stroke="rgb(128,128,128)" stroke-width="1.2466129980844485" stroke-linejoin="round" stroke-linecap="round" filter="url(#fuzzy_av_1779093954972_31oifjpdd05)" opacity="0.8558741989139256"/><polyline points="36.5,-51.0 37.5,-50.8 37.9,-50.1 38.0,-48.8 37.8,-48.5 37.2,-48.9 36.2,-47.2 34.7,-48.4 32.8,-47.1 30.6,-45.9 27.9,-45.7 24.6,-46.0 20.8,-45.6 16.4,-46.4 11.3,-45.5 5.7,-46.1 -0.6,-46.2 -7.5,-47.5 -14.9,-48.5 -22.8,-47.8 -31.3,-49.0 -40.8,-49.4" fill="none" stroke="rgb(128,128,128)" stroke-width="1.776503397583173" stroke-linejoin="round" stroke-linecap="round" filter="url(#fuzzy_av_1779093954972_31oifjpdd05)" opacity="0.8568344087748223"/><polyline points="3.0,-65.3 4.3,-65.7 5.4,-65.5 6.1,-64.7 6.3,-63.1 6.0,-62.0 5.4,-62.6 4.4,-61.8 3.0,-59.4 1.3,-58.6 -0.9,-56.1 -3.6,-53.9 -6.8,-52.1 -10.6,-50.7 -14.9,-48.0 -19.8,-44.5 -25.3,-41.7 -31.4,-37.9 -38.1,-33.3 -45.4,-30.9 -53.5,-25.1" fill="none" stroke="rgb(128,128,128)" stroke-width="2.3156454054897235" stroke-linejoin="round" stroke-linecap="round" filter="url(#fuzzy_av_1779093954972_31oifjpdd05)" opacity="0.9942064663183354"/><polyline points="16.0,-61.8 17.1,-62.8 17.9,-61.8 18.7,-61.4 19.3,-60.4 19.7,-61.4 19.8,-60.7 19.7,-59.8 19.2,-60.3 18.5,-60.1 17.4,-58.0 15.8,-59.2 13.6,-57.7 10.9,-57.0 7.6,-58.7 3.7,-57.3 -0.8,-56.9 -5.9,-57.5 -11.4,-56.6 -17.3,-56.7 -23.7,-57.4 -31.4,-57.9" fill="none" stroke="rgb(128,128,128)" stroke-width="2.5346939853253323" stroke-linejoin="round" stroke-linecap="round" filter="url(#fuzzy_av_1779093954972_31oifjpdd05)" opacity="0.9958083504647622"/><polyline points="-51.4,-31.8 -50.8,-34.6 -50.4,-35.6 -50.1,-34.9 -49.7,-36.5 -49.4,-36.2 -49.1,-35.0 -48.8,-34.1 -48.4,-34.3 -48.1,-33.5 -47.9,-29.7 -47.8,-28.9 -47.7,-26.0 -47.7,-22.2 -47.8,-16.6 -47.9,-13.0 -48.0,-7.1 -48.3,1.0 -48.7,6.8 -49.2,14.6" fill="none" stroke="rgb(128,128,128)" stroke-width="1.60093817108373" stroke-linejoin="round" stroke-linecap="round" filter="url(#fuzzy_av_1779093954972_31oifjpdd05)" opacity="0.8000545454411087"/><polyline points="-31.4,-57.2 -29.9,-58.3 -28.7,-59.9 -27.4,-59.1 -25.5,-59.2 -23.3,-60.5 -21.0,-60.9 -18.6,-61.1 -16.2,-62.3 -13.8,-62.1 -11.5,-62.1 -9.1,-62.0 -6.8,-62.7 -4.6,-63.1 -2.4,-62.4 -0.3,-63.0 1.8,-63.4 3.7,-62.9 5.5,-63.0 7.1,-63.7 8.4,-64.0 9.4,-63.3 10.1,-62.8 10.3,-63.8 10.2,-63.6" fill="none" stroke="rgb(128,128,128)" stroke-width="1.9261039447854613" stroke-linejoin="round" stroke-linecap="round" filter="url(#fuzzy_av_1779093954972_31oifjpdd05)" opacity="0.8029113958565852"/><polyline points="-14.3,-63.3 -12.5,-64.3 -11.4,-64.8 -10.7,-63.8 -10.3,-64.2 -10.1,-63.3 -10.1,-61.7 -10.4,-59.4 -11.0,-59.0 -12.1,-56.8 -13.6,-54.0 -15.6,-51.7 -18.0,-47.5 -20.9,-44.8 -24.1,-41.5 -27.9,-37.4 -32.2,-30.9 -37.0,-27.2 -42.3,-20.0 -48.1,-14.0 -54.5,-7.0" fill="none" stroke="rgb(128,128,128)" stroke-width="2.4714573139189002" stroke-linejoin="round" stroke-linecap="round" filter="url(#fuzzy_av_1779093954972_31oifjpdd05)" opacity="0.7765759793604018"/><polyline points="42.3,-45.2 43.9,-43.1 45.0,-43.2 45.4,-41.7 45.4,-40.2 45.0,-41.6 44.3,-42.0 43.3,-42.2 42.0,-41.3 40.3,-42.4 38.2,-43.7 35.6,-44.9 32.5,-47.8 28.8,-50.1 24.5,-52.0 19.8,-55.3 14.6,-60.0 8.2,-63.6" fill="none" stroke="rgb(128,128,128)" stroke-width="2.0005787302478724" stroke-linejoin="round" stroke-linecap="round" filter="url(#fuzzy_av_1779093954972_31oifjpdd05)" opacity="0.7691165973436467"/><polyline points="40.5,-48.0 41.3,-47.7 41.4,-45.8 41.2,-46.4 40.9,-45.0 40.4,-45.0 39.5,-44.1 38.1,-41.9 36.3,-42.4 33.9,-41.5 31.1,-41.2 27.9,-40.3 24.2,-39.9 20.1,-40.3 15.5,-40.0 10.5,-40.1 5.0,-38.8 -1.1,-39.9 -7.6,-39.2 -14.8,-39.2 -22.4,-38.6 -30.7,-39.3 -39.4,-40.0 -48.5,-40.1" fill="none" stroke="rgb(128,128,128)" stroke-width="1.1831242754675724" stroke-linejoin="round" stroke-linecap="round" filter="url(#fuzzy_av_1779093954972_31oifjpdd05)" opacity="0.7779557975991451"/><polyline points="-29.6,-58.7 -27.8,-58.9 -26.0,-60.7 -24.7,-61.5 -23.7,-59.7 -23.1,-60.1 -22.6,-59.8 -22.3,-57.9 -22.1,-58.5 -22.1,-55.2 -22.3,-54.2 -22.7,-51.7 -23.2,-50.5 -23.9,-47.4 -24.8,-43.9 -25.8,-40.6 -27.1,-37.6 -28.6,-34.0 -30.3,-28.3 -32.3,-24.6 -34.4,-20.1 -36.9,-13.4 -39.7,-7.2 -42.7,-1.1 -46.0,7.3 -49.6,15.2" fill="none" stroke="rgb(128,128,128)" stroke-width="2.4966826094116206" stroke-linejoin="round" stroke-linecap="round" filter="url(#fuzzy_av_1779093954972_31oifjpdd05)" opacity="0.8575943275939049"/><polyline points="-52.4,-29.7 -51.6,-33.0 -51.0,-33.5 -50.6,-34.5 -50.3,-34.1 -50.1,-35.5 -49.9,-34.7 -49.8,-33.6 -49.7,-32.2 -49.7,-32.0 -49.8,-30.0 -50.1,-26.7 -50.4,-22.2 -51.0,-19.5 -51.8,-13.8 -52.7,-9.1 -53.5,-0.6" fill="none" stroke="rgb(128,128,128)" stroke-width="0.8959596490427145" stroke-linejoin="round" stroke-linecap="round" filter="url(#fuzzy_av_1779093954972_31oifjpdd05)" opacity="0.8548498536103175"/><polyline points="-11.4,-63.9 -10.8,-65.4 -9.5,-65.2 -8.2,-64.1 -6.9,-65.1 -5.5,-65.5 -4.2,-65.6 -3.1,-64.6 -2.4,-65.6 -2.0,-65.2 -1.9,-65.8 -2.3,-65.1 -3.0,-65.4 -4.2,-64.7 -5.9,-64.8 -8.0,-63.4 -10.7,-64.7 -13.6,-62.9 -16.9,-64.5" fill="none" stroke="rgb(128,128,128)" stroke-width="1.7448931017442404" stroke-linejoin="round" stroke-linecap="round" filter="url(#fuzzy_av_1779093954972_31oifjpdd05)" opacity="0.9578393313891927"/><polyline points="-50.5,-35.7 -50.2,-36.8 -49.5,-37.0 -48.6,-37.4 -47.4,-39.6 -46.1,-40.0 -44.6,-42.8 -43.0,-43.4 -41.3,-45.5 -39.6,-47.1 -37.8,-49.3 -36.0,-50.4 -34.3,-52.4 -32.6,-54.2 -30.9,-55.6 -29.4,-55.4 -27.9,-58.2 -26.5,-57.5 -25.3,-59.1 -24.3,-60.1 -23.5,-61.7 -22.7,-61.0 -22.3,-62.8" fill="none" stroke="rgb(128,128,128)" stroke-width="1.1858813367307526" stroke-linejoin="round" stroke-linecap="round" filter="url(#fuzzy_av_1779093954972_31oifjpdd05)" opacity="0.987792414055384"/><polyline points="3.0,-64.5 4.2,-64.4 4.9,-63.3 5.0,-63.0 4.5,-59.7 3.3,-58.4 1.5,-54.5 -0.9,-52.2 -3.8,-46.8 -7.2,-42.8 -11.3,-37.1 -16.1,-31.1 -21.6,-24.4 -27.8,-15.4 -34.5,-6.6 -41.8,2.7 -49.9,12.8" fill="none" stroke="rgb(128,128,128)" stroke-width="1.124910227468836" stroke-linejoin="round" stroke-linecap="round" filter="url(#fuzzy_av_1779093954972_31oifjpdd05)" opacity="0.9455117414177635"/><polyline points="13.2,-63.6 14.6,-63.1 15.7,-62.9 16.6,-62.9 17.2,-62.1 17.8,-62.0 18.1,-61.9 18.1,-60.5 17.9,-60.5 17.4,-60.3 16.6,-60.4 15.4,-59.1 13.8,-59.9 11.7,-58.5 9.1,-59.7 5.9,-60.1 2.2,-59.1 -2.0,-59.2 -6.9,-59.8 -12.3,-59.9 -18.3,-60.6 -24.4,-60.7" fill="none" stroke="rgb(128,128,128)" stroke-width="2.284532616291084" stroke-linejoin="round" stroke-linecap="round" filter="url(#fuzzy_av_1779093954972_31oifjpdd05)" opacity="0.8732115204322061"/><polyline points="24.2,-60.1 25.5,-58.9 27.1,-58.6 28.4,-56.5 29.4,-57.1 30.0,-56.2 30.5,-55.1 30.6,-56.2 30.5,-55.3 30.1,-55.3 29.5,-55.6 28.5,-54.9 27.3,-56.5 25.8,-56.3 23.8,-57.5 21.3,-57.9 18.2,-59.3 14.5,-59.9 10.3,-60.6 5.8,-64.0 2.1,-65.3" fill="none" stroke="rgb(128,128,128)" stroke-width="1.2679664441489713" stroke-linejoin="round" stroke-linecap="round" filter="url(#fuzzy_av_1779093954972_31oifjpdd05)" opacity="0.8864004100859575"/><polyline points="30.7,-56.3 31.9,-55.2 32.3,-55.0 32.2,-54.4 31.6,-52.7 30.8,-51.9 29.5,-50.6 27.9,-49.7 25.8,-48.3 23.2,-48.9 20.0,-46.1 16.3,-46.3 12.0,-44.6 7.2,-42.7 1.8,-40.7 -4.1,-39.1 -10.6,-38.8 -17.7,-35.8 -25.6,-34.3 -34.1,-33.0 -43.1,-29.1 -52.8,-26.9" fill="none" stroke="rgb(128,128,128)" stroke-width="1.1390292426079003" stroke-linejoin="round" stroke-linecap="round" filter="url(#fuzzy_av_1779093954972_31oifjpdd05)" opacity="0.7870847626506571"/><polyline points="-28.5,-59.4 -28.5,-60.1 -27.0,-60.3 -25.0,-59.7 -22.8,-61.3 -20.7,-62.2 -18.6,-61.8 -16.5,-62.4 -14.3,-61.4 -12.2,-63.0 -10.0,-62.1 -7.9,-63.4 -5.8,-63.2 -3.7,-63.6 -1.6,-63.8 0.3,-63.5 2.1,-63.0 3.8,-63.6 5.3,-63.6 6.5,-62.9 7.5,-64.9 8.2,-64.2 8.7,-63.7 8.9,-63.9 8.2,-63.9" fill="none" stroke="rgb(128,128,128)" stroke-width="1.4963051443454665" stroke-linejoin="round" stroke-linecap="round" filter="url(#fuzzy_av_1779093954972_31oifjpdd05)" opacity="0.9893438166041402"/><polyline points="-54.3,-17.1 -54.3,-19.5 -54.1,-19.9 -53.9,-21.3 -53.7,-22.1 -53.4,-25.1 -53.1,-26.3 -52.7,-26.7 -52.4,-29.2 -52.0,-29.1 -51.7,-31.8 -51.5,-31.1 -51.3,-32.6 -51.1,-32.9 -51.1,-32.1 -51.2,-32.8 -51.3,-32.6 -51.6,-30.1 -51.9,-29.2 -52.3,-26.2 -52.8,-24.1 -53.5,-21.4 -54.5,-20.1" fill="none" stroke="rgb(128,128,128)" stroke-width="2.365034736742757" stroke-linejoin="round" stroke-linecap="round" filter="url(#fuzzy_av_1779093954972_31oifjpdd05)" opacity="0.848481518552994"/><polyline points="32.7,-53.9 33.8,-53.0 34.5,-53.5 35.3,-51.6 36.2,-51.9 37.0,-51.8 37.7,-51.1 38.1,-50.2 38.4,-50.7 38.4,-49.9 38.0,-50.4 37.3,-49.9 36.2,-51.7 34.7,-52.3 32.6,-54.0 29.8,-54.5 26.2,-58.0 21.6,-61.0" fill="none" stroke="rgb(128,128,128)" stroke-width="1.2266933934993327" stroke-linejoin="round" stroke-linecap="round" filter="url(#fuzzy_av_1779093954972_31oifjpdd05)" opacity="0.8957309553373267"/><polyline points="-11.7,-63.9 -9.5,-65.4 -7.8,-65.0 -5.7,-64.8 -3.3,-63.9 -0.6,-63.9 2.2,-63.0 4.9,-62.7 7.6,-63.3 10.1,-62.0 12.4,-61.9 14.6,-61.5 16.4,-61.8 18.1,-61.5 19.5,-61.9 20.8,-60.7 21.0,-61.0" fill="none" stroke="rgb(128,128,128)" stroke-width="0.7461239567619508" stroke-linejoin="round" stroke-linecap="round" filter="url(#fuzzy_av_1779093954972_31oifjpdd05)" opacity="0.968281158349741"/><polyline points="-53.7,-23.0 -53.3,-25.5 -52.7,-27.4 -51.9,-27.6 -51.0,-31.1 -49.8,-31.7 -48.6,-33.3 -47.2,-36.4 -45.8,-39.0 -44.3,-40.5 -42.8,-41.9 -41.3,-43.4 -39.7,-44.5 -38.1,-47.2 -36.5,-49.8 -34.9,-50.1 -33.3,-52.1 -31.9,-53.7 -30.6,-54.8 -29.4,-55.9 -28.3,-57.7 -27.5,-58.7 -27.0,-58.5 -27.0,-60.2 -28.2,-59.1" fill="none" stroke="rgb(128,128,128)" stroke-width="1.626678343263817" stroke-linejoin="round" stroke-linecap="round" filter="url(#fuzzy_av_1779093954972_31oifjpdd05)" opacity="0.8532491420321138"/><polyline points="-21.0,-62.9 -18.5,-62.7 -17.5,-63.7 -17.3,-63.7 -17.5,-62.8 -18.0,-61.0 -18.8,-59.5 -20.2,-58.1 -22.0,-56.4 -24.5,-51.9 -27.7,-49.2 -31.4,-44.2 -35.8,-40.1 -41.0,-36.0 -47.0,-28.3 -53.9,-22.7" fill="none" stroke="rgb(128,128,128)" stroke-width="2.382311818779711" stroke-linejoin="round" stroke-linecap="round" filter="url(#fuzzy_av_1779093954972_31oifjpdd05)" opacity="0.8532868438204816"/><polyline points="-6.4,-66.1 -3.8,-64.3 -1.9,-64.8 -0.3,-65.0 1.2,-64.5 2.7,-65.0 4.2,-65.3 5.8,-65.2 7.4,-64.3 8.8,-64.8 10.1,-64.6 11.3,-64.4 12.3,-62.7 13.1,-64.1 13.8,-63.0 14.4,-62.8 14.6,-62.3 14.7,-63.0 14.5,-63.5 14.0,-62.0 13.2,-62.7 12.1,-63.1 10.6,-63.4 8.5,-63.8 6.0,-63.7 3.0,-65.0" fill="none" stroke="rgb(128,128,128)" stroke-width="1.4715123260530363" stroke-linejoin="round" stroke-linecap="round" filter="url(#fuzzy_av_1779093954972_31oifjpdd05)" opacity="0.9557764288192472"/><polyline points="-8.5,-64.9 -8.2,-65.1 -7.4,-65.4 -6.3,-64.4 -5.3,-64.1 -4.6,-63.8 -4.2,-64.3 -4.3,-62.8 -4.6,-63.4 -5.4,-61.5 -6.4,-61.8 -7.8,-61.1 -9.7,-58.2 -12.0,-58.1 -14.8,-55.8 -18.1,-53.4 -22.0,-51.8 -26.3,-49.7 -31.2,-47.9 -36.6,-45.0 -42.5,-41.8 -48.9,-37.3" fill="none" stroke="rgb(128,128,128)" stroke-width="2.0061326878783947" stroke-linejoin="round" stroke-linecap="round" filter="url(#fuzzy_av_1779093954972_31oifjpdd05)" opacity="0.9155705877404035"/><polyline points="-16.6,-64.0 -16.0,-64.3 -15.2,-63.9 -14.4,-63.3 -13.6,-63.2 -13.0,-62.7 -12.6,-63.4 -12.4,-62.1 -12.4,-62.6 -12.7,-59.7 -13.2,-58.7 -14.0,-57.8 -15.2,-55.9 -16.8,-54.2 -18.7,-52.1 -21.1,-48.7 -23.8,-46.3 -26.9,-43.3 -30.4,-39.6 -34.3,-35.7 -38.7,-32.0 -43.5,-27.4 -48.8,-22.7 -54.3,-16.2" fill="none" stroke="rgb(128,128,128)" stroke-width="1.1775329023081849" stroke-linejoin="round" stroke-linecap="round" filter="url(#fuzzy_av_1779093954972_31oifjpdd05)" opacity="0.8072737250456358"/><polyline points="17.6,-62.4 18.0,-62.6 18.7,-61.5 19.2,-60.0 19.2,-58.2 18.9,-57.3 18.3,-56.4 17.3,-54.4 16.0,-52.0 14.3,-47.9 12.1,-44.7 9.4,-41.8 6.2,-39.9 2.5,-35.7 -1.7,-32.3 -6.3,-27.0 -11.4,-22.2 -16.8,-18.0 -22.7,-12.2 -28.9,-7.2 -35.6,-1.2 -42.6,4.9 -49.9,14.0" fill="none" stroke="rgb(128,128,128)" stroke-width="0.837509192722866" stroke-linejoin="round" stroke-linecap="round" filter="url(#fuzzy_av_1779093954972_31oifjpdd05)" opacity="0.8880238410457929"/><polyline points="-54.7,-10.6 -54.6,-14.4 -54.5,-15.6 -54.5,-16.1 -54.4,-16.5 -54.3,-18.2 -54.1,-19.2 -54.0,-18.9 -53.8,-17.7 -53.5,-17.3 -53.3,-17.3 -53.0,-16.4 -52.6,-16.1 -52.2,-14.3 -51.8,-11.5 -51.3,-7.3 -50.8,-4.4 -50.2,-0.1 -49.7,5.3 -49.2,10.2 -48.6,15.7" fill="none" stroke="rgb(128,128,128)" stroke-width="1.3860575262590502" stroke-linejoin="round" stroke-linecap="round" filter="url(#fuzzy_av_1779093954972_31oifjpdd05)" opacity="0.7838091743961908"/><polyline points="-54.3,-16.3 -54.1,-18.6 -53.5,-19.3 -52.5,-21.3 -51.2,-23.6 -49.5,-24.6 -47.4,-26.2 -45.1,-27.9 -42.5,-29.9 -39.6,-34.0 -36.4,-36.0 -33.1,-37.6 -29.6,-39.2 -26.0,-42.2 -22.2,-44.5 -18.4,-45.9 -14.4,-48.9 -10.3,-49.8 -6.2,-52.1 -2.0,-54.1 2.2,-57.6 6.5,-58.5 10.8,-61.4 14.8,-62.2" fill="none" stroke="rgb(128,128,128)" stroke-width="1.0483381461387813" stroke-linejoin="round" stroke-linecap="round" filter="url(#fuzzy_av_1779093954972_31oifjpdd05)" opacity="0.810578383354212"/><polyline points="-29.6,-58.4 -27.8,-60.0 -26.0,-61.1 -24.6,-61.8 -23.6,-61.1 -22.9,-61.7 -22.4,-62.4 -22.1,-62.2 -22.1,-60.5 -22.3,-60.9 -22.8,-59.1 -23.5,-58.6 -24.6,-56.7 -25.9,-56.5 -27.6,-53.7 -29.6,-53.1 -32.1,-50.9 -34.9,-46.6 -38.2,-45.5 -41.9,-40.8 -45.9,-38.0 -50.5,-35.4" fill="none" stroke="rgb(128,128,128)" stroke-width="0.9663612431789044" stroke-linejoin="round" stroke-linecap="round" filter="url(#fuzzy_av_1779093954972_31oifjpdd05)" opacity="0.7780209885940634"/><polyline points="-22.3,-62.8 -21.2,-62.3 -20.0,-62.2 -18.5,-62.3 -16.8,-63.8 -14.9,-63.5 -13.0,-63.2 -11.1,-64.1 -9.0,-64.0 -6.9,-64.6 -4.8,-63.5 -2.7,-64.3 -0.7,-63.4 1.3,-63.7 3.1,-63.3 4.9,-63.4 6.4,-63.0 7.6,-64.6 8.6,-64.3 9.1,-64.6 9.4,-64.7 9.4,-64.9 9.2,-65.0 8.2,-64.0" fill="none" stroke="rgb(128,128,128)" stroke-width="1.8867938221670189" stroke-linejoin="round" stroke-linecap="round" filter="url(#fuzzy_av_1779093954972_31oifjpdd05)" opacity="0.7554077435709315"/><polyline points="-16.6,-64.4 -16.0,-63.6 -15.4,-63.3 -14.8,-64.2 -14.3,-63.3 -14.1,-63.2 -14.3,-60.9 -14.8,-60.5 -15.6,-57.5 -16.7,-55.8 -18.2,-53.3 -20.2,-50.7 -22.6,-47.6 -25.6,-43.9 -29.1,-40.4 -33.2,-34.6 -37.7,-30.0 -42.8,-24.7 -48.4,-16.6 -54.6,-9.7" fill="none" stroke="rgb(128,128,128)" stroke-width="1.0162421133697355" stroke-linejoin="round" stroke-linecap="round" filter="url(#fuzzy_av_1779093954972_31oifjpdd05)" opacity="0.8097640433312341"/><polyline points="10.2,-63.7 11.5,-63.3 12.8,-63.8 13.8,-63.7 14.5,-62.8 15.0,-62.4 15.1,-61.3 15.0,-60.7 14.6,-62.3 13.9,-60.7 12.7,-61.6 11.2,-60.7 9.2,-59.9 6.8,-59.5 3.8,-59.7 0.3,-59.0 -3.8,-57.2 -8.5,-58.2 -13.8,-56.6 -19.9,-57.2 -26.5,-56.2 -32.6,-57.0" fill="none" stroke="rgb(128,128,128)" stroke-width="1.3930009469902807" stroke-linejoin="round" stroke-linecap="round" filter="url(#fuzzy_av_1779093954972_31oifjpdd05)" opacity="0.9717211487413785"/><polyline points="-1.4,-65.1 0.5,-65.1 1.3,-63.9 2.0,-64.3 2.5,-63.2 2.7,-62.3 2.6,-61.3 2.1,-61.1 1.1,-59.8 -0.2,-57.4 -1.8,-55.6 -3.9,-53.1 -6.2,-50.3 -9.0,-48.0 -12.2,-45.4 -15.8,-41.8 -19.9,-38.8 -24.5,-35.4 -29.5,-31.9 -35.1,-26.9 -41.1,-22.5 -47.6,-15.7 -54.6,-9.6" fill="none" stroke="rgb(128,128,128)" stroke-width="1.8875931655623956" stroke-linejoin="round" stroke-linecap="round" filter="url(#fuzzy_av_1779093954972_31oifjpdd05)" opacity="0.9080648282463222"/><polyline points="5.7,-64.0 7.3,-64.7 7.9,-64.3 7.9,-63.5 7.5,-62.4 6.7,-60.2 5.5,-60.2 3.9,-56.6 1.7,-54.9 -1.1,-51.9 -4.5,-50.4 -8.4,-47.0 -13.0,-41.8 -18.2,-38.7 -24.1,-35.6 -30.7,-30.8 -38.0,-24.5 -45.9,-19.6 -54.7,-11.1" fill="none" stroke="rgb(128,128,128)" stroke-width="1.7946232919316114" stroke-linejoin="round" stroke-linecap="round" filter="url(#fuzzy_av_1779093954972_31oifjpdd05)" opacity="0.9106069600243706"/><polyline points="32.7,-54.8 33.7,-54.7 33.9,-53.3 34.1,-51.9 34.0,-53.1 33.6,-52.5 32.7,-51.4 31.5,-49.9 29.8,-49.2 27.5,-49.0 24.8,-49.5 21.6,-48.9 17.9,-48.3 13.6,-47.9 8.8,-48.9 3.3,-48.3 -2.8,-47.5 -9.4,-46.8 -16.7,-48.4 -24.6,-48.6 -32.9,-49.4 -41.3,-51.0" fill="none" stroke="rgb(128,128,128)" stroke-width="2.1047003001759474" stroke-linejoin="round" stroke-linecap="round" filter="url(#fuzzy_av_1779093954972_31oifjpdd05)" opacity="0.9180785099958342"/><polyline points="36.5,-52.8 37.6,-49.8 38.2,-50.8 38.7,-50.3 39.0,-48.0 39.1,-48.2 38.9,-47.2 38.4,-47.6 37.6,-47.4 36.6,-48.9 35.2,-48.1 33.4,-47.9 31.1,-48.8 28.2,-51.0 24.9,-51.7 21.1,-53.3 16.8,-54.4 11.8,-56.2 6.1,-60.0 -0.3,-63.0 -7.1,-64.9" fill="none" stroke="rgb(128,128,128)" stroke-width="1.8572329463239983" stroke-linejoin="round" stroke-linecap="round" filter="url(#fuzzy_av_1779093954972_31oifjpdd05)" opacity="0.8201261927686987"/><polyline points="-22.3,-61.7 -21.3,-63.3 -20.5,-63.1 -19.7,-62.5 -19.0,-63.1 -18.4,-63.0 -17.9,-63.5 -17.6,-61.2 -17.4,-62.0 -17.4,-61.2 -17.6,-59.7 -17.9,-60.0 -18.5,-58.1 -19.3,-56.6 -20.4,-55.4 -21.7,-53.6 -23.4,-50.6 -25.4,-47.3 -27.7,-45.0 -30.5,-42.2 -33.6,-39.3 -37.0,-34.5 -40.8,-31.3 -44.9,-27.3 -49.4,-23.0 -54.3,-17.1" fill="none" stroke="rgb(128,128,128)" stroke-width="1.5887124858661665" stroke-linejoin="round" stroke-linecap="round" filter="url(#fuzzy_av_1779093954972_31oifjpdd05)" opacity="0.9225869020180519"/></g><circle r="1.033560782064285" cx="-8.036103515831018" cy="-1.400306280253197" stroke="#111" fill="none" stroke-width="1.2642648588494603" filter="url(#fuzzy_av_1779093954972_31oifjpdd05)"/><circle r="2.1132483913503126" cx="-9.287682551381144" cy="-1.891518838943366" stroke="#111" fill="none" stroke-width="1.0410641521514696" filter="url(#fuzzy_av_1779093954972_31oifjpdd05)"/><circle r="2.1082565857218185" cx="-7.73383186263622" cy="-2.8091272670604073" stroke="#111" fill="none" stroke-width="0.9023331722167318" filter="url(#fuzzy_av_1779093954972_31oifjpdd05)"/><circle r="2.1291382386735176" cx="-7.701482603537968" cy="-3.2130328294626533" stroke="#111" fill="none" stroke-width="1.1546270409787036" filter="url(#fuzzy_av_1779093954972_31oifjpdd05)"/><circle r="1.1084636325273403" cx="-9.429623165495284" cy="-2.653071180568562" stroke="#111" fill="none" stroke-width="1.1487006893401261" filter="url(#fuzzy_av_1779093954972_31oifjpdd05)"/><circle r="1.7487551809528248" cx="-10.40054104064761" cy="-3.2321200740903735" stroke="#111" fill="none" stroke-width="0.8535890481227681" filter="url(#fuzzy_av_1779093954972_31oifjpdd05)"/><circle r="1.6346888399592143" cx="-9.409966966339937" cy="-3.169970687954084" stroke="#111" fill="none" stroke-width="1.0112079998568406" filter="url(#fuzzy_av_1779093954972_31oifjpdd05)"/><circle r="1.2185592479005698" cx="-7.81753355558104" cy="-2.840719668921082" stroke="#111" fill="none" stroke-width="1.1164082294805902" filter="url(#fuzzy_av_1779093954972_31oifjpdd05)"/><circle r="2.4422691359921656" cx="-7.484295649692758" cy="-1.118600763369867" stroke="#111" fill="none" stroke-width="1.2085966144146834" filter="url(#fuzzy_av_1779093954972_31oifjpdd05)"/><circle r="0.9465354246010096" cx="-10.11811276531155" cy="-1.9060433030728448" stroke="#111" fill="none" stroke-width="1.2382994484112075" filter="url(#fuzzy_av_1779093954972_31oifjpdd05)"/><circle r="1.8372805108537948" cx="5.277983536434658" cy="1.1959827452267853" stroke="#111" fill="none" stroke-width="0.9181624418830094" filter="url(#fuzzy_av_1779093954972_31oifjpdd05)"/><circle r="2.206417015611321" cx="7.675896327710288" cy="-1.243087348482963" stroke="#111" fill="none" stroke-width="1.1719802057598634" filter="url(#fuzzy_av_1779093954972_31oifjpdd05)"/><circle r="2.49440112695879" cx="7.033357776296313" cy="1.4515033435146563" stroke="#111" fill="none" stroke-width="1.153311351990394" filter="url(#fuzzy_av_1779093954972_31oifjpdd05)"/><circle r="1.5401711285697466" cx="5.368076740559157" cy="0.5112157937688748" stroke="#111" fill="none" stroke-width="1.1306309013702656" filter="url(#fuzzy_av_1779093954972_31oifjpdd05)"/><circle r="1.7746648258061755" cx="8.04645776263343" cy="-1.4613954761095953" stroke="#111" fill="none" stroke-width="1.2534561103099893" filter="url(#fuzzy_av_1779093954972_31oifjpdd05)"/><circle r="2.1406799433445896" cx="6.362840041572621" cy="0.39447804675009057" stroke="#111" fill="none" stroke-width="0.9166347818390403" filter="url(#fuzzy_av_1779093954972_31oifjpdd05)"/><circle r="2.346666042797918" cx="8.27431950359055" cy="0.3520118287692575" stroke="#111" fill="none" stroke-width="0.926520753415855" filter="url(#fuzzy_av_1779093954972_31oifjpdd05)"/><circle r="1.9573453944520325" cx="7.964629496934544" cy="-1.2884981892545708" stroke="#111" fill="none" stroke-width="1.2596558825636763" filter="url(#fuzzy_av_1779093954972_31oifjpdd05)"/><circle r="1.6066469937882135" cx="5.064729986844839" cy="-0.5074909566852182" stroke="#111" fill="none" stroke-width="0.8751877642364483" filter="url(#fuzzy_av_1779093954972_31oifjpdd05)"/><circle r="2.16295415402406" cx="7.551386102719898" cy="-2.0789141972887952" stroke="#111" fill="none" stroke-width="1.2187007704672101" filter="url(#fuzzy_av_1779093954972_31oifjpdd05)"/><polyline points="-23.2,49.7 -22.8,48.9 -22.4,48.2 -22.0,47.5 -21.6,46.8 -21.3,46.1 -20.9,45.4 -20.5,44.8 -20.1,44.1 -19.7,43.5 -19.3,42.9 -18.9,42.3 -18.5,41.7 -18.1,41.2 -17.7,40.6 -17.3,40.1 -16.9,39.6 -16.4,39.1 -16.0,38.6 -15.6,38.1 -15.2,37.7 -14.8,37.2 -14.4,36.8 -13.9,36.4 -13.5,36.0 -13.1,35.6 -12.7,35.3 -12.2,34.9 -11.8,34.6 -11.4,34.3 -10.9,34.0 -10.5,33.7 -10.1,33.4 -9.6,33.2 -9.2,32.9 -8.8,32.7 -8.3,32.5 -7.9,32.3 -7.4,32.1 -7.0,32.0 -6.5,31.8 -6.1,31.7 -5.6,31.6 -5.2,31.5 -4.7,31.4 -4.2,31.3 -3.8,31.3 -3.3,31.2 -2.8,31.2 -2.4,31.2 -1.9,31.2 -1.4,31.2 -1.0,31.3 -0.5,31.3 -0.0,31.4 0.5,31.5 0.9,31.6 1.4,31.7 1.9,31.9 2.4,32.0 2.9,32.2 3.4,32.3 3.9,32.5 4.4,32.8 4.9,33.0 5.4,33.2 5.9,33.5 6.4,33.8 6.9,34.1 7.4,34.4 7.9,34.7 8.4,35.0 8.9,35.4 9.4,35.7 9.9,36.1 10.4,36.5 11.0,36.9 11.5,37.4 12.0,37.8 12.5,38.3 13.1,38.8 13.6,39.3 14.1,39.8 14.6,40.3 15.2,40.8 15.7,41.4 16.3,42.0 16.8,42.6 17.3,43.2 17.9,43.8 18.4,44.4 19.0,45.1 19.5,45.7 20.1,46.4 20.6,47.1 21.2,47.8 21.8,48.6 22.3,49.3 22.9,50.1 23.4,50.9 24.0,51.6 23.4,50.9 22.9,50.1 22.3,49.3 21.8,48.6 21.2,47.8 20.6,47.1 20.1,46.4 19.5,45.7 19.0,45.1 18.4,44.4 17.9,43.8 17.3,43.2 16.8,42.6 16.3,42.0 15.7,41.4 15.2,40.8 14.6,40.3 14.1,39.8 13.6,39.3 13.1,38.8 12.5,38.3 12.0,37.8 11.5,37.4 11.0,36.9 10.4,36.5 9.9,36.1 9.4,35.7 8.9,35.4 8.4,35.0 7.9,34.7 7.4,34.4 6.9,34.1 6.4,33.8 5.9,33.5 5.4,33.2 4.9,33.0 4.4,32.8 3.9,32.5 3.4,32.3 2.9,32.2 2.4,32.0 1.9,31.9 1.4,31.7 0.9,31.6 0.5,31.5 -0.0,31.4 -0.5,31.3 -1.0,31.3 -1.4,31.2 -1.9,31.2 -2.4,31.2 -2.8,31.2 -3.3,31.2 -3.8,31.3 -4.2,31.3 -4.7,31.4 -5.2,31.5 -5.6,31.6 -6.1,31.7 -6.5,31.8 -7.0,32.0 -7.4,32.1 -7.9,32.3 -8.3,32.5 -8.8,32.7 -9.2,32.9 -9.6,33.2 -10.1,33.4 -10.5,33.7 -10.9,34.0 -11.4,34.3 -11.8,34.6 -12.2,34.9 -12.7,35.3 -13.1,35.6 -13.5,36.0 -13.9,36.4 -14.4,36.8 -14.8,37.2 -15.2,37.7 -15.6,38.1 -16.0,38.6 -16.4,39.1 -16.9,39.6 -17.3,40.1 -17.7,40.6 -18.1,41.2 -18.5,41.7 -18.9,42.3 -19.3,42.9 -19.7,43.5 -20.1,44.1 -20.5,44.8 -20.9,45.4 -21.3,46.1 -21.6,46.8 -22.0,47.5 -22.4,48.2 -22.8,48.9" fill="rgb(215,127,140)" stroke="#111" stroke-width="2.8263607277665987" stroke-linejoin="round" filter="url(#fuzzy_av_1779093954972_31oifjpdd05)"/></g><g class="accessory-svg accessory-wolf" transform="translate(66.5 34.9) rotate(4.4) scale(0.934)">
      <path d="M-10 7l3-15 6 5 6-5 5 15-7 6-6-3-6 3z" fill="#1F2937" stroke="#111827" stroke-width="1.1"/><path d="M-4 2l4 7 4-7" fill="#f8fafc" opacity=".75"/><circle cx="-4" cy="0" r="1.2" fill="#fbbf24"/><circle cx="4" cy="0" r="1.2" fill="#fbbf24"/>
    </g><g class="accessory-svg accessory-lightning" transform="translate(18.6 73.6) rotate(3.8) scale(1.148)">
      <path d="M2-12L-8 2h6l-3 11L8-3H1z" fill="#fbbf24" stroke="#111827" stroke-width="1.1" stroke-linejoin="round"/>
    </g><g class="accessory-svg accessory-gamepad" transform="translate(-68.0 26.9) rotate(9.1) scale(1.264)">
      <path d="M-11 3c0-5 2-8 6-6h10c4-2 6 1 6 6 0 5-3 8-6 5l-3-3h-4l-3 3c-3 3-6 0-6-5z" fill="#f8fafc" stroke="#111827" stroke-width="1.2"/><path d="M-7 2h5M-4-1v6" stroke="#1F2937" stroke-width="1.3"/><circle cx="5" cy="1" r="1.4" fill="#ef4444"/><circle cx="8" cy="4" r="1.4" fill="#38bdf8"/>
    </g><g class="accessory-svg accessory-guitar" transform="translate(36.4 -67.9) rotate(-8.6) scale(0.824)">
      <path d="M-7 6c-4-4 0-10 4-7l2 2 8-9 3 3-9 8 2 2c3 4-4 8-7 4z" fill="#b45309" stroke="#111827" stroke-width="1.1"/><circle cx="-4" cy="4" r="2" fill="#1F2937"/><path d="M0 1l8-8M2 3l8-8" stroke="#f8fafc" stroke-width=".7"/>
    </g></svg>