<svg xmlns="http://www.w3.org/2000/svg" viewBox="-100 -100 200 200" width="400" height="400" role="img" aria-label="浪子 avatar"><defs>
      <filter id="fuzzy_av_1779093954974_tzvk9gi0dec" x="-8%" y="-8%" width="116%" height="116%">
        <feTurbulence baseFrequency="0.045" numOctaves="3" type="fractalNoise" result="noise"/>
        <feDisplacementMap in="SourceGraphic" in2="noise" scale="1.6"/>
      </filter>
      <clipPath id="leftEye_av_1779093954974_tzvk9gi0dec"><polyline points="-15.4,0.7 -15.2,0.5 -15.0,0.4 -14.8,0.2 -14.6,0.1 -14.3,-0.1 -14.0,-0.2 -13.7,-0.4 -13.4,-0.5 -13.1,-0.7 -12.8,-0.8 -12.5,-0.9 -12.1,-1.1 -11.7,-1.2 -11.4,-1.3 -11.0,-1.5 -10.5,-1.6 -10.1,-1.8 -9.6,-1.9 -9.1,-2.1 -8.6,-2.2 -8.1,-2.4 -7.6,-2.5 -7.1,-2.6 -6.7,-2.7 -6.2,-2.8 -5.7,-2.9 -5.2,-3.0 -4.7,-3.1 -4.2,-3.1 -3.8,-3.2 -3.3,-3.3 -2.8,-3.3 -2.3,-3.3 -1.9,-3.4 -1.4,-3.4 -1.0,-3.4 -0.5,-3.4 -0.1,-3.4 0.4,-3.3 0.8,-3.3 1.3,-3.3 1.7,-3.3 2.1,-3.2 2.5,-3.2 2.9,-3.1 3.3,-3.0 3.7,-3.0 4.1,-2.9 4.5,-2.8 4.9,-2.7 5.3,-2.6 5.7,-2.6 6.0,-2.5 6.4,-2.4 6.8,-2.3 7.1,-2.2 7.4,-2.1 7.8,-2.0 8.1,-1.8 8.4,-1.7 8.8,-1.6 9.1,-1.5 9.4,-1.4 9.7,-1.3 9.9,-1.2 10.2,-1.1 10.5,-1.0 10.8,-0.9 11.0,-0.8 11.3,-0.7 11.6,-0.6 11.8,-0.5 12.1,-0.4 12.3,-0.3 12.5,-0.2 12.8,-0.1 13.0,0.0 13.2,0.1 13.4,0.2 11.4,1.4 11.2,1.4 10.9,1.4 10.7,1.4 10.4,1.5 10.2,1.5 9.9,1.5 9.7,1.5 9.4,1.6 9.1,1.6 8.8,1.6 8.6,1.7 8.3,1.7 8.0,1.7 7.7,1.8 7.4,1.8 7.1,1.8 6.8,1.9 6.4,1.9 6.1,2.0 5.8,2.0 5.5,2.1 5.1,2.1 4.8,2.2 4.5,2.2 4.1,2.3 3.8,2.4 3.4,2.4 3.1,2.5 2.7,2.6 2.4,2.6 2.0,2.7 1.7,2.8 1.3,2.9 1.0,2.9 0.6,3.0 0.3,3.1 -0.1,3.2 -0.5,3.2 -0.8,3.3 -1.2,3.4 -1.6,3.5 -1.9,3.5 -2.3,3.6 -2.7,3.7 -3.0,3.7 -3.4,3.8 -3.8,3.9 -4.2,3.9 -4.6,4.0 -5.0,4.0 -5.4,4.0 -5.8,4.0 -6.2,4.1 -6.6,4.1 -7.0,4.1 -7.4,4.1 -7.8,4.0 -8.2,4.0 -8.6,4.0 -9.1,3.9 -9.5,3.8 -9.9,3.8 -10.4,3.7 -10.8,3.6 -11.1,3.5 -11.4,3.5 -11.7,3.4 -12.0,3.3 -12.2,3.2 -12.5,3.1 -12.7,3.0 -13.0,2.9 -13.2,2.8 -13.4,2.7 -13.6,2.6 -13.7,2.5 -13.9,2.3 -14.0,2.2 -14.1,2.0"/></clipPath>
      <clipPath id="rightEye_av_1779093954974_tzvk9gi0dec"><polyline points="-15.6,0.7 -15.4,0.5 -15.2,0.4 -15.0,0.2 -14.8,0.1 -14.6,-0.1 -14.3,-0.3 -14.1,-0.4 -13.8,-0.6 -13.5,-0.8 -13.2,-0.9 -12.9,-1.1 -12.6,-1.2 -12.2,-1.4 -11.9,-1.5 -11.6,-1.7 -11.2,-1.9 -10.8,-2.1 -10.4,-2.2 -9.9,-2.4 -9.5,-2.6 -9.0,-2.7 -8.6,-2.9 -8.1,-3.1 -7.6,-3.2 -7.1,-3.3 -6.6,-3.5 -6.1,-3.6 -5.6,-3.7 -5.0,-3.8 -4.5,-3.9 -4.0,-4.0 -3.4,-4.1 -2.9,-4.2 -2.3,-4.2 -1.8,-4.3 -1.2,-4.3 -0.7,-4.4 -0.1,-4.4 0.4,-4.4 1.0,-4.4 1.5,-4.4 2.0,-4.4 2.6,-4.4 3.1,-4.4 3.6,-4.3 4.1,-4.3 4.6,-4.2 5.1,-4.2 5.6,-4.1 6.1,-4.0 6.6,-3.9 7.1,-3.8 7.5,-3.7 8.0,-3.6 8.4,-3.5 8.8,-3.4 9.3,-3.3 9.7,-3.2 10.1,-3.1 10.5,-3.0 10.8,-2.8 11.2,-2.7 11.6,-2.6 11.9,-2.4 12.2,-2.3 12.6,-2.2 12.9,-2.1 13.2,-1.9 13.5,-1.8 13.8,-1.7 14.1,-1.5 14.4,-1.4 14.6,-1.3 14.9,-1.2 15.1,-1.0 15.4,-0.9 15.6,-0.8 15.9,-0.6 16.1,-0.5 13.8,1.7 13.4,1.7 13.1,1.8 12.8,1.8 12.5,1.8 12.2,1.9 11.8,1.9 11.5,1.9 11.2,2.0 10.8,2.0 10.5,2.1 10.1,2.1 9.7,2.2 9.4,2.2 9.0,2.3 8.6,2.3 8.2,2.4 7.9,2.4 7.5,2.5 7.1,2.6 6.7,2.6 6.3,2.7 5.9,2.8 5.5,2.9 5.1,2.9 4.7,3.0 4.3,3.1 3.8,3.2 3.4,3.3 3.0,3.4 2.6,3.5 2.2,3.6 1.8,3.7 1.4,3.8 1.0,3.9 0.6,4.0 0.2,4.1 -0.2,4.2 -0.6,4.3 -1.0,4.4 -1.3,4.5 -1.7,4.6 -2.1,4.7 -2.5,4.8 -2.9,4.9 -3.3,5.0 -3.6,5.0 -4.0,5.1 -4.4,5.2 -4.8,5.2 -5.1,5.3 -5.5,5.3 -5.9,5.3 -6.2,5.3 -6.6,5.3 -7.0,5.3 -7.4,5.3 -7.7,5.2 -8.1,5.2 -8.5,5.1 -8.9,5.0 -9.2,4.9 -9.6,4.8 -10.0,4.7 -10.4,4.6 -10.6,4.5 -10.9,4.4 -11.2,4.3 -11.4,4.2 -11.7,4.1 -11.9,4.0 -12.1,3.8 -12.4,3.7 -12.6,3.6 -12.8,3.4 -12.9,3.2 -13.1,3.1 -13.3,2.9 -13.4,2.7 -13.5,2.5"/></clipPath>
      <linearGradient id="rainbow_av_1779093954974_tzvk9gi0dec" x1="0%" y1="0%" x2="100%" y2="0%">
        <stop offset="0%" stop-color="#059669"/><stop offset="41%" stop-color="#22D3EE"/><stop offset="100%" stop-color="#047857"/>
      </linearGradient>
      <linearGradient id="splitHair_av_1779093954974_tzvk9gi0dec" x1="0%" y1="0%" x2="100%" y2="0%">
        <stop offset="49%" stop-color="#111827"/><stop offset="51%" stop-color="#F9FAFB"/>
      </linearGradient>
      <radialGradient id="halo_av_1779093954974_tzvk9gi0dec"><stop offset="0%" stop-color="#059669" stop-opacity=".45"/><stop offset="100%" stop-color="#059669" stop-opacity="0"/></radialGradient>
    </defs><rect x="-100" y="-100" width="200" height="200" fill="#BC8F8F"/><g opacity="1"><polyline id="faceContour" class="face-shape" points="50.0,-5.5 50.0,-3.4 50.1,-3.0 49.9,-1.9 50.0,-0.2 49.9,-0.5 49.9,3.2 50.0,4.9 50.0,5.6 49.8,7.1 49.4,7.9 49.8,6.4 49.3,10.3 49.4,9.1 48.8,12.7 48.6,13.4 48.0,15.7 48.1,16.0 48.0,16.5 47.3,18.2 47.3,18.8 46.1,21.7 46.5,21.2 46.3,21.7 44.6,25.4 44.9,24.9 44.2,26.1 44.4,25.9 42.8,28.4 42.8,28.8 42.0,29.8 40.7,32.1 39.8,33.2 38.7,34.6 39.2,33.9 38.8,34.5 37.2,36.2 35.6,37.8 35.3,38.1 34.4,39.0 32.9,40.2 32.9,40.4 32.6,40.4 30.8,41.8 29.1,42.7 27.7,43.8 26.7,44.6 26.2,44.8 25.5,45.1 24.4,45.5 24.4,45.5 21.3,47.0 21.8,46.6 21.8,46.6 18.4,48.0 17.1,48.4 18.7,47.8 15.6,48.7 14.3,49.0 13.4,49.3 11.8,49.4 11.2,49.5 11.2,49.6 8.5,49.9 7.6,50.1 8.1,50.1 6.3,50.1 3.3,50.3 1.7,50.3 1.6,50.3 -1.9,50.2 -0.2,50.2 -3.9,49.9 -5.1,49.9 -5.9,49.8 -7.2,49.5 -8.3,49.2 -9.9,49.1 -8.4,49.2 -9.7,48.9 -12.5,48.2 -14.7,47.6 -12.7,48.2 -16.8,46.8 -16.1,47.0 -19.7,45.7 -18.4,46.1 -21.8,44.9 -22.3,44.6 -23.0,44.2 -23.9,43.8 -25.2,43.0 -24.6,43.4 -28.1,41.3 -28.1,41.3 -30.2,39.9 -29.3,40.2 -32.0,38.3 -32.3,38.2 -32.1,38.3 -34.4,36.2 -35.4,35.2 -34.7,36.1 -36.4,34.3 -35.8,34.9 -38.3,32.0 -38.0,32.5 -39.6,30.8 -40.0,30.1 -39.9,30.2 -40.7,29.3 -42.3,26.9 -41.8,27.5 -43.7,24.2 -43.4,25.1 -44.7,22.4 -44.7,22.4 -45.6,20.7 -45.5,21.3 -46.7,17.9 -46.3,18.6 -46.6,17.9 -47.2,17.1 -47.6,15.2 -48.6,11.9 -48.3,12.8 -48.8,10.3 -48.9,10.7 -49.4,8.3 -49.3,7.1 -49.3,7.6 -49.8,4.6 -49.7,5.2 -49.8,3.6 -49.9,2.0 -50.1,1.7 -49.9,0.2 -50.0,-2.7 -49.7,-3.7 -50.0,-4.2 -49.6,-7.9 -49.8,-6.4 -49.4,-9.3 -49.2,-10.6 -48.8,-13.0 -48.8,-11.9 -48.7,-12.9 -48.4,-13.9 -47.8,-16.7 -47.9,-16.1 -47.4,-18.6 -47.6,-18.4 -46.8,-20.6 -46.6,-21.0 -45.4,-24.1 -45.9,-23.6 -45.9,-23.4 -44.0,-28.1 -43.9,-27.9 -44.4,-27.3 -42.5,-30.7 -42.4,-31.4 -41.3,-32.9 -41.8,-32.3 -40.7,-34.2 -40.4,-35.0 -40.3,-34.7 -39.6,-36.1 -38.6,-37.5 -38.2,-38.3 -37.4,-39.4 -36.8,-40.4 -35.1,-42.3 -35.8,-41.6 -34.8,-42.8 -33.0,-45.0 -33.3,-44.4 -31.8,-46.2 -30.3,-47.9 -30.2,-48.0 -29.4,-48.7 -28.6,-49.4 -28.0,-50.1 -25.5,-52.1 -26.4,-51.2 -23.9,-53.4 -24.0,-53.3 -22.6,-54.2 -21.4,-55.0 -21.3,-55.1 -19.8,-56.1 -20.4,-55.7 -17.6,-57.4 -16.3,-57.9 -15.7,-58.3 -14.6,-58.8 -14.9,-58.7 -12.0,-59.8 -12.1,-59.9 -12.1,-59.7 -9.1,-60.9 -10.3,-60.5 -9.2,-60.9 -6.8,-61.3 -6.6,-61.5 -4.7,-61.8 -3.3,-62.1 -4.0,-62.2 -1.0,-62.4 -1.2,-62.2 1.6,-62.5 1.0,-62.5 1.8,-62.7 1.7,-62.5 3.2,-62.6 6.2,-62.2 5.1,-62.5 7.6,-62.1 8.7,-61.9 8.2,-62.0 9.5,-61.9 10.3,-61.6 11.8,-61.4 13.1,-60.9 14.3,-60.7 16.3,-59.7 17.3,-59.2 18.9,-58.6 18.6,-58.7 18.4,-59.0 19.3,-58.3 21.1,-57.5 22.2,-56.8 23.3,-56.2 23.8,-55.7 24.7,-55.1 26.2,-54.1 26.4,-54.0 26.7,-53.9 29.3,-51.5 28.7,-52.1 28.9,-51.9 31.5,-49.3 31.5,-49.2 33.0,-47.7 34.3,-46.4 35.1,-45.3 33.7,-46.6 35.1,-45.1 35.3,-45.0 37.1,-42.6 37.3,-42.4 39.2,-39.1 39.0,-39.8 39.8,-38.3 40.4,-37.7 40.3,-37.6 41.8,-34.7 42.3,-33.7 42.2,-33.9 43.6,-30.6 43.4,-31.6 44.6,-28.3 43.9,-29.7 45.2,-26.9 46.0,-24.3 45.6,-26.0 46.0,-24.3 46.9,-22.0 47.1,-21.4 47.6,-19.0 47.4,-19.7 48.4,-16.5 48.5,-15.0 49.2,-12.9 49.1,-12.3 49.0,-12.3 49.1,-12.2 49.6,-8.2 49.7,-7.7 50.0,-5.5 50.0,-3.4" fill="#ffc9a9" stroke="#111" stroke-width="2.2" stroke-linejoin="round" filter="url(#fuzzy_av_1779093954974_tzvk9gi0dec)"/><g id="leftEye" transform="translate(-22.8 -25.5)"><polyline points="-15.4,0.7 -15.2,0.5 -15.0,0.4 -14.8,0.2 -14.6,0.1 -14.3,-0.1 -14.0,-0.2 -13.7,-0.4 -13.4,-0.5 -13.1,-0.7 -12.8,-0.8 -12.5,-0.9 -12.1,-1.1 -11.7,-1.2 -11.4,-1.3 -11.0,-1.5 -10.5,-1.6 -10.1,-1.8 -9.6,-1.9 -9.1,-2.1 -8.6,-2.2 -8.1,-2.4 -7.6,-2.5 -7.1,-2.6 -6.7,-2.7 -6.2,-2.8 -5.7,-2.9 -5.2,-3.0 -4.7,-3.1 -4.2,-3.1 -3.8,-3.2 -3.3,-3.3 -2.8,-3.3 -2.3,-3.3 -1.9,-3.4 -1.4,-3.4 -1.0,-3.4 -0.5,-3.4 -0.1,-3.4 0.4,-3.3 0.8,-3.3 1.3,-3.3 1.7,-3.3 2.1,-3.2 2.5,-3.2 2.9,-3.1 3.3,-3.0 3.7,-3.0 4.1,-2.9 4.5,-2.8 4.9,-2.7 5.3,-2.6 5.7,-2.6 6.0,-2.5 6.4,-2.4 6.8,-2.3 7.1,-2.2 7.4,-2.1 7.8,-2.0 8.1,-1.8 8.4,-1.7 8.8,-1.6 9.1,-1.5 9.4,-1.4 9.7,-1.3 9.9,-1.2 10.2,-1.1 10.5,-1.0 10.8,-0.9 11.0,-0.8 11.3,-0.7 11.6,-0.6 11.8,-0.5 12.1,-0.4 12.3,-0.3 12.5,-0.2 12.8,-0.1 13.0,0.0 13.2,0.1 13.4,0.2 11.4,1.4 11.2,1.4 10.9,1.4 10.7,1.4 10.4,1.5 10.2,1.5 9.9,1.5 9.7,1.5 9.4,1.6 9.1,1.6 8.8,1.6 8.6,1.7 8.3,1.7 8.0,1.7 7.7,1.8 7.4,1.8 7.1,1.8 6.8,1.9 6.4,1.9 6.1,2.0 5.8,2.0 5.5,2.1 5.1,2.1 4.8,2.2 4.5,2.2 4.1,2.3 3.8,2.4 3.4,2.4 3.1,2.5 2.7,2.6 2.4,2.6 2.0,2.7 1.7,2.8 1.3,2.9 1.0,2.9 0.6,3.0 0.3,3.1 -0.1,3.2 -0.5,3.2 -0.8,3.3 -1.2,3.4 -1.6,3.5 -1.9,3.5 -2.3,3.6 -2.7,3.7 -3.0,3.7 -3.4,3.8 -3.8,3.9 -4.2,3.9 -4.6,4.0 -5.0,4.0 -5.4,4.0 -5.8,4.0 -6.2,4.1 -6.6,4.1 -7.0,4.1 -7.4,4.1 -7.8,4.0 -8.2,4.0 -8.6,4.0 -9.1,3.9 -9.5,3.8 -9.9,3.8 -10.4,3.7 -10.8,3.6 -11.1,3.5 -11.4,3.5 -11.7,3.4 -12.0,3.3 -12.2,3.2 -12.5,3.1 -12.7,3.0 -13.0,2.9 -13.2,2.8 -13.4,2.7 -13.6,2.6 -13.7,2.5 -13.9,2.3 -14.0,2.2 -14.1,2.0" fill="#fff" stroke="#fff" stroke-width="0" stroke-linejoin="round" filter="url(#fuzzy_av_1779093954974_tzvk9gi0dec)"/><polyline points="15.7,2.1 15.8,2.0 15.9,1.9 15.9,1.7 16.0,1.6 15.9,1.5 15.9,1.3 15.8,1.2 15.7,1.0 15.6,0.9 -15.4,0.7 -15.2,0.5 -15.0,0.4 -14.8,0.2 -14.6,0.1 -14.3,-0.1 -14.0,-0.2 -13.7,-0.4 -13.4,-0.5 -13.1,-0.7 -12.8,-0.8 -12.5,-0.9 -12.1,-1.1 -11.7,-1.2 -11.4,-1.3 -11.0,-1.5 -10.5,-1.6 -10.1,-1.8 -9.6,-1.9 -9.1,-2.1 -8.6,-2.2 -8.1,-2.4 -7.6,-2.5 -7.1,-2.6 -6.7,-2.7 -6.2,-2.8 -5.7,-2.9 -5.2,-3.0 -4.7,-3.1 -4.2,-3.1 -3.8,-3.2 -3.3,-3.3 -2.8,-3.3 -2.3,-3.3 -1.9,-3.4 -1.4,-3.4 -1.0,-3.4 -0.5,-3.4 -0.1,-3.4 0.4,-3.3 0.8,-3.3 1.3,-3.3 1.7,-3.3 2.1,-3.2 2.5,-3.2 2.9,-3.1 3.3,-3.0 3.7,-3.0 4.1,-2.9 4.5,-2.8 4.9,-2.7 5.3,-2.6 5.7,-2.6 6.0,-2.5 6.4,-2.4 6.8,-2.3 7.1,-2.2 7.4,-2.1 7.8,-2.0 8.1,-1.8 8.4,-1.7 8.8,-1.6 9.1,-1.5 9.4,-1.4 9.7,-1.3 9.9,-1.2 10.2,-1.1 10.5,-1.0 10.8,-0.9 11.0,-0.8 11.3,-0.7 11.6,-0.6 11.8,-0.5 12.1,-0.4 12.3,-0.3 12.5,-0.2 12.8,-0.1 13.0,0.0 13.2,0.1 13.4,0.2 -13.6,0.3 -13.8,0.4 -14.0,0.5 -14.2,0.5 -14.4,0.6 -14.5,0.7 -14.7,0.8 -14.9,0.9 -15.0,0.9 -15.2,1.0" fill="none" stroke="#111" stroke-width="2.8950691705008365" stroke-linejoin="round" stroke-linecap="round" filter="url(#fuzzy_av_1779093954974_tzvk9gi0dec)"/><polyline points="13.2,0.3 13.5,0.4 13.7,0.6 13.9,0.8 14.0,1.0 14.1,1.2 14.2,1.4 14.2,1.5 14.2,1.7 14.2,1.9 -14.1,2.0 -14.0,2.2 -13.9,2.3 -13.7,2.5 -13.6,2.6 -13.4,2.7 -13.2,2.8 -13.0,2.9 -12.7,3.0 -12.5,3.1 -12.2,3.2 -12.0,3.3 -11.7,3.4 -11.4,3.5 -11.1,3.5 -10.8,3.6 -10.4,3.7 -9.9,3.8 -9.5,3.8 -9.1,3.9 -8.6,4.0 -8.2,4.0 -7.8,4.0 -7.4,4.1 -7.0,4.1 -6.6,4.1 -6.2,4.1 -5.8,4.0 -5.4,4.0 -5.0,4.0 -4.6,4.0 -4.2,3.9 -3.8,3.9 -3.4,3.8 -3.0,3.7 -2.7,3.7 -2.3,3.6 -1.9,3.5 -1.6,3.5 -1.2,3.4 -0.8,3.3 -0.5,3.2 -0.1,3.2 0.3,3.1 0.6,3.0 1.0,2.9 1.3,2.9 1.7,2.8 2.0,2.7 2.4,2.6 2.7,2.6 3.1,2.5 3.4,2.4 3.8,2.4 4.1,2.3 4.5,2.2 4.8,2.2 5.1,2.1 5.5,2.1 5.8,2.0 6.1,2.0 6.4,1.9 6.8,1.9 7.1,1.8 7.4,1.8 7.7,1.8 8.0,1.7 8.3,1.7 8.6,1.7 8.8,1.6 9.1,1.6 9.4,1.6 9.7,1.5 9.9,1.5 10.2,1.5 10.4,1.5 10.7,1.4 10.9,1.4 11.2,1.4 11.4,1.4 -11.6,1.3 -11.8,1.3 -12.0,1.3 -12.2,1.3 -12.4,1.3 -12.6,1.2 -12.8,1.2 -13.0,1.2 -13.1,1.2 -13.3,1.2" fill="none" stroke="#111" stroke-width="3.021537344265038" stroke-linejoin="round" stroke-linecap="round" filter="url(#fuzzy_av_1779093954974_tzvk9gi0dec)"/><circle r="3.0524582094149904" cx="-0.882221075726564" cy="-2.2319674593302317" stroke="#111" fill="none" stroke-width="1.1875696825804107" filter="url(#fuzzy_av_1779093954974_tzvk9gi0dec)" clip-path="url(#leftEye_av_1779093954974_tzvk9gi0dec)"/><circle r="4.6629581621281195" cx="-0.23376109932873002" cy="0.8337162593906142" stroke="#111" fill="none" stroke-width="1.23129569946277" filter="url(#fuzzy_av_1779093954974_tzvk9gi0dec)" clip-path="url(#leftEye_av_1779093954974_tzvk9gi0dec)"/><circle r="3.916310565568872" cx="-1.2414441149377935" cy="0.05113235790324211" stroke="#111" fill="none" stroke-width="0.898869836729226" filter="url(#fuzzy_av_1779093954974_tzvk9gi0dec)" clip-path="url(#leftEye_av_1779093954974_tzvk9gi0dec)"/><circle r="4.216056006636604" cx="-2.018769696639487" cy="-0.4923539847407006" stroke="#111" fill="none" stroke-width="1.0470537636896937" filter="url(#fuzzy_av_1779093954974_tzvk9gi0dec)" clip-path="url(#leftEye_av_1779093954974_tzvk9gi0dec)"/><circle r="2.745392293368246" cx="-2.213628436289374" cy="0.3439680838307244" stroke="#111" fill="none" stroke-width="0.91728919620721" filter="url(#fuzzy_av_1779093954974_tzvk9gi0dec)" clip-path="url(#leftEye_av_1779093954974_tzvk9gi0dec)"/><circle r="4.676101907504817" cx="0.8823732532293955" cy="-3.001100237416108" stroke="#111" fill="none" stroke-width="1.1720173419100914" filter="url(#fuzzy_av_1779093954974_tzvk9gi0dec)" clip-path="url(#leftEye_av_1779093954974_tzvk9gi0dec)"/><circle r="2.608526330392415" cx="1.1051488777718395" cy="-2.922567533610548" stroke="#111" fill="none" stroke-width="1.0660670938977168" filter="url(#fuzzy_av_1779093954974_tzvk9gi0dec)" clip-path="url(#leftEye_av_1779093954974_tzvk9gi0dec)"/><circle r="3.7366586652430556" cx="0.7904220529227621" cy="-1.202795124713122" stroke="#111" fill="none" stroke-width="0.8865206055642277" filter="url(#fuzzy_av_1779093954974_tzvk9gi0dec)" clip-path="url(#leftEye_av_1779093954974_tzvk9gi0dec)"/><circle r="2.521586883378631" cx="-1.0797365533488408" cy="-0.8082872649095441" stroke="#111" fill="none" stroke-width="1.0268490442601677" filter="url(#fuzzy_av_1779093954974_tzvk9gi0dec)" clip-path="url(#leftEye_av_1779093954974_tzvk9gi0dec)"/><circle r="3.2663504385937343" cx="0.23512894777216609" cy="-1.9354733713107612" stroke="#111" fill="none" stroke-width="1.2790999105165963" filter="url(#fuzzy_av_1779093954974_tzvk9gi0dec)" clip-path="url(#leftEye_av_1779093954974_tzvk9gi0dec)"/></g><g id="rightEye" transform="translate(29.6 -29.8)"><polyline points="-15.6,0.7 -15.4,0.5 -15.2,0.4 -15.0,0.2 -14.8,0.1 -14.6,-0.1 -14.3,-0.3 -14.1,-0.4 -13.8,-0.6 -13.5,-0.8 -13.2,-0.9 -12.9,-1.1 -12.6,-1.2 -12.2,-1.4 -11.9,-1.5 -11.6,-1.7 -11.2,-1.9 -10.8,-2.1 -10.4,-2.2 -9.9,-2.4 -9.5,-2.6 -9.0,-2.7 -8.6,-2.9 -8.1,-3.1 -7.6,-3.2 -7.1,-3.3 -6.6,-3.5 -6.1,-3.6 -5.6,-3.7 -5.0,-3.8 -4.5,-3.9 -4.0,-4.0 -3.4,-4.1 -2.9,-4.2 -2.3,-4.2 -1.8,-4.3 -1.2,-4.3 -0.7,-4.4 -0.1,-4.4 0.4,-4.4 1.0,-4.4 1.5,-4.4 2.0,-4.4 2.6,-4.4 3.1,-4.4 3.6,-4.3 4.1,-4.3 4.6,-4.2 5.1,-4.2 5.6,-4.1 6.1,-4.0 6.6,-3.9 7.1,-3.8 7.5,-3.7 8.0,-3.6 8.4,-3.5 8.8,-3.4 9.3,-3.3 9.7,-3.2 10.1,-3.1 10.5,-3.0 10.8,-2.8 11.2,-2.7 11.6,-2.6 11.9,-2.4 12.2,-2.3 12.6,-2.2 12.9,-2.1 13.2,-1.9 13.5,-1.8 13.8,-1.7 14.1,-1.5 14.4,-1.4 14.6,-1.3 14.9,-1.2 15.1,-1.0 15.4,-0.9 15.6,-0.8 15.9,-0.6 16.1,-0.5 13.8,1.7 13.4,1.7 13.1,1.8 12.8,1.8 12.5,1.8 12.2,1.9 11.8,1.9 11.5,1.9 11.2,2.0 10.8,2.0 10.5,2.1 10.1,2.1 9.7,2.2 9.4,2.2 9.0,2.3 8.6,2.3 8.2,2.4 7.9,2.4 7.5,2.5 7.1,2.6 6.7,2.6 6.3,2.7 5.9,2.8 5.5,2.9 5.1,2.9 4.7,3.0 4.3,3.1 3.8,3.2 3.4,3.3 3.0,3.4 2.6,3.5 2.2,3.6 1.8,3.7 1.4,3.8 1.0,3.9 0.6,4.0 0.2,4.1 -0.2,4.2 -0.6,4.3 -1.0,4.4 -1.3,4.5 -1.7,4.6 -2.1,4.7 -2.5,4.8 -2.9,4.9 -3.3,5.0 -3.6,5.0 -4.0,5.1 -4.4,5.2 -4.8,5.2 -5.1,5.3 -5.5,5.3 -5.9,5.3 -6.2,5.3 -6.6,5.3 -7.0,5.3 -7.4,5.3 -7.7,5.2 -8.1,5.2 -8.5,5.1 -8.9,5.0 -9.2,4.9 -9.6,4.8 -10.0,4.7 -10.4,4.6 -10.6,4.5 -10.9,4.4 -11.2,4.3 -11.4,4.2 -11.7,4.1 -11.9,4.0 -12.1,3.8 -12.4,3.7 -12.6,3.6 -12.8,3.4 -12.9,3.2 -13.1,3.1 -13.3,2.9 -13.4,2.7 -13.5,2.5" fill="#fff" stroke="#fff" stroke-width="0" stroke-linejoin="round" filter="url(#fuzzy_av_1779093954974_tzvk9gi0dec)"/><polyline points="-16.1,2.1 -16.2,2.0 -16.2,1.9 -16.2,1.7 -16.2,1.6 -16.1,1.5 -16.0,1.3 -15.9,1.2 -15.8,1.0 -15.7,0.9 -15.6,0.7 -15.4,0.5 -15.2,0.4 -15.0,0.2 -14.8,0.1 -14.6,-0.1 -14.3,-0.3 -14.1,-0.4 -13.8,-0.6 -13.5,-0.8 -13.2,-0.9 -12.9,-1.1 -12.6,-1.2 -12.2,-1.4 -11.9,-1.5 -11.6,-1.7 -11.2,-1.9 -10.8,-2.1 -10.4,-2.2 -9.9,-2.4 -9.5,-2.6 -9.0,-2.7 -8.6,-2.9 -8.1,-3.1 -7.6,-3.2 -7.1,-3.3 -6.6,-3.5 -6.1,-3.6 -5.6,-3.7 -5.0,-3.8 -4.5,-3.9 -4.0,-4.0 -3.4,-4.1 -2.9,-4.2 -2.3,-4.2 -1.8,-4.3 -1.2,-4.3 -0.7,-4.4 -0.1,-4.4 0.4,-4.4 1.0,-4.4 1.5,-4.4 2.0,-4.4 2.6,-4.4 3.1,-4.4 3.6,-4.3 4.1,-4.3 4.6,-4.2 5.1,-4.2 5.6,-4.1 6.1,-4.0 6.6,-3.9 7.1,-3.8 7.5,-3.7 8.0,-3.6 8.4,-3.5 8.8,-3.4 9.3,-3.3 9.7,-3.2 10.1,-3.1 10.5,-3.0 10.8,-2.8 11.2,-2.7 11.6,-2.6 11.9,-2.4 12.2,-2.3 12.6,-2.2 12.9,-2.1 13.2,-1.9 13.5,-1.8 13.8,-1.7 14.1,-1.5 14.4,-1.4 14.6,-1.3 14.9,-1.2 15.1,-1.0 15.4,-0.9 15.6,-0.8 15.9,-0.6 16.1,-0.5 16.3,-0.4 16.5,-0.3 16.7,-0.2 16.9,-0.0 17.0,0.1 17.2,0.2 17.4,0.3 17.5,0.4 17.7,0.5 17.8,0.6" fill="none" stroke="#111" stroke-width="2.060737358726304" stroke-linejoin="round" stroke-linecap="round" filter="url(#fuzzy_av_1779093954974_tzvk9gi0dec)"/><polyline points="-13.3,0.3 -13.5,0.6 -13.6,0.8 -13.7,1.0 -13.7,1.2 -13.8,1.5 -13.8,1.7 -13.7,1.9 -13.7,2.1 -13.6,2.3 -13.5,2.5 -13.4,2.7 -13.3,2.9 -13.1,3.1 -12.9,3.2 -12.8,3.4 -12.6,3.6 -12.4,3.7 -12.1,3.8 -11.9,4.0 -11.7,4.1 -11.4,4.2 -11.2,4.3 -10.9,4.4 -10.6,4.5 -10.4,4.6 -10.0,4.7 -9.6,4.8 -9.2,4.9 -8.9,5.0 -8.5,5.1 -8.1,5.2 -7.7,5.2 -7.4,5.3 -7.0,5.3 -6.6,5.3 -6.2,5.3 -5.9,5.3 -5.5,5.3 -5.1,5.3 -4.8,5.2 -4.4,5.2 -4.0,5.1 -3.6,5.0 -3.3,5.0 -2.9,4.9 -2.5,4.8 -2.1,4.7 -1.7,4.6 -1.3,4.5 -1.0,4.4 -0.6,4.3 -0.2,4.2 0.2,4.1 0.6,4.0 1.0,3.9 1.4,3.8 1.8,3.7 2.2,3.6 2.6,3.5 3.0,3.4 3.4,3.3 3.8,3.2 4.3,3.1 4.7,3.0 5.1,2.9 5.5,2.9 5.9,2.8 6.3,2.7 6.7,2.6 7.1,2.6 7.5,2.5 7.9,2.4 8.2,2.4 8.6,2.3 9.0,2.3 9.4,2.2 9.7,2.2 10.1,2.1 10.5,2.1 10.8,2.0 11.2,2.0 11.5,1.9 11.8,1.9 12.2,1.9 12.5,1.8 12.8,1.8 13.1,1.8 13.4,1.7 13.8,1.7 14.0,1.7 14.3,1.6 14.6,1.6 14.9,1.6 15.2,1.6 15.4,1.5 15.7,1.5 15.9,1.5 16.2,1.5 16.4,1.4" fill="none" stroke="#111" stroke-width="2.307390145675972" stroke-linejoin="round" stroke-linecap="round" filter="url(#fuzzy_av_1779093954974_tzvk9gi0dec)"/><circle r="4.386905874147915" cx="-2.1197997682839356" cy="-0.003863885255759758" stroke="#111" fill="none" stroke-width="0.8435241065049411" filter="url(#fuzzy_av_1779093954974_tzvk9gi0dec)" clip-path="url(#rightEye_av_1779093954974_tzvk9gi0dec)"/><circle r="2.9669051679837106" cx="-4.092346114404238" cy="-1.372938984441547" stroke="#111" fill="none" stroke-width="0.9939584518245284" filter="url(#fuzzy_av_1779093954974_tzvk9gi0dec)" clip-path="url(#rightEye_av_1779093954974_tzvk9gi0dec)"/><circle r="3.7575631060097425" cx="-5.552105727172952" cy="0.03233723828440738" stroke="#111" fill="none" stroke-width="1.1399110090265407" filter="url(#fuzzy_av_1779093954974_tzvk9gi0dec)" clip-path="url(#rightEye_av_1779093954974_tzvk9gi0dec)"/><circle r="2.4687469529473796" cx="-3.0619007677724945" cy="-3.053689054910577" stroke="#111" fill="none" stroke-width="1.0642668216082818" filter="url(#fuzzy_av_1779093954974_tzvk9gi0dec)" clip-path="url(#rightEye_av_1779093954974_tzvk9gi0dec)"/><circle r="4.383642829287908" cx="-1.6012327578751386" cy="-1.5282419123330913" stroke="#111" fill="none" stroke-width="1.1924677742200533" filter="url(#fuzzy_av_1779093954974_tzvk9gi0dec)" clip-path="url(#rightEye_av_1779093954974_tzvk9gi0dec)"/><circle r="3.1933534219331117" cx="-1.895996824381227" cy="-0.7450049189287467" stroke="#111" fill="none" stroke-width="0.9620655810847387" filter="url(#fuzzy_av_1779093954974_tzvk9gi0dec)" clip-path="url(#rightEye_av_1779093954974_tzvk9gi0dec)"/><circle r="3.9650542294914217" cx="-2.5191810761856432" cy="-3.0724130099943894" stroke="#111" fill="none" stroke-width="1.3360891109036248" filter="url(#fuzzy_av_1779093954974_tzvk9gi0dec)" clip-path="url(#rightEye_av_1779093954974_tzvk9gi0dec)"/><circle r="2.316275431720325" cx="-3.948793488420119" cy="-0.9250521021772986" stroke="#111" fill="none" stroke-width="1.3210442115289114" filter="url(#fuzzy_av_1779093954974_tzvk9gi0dec)" clip-path="url(#rightEye_av_1779093954974_tzvk9gi0dec)"/><circle r="2.9216142390775532" cx="-3.958623324267536" cy="-1.6445260871595089" stroke="#111" fill="none" stroke-width="1.3883767280424346" filter="url(#fuzzy_av_1779093954974_tzvk9gi0dec)" clip-path="url(#rightEye_av_1779093954974_tzvk9gi0dec)"/><circle r="3.297089643810664" cx="-2.5078487407770798" cy="-2.0482679336189884" stroke="#111" fill="none" stroke-width="1.3789011286425703" filter="url(#fuzzy_av_1779093954974_tzvk9gi0dec)" clip-path="url(#rightEye_av_1779093954974_tzvk9gi0dec)"/></g><g id="hairs"><polyline points="8.2,-62.4 9.3,-63.8 10.2,-62.8 11.0,-61.4 11.6,-62.7 12.0,-60.4 12.1,-61.1 11.7,-61.0 10.8,-60.3 9.5,-58.4 7.7,-58.1 5.6,-57.0 3.1,-57.7 0.1,-56.2 -3.3,-56.2 -7.3,-54.5 -11.9,-53.7 -17.1,-52.7 -23.0,-51.0 -29.4,-50.2" fill="none" stroke="rgb(128,128,128)" stroke-width="1.8440013143317036" stroke-linejoin="round" stroke-linecap="round" filter="url(#fuzzy_av_1779093954974_tzvk9gi0dec)" opacity="0.942592966642586"/><polyline points="-31.8,-47.0 -30.6,-49.1 -29.3,-50.0 -27.7,-49.8 -25.7,-51.7 -23.5,-52.0 -21.0,-52.3 -18.3,-55.3 -15.6,-55.6 -12.9,-56.4 -10.1,-57.5 -7.4,-58.6 -4.6,-59.7 -1.9,-61.6 0.7,-62.0 3.1,-62.9 6.2,-63.7" fill="none" stroke="rgb(128,128,128)" stroke-width="2.3118392223484943" stroke-linejoin="round" stroke-linecap="round" filter="url(#fuzzy_av_1779093954974_tzvk9gi0dec)" opacity="0.9847837859876977"/><polyline points="-16.3,-58.8 -15.6,-59.3 -14.8,-59.6 -13.8,-59.5 -12.8,-60.8 -11.9,-61.4 -11.1,-61.3 -10.3,-62.3 -9.7,-60.9 -9.1,-61.8 -8.7,-61.8 -8.4,-61.7 -8.4,-60.9 -8.7,-61.3 -9.4,-61.7 -10.4,-60.2 -11.7,-59.5 -13.6,-59.0 -16.4,-58.2 -20.4,-56.4" fill="none" stroke="rgb(128,128,128)" stroke-width="1.389366967527394" stroke-linejoin="round" stroke-linecap="round" filter="url(#fuzzy_av_1779093954974_tzvk9gi0dec)" opacity="0.8103978998929913"/><polyline points="21.1,-58.8 22.1,-58.5 22.8,-58.1 23.4,-56.3 23.7,-57.3 23.9,-55.6 23.8,-54.9 23.5,-54.5 23.0,-55.6 22.1,-53.9 21.0,-55.1 19.6,-54.2 17.9,-54.3 15.7,-54.1 13.2,-54.2 10.2,-54.5 6.7,-55.4 2.7,-54.6 -1.6,-56.0 -6.4,-56.4 -11.6,-56.5 -17.6,-58.9" fill="none" stroke="rgb(128,128,128)" stroke-width="0.8119618008994882" stroke-linejoin="round" stroke-linecap="round" filter="url(#fuzzy_av_1779093954974_tzvk9gi0dec)" opacity="0.9023452155456839"/><polyline points="-12.0,-61.0 -11.9,-61.3 -11.2,-60.1 -10.3,-62.0 -9.4,-61.6 -8.4,-62.8 -7.4,-61.7 -6.5,-63.2 -5.7,-62.9 -5.1,-62.4 -4.6,-63.3 -4.4,-63.1 -4.4,-63.3 -4.7,-61.7 -5.3,-62.6 -6.2,-61.8 -7.4,-61.5 -8.8,-61.3 -10.6,-60.1 -12.9,-60.1 -16.0,-59.0 -20.4,-55.9" fill="none" stroke="rgb(128,128,128)" stroke-width="2.115342478130159" stroke-linejoin="round" stroke-linecap="round" filter="url(#fuzzy_av_1779093954974_tzvk9gi0dec)" opacity="0.9265283057466138"/><polyline points="-28.6,-51.2 -27.6,-51.3 -26.8,-50.9 -26.1,-52.7 -25.5,-52.6 -25.2,-51.2 -25.0,-51.3 -24.9,-49.7 -25.0,-48.5 -25.3,-47.0 -25.7,-45.8 -26.3,-43.9 -27.1,-40.3 -28.1,-38.3 -29.4,-34.4 -30.9,-29.6 -32.7,-24.9 -34.7,-21.3 -37.0,-15.9 -39.5,-9.8 -42.3,-3.5 -45.2,3.7 -48.3,11.5" fill="none" stroke="rgb(128,128,128)" stroke-width="0.7263994646635996" stroke-linejoin="round" stroke-linecap="round" filter="url(#fuzzy_av_1779093954974_tzvk9gi0dec)" opacity="0.854336314527762"/><polyline points="-45.4,-24.4 -45.6,-25.6 -45.2,-25.7 -44.7,-26.9 -44.3,-28.9 -43.8,-28.4 -43.5,-29.9 -43.2,-30.0 -43.0,-29.7 -42.9,-30.2 -42.9,-29.9 -43.0,-28.3 -43.2,-28.7 -43.6,-27.7 -44.0,-24.6 -44.6,-23.5 -45.3,-20.2 -46.2,-18.3 -47.2,-14.1 -48.4,-9.0 -49.7,-4.7" fill="none" stroke="rgb(128,128,128)" stroke-width="0.7561652572177523" stroke-linejoin="round" stroke-linecap="round" filter="url(#fuzzy_av_1779093954974_tzvk9gi0dec)" opacity="0.9348670911291617"/><polyline points="-31.8,-47.3 -30.6,-47.8 -29.3,-49.1 -27.6,-50.0 -25.6,-51.5 -23.2,-51.1 -20.5,-53.5 -17.6,-53.8 -14.5,-54.8 -11.3,-54.8 -8.1,-55.7 -4.8,-57.0 -1.3,-57.4 2.1,-59.4 5.7,-58.8 9.0,-60.2 12.0,-61.0 14.3,-60.9" fill="none" stroke="rgb(128,128,128)" stroke-width="1.8093798596861905" stroke-linejoin="round" stroke-linecap="round" filter="url(#fuzzy_av_1779093954974_tzvk9gi0dec)" opacity="0.9402497797283429"/><polyline points="-33.3,-46.3 -32.0,-46.8 -31.0,-47.3 -30.4,-48.6 -29.8,-49.6 -29.4,-49.0 -29.2,-48.8 -29.1,-49.2 -29.3,-49.4 -29.9,-48.7 -30.8,-47.3 -32.1,-45.7 -33.7,-44.0 -35.8,-40.3 -38.4,-38.2 -41.8,-33.0" fill="none" stroke="rgb(128,128,128)" stroke-width="0.795823388804124" stroke-linejoin="round" stroke-linecap="round" filter="url(#fuzzy_av_1779093954974_tzvk9gi0dec)" opacity="0.9802492781774561"/><polyline points="-45.9,-25.3 -45.1,-25.2 -43.7,-27.9 -41.8,-29.5 -39.5,-31.7 -36.8,-33.8 -33.7,-35.0 -30.3,-36.9 -26.5,-41.0 -22.4,-43.1 -18.0,-44.6 -13.4,-48.0 -8.7,-50.7 -3.9,-54.2 0.9,-55.5 5.6,-59.4 10.3,-62.2" fill="none" stroke="rgb(128,128,128)" stroke-width="1.5801996132842948" stroke-linejoin="round" stroke-linecap="round" filter="url(#fuzzy_av_1779093954974_tzvk9gi0dec)" opacity="0.8670955682574254"/><polyline points="-16.3,-59.8 -15.7,-58.3 -15.1,-60.2 -14.6,-60.0 -14.1,-58.9 -13.8,-59.2 -13.7,-57.6 -13.7,-56.8 -13.9,-56.1 -14.3,-56.5 -14.8,-54.6 -15.5,-51.7 -16.4,-51.3 -17.6,-48.0 -19.0,-44.9 -20.7,-43.1 -22.8,-40.0 -25.1,-35.2 -27.8,-31.7 -30.7,-27.2 -34.0,-22.1 -37.6,-17.1 -41.4,-10.5 -45.5,-4.3 -49.9,0.5" fill="none" stroke="rgb(128,128,128)" stroke-width="0.7365820728786275" stroke-linejoin="round" stroke-linecap="round" filter="url(#fuzzy_av_1779093954974_tzvk9gi0dec)" opacity="0.756316684910388"/><polyline points="-44.4,-29.2 -43.0,-30.8 -42.1,-32.6 -41.2,-32.5 -40.4,-35.1 -39.4,-36.4 -38.3,-37.3 -37.2,-39.3 -35.9,-40.6 -34.6,-41.7 -33.2,-42.6 -31.9,-43.4 -30.5,-46.3 -29.1,-47.3 -27.8,-48.0 -26.4,-49.4 -25.2,-51.7 -24.0,-52.2 -23.0,-53.4 -22.1,-53.5 -21.4,-54.4 -20.9,-56.5 -20.7,-55.7 -20.7,-56.6 -20.8,-55.8 -21.3,-55.6" fill="none" stroke="rgb(128,128,128)" stroke-width="0.8711808293718529" stroke-linejoin="round" stroke-linecap="round" filter="url(#fuzzy_av_1779093954974_tzvk9gi0dec)" opacity="0.8483095553270287"/><polyline points="-47.4,-18.6 -47.3,-19.5 -47.0,-20.8 -46.6,-22.2 -46.3,-22.1 -46.0,-24.1 -45.8,-24.2 -45.6,-23.2 -45.5,-22.7 -45.5,-22.7 -45.5,-21.1 -45.7,-18.5 -46.0,-16.2 -46.5,-13.1 -47.1,-9.0 -47.8,-4.7 -48.7,-1.8 -49.8,2.6" fill="none" stroke="rgb(128,128,128)" stroke-width="2.290403929430001" stroke-linejoin="round" stroke-linecap="round" filter="url(#fuzzy_av_1779093954974_tzvk9gi0dec)" opacity="0.8179655202629328"/><polyline points="-39.6,-37.2 -38.5,-37.9 -37.1,-40.0 -35.3,-41.3 -33.0,-41.8 -30.4,-44.3 -27.6,-45.4 -24.5,-48.2 -21.1,-49.7 -17.5,-51.9 -13.8,-53.7 -9.9,-56.7 -6.0,-58.5 -2.2,-59.6 1.6,-62.1 6.2,-64.2" fill="none" stroke="rgb(128,128,128)" stroke-width="1.9921680906786328" stroke-linejoin="round" stroke-linecap="round" filter="url(#fuzzy_av_1779093954974_tzvk9gi0dec)" opacity="0.971268108849185"/><polyline points="-35.1,-44.1 -35.2,-44.1 -34.6,-44.4 -34.0,-44.8 -33.3,-44.6 -32.8,-45.0 -32.3,-44.4 -32.0,-44.7 -31.8,-45.2 -31.6,-43.8 -31.6,-41.4 -31.7,-40.2 -31.9,-38.7 -32.3,-36.4 -32.8,-33.3 -33.5,-30.4 -34.4,-28.2 -35.4,-23.2 -36.6,-19.6 -37.9,-13.9 -39.4,-9.1 -41.0,-3.2 -42.7,3.4 -44.5,9.9 -46.6,17.5" fill="none" stroke="rgb(128,128,128)" stroke-width="1.6900984494076532" stroke-linejoin="round" stroke-linecap="round" filter="url(#fuzzy_av_1779093954974_tzvk9gi0dec)" opacity="0.9105529208508709"/><polyline points="-45.9,-24.1 -44.6,-27.1 -44.0,-29.7 -43.4,-30.0 -42.8,-30.9 -42.3,-32.1 -41.7,-33.0 -41.3,-33.1 -40.9,-34.1 -40.5,-35.4 -40.2,-35.7 -40.0,-36.6 -39.8,-36.3 -39.7,-36.8 -39.7,-37.5 -39.9,-35.6 -40.2,-35.3 -40.8,-35.0 -41.5,-32.7 -42.4,-30.2 -43.5,-29.0 -44.8,-25.0 -46.6,-21.2" fill="none" stroke="rgb(128,128,128)" stroke-width="1.6595001097934396" stroke-linejoin="round" stroke-linecap="round" filter="url(#fuzzy_av_1779093954974_tzvk9gi0dec)" opacity="0.8642828159112579"/><polyline points="19.3,-59.4 20.8,-58.3 21.7,-58.5 22.4,-58.4 22.8,-56.9 23.0,-56.3 22.9,-55.4 22.6,-55.5 21.9,-54.7 21.0,-54.6 19.8,-54.4 18.2,-54.9 16.2,-54.4 13.9,-54.3 11.2,-56.0 8.0,-56.2 4.3,-55.4 -0.0,-57.0 -4.8,-58.1 -10.1,-58.9 -15.7,-59.7" fill="none" stroke="rgb(128,128,128)" stroke-width="2.5282096567685715" stroke-linejoin="round" stroke-linecap="round" filter="url(#fuzzy_av_1779093954974_tzvk9gi0dec)" opacity="0.8044791481162101"/><polyline points="23.8,-57.3 24.6,-55.4 24.9,-55.7 24.9,-54.9 24.4,-53.4 23.6,-50.6 22.4,-49.0 20.8,-47.5 18.8,-44.9 16.5,-42.1 13.6,-38.6 10.3,-35.3 6.5,-31.0 2.1,-28.3 -2.7,-23.6 -7.9,-18.9 -13.5,-14.7 -19.6,-10.6 -26.1,-5.6 -33.1,-0.0 -40.5,6.2 -48.3,11.6" fill="none" stroke="rgb(128,128,128)" stroke-width="2.446908052075604" stroke-linejoin="round" stroke-linecap="round" filter="url(#fuzzy_av_1779093954974_tzvk9gi0dec)" opacity="0.8181728782320867"/><polyline points="31.5,-50.9 32.0,-49.4 32.8,-48.2 33.5,-48.9 34.0,-47.3 34.3,-47.8 34.6,-46.8 34.9,-46.7 35.1,-45.4 35.2,-44.6 35.1,-44.1 34.9,-45.1 34.3,-45.8 33.5,-45.1 32.5,-46.5 31.2,-47.6 29.7,-49.1 28.0,-49.4 26.0,-51.9 23.6,-52.7 20.6,-56.3 17.0,-59.6 13.1,-61.0" fill="none" stroke="rgb(128,128,128)" stroke-width="2.297548895613517" stroke-linejoin="round" stroke-linecap="round" filter="url(#fuzzy_av_1779093954974_tzvk9gi0dec)" opacity="0.7965142406828789"/><polyline points="-12.1,-61.7 -10.5,-61.6 -9.8,-61.7 -9.2,-62.1 -8.6,-60.6 -8.2,-62.0 -7.9,-60.3 -7.9,-59.6 -8.1,-59.7 -8.7,-58.2 -9.5,-57.2 -10.6,-55.3 -12.0,-52.7 -13.8,-51.0 -15.8,-48.4 -18.1,-44.4 -20.7,-41.9 -23.6,-38.5 -26.9,-35.8 -30.5,-30.8 -34.6,-27.0 -39.0,-23.2 -43.8,-17.1 -48.8,-13.7" fill="none" stroke="rgb(128,128,128)" stroke-width="1.3945981058945947" stroke-linejoin="round" stroke-linecap="round" filter="url(#fuzzy_av_1779093954974_tzvk9gi0dec)" opacity="0.875334761592363"/><polyline points="-41.3,-34.0 -41.3,-34.6 -40.8,-35.3 -40.2,-35.7 -39.6,-37.8 -38.9,-38.0 -38.3,-38.6 -37.7,-40.0 -37.1,-40.0 -36.7,-41.1 -36.5,-41.3 -36.5,-41.4 -36.8,-41.1 -37.3,-39.8 -38.1,-38.0 -39.2,-38.3 -40.4,-36.3" fill="none" stroke="rgb(128,128,128)" stroke-width="1.6694237079999545" stroke-linejoin="round" stroke-linecap="round" filter="url(#fuzzy_av_1779093954974_tzvk9gi0dec)" opacity="0.9134125869950536"/><polyline points="33.7,-48.5 34.8,-47.4 35.7,-46.2 36.5,-45.2 37.3,-42.2 38.0,-41.8 38.4,-40.7 38.8,-41.0 39.0,-40.6 39.1,-38.8 39.1,-40.1 38.9,-39.2 38.6,-38.6 38.1,-39.2 37.4,-40.8 36.5,-40.5 35.4,-40.8 34.1,-41.8 32.5,-43.8 30.7,-44.4 28.8,-47.1 26.7,-48.9 24.4,-52.4 21.7,-53.7 18.4,-57.4 14.3,-61.6" fill="none" stroke="rgb(128,128,128)" stroke-width="2.5584428501874044" stroke-linejoin="round" stroke-linecap="round" filter="url(#fuzzy_av_1779093954974_tzvk9gi0dec)" opacity="0.8203288855938808"/><polyline points="-39.6,-36.5 -38.8,-37.7 -38.2,-40.0 -37.6,-40.7 -37.1,-39.7 -36.7,-41.4 -36.4,-41.1 -36.2,-41.0 -36.2,-41.7 -36.2,-39.3 -36.4,-39.2 -36.9,-37.2 -37.5,-35.4 -38.4,-34.1 -39.5,-30.8 -40.9,-28.0 -42.5,-24.8 -44.5,-20.9 -46.8,-16.2 -49.4,-11.2" fill="none" stroke="rgb(128,128,128)" stroke-width="1.7549197795926297" stroke-linejoin="round" stroke-linecap="round" filter="url(#fuzzy_av_1779093954974_tzvk9gi0dec)" opacity="0.8646796661288493"/><polyline points="35.3,-46.1 36.3,-44.0 36.3,-43.8 35.5,-42.1 33.9,-41.5 31.4,-41.0 28.2,-39.7 24.2,-39.2 19.3,-38.6 13.7,-39.0 7.1,-38.0 -0.4,-37.2 -8.9,-36.9 -18.3,-35.9 -28.8,-36.9 -40.3,-36.7" fill="none" stroke="rgb(128,128,128)" stroke-width="1.5039958349774172" stroke-linejoin="round" stroke-linecap="round" filter="url(#fuzzy_av_1779093954974_tzvk9gi0dec)" opacity="0.8372123483541082"/><polyline points="17.3,-59.3 18.2,-58.9 18.7,-59.1 19.3,-59.6 20.2,-59.4 21.1,-58.7 22.2,-57.7 23.1,-56.9 23.9,-57.0 24.6,-56.2 25.0,-56.2 25.3,-56.0 25.4,-55.4 25.3,-55.0 25.0,-55.5 24.4,-56.8 23.7,-56.6 22.8,-56.8 21.6,-58.1 19.9,-57.7 17.6,-59.6 14.3,-61.4" fill="none" stroke="rgb(128,128,128)" stroke-width="1.921177154506098" stroke-linejoin="round" stroke-linecap="round" filter="url(#fuzzy_av_1779093954974_tzvk9gi0dec)" opacity="0.9766550692448113"/><polyline points="-17.6,-58.3 -16.7,-59.0 -16.2,-59.1 -15.9,-59.1 -15.8,-58.1 -16.0,-57.2 -16.5,-55.7 -17.4,-55.7 -18.6,-53.0 -20.2,-50.4 -22.2,-47.3 -24.5,-44.7 -27.2,-41.5 -30.4,-36.1 -34.2,-31.5 -38.5,-26.2 -43.4,-19.4 -48.8,-13.5" fill="none" stroke="rgb(128,128,128)" stroke-width="0.7424526207261352" stroke-linejoin="round" stroke-linecap="round" filter="url(#fuzzy_av_1779093954974_tzvk9gi0dec)" opacity="0.8442091257720359"/><polyline points="1.8,-63.1 2.2,-63.3 3.1,-62.3 3.9,-63.2 4.4,-61.7 4.5,-61.6 4.3,-60.8 3.8,-61.3 3.0,-59.9 2.0,-57.4 0.7,-56.9 -0.8,-55.3 -2.7,-54.2 -4.9,-51.5 -7.7,-49.1 -10.9,-46.7 -14.6,-43.6 -18.9,-40.4 -23.6,-37.5 -28.6,-34.4 -34.0,-30.4 -39.9,-26.9 -46.6,-22.4" fill="none" stroke="rgb(128,128,128)" stroke-width="1.5688666672440732" stroke-linejoin="round" stroke-linecap="round" filter="url(#fuzzy_av_1779093954974_tzvk9gi0dec)" opacity="0.828221785554738"/><polyline points="-47.8,-18.3 -47.6,-19.0 -47.1,-18.5 -46.3,-21.9 -45.2,-22.8 -43.9,-25.0 -42.4,-28.2 -40.9,-29.3 -39.2,-33.2 -37.5,-35.4 -35.7,-36.9 -33.9,-39.3 -32.2,-42.1 -30.6,-45.5 -28.9,-47.1 -27.4,-49.4 -26.0,-50.5 -24.8,-52.4 -24.0,-53.5" fill="none" stroke="rgb(128,128,128)" stroke-width="1.3978438920713627" stroke-linejoin="round" stroke-linecap="round" filter="url(#fuzzy_av_1779093954974_tzvk9gi0dec)" opacity="0.9363168465631959"/><polyline points="-46.6,-22.0 -45.8,-24.7 -45.0,-25.6 -43.9,-25.7 -42.4,-28.1 -40.7,-30.9 -38.7,-32.7 -36.5,-33.3 -34.2,-34.9 -31.8,-38.1 -29.3,-40.6 -26.7,-42.2 -24.0,-45.0 -21.2,-46.6 -18.3,-49.3 -15.3,-49.7 -12.2,-52.9 -9.3,-54.6 -6.4,-57.5 -3.8,-59.0 -1.2,-61.1 1.8,-64.5" fill="none" stroke="rgb(128,128,128)" stroke-width="1.1285133683983009" stroke-linejoin="round" stroke-linecap="round" filter="url(#fuzzy_av_1779093954974_tzvk9gi0dec)" opacity="0.9286511962497545"/><polyline points="-25.5,-54.0 -25.3,-53.9 -24.2,-53.1 -22.7,-55.2 -21.0,-54.6 -19.2,-56.0 -17.3,-56.9 -15.2,-57.5 -13.1,-57.3 -10.7,-58.5 -8.4,-57.9 -6.0,-59.7 -3.7,-59.4 -1.5,-60.1 0.6,-60.5 2.4,-60.4 4.0,-61.3 5.3,-61.4 6.5,-63.0 7.5,-63.2 8.2,-62.8" fill="none" stroke="rgb(128,128,128)" stroke-width="2.3200735968316506" stroke-linejoin="round" stroke-linecap="round" filter="url(#fuzzy_av_1779093954974_tzvk9gi0dec)" opacity="0.9881344229512972"/></g><circle r="2.232348808968779" cx="-7.724111598522441" cy="0.6315601809124012" stroke="#111" fill="none" stroke-width="1.051792188704645" filter="url(#fuzzy_av_1779093954974_tzvk9gi0dec)"/><circle r="2.248136224378049" cx="-5.646412155703463" cy="0.044258310738500395" stroke="#111" fill="none" stroke-width="1.20254075654201" filter="url(#fuzzy_av_1779093954974_tzvk9gi0dec)"/><circle r="2.2681251090296115" cx="-6.2813540399868995" cy="2.5712731941524716" stroke="#111" fill="none" stroke-width="1.0786130273114942" filter="url(#fuzzy_av_1779093954974_tzvk9gi0dec)"/><circle r="1.7925771915950408" cx="-6.957363959546178" cy="0.026547944586928773" stroke="#111" fill="none" stroke-width="1.1332534295616963" filter="url(#fuzzy_av_1779093954974_tzvk9gi0dec)"/><circle r="2.2137420556437113" cx="-8.587112004240785" cy="0.6945710796494686" stroke="#111" fill="none" stroke-width="1.236829554609908" filter="url(#fuzzy_av_1779093954974_tzvk9gi0dec)"/><circle r="0.9026512173311222" cx="-6.176223347677137" cy="3.5026359872416775" stroke="#111" fill="none" stroke-width="1.275608692270872" filter="url(#fuzzy_av_1779093954974_tzvk9gi0dec)"/><circle r="1.969363589993344" cx="-8.450024498577118" cy="0.921980825734525" stroke="#111" fill="none" stroke-width="1.0500399311972473" filter="url(#fuzzy_av_1779093954974_tzvk9gi0dec)"/><circle r="1.5325702239937788" cx="-7.2757966705461765" cy="2.142164345109503" stroke="#111" fill="none" stroke-width="1.0134699558763138" filter="url(#fuzzy_av_1779093954974_tzvk9gi0dec)"/><circle r="1.5025994439106207" cx="-6.086596485899292" cy="1.3338569702323204" stroke="#111" fill="none" stroke-width="1.238311535921182" filter="url(#fuzzy_av_1779093954974_tzvk9gi0dec)"/><circle r="1.4256713587153325" cx="-5.589346500475301" cy="2.6609550087258853" stroke="#111" fill="none" stroke-width="0.9609970566835808" filter="url(#fuzzy_av_1779093954974_tzvk9gi0dec)"/><circle r="2.0917335561063473" cx="7.602566399223207" cy="0.17300841465739292" stroke="#111" fill="none" stroke-width="1.2387096036256529" filter="url(#fuzzy_av_1779093954974_tzvk9gi0dec)"/><circle r="1.2544087906679318" cx="6.131284529384407" cy="-1.0384220539939388" stroke="#111" fill="none" stroke-width="1.1390519457721877" filter="url(#fuzzy_av_1779093954974_tzvk9gi0dec)"/><circle r="1.0968831364044647" cx="7.552266629623411" cy="0.4251151747337971" stroke="#111" fill="none" stroke-width="1.179855204515363" filter="url(#fuzzy_av_1779093954974_tzvk9gi0dec)"/><circle r="0.9935360205146051" cx="6.974189463659618" cy="0.09991036504409889" stroke="#111" fill="none" stroke-width="0.832645229385782" filter="url(#fuzzy_av_1779093954974_tzvk9gi0dec)"/><circle r="2.2177913911258793" cx="7.948226058836842" cy="-0.21731627123793762" stroke="#111" fill="none" stroke-width="0.8451515156476858" filter="url(#fuzzy_av_1779093954974_tzvk9gi0dec)"/><circle r="2.4784059741589655" cx="7.523875379288965" cy="-0.9105681307074744" stroke="#111" fill="none" stroke-width="1.2338571833995409" filter="url(#fuzzy_av_1779093954974_tzvk9gi0dec)"/><circle r="0.9489136564552053" cx="8.988522688336685" cy="0.6991203351289417" stroke="#111" fill="none" stroke-width="1.1895521373987852" filter="url(#fuzzy_av_1779093954974_tzvk9gi0dec)"/><circle r="1.4418126888126794" cx="7.699822094295566" cy="2.1389093115367217" stroke="#111" fill="none" stroke-width="0.8665257143080154" filter="url(#fuzzy_av_1779093954974_tzvk9gi0dec)"/><circle r="1.9694480362774838" cx="8.132789029229022" cy="0.9332458775959245" stroke="#111" fill="none" stroke-width="1.0750789908556064" filter="url(#fuzzy_av_1779093954974_tzvk9gi0dec)"/><circle r="1.450389795524924" cx="7.760913919797613" cy="0.7491282459160429" stroke="#111" fill="none" stroke-width="0.8641114980875135" filter="url(#fuzzy_av_1779093954974_tzvk9gi0dec)"/><polyline points="12.0,27.2 11.8,27.6 11.8,27.7 11.9,27.3 11.6,28.2 11.7,28.2 11.6,28.1 11.4,28.7 11.3,28.9 10.9,29.4 11.2,29.0 10.7,29.5 10.5,29.8 10.3,30.1 10.3,29.9 9.7,30.4 9.8,30.3 9.1,30.8 9.2,30.7 9.0,30.9 7.6,31.7 7.0,31.9 7.6,31.6 6.9,32.0 7.0,31.9 5.8,32.4 5.0,32.6 5.0,32.6 4.8,32.7 4.9,32.6 4.4,32.7 4.0,32.9 3.1,33.1 2.3,33.2 1.6,33.4 1.3,33.4 -0.1,33.6 1.0,33.4 -0.8,33.6 -1.4,33.7 -1.2,33.7 -2.3,33.7 -2.8,33.8 -3.5,33.8 -3.8,33.8 -3.7,33.8 -4.4,33.8 -5.6,33.8 -5.1,33.8 -7.2,33.7 -8.1,33.6 -8.8,33.5 -9.5,33.5 -9.6,33.5 -9.3,33.5 -9.2,33.5 -11.6,33.1 -12.2,33.0 -12.7,33.0 -11.5,33.2 -12.5,33.0 -12.8,32.9 -13.6,32.8 -13.8,32.7 -15.2,32.4 -15.0,32.4 -15.3,32.3 -16.2,32.0 -16.6,32.0 -17.6,31.6 -18.4,31.3 -18.3,31.3 -19.5,30.8 -19.2,31.0 -19.6,30.8 -20.2,30.5 -21.3,29.9 -21.2,30.0 -21.6,29.8 -21.8,29.6 -22.5,29.1 -22.1,29.4 -23.2,28.6 -22.6,29.0 -23.3,28.4 -24.0,27.9 -23.9,28.0 -24.4,27.2 -24.5,27.1 -24.4,27.4 -24.8,26.7 -24.6,27.0 -25.1,26.2 -25.0,26.4 -25.1,26.1 -25.0,26.1 -25.3,25.3 -25.4,25.1 -25.4,25.3 -25.4,24.6 -25.4,24.7 -25.4,24.1 -25.3,23.5 -25.4,23.9 -25.3,23.5 -24.9,22.8 -24.7,22.6 -24.9,22.7 -24.7,22.3 -24.8,22.6 -24.6,22.2 -24.6,22.2 -24.2,21.8 -24.0,21.6 -23.5,21.2 -22.8,20.7 -22.4,20.4 -22.5,20.5 -22.4,20.4 -21.7,20.0 -21.5,19.9 -20.8,19.6 -20.1,19.4 -20.6,19.5 -20.7,19.6 -19.3,19.1 -18.9,18.9 -17.9,18.7 -18.7,18.9 -18.1,18.7 -16.6,18.3 -16.0,18.2 -16.0,18.2 -15.9,18.2 -15.1,18.0 -14.0,17.9 -15.1,18.1 -13.8,17.9 -13.8,17.9 -11.5,17.7 -11.4,17.7 -11.7,17.7 -11.1,17.7 -9.3,17.6 -10.1,17.7 -10.1,17.6 -9.3,17.6 -8.5,17.6 -7.9,17.7 -7.0,17.7 -5.9,17.8 -5.8,17.8 -5.0,17.8 -5.5,17.8 -4.8,17.9 -4.0,17.9 -1.6,18.3 -1.3,18.4 -0.9,18.4 -0.8,18.5 0.4,18.7 0.1,18.6 -0.1,18.6 1.9,19.1 2.0,19.1 3.2,19.5 3.7,19.6 3.3,19.5 3.5,19.5 4.0,19.8 5.3,20.3 4.6,20.0 4.9,20.1 6.2,20.6 6.9,21.0 6.3,20.7 6.8,20.9 7.4,21.2 7.9,21.6 8.3,21.8 8.5,21.9 8.9,22.1 9.8,22.8 10.0,23.0 9.9,22.9 10.6,23.6 10.9,23.9 10.6,23.7 10.8,23.9 10.9,24.1 11.0,24.1 11.4,24.5 11.6,25.0 11.6,25.0 11.6,25.1 11.8,25.5 12.0,26.1 11.9,26.2 11.9,26.1 11.9,26.7" fill="rgb(215,127,140)" stroke="#111" stroke-width="2.343000686596294" stroke-linejoin="round" filter="url(#fuzzy_av_1779093954974_tzvk9gi0dec)"/></g><g class="accessory-svg accessory-wave" transform="translate(65.6 19.3) rotate(10.0) scale(1.283)">
      <path d="M-12 4c5-8 10-8 15-1 3 4 6 3 9 0-2 8-8 11-15 7-4-2-6-2-9 1 1-3 1-5 0-7z" fill="#38bdf8" stroke="#111827" stroke-width="1"/><path d="M-8 4c5-2 8 3 13 2" fill="none" stroke="#f8fafc" stroke-width="1.3" stroke-linecap="round"/>
    </g><g class="accessory-svg accessory-plane" transform="translate(-22.7 72.2) rotate(-7.1) scale(1.015)">
      <path d="M-12 2L12-9 4 13 0 4z" fill="#f8fafc" stroke="#111827" stroke-width="1.1"/><path d="M0 4l12-13-16 10" fill="none" stroke="#38bdf8" stroke-width="1.1"/>
    </g><g class="accessory-svg accessory-backpack" transform="translate(-63.2 -26.1) rotate(-10.0) scale(1.268)">
      <rect x="-8" y="-7" width="16" height="19" rx="5" fill="#059669" stroke="#111827" stroke-width="1.2"/><path d="M-4-7c0-4 8-4 8 0M-8-1h16M-4 4h8" fill="none" stroke="#f8fafc" stroke-width="1.1"/><path d="M-8-3c-5 2-5 9 0 11M8-3c5 2 5 9 0 11" fill="none" stroke="#111827" stroke-width="1"/>
    </g><g class="accessory-svg accessory-globe" transform="translate(-33.4 -63.6) rotate(6.3) scale(1.186)">
      <circle cx="0" cy="0" r="11" fill="#38bdf8" stroke="#111827" stroke-width="1.2"/><path d="M-9 0h18M0-10c4 4 4 16 0 20M0-10c-4 4-4 16 0 20" fill="none" stroke="#f8fafc" stroke-width="1"/><path d="M-5-5c3-2 6-1 9 1M-4 6c3 1 7 1 10-1" fill="none" stroke="#f8fafc" stroke-width=".9"/>
    </g></svg>