<svg xmlns="http://www.w3.org/2000/svg" viewBox="-100 -100 200 200" width="400" height="400" role="img" aria-label="卷王 avatar"><defs>
      <filter id="fuzzy_av_1779093954958_9jvzyi271zl" x="-8%" y="-8%" width="116%" height="116%">
        <feTurbulence baseFrequency="0.045" numOctaves="3" type="fractalNoise" result="noise"/>
        <feDisplacementMap in="SourceGraphic" in2="noise" scale="1.6"/>
      </filter>
      <clipPath id="leftEye_av_1779093954958_9jvzyi271zl"><polyline points="-17.2,-6.5 -17.0,-6.8 -16.7,-7.2 -16.5,-7.5 -16.2,-7.8 -15.9,-8.1 -15.6,-8.5 -15.3,-8.8 -15.0,-9.1 -14.7,-9.4 -14.3,-9.7 -14.0,-9.9 -13.7,-10.2 -13.3,-10.4 -12.9,-10.7 -12.5,-10.9 -12.1,-11.3 -11.7,-11.7 -11.3,-12.0 -10.8,-12.3 -10.4,-12.6 -9.9,-12.9 -9.4,-13.1 -8.9,-13.3 -8.5,-13.4 -8.0,-13.6 -7.5,-13.7 -7.0,-13.7 -6.5,-13.8 -6.0,-13.8 -5.5,-13.8 -5.0,-13.7 -4.4,-13.6 -3.9,-13.5 -3.4,-13.4 -2.9,-13.3 -2.4,-13.1 -1.9,-12.9 -1.4,-12.7 -0.9,-12.5 -0.4,-12.2 0.1,-12.0 0.6,-11.7 1.0,-11.4 1.5,-11.1 2.0,-10.8 2.4,-10.5 2.9,-10.1 3.3,-9.8 3.7,-9.4 4.2,-9.1 4.6,-8.7 5.0,-8.4 5.4,-8.0 5.7,-7.6 6.1,-7.3 6.4,-6.9 6.8,-6.5 7.1,-6.1 7.4,-5.7 7.7,-5.4 8.0,-5.0 8.3,-4.6 8.6,-4.2 8.8,-3.8 9.1,-3.4 9.3,-3.1 9.5,-2.7 9.7,-2.3 9.9,-1.9 10.1,-1.5 10.2,-1.1 10.4,-0.7 10.5,-0.3 10.7,0.1 10.8,0.5 10.9,0.9 11.0,1.3 11.1,1.7 11.1,2.1 13.7,5.5 13.5,5.8 13.2,6.1 13.0,6.4 12.7,6.7 12.5,6.9 12.2,7.2 11.9,7.5 11.6,7.8 11.3,8.1 11.0,8.3 10.7,8.6 10.4,8.9 10.1,9.1 9.8,9.4 9.5,9.6 9.2,9.9 8.8,10.1 8.5,10.4 8.2,10.6 7.8,10.8 7.5,11.1 7.1,11.3 6.7,11.4 6.4,11.6 6.0,11.8 5.6,11.9 5.2,12.1 4.9,12.2 4.5,12.3 4.1,12.4 3.7,12.4 3.3,12.5 2.9,12.5 2.5,12.5 2.1,12.5 1.7,12.5 1.2,12.4 0.8,12.3 0.4,12.2 -0.0,12.1 -0.4,12.0 -0.9,11.8 -1.3,11.6 -1.7,11.4 -2.1,11.2 -2.6,11.0 -3.0,10.7 -3.4,10.5 -3.9,10.2 -4.3,9.9 -4.8,9.6 -5.2,9.2 -5.6,8.9 -6.1,8.5 -6.5,8.2 -7.0,7.8 -7.4,7.4 -7.9,7.1 -8.3,6.7 -8.8,6.3 -9.2,5.9 -9.6,5.5 -10.1,5.1 -10.5,4.7 -10.8,4.3 -11.2,3.9 -11.5,3.5 -11.8,3.1 -12.1,2.7 -12.4,2.3 -12.7,1.9 -13.0,1.5 -13.2,1.0 -13.5,0.6 -13.7,0.1 -13.9,-0.3 -14.1,-0.8 -14.3,-1.3 -14.5,-1.8"/></clipPath>
      <clipPath id="rightEye_av_1779093954958_9jvzyi271zl"><polyline points="-17.8,-6.1 -17.6,-6.5 -17.4,-7.0 -17.2,-7.4 -16.9,-7.8 -16.7,-8.3 -16.4,-8.7 -16.1,-9.1 -15.8,-9.5 -15.5,-9.9 -15.2,-10.3 -14.8,-10.7 -14.5,-11.0 -14.1,-11.3 -13.7,-11.7 -13.3,-11.9 -12.9,-12.5 -12.5,-13.0 -12.1,-13.4 -11.7,-13.9 -11.2,-14.2 -10.7,-14.6 -10.2,-14.8 -9.7,-15.1 -9.2,-15.3 -8.7,-15.4 -8.1,-15.5 -7.5,-15.6 -7.0,-15.6 -6.4,-15.6 -5.8,-15.6 -5.2,-15.5 -4.7,-15.3 -4.1,-15.2 -3.5,-15.0 -2.9,-14.8 -2.3,-14.5 -1.7,-14.2 -1.1,-13.9 -0.5,-13.6 0.1,-13.3 0.6,-12.9 1.2,-12.5 1.7,-12.1 2.3,-11.7 2.8,-11.3 3.3,-10.8 3.8,-10.4 4.3,-9.9 4.8,-9.5 5.2,-9.0 5.7,-8.5 6.1,-8.0 6.5,-7.5 6.9,-7.1 7.2,-6.6 7.6,-6.1 7.9,-5.6 8.2,-5.1 8.5,-4.7 8.8,-4.2 9.1,-3.7 9.3,-3.2 9.5,-2.8 9.7,-2.3 9.9,-1.8 10.1,-1.4 10.2,-0.9 10.4,-0.4 10.5,0.0 10.6,0.5 10.7,1.0 10.7,1.4 10.8,1.9 10.8,2.3 10.8,2.8 10.8,3.3 10.8,3.7 10.8,4.2 10.7,4.6 13.5,7.2 13.2,7.5 12.9,7.7 12.6,8.0 12.3,8.2 12.0,8.5 11.7,8.7 11.4,9.0 11.1,9.2 10.8,9.5 10.5,9.7 10.2,9.9 9.8,10.2 9.5,10.4 9.2,10.6 8.8,10.9 8.5,11.1 8.1,11.3 7.8,11.5 7.4,11.7 7.1,11.9 6.7,12.1 6.3,12.3 6.0,12.5 5.6,12.6 5.2,12.8 4.9,12.9 4.5,13.0 4.1,13.1 3.7,13.2 3.4,13.3 3.0,13.4 2.6,13.4 2.2,13.5 1.8,13.5 1.5,13.5 1.1,13.4 0.7,13.4 0.3,13.3 -0.1,13.3 -0.4,13.2 -0.8,13.0 -1.2,12.9 -1.6,12.8 -2.0,12.6 -2.4,12.4 -2.8,12.2 -3.2,12.0 -3.6,11.7 -4.0,11.5 -4.4,11.2 -4.8,10.9 -5.2,10.7 -5.6,10.3 -6.0,10.0 -6.4,9.7 -6.8,9.4 -7.3,9.0 -7.7,8.6 -8.1,8.3 -8.6,7.9 -9.0,7.5 -9.5,7.1 -9.9,6.7 -10.3,6.3 -10.7,5.9 -11.0,5.5 -11.4,5.1 -11.7,4.7 -12.0,4.3 -12.3,3.8 -12.6,3.4 -12.9,2.9 -13.2,2.5 -13.5,2.0 -13.8,1.5 -14.1,0.9 -14.3,0.4 -14.5,-0.1 -14.8,-0.7"/></clipPath>
      <linearGradient id="rainbow_av_1779093954958_9jvzyi271zl" x1="0%" y1="0%" x2="100%" y2="0%">
        <stop offset="0%" stop-color="#DC2626"/><stop offset="37%" stop-color="#22D3EE"/><stop offset="100%" stop-color="#991B1B"/>
      </linearGradient>
      <linearGradient id="splitHair_av_1779093954958_9jvzyi271zl" x1="0%" y1="0%" x2="100%" y2="0%">
        <stop offset="49%" stop-color="#111827"/><stop offset="51%" stop-color="#F9FAFB"/>
      </linearGradient>
      <radialGradient id="halo_av_1779093954958_9jvzyi271zl"><stop offset="0%" stop-color="#DC2626" stop-opacity=".45"/><stop offset="100%" stop-color="#DC2626" stop-opacity="0"/></radialGradient>
    </defs><rect x="-100" y="-100" width="200" height="200" fill="#FEE2E2"/><g opacity="1"><polyline id="faceContour" class="face-shape" points="49.0,-6.5 48.4,-3.9 48.1,-1.6 48.2,-1.0 48.1,0.4 48.1,-1.1 47.8,0.4 47.0,4.0 47.2,3.0 46.7,4.5 45.7,8.3 46.2,7.5 45.2,9.6 45.5,8.8 45.5,9.7 44.6,11.5 43.2,14.8 43.3,15.1 42.8,15.6 42.7,16.4 41.5,19.0 41.4,19.1 41.3,19.1 39.4,22.8 38.7,24.1 38.6,24.4 38.4,24.7 37.7,25.8 36.5,27.3 36.0,28.2 36.4,27.3 35.5,29.1 34.2,30.5 33.0,32.2 33.0,32.1 30.9,34.7 30.5,35.2 29.9,35.6 28.1,37.5 29.3,36.5 28.9,37.0 26.7,38.9 26.1,39.6 26.2,39.6 23.1,41.9 24.3,41.1 21.6,43.1 21.9,43.0 21.5,43.2 21.3,43.4 18.6,45.2 19.0,44.8 16.5,46.1 16.9,46.2 14.9,47.1 14.7,47.3 13.4,47.9 12.8,48.1 11.9,48.4 11.0,48.8 10.3,49.1 8.2,49.7 7.1,50.0 6.2,50.2 5.8,50.3 4.0,50.5 3.2,50.8 1.9,50.7 1.8,50.9 -0.2,51.0 -0.6,50.9 -0.5,51.0 -2.9,50.9 -3.3,50.9 -3.2,50.9 -4.9,50.8 -5.4,50.7 -7.5,50.4 -6.3,50.6 -9.2,49.9 -9.0,50.1 -11.0,49.6 -10.4,49.6 -12.0,49.2 -13.2,48.9 -16.1,47.6 -15.5,47.9 -15.8,47.7 -16.2,47.4 -19.5,45.8 -18.9,46.1 -19.5,45.7 -20.0,45.5 -21.7,44.4 -23.6,42.8 -24.5,42.1 -24.9,41.9 -25.3,41.6 -26.0,40.8 -26.5,40.6 -28.6,38.4 -28.5,38.8 -30.4,36.6 -31.0,36.0 -30.9,36.0 -32.5,34.1 -32.4,34.7 -33.5,33.0 -34.7,31.3 -35.2,31.0 -34.8,31.0 -35.5,30.1 -37.9,26.8 -37.6,27.5 -38.0,26.5 -38.0,26.5 -39.1,24.6 -40.9,21.4 -40.9,21.7 -41.0,20.8 -42.1,18.6 -42.0,18.8 -42.6,17.4 -43.4,15.7 -43.6,14.8 -43.9,14.0 -45.5,10.4 -45.5,10.3 -45.5,10.6 -45.6,9.7 -46.5,5.6 -47.0,4.3 -47.2,3.9 -47.6,2.2 -47.1,3.6 -48.1,-0.5 -48.0,-0.9 -48.5,-3.0 -48.5,-3.9 -48.9,-5.9 -48.9,-6.7 -49.1,-7.0 -49.2,-9.5 -49.4,-11.1 -49.1,-11.7 -49.2,-10.7 -49.3,-13.7 -49.4,-15.3 -49.5,-16.7 -49.0,-19.3 -49.4,-19.0 -48.7,-22.3 -49.2,-20.0 -48.8,-22.2 -48.5,-23.8 -48.7,-23.4 -48.2,-26.5 -47.4,-29.4 -48.1,-27.7 -47.0,-31.2 -47.2,-30.0 -46.1,-33.9 -45.7,-35.4 -45.9,-34.6 -45.4,-35.5 -44.6,-37.5 -44.1,-38.7 -44.2,-38.3 -43.0,-40.6 -42.9,-40.9 -41.5,-43.5 -40.4,-44.8 -39.8,-45.7 -39.4,-46.1 -38.3,-47.5 -38.6,-47.0 -37.5,-48.4 -37.7,-48.3 -35.5,-50.6 -34.3,-51.6 -35.2,-50.8 -34.4,-51.5 -32.3,-53.1 -31.5,-53.9 -31.9,-53.5 -30.4,-54.6 -27.9,-56.1 -29.3,-55.2 -27.5,-56.2 -24.5,-57.9 -25.3,-57.6 -22.6,-58.9 -21.6,-59.1 -22.1,-59.0 -21.3,-59.2 -19.4,-60.0 -18.4,-60.2 -18.4,-60.4 -16.3,-61.0 -12.5,-61.9 -11.4,-62.0 -11.2,-62.1 -11.2,-62.1 -8.4,-62.5 -7.5,-62.6 -6.1,-62.8 -7.0,-62.6 -2.6,-62.8 -3.3,-62.8 -2.8,-62.9 1.9,-62.7 0.8,-62.8 3.0,-62.7 5.4,-62.6 4.4,-62.5 8.0,-62.3 8.5,-62.1 8.0,-62.0 11.4,-61.5 12.6,-61.2 11.5,-61.3 15.1,-60.5 14.6,-60.6 15.6,-60.3 16.6,-60.0 19.3,-59.0 20.5,-58.6 21.1,-58.2 21.7,-58.0 21.7,-58.1 24.1,-57.0 27.5,-55.3 28.2,-54.6 28.2,-54.8 28.9,-54.4 29.5,-53.7 31.3,-52.4 33.1,-51.2 32.5,-51.6 34.5,-50.1 34.2,-50.1 35.0,-49.4 36.8,-47.8 37.0,-47.3 38.4,-45.8 38.9,-45.2 39.4,-44.7 40.4,-43.6 40.7,-43.1 41.1,-42.4 41.8,-41.2 42.4,-40.2 43.9,-37.9 43.7,-38.5 44.9,-35.7 45.2,-34.5 45.5,-34.2 45.4,-34.2 46.0,-33.4 46.5,-31.5 47.4,-29.2 46.8,-30.5 47.6,-28.5 48.1,-26.6 48.4,-24.8 48.5,-23.9 48.5,-23.2 48.6,-22.6 48.9,-20.8 48.9,-19.7 49.3,-18.3 49.2,-16.8 49.3,-15.0 49.3,-14.4 49.3,-14.3 49.4,-12.6 49.3,-9.9 49.1,-8.9 49.3,-9.3 48.9,-5.6 49.0,-6.5 48.4,-3.9" fill="#ffc9a9" stroke="#111" stroke-width="2.2" stroke-linejoin="round" filter="url(#fuzzy_av_1779093954958_9jvzyi271zl)"/><g id="leftEye" transform="translate(-31.9 -28.2)"><polyline points="-17.2,-6.5 -17.0,-6.8 -16.7,-7.2 -16.5,-7.5 -16.2,-7.8 -15.9,-8.1 -15.6,-8.5 -15.3,-8.8 -15.0,-9.1 -14.7,-9.4 -14.3,-9.7 -14.0,-9.9 -13.7,-10.2 -13.3,-10.4 -12.9,-10.7 -12.5,-10.9 -12.1,-11.3 -11.7,-11.7 -11.3,-12.0 -10.8,-12.3 -10.4,-12.6 -9.9,-12.9 -9.4,-13.1 -8.9,-13.3 -8.5,-13.4 -8.0,-13.6 -7.5,-13.7 -7.0,-13.7 -6.5,-13.8 -6.0,-13.8 -5.5,-13.8 -5.0,-13.7 -4.4,-13.6 -3.9,-13.5 -3.4,-13.4 -2.9,-13.3 -2.4,-13.1 -1.9,-12.9 -1.4,-12.7 -0.9,-12.5 -0.4,-12.2 0.1,-12.0 0.6,-11.7 1.0,-11.4 1.5,-11.1 2.0,-10.8 2.4,-10.5 2.9,-10.1 3.3,-9.8 3.7,-9.4 4.2,-9.1 4.6,-8.7 5.0,-8.4 5.4,-8.0 5.7,-7.6 6.1,-7.3 6.4,-6.9 6.8,-6.5 7.1,-6.1 7.4,-5.7 7.7,-5.4 8.0,-5.0 8.3,-4.6 8.6,-4.2 8.8,-3.8 9.1,-3.4 9.3,-3.1 9.5,-2.7 9.7,-2.3 9.9,-1.9 10.1,-1.5 10.2,-1.1 10.4,-0.7 10.5,-0.3 10.7,0.1 10.8,0.5 10.9,0.9 11.0,1.3 11.1,1.7 11.1,2.1 13.7,5.5 13.5,5.8 13.2,6.1 13.0,6.4 12.7,6.7 12.5,6.9 12.2,7.2 11.9,7.5 11.6,7.8 11.3,8.1 11.0,8.3 10.7,8.6 10.4,8.9 10.1,9.1 9.8,9.4 9.5,9.6 9.2,9.9 8.8,10.1 8.5,10.4 8.2,10.6 7.8,10.8 7.5,11.1 7.1,11.3 6.7,11.4 6.4,11.6 6.0,11.8 5.6,11.9 5.2,12.1 4.9,12.2 4.5,12.3 4.1,12.4 3.7,12.4 3.3,12.5 2.9,12.5 2.5,12.5 2.1,12.5 1.7,12.5 1.2,12.4 0.8,12.3 0.4,12.2 -0.0,12.1 -0.4,12.0 -0.9,11.8 -1.3,11.6 -1.7,11.4 -2.1,11.2 -2.6,11.0 -3.0,10.7 -3.4,10.5 -3.9,10.2 -4.3,9.9 -4.8,9.6 -5.2,9.2 -5.6,8.9 -6.1,8.5 -6.5,8.2 -7.0,7.8 -7.4,7.4 -7.9,7.1 -8.3,6.7 -8.8,6.3 -9.2,5.9 -9.6,5.5 -10.1,5.1 -10.5,4.7 -10.8,4.3 -11.2,3.9 -11.5,3.5 -11.8,3.1 -12.1,2.7 -12.4,2.3 -12.7,1.9 -13.0,1.5 -13.2,1.0 -13.5,0.6 -13.7,0.1 -13.9,-0.3 -14.1,-0.8 -14.3,-1.3 -14.5,-1.8" fill="#fff" stroke="#fff" stroke-width="0" stroke-linejoin="round" filter="url(#fuzzy_av_1779093954958_9jvzyi271zl)"/><polyline points="18.7,-3.9 18.6,-4.1 18.6,-4.3 18.5,-4.5 18.3,-4.7 18.2,-5.0 18.0,-5.3 17.8,-5.6 17.7,-5.9 17.4,-6.2 -17.2,-6.5 -17.0,-6.8 -16.7,-7.2 -16.5,-7.5 -16.2,-7.8 -15.9,-8.1 -15.6,-8.5 -15.3,-8.8 -15.0,-9.1 -14.7,-9.4 -14.3,-9.7 -14.0,-9.9 -13.7,-10.2 -13.3,-10.4 -12.9,-10.7 -12.5,-10.9 -12.1,-11.3 -11.7,-11.7 -11.3,-12.0 -10.8,-12.3 -10.4,-12.6 -9.9,-12.9 -9.4,-13.1 -8.9,-13.3 -8.5,-13.4 -8.0,-13.6 -7.5,-13.7 -7.0,-13.7 -6.5,-13.8 -6.0,-13.8 -5.5,-13.8 -5.0,-13.7 -4.4,-13.6 -3.9,-13.5 -3.4,-13.4 -2.9,-13.3 -2.4,-13.1 -1.9,-12.9 -1.4,-12.7 -0.9,-12.5 -0.4,-12.2 0.1,-12.0 0.6,-11.7 1.0,-11.4 1.5,-11.1 2.0,-10.8 2.4,-10.5 2.9,-10.1 3.3,-9.8 3.7,-9.4 4.2,-9.1 4.6,-8.7 5.0,-8.4 5.4,-8.0 5.7,-7.6 6.1,-7.3 6.4,-6.9 6.8,-6.5 7.1,-6.1 7.4,-5.7 7.7,-5.4 8.0,-5.0 8.3,-4.6 8.6,-4.2 8.8,-3.8 9.1,-3.4 9.3,-3.1 9.5,-2.7 9.7,-2.3 9.9,-1.9 10.1,-1.5 10.2,-1.1 10.4,-0.7 10.5,-0.3 10.7,0.1 10.8,0.5 10.9,0.9 11.0,1.3 11.1,1.7 11.1,2.1 -11.2,2.5 -11.2,2.9 -11.3,3.4 -11.3,3.8 -11.3,4.2 -11.3,4.6 -11.3,5.0 -11.3,5.5 -11.2,5.9 -11.2,6.3" fill="none" stroke="#111" stroke-width="3.1169398776176176" stroke-linejoin="round" stroke-linecap="round" filter="url(#fuzzy_av_1779093954958_9jvzyi271zl)"/><polyline points="14.7,-7.2 14.8,-6.6 14.9,-6.0 14.9,-5.4 15.0,-4.9 15.0,-4.3 14.9,-3.8 14.8,-3.3 14.7,-2.8 14.6,-2.3 -14.5,-1.8 -14.3,-1.3 -14.1,-0.8 -13.9,-0.3 -13.7,0.1 -13.5,0.6 -13.2,1.0 -13.0,1.5 -12.7,1.9 -12.4,2.3 -12.1,2.7 -11.8,3.1 -11.5,3.5 -11.2,3.9 -10.8,4.3 -10.5,4.7 -10.1,5.1 -9.6,5.5 -9.2,5.9 -8.8,6.3 -8.3,6.7 -7.9,7.1 -7.4,7.4 -7.0,7.8 -6.5,8.2 -6.1,8.5 -5.6,8.9 -5.2,9.2 -4.8,9.6 -4.3,9.9 -3.9,10.2 -3.4,10.5 -3.0,10.7 -2.6,11.0 -2.1,11.2 -1.7,11.4 -1.3,11.6 -0.9,11.8 -0.4,12.0 -0.0,12.1 0.4,12.2 0.8,12.3 1.2,12.4 1.7,12.5 2.1,12.5 2.5,12.5 2.9,12.5 3.3,12.5 3.7,12.4 4.1,12.4 4.5,12.3 4.9,12.2 5.2,12.1 5.6,11.9 6.0,11.8 6.4,11.6 6.7,11.4 7.1,11.3 7.5,11.1 7.8,10.8 8.2,10.6 8.5,10.4 8.8,10.1 9.2,9.9 9.5,9.6 9.8,9.4 10.1,9.1 10.4,8.9 10.7,8.6 11.0,8.3 11.3,8.1 11.6,7.8 11.9,7.5 12.2,7.2 12.5,6.9 12.7,6.7 13.0,6.4 13.2,6.1 13.5,5.8 13.7,5.5 -14.0,5.2 -14.2,5.0 -14.4,4.7 -14.6,4.4 -14.9,4.1 -15.1,3.9 -15.3,3.6 -15.5,3.3 -15.6,3.1 -15.8,2.8" fill="none" stroke="#111" stroke-width="2.6069375967262016" stroke-linejoin="round" stroke-linecap="round" filter="url(#fuzzy_av_1779093954958_9jvzyi271zl)"/><circle r="3.6016231951426114" cx="-1.2958058052891093" cy="7.36093760627485" stroke="#111" fill="none" stroke-width="1.2887447231203444" filter="url(#fuzzy_av_1779093954958_9jvzyi271zl)" clip-path="url(#leftEye_av_1779093954958_9jvzyi271zl)"/><circle r="4.104792474948805" cx="0.4640925508290077" cy="3.8919800654227146" stroke="#111" fill="none" stroke-width="1.0870467144275107" filter="url(#fuzzy_av_1779093954958_9jvzyi271zl)" clip-path="url(#leftEye_av_1779093954958_9jvzyi271zl)"/><circle r="4.031308827117612" cx="-1.4188089370792725" cy="5.8796645279969795" stroke="#111" fill="none" stroke-width="1.2660406942005613" filter="url(#fuzzy_av_1779093954958_9jvzyi271zl)" clip-path="url(#leftEye_av_1779093954958_9jvzyi271zl)"/><circle r="3.725519844634057" cx="-1.2144731916276883" cy="4.579109912760847" stroke="#111" fill="none" stroke-width="0.8370691339459879" filter="url(#fuzzy_av_1779093954958_9jvzyi271zl)" clip-path="url(#leftEye_av_1779093954958_9jvzyi271zl)"/><circle r="3.148729911591547" cx="-1.755149095452757" cy="5.56958436457293" stroke="#111" fill="none" stroke-width="1.3550183018112492" filter="url(#fuzzy_av_1779093954958_9jvzyi271zl)" clip-path="url(#leftEye_av_1779093954958_9jvzyi271zl)"/><circle r="4.523847550404632" cx="-1.9113132499465455" cy="5.9317988302119975" stroke="#111" fill="none" stroke-width="1.286344743603257" filter="url(#fuzzy_av_1779093954958_9jvzyi271zl)" clip-path="url(#leftEye_av_1779093954958_9jvzyi271zl)"/><circle r="3.9885204881170475" cx="0.8356201276011053" cy="4.019734482937306" stroke="#111" fill="none" stroke-width="1.3300597920999548" filter="url(#fuzzy_av_1779093954958_9jvzyi271zl)" clip-path="url(#leftEye_av_1779093954958_9jvzyi271zl)"/><circle r="2.359105537775882" cx="0.1696357830290527" cy="7.25266874484155" stroke="#111" fill="none" stroke-width="0.8940450032171792" filter="url(#fuzzy_av_1779093954958_9jvzyi271zl)" clip-path="url(#leftEye_av_1779093954958_9jvzyi271zl)"/><circle r="3.2195584464062144" cx="-2.109745662083771" cy="4.746819456723802" stroke="#111" fill="none" stroke-width="1.105124219018884" filter="url(#fuzzy_av_1779093954958_9jvzyi271zl)" clip-path="url(#leftEye_av_1779093954958_9jvzyi271zl)"/><circle r="3.605980131595814" cx="0.5261963719344731" cy="3.9428857235439265" stroke="#111" fill="none" stroke-width="1.1562156034754152" filter="url(#fuzzy_av_1779093954958_9jvzyi271zl)" clip-path="url(#leftEye_av_1779093954958_9jvzyi271zl)"/></g><g id="rightEye" transform="translate(22.1 -28.3)"><polyline points="-17.8,-6.1 -17.6,-6.5 -17.4,-7.0 -17.2,-7.4 -16.9,-7.8 -16.7,-8.3 -16.4,-8.7 -16.1,-9.1 -15.8,-9.5 -15.5,-9.9 -15.2,-10.3 -14.8,-10.7 -14.5,-11.0 -14.1,-11.3 -13.7,-11.7 -13.3,-11.9 -12.9,-12.5 -12.5,-13.0 -12.1,-13.4 -11.7,-13.9 -11.2,-14.2 -10.7,-14.6 -10.2,-14.8 -9.7,-15.1 -9.2,-15.3 -8.7,-15.4 -8.1,-15.5 -7.5,-15.6 -7.0,-15.6 -6.4,-15.6 -5.8,-15.6 -5.2,-15.5 -4.7,-15.3 -4.1,-15.2 -3.5,-15.0 -2.9,-14.8 -2.3,-14.5 -1.7,-14.2 -1.1,-13.9 -0.5,-13.6 0.1,-13.3 0.6,-12.9 1.2,-12.5 1.7,-12.1 2.3,-11.7 2.8,-11.3 3.3,-10.8 3.8,-10.4 4.3,-9.9 4.8,-9.5 5.2,-9.0 5.7,-8.5 6.1,-8.0 6.5,-7.5 6.9,-7.1 7.2,-6.6 7.6,-6.1 7.9,-5.6 8.2,-5.1 8.5,-4.7 8.8,-4.2 9.1,-3.7 9.3,-3.2 9.5,-2.8 9.7,-2.3 9.9,-1.8 10.1,-1.4 10.2,-0.9 10.4,-0.4 10.5,0.0 10.6,0.5 10.7,1.0 10.7,1.4 10.8,1.9 10.8,2.3 10.8,2.8 10.8,3.3 10.8,3.7 10.8,4.2 10.7,4.6 13.5,7.2 13.2,7.5 12.9,7.7 12.6,8.0 12.3,8.2 12.0,8.5 11.7,8.7 11.4,9.0 11.1,9.2 10.8,9.5 10.5,9.7 10.2,9.9 9.8,10.2 9.5,10.4 9.2,10.6 8.8,10.9 8.5,11.1 8.1,11.3 7.8,11.5 7.4,11.7 7.1,11.9 6.7,12.1 6.3,12.3 6.0,12.5 5.6,12.6 5.2,12.8 4.9,12.9 4.5,13.0 4.1,13.1 3.7,13.2 3.4,13.3 3.0,13.4 2.6,13.4 2.2,13.5 1.8,13.5 1.5,13.5 1.1,13.4 0.7,13.4 0.3,13.3 -0.1,13.3 -0.4,13.2 -0.8,13.0 -1.2,12.9 -1.6,12.8 -2.0,12.6 -2.4,12.4 -2.8,12.2 -3.2,12.0 -3.6,11.7 -4.0,11.5 -4.4,11.2 -4.8,10.9 -5.2,10.7 -5.6,10.3 -6.0,10.0 -6.4,9.7 -6.8,9.4 -7.3,9.0 -7.7,8.6 -8.1,8.3 -8.6,7.9 -9.0,7.5 -9.5,7.1 -9.9,6.7 -10.3,6.3 -10.7,5.9 -11.0,5.5 -11.4,5.1 -11.7,4.7 -12.0,4.3 -12.3,3.8 -12.6,3.4 -12.9,2.9 -13.2,2.5 -13.5,2.0 -13.8,1.5 -14.1,0.9 -14.3,0.4 -14.5,-0.1 -14.8,-0.7" fill="#fff" stroke="#fff" stroke-width="0" stroke-linejoin="round" filter="url(#fuzzy_av_1779093954958_9jvzyi271zl)"/><polyline points="-19.1,-2.6 -19.0,-2.8 -18.9,-3.1 -18.8,-3.4 -18.7,-3.7 -18.6,-4.1 -18.5,-4.5 -18.4,-4.8 -18.2,-5.3 -18.0,-5.7 -17.8,-6.1 -17.6,-6.5 -17.4,-7.0 -17.2,-7.4 -16.9,-7.8 -16.7,-8.3 -16.4,-8.7 -16.1,-9.1 -15.8,-9.5 -15.5,-9.9 -15.2,-10.3 -14.8,-10.7 -14.5,-11.0 -14.1,-11.3 -13.7,-11.7 -13.3,-11.9 -12.9,-12.5 -12.5,-13.0 -12.1,-13.4 -11.7,-13.9 -11.2,-14.2 -10.7,-14.6 -10.2,-14.8 -9.7,-15.1 -9.2,-15.3 -8.7,-15.4 -8.1,-15.5 -7.5,-15.6 -7.0,-15.6 -6.4,-15.6 -5.8,-15.6 -5.2,-15.5 -4.7,-15.3 -4.1,-15.2 -3.5,-15.0 -2.9,-14.8 -2.3,-14.5 -1.7,-14.2 -1.1,-13.9 -0.5,-13.6 0.1,-13.3 0.6,-12.9 1.2,-12.5 1.7,-12.1 2.3,-11.7 2.8,-11.3 3.3,-10.8 3.8,-10.4 4.3,-9.9 4.8,-9.5 5.2,-9.0 5.7,-8.5 6.1,-8.0 6.5,-7.5 6.9,-7.1 7.2,-6.6 7.6,-6.1 7.9,-5.6 8.2,-5.1 8.5,-4.7 8.8,-4.2 9.1,-3.7 9.3,-3.2 9.5,-2.8 9.7,-2.3 9.9,-1.8 10.1,-1.4 10.2,-0.9 10.4,-0.4 10.5,0.0 10.6,0.5 10.7,1.0 10.7,1.4 10.8,1.9 10.8,2.3 10.8,2.8 10.8,3.3 10.8,3.7 10.8,4.2 10.7,4.6 10.7,5.1 10.6,5.6 10.5,6.0 10.4,6.5 10.3,7.0 10.1,7.4 10.0,7.9 9.8,8.4 9.6,8.8 9.4,9.3" fill="none" stroke="#111" stroke-width="2.6774843180521044" stroke-linejoin="round" stroke-linecap="round" filter="url(#fuzzy_av_1779093954958_9jvzyi271zl)"/><polyline points="-15.8,-7.4 -15.8,-6.7 -15.8,-5.9 -15.8,-5.2 -15.7,-4.5 -15.6,-3.8 -15.5,-3.1 -15.3,-2.5 -15.2,-1.9 -15.0,-1.3 -14.8,-0.7 -14.5,-0.1 -14.3,0.4 -14.1,0.9 -13.8,1.5 -13.5,2.0 -13.2,2.5 -12.9,2.9 -12.6,3.4 -12.3,3.8 -12.0,4.3 -11.7,4.7 -11.4,5.1 -11.0,5.5 -10.7,5.9 -10.3,6.3 -9.9,6.7 -9.5,7.1 -9.0,7.5 -8.6,7.9 -8.1,8.3 -7.7,8.6 -7.3,9.0 -6.8,9.4 -6.4,9.7 -6.0,10.0 -5.6,10.3 -5.2,10.7 -4.8,10.9 -4.4,11.2 -4.0,11.5 -3.6,11.7 -3.2,12.0 -2.8,12.2 -2.4,12.4 -2.0,12.6 -1.6,12.8 -1.2,12.9 -0.8,13.0 -0.4,13.2 -0.1,13.3 0.3,13.3 0.7,13.4 1.1,13.4 1.5,13.5 1.8,13.5 2.2,13.5 2.6,13.4 3.0,13.4 3.4,13.3 3.7,13.2 4.1,13.1 4.5,13.0 4.9,12.9 5.2,12.8 5.6,12.6 6.0,12.5 6.3,12.3 6.7,12.1 7.1,11.9 7.4,11.7 7.8,11.5 8.1,11.3 8.5,11.1 8.8,10.9 9.2,10.6 9.5,10.4 9.8,10.2 10.2,9.9 10.5,9.7 10.8,9.5 11.1,9.2 11.4,9.0 11.7,8.7 12.0,8.5 12.3,8.2 12.6,8.0 12.9,7.7 13.2,7.5 13.5,7.2 13.7,7.0 14.0,6.8 14.3,6.5 14.5,6.3 14.8,6.0 15.0,5.8 15.2,5.6 15.5,5.4 15.7,5.1 15.9,4.9" fill="none" stroke="#111" stroke-width="1.8807943999456433" stroke-linejoin="round" stroke-linecap="round" filter="url(#fuzzy_av_1779093954958_9jvzyi271zl)"/><circle r="3.190344285001252" cx="-5.371441823947053" cy="-2.475884292983909" stroke="#111" fill="none" stroke-width="1.3383902072230047" filter="url(#fuzzy_av_1779093954958_9jvzyi271zl)" clip-path="url(#rightEye_av_1779093954958_9jvzyi271zl)"/><circle r="3.255530637583137" cx="-7.473651027032543" cy="0.23606908738140575" stroke="#111" fill="none" stroke-width="1.3555451623996464" filter="url(#fuzzy_av_1779093954958_9jvzyi271zl)" clip-path="url(#rightEye_av_1779093954958_9jvzyi271zl)"/><circle r="3.106585159931925" cx="-5.91762238531328" cy="-0.44544704713363625" stroke="#111" fill="none" stroke-width="1.1003648375095767" filter="url(#fuzzy_av_1779093954958_9jvzyi271zl)" clip-path="url(#rightEye_av_1779093954958_9jvzyi271zl)"/><circle r="3.4320542496309647" cx="-5.511590428466615" cy="-1.3740604561224716" stroke="#111" fill="none" stroke-width="1.1861701620639888" filter="url(#fuzzy_av_1779093954958_9jvzyi271zl)" clip-path="url(#rightEye_av_1779093954958_9jvzyi271zl)"/><circle r="4.635776964644979" cx="-9.435233550040813" cy="-0.7224914358201131" stroke="#111" fill="none" stroke-width="0.9265081193881313" filter="url(#fuzzy_av_1779093954958_9jvzyi271zl)" clip-path="url(#rightEye_av_1779093954958_9jvzyi271zl)"/><circle r="2.321230431986129" cx="-5.284938292557656" cy="-2.726138915233923" stroke="#111" fill="none" stroke-width="0.8940674848478006" filter="url(#fuzzy_av_1779093954958_9jvzyi271zl)" clip-path="url(#rightEye_av_1779093954958_9jvzyi271zl)"/><circle r="2.5917153733661396" cx="-8.209099885756165" cy="-2.134983665400801" stroke="#111" fill="none" stroke-width="1.342230980006721" filter="url(#fuzzy_av_1779093954958_9jvzyi271zl)" clip-path="url(#rightEye_av_1779093954958_9jvzyi271zl)"/><circle r="3.4515313080845598" cx="-5.762290737625179" cy="-1.019741917673866" stroke="#111" fill="none" stroke-width="0.9080029523819573" filter="url(#fuzzy_av_1779093954958_9jvzyi271zl)" clip-path="url(#rightEye_av_1779093954958_9jvzyi271zl)"/><circle r="3.959544630606523" cx="-5.77566404762466" cy="-2.441427213830832" stroke="#111" fill="none" stroke-width="1.0388355218689511" filter="url(#fuzzy_av_1779093954958_9jvzyi271zl)" clip-path="url(#rightEye_av_1779093954958_9jvzyi271zl)"/><circle r="2.535692317758976" cx="-6.743933983176323" cy="0.4689367275151066" stroke="#111" fill="none" stroke-width="1.0142344838513915" filter="url(#fuzzy_av_1779093954958_9jvzyi271zl)" clip-path="url(#rightEye_av_1779093954958_9jvzyi271zl)"/></g><g id="hairs"><polyline points="39.4,-45.1 39.9,-44.2 39.9,-44.5 39.4,-42.7 38.5,-41.5 37.3,-39.8 35.6,-37.7 33.4,-36.9 30.7,-34.8 27.5,-34.5 23.8,-32.8 19.5,-30.6 14.8,-28.7 9.7,-25.6 4.0,-23.5 -2.1,-21.6 -8.7,-20.0 -15.8,-18.0 -23.4,-13.6 -31.4,-11.8 -39.9,-10.1 -48.9,-6.0" fill="none" stroke="rgb(120,84,60)" stroke-width="2.231866377558867" stroke-linejoin="round" stroke-linecap="round" filter="url(#fuzzy_av_1779093954958_9jvzyi271zl)" opacity="0.9023075796279254"/><polyline points="-39.8,-46.7 -39.3,-47.4 -38.6,-47.6 -37.9,-49.2 -37.1,-49.3 -36.2,-50.2 -35.2,-50.6 -34.3,-52.4 -33.3,-53.9 -32.4,-54.4 -31.5,-53.5 -30.7,-54.2 -30.0,-55.4 -29.4,-56.9 -28.9,-56.4 -28.5,-56.5 -28.3,-57.6 -28.3,-56.0 -28.4,-55.6 -28.8,-55.9 -29.5,-54.9 -30.4,-55.9 -31.6,-53.8 -32.9,-52.6 -34.8,-51.0 -37.7,-49.0" fill="none" stroke="rgb(120,84,60)" stroke-width="2.382568280596956" stroke-linejoin="round" stroke-linecap="round" filter="url(#fuzzy_av_1779093954958_9jvzyi271zl)" opacity="0.8732123605075784"/><polyline points="1.9,-63.2 1.9,-62.9 2.8,-63.7 3.7,-62.9 4.5,-62.7 5.0,-63.7 5.4,-62.1 5.5,-62.3 5.3,-60.9 4.9,-61.6 4.2,-60.7 3.1,-59.9 1.8,-59.0 0.1,-58.0 -1.8,-57.7 -4.1,-56.2 -6.8,-54.8 -9.9,-53.3 -13.4,-51.0 -17.4,-50.4 -21.8,-47.9 -26.7,-46.8 -32.1,-42.9 -38.0,-41.2 -44.1,-39.5" fill="none" stroke="rgb(120,84,60)" stroke-width="1.4159954013019833" stroke-linejoin="round" stroke-linecap="round" filter="url(#fuzzy_av_1779093954958_9jvzyi271zl)" opacity="0.7592225672098797"/><polyline points="-44.6,-38.0 -44.1,-39.0 -43.1,-41.0 -41.7,-42.9 -40.0,-43.7 -38.0,-45.7 -35.8,-48.1 -33.6,-50.4 -31.4,-51.6 -29.2,-53.1 -27.2,-54.4 -25.3,-55.3 -23.7,-58.0 -22.3,-59.5 -20.8,-60.3 -19.4,-61.1" fill="none" stroke="rgb(120,84,60)" stroke-width="0.7937288525457131" stroke-linejoin="round" stroke-linecap="round" filter="url(#fuzzy_av_1779093954958_9jvzyi271zl)" opacity="0.950431743028003"/><polyline points="-38.3,-48.4 -38.2,-49.2 -37.5,-48.6 -36.6,-50.1 -35.7,-50.4 -34.7,-52.4 -33.9,-52.7 -33.2,-52.7 -32.5,-53.6 -31.9,-54.7 -31.5,-55.2 -31.3,-55.2 -31.3,-55.7 -31.5,-55.4 -31.9,-53.8 -32.7,-53.7 -33.9,-51.9 -35.6,-51.2 -37.5,-50.1" fill="none" stroke="rgb(120,84,60)" stroke-width="0.7631700703190023" stroke-linejoin="round" stroke-linecap="round" filter="url(#fuzzy_av_1779093954958_9jvzyi271zl)" opacity="0.7835502904334897"/><polyline points="-27.9,-57.8 -28.1,-56.4 -27.2,-58.4 -25.9,-58.3 -24.8,-58.5 -23.9,-59.9 -23.2,-59.0 -22.6,-58.8 -22.2,-60.2 -21.8,-59.2 -21.5,-59.8 -21.3,-60.0 -21.3,-58.6 -21.4,-57.8 -21.9,-57.4 -22.7,-57.2 -23.9,-56.9 -25.3,-55.9 -27.1,-54.8 -29.3,-52.7 -31.8,-50.9 -34.9,-49.0 -38.5,-45.5 -42.9,-41.5" fill="none" stroke="rgb(120,84,60)" stroke-width="1.2335490736235477" stroke-linejoin="round" stroke-linecap="round" filter="url(#fuzzy_av_1779093954958_9jvzyi271zl)" opacity="0.7822677250567626"/><polyline points="-34.3,-51.9 -34.5,-53.1 -33.9,-52.0 -33.0,-54.3 -32.2,-55.2 -31.5,-54.1 -30.8,-55.3 -30.2,-55.5 -29.7,-56.6 -29.4,-56.3 -29.2,-55.8 -29.2,-55.1 -29.5,-54.3 -30.1,-55.0 -31.0,-53.3 -32.4,-51.0 -34.1,-48.8 -36.2,-47.1 -38.6,-44.2 -41.3,-42.8 -44.1,-39.9" fill="none" stroke="rgb(120,84,60)" stroke-width="1.0963236514525092" stroke-linejoin="round" stroke-linecap="round" filter="url(#fuzzy_av_1779093954958_9jvzyi271zl)" opacity="0.871638145039411"/><polyline points="24.1,-58.4 26.4,-57.1 27.5,-55.8 28.2,-56.0 28.7,-55.5 29.1,-55.3 29.5,-55.5 29.6,-55.2 29.5,-54.9 29.0,-54.0 28.1,-54.3 26.9,-55.4 25.4,-55.8 23.5,-54.9 21.0,-57.0 18.1,-57.4 14.5,-59.6 10.3,-60.4 4.4,-63.2" fill="none" stroke="rgb(120,84,60)" stroke-width="1.7030769766804343" stroke-linejoin="round" stroke-linecap="round" filter="url(#fuzzy_av_1779093954958_9jvzyi271zl)" opacity="0.9173683362870049"/><polyline points="-19.4,-61.8 -18.6,-60.6 -17.4,-62.5 -15.8,-61.5 -14.2,-61.4 -12.8,-63.3 -11.7,-62.7 -10.8,-62.2 -10.1,-63.2 -9.5,-62.4 -9.1,-62.2 -8.8,-62.7 -8.6,-62.8 -8.7,-62.4 -8.9,-61.5 -9.5,-61.9 -10.3,-61.6 -11.5,-60.9 -13.1,-60.7 -15.0,-59.3 -17.3,-57.7 -19.9,-58.3 -23.0,-56.8 -26.5,-55.0 -30.6,-53.1 -35.2,-51.9" fill="none" stroke="rgb(120,84,60)" stroke-width="1.2382024786823538" stroke-linejoin="round" stroke-linecap="round" filter="url(#fuzzy_av_1779093954958_9jvzyi271zl)" opacity="0.915317161409221"/><polyline points="31.3,-53.6 32.1,-53.2 32.0,-51.7 31.2,-50.6 29.8,-49.4 27.9,-46.8 25.4,-45.4 22.2,-43.9 18.4,-40.6 13.8,-38.6 8.5,-34.5 2.5,-32.3 -4.3,-27.9 -11.8,-25.4 -20.0,-19.7 -28.9,-16.4 -38.5,-11.8 -48.9,-7.2" fill="none" stroke="rgb(120,84,60)" stroke-width="2.0462081834819967" stroke-linejoin="round" stroke-linecap="round" filter="url(#fuzzy_av_1779093954958_9jvzyi271zl)" opacity="0.9024732575050672"/><polyline points="-22.6,-59.7 -22.0,-60.9 -21.4,-60.7 -20.5,-60.9 -19.5,-61.6 -18.2,-62.1 -16.8,-61.0 -15.5,-62.8 -14.1,-61.4 -13.0,-63.4 -12.1,-62.8 -11.4,-62.4 -11.0,-62.7 -10.8,-62.9 -10.8,-62.2 -11.0,-62.3 -11.4,-62.5 -12.0,-62.2 -12.9,-62.5 -14.1,-61.9 -15.7,-61.4 -17.8,-59.3 -20.3,-59.0 -23.2,-58.7 -26.3,-57.2 -30.4,-54.6" fill="none" stroke="rgb(120,84,60)" stroke-width="1.5293557924717744" stroke-linejoin="round" stroke-linecap="round" filter="url(#fuzzy_av_1779093954958_9jvzyi271zl)" opacity="0.9825318310824732"/><polyline points="41.8,-42.7 42.4,-40.2 42.8,-40.5 42.9,-38.9 42.5,-38.0 41.9,-37.2 40.8,-37.4 39.5,-37.1 37.8,-36.2 35.8,-36.3 33.5,-35.7 30.7,-35.1 27.7,-36.3 24.2,-35.1 20.4,-37.1 16.1,-36.3 11.5,-37.5 6.4,-37.9 1.0,-38.4 -4.9,-39.9 -11.2,-40.3 -17.8,-41.5 -24.7,-43.1 -32.1,-44.5 -39.8,-46.5" fill="none" stroke="rgb(120,84,60)" stroke-width="1.6785744262043563" stroke-linejoin="round" stroke-linecap="round" filter="url(#fuzzy_av_1779093954958_9jvzyi271zl)" opacity="0.7576801457525248"/><polyline points="21.7,-58.4 22.5,-59.0 24.3,-58.4 26.0,-56.5 27.4,-56.0 28.3,-54.8 29.1,-54.3 29.8,-53.7 30.3,-54.9 30.7,-54.1 30.7,-54.0 30.4,-53.4 29.6,-53.3 28.6,-55.5 27.2,-55.0 25.6,-55.7 23.5,-57.4 20.7,-58.2 16.6,-61.0" fill="none" stroke="rgb(120,84,60)" stroke-width="1.002831979393969" stroke-linejoin="round" stroke-linecap="round" filter="url(#fuzzy_av_1779093954958_9jvzyi271zl)" opacity="0.8081744441779245"/><polyline points="-34.3,-52.6 -34.4,-52.4 -33.4,-53.6 -32.0,-52.5 -30.3,-53.6 -28.5,-53.9 -26.5,-54.3 -24.3,-56.0 -21.9,-56.7 -19.4,-57.4 -16.8,-57.7 -14.1,-57.7 -11.4,-57.0 -8.8,-58.9 -6.1,-57.8 -3.5,-58.5 -1.0,-58.9 1.5,-59.0 3.9,-59.6 6.2,-60.0 8.5,-60.3 10.7,-60.4 12.5,-59.6 13.9,-60.4 14.9,-61.4 15.6,-61.0" fill="none" stroke="rgb(120,84,60)" stroke-width="1.8369417533443049" stroke-linejoin="round" stroke-linecap="round" filter="url(#fuzzy_av_1779093954958_9jvzyi271zl)" opacity="0.8461592690052879"/><polyline points="-16.3,-61.3 -13.4,-61.6 -11.5,-62.0 -9.6,-62.1 -7.5,-62.1 -5.0,-62.0 -2.3,-62.0 0.5,-61.9 3.5,-60.1 6.4,-60.9 9.5,-60.1 12.5,-60.6 15.4,-59.7 18.2,-59.3 20.3,-58.5 21.5,-57.8 21.7,-59.4" fill="none" stroke="rgb(120,84,60)" stroke-width="0.7738136936428279" stroke-linejoin="round" stroke-linecap="round" filter="url(#fuzzy_av_1779093954958_9jvzyi271zl)" opacity="0.9784497397498086"/><polyline points="-48.5,-25.4 -48.4,-24.7 -47.9,-27.1 -47.2,-28.8 -46.3,-30.0 -45.3,-32.8 -44.2,-33.8 -43.0,-36.1 -41.8,-37.8 -40.4,-39.3 -39.0,-40.9 -37.6,-43.1 -36.1,-45.1 -34.6,-47.0 -33.1,-48.6 -31.6,-48.9 -30.2,-51.5 -28.9,-52.2 -27.8,-53.6 -26.9,-55.8 -26.1,-56.0 -25.4,-57.5 -24.7,-58.3 -24.0,-58.8 -23.2,-58.3 -22.6,-59.2" fill="none" stroke="rgb(120,84,60)" stroke-width="1.8893039505077507" stroke-linejoin="round" stroke-linecap="round" filter="url(#fuzzy_av_1779093954958_9jvzyi271zl)" opacity="0.881784559486168"/><polyline points="-35.5,-52.0 -34.7,-52.5 -34.0,-53.4 -32.8,-52.4 -31.2,-53.6 -29.4,-54.2 -27.5,-55.1 -25.5,-57.2 -23.4,-56.8 -21.2,-58.3 -19.0,-59.5 -16.8,-59.5 -14.8,-60.0 -12.9,-60.4 -11.2,-60.6 -9.9,-62.6 -8.8,-62.8 -7.9,-63.6 -7.2,-64.1 -6.9,-63.6 -6.1,-62.9" fill="none" stroke="rgb(120,84,60)" stroke-width="1.412911974811009" stroke-linejoin="round" stroke-linecap="round" filter="url(#fuzzy_av_1779093954958_9jvzyi271zl)" opacity="0.9015108031679941"/><polyline points="12.6,-62.6 12.6,-62.7 13.1,-61.0 13.1,-61.9 12.8,-60.2 12.1,-60.5 11.0,-58.6 9.3,-58.1 6.9,-57.4 3.9,-54.9 0.2,-53.8 -4.1,-52.0 -9.0,-48.4 -14.7,-46.3 -21.2,-44.3 -28.6,-42.7 -36.9,-37.9 -45.9,-35.7" fill="none" stroke="rgb(120,84,60)" stroke-width="2.2561252357214387" stroke-linejoin="round" stroke-linecap="round" filter="url(#fuzzy_av_1779093954958_9jvzyi271zl)" opacity="0.8024883690120284"/><polyline points="34.5,-52.0 34.4,-50.6 34.5,-49.7 34.4,-50.0 33.8,-48.5 32.7,-47.9 30.9,-48.5 28.6,-46.6 25.7,-46.4 22.2,-46.9 18.1,-46.3 13.3,-47.2 8.0,-45.6 2.0,-45.8 -4.7,-45.4 -12.2,-45.6 -20.4,-46.8 -29.2,-46.6 -38.3,-48.3" fill="none" stroke="rgb(120,84,60)" stroke-width="1.7242021766913358" stroke-linejoin="round" stroke-linecap="round" filter="url(#fuzzy_av_1779093954958_9jvzyi271zl)" opacity="0.9366402735050874"/><polyline points="-37.5,-49.4 -36.9,-50.2 -35.7,-50.6 -34.4,-51.9 -33.1,-53.2 -31.7,-54.7 -30.2,-55.6 -28.7,-55.9 -27.3,-57.1 -26.1,-57.2 -25.0,-57.6 -24.1,-58.0 -23.4,-59.0 -22.8,-59.7 -22.5,-59.8 -22.3,-59.9 -22.6,-60.7" fill="none" stroke="rgb(120,84,60)" stroke-width="2.155096027848299" stroke-linejoin="round" stroke-linecap="round" filter="url(#fuzzy_av_1779093954958_9jvzyi271zl)" opacity="0.979278587172391"/><polyline points="-27.9,-56.5 -28.2,-57.5 -27.4,-57.6 -26.4,-58.0 -25.6,-57.8 -25.1,-57.6 -25.1,-57.3 -25.4,-57.0 -26.0,-56.7 -27.0,-55.6 -28.3,-53.8 -30.0,-53.6 -32.2,-50.6 -35.1,-48.1 -38.7,-44.6 -43.0,-41.6" fill="none" stroke="rgb(120,84,60)" stroke-width="2.573469812296935" stroke-linejoin="round" stroke-linecap="round" filter="url(#fuzzy_av_1779093954958_9jvzyi271zl)" opacity="0.8681749087039563"/><polyline points="-49.4,-19.7 -49.1,-21.8 -48.9,-23.1 -48.8,-23.0 -48.7,-23.2 -48.5,-24.8 -48.3,-26.0 -48.0,-26.4 -47.8,-26.4 -47.5,-26.1 -47.3,-23.9 -47.0,-24.0 -46.8,-21.7 -46.6,-19.1 -46.4,-18.2 -46.2,-15.2 -45.9,-10.7 -45.7,-6.6 -45.5,-1.3 -45.4,3.8 -45.5,9.4" fill="none" stroke="rgb(120,84,60)" stroke-width="1.696168704710947" stroke-linejoin="round" stroke-linecap="round" filter="url(#fuzzy_av_1779093954958_9jvzyi271zl)" opacity="0.9713765393862709"/><polyline points="-48.8,-23.2 -48.5,-25.3 -47.9,-26.6 -46.9,-26.9 -45.7,-29.2 -44.3,-31.8 -42.6,-32.5 -40.8,-36.1 -38.7,-38.0 -36.6,-40.5 -34.3,-41.9 -31.9,-44.2 -29.5,-46.1 -27.1,-48.2 -24.6,-51.2 -22.2,-51.6 -19.8,-53.7 -17.4,-56.2 -15.0,-58.5 -12.7,-61.2 -10.5,-62.0 -8.4,-64.0" fill="none" stroke="rgb(120,84,60)" stroke-width="1.0871159551627914" stroke-linejoin="round" stroke-linecap="round" filter="url(#fuzzy_av_1779093954958_9jvzyi271zl)" opacity="0.9972793592317956"/><polyline points="8.0,-62.1 10.3,-62.8 11.4,-62.8 11.9,-62.4 12.2,-61.9 12.3,-59.2 12.2,-58.2 11.9,-58.0 11.3,-57.0 10.5,-55.0 9.3,-52.9 7.9,-52.0 6.2,-48.9 4.2,-46.8 1.8,-44.8 -0.8,-42.8 -3.9,-39.7 -7.4,-35.1 -11.3,-32.8 -15.6,-29.0 -20.1,-25.0 -25.1,-20.8 -30.4,-16.8 -36.1,-14.2 -42.1,-8.0 -48.5,-3.1" fill="none" stroke="rgb(120,84,60)" stroke-width="0.9708286823744624" stroke-linejoin="round" stroke-linecap="round" filter="url(#fuzzy_av_1779093954958_9jvzyi271zl)" opacity="0.8061880206589374"/><polyline points="20.5,-60.4 20.9,-59.6 21.2,-58.4 21.6,-57.7 21.9,-56.9 21.8,-57.4 21.2,-55.5 20.1,-54.4 18.4,-54.1 16.2,-52.5 13.6,-50.3 10.6,-48.8 7.1,-47.3 3.0,-45.1 -1.6,-42.9 -6.7,-41.9 -12.3,-38.8 -18.4,-36.6 -25.0,-34.7 -32.3,-31.2 -40.1,-28.5 -48.7,-25.2" fill="none" stroke="rgb(120,84,60)" stroke-width="1.2574906277479911" stroke-linejoin="round" stroke-linecap="round" filter="url(#fuzzy_av_1779093954958_9jvzyi271zl)" opacity="0.946737211886305"/><polyline points="29.5,-54.1 30.9,-54.4 31.4,-51.8 31.3,-51.0 30.7,-50.1 29.7,-49.5 28.3,-46.8 26.6,-44.5 24.4,-43.6 21.7,-41.4 18.6,-38.5 15.0,-35.3 10.9,-31.5 6.4,-28.3 1.4,-25.2 -4.1,-21.9 -9.9,-16.2 -16.3,-13.3 -23.1,-8.1 -30.3,-4.2 -37.8,0.9 -45.6,8.7" fill="none" stroke="rgb(120,84,60)" stroke-width="0.8501703272939961" stroke-linejoin="round" stroke-linecap="round" filter="url(#fuzzy_av_1779093954958_9jvzyi271zl)" opacity="0.773587925489302"/><polyline points="-6.1,-63.2 -5.5,-64.5 -3.9,-63.8 -2.2,-63.4 -0.3,-63.2 1.8,-63.7 3.9,-63.0 6.0,-63.0 8.1,-62.8 10.1,-60.9 12.0,-61.1 13.9,-61.1 15.6,-61.2 17.1,-60.7 18.5,-59.1 19.6,-60.0 20.4,-59.9 20.7,-59.6 20.8,-59.1 20.7,-58.7 20.7,-58.6 20.5,-59.1" fill="none" stroke="rgb(120,84,60)" stroke-width="1.8591288396512442" stroke-linejoin="round" stroke-linecap="round" filter="url(#fuzzy_av_1779093954958_9jvzyi271zl)" opacity="0.8439608146348603"/><polyline points="-48.8,-23.4 -48.4,-24.7 -47.7,-26.1 -46.6,-29.1 -45.2,-30.8 -43.5,-33.4 -41.7,-35.8 -39.6,-38.5 -37.5,-42.3 -35.4,-43.7 -33.3,-46.8 -31.2,-50.7 -29.0,-52.2 -26.8,-54.9 -24.5,-57.1 -21.6,-61.1" fill="none" stroke="rgb(120,84,60)" stroke-width="0.9124578865605223" stroke-linejoin="round" stroke-linecap="round" filter="url(#fuzzy_av_1779093954958_9jvzyi271zl)" opacity="0.7882300259079716"/><polyline points="36.8,-49.6 37.2,-47.9 37.4,-47.0 37.4,-45.8 36.9,-45.9 36.1,-45.4 34.9,-43.2 33.3,-42.9 31.4,-41.8 29.1,-41.2 26.4,-39.7 23.2,-37.5 19.7,-37.4 15.6,-36.7 11.1,-34.6 6.2,-34.8 0.8,-33.0 -5.0,-32.3 -11.3,-30.1 -18.0,-28.1 -25.1,-26.4 -32.6,-24.4 -40.6,-23.1 -49.2,-20.2" fill="none" stroke="rgb(120,84,60)" stroke-width="1.3485606652483786" stroke-linejoin="round" stroke-linecap="round" filter="url(#fuzzy_av_1779093954958_9jvzyi271zl)" opacity="0.8640087010951665"/><polyline points="48.4,-25.4 49.7,-23.1 50.9,-22.1 51.8,-19.8 52.2,-16.5 52.4,-14.6 52.4,-12.3 52.3,-10.1 52.1,-7.6 51.9,-4.2 51.7,-1.9 51.5,-0.9 51.4,2.0 51.2,4.9 51.0,6.4 50.7,8.9 50.1,11.7 49.4,14.6 48.3,16.5 47.1,17.8 45.6,20.6 44.1,22.1 42.6,25.0 41.2,25.6 39.8,28.8 38.4,29.1 37.1,32.8 35.7,33.8 34.3,35.5 32.9,36.6 31.1,38.1 28.9,40.6 26.7,41.4" fill="none" stroke="rgb(120,84,60)" stroke-width="1.8966496019020003" stroke-linejoin="round" stroke-linecap="round" filter="url(#fuzzy_av_1779093954958_9jvzyi271zl)" opacity="0.9372019104286614"/><polyline points="45.4,-35.2 46.3,-33.0 47.1,-30.4 47.7,-28.2 48.2,-25.4 48.7,-23.7 49.1,-21.1 49.5,-17.7 49.8,-16.3 49.9,-14.2 49.9,-11.3 49.7,-7.7 49.4,-6.1 49.1,-4.4 48.7,-1.4 48.2,0.6 47.7,2.2 47.1,6.0 46.4,8.0 45.6,10.3 44.7,12.8 43.8,13.7 42.8,16.1 41.7,19.3 40.6,20.8 39.4,23.2 38.1,25.9 36.8,27.8 35.4,30.0 34.0,31.4 32.5,33.9 31.1,35.5 29.7,36.1 28.3,38.4 26.8,39.3 25.2,39.6 23.6,41.2 22.0,43.1 20.1,44.5" fill="none" stroke="rgb(120,84,60)" stroke-width="1.6622761478548105" stroke-linejoin="round" stroke-linecap="round" filter="url(#fuzzy_av_1779093954958_9jvzyi271zl)" opacity="0.9853310397294875"/><polyline points="38.9,-45.4 40.1,-44.1 41.3,-42.8 42.5,-40.9 43.7,-38.9 44.8,-36.4 45.7,-35.2 46.5,-33.2 47.2,-30.6 47.9,-29.1 48.4,-25.7 48.8,-24.8 49.1,-22.5 49.3,-18.6 49.5,-16.7 49.6,-13.4 49.6,-11.2 49.6,-10.1 49.5,-7.0 49.3,-4.8 49.1,-1.5 48.8,-0.5 48.4,2.6 48.0,4.4 47.5,6.1 47.0,8.2" fill="none" stroke="rgb(120,84,60)" stroke-width="2.4577472843915507" stroke-linejoin="round" stroke-linecap="round" filter="url(#fuzzy_av_1779093954958_9jvzyi271zl)" opacity="0.9023047149171988"/><polyline points="33.1,-51.6 34.3,-51.6 35.7,-50.2 37.3,-48.8 39.0,-46.5 40.4,-45.2 41.6,-42.9 42.7,-41.7 43.8,-38.8 44.8,-36.7 45.7,-35.9 46.6,-33.3 47.5,-31.6 48.3,-28.7 49.0,-27.7 49.7,-24.1 50.3,-22.2 50.9,-19.5 51.4,-16.7 51.8,-15.7 52.1,-12.9 52.4,-9.2 52.3,-6.4" fill="none" stroke="rgb(120,84,60)" stroke-width="1.0206646099323007" stroke-linejoin="round" stroke-linecap="round" filter="url(#fuzzy_av_1779093954958_9jvzyi271zl)" opacity="0.7997326698415108"/><polyline points="11.4,-63.2 8.9,-63.1 6.2,-63.5 3.5,-63.0 0.7,-63.0 -2.1,-63.6 -5.0,-63.4 -7.7,-63.5 -10.4,-63.7 -13.1,-62.9 -15.9,-61.1 -18.7,-61.7 -21.5,-60.2 -24.2,-58.8 -26.9,-59.5 -29.7,-57.7 -32.5,-57.2 -35.4,-55.3 -38.4,-53.6 -41.4,-53.2 -44.4,-51.8 -47.4,-50.1 -50.5,-49.3 -53.5,-46.6 -56.7,-44.7 -59.7,-42.9 -62.5,-41.6 -64.8,-39.3 -66.8,-36.8 -69.6,-36.3" fill="none" stroke="rgb(120,84,60)" stroke-width="2.0222713049376493" stroke-linejoin="round" stroke-linecap="round" filter="url(#fuzzy_av_1779093954958_9jvzyi271zl)" opacity="0.9353390472286682"/><polyline points="3.0,-63.6 0.7,-62.9 -2.4,-63.0 -5.3,-63.6 -8.1,-63.1 -10.8,-62.1 -13.7,-61.8 -16.5,-61.4 -19.3,-61.4 -21.9,-59.7 -24.3,-58.9 -26.8,-57.9 -29.4,-58.2 -32.1,-56.2 -34.8,-56.1 -37.4,-55.2 -39.9,-52.5 -42.0,-51.6 -44.0,-49.8 -45.9,-48.1 -47.7,-47.3 -49.6,-45.1 -51.6,-43.6 -53.6,-41.5 -55.6,-40.1 -57.6,-37.2 -59.7,-34.8 -61.8,-32.4 -63.7,-27.8" fill="none" stroke="rgb(120,84,60)" stroke-width="2.2405795228848633" stroke-linejoin="round" stroke-linecap="round" filter="url(#fuzzy_av_1779093954958_9jvzyi271zl)" opacity="0.8830646965281581"/><polyline points="-6.1,-62.9 -8.6,-64.0 -11.1,-62.1 -13.7,-63.2 -16.4,-62.6 -19.0,-61.5 -21.5,-60.9 -24.0,-60.2 -26.6,-58.9 -29.3,-57.7 -31.9,-55.8 -34.5,-55.4 -36.9,-53.8 -39.1,-51.7 -41.1,-51.7 -42.8,-50.0 -44.3,-48.2 -45.7,-46.0 -47.1,-43.5 -48.6,-42.1 -50.2,-40.4 -51.9,-38.7 -53.5,-36.2 -54.8,-35.1 -55.9,-31.4" fill="none" stroke="rgb(120,84,60)" stroke-width="0.8064690645626069" stroke-linejoin="round" stroke-linecap="round" filter="url(#fuzzy_av_1779093954958_9jvzyi271zl)" opacity="0.8414593721380816"/><polyline points="-7.5,-63.3 -10.3,-63.1 -12.7,-63.1 -15.3,-62.3 -17.8,-60.4 -20.1,-60.8 -22.3,-60.5 -24.4,-57.8 -26.4,-56.9 -28.4,-56.1 -30.3,-55.7 -32.1,-53.8 -33.8,-52.4 -35.5,-52.2 -37.0,-50.4 -38.5,-48.5 -39.9,-46.4 -41.2,-44.2 -42.5,-42.5 -43.8,-40.5 -45.0,-38.8 -46.1,-35.5 -47.2,-34.6 -48.2,-31.5 -49.0,-28.5 -49.7,-27.0 -50.3,-23.6 -50.8,-21.9 -51.1,-19.0 -51.3,-17.1 -51.3,-14.4 -51.2,-13.0" fill="none" stroke="rgb(120,84,60)" stroke-width="1.6035708837986182" stroke-linejoin="round" stroke-linecap="round" filter="url(#fuzzy_av_1779093954958_9jvzyi271zl)" opacity="0.8234197399977511"/><polyline points="-21.3,-59.3 -22.7,-58.8 -24.8,-58.7 -26.9,-57.8 -29.0,-57.1 -31.1,-54.4 -33.3,-53.5 -35.4,-53.5 -37.3,-51.0 -39.1,-50.6 -40.9,-48.0 -42.5,-45.7 -44.2,-44.2 -45.8,-43.1 -47.4,-39.8 -49.0,-37.0 -50.4,-34.8 -51.7,-33.9 -52.9,-30.6 -54.0,-29.2 -55.1,-26.2 -56.0,-22.9 -56.8,-20.6 -57.5,-19.5 -58.0,-16.4 -58.5,-14.7 -58.9,-11.7 -59.3,-8.7 -59.6,-6.3 -59.8,-3.6 -59.9,-1.2 -59.9,1.7 -59.8,4.1 -59.7,5.6 -59.4,7.5 -58.9,11.8 -58.2,13.0 -57.3,14.9 -56.7,18.5" fill="none" stroke="rgb(120,84,60)" stroke-width="1.2929583329008625" stroke-linejoin="round" stroke-linecap="round" filter="url(#fuzzy_av_1779093954958_9jvzyi271zl)" opacity="0.9449512814092295"/><polyline points="-22.1,-60.9 -23.5,-60.3 -26.0,-58.8 -29.1,-57.4 -32.1,-55.3 -34.7,-54.7 -36.8,-53.9 -38.5,-50.8 -40.1,-51.1 -41.9,-48.3 -43.9,-47.5 -46.1,-45.8 -48.3,-42.7 -50.3,-41.3 -52.1,-38.7 -53.7,-37.9 -55.3,-35.7 -56.9,-32.5 -58.7,-31.5 -60.4,-28.2 -62.0,-26.0 -63.3,-23.8 -64.4,-20.9 -65.6,-18.6 -67.1,-15.9 -68.8,-13.9 -70.2,-10.4 -70.6,-7.4" fill="none" stroke="rgb(120,84,60)" stroke-width="1.6807549574757616" stroke-linejoin="round" stroke-linecap="round" filter="url(#fuzzy_av_1779093954958_9jvzyi271zl)" opacity="0.9014449772530164"/><polyline points="-30.4,-55.8 -32.2,-54.6 -34.0,-53.8 -35.9,-50.9 -37.5,-50.8 -39.0,-47.9 -40.3,-47.1 -41.6,-43.9 -42.9,-42.5 -44.2,-41.5 -45.7,-39.7 -47.3,-35.6 -49.1,-33.5 -51.1,-33.1 -53.2,-29.6 -55.4,-27.5 -57.3,-26.0 -59.0,-22.0 -60.2,-19.7 -61.2,-18.0 -61.8,-15.0 -62.3,-13.0 -62.7,-10.2 -63.0,-8.5 -63.1,-5.5 -63.1,-3.0 -62.9,-1.1 -62.4,2.8 -61.8,4.6 -61.1,6.7 -60.4,9.5 -59.7,13.2 -59.2,15.9 -58.7,16.9 -58.2,20.5 -57.6,22.4 -56.7,24.7 -55.5,26.1 -53.3,28.4" fill="none" stroke="rgb(120,84,60)" stroke-width="1.4984222061260752" stroke-linejoin="round" stroke-linecap="round" filter="url(#fuzzy_av_1779093954958_9jvzyi271zl)" opacity="0.8758156068919245"/><polyline points="-37.7,-50.0 -43.5,-48.0 -44.9,-47.4 -44.9,-45.0 -44.9,-41.9 -45.4,-40.2 -46.3,-39.2 -47.7,-36.7 -49.3,-35.4 -51.0,-32.5 -52.6,-29.4 -54.2,-26.8 -55.6,-24.7 -56.9,-23.4 -58.1,-19.6 -59.0,-18.1 -59.9,-16.3 -60.8,-13.6 -61.9,-10.7 -63.2,-8.0 -64.5,-5.5 -65.5,-2.7 -65.9,0.2 -65.6,2.3 -64.9,4.2 -64.6,6.5 -64.8,10.7 -64.7,12.2" fill="none" stroke="rgb(120,84,60)" stroke-width="1.8893025733402475" stroke-linejoin="round" stroke-linecap="round" filter="url(#fuzzy_av_1779093954958_9jvzyi271zl)" opacity="0.7913153000803204"/><polyline points="-38.6,-47.4 -41.3,-46.2 -42.2,-45.2 -43.0,-42.8 -44.0,-40.1 -45.2,-39.4 -46.6,-36.4 -48.2,-34.3 -49.8,-32.9 -51.2,-29.7 -52.4,-27.0 -53.1,-24.5 -53.4,-23.3 -53.5,-19.4 -53.5,-16.7 -53.5,-15.8 -53.7,-11.7 -54.1,-10.0 -54.7,-7.5 -55.3,-5.5 -55.8,-2.8 -56.2,-0.2 -56.5,2.3 -56.6,5.1 -56.5,7.1 -56.0,10.9 -55.2,12.0 -54.2,14.3 -53.1,16.8 -52.1,20.7 -51.2,22.8 -50.3,25.0 -50.0,27.4" fill="none" stroke="rgb(120,84,60)" stroke-width="1.257337893860564" stroke-linejoin="round" stroke-linecap="round" filter="url(#fuzzy_av_1779093954958_9jvzyi271zl)" opacity="0.9668630845550352"/><polyline points="-45.7,-35.9 -47.8,-31.6 -48.7,-30.3 -49.2,-26.5 -49.6,-25.3 -49.9,-21.6 -50.1,-20.6 -50.2,-16.8 -50.2,-14.4 -50.2,-12.5 -50.2,-10.5 -50.1,-8.4 -49.8,-5.9 -49.5,-2.9 -49.1,0.1 -48.6,2.1 -48.0,4.1 -47.4,7.5 -46.7,10.0 -45.9,12.3 -45.1,15.3 -44.3,15.8 -43.3,19.8 -42.3,20.3 -41.3,23.7 -40.1,25.8 -38.9,26.6 -37.6,29.4 -36.3,30.9 -34.9,33.5 -33.4,34.8 -31.9,37.1 -30.4,36.9 -28.7,40.0 -26.9,40.7 -25.0,43.0 -22.8,44.0 -21.0,44.2" fill="none" stroke="rgb(120,84,60)" stroke-width="1.3222247981301192" stroke-linejoin="round" stroke-linecap="round" filter="url(#fuzzy_av_1779093954958_9jvzyi271zl)" opacity="0.9739037829651978"/><polyline points="-47.4,-29.5 -48.3,-26.0 -48.7,-23.8 -49.0,-21.0 -49.2,-19.2 -49.4,-17.4 -49.5,-13.8 -49.5,-12.8 -49.3,-9.3 -49.2,-6.8 -48.9,-3.9 -48.6,-1.9 -48.2,1.5 -47.7,3.4 -47.1,6.7 -46.4,7.8 -45.7,10.3 -44.8,14.2 -43.9,16.0 -42.9,17.4 -41.8,20.0 -40.6,21.9 -39.4,24.7 -38.1,25.8 -36.9,27.8 -35.6,30.2 -34.3,32.2 -32.9,34.0 -31.4,36.6 -29.9,36.5 -28.3,39.6 -26.8,40.6 -25.2,42.4 -23.0,42.8" fill="none" stroke="rgb(120,84,60)" stroke-width="1.793288401680326" stroke-linejoin="round" stroke-linecap="round" filter="url(#fuzzy_av_1779093954958_9jvzyi271zl)" opacity="0.796613229607513"/><polyline points="-48.8,-23.3 -48.9,-21.6 -49.2,-19.2 -49.4,-17.3 -49.5,-14.8 -49.5,-10.7 -49.6,-8.4 -49.5,-6.4 -49.4,-4.0 -49.3,-2.4 -49.1,0.6 -48.9,3.1 -48.6,6.2 -48.1,8.0 -47.6,11.6 -47.0,12.5 -46.4,15.9 -45.7,18.7 -45.0,20.9 -44.1,21.9 -43.0,24.8 -41.8,27.1 -40.7,27.6 -39.5,29.7 -38.4,31.9 -37.2,33.1 -35.8,36.3 -34.1,37.0 -32.3,40.2 -30.8,41.5" fill="none" stroke="rgb(120,84,60)" stroke-width="1.1800450707551777" stroke-linejoin="round" stroke-linecap="round" filter="url(#fuzzy_av_1779093954958_9jvzyi271zl)" opacity="0.8335718543144509"/><polyline points="-49.2,-20.2 -50.0,-19.8 -51.1,-18.3 -51.6,-15.9 -51.5,-12.6 -51.0,-10.7 -50.4,-8.9 -49.8,-4.9 -49.4,-2.0 -49.1,-1.1 -48.9,2.4 -48.8,3.9 -48.5,7.3 -48.1,10.7 -47.7,11.6 -47.2,14.9 -46.8,15.9 -46.3,19.4 -45.8,21.4 -45.1,23.0 -44.1,26.2 -42.9,28.1 -41.5,28.6 -40.0,31.4 -38.5,33.6 -37.1,35.4 -35.6,35.4 -33.9,37.2 -32.1,39.0 -30.0,40.2 -27.9,42.3 -25.7,44.1 -24.0,45.2" fill="none" stroke="rgb(120,84,60)" stroke-width="1.0028851510245431" stroke-linejoin="round" stroke-linecap="round" filter="url(#fuzzy_av_1779093954958_9jvzyi271zl)" opacity="0.917517153695993"/><polyline points="-49.4,-19.7 -49.7,-16.9 -49.9,-14.6 -50.4,-13.8 -51.1,-10.3 -51.6,-7.4 -51.7,-5.6 -51.4,-2.4 -50.8,1.1 -50.1,2.8 -49.5,5.0 -49.0,7.3 -48.7,10.4 -48.3,13.0 -47.8,14.7 -47.2,16.4 -46.4,18.7 -45.4,22.0 -44.4,23.2 -43.2,26.7 -41.9,28.0 -40.4,29.4 -38.9,31.3 -37.4,33.8 -35.7,35.2 -34.1,36.4 -32.4,38.5 -30.7,39.9 -28.8,41.0 -26.8,43.2 -24.7,43.4 -22.6,45.7 -20.6,45.1 -18.5,46.3 -16.2,47.6 -13.2,49.4" fill="none" stroke="rgb(120,84,60)" stroke-width="1.2093231741228396" stroke-linejoin="round" stroke-linecap="round" filter="url(#fuzzy_av_1779093954958_9jvzyi271zl)" opacity="0.8996314333305204"/><polyline points="-49.4,-20.4 -50.5,-17.1 -50.4,-14.5 -50.4,-12.8 -50.4,-11.4 -50.3,-8.0 -50.0,-5.3 -49.5,-2.1 -49.0,0.3 -48.5,3.0 -48.0,5.6 -47.6,8.0 -47.1,9.2 -46.6,11.9 -45.9,14.7 -45.1,17.8 -44.3,18.3 -43.4,21.0 -42.4,22.9 -41.3,26.0 -40.2,27.7 -38.9,28.6 -37.6,31.7 -36.1,33.9 -34.7,35.4 -33.1,37.0 -31.5,38.1 -29.7,40.2 -27.9,41.2 -25.9,43.1 -23.8,43.6 -21.7,44.6 -19.8,45.2 -18.4,46.8" fill="none" stroke="rgb(120,84,60)" stroke-width="2.5894750121665124" stroke-linejoin="round" stroke-linecap="round" filter="url(#fuzzy_av_1779093954958_9jvzyi271zl)" opacity="0.948561359406438"/><polyline points="-49.4,-13.0 -49.4,-9.4 -49.2,-6.9 -48.8,-4.6 -48.4,-1.7 -48.0,1.6 -47.4,4.6 -46.8,5.8 -46.0,9.9 -45.2,12.1 -44.4,14.1 -43.5,16.8 -42.7,17.8 -41.8,20.6 -40.9,22.9 -39.9,25.3 -38.9,26.7 -37.7,28.7 -36.5,31.4 -35.2,33.3 -33.8,33.4 -32.4,36.2 -30.8,36.6 -29.2,38.4 -27.6,41.5 -25.9,42.8 -24.3,43.1 -22.6,43.4 -21.0,44.8 -19.1,45.7 -17.1,47.6 -15.0,48.6 -12.9,48.7 -11.0,48.0" fill="none" stroke="rgb(120,84,60)" stroke-width="0.7708721577274233" stroke-linejoin="round" stroke-linecap="round" filter="url(#fuzzy_av_1779093954958_9jvzyi271zl)" opacity="0.9713350554454645"/><polyline points="-49.1,-7.1 -49.5,-6.2 -50.2,-4.3 -50.2,-2.1 -49.5,0.7 -48.6,4.3 -47.7,7.0 -47.0,9.8 -46.5,10.7 -46.1,14.1 -45.9,16.4 -45.5,17.9 -45.0,21.0 -44.2,22.5 -43.1,25.4 -41.9,27.1 -40.5,30.1 -39.0,31.6 -37.4,32.3 -35.8,33.5 -34.2,36.7 -32.5,38.4 -30.8,39.5 -29.1,40.5 -27.4,42.4 -25.7,43.5 -23.9,45.0 -22.1,45.5 -20.1,46.7 -18.1,47.8 -15.9,48.1 -13.7,49.3 -11.5,49.9 -9.2,49.6 -6.7,49.1 -4.4,50.2" fill="none" stroke="rgb(120,84,60)" stroke-width="2.2591174807445475" stroke-linejoin="round" stroke-linecap="round" filter="url(#fuzzy_av_1779093954958_9jvzyi271zl)" opacity="0.8910805017833432"/><polyline points="-47.6,0.7 -47.9,4.0 -48.1,7.5 -48.9,10.5 -49.9,12.4 -50.5,15.4 -50.5,17.0 -50.0,19.3 -49.2,22.2 -48.3,22.6 -47.2,24.4 -45.9,27.0 -44.3,29.6 -42.4,30.4 -40.3,32.1 -38.0,35.2 -35.8,36.4 -33.6,37.0 -31.7,38.8 -30.0,39.9 -28.3,42.7 -26.7,44.0 -25.1,45.0 -23.5,45.5 -21.8,45.8 -20.0,46.3 -17.9,47.6 -15.5,49.3 -12.9,49.6 -10.2,50.1 -7.5,50.4 -4.9,50.0" fill="none" stroke="rgb(120,84,60)" stroke-width="2.1193038021272863" stroke-linejoin="round" stroke-linecap="round" filter="url(#fuzzy_av_1779093954958_9jvzyi271zl)" opacity="0.8677883942558523"/><polyline points="-47.0,4.0 -46.4,6.6 -46.4,10.2 -46.5,12.3 -46.3,14.2 -45.6,17.5 -44.5,19.7 -43.1,22.3 -41.5,22.9 -39.9,25.8 -38.2,28.4 -36.6,28.5 -35.1,30.5 -33.6,32.9 -32.2,35.3 -30.8,35.7 -29.3,38.4 -27.8,38.8 -26.2,41.2 -24.5,41.1 -22.8,43.9 -21.0,44.4 -19.2,45.5 -17.4,45.3 -15.5,47.5 -13.5,48.4 -11.6,48.3 -9.5,49.6 -7.5,49.9 -5.4,49.5 -3.3,49.6 -1.2,50.1 0.9,50.5 3.1,48.6 5.5,50.1 8.1,48.4 11.0,48.1 14.2,48.1" fill="none" stroke="rgb(120,84,60)" stroke-width="0.9285698770722061" stroke-linejoin="round" stroke-linecap="round" filter="url(#fuzzy_av_1779093954958_9jvzyi271zl)" opacity="0.9627400804486834"/><polyline points="-37.6,27.2 -36.7,28.9 -35.6,30.8 -34.2,31.9 -32.7,33.3 -31.3,36.0 -29.8,35.9 -28.3,39.3 -26.8,39.9 -25.2,41.3 -23.6,41.5 -21.9,42.8 -20.1,43.8 -18.3,45.7 -16.5,46.7 -14.7,47.0 -12.8,48.4 -10.9,47.9 -9.0,49.6 -7.1,49.9 -5.2,49.9 -3.1,49.7 -1.1,48.9 1.0,49.8 3.2,49.6 5.5,48.4 8.0,48.4 10.7,49.3 13.4,47.9 15.9,46.8" fill="none" stroke="rgb(120,84,60)" stroke-width="1.4589634413131907" stroke-linejoin="round" stroke-linecap="round" filter="url(#fuzzy_av_1779093954958_9jvzyi271zl)" opacity="0.9723722685734666"/><polyline points="-35.5,29.9 -35.1,30.5 -34.1,31.7 -33.0,34.4 -31.8,35.0 -30.3,37.5 -28.6,38.4 -26.8,40.0 -25.0,41.7 -23.2,42.0 -21.3,44.5 -19.5,45.0 -17.7,45.6 -15.9,45.6 -14.1,46.2 -12.2,48.6 -10.3,48.5 -8.4,47.8 -6.5,49.4 -4.6,48.7 -2.6,49.3 -0.7,49.0 1.3,49.8 3.3,48.8 5.4,50.0 7.5,48.0 9.8,47.9 12.1,48.2 14.4,46.4 16.7,45.8 19.0,45.8 21.2,44.4 23.3,43.3 25.2,42.3 27.3,39.5" fill="none" stroke="rgb(120,84,60)" stroke-width="1.9371277421002944" stroke-linejoin="round" stroke-linecap="round" filter="url(#fuzzy_av_1779093954958_9jvzyi271zl)" opacity="0.7764044837433176"/></g><path d="M -5.95988239307138 20.015820298924424 Q 5.637434672470015 24.383357801440315, -0.1612238603006828 4.92031240059201" fill="none" stroke="#111" stroke-width="2.635710993792003" stroke-linejoin="round" filter="url(#fuzzy_av_1779093954958_9jvzyi271zl)"/><polyline points="5.3,29.8 5.3,29.7 5.3,30.1 5.3,29.9 5.3,30.2 5.3,30.3 5.3,30.9 5.3,30.7 5.1,31.4 5.2,31.0 5.1,31.4 5.0,31.9 5.0,31.9 5.1,31.7 4.8,32.3 4.7,32.4 4.4,33.0 4.2,33.1 4.3,33.1 4.0,33.4 3.9,33.5 4.0,33.5 4.0,33.5 3.3,34.3 3.5,34.0 3.5,34.1 2.8,34.7 2.7,34.8 2.3,35.1 2.4,35.0 1.8,35.4 2.3,35.1 1.4,35.7 1.0,35.9 0.8,36.0 0.6,36.1 0.8,36.0 0.6,36.1 0.5,36.2 -0.6,36.7 -0.2,36.5 -0.5,36.6 -1.2,36.9 -1.0,36.8 -1.7,37.1 -1.5,37.0 -1.7,37.1 -2.9,37.4 -3.1,37.5 -2.6,37.3 -3.9,37.6 -3.8,37.6 -4.0,37.6 -4.7,37.7 -5.1,37.8 -5.5,37.8 -5.1,37.8 -5.1,37.8 -6.4,37.8 -6.5,37.9 -6.3,37.9 -7.2,37.8 -6.6,37.9 -7.9,37.8 -7.3,37.8 -8.1,37.8 -8.5,37.7 -8.6,37.7 -9.1,37.6 -9.1,37.6 -9.1,37.6 -9.9,37.5 -9.7,37.5 -9.9,37.5 -10.5,37.3 -10.7,37.2 -11.4,36.9 -11.2,37.0 -11.8,36.7 -11.8,36.7 -11.6,36.8 -12.0,36.6 -12.5,36.3 -12.3,36.5 -12.8,36.0 -13.0,35.9 -13.3,35.7 -13.4,35.5 -13.3,35.7 -13.2,35.7 -13.4,35.5 -13.6,35.3 -13.8,35.1 -14.0,34.7 -14.2,34.4 -14.2,34.3 -14.2,34.3 -14.3,34.1 -14.3,33.9 -14.4,34.1 -14.5,33.4 -14.5,33.3 -14.5,33.5 -14.5,33.0 -14.5,32.6 -14.6,32.9 -14.6,32.4 -14.6,32.5 -14.5,32.2 -14.3,31.6 -14.4,31.9 -14.3,31.2 -14.2,31.3 -14.1,30.9 -14.1,30.9 -14.1,30.8 -13.9,30.6 -13.6,30.0 -13.5,29.8 -13.4,29.7 -13.1,29.4 -13.4,29.7 -13.1,29.4 -12.9,29.2 -12.7,29.0 -12.3,28.6 -12.1,28.4 -11.7,28.1 -11.7,28.1 -11.9,28.3 -11.8,28.2 -11.4,27.9 -11.1,27.6 -10.8,27.5 -10.8,27.5 -10.2,27.1 -10.3,27.2 -9.8,26.9 -9.3,26.7 -8.8,26.5 -8.7,26.4 -8.9,26.5 -8.1,26.2 -8.4,26.3 -7.9,26.1 -7.3,25.9 -7.6,26.0 -6.4,25.7 -6.5,25.7 -6.3,25.7 -5.3,25.5 -5.1,25.4 -4.8,25.4 -4.8,25.4 -4.1,25.3 -4.1,25.3 -4.4,25.3 -4.2,25.3 -3.3,25.2 -3.0,25.2 -2.7,25.2 -2.4,25.2 -1.9,25.2 -1.8,25.3 -1.2,25.3 -1.1,25.3 -1.1,25.3 -0.6,25.4 -0.8,25.3 -0.2,25.4 -0.2,25.4 0.1,25.5 0.5,25.6 0.5,25.6 0.8,25.7 1.2,25.8 1.9,26.0 2.0,26.1 2.2,26.2 2.2,26.1 2.4,26.3 2.9,26.6 3.0,26.6 3.5,26.9 3.6,27.0 3.8,27.2 3.8,27.2 4.1,27.4 4.1,27.5 4.5,27.9 4.2,27.5 4.7,28.2 4.4,27.9 4.7,28.1 4.7,28.3 4.9,28.5 5.1,29.1 5.0,28.9 5.1,29.0 5.2,29.3" fill="rgb(215,127,140)" stroke="#111" stroke-width="2.4357946426421857" stroke-linejoin="round" filter="url(#fuzzy_av_1779093954958_9jvzyi271zl)"/></g><g class="accessory-svg accessory-briefcase" transform="translate(68.6 10.8) rotate(-2.3) scale(1.078)">
      <rect x="-10" y="-3" width="20" height="14" rx="2.5" fill="#DC2626" stroke="#111827" stroke-width="1.3"/><path d="M-4 -3v-3h8v3" fill="none" stroke="#111827" stroke-width="1.4"/><path d="M-10 2h20" stroke="#991B1B" stroke-width="1.2"/><rect x="-2" y="1" width="4" height="3" rx=".8" fill="#fbbf24" stroke="#111827" stroke-width=".6"/>
    </g><g class="accessory-svg accessory-chart" transform="translate(-10.1 73.8) rotate(11.8) scale(0.845)">
      <rect x="-11" y="-10" width="22" height="20" rx="3" fill="#f8fafc" stroke="#111827" stroke-width="1.2"/><rect x="-7" y="1" width="3" height="6" rx="1" fill="#DC2626"/><rect x="-1.5" y="-4" width="3" height="11" rx="1" fill="#38bdf8"/><rect x="4" y="-8" width="3" height="15" rx="1" fill="#ef4444"/><path d="M-7 5l5-7 5 3 5-8" fill="none" stroke="#991B1B" stroke-width="1.3" stroke-linecap="round" stroke-linejoin="round"/>
    </g><g class="accessory-svg accessory-flame" transform="translate(-71.2 29.3) rotate(5.9) scale(0.866)">
      <path d="M1 11C-7 8-9 1-4-5c1 4 3 4 4-2 3 3 8 8 5 14 3-1 5-4 5-7 4 7 0 13-9 11z" fill="#ef4444" stroke="#111827" stroke-width="1.1" stroke-linejoin="round"/><path d="M1 8c-3-2-3-5 0-8 1 3 4 4 2 8 2-1 3-3 3-5 2 4 0 7-5 5z" fill="#fbbf24" opacity=".95"/>
    </g><g class="accessory-svg accessory-coffee" transform="translate(13.7 -71.5) rotate(-9.1) scale(1.097)">
      <path d="M-8 -1h14v8a6 6 0 0 1-6 6h-2a6 6 0 0 1-6-6z" fill="#f8fafc" stroke="#111827" stroke-width="1.2"/><path d="M6 1h4a3 3 0 0 1 0 6H6" fill="none" stroke="#111827" stroke-width="1.2"/><path d="M-5 -5c2-2-1-3 1-5M0-5c2-2-1-3 1-5M5-5c2-2-1-3 1-5" stroke="#991B1B" stroke-width="1" stroke-linecap="round" opacity=".7"/><ellipse cx="-1" cy="-1" rx="7" ry="2" fill="#DC2626" opacity=".25"/>
    </g></svg>