<svg xmlns="http://www.w3.org/2000/svg" viewBox="-100 -100 200 200" width="400" height="400" role="img" aria-label="棋手 avatar"><defs>
      <filter id="fuzzy_av_1779093954968_ml3qkue3b3" x="-8%" y="-8%" width="116%" height="116%">
        <feTurbulence baseFrequency="0.045" numOctaves="3" type="fractalNoise" result="noise"/>
        <feDisplacementMap in="SourceGraphic" in2="noise" scale="1.6"/>
      </filter>
      <clipPath id="leftEye_av_1779093954968_ml3qkue3b3"><polyline points="-14.1,6.0 -14.0,5.6 -13.9,5.1 -13.8,4.7 -13.7,4.2 -13.5,3.7 -13.3,3.2 -13.1,2.8 -12.9,2.3 -12.6,1.8 -12.4,1.3 -12.1,0.8 -11.8,0.3 -11.5,-0.2 -11.2,-0.6 -10.9,-1.1 -10.5,-1.8 -10.1,-2.4 -9.7,-3.0 -9.2,-3.6 -8.8,-4.2 -8.4,-4.8 -7.9,-5.3 -7.5,-5.8 -7.0,-6.3 -6.6,-6.7 -6.1,-7.1 -5.7,-7.5 -5.3,-7.9 -4.8,-8.2 -4.4,-8.5 -3.9,-8.7 -3.5,-9.0 -3.1,-9.1 -2.6,-9.3 -2.2,-9.4 -1.7,-9.5 -1.3,-9.5 -0.9,-9.5 -0.5,-9.5 -0.1,-9.5 0.4,-9.4 0.8,-9.3 1.2,-9.1 1.6,-9.0 2.0,-8.8 2.3,-8.5 2.7,-8.3 3.1,-8.0 3.5,-7.7 3.8,-7.4 4.2,-7.1 4.5,-6.7 4.9,-6.4 5.2,-6.0 5.5,-5.6 5.8,-5.2 6.1,-4.8 6.4,-4.4 6.7,-4.0 7.0,-3.6 7.2,-3.2 7.5,-2.8 7.7,-2.4 7.9,-2.0 8.1,-1.5 8.3,-1.1 8.5,-0.7 8.7,-0.3 8.9,0.0 9.0,0.4 9.2,0.8 9.3,1.2 9.4,1.6 9.5,1.9 9.6,2.3 9.7,2.6 9.8,3.0 9.8,3.3 9.9,3.6 13.9,11.7 13.6,11.6 13.3,11.6 13.0,11.5 12.8,11.4 12.5,11.4 12.2,11.3 11.9,11.2 11.6,11.1 11.3,11.0 10.9,11.0 10.6,10.9 10.3,10.8 10.0,10.7 9.6,10.6 9.3,10.6 9.0,10.5 8.6,10.4 8.3,10.3 7.9,10.2 7.5,10.2 7.2,10.1 6.8,10.0 6.4,9.9 6.0,9.9 5.7,9.8 5.3,9.7 4.9,9.7 4.5,9.6 4.1,9.6 3.7,9.6 3.3,9.5 2.9,9.5 2.5,9.5 2.1,9.5 1.7,9.4 1.3,9.4 0.9,9.4 0.5,9.5 0.1,9.5 -0.4,9.5 -0.8,9.5 -1.2,9.6 -1.6,9.6 -2.0,9.6 -2.4,9.7 -2.9,9.7 -3.3,9.8 -3.7,9.9 -4.2,9.9 -4.6,10.0 -5.0,10.1 -5.5,10.2 -5.9,10.3 -6.4,10.3 -6.8,10.4 -7.3,10.5 -7.7,10.6 -8.2,10.7 -8.6,10.8 -9.1,10.8 -9.5,10.9 -10.0,11.0 -10.5,11.0 -10.9,11.1 -11.3,11.1 -11.6,11.1 -11.9,11.1 -12.3,11.1 -12.6,11.1 -12.9,11.1 -13.2,11.0 -13.5,11.0 -13.8,10.9 -14.0,10.8 -14.3,10.8 -14.5,10.7 -14.7,10.5 -14.9,10.4 -15.1,10.2"/></clipPath>
      <clipPath id="rightEye_av_1779093954968_ml3qkue3b3"><polyline points="-10.4,3.7 -10.3,3.3 -10.2,2.9 -10.1,2.5 -9.9,2.1 -9.8,1.7 -9.6,1.2 -9.4,0.8 -9.2,0.4 -9.0,-0.1 -8.8,-0.5 -8.5,-0.9 -8.3,-1.3 -8.1,-1.7 -7.8,-2.1 -7.5,-2.5 -7.2,-3.1 -6.8,-3.7 -6.5,-4.2 -6.1,-4.7 -5.7,-5.2 -5.4,-5.7 -5.0,-6.1 -4.6,-6.5 -4.3,-6.8 -3.9,-7.2 -3.6,-7.5 -3.2,-7.7 -2.9,-7.9 -2.5,-8.1 -2.2,-8.3 -1.8,-8.4 -1.4,-8.5 -1.1,-8.5 -0.7,-8.6 -0.4,-8.5 -0.0,-8.5 0.4,-8.4 0.7,-8.3 1.1,-8.2 1.4,-8.1 1.8,-7.9 2.2,-7.7 2.6,-7.5 2.9,-7.2 3.3,-6.9 3.7,-6.7 4.0,-6.4 4.4,-6.0 4.8,-5.7 5.2,-5.4 5.6,-5.0 5.9,-4.7 6.3,-4.3 6.7,-3.9 7.0,-3.5 7.4,-3.2 7.8,-2.8 8.1,-2.4 8.5,-2.0 8.8,-1.6 9.2,-1.2 9.5,-0.9 9.8,-0.5 10.1,-0.1 10.5,0.3 10.8,0.6 11.0,1.0 11.3,1.3 11.6,1.7 11.9,2.0 12.1,2.4 12.4,2.7 12.6,3.0 12.9,3.3 13.1,3.6 13.3,3.9 13.5,4.2 13.7,4.5 13.9,4.8 15.7,9.6 15.4,9.6 15.0,9.5 14.6,9.5 14.2,9.4 13.8,9.3 13.4,9.3 13.0,9.2 12.6,9.2 12.2,9.1 11.8,9.1 11.3,9.0 10.9,8.9 10.5,8.9 10.0,8.8 9.6,8.8 9.1,8.7 8.7,8.7 8.2,8.6 7.7,8.5 7.2,8.5 6.8,8.4 6.3,8.4 5.8,8.3 5.3,8.3 4.9,8.2 4.4,8.2 3.9,8.2 3.4,8.1 3.0,8.1 2.5,8.1 2.0,8.0 1.6,8.0 1.1,8.0 0.7,8.0 0.3,8.0 -0.2,8.0 -0.6,8.0 -1.0,8.0 -1.4,8.1 -1.9,8.1 -2.3,8.1 -2.7,8.1 -3.0,8.2 -3.4,8.2 -3.8,8.3 -4.2,8.3 -4.5,8.4 -4.9,8.4 -5.2,8.5 -5.6,8.6 -5.9,8.6 -6.3,8.7 -6.6,8.8 -6.9,8.9 -7.3,8.9 -7.6,9.0 -7.9,9.1 -8.2,9.1 -8.5,9.2 -8.9,9.3 -9.2,9.3 -9.5,9.4 -9.8,9.4 -10.1,9.5 -10.3,9.5 -10.6,9.5 -10.8,9.6 -11.0,9.6 -11.2,9.6 -11.5,9.6 -11.7,9.6 -11.8,9.5 -12.0,9.5 -12.2,9.5 -12.4,9.4 -12.5,9.4 -12.7,9.3 -12.8,9.2 -12.9,9.1"/></clipPath>
      <linearGradient id="rainbow_av_1779093954968_ml3qkue3b3" x1="0%" y1="0%" x2="100%" y2="0%">
        <stop offset="0%" stop-color="#2563EB"/><stop offset="33%" stop-color="#22D3EE"/><stop offset="100%" stop-color="#1E40AF"/>
      </linearGradient>
      <linearGradient id="splitHair_av_1779093954968_ml3qkue3b3" x1="0%" y1="0%" x2="100%" y2="0%">
        <stop offset="49%" stop-color="#111827"/><stop offset="51%" stop-color="#F9FAFB"/>
      </linearGradient>
      <radialGradient id="halo_av_1779093954968_ml3qkue3b3"><stop offset="0%" stop-color="#2563EB" stop-opacity=".45"/><stop offset="100%" stop-color="#2563EB" stop-opacity="0"/></radialGradient>
    </defs><rect x="-100" y="-100" width="200" height="200" fill="#E6E6FA"/><g opacity="1"><polyline id="faceContour" class="face-shape" points="55.8,-5.6 55.6,-5.4 55.8,-4.4 55.5,-3.8 55.8,0.9 55.4,2.7 55.5,1.7 55.2,5.0 55.4,3.6 55.0,6.3 54.9,7.7 54.8,8.2 54.5,10.1 54.2,10.8 53.7,14.0 53.9,13.2 53.4,14.4 51.9,18.7 52.4,17.7 52.0,19.5 50.9,22.1 51.0,21.2 50.1,23.3 50.0,23.7 48.6,26.6 48.3,27.4 48.6,26.9 46.5,30.2 46.8,29.7 45.9,31.3 45.7,31.8 44.2,33.8 44.0,34.0 43.0,35.6 40.2,39.0 40.4,38.6 41.4,37.5 40.1,39.1 39.7,39.6 37.1,42.1 36.1,43.1 33.9,44.9 32.9,45.7 33.4,45.0 32.4,46.0 29.8,48.1 29.7,48.2 27.6,49.3 26.4,50.2 26.9,49.8 27.3,49.7 23.2,51.6 23.1,52.1 22.0,52.6 20.1,53.2 18.8,53.8 19.1,53.7 16.5,54.6 14.6,55.1 12.8,55.7 12.7,56.0 11.7,56.1 12.1,56.0 8.7,56.8 9.4,56.7 5.3,57.2 4.2,57.4 5.4,57.4 2.2,57.7 1.1,57.9 -1.2,57.7 -0.5,57.9 -3.2,57.9 -5.6,57.7 -5.9,57.9 -6.7,57.8 -6.1,57.7 -9.3,57.4 -12.0,56.9 -12.3,56.9 -14.6,56.4 -14.7,56.2 -14.6,56.3 -16.5,55.9 -19.0,55.0 -19.8,54.9 -21.7,54.1 -21.6,54.3 -23.2,53.4 -23.4,53.5 -24.7,52.6 -28.3,50.8 -27.4,51.2 -30.3,49.6 -29.6,50.0 -30.6,49.4 -33.7,47.2 -32.5,48.0 -34.5,46.6 -34.8,46.2 -36.8,44.5 -36.2,45.2 -39.4,42.2 -39.5,42.0 -40.5,40.8 -40.2,40.8 -41.9,39.4 -41.7,39.5 -42.4,38.5 -43.5,36.8 -45.2,34.7 -44.8,35.2 -46.8,31.8 -47.0,32.0 -48.1,30.3 -48.9,28.5 -48.4,28.8 -49.6,26.6 -51.0,24.0 -50.4,24.8 -51.8,21.9 -51.9,21.2 -52.0,20.9 -53.1,16.5 -52.8,17.6 -53.9,15.2 -53.5,16.0 -54.1,12.5 -53.9,13.5 -54.9,8.0 -55.2,8.1 -55.1,7.7 -55.5,3.3 -55.5,2.7 -55.3,3.9 -55.6,3.4 -55.9,-1.9 -55.7,-3.1 -55.7,-2.1 -55.8,-4.2 -55.8,-6.4 -55.8,-6.7 -55.4,-9.3 -55.1,-10.8 -55.3,-12.4 -55.2,-12.5 -55.1,-12.7 -54.8,-14.9 -54.1,-19.2 -53.9,-20.3 -53.8,-20.9 -53.5,-22.1 -52.8,-24.4 -53.2,-23.7 -52.4,-26.3 -52.0,-26.8 -51.5,-28.8 -51.5,-29.1 -49.9,-33.0 -50.3,-31.9 -49.1,-35.0 -49.4,-34.2 -48.6,-36.5 -46.8,-39.5 -45.5,-41.8 -45.4,-41.9 -46.3,-41.0 -44.2,-44.1 -44.4,-44.1 -42.1,-47.3 -41.2,-48.2 -41.0,-48.5 -40.7,-49.1 -39.0,-51.2 -39.8,-50.4 -38.2,-52.1 -38.6,-52.0 -36.3,-54.5 -35.5,-55.1 -34.1,-56.4 -33.0,-57.4 -32.0,-58.2 -30.6,-59.4 -31.3,-59.0 -28.4,-61.2 -28.9,-60.9 -27.8,-61.6 -27.5,-61.8 -24.3,-63.8 -25.0,-63.4 -22.3,-64.8 -21.4,-65.3 -22.4,-64.8 -20.5,-65.8 -19.6,-66.2 -18.6,-66.4 -14.7,-68.0 -16.2,-67.4 -13.4,-68.2 -13.5,-68.1 -10.8,-69.0 -9.4,-69.1 -8.5,-69.3 -7.1,-69.4 -6.7,-69.7 -7.7,-69.4 -4.2,-69.7 -4.4,-69.7 -3.0,-69.9 -0.9,-69.8 1.7,-69.6 0.3,-69.7 0.8,-69.8 3.6,-69.6 5.4,-69.3 6.2,-69.1 6.0,-69.1 7.7,-68.8 11.3,-67.9 10.9,-68.0 13.2,-67.5 12.1,-67.6 14.3,-67.0 16.3,-66.1 17.1,-65.8 17.5,-65.9 19.4,-64.8 19.6,-64.6 22.3,-63.2 23.8,-62.4 23.5,-62.3 26.0,-61.1 24.4,-62.0 27.1,-60.3 26.5,-60.3 29.2,-58.4 29.5,-58.2 31.2,-56.8 31.0,-57.0 31.4,-56.7 34.4,-54.1 35.6,-53.0 34.7,-53.9 36.4,-51.8 37.9,-50.0 37.2,-51.1 39.8,-48.0 40.0,-48.0 41.0,-46.6 41.7,-45.7 42.9,-43.6 43.4,-43.2 43.0,-43.8 44.7,-41.1 45.6,-39.7 47.0,-37.7 47.5,-36.3 47.3,-37.0 47.4,-36.7 48.8,-33.8 49.5,-32.0 49.2,-32.4 49.8,-31.4 51.1,-28.2 51.1,-28.0 52.0,-26.1 51.7,-26.5 52.8,-23.5 52.3,-24.8 53.8,-20.1 54.1,-18.7 54.2,-17.8 54.5,-16.2 54.5,-15.3 54.6,-16.0 55.0,-12.0 55.0,-12.4 55.4,-10.2 55.5,-9.2 55.4,-8.4 55.8,-5.6 55.6,-5.4" fill="#ffc9a9" stroke="#111" stroke-width="2.2" stroke-linejoin="round" filter="url(#fuzzy_av_1779093954968_ml3qkue3b3)"/><g id="leftEye" transform="translate(-36.6 -30.9)"><polyline points="-14.1,6.0 -14.0,5.6 -13.9,5.1 -13.8,4.7 -13.7,4.2 -13.5,3.7 -13.3,3.2 -13.1,2.8 -12.9,2.3 -12.6,1.8 -12.4,1.3 -12.1,0.8 -11.8,0.3 -11.5,-0.2 -11.2,-0.6 -10.9,-1.1 -10.5,-1.8 -10.1,-2.4 -9.7,-3.0 -9.2,-3.6 -8.8,-4.2 -8.4,-4.8 -7.9,-5.3 -7.5,-5.8 -7.0,-6.3 -6.6,-6.7 -6.1,-7.1 -5.7,-7.5 -5.3,-7.9 -4.8,-8.2 -4.4,-8.5 -3.9,-8.7 -3.5,-9.0 -3.1,-9.1 -2.6,-9.3 -2.2,-9.4 -1.7,-9.5 -1.3,-9.5 -0.9,-9.5 -0.5,-9.5 -0.1,-9.5 0.4,-9.4 0.8,-9.3 1.2,-9.1 1.6,-9.0 2.0,-8.8 2.3,-8.5 2.7,-8.3 3.1,-8.0 3.5,-7.7 3.8,-7.4 4.2,-7.1 4.5,-6.7 4.9,-6.4 5.2,-6.0 5.5,-5.6 5.8,-5.2 6.1,-4.8 6.4,-4.4 6.7,-4.0 7.0,-3.6 7.2,-3.2 7.5,-2.8 7.7,-2.4 7.9,-2.0 8.1,-1.5 8.3,-1.1 8.5,-0.7 8.7,-0.3 8.9,0.0 9.0,0.4 9.2,0.8 9.3,1.2 9.4,1.6 9.5,1.9 9.6,2.3 9.7,2.6 9.8,3.0 9.8,3.3 9.9,3.6 13.9,11.7 13.6,11.6 13.3,11.6 13.0,11.5 12.8,11.4 12.5,11.4 12.2,11.3 11.9,11.2 11.6,11.1 11.3,11.0 10.9,11.0 10.6,10.9 10.3,10.8 10.0,10.7 9.6,10.6 9.3,10.6 9.0,10.5 8.6,10.4 8.3,10.3 7.9,10.2 7.5,10.2 7.2,10.1 6.8,10.0 6.4,9.9 6.0,9.9 5.7,9.8 5.3,9.7 4.9,9.7 4.5,9.6 4.1,9.6 3.7,9.6 3.3,9.5 2.9,9.5 2.5,9.5 2.1,9.5 1.7,9.4 1.3,9.4 0.9,9.4 0.5,9.5 0.1,9.5 -0.4,9.5 -0.8,9.5 -1.2,9.6 -1.6,9.6 -2.0,9.6 -2.4,9.7 -2.9,9.7 -3.3,9.8 -3.7,9.9 -4.2,9.9 -4.6,10.0 -5.0,10.1 -5.5,10.2 -5.9,10.3 -6.4,10.3 -6.8,10.4 -7.3,10.5 -7.7,10.6 -8.2,10.7 -8.6,10.8 -9.1,10.8 -9.5,10.9 -10.0,11.0 -10.5,11.0 -10.9,11.1 -11.3,11.1 -11.6,11.1 -11.9,11.1 -12.3,11.1 -12.6,11.1 -12.9,11.1 -13.2,11.0 -13.5,11.0 -13.8,10.9 -14.0,10.8 -14.3,10.8 -14.5,10.7 -14.7,10.5 -14.9,10.4 -15.1,10.2" fill="#fff" stroke="#fff" stroke-width="0" stroke-linejoin="round" filter="url(#fuzzy_av_1779093954968_ml3qkue3b3)"/><polyline points="13.0,8.7 13.3,8.6 13.5,8.5 13.7,8.3 13.9,8.0 14.0,7.8 14.1,7.4 14.1,7.1 14.2,6.8 14.1,6.4 -14.1,6.0 -14.0,5.6 -13.9,5.1 -13.8,4.7 -13.7,4.2 -13.5,3.7 -13.3,3.2 -13.1,2.8 -12.9,2.3 -12.6,1.8 -12.4,1.3 -12.1,0.8 -11.8,0.3 -11.5,-0.2 -11.2,-0.6 -10.9,-1.1 -10.5,-1.8 -10.1,-2.4 -9.7,-3.0 -9.2,-3.6 -8.8,-4.2 -8.4,-4.8 -7.9,-5.3 -7.5,-5.8 -7.0,-6.3 -6.6,-6.7 -6.1,-7.1 -5.7,-7.5 -5.3,-7.9 -4.8,-8.2 -4.4,-8.5 -3.9,-8.7 -3.5,-9.0 -3.1,-9.1 -2.6,-9.3 -2.2,-9.4 -1.7,-9.5 -1.3,-9.5 -0.9,-9.5 -0.5,-9.5 -0.1,-9.5 0.4,-9.4 0.8,-9.3 1.2,-9.1 1.6,-9.0 2.0,-8.8 2.3,-8.5 2.7,-8.3 3.1,-8.0 3.5,-7.7 3.8,-7.4 4.2,-7.1 4.5,-6.7 4.9,-6.4 5.2,-6.0 5.5,-5.6 5.8,-5.2 6.1,-4.8 6.4,-4.4 6.7,-4.0 7.0,-3.6 7.2,-3.2 7.5,-2.8 7.7,-2.4 7.9,-2.0 8.1,-1.5 8.3,-1.1 8.5,-0.7 8.7,-0.3 8.9,0.0 9.0,0.4 9.2,0.8 9.3,1.2 9.4,1.6 9.5,1.9 9.6,2.3 9.7,2.6 9.8,3.0 9.8,3.3 9.9,3.6 -9.9,4.0 -9.9,4.3 -10.0,4.6 -10.0,4.8 -9.9,5.1 -9.9,5.4 -9.9,5.6 -9.8,5.9 -9.7,6.1 -9.7,6.3" fill="none" stroke="#111" stroke-width="2.989768592681787" stroke-linejoin="round" stroke-linecap="round" filter="url(#fuzzy_av_1779093954968_ml3qkue3b3)"/><polyline points="15.5,7.4 15.6,7.8 15.7,8.2 15.7,8.5 15.7,8.9 15.7,9.1 15.6,9.4 15.5,9.7 15.4,9.9 15.3,10.1 -15.1,10.2 -14.9,10.4 -14.7,10.5 -14.5,10.7 -14.3,10.8 -14.0,10.8 -13.8,10.9 -13.5,11.0 -13.2,11.0 -12.9,11.1 -12.6,11.1 -12.3,11.1 -11.9,11.1 -11.6,11.1 -11.3,11.1 -10.9,11.1 -10.5,11.0 -10.0,11.0 -9.5,10.9 -9.1,10.8 -8.6,10.8 -8.2,10.7 -7.7,10.6 -7.3,10.5 -6.8,10.4 -6.4,10.3 -5.9,10.3 -5.5,10.2 -5.0,10.1 -4.6,10.0 -4.2,9.9 -3.7,9.9 -3.3,9.8 -2.9,9.7 -2.4,9.7 -2.0,9.6 -1.6,9.6 -1.2,9.6 -0.8,9.5 -0.4,9.5 0.1,9.5 0.5,9.5 0.9,9.4 1.3,9.4 1.7,9.4 2.1,9.5 2.5,9.5 2.9,9.5 3.3,9.5 3.7,9.6 4.1,9.6 4.5,9.6 4.9,9.7 5.3,9.7 5.7,9.8 6.0,9.9 6.4,9.9 6.8,10.0 7.2,10.1 7.5,10.2 7.9,10.2 8.3,10.3 8.6,10.4 9.0,10.5 9.3,10.6 9.6,10.6 10.0,10.7 10.3,10.8 10.6,10.9 10.9,11.0 11.3,11.0 11.6,11.1 11.9,11.2 12.2,11.3 12.5,11.4 12.8,11.4 13.0,11.5 13.3,11.6 13.6,11.6 13.9,11.7 -14.1,11.8 -14.4,11.8 -14.6,11.9 -14.8,12.0 -15.1,12.0 -15.3,12.1 -15.5,12.1 -15.7,12.2 -16.0,12.2 -16.2,12.3" fill="none" stroke="#111" stroke-width="2.0414540629686386" stroke-linejoin="round" stroke-linecap="round" filter="url(#fuzzy_av_1779093954968_ml3qkue3b3)"/><circle r="3.3876918599543204" cx="2.5229584177720104" cy="-0.15610651866715264" stroke="#111" fill="none" stroke-width="1.2107871399897254" filter="url(#fuzzy_av_1779093954968_ml3qkue3b3)" clip-path="url(#leftEye_av_1779093954968_ml3qkue3b3)"/><circle r="2.647294607211642" cx="1.5437606273448203" cy="1.7440326678641447" stroke="#111" fill="none" stroke-width="1.3584640788607194" filter="url(#fuzzy_av_1779093954968_ml3qkue3b3)" clip-path="url(#leftEye_av_1779093954968_ml3qkue3b3)"/><circle r="2.4316884414145377" cx="-1.1089960893640636" cy="0.15141245606590537" stroke="#111" fill="none" stroke-width="1.0259862267068627" filter="url(#fuzzy_av_1779093954968_ml3qkue3b3)" clip-path="url(#leftEye_av_1779093954968_ml3qkue3b3)"/><circle r="3.4576423063984105" cx="1.839613228976042" cy="0.8979675689256246" stroke="#111" fill="none" stroke-width="0.8276444716806122" filter="url(#fuzzy_av_1779093954968_ml3qkue3b3)" clip-path="url(#leftEye_av_1779093954968_ml3qkue3b3)"/><circle r="2.6967178152935274" cx="-1.5367610114850567" cy="-0.13480288286970055" stroke="#111" fill="none" stroke-width="0.9600851001635645" filter="url(#fuzzy_av_1779093954968_ml3qkue3b3)" clip-path="url(#leftEye_av_1779093954968_ml3qkue3b3)"/><circle r="2.598115456824129" cx="2.0031859631779914" cy="1.8879359787789562" stroke="#111" fill="none" stroke-width="1.2501282818492194" filter="url(#fuzzy_av_1779093954968_ml3qkue3b3)" clip-path="url(#leftEye_av_1779093954968_ml3qkue3b3)"/><circle r="2.8148557890221637" cx="2.2637682397359558" cy="2.1907020437028946" stroke="#111" fill="none" stroke-width="1.3483433511447487" filter="url(#fuzzy_av_1779093954968_ml3qkue3b3)" clip-path="url(#leftEye_av_1779093954968_ml3qkue3b3)"/><circle r="4.659195700368917" cx="-1.1364052290570084" cy="-0.7067573418595372" stroke="#111" fill="none" stroke-width="1.2581722203886572" filter="url(#fuzzy_av_1779093954968_ml3qkue3b3)" clip-path="url(#leftEye_av_1779093954968_ml3qkue3b3)"/><circle r="2.539912745391924" cx="-1.4763878166118478" cy="-0.21731047109751334" stroke="#111" fill="none" stroke-width="1.2665601687563621" filter="url(#fuzzy_av_1779093954968_ml3qkue3b3)" clip-path="url(#leftEye_av_1779093954968_ml3qkue3b3)"/><circle r="4.682631621396905" cx="-1.679125909530145" cy="2.144577736649999" stroke="#111" fill="none" stroke-width="1.3625175488060157" filter="url(#fuzzy_av_1779093954968_ml3qkue3b3)" clip-path="url(#leftEye_av_1779093954968_ml3qkue3b3)"/></g><g id="rightEye" transform="translate(33.4 -32.2)"><polyline points="-10.4,3.7 -10.3,3.3 -10.2,2.9 -10.1,2.5 -9.9,2.1 -9.8,1.7 -9.6,1.2 -9.4,0.8 -9.2,0.4 -9.0,-0.1 -8.8,-0.5 -8.5,-0.9 -8.3,-1.3 -8.1,-1.7 -7.8,-2.1 -7.5,-2.5 -7.2,-3.1 -6.8,-3.7 -6.5,-4.2 -6.1,-4.7 -5.7,-5.2 -5.4,-5.7 -5.0,-6.1 -4.6,-6.5 -4.3,-6.8 -3.9,-7.2 -3.6,-7.5 -3.2,-7.7 -2.9,-7.9 -2.5,-8.1 -2.2,-8.3 -1.8,-8.4 -1.4,-8.5 -1.1,-8.5 -0.7,-8.6 -0.4,-8.5 -0.0,-8.5 0.4,-8.4 0.7,-8.3 1.1,-8.2 1.4,-8.1 1.8,-7.9 2.2,-7.7 2.6,-7.5 2.9,-7.2 3.3,-6.9 3.7,-6.7 4.0,-6.4 4.4,-6.0 4.8,-5.7 5.2,-5.4 5.6,-5.0 5.9,-4.7 6.3,-4.3 6.7,-3.9 7.0,-3.5 7.4,-3.2 7.8,-2.8 8.1,-2.4 8.5,-2.0 8.8,-1.6 9.2,-1.2 9.5,-0.9 9.8,-0.5 10.1,-0.1 10.5,0.3 10.8,0.6 11.0,1.0 11.3,1.3 11.6,1.7 11.9,2.0 12.1,2.4 12.4,2.7 12.6,3.0 12.9,3.3 13.1,3.6 13.3,3.9 13.5,4.2 13.7,4.5 13.9,4.8 15.7,9.6 15.4,9.6 15.0,9.5 14.6,9.5 14.2,9.4 13.8,9.3 13.4,9.3 13.0,9.2 12.6,9.2 12.2,9.1 11.8,9.1 11.3,9.0 10.9,8.9 10.5,8.9 10.0,8.8 9.6,8.8 9.1,8.7 8.7,8.7 8.2,8.6 7.7,8.5 7.2,8.5 6.8,8.4 6.3,8.4 5.8,8.3 5.3,8.3 4.9,8.2 4.4,8.2 3.9,8.2 3.4,8.1 3.0,8.1 2.5,8.1 2.0,8.0 1.6,8.0 1.1,8.0 0.7,8.0 0.3,8.0 -0.2,8.0 -0.6,8.0 -1.0,8.0 -1.4,8.1 -1.9,8.1 -2.3,8.1 -2.7,8.1 -3.0,8.2 -3.4,8.2 -3.8,8.3 -4.2,8.3 -4.5,8.4 -4.9,8.4 -5.2,8.5 -5.6,8.6 -5.9,8.6 -6.3,8.7 -6.6,8.8 -6.9,8.9 -7.3,8.9 -7.6,9.0 -7.9,9.1 -8.2,9.1 -8.5,9.2 -8.9,9.3 -9.2,9.3 -9.5,9.4 -9.8,9.4 -10.1,9.5 -10.3,9.5 -10.6,9.5 -10.8,9.6 -11.0,9.6 -11.2,9.6 -11.5,9.6 -11.7,9.6 -11.8,9.5 -12.0,9.5 -12.2,9.5 -12.4,9.4 -12.5,9.4 -12.7,9.3 -12.8,9.2 -12.9,9.1" fill="#fff" stroke="#fff" stroke-width="0" stroke-linejoin="round" filter="url(#fuzzy_av_1779093954968_ml3qkue3b3)"/><polyline points="-9.7,6.4 -10.0,6.3 -10.1,6.1 -10.3,5.9 -10.4,5.7 -10.5,5.4 -10.5,5.1 -10.5,4.8 -10.5,4.5 -10.4,4.1 -10.4,3.7 -10.3,3.3 -10.2,2.9 -10.1,2.5 -9.9,2.1 -9.8,1.7 -9.6,1.2 -9.4,0.8 -9.2,0.4 -9.0,-0.1 -8.8,-0.5 -8.5,-0.9 -8.3,-1.3 -8.1,-1.7 -7.8,-2.1 -7.5,-2.5 -7.2,-3.1 -6.8,-3.7 -6.5,-4.2 -6.1,-4.7 -5.7,-5.2 -5.4,-5.7 -5.0,-6.1 -4.6,-6.5 -4.3,-6.8 -3.9,-7.2 -3.6,-7.5 -3.2,-7.7 -2.9,-7.9 -2.5,-8.1 -2.2,-8.3 -1.8,-8.4 -1.4,-8.5 -1.1,-8.5 -0.7,-8.6 -0.4,-8.5 -0.0,-8.5 0.4,-8.4 0.7,-8.3 1.1,-8.2 1.4,-8.1 1.8,-7.9 2.2,-7.7 2.6,-7.5 2.9,-7.2 3.3,-6.9 3.7,-6.7 4.0,-6.4 4.4,-6.0 4.8,-5.7 5.2,-5.4 5.6,-5.0 5.9,-4.7 6.3,-4.3 6.7,-3.9 7.0,-3.5 7.4,-3.2 7.8,-2.8 8.1,-2.4 8.5,-2.0 8.8,-1.6 9.2,-1.2 9.5,-0.9 9.8,-0.5 10.1,-0.1 10.5,0.3 10.8,0.6 11.0,1.0 11.3,1.3 11.6,1.7 11.9,2.0 12.1,2.4 12.4,2.7 12.6,3.0 12.9,3.3 13.1,3.6 13.3,3.9 13.5,4.2 13.7,4.5 13.9,4.8 14.0,5.1 14.2,5.3 14.3,5.6 14.5,5.9 14.6,6.1 14.7,6.3 14.8,6.5 14.9,6.8 15.0,7.0 15.0,7.2" fill="none" stroke="#111" stroke-width="3.0471487321208794" stroke-linejoin="round" stroke-linecap="round" filter="url(#fuzzy_av_1779093954968_ml3qkue3b3)"/><polyline points="-13.1,7.2 -13.2,7.5 -13.3,7.7 -13.3,8.0 -13.3,8.2 -13.3,8.4 -13.2,8.6 -13.2,8.7 -13.1,8.9 -13.0,9.0 -12.9,9.1 -12.8,9.2 -12.7,9.3 -12.5,9.4 -12.4,9.4 -12.2,9.5 -12.0,9.5 -11.8,9.5 -11.7,9.6 -11.5,9.6 -11.2,9.6 -11.0,9.6 -10.8,9.6 -10.6,9.5 -10.3,9.5 -10.1,9.5 -9.8,9.4 -9.5,9.4 -9.2,9.3 -8.9,9.3 -8.5,9.2 -8.2,9.1 -7.9,9.1 -7.6,9.0 -7.3,8.9 -6.9,8.9 -6.6,8.8 -6.3,8.7 -5.9,8.6 -5.6,8.6 -5.2,8.5 -4.9,8.4 -4.5,8.4 -4.2,8.3 -3.8,8.3 -3.4,8.2 -3.0,8.2 -2.7,8.1 -2.3,8.1 -1.9,8.1 -1.4,8.1 -1.0,8.0 -0.6,8.0 -0.2,8.0 0.3,8.0 0.7,8.0 1.1,8.0 1.6,8.0 2.0,8.0 2.5,8.1 3.0,8.1 3.4,8.1 3.9,8.2 4.4,8.2 4.9,8.2 5.3,8.3 5.8,8.3 6.3,8.4 6.8,8.4 7.2,8.5 7.7,8.5 8.2,8.6 8.7,8.7 9.1,8.7 9.6,8.8 10.0,8.8 10.5,8.9 10.9,8.9 11.3,9.0 11.8,9.1 12.2,9.1 12.6,9.2 13.0,9.2 13.4,9.3 13.8,9.3 14.2,9.4 14.6,9.5 15.0,9.5 15.4,9.6 15.7,9.6 16.1,9.7 16.4,9.7 16.8,9.7 17.1,9.8 17.4,9.8 17.7,9.9 18.1,9.9 18.3,9.9 18.6,10.0 18.9,10.0" fill="none" stroke="#111" stroke-width="2.476567596187361" stroke-linejoin="round" stroke-linecap="round" filter="url(#fuzzy_av_1779093954968_ml3qkue3b3)"/><circle r="2.3054125677222723" cx="0.7462537983052084" cy="-1.1879452348898214" stroke="#111" fill="none" stroke-width="1.0291509510218737" filter="url(#fuzzy_av_1779093954968_ml3qkue3b3)" clip-path="url(#rightEye_av_1779093954968_ml3qkue3b3)"/><circle r="3.2380298015745748" cx="3.7959074248693607" cy="-1.9501206344847337" stroke="#111" fill="none" stroke-width="0.9799879687668827" filter="url(#fuzzy_av_1779093954968_ml3qkue3b3)" clip-path="url(#rightEye_av_1779093954968_ml3qkue3b3)"/><circle r="4.277069923361659" cx="1.6631505475218336" cy="-4.278187876112563" stroke="#111" fill="none" stroke-width="1.3502420595691054" filter="url(#fuzzy_av_1779093954968_ml3qkue3b3)" clip-path="url(#rightEye_av_1779093954968_ml3qkue3b3)"/><circle r="2.371672906058799" cx="4.284525492028831" cy="-2.895711934046969" stroke="#111" fill="none" stroke-width="1.1859233998698668" filter="url(#fuzzy_av_1779093954968_ml3qkue3b3)" clip-path="url(#rightEye_av_1779093954968_ml3qkue3b3)"/><circle r="3.875728238684653" cx="3.9069883873411513" cy="-2.618761434505652" stroke="#111" fill="none" stroke-width="1.2454921832951573" filter="url(#fuzzy_av_1779093954968_ml3qkue3b3)" clip-path="url(#rightEye_av_1779093954968_ml3qkue3b3)"/><circle r="4.32193529662505" cx="3.9143776542055706" cy="-4.473248552827889" stroke="#111" fill="none" stroke-width="0.8800407527914457" filter="url(#fuzzy_av_1779093954968_ml3qkue3b3)" clip-path="url(#rightEye_av_1779093954968_ml3qkue3b3)"/><circle r="2.485048712528139" cx="1.3085736533680028" cy="-4.408851470050001" stroke="#111" fill="none" stroke-width="1.0254579231541814" filter="url(#fuzzy_av_1779093954968_ml3qkue3b3)" clip-path="url(#rightEye_av_1779093954968_ml3qkue3b3)"/><circle r="3.2067551845262003" cx="2.2842821541882525" cy="-0.4251060848159631" stroke="#111" fill="none" stroke-width="1.2479133678391232" filter="url(#fuzzy_av_1779093954968_ml3qkue3b3)" clip-path="url(#rightEye_av_1779093954968_ml3qkue3b3)"/><circle r="3.7194106568876864" cx="2.2451844465146835" cy="-3.2986448239502746" stroke="#111" fill="none" stroke-width="1.0679544429364503" filter="url(#fuzzy_av_1779093954968_ml3qkue3b3)" clip-path="url(#rightEye_av_1779093954968_ml3qkue3b3)"/><circle r="4.1450173045831775" cx="0.8434332753518528" cy="-2.2231131377086024" stroke="#111" fill="none" stroke-width="0.9084190766830542" filter="url(#fuzzy_av_1779093954968_ml3qkue3b3)" clip-path="url(#rightEye_av_1779093954968_ml3qkue3b3)"/></g><g id="hairs"><polyline points="13.2,-68.9 13.3,-68.7 14.4,-67.0 15.9,-68.1 17.3,-66.7 18.6,-65.4 20.0,-64.3 21.2,-63.7 22.4,-64.3 23.5,-63.8 24.3,-63.4 24.9,-63.2 25.2,-62.6 25.4,-63.2 25.3,-61.7 24.9,-61.9 24.1,-63.4 22.9,-63.3 21.2,-65.3 19.2,-66.0 17.1,-67.0" fill="none" stroke="rgb(128,128,128)" stroke-width="1.211226600275802" stroke-linejoin="round" stroke-linecap="round" filter="url(#fuzzy_av_1779093954968_ml3qkue3b3)" opacity="0.9780809044236041"/><polyline points="0.3,-71.4 1.4,-70.3 2.7,-70.7 3.6,-70.4 4.1,-70.4 4.2,-70.3 4.1,-69.5 3.6,-67.4 2.7,-67.3 1.3,-67.6 -0.7,-66.0 -3.1,-65.3 -6.2,-64.5 -9.8,-61.7 -14.1,-59.9 -19.2,-58.8 -25.0,-56.6 -31.5,-55.7 -38.2,-53.8" fill="none" stroke="rgb(128,128,128)" stroke-width="2.532153757563859" stroke-linejoin="round" stroke-linecap="round" filter="url(#fuzzy_av_1779093954968_ml3qkue3b3)" opacity="0.868612031591534"/><polyline points="6.0,-69.2 8.0,-69.3 9.8,-69.3 11.2,-69.1 12.4,-69.4 13.5,-68.0 14.6,-66.9 15.7,-67.7 16.7,-67.5 17.6,-67.3 18.4,-66.0 19.0,-65.0 19.4,-65.1 19.7,-64.6 19.6,-64.4 19.3,-65.1 18.6,-65.2 17.7,-64.8 16.5,-66.6 15.0,-67.1 13.1,-66.2 10.9,-67.1 8.4,-68.5 5.7,-68.3 3.0,-68.7 -0.9,-71.0" fill="none" stroke="rgb(128,128,128)" stroke-width="1.6361992573780646" stroke-linejoin="round" stroke-linecap="round" filter="url(#fuzzy_av_1779093954968_ml3qkue3b3)" opacity="0.9951739035989712"/><polyline points="26.5,-60.5 28.3,-59.7 29.0,-58.7 29.3,-57.4 29.1,-56.6 28.7,-56.7 28.0,-56.0 26.9,-54.5 25.4,-53.6 23.5,-50.7 21.1,-50.7 18.3,-47.9 15.0,-46.6 11.2,-45.0 7.0,-43.5 2.3,-41.2 -2.9,-39.6 -8.6,-37.0 -14.8,-35.5 -21.5,-32.7 -28.7,-29.8 -36.4,-28.7 -44.6,-25.0 -53.5,-23.0" fill="none" stroke="rgb(128,128,128)" stroke-width="1.7597145246869121" stroke-linejoin="round" stroke-linecap="round" filter="url(#fuzzy_av_1779093954968_ml3qkue3b3)" opacity="0.7526954706540185"/><polyline points="-8.5,-70.8 -7.5,-69.5 -6.7,-70.0 -5.7,-69.6 -4.4,-69.8 -3.0,-71.4 -1.5,-69.5 -0.1,-70.1 1.2,-70.9 2.3,-71.4 3.2,-71.1 3.9,-71.0 4.4,-69.9 4.7,-69.6 4.6,-69.8 4.3,-70.9 3.7,-70.7 2.7,-70.6 1.1,-70.4 -1.4,-71.0 -4.4,-70.6" fill="none" stroke="rgb(128,128,128)" stroke-width="1.8785371081507944" stroke-linejoin="round" stroke-linecap="round" filter="url(#fuzzy_av_1779093954968_ml3qkue3b3)" opacity="0.7788007848762133"/><polyline points="-35.5,-55.2 -34.0,-56.9 -32.2,-58.1 -30.0,-58.2 -27.4,-58.8 -24.6,-59.5 -21.4,-61.1 -17.8,-60.7 -14.0,-62.8 -10.0,-61.5 -5.7,-63.1 -1.2,-62.9 3.4,-63.5 8.0,-63.6 12.4,-64.7 16.4,-64.2 19.6,-65.6" fill="none" stroke="rgb(128,128,128)" stroke-width="0.7349229478506005" stroke-linejoin="round" stroke-linecap="round" filter="url(#fuzzy_av_1779093954968_ml3qkue3b3)" opacity="0.9065612606187748"/><polyline points="-45.5,-41.8 -45.5,-42.3 -45.2,-42.6 -44.5,-45.3 -43.6,-45.9 -42.7,-47.1 -42.0,-47.5 -41.3,-49.1 -40.8,-49.8 -40.5,-50.3 -40.3,-50.7 -40.2,-49.7 -40.1,-51.2 -40.2,-50.7 -40.4,-49.1 -40.8,-47.6 -41.5,-46.6 -42.5,-44.8 -43.7,-43.3 -45.2,-40.1 -47.0,-37.4 -49.2,-33.4 -51.5,-29.8" fill="none" stroke="rgb(128,128,128)" stroke-width="1.1523692856913144" stroke-linejoin="round" stroke-linecap="round" filter="url(#fuzzy_av_1779093954968_ml3qkue3b3)" opacity="0.8092244416083754"/><polyline points="36.4,-52.5 37.0,-52.5 36.8,-50.2 36.0,-49.5 34.4,-48.1 32.1,-47.1 28.9,-45.6 24.8,-45.0 19.8,-42.0 14.0,-41.9 7.4,-39.8 -0.2,-37.6 -8.7,-34.4 -18.2,-32.2 -28.8,-30.3 -40.5,-27.3 -53.2,-24.0" fill="none" stroke="rgb(128,128,128)" stroke-width="1.16240496219446" stroke-linejoin="round" stroke-linecap="round" filter="url(#fuzzy_av_1779093954968_ml3qkue3b3)" opacity="0.8728910204415454"/><polyline points="19.6,-65.4 21.5,-63.4 22.1,-62.4 21.9,-61.5 21.1,-59.5 19.8,-58.4 18.1,-56.6 15.9,-52.4 13.3,-49.0 10.1,-45.8 6.4,-41.4 2.1,-37.4 -2.8,-31.6 -8.2,-25.7 -14.1,-20.3 -20.7,-13.1 -27.9,-6.3 -35.7,1.6 -44.1,7.3 -52.8,16.8" fill="none" stroke="rgb(128,128,128)" stroke-width="1.5877106368721638" stroke-linejoin="round" stroke-linecap="round" filter="url(#fuzzy_av_1779093954968_ml3qkue3b3)" opacity="0.9961518018450519"/><polyline points="7.7,-69.0 9.9,-68.8 10.6,-69.6 10.8,-67.4 10.5,-67.3 10.0,-66.5 9.0,-64.3 7.6,-63.1 5.7,-60.2 3.3,-59.0 0.4,-57.3 -3.0,-53.3 -7.1,-50.3 -11.8,-48.3 -17.2,-43.1 -23.3,-39.4 -30.0,-36.5 -37.2,-31.9 -45.1,-26.6 -53.8,-22.6" fill="none" stroke="rgb(128,128,128)" stroke-width="1.5945030723232452" stroke-linejoin="round" stroke-linecap="round" filter="url(#fuzzy_av_1779093954968_ml3qkue3b3)" opacity="0.780216864240782"/><polyline points="41.7,-47.6 42.4,-44.4 42.5,-43.3 42.2,-43.8 41.8,-41.8 41.0,-39.5 39.7,-38.6 38.0,-36.1 35.9,-33.2 33.3,-32.9 30.3,-30.5 26.9,-26.4 23.1,-23.9 18.9,-22.6 14.4,-19.6 9.4,-16.0 4.0,-12.8 -1.7,-8.8 -7.9,-6.3 -14.4,-1.9 -21.3,1.2 -28.6,5.2 -36.3,8.7 -44.4,12.0 -53.1,15.8" fill="none" stroke="rgb(128,128,128)" stroke-width="2.5910701622447707" stroke-linejoin="round" stroke-linecap="round" filter="url(#fuzzy_av_1779093954968_ml3qkue3b3)" opacity="0.9000629556479507"/><polyline points="-41.0,-50.4 -40.4,-50.8 -39.8,-50.6 -39.3,-52.6 -38.7,-51.6 -38.1,-54.0 -37.4,-54.4 -36.8,-53.9 -36.3,-54.1 -35.9,-54.0 -35.7,-55.0 -35.7,-54.1 -35.9,-53.7 -36.3,-52.0 -36.9,-50.5 -37.6,-48.5 -38.6,-45.3 -39.7,-44.4 -41.0,-41.9 -42.6,-37.0 -44.6,-33.5 -46.8,-29.6 -49.4,-23.4 -52.2,-19.4 -55.2,-12.5" fill="none" stroke="rgb(128,128,128)" stroke-width="1.115911047483061" stroke-linejoin="round" stroke-linecap="round" filter="url(#fuzzy_av_1779093954968_ml3qkue3b3)" opacity="0.9667676062858359"/><polyline points="34.4,-55.0 34.9,-55.4 34.8,-53.8 34.5,-52.4 33.8,-51.1 32.7,-50.2 31.2,-50.1 29.1,-47.6 26.4,-47.2 23.2,-45.1 19.3,-44.1 14.8,-40.9 9.8,-40.8 4.1,-37.3 -2.1,-36.3 -9.0,-34.8 -16.6,-32.4 -24.8,-29.1 -33.7,-27.2 -43.2,-25.9 -53.5,-23.4" fill="none" stroke="rgb(128,128,128)" stroke-width="1.790711586357448" stroke-linejoin="round" stroke-linecap="round" filter="url(#fuzzy_av_1779093954968_ml3qkue3b3)" opacity="0.8519807262323308"/><polyline points="-52.0,-27.0 -51.5,-28.6 -50.9,-31.2 -50.3,-33.5 -49.6,-33.7 -49.0,-35.3 -48.4,-36.2 -47.8,-39.5 -47.2,-40.6 -46.8,-40.7 -46.7,-40.6 -46.9,-40.9 -47.2,-40.5 -47.7,-39.1 -48.4,-36.4 -49.5,-33.7 -51.5,-29.2" fill="none" stroke="rgb(128,128,128)" stroke-width="0.9693528727728168" stroke-linejoin="round" stroke-linecap="round" filter="url(#fuzzy_av_1779093954968_ml3qkue3b3)" opacity="0.9472250912868774"/><polyline points="-31.3,-59.3 -29.6,-61.3 -28.8,-60.8 -28.2,-62.0 -27.7,-62.6 -27.2,-62.2 -27.0,-61.3 -27.0,-62.4 -27.4,-60.6 -28.2,-58.3 -29.3,-57.7 -30.7,-54.9 -32.4,-53.0 -34.5,-49.7 -37.0,-46.6 -40.1,-43.2 -43.7,-36.9 -47.8,-31.7 -52.4,-27.1" fill="none" stroke="rgb(128,128,128)" stroke-width="0.8865820637759115" stroke-linejoin="round" stroke-linecap="round" filter="url(#fuzzy_av_1779093954968_ml3qkue3b3)" opacity="0.8999799158930359"/><polyline points="-36.3,-56.4 -35.4,-55.6 -34.4,-56.4 -33.5,-58.3 -32.7,-58.7 -32.1,-58.8 -31.7,-59.0 -31.5,-60.2 -31.6,-58.9 -31.8,-59.2 -32.3,-57.9 -33.0,-56.5 -34.0,-54.8 -35.4,-52.1 -37.2,-51.2 -39.6,-48.5 -42.6,-43.0 -45.9,-39.2 -49.1,-36.6" fill="none" stroke="rgb(128,128,128)" stroke-width="2.4348452513685146" stroke-linejoin="round" stroke-linecap="round" filter="url(#fuzzy_av_1779093954968_ml3qkue3b3)" opacity="0.9766535995826252"/><polyline points="-55.2,-12.9 -54.9,-13.8 -54.5,-16.0 -53.9,-20.2 -53.2,-21.5 -52.5,-23.6 -51.7,-24.7 -50.9,-27.0 -50.0,-29.3 -49.1,-30.6 -48.1,-33.0 -47.1,-35.6 -46.1,-38.5 -45.1,-39.4 -44.2,-40.9 -43.4,-44.5 -42.7,-44.1 -42.1,-46.4 -41.6,-48.4 -41.2,-48.1 -40.9,-49.1 -40.7,-48.8 -40.7,-49.2 -40.8,-49.8 -41.0,-49.0" fill="none" stroke="rgb(128,128,128)" stroke-width="1.8071340615548155" stroke-linejoin="round" stroke-linecap="round" filter="url(#fuzzy_av_1779093954968_ml3qkue3b3)" opacity="0.796574250520289"/><polyline points="-39.0,-51.9 -38.8,-52.3 -37.3,-52.2 -35.0,-54.0 -31.9,-54.4 -28.3,-56.1 -24.2,-57.1 -19.8,-57.3 -15.1,-58.1 -10.2,-59.9 -5.1,-60.3 0.2,-60.9 5.8,-62.3 11.5,-62.2 17.4,-62.4 23.8,-62.6" fill="none" stroke="rgb(128,128,128)" stroke-width="1.3156818669052122" stroke-linejoin="round" stroke-linecap="round" filter="url(#fuzzy_av_1779093954968_ml3qkue3b3)" opacity="0.9953935937570029"/><polyline points="26.0,-61.8 25.4,-61.1 25.5,-60.8 25.5,-59.9 25.0,-59.0 24.1,-55.9 22.6,-54.1 20.6,-52.2 18.2,-49.1 15.2,-46.5 11.7,-43.7 7.6,-40.1 2.9,-36.8 -2.3,-33.8 -8.1,-27.8 -14.5,-23.4 -21.5,-20.4 -29.1,-14.9 -37.2,-8.9 -46.0,-3.7 -55.5,0.8" fill="none" stroke="rgb(128,128,128)" stroke-width="1.3738339854151618" stroke-linejoin="round" stroke-linecap="round" filter="url(#fuzzy_av_1779093954968_ml3qkue3b3)" opacity="0.9531344011592583"/><polyline points="0.3,-69.9 1.4,-71.2 2.8,-70.6 4.0,-70.6 4.7,-69.4 5.2,-70.5 5.5,-68.9 5.4,-69.4 4.9,-68.7 3.8,-68.8 2.1,-67.9 -0.1,-67.6 -3.0,-67.5 -6.6,-68.5 -11.0,-66.3 -16.2,-66.0 -22.4,-65.6" fill="none" stroke="rgb(128,128,128)" stroke-width="2.2983983821062646" stroke-linejoin="round" stroke-linecap="round" filter="url(#fuzzy_av_1779093954968_ml3qkue3b3)" opacity="0.9252678221208904"/><polyline points="-46.3,-41.1 -44.6,-44.1 -42.8,-46.7 -40.5,-46.5 -38.0,-49.5 -35.1,-50.0 -32.0,-52.1 -28.6,-52.7 -24.9,-53.2 -20.8,-54.8 -16.4,-56.3 -11.7,-57.9 -6.9,-60.2 -2.0,-61.1 2.7,-62.9 7.5,-64.3 12.2,-65.1 17.1,-66.6" fill="none" stroke="rgb(128,128,128)" stroke-width="1.7567974449526513" stroke-linejoin="round" stroke-linecap="round" filter="url(#fuzzy_av_1779093954968_ml3qkue3b3)" opacity="0.945567762008729"/><polyline points="51.1,-29.7 50.2,-31.8 49.4,-34.0 48.4,-37.3 47.1,-38.6 45.8,-41.7 44.4,-43.5 43.2,-45.9 42.0,-48.3 40.9,-50.3 39.7,-53.0 38.4,-54.6 37.0,-56.4 35.4,-56.7 33.7,-59.2 31.8,-60.1 29.7,-62.1 27.4,-62.8 25.0,-65.1 22.4,-65.1 19.8,-66.9 17.1,-66.3 14.3,-68.6 11.5,-67.8 8.7,-69.5 5.9,-69.7 3.0,-70.6 0.1,-70.1 -2.9,-71.1 -5.8,-70.5 -8.8,-70.9 -11.8,-70.0 -15.0,-69.4 -18.3,-68.5 -21.7,-68.9 -25.0,-67.2 -28.0,-66.9 -30.9,-66.3 -34.9,-64.0" fill="none" stroke="rgb(128,128,128)" stroke-width="2.0582722408591483" stroke-linejoin="round" stroke-linecap="round" filter="url(#fuzzy_av_1779093954968_ml3qkue3b3)" opacity="0.9477938970350231"/><polyline points="49.8,-32.9 51.1,-34.5 51.2,-36.4 50.0,-37.7 48.4,-40.2 46.7,-42.6 45.1,-43.9 43.6,-47.8 42.2,-49.3 40.9,-51.5 39.6,-51.9 38.3,-55.3 36.7,-56.4 34.9,-59.1 32.9,-59.9 30.6,-60.4 28.3,-63.3 25.9,-63.3 23.6,-64.0 21.2,-65.0 18.8,-67.1 16.3,-68.5 13.6,-68.7 10.8,-69.6 8.0,-70.3 5.1,-70.7 2.2,-69.4 -0.6,-70.5 -3.4,-71.2 -6.2,-71.3 -9.0,-70.3 -11.9,-69.8 -15.0,-70.7 -18.6,-69.9" fill="none" stroke="rgb(128,128,128)" stroke-width="2.368472481147947" stroke-linejoin="round" stroke-linecap="round" filter="url(#fuzzy_av_1779093954968_ml3qkue3b3)" opacity="0.8240901074033435"/><polyline points="49.8,-32.5 49.3,-34.1 48.2,-35.8 47.0,-38.4 45.7,-41.2 44.4,-42.9 43.2,-44.9 41.9,-46.7 40.6,-48.7 39.1,-51.6 37.4,-51.8 35.5,-55.3 33.5,-57.3 31.5,-58.3 29.4,-60.2 27.3,-62.0 25.3,-62.2 23.3,-63.7 21.2,-64.5 19.1,-64.9 17.0,-66.8 14.7,-68.2 12.4,-69.3 9.9,-68.8 7.4,-68.8 4.8,-70.3 2.3,-69.8 -0.1,-69.7 -2.4,-71.2 -4.5,-69.9" fill="none" stroke="rgb(128,128,128)" stroke-width="1.3975803655663013" stroke-linejoin="round" stroke-linecap="round" filter="url(#fuzzy_av_1779093954968_ml3qkue3b3)" opacity="0.947593913674722"/><polyline points="48.8,-35.3 47.7,-38.2 46.6,-38.9 45.3,-42.5 44.0,-44.7 42.6,-46.2 41.1,-48.2 39.7,-50.9 38.3,-52.5 37.0,-54.2 35.7,-55.5 34.4,-56.4 32.9,-58.6 31.2,-59.3 29.2,-61.3 26.9,-62.2 24.4,-63.7 21.8,-66.1 19.2,-65.6 16.6,-67.7 14.0,-68.9 11.4,-68.0 8.8,-69.4 6.0,-69.5 3.2,-69.7 0.4,-69.5 -2.5,-70.8 -5.4,-69.7 -8.2,-70.4 -11.1,-70.4 -14.3,-68.7 -18.0,-69.9 -21.9,-67.9 -25.9,-68.1" fill="none" stroke="rgb(128,128,128)" stroke-width="1.1144387560561495" stroke-linejoin="round" stroke-linecap="round" filter="url(#fuzzy_av_1779093954968_ml3qkue3b3)" opacity="0.8879470952714303"/><polyline points="47.0,-38.7 45.0,-41.7 43.2,-43.7 41.4,-45.5 39.6,-49.4 37.8,-51.4 36.1,-51.5 34.4,-54.9 32.7,-55.1 31.0,-56.5 29.1,-59.4 27.2,-59.7 25.2,-61.6 23.0,-63.7 20.8,-64.2 18.5,-65.6 16.2,-66.3 13.9,-67.4 11.7,-68.4 9.4,-68.5 7.2,-69.4 4.9,-70.4 2.7,-70.6 0.5,-71.3 -1.8,-71.3 -3.9,-70.7 -5.8,-69.8 -7.2,-69.8 -8.7,-69.2" fill="none" stroke="rgb(128,128,128)" stroke-width="0.974707918890898" stroke-linejoin="round" stroke-linecap="round" filter="url(#fuzzy_av_1779093954968_ml3qkue3b3)" opacity="0.799370828723539"/><polyline points="43.0,-45.0 43.3,-45.3 43.5,-47.6 42.7,-48.7 41.0,-50.4 38.8,-54.0 36.6,-54.1 34.4,-57.9 32.4,-59.2 30.4,-59.6 28.5,-61.8 26.6,-62.4 24.7,-63.6 22.7,-64.9 20.6,-65.3 18.5,-66.2 16.1,-67.3 13.7,-68.3 11.0,-69.1 8.2,-69.4 5.3,-69.7 2.3,-69.5 -0.7,-70.6 -3.7,-70.5 -6.7,-70.1 -9.8,-70.4 -12.9,-70.1 -16.2,-69.8 -20.1,-69.2" fill="none" stroke="rgb(128,128,128)" stroke-width="2.413925361713046" stroke-linejoin="round" stroke-linecap="round" filter="url(#fuzzy_av_1779093954968_ml3qkue3b3)" opacity="0.9810677005476277"/><polyline points="41.7,-47.5 40.2,-49.6 38.6,-51.6 37.1,-53.3 35.6,-54.8 34.1,-56.5 32.5,-58.3 31.0,-58.5 29.3,-61.1 27.4,-62.4 25.3,-63.5 23.0,-64.2 20.7,-66.2 18.2,-66.2 15.7,-68.0 13.2,-68.5 10.7,-68.6 8.2,-68.6 5.7,-69.3 3.2,-71.1 0.6,-70.7 -2.2,-70.1 -5.3,-70.5 -8.8,-70.1" fill="none" stroke="rgb(128,128,128)" stroke-width="0.8994088098265719" stroke-linejoin="round" stroke-linecap="round" filter="url(#fuzzy_av_1779093954968_ml3qkue3b3)" opacity="0.9772571141527722"/><polyline points="41.7,-47.7 39.7,-48.4 37.7,-51.2 35.8,-52.1 33.8,-55.2 31.9,-56.3 30.1,-57.6 28.2,-59.6 26.4,-59.6 24.4,-62.1 22.4,-62.7 20.3,-64.0 18.1,-65.3 15.8,-67.3 13.5,-67.3 11.2,-68.0 8.9,-69.0 6.7,-70.2 4.4,-69.4 2.3,-69.8 0.2,-69.7 -1.9,-70.9 -3.9,-69.6 -5.9,-69.5 -7.8,-70.5 -9.8,-68.9 -11.7,-69.1 -13.6,-67.3 -15.3,-67.3 -17.0,-67.2 -18.7,-65.8 -20.6,-64.4 -22.4,-62.2" fill="none" stroke="rgb(128,128,128)" stroke-width="0.8107257955612671" stroke-linejoin="round" stroke-linecap="round" filter="url(#fuzzy_av_1779093954968_ml3qkue3b3)" opacity="0.9554378673411116"/><polyline points="37.9,-51.4 32.9,-53.3 28.5,-55.5 26.1,-56.6 24.8,-59.3 23.7,-61.2 22.5,-61.5 21.2,-63.1 19.8,-64.8 18.1,-65.5 16.3,-65.9 14.3,-67.5 12.2,-67.8 10.0,-67.6 7.8,-68.9 5.6,-69.2 3.6,-70.3 1.7,-70.9 0.0,-71.0 -1.5,-70.5 -2.9,-71.0 -4.3,-69.7 -5.5,-70.5 -6.7,-69.6 -7.8,-69.4 -9.0,-67.6 -10.2,-66.8 -10.9,-66.7" fill="none" stroke="rgb(128,128,128)" stroke-width="1.6512733123055685" stroke-linejoin="round" stroke-linecap="round" filter="url(#fuzzy_av_1779093954968_ml3qkue3b3)" opacity="0.7750014145951745"/><polyline points="34.4,-54.6 32.0,-56.8 29.8,-60.1 27.7,-61.7 25.7,-61.8 23.9,-62.8 22.1,-63.7 20.3,-66.1 18.3,-65.7 16.2,-67.6 14.0,-67.2 11.6,-67.6 9.1,-69.6 6.6,-70.0 4.1,-69.8 1.7,-70.4 -0.7,-70.3 -3.1,-70.2 -5.4,-70.7 -7.8,-69.5 -10.2,-70.6 -12.7,-69.6 -15.3,-68.5 -18.1,-67.7 -21.0,-68.0 -23.7,-66.3 -25.0,-65.1" fill="none" stroke="rgb(128,128,128)" stroke-width="0.9337103043501713" stroke-linejoin="round" stroke-linecap="round" filter="url(#fuzzy_av_1779093954968_ml3qkue3b3)" opacity="0.8929064174148935"/><polyline points="29.5,-60.1 28.0,-61.2 26.2,-62.1 24.2,-62.8 22.2,-63.6 20.2,-65.4 18.0,-66.5 15.8,-68.2 13.5,-67.8 11.2,-68.7 8.7,-69.8 6.3,-69.6 3.9,-71.0 1.4,-69.5 -0.9,-69.7 -3.3,-70.7 -5.6,-71.1 -8.0,-70.3 -10.5,-69.7 -13.1,-69.6 -15.9,-69.0 -18.8,-67.5 -21.7,-67.9 -24.5,-66.0 -27.1,-65.1 -29.6,-64.5 -33.1,-61.9" fill="none" stroke="rgb(128,128,128)" stroke-width="1.7742016042767936" stroke-linejoin="round" stroke-linecap="round" filter="url(#fuzzy_av_1779093954968_ml3qkue3b3)" opacity="0.7815286098859726"/><polyline points="24.4,-63.8 24.6,-64.1 23.1,-65.1 20.9,-65.2 18.5,-66.3 16.1,-66.5 13.7,-68.4 11.2,-67.9 8.7,-68.7 6.3,-68.8 3.8,-70.7 1.4,-71.0 -1.0,-70.0 -3.4,-70.7 -5.9,-70.4 -8.5,-69.8 -11.2,-70.3 -14.1,-68.9 -17.2,-68.9 -20.6,-67.6 -23.9,-67.3 -26.9,-66.6 -28.4,-66.3" fill="none" stroke="rgb(128,128,128)" stroke-width="1.0587981794765788" stroke-linejoin="round" stroke-linecap="round" filter="url(#fuzzy_av_1779093954968_ml3qkue3b3)" opacity="0.7827137359183771"/><polyline points="26.0,-62.3 23.3,-64.4 20.6,-65.6 18.0,-65.7 15.6,-67.0 13.2,-68.0 10.9,-68.7 8.6,-69.8 6.2,-69.6 3.9,-70.6 1.6,-70.9 -0.7,-70.8 -2.9,-70.2 -5.1,-69.4 -7.3,-70.6 -9.4,-70.1 -11.5,-69.2 -13.6,-69.2 -15.6,-66.6 -17.6,-66.5 -19.5,-65.1 -21.4,-64.9 -23.2,-64.0 -24.9,-63.2 -26.6,-61.9 -28.2,-59.6 -29.8,-58.7 -31.1,-55.8 -32.4,-54.4 -33.5,-53.0 -34.5,-51.1 -35.5,-49.1 -36.5,-46.5 -37.6,-44.9 -38.8,-41.8 -39.8,-39.8 -41.3,-35.0" fill="none" stroke="rgb(128,128,128)" stroke-width="2.446459283055529" stroke-linejoin="round" stroke-linecap="round" filter="url(#fuzzy_av_1779093954968_ml3qkue3b3)" opacity="0.7704272163557855"/><polyline points="23.8,-62.6 20.5,-65.2 18.0,-67.1 15.7,-68.0 13.4,-68.7 11.0,-68.4 8.7,-70.2 6.4,-70.2 4.0,-69.7 1.6,-70.3 -0.7,-71.2 -3.1,-69.5 -5.5,-70.9 -7.8,-70.0 -10.2,-70.3 -12.6,-70.0 -15.1,-67.7 -17.5,-67.0 -19.9,-66.5 -22.3,-66.6 -24.6,-65.0 -26.9,-64.2 -29.1,-62.5 -31.2,-62.0 -33.2,-59.4 -35.1,-58.6 -37.0,-57.4 -38.9,-54.2 -40.7,-52.8 -42.6,-51.1 -44.5,-50.3" fill="none" stroke="rgb(128,128,128)" stroke-width="1.3644105852351474" stroke-linejoin="round" stroke-linecap="round" filter="url(#fuzzy_av_1779093954968_ml3qkue3b3)" opacity="0.7811904142087487"/><polyline points="23.8,-63.2 20.5,-65.8 17.9,-65.8 15.6,-68.2 13.2,-67.3 10.9,-68.7 8.6,-69.0 6.2,-70.4 3.9,-70.7 1.5,-70.1 -0.8,-70.9 -3.1,-70.0 -5.4,-70.0 -7.7,-69.8 -10.0,-68.5 -12.4,-68.2 -14.7,-68.4 -17.0,-67.5 -19.2,-67.0 -21.5,-66.6 -23.6,-65.1 -25.7,-64.1 -27.8,-61.9 -29.8,-61.3 -31.7,-60.3 -33.5,-57.1 -35.3,-55.6 -37.0,-55.0 -38.7,-53.6 -40.4,-51.9 -42.0,-49.7 -43.6,-45.9 -45.3,-44.5 -46.9,-42.5 -48.6,-39.6 -50.2,-36.9 -51.7,-33.5 -53.0,-29.6" fill="none" stroke="rgb(128,128,128)" stroke-width="1.1188625033991002" stroke-linejoin="round" stroke-linecap="round" filter="url(#fuzzy_av_1779093954968_ml3qkue3b3)" opacity="0.995472967271659"/><polyline points="22.3,-65.0 19.9,-66.0 17.7,-67.0 15.4,-66.9 13.1,-67.7 10.6,-68.6 8.1,-70.3 5.6,-69.6 3.1,-70.2 0.7,-70.0 -1.6,-71.3 -3.9,-71.1 -6.2,-70.6 -8.6,-69.1 -11.0,-70.0 -13.5,-69.6 -16.0,-68.7 -18.5,-66.8 -21.0,-66.3 -23.5,-66.2 -25.8,-64.0 -28.1,-62.5 -30.4,-61.0 -32.7,-60.8 -34.9,-58.8 -37.2,-56.4 -39.4,-54.5 -41.5,-53.2 -43.5,-50.4 -45.4,-49.8 -47.2,-47.8 -49.0,-45.8 -50.8,-43.5 -52.7,-41.3 -54.6,-38.2 -56.5,-35.5 -58.1,-32.6 -59.9,-29.0" fill="none" stroke="rgb(128,128,128)" stroke-width="1.187000161800849" stroke-linejoin="round" stroke-linecap="round" filter="url(#fuzzy_av_1779093954968_ml3qkue3b3)" opacity="0.775269098692114"/><polyline points="-0.9,-70.7 -4.1,-70.4 -6.3,-71.1 -8.3,-69.9 -10.5,-70.0 -13.0,-69.1 -15.4,-67.9 -17.9,-68.3 -20.2,-66.5 -22.5,-66.2 -24.8,-65.4 -27.0,-64.3 -29.2,-62.4 -31.4,-60.6 -33.6,-58.9 -35.7,-58.5 -37.7,-56.0 -39.6,-54.4 -41.5,-53.4 -43.3,-51.3 -45.1,-49.1 -46.9,-46.2 -48.8,-44.3 -50.6,-41.4 -52.5,-38.0 -54.4,-35.3 -56.3,-33.0 -57.9,-30.4 -59.4,-26.6 -60.5,-25.5 -61.6,-23.5 -62.8,-20.3 -64.3,-15.9" fill="none" stroke="rgb(128,128,128)" stroke-width="0.9438935564990667" stroke-linejoin="round" stroke-linecap="round" filter="url(#fuzzy_av_1779093954968_ml3qkue3b3)" opacity="0.8523438038166371"/><polyline points="-3.0,-70.0 -4.7,-70.0 -6.7,-70.1 -8.8,-70.0 -11.2,-70.3 -13.8,-69.2 -16.7,-68.0 -19.8,-67.9 -22.8,-67.3 -25.5,-66.1 -27.9,-64.2 -30.1,-64.3 -32.4,-62.4 -34.9,-61.4 -37.7,-59.6 -40.8,-56.2 -44.0,-56.2 -47.0,-52.8 -49.7,-51.3 -52.0,-50.0 -54.2,-46.7 -56.5,-45.5 -59.3,-42.4 -62.7,-41.1 -67.7,-37.9" fill="none" stroke="rgb(128,128,128)" stroke-width="1.3332583013877592" stroke-linejoin="round" stroke-linecap="round" filter="url(#fuzzy_av_1779093954968_ml3qkue3b3)" opacity="0.918960610679992"/><polyline points="-3.0,-71.1 -4.5,-70.9 -6.4,-69.8 -8.5,-70.2 -10.7,-69.2 -13.0,-70.0 -15.3,-67.9 -17.7,-67.9 -19.9,-66.3 -22.0,-66.0 -24.1,-65.2 -26.0,-62.9 -28.0,-62.2 -30.0,-60.0 -32.0,-58.3 -34.0,-57.5 -36.0,-55.5 -37.8,-53.2 -39.5,-50.4 -41.1,-49.9 -42.6,-46.5 -44.1,-44.9 -45.4,-43.3 -46.7,-41.1 -48.7,-38.1" fill="none" stroke="rgb(128,128,128)" stroke-width="2.0692439613480866" stroke-linejoin="round" stroke-linecap="round" filter="url(#fuzzy_av_1779093954968_ml3qkue3b3)" opacity="0.7803040272144817"/><polyline points="-7.7,-71.1 -8.4,-71.2 -10.9,-70.2 -13.7,-68.7 -16.4,-68.3 -18.9,-66.8 -21.2,-66.0 -23.5,-66.5 -25.7,-63.7 -28.0,-63.7 -30.4,-61.5 -32.8,-61.7 -35.4,-58.7 -38.0,-56.8 -40.6,-56.8 -43.1,-54.8 -45.4,-53.3 -47.7,-51.2 -49.8,-49.9 -52.1,-46.9 -54.4,-43.7 -56.8,-41.1 -59.3,-39.4 -62.0,-35.3 -64.7,-32.1 -66.9,-29.6" fill="none" stroke="rgb(128,128,128)" stroke-width="1.154183529683442" stroke-linejoin="round" stroke-linecap="round" filter="url(#fuzzy_av_1779093954968_ml3qkue3b3)" opacity="0.9200542471522197"/><polyline points="-7.1,-70.3 -9.9,-69.8 -12.8,-68.3 -15.4,-68.1 -17.8,-67.7 -20.0,-66.4 -22.1,-64.7 -24.2,-65.2 -26.3,-63.0 -28.2,-61.2 -30.1,-60.0 -31.9,-58.9 -33.7,-56.6 -35.4,-55.8 -37.0,-53.4 -38.7,-53.0 -40.3,-49.4 -41.8,-47.4 -43.4,-46.7 -44.9,-42.9 -46.4,-40.5 -47.8,-38.6 -49.2,-34.3 -50.4,-32.0 -51.5,-29.9 -52.4,-27.9 -53.2,-24.5 -53.9,-21.2 -54.5,-19.0 -55.0,-15.6 -55.4,-14.4 -55.8,-11.4 -56.1,-7.1 -56.3,-5.7 -56.3,-1.4 -56.2,1.9" fill="none" stroke="rgb(128,128,128)" stroke-width="1.6581514988630077" stroke-linejoin="round" stroke-linecap="round" filter="url(#fuzzy_av_1779093954968_ml3qkue3b3)" opacity="0.7553312563736401"/><polyline points="-13.5,-69.0 -16.1,-67.7 -18.3,-67.0 -20.6,-67.6 -23.1,-66.3 -25.7,-65.5 -28.4,-63.1 -31.1,-61.9 -33.7,-59.8 -36.2,-60.0 -38.7,-58.0 -41.3,-56.6 -44.0,-54.6 -46.8,-52.3 -49.7,-51.0 -52.6,-48.6 -55.7,-46.9 -58.8,-43.2 -62.1,-40.7 -65.4,-38.4 -68.6,-36.3 -71.6,-32.8 -74.1,-30.3 -75.9,-28.2 -76.9,-25.7 -78.2,-23.5 -81.6,-21.9" fill="none" stroke="rgb(128,128,128)" stroke-width="1.9036811768264041" stroke-linejoin="round" stroke-linecap="round" filter="url(#fuzzy_av_1779093954968_ml3qkue3b3)" opacity="0.8675665892238932"/><polyline points="-16.2,-68.8 -17.3,-67.7 -18.2,-67.0 -19.4,-65.5 -21.0,-63.8 -22.8,-63.2 -24.7,-62.0 -26.3,-61.4 -27.6,-59.0 -28.4,-57.8 -28.6,-56.2 -28.5,-54.4 -28.2,-53.2 -27.7,-50.8 -27.2,-48.4 -26.6,-45.2 -26.0,-43.7 -25.5,-40.8 -25.3,-38.4 -25.4,-36.2 -26.1,-32.6 -27.0,-29.1 -27.9,-26.6 -28.3,-23.9 -27.8,-22.1 -26.5,-18.6 -24.4,-16.3 -21.4,-14.0 -17.5,-10.3 -14.0,-7.9" fill="none" stroke="rgb(128,128,128)" stroke-width="1.0356277326798498" stroke-linejoin="round" stroke-linecap="round" filter="url(#fuzzy_av_1779093954968_ml3qkue3b3)" opacity="0.9606588916485637"/><polyline points="-19.6,-67.0 -21.4,-65.8 -22.4,-64.8 -23.3,-63.5 -24.5,-63.2 -26.0,-61.6 -27.9,-60.4 -30.0,-57.8 -31.9,-55.7 -33.6,-54.6 -35.0,-52.1 -36.2,-51.5 -37.2,-47.9 -38.0,-46.5 -38.6,-44.6 -39.0,-41.9 -39.1,-40.4 -39.1,-36.3 -39.0,-35.2 -38.8,-32.2 -38.6,-29.9 -38.6,-26.0 -38.7,-24.4 -38.9,-21.8 -39.0,-19.1 -38.9,-15.6 -38.5,-12.0 -37.6,-10.6 -37.3,-6.8" fill="none" stroke="rgb(128,128,128)" stroke-width="2.1758986138188474" stroke-linejoin="round" stroke-linecap="round" filter="url(#fuzzy_av_1779093954968_ml3qkue3b3)" opacity="0.9038971181578057"/><polyline points="-21.4,-66.0 -24.6,-64.5 -27.2,-63.7 -29.2,-62.1 -31.0,-60.9 -32.7,-59.7 -34.3,-56.4 -36.0,-56.2 -37.7,-53.7 -39.4,-51.0 -41.1,-50.2 -42.9,-47.0 -44.6,-46.2 -46.3,-42.6 -47.9,-40.3 -49.4,-37.8 -50.8,-34.2 -52.0,-33.1 -53.1,-30.4 -54.1,-26.4 -54.9,-24.7 -55.7,-21.9 -56.3,-18.5 -56.9,-16.4 -57.4,-12.5 -57.9,-10.8 -58.3,-8.0 -58.6,-4.8 -58.8,-2.7 -58.9,0.1 -58.9,3.1 -58.9,5.1 -58.7,7.5" fill="none" stroke="rgb(128,128,128)" stroke-width="2.4729941827302304" stroke-linejoin="round" stroke-linecap="round" filter="url(#fuzzy_av_1779093954968_ml3qkue3b3)" opacity="0.8942817519027502"/><polyline points="-22.3,-65.1 -25.3,-64.8 -28.0,-63.8 -30.1,-61.3 -32.4,-59.1 -34.9,-57.2 -37.6,-55.8 -40.2,-53.6 -42.4,-52.0 -44.2,-50.1 -45.9,-47.2 -47.5,-46.9 -49.2,-44.4 -50.9,-41.8 -52.8,-39.3 -54.6,-36.5 -56.4,-34.9 -58.0,-31.8 -59.5,-29.6 -60.8,-26.1 -62.1,-23.6 -63.5,-21.2 -64.9,-17.9 -66.4,-14.5 -67.8,-11.3 -69.2,-10.0 -70.4,-5.7 -71.6,-2.6 -72.8,-0.0 -74.2,1.9 -75.5,5.2 -76.8,7.7 -77.8,12.0 -78.3,14.2 -78.6,17.0 -78.6,18.7 -78.5,22.0 -77.8,23.8" fill="none" stroke="rgb(128,128,128)" stroke-width="2.381367462606464" stroke-linejoin="round" stroke-linecap="round" filter="url(#fuzzy_av_1779093954968_ml3qkue3b3)" opacity="0.8486357212820547"/><polyline points="-24.3,-64.1 -26.9,-62.5 -29.0,-61.3 -31.2,-59.5 -33.5,-58.9 -35.9,-55.7 -38.1,-54.8 -40.0,-51.9 -41.8,-49.6 -43.4,-47.5 -44.9,-46.7 -46.5,-43.7 -48.1,-41.8 -49.7,-40.3 -51.4,-38.2 -52.9,-34.6 -54.4,-32.5 -55.7,-30.1 -56.9,-27.1 -58.1,-23.6 -59.4,-21.1 -60.7,-18.6 -61.6,-14.5" fill="none" stroke="rgb(128,128,128)" stroke-width="1.1183890205354907" stroke-linejoin="round" stroke-linecap="round" filter="url(#fuzzy_av_1779093954968_ml3qkue3b3)" opacity="0.894611695066193"/><polyline points="-27.5,-62.3 -29.1,-60.7 -30.7,-60.5 -32.3,-58.5 -33.8,-57.7 -35.4,-55.2 -36.9,-53.1 -38.5,-52.0 -40.1,-49.7 -41.6,-46.8 -43.1,-44.8 -44.5,-42.9 -45.8,-39.9 -47.1,-36.5 -48.3,-35.4 -49.3,-31.9 -50.3,-28.3 -51.1,-26.8 -51.7,-23.9 -52.3,-21.1 -52.7,-18.3 -53.1,-15.7 -53.3,-13.6 -53.5,-9.3 -53.5,-7.0 -53.5,-5.2 -53.4,-1.4 -53.2,0.7 -52.8,2.8 -52.4,7.0 -51.9,9.4 -51.3,11.6 -50.6,14.3 -49.8,17.3 -48.8,19.5 -47.7,22.8 -46.8,25.1" fill="none" stroke="rgb(128,128,128)" stroke-width="2.11363133512056" stroke-linejoin="round" stroke-linecap="round" filter="url(#fuzzy_av_1779093954968_ml3qkue3b3)" opacity="0.8364859326069516"/><polyline points="-28.9,-61.5 -31.3,-60.7 -34.1,-58.5 -36.6,-57.9 -38.4,-54.9 -39.8,-54.5 -41.2,-52.6 -42.9,-49.5 -45.0,-47.4 -47.5,-46.1 -50.3,-43.0 -53.0,-40.4 -55.4,-36.9 -57.3,-35.3 -59.0,-31.6 -60.6,-29.9 -62.3,-26.3 -64.3,-24.7 -66.4,-22.1 -68.4,-19.8 -70.2,-16.6 -71.6,-13.0 -72.7,-11.0 -73.7,-7.5 -74.6,-5.7 -75.2,-2.5 -76.3,3.3" fill="none" stroke="rgb(128,128,128)" stroke-width="0.8256850559943772" stroke-linejoin="round" stroke-linecap="round" filter="url(#fuzzy_av_1779093954968_ml3qkue3b3)" opacity="0.9683361605526638"/><polyline points="-30.6,-59.7 -33.0,-57.6 -35.4,-56.8 -37.5,-54.0 -39.3,-52.9 -40.9,-50.1 -42.4,-48.3 -43.8,-45.3 -45.2,-44.5 -46.6,-41.2 -47.9,-39.9 -49.1,-36.6 -50.2,-33.9 -51.2,-31.7 -52.1,-29.8 -53.0,-27.0 -53.8,-22.7 -54.5,-20.8 -55.1,-17.7 -55.6,-14.3 -56.1,-11.2 -56.4,-9.2 -56.7,-7.4 -56.9,-3.0 -57.1,-2.1 -57.1,0.8 -57.1,4.0 -57.0,7.8" fill="none" stroke="rgb(128,128,128)" stroke-width="1.9606005086200207" stroke-linejoin="round" stroke-linecap="round" filter="url(#fuzzy_av_1779093954968_ml3qkue3b3)" opacity="0.8220176027974863"/><polyline points="-32.0,-59.9 -34.6,-56.9 -37.7,-55.6 -40.5,-54.5 -42.6,-52.5 -44.1,-50.0 -45.4,-48.4 -46.7,-46.4 -48.1,-44.0 -49.9,-41.2 -51.8,-38.5 -53.9,-34.8 -56.0,-32.2 -57.9,-29.8 -59.7,-26.4 -61.1,-24.4 -62.3,-20.8 -63.3,-18.0 -64.3,-15.8 -65.2,-13.9 -66.3,-9.8 -67.4,-7.9 -68.3,-4.2 -69.1,-1.7 -70.3,1.8" fill="none" stroke="rgb(128,128,128)" stroke-width="1.0889453174955988" stroke-linejoin="round" stroke-linecap="round" filter="url(#fuzzy_av_1779093954968_ml3qkue3b3)" opacity="0.8092992561852669"/><polyline points="-33.0,-59.1 -35.9,-55.9 -38.7,-54.7 -40.8,-52.5 -42.4,-49.2 -43.8,-47.2 -45.0,-46.3 -46.3,-42.8 -47.7,-41.6 -49.3,-38.4 -51.0,-36.5 -52.7,-34.5 -54.5,-31.7 -56.2,-29.2 -57.7,-26.5 -59.1,-22.6 -60.2,-19.6 -61.3,-17.4 -62.1,-14.9 -62.8,-11.0 -63.3,-7.8 -63.7,-5.0 -64.0,-4.1 -64.1,-0.4 -64.1,3.6 -64.1,4.9 -64.0,8.4 -64.0,12.3 -64.0,14.7 -64.2,16.8 -64.3,19.3 -64.2,21.1 -63.8,24.0 -62.9,27.1 -62.1,29.9 -61.5,30.0" fill="none" stroke="rgb(128,128,128)" stroke-width="1.4932094177184747" stroke-linejoin="round" stroke-linecap="round" filter="url(#fuzzy_av_1779093954968_ml3qkue3b3)" opacity="0.9692129296968286"/><polyline points="-38.2,-52.2 -39.6,-51.5 -41.0,-50.2 -42.4,-48.4 -44.0,-45.7 -45.7,-43.6 -47.3,-39.7 -49.0,-36.8 -50.4,-33.6 -51.6,-30.5 -52.6,-29.2 -53.5,-25.2 -54.4,-24.3 -55.1,-20.0 -55.8,-18.8 -56.4,-14.5 -57.0,-12.3 -57.4,-10.6 -57.8,-7.9 -58.1,-4.3 -58.3,-1.9 -58.3,1.0 -58.3,4.2 -58.1,5.6 -57.8,9.2 -57.4,12.5 -56.9,14.9 -56.2,17.3 -55.3,20.0 -54.4,23.9 -53.6,25.4 -53.0,26.6" fill="none" stroke="rgb(128,128,128)" stroke-width="1.2828935605082668" stroke-linejoin="round" stroke-linecap="round" filter="url(#fuzzy_av_1779093954968_ml3qkue3b3)" opacity="0.9580497865441122"/><polyline points="-46.3,-41.3 -47.8,-41.9 -49.9,-38.3 -51.4,-35.7 -52.5,-34.4 -53.5,-29.9 -54.7,-29.0 -55.9,-25.6 -57.2,-21.8 -58.3,-20.3 -59.2,-16.2 -60.0,-14.4 -60.6,-10.5 -61.1,-7.8 -61.4,-4.9 -61.7,-2.1 -61.8,0.4 -61.8,3.3 -61.7,6.9 -61.6,9.7 -61.4,12.8 -61.1,14.9 -60.7,17.3 -60.1,19.4 -59.4,22.9 -58.5,25.5 -57.5,27.7 -56.3,29.4 -55.1,32.6 -53.9,34.4 -52.7,36.2 -51.3,37.7 -49.8,39.4 -47.9,41.9 -45.7,42.8 -43.2,45.0" fill="none" stroke="rgb(128,128,128)" stroke-width="1.4474291859461483" stroke-linejoin="round" stroke-linecap="round" filter="url(#fuzzy_av_1779093954968_ml3qkue3b3)" opacity="0.7793310182670268"/><polyline points="-46.8,-40.3 -48.9,-36.0 -50.3,-33.9 -51.6,-30.3 -52.9,-27.2 -54.2,-26.6 -55.4,-24.0 -56.4,-21.2 -57.2,-17.9 -57.7,-15.2 -58.1,-12.2 -58.4,-9.4 -58.7,-6.1 -59.0,-3.2 -59.3,-0.4 -59.4,2.0 -59.5,2.9 -59.5,6.1 -59.5,10.1 -59.5,12.3 -59.6,14.8 -59.5,17.2 -59.2,19.7 -58.6,22.8 -57.7,25.5 -56.7,26.8" fill="none" stroke="rgb(128,128,128)" stroke-width="2.450944061631365" stroke-linejoin="round" stroke-linecap="round" filter="url(#fuzzy_av_1779093954968_ml3qkue3b3)" opacity="0.8116130593085841"/><polyline points="-48.6,-37.5 -49.6,-36.5 -50.5,-33.7 -51.6,-30.3 -53.2,-28.4 -55.0,-25.6 -56.7,-22.6 -58.0,-19.6 -58.9,-16.5 -59.3,-14.5 -59.5,-10.1 -59.7,-8.1 -60.0,-6.1 -60.4,-2.5 -60.9,0.8 -61.6,3.6 -62.3,7.1 -63.0,9.3 -63.7,11.3 -64.3,15.6 -64.6,18.0 -64.6,19.9 -64.2,22.1 -63.3,24.7 -62.0,27.5 -60.4,30.4 -58.6,32.1 -56.9,35.0 -55.3,36.0 -53.8,39.0 -52.2,40.9 -50.6,42.8 -48.8,44.3 -46.7,45.6 -44.4,47.3 -41.8,47.9 -38.9,49.6 -36.2,51.7 -34.5,53.3" fill="none" stroke="rgb(128,128,128)" stroke-width="2.5226385327391334" stroke-linejoin="round" stroke-linecap="round" filter="url(#fuzzy_av_1779093954968_ml3qkue3b3)" opacity="0.8468755636954681"/><polyline points="-49.4,-36.2 -37.2,-32.9 -36.5,-29.6 -39.1,-27.1 -41.4,-26.5 -42.2,-22.8 -41.4,-21.0 -39.8,-18.8 -38.1,-15.7 -37.1,-12.1 -36.7,-9.9 -36.5,-6.0 -35.8,-5.0 -34.1,-1.2 -31.5,1.2 -28.4,4.4 -25.5,5.7 -23.5,9.6 -22.3,11.4 -21.4,14.1 -20.0,16.7 -17.3,20.3 -12.9,24.1 -9.5,25.8" fill="none" stroke="rgb(128,128,128)" stroke-width="1.027819638744126" stroke-linejoin="round" stroke-linecap="round" filter="url(#fuzzy_av_1779093954968_ml3qkue3b3)" opacity="0.9495466512556993"/><polyline points="-54.1,-20.9 -54.8,-16.1 -55.2,-13.0 -55.5,-11.0 -55.6,-8.1 -55.7,-4.9 -55.7,-1.8 -55.5,1.9 -55.2,3.5 -54.8,7.0 -54.3,10.8 -53.7,13.4 -53.1,15.6 -52.4,17.6 -51.5,20.3 -50.6,23.7 -49.6,25.5 -48.4,26.9 -47.2,30.0 -45.9,31.4 -44.4,35.2 -42.9,35.9 -41.3,37.8 -39.7,39.6 -37.9,42.2 -36.0,43.3 -34.0,45.0 -31.9,46.5 -29.8,48.1 -27.5,50.0 -25.3,51.7 -23.0,53.2 -20.7,52.8 -18.4,53.6 -16.0,55.6 -13.5,55.9 -10.8,56.2 -7.9,56.4 -6.0,56.7" fill="none" stroke="rgb(128,128,128)" stroke-width="1.761101537165567" stroke-linejoin="round" stroke-linecap="round" filter="url(#fuzzy_av_1779093954968_ml3qkue3b3)" opacity="0.922314335201294"/><polyline points="-54.8,-16.1 -54.1,-12.8 -52.9,-11.0 -51.1,-8.5 -49.5,-4.8 -48.2,-2.6 -47.3,0.3 -46.7,3.4 -46.4,5.5 -46.2,7.6 -45.9,9.5 -45.2,13.8 -43.8,14.9 -41.8,19.4 -39.4,22.1 -36.9,24.7 -34.6,26.3 -32.6,29.5 -31.0,32.6 -29.6,34.1 -28.3,35.7 -26.9,38.6 -25.3,40.8 -23.4,42.6 -21.4,44.2 -19.2,46.2 -17.0,46.3 -14.9,47.4 -12.9,49.6 -11.0,49.7 -9.2,51.4 -7.5,52.5 -5.9,53.2 -4.5,53.7 -3.3,54.6 -2.2,55.1 -1.2,57.4 -0.3,56.2" fill="none" stroke="rgb(128,128,128)" stroke-width="2.499603378222929" stroke-linejoin="round" stroke-linecap="round" filter="url(#fuzzy_av_1779093954968_ml3qkue3b3)" opacity="0.762318349759588"/><polyline points="-55.4,-9.7 -56.5,-6.4 -56.9,-3.8 -56.9,-1.9 -56.7,0.2 -56.4,4.2 -56.2,7.8 -56.1,10.3 -55.8,12.1 -55.3,16.5 -54.7,18.5 -54.0,20.3 -53.1,22.6 -52.2,25.3 -51.4,28.2 -50.4,30.5 -49.4,33.2 -48.3,34.8 -47.1,35.7 -45.7,39.0 -44.3,39.9 -42.7,42.0 -41.0,44.3 -39.1,44.4 -36.8,47.1 -34.1,48.0 -31.5,49.8" fill="none" stroke="rgb(128,128,128)" stroke-width="0.705348164658937" stroke-linejoin="round" stroke-linecap="round" filter="url(#fuzzy_av_1779093954968_ml3qkue3b3)" opacity="0.9480013667439486"/><polyline points="-55.6,3.1 -57.2,4.3 -57.8,5.9 -57.1,8.0 -56.1,10.3 -55.1,14.4 -54.3,16.9 -53.6,19.0 -53.0,22.4 -52.5,25.1 -51.8,27.0 -51.0,29.9 -50.0,32.0 -48.8,33.7 -47.4,36.0 -45.9,38.8 -44.2,41.0 -42.6,42.8 -40.8,43.4 -39.1,46.2 -37.2,46.6 -35.2,48.6 -33.0,50.4 -30.6,51.0 -28.0,51.7 -25.2,53.3 -22.4,53.9 -19.6,54.3 -16.9,55.2 -14.0,55.0 -11.1,56.6 -8.0,55.4 -4.8,56.3 -1.3,57.0 2.1,57.0 5.4,57.3 8.3,55.9 11.6,56.7" fill="none" stroke="rgb(128,128,128)" stroke-width="1.20814813246933" stroke-linejoin="round" stroke-linecap="round" filter="url(#fuzzy_av_1779093954968_ml3qkue3b3)" opacity="0.9007171945687871"/><polyline points="-55.3,2.8 -55.8,4.8 -56.0,7.3 -55.7,11.1 -54.9,14.3 -54.0,15.4 -53.1,19.2 -52.3,21.7 -51.6,22.8 -50.8,25.3 -49.9,28.8 -48.8,31.4 -47.6,32.3 -46.2,34.0 -44.8,36.5 -43.3,38.6 -41.7,41.6 -40.0,41.9 -38.2,44.6 -36.3,45.7 -34.2,47.3 -32.0,49.3 -29.7,50.1 -27.5,50.7 -25.2,52.7 -22.9,53.1 -20.5,54.6 -17.9,54.9 -15.2,56.2 -12.0,55.3 -7.0,56.0" fill="none" stroke="rgb(128,128,128)" stroke-width="1.1957094192720925" stroke-linejoin="round" stroke-linecap="round" filter="url(#fuzzy_av_1779093954968_ml3qkue3b3)" opacity="0.9896811971669732"/><polyline points="-55.5,2.6 -54.9,6.6 -54.2,10.7 -53.5,13.9 -52.8,15.9 -52.0,19.0 -51.1,20.9 -50.1,22.9 -49.0,25.4 -47.7,28.2 -46.3,30.2 -44.9,32.4 -43.4,34.7 -41.8,36.2 -40.2,38.2 -38.5,41.0 -36.7,42.4 -34.8,44.1 -32.8,45.5 -30.7,47.2 -28.5,47.8 -26.3,50.9 -24.1,50.9 -21.9,52.2 -19.6,52.9 -17.3,54.4 -14.9,54.6 -12.5,54.9 -10.0,56.6 -7.6,56.6 -5.1,57.1 -2.7,56.9 -0.3,57.4 2.2,56.1 5.1,56.0 9.0,54.8" fill="none" stroke="rgb(128,128,128)" stroke-width="2.413669340022376" stroke-linejoin="round" stroke-linecap="round" filter="url(#fuzzy_av_1779093954968_ml3qkue3b3)" opacity="0.8942033804296278"/><polyline points="-55.1,6.7 -54.9,7.5 -54.7,10.8 -54.9,14.1 -55.5,17.2 -56.4,18.7 -57.1,21.9 -57.5,25.1 -57.2,27.3 -56.2,29.6 -54.7,33.1 -52.8,34.9 -50.8,35.9 -48.8,39.3 -46.8,41.2 -44.7,41.6 -42.7,44.7 -40.7,46.3 -38.7,46.3 -36.6,49.0 -34.4,49.7 -32.0,51.1 -29.4,51.1 -26.7,53.6 -24.0,52.9 -21.3,54.0 -18.7,54.7 -15.9,56.4 -12.8,56.3" fill="none" stroke="rgb(128,128,128)" stroke-width="1.4889990679597078" stroke-linejoin="round" stroke-linecap="round" filter="url(#fuzzy_av_1779093954968_ml3qkue3b3)" opacity="0.9320932703841077"/><polyline points="-55.2,6.1 -54.0,11.0 -52.7,15.2 -51.4,17.4 -50.3,19.8 -49.2,22.3 -47.8,24.2 -45.9,26.2 -43.7,28.9 -41.2,29.9 -38.8,33.2 -36.6,35.0 -34.6,37.7 -32.9,38.3 -31.3,39.9 -29.6,43.4 -27.9,44.9 -26.0,45.3 -24.0,48.3 -22.0,48.8 -20.0,49.2 -18.1,51.5 -16.3,51.4 -14.5,52.3 -12.7,54.6 -10.9,54.1 -9.1,54.5 -7.2,56.2 -5.4,55.4 -3.6,56.9 -1.9,55.9 -0.1,56.8 1.7,56.9 3.5,55.3 5.3,54.7 6.7,55.1 7.1,55.7" fill="none" stroke="rgb(128,128,128)" stroke-width="1.4533399735400865" stroke-linejoin="round" stroke-linecap="round" filter="url(#fuzzy_av_1779093954968_ml3qkue3b3)" opacity="0.8761920564713352"/><polyline points="-53.1,15.0 -52.1,19.2 -51.5,21.9 -51.0,25.6 -50.7,27.5 -50.4,30.4 -49.8,32.7 -48.6,34.0 -46.8,36.2 -44.6,38.1 -42.3,40.4 -40.1,43.4 -38.1,43.3 -36.3,46.4 -34.5,46.2 -32.7,48.4 -30.8,48.9 -28.6,51.3 -26.2,52.3 -23.6,52.5 -20.9,54.7 -18.1,54.1 -15.3,54.2 -12.5,55.8 -9.6,56.5 -6.7,57.1 -3.7,56.9 -0.7,56.7 2.3,57.3 5.3,55.9 8.3,55.3 11.2,56.0 14.2,54.3 17.4,55.3 20.8,54.5 23.9,52.4" fill="none" stroke="rgb(128,128,128)" stroke-width="2.275484697484059" stroke-linejoin="round" stroke-linecap="round" filter="url(#fuzzy_av_1779093954968_ml3qkue3b3)" opacity="0.9856488888115835"/><polyline points="-52.0,19.5 -51.6,21.8 -50.9,24.5 -50.0,26.1 -48.9,29.7 -47.6,30.8 -46.0,33.1 -44.4,35.6 -42.7,36.9 -41.0,39.3 -39.4,40.4 -37.6,42.0 -35.8,45.1 -33.9,45.9 -31.9,47.5 -29.7,48.0 -27.5,50.8 -25.2,52.2 -22.8,52.3 -20.4,54.1 -17.9,54.7 -15.4,55.3 -12.8,55.8 -10.2,55.9 -7.5,55.9 -4.8,56.6 -2.1,57.3 0.7,57.1 3.6,55.2 6.5,56.5 9.4,56.0 12.3,54.1 15.1,53.6 17.9,52.7 20.7,53.4 23.7,51.4 26.6,50.4 29.2,50.4 30.2,48.3" fill="none" stroke="rgb(128,128,128)" stroke-width="1.2571784857427888" stroke-linejoin="round" stroke-linecap="round" filter="url(#fuzzy_av_1779093954968_ml3qkue3b3)" opacity="0.853436315990909"/><polyline points="-51.8,20.2 -50.6,22.6 -49.3,26.2 -48.0,29.2 -46.7,31.9 -45.3,33.5 -43.8,36.5 -42.4,38.4 -40.8,38.9 -39.1,40.3 -37.3,42.2 -35.4,43.5 -33.4,45.6 -31.2,46.9 -29.0,49.9 -26.8,49.4 -24.5,51.0 -22.2,51.6 -19.8,53.6 -17.4,54.6 -14.9,54.9 -12.4,56.0 -9.8,55.7 -7.2,55.2 -4.6,57.2 -2.0,55.6 0.7,56.1 3.4,56.1 6.2,56.7 8.9,54.9 11.6,54.4 14.2,54.9 16.7,54.3 19.2,52.6 21.8,51.3 24.4,49.9 26.8,49.5 28.9,49.0 31.2,47.7" fill="none" stroke="rgb(128,128,128)" stroke-width="2.0962410807044014" stroke-linejoin="round" stroke-linecap="round" filter="url(#fuzzy_av_1779093954968_ml3qkue3b3)" opacity="0.9892448498009002"/><polyline points="-51.0,23.8 -51.3,27.5 -51.2,29.8 -49.6,31.0 -47.6,32.8 -45.9,36.1 -44.5,37.2 -43.4,40.3 -42.3,40.2 -41.0,42.2 -39.4,43.5 -37.6,46.5 -35.7,47.1 -33.7,48.7 -31.8,51.0 -29.8,50.8 -27.7,52.7 -25.4,54.2 -22.7,53.8 -19.7,55.4 -16.5,56.3 -13.3,56.0 -10.1,55.6 -7.0,56.8 -4.0,57.6 -0.8,56.6 3.2,57.0" fill="none" stroke="rgb(128,128,128)" stroke-width="1.3188295303651338" stroke-linejoin="round" stroke-linecap="round" filter="url(#fuzzy_av_1779093954968_ml3qkue3b3)" opacity="0.9560145981279986"/><polyline points="-48.1,28.5 -48.6,31.9 -48.9,34.4 -48.0,35.9 -46.6,38.8 -44.8,39.2 -43.0,40.7 -41.0,43.2 -38.9,44.9 -36.7,46.8 -34.4,47.6 -32.0,49.1 -29.6,49.7 -27.2,50.7 -24.8,53.2 -22.4,54.2 -19.8,53.6 -17.2,55.4 -14.4,56.0 -11.5,56.4 -8.6,56.4 -5.7,56.7 -2.6,56.4 0.6,57.2 4.1,57.2 7.9,55.6 11.9,56.3 15.5,54.4 18.4,54.7 20.7,53.2" fill="none" stroke="rgb(128,128,128)" stroke-width="1.106927658950322" stroke-linejoin="round" stroke-linecap="round" filter="url(#fuzzy_av_1779093954968_ml3qkue3b3)" opacity="0.7539623604575116"/><polyline points="-43.5,34.8 -41.9,38.9 -40.3,39.5 -38.5,41.7 -36.6,42.4 -34.5,44.1 -32.5,46.9 -30.5,48.0 -28.5,48.4 -26.4,50.4 -24.2,51.9 -21.9,51.4 -19.5,53.2 -17.2,54.6 -14.8,54.0 -12.5,55.8 -10.1,55.2 -7.7,55.3 -5.2,55.9 -2.8,55.6 -0.4,56.9 2.0,55.3 4.4,56.0 6.7,56.6 9.0,54.9 11.3,55.0 13.5,53.4 15.8,52.1 18.0,51.3 20.1,50.8 22.2,50.9 24.2,49.4 26.1,47.1 28.0,46.0 29.9,45.2 31.7,42.8 33.7,40.4" fill="none" stroke="rgb(128,128,128)" stroke-width="1.5623424774958057" stroke-linejoin="round" stroke-linecap="round" filter="url(#fuzzy_av_1779093954968_ml3qkue3b3)" opacity="0.9664143752385185"/><polyline points="-42.4,38.3 -41.9,38.6 -41.0,40.4 -39.7,40.8 -38.0,42.7 -36.1,44.7 -34.1,45.6 -32.1,48.7 -30.2,50.2 -28.4,50.0 -26.4,50.8 -24.3,52.0 -22.1,53.2 -19.6,53.4 -17.0,54.8 -14.2,55.2 -11.3,55.3 -8.3,56.1 -5.3,55.7 -2.1,56.1 1.1,57.0 4.5,56.6 8.0,55.8 11.5,55.1 14.9,54.8 18.3,53.4 21.8,54.5 25.6,52.4 29.9,52.0 34.7,49.9 40.3,47.9" fill="none" stroke="rgb(128,128,128)" stroke-width="1.4040825279528169" stroke-linejoin="round" stroke-linecap="round" filter="url(#fuzzy_av_1779093954968_ml3qkue3b3)" opacity="0.9872783803891533"/><polyline points="-36.8,43.4 -34.8,45.5 -32.7,47.2 -30.4,48.2 -28.0,50.0 -25.8,51.2 -23.6,51.1 -21.3,52.5 -19.0,54.5 -16.6,54.9 -14.2,55.7 -11.7,55.0 -9.2,54.9 -6.7,56.4 -4.1,57.1 -1.5,56.9 1.1,57.1 3.8,55.2 6.4,54.9 9.1,56.0 11.7,54.5 14.2,53.5 16.7,52.7 19.1,52.1 21.6,51.4 23.9,49.6 26.2,50.0 28.3,48.2 30.4,47.0 32.5,44.9 34.7,43.2 37.3,41.4 40.5,39.0" fill="none" stroke="rgb(128,128,128)" stroke-width="1.9036224162024555" stroke-linejoin="round" stroke-linecap="round" filter="url(#fuzzy_av_1779093954968_ml3qkue3b3)" opacity="0.9652493955159087"/></g><circle r="1.6226856976329398" cx="-10.497045054724492" cy="21.66028777466363" stroke="#111" fill="none" stroke-width="0.8247853639827256" filter="url(#fuzzy_av_1779093954968_ml3qkue3b3)"/><circle r="1.2495870555632507" cx="-9.644694257506215" cy="23.028387202034175" stroke="#111" fill="none" stroke-width="0.9790786278213015" filter="url(#fuzzy_av_1779093954968_ml3qkue3b3)"/><circle r="2.136112127591855" cx="-8.348400184492183" cy="20.086920429295482" stroke="#111" fill="none" stroke-width="1.088976384226135" filter="url(#fuzzy_av_1779093954968_ml3qkue3b3)"/><circle r="1.8706624134209984" cx="-9.161906879858385" cy="22.222598682679884" stroke="#111" fill="none" stroke-width="0.9379862177950543" filter="url(#fuzzy_av_1779093954968_ml3qkue3b3)"/><circle r="1.452810141784214" cx="-10.742045606000639" cy="21.332312809771732" stroke="#111" fill="none" stroke-width="0.9596343038484838" filter="url(#fuzzy_av_1779093954968_ml3qkue3b3)"/><circle r="1.292662407182401" cx="-10.302682141086684" cy="20.241423411826577" stroke="#111" fill="none" stroke-width="1.1542852120497764" filter="url(#fuzzy_av_1779093954968_ml3qkue3b3)"/><circle r="2.26780013094354" cx="-10.390819433964642" cy="20.688980022096445" stroke="#111" fill="none" stroke-width="1.0858568865220695" filter="url(#fuzzy_av_1779093954968_ml3qkue3b3)"/><circle r="2.442916998567757" cx="-8.988184771665992" cy="20.500792684602104" stroke="#111" fill="none" stroke-width="1.101713929325353" filter="url(#fuzzy_av_1779093954968_ml3qkue3b3)"/><circle r="1.263285322061932" cx="-10.506443520972624" cy="22.4605623152286" stroke="#111" fill="none" stroke-width="1.2665911970749462" filter="url(#fuzzy_av_1779093954968_ml3qkue3b3)"/><circle r="1.820663895449272" cx="-9.50578198612269" cy="20.430721994744893" stroke="#111" fill="none" stroke-width="1.2845349957141834" filter="url(#fuzzy_av_1779093954968_ml3qkue3b3)"/><circle r="1.938996370269801" cx="6.909487828202884" cy="17.33632481832099" stroke="#111" fill="none" stroke-width="1.2689057083344735" filter="url(#fuzzy_av_1779093954968_ml3qkue3b3)"/><circle r="0.8137862784404494" cx="6.751052833181443" cy="14.243487372803393" stroke="#111" fill="none" stroke-width="1.064505024277766" filter="url(#fuzzy_av_1779093954968_ml3qkue3b3)"/><circle r="1.3189641792180333" cx="8.409853509821666" cy="14.10487617315256" stroke="#111" fill="none" stroke-width="0.8249488751101813" filter="url(#fuzzy_av_1779093954968_ml3qkue3b3)"/><circle r="1.0066574420204206" cx="9.246477609571153" cy="13.802409253073401" stroke="#111" fill="none" stroke-width="1.151115244120792" filter="url(#fuzzy_av_1779093954968_ml3qkue3b3)"/><circle r="2.4668176055202693" cx="8.13295444975122" cy="13.913045207001112" stroke="#111" fill="none" stroke-width="0.9136650802825661" filter="url(#fuzzy_av_1779093954968_ml3qkue3b3)"/><circle r="1.637629142672373" cx="7.009126569686996" cy="14.245956127035097" stroke="#111" fill="none" stroke-width="1.1316703329695936" filter="url(#fuzzy_av_1779093954968_ml3qkue3b3)"/><circle r="1.7584539028335906" cx="6.848797113737272" cy="14.310490023472003" stroke="#111" fill="none" stroke-width="0.9240664888768719" filter="url(#fuzzy_av_1779093954968_ml3qkue3b3)"/><circle r="1.6250391679377398" cx="8.871991762348408" cy="16.47008818963947" stroke="#111" fill="none" stroke-width="1.0010588813366845" filter="url(#fuzzy_av_1779093954968_ml3qkue3b3)"/><circle r="0.9797941390033338" cx="8.46183956280517" cy="16.63982984298443" stroke="#111" fill="none" stroke-width="0.8653219928591895" filter="url(#fuzzy_av_1779093954968_ml3qkue3b3)"/><circle r="1.9835163861216316" cx="6.138126370223107" cy="14.225683145598254" stroke="#111" fill="none" stroke-width="1.197398827406888" filter="url(#fuzzy_av_1779093954968_ml3qkue3b3)"/><polyline points="-43.4,28.0 -42.5,28.7 -41.7,29.4 -40.8,30.1 -40.0,30.8 -39.1,31.5 -38.3,32.1 -37.5,32.8 -36.6,33.5 -35.8,34.2 -35.0,34.8 -34.2,35.5 -33.4,36.1 -32.6,36.7 -31.8,37.4 -31.0,38.0 -30.3,38.6 -29.5,39.2 -28.7,39.8 -28.0,40.4 -27.2,40.9 -26.4,41.5 -25.7,42.0 -24.9,42.6 -24.2,43.1 -23.4,43.6 -22.7,44.1 -22.0,44.6 -21.2,45.1 -20.5,45.5 -19.7,46.0 -19.0,46.4 -18.3,46.8 -17.6,47.2 -16.8,47.6 -16.1,48.0 -15.4,48.3 -14.6,48.6 -13.9,48.9 -13.2,49.2 -12.4,49.5 -11.7,49.8 -11.0,50.0 -10.2,50.2 -9.5,50.4 -8.8,50.6 -8.0,50.8 -7.3,50.9 -6.6,51.0 -5.8,51.1 -5.1,51.2 -4.3,51.2 -3.6,51.3 -2.8,51.3 -2.0,51.2 -1.3,51.2 -0.5,51.1 0.3,51.0 1.1,50.9 1.8,50.7 2.6,50.6 3.4,50.4 4.2,50.1 5.0,49.9 5.8,49.6 6.6,49.3 7.5,49.0 8.3,48.6 9.1,48.2 10.0,47.8 10.8,47.3 11.7,46.8 12.6,46.3 13.4,45.7 14.3,45.2 15.2,44.5 16.1,43.9 17.0,43.2 17.9,42.5 18.8,41.7 19.8,41.0 20.7,40.1 21.7,39.3 22.6,38.4 23.6,37.5 24.6,36.5 25.6,35.5 26.6,34.5 27.6,33.4 28.7,32.3 29.7,31.2 30.8,30.0 31.8,28.8 32.9,27.5 34.0,26.2 35.1,24.9 36.2,23.5 37.3,22.1 38.5,20.6 39.6,19.1 40.8,17.5 39.6,19.1 38.5,20.6 37.3,22.1 36.2,23.5 35.1,24.9 34.0,26.2 32.9,27.5 31.8,28.8 30.8,30.0 29.7,31.2 28.7,32.3 27.6,33.4 26.6,34.5 25.6,35.5 24.6,36.5 23.6,37.5 22.6,38.4 21.7,39.3 20.7,40.1 19.8,41.0 18.8,41.7 17.9,42.5 17.0,43.2 16.1,43.9 15.2,44.5 14.3,45.2 13.4,45.7 12.6,46.3 11.7,46.8 10.8,47.3 10.0,47.8 9.1,48.2 8.3,48.6 7.5,49.0 6.6,49.3 5.8,49.6 5.0,49.9 4.2,50.1 3.4,50.4 2.6,50.6 1.8,50.7 1.1,50.9 0.3,51.0 -0.5,51.1 -1.3,51.2 -2.0,51.2 -2.8,51.3 -3.6,51.3 -4.3,51.2 -5.1,51.2 -5.8,51.1 -6.6,51.0 -7.3,50.9 -8.0,50.8 -8.8,50.6 -9.5,50.4 -10.2,50.2 -11.0,50.0 -11.7,49.8 -12.4,49.5 -13.2,49.2 -13.9,48.9 -14.6,48.6 -15.4,48.3 -16.1,48.0 -16.8,47.6 -17.6,47.2 -18.3,46.8 -19.0,46.4 -19.7,46.0 -20.5,45.5 -21.2,45.1 -22.0,44.6 -22.7,44.1 -23.4,43.6 -24.2,43.1 -24.9,42.6 -25.7,42.0 -26.4,41.5 -27.2,40.9 -28.0,40.4 -28.7,39.8 -29.5,39.2 -30.3,38.6 -31.0,38.0 -31.8,37.4 -32.6,36.7 -33.4,36.1 -34.2,35.5 -35.0,34.8 -35.8,34.2 -36.6,33.5 -37.5,32.8 -38.3,32.1 -39.1,31.5 -40.0,30.8 -40.8,30.1 -41.7,29.4 -42.5,28.7" fill="rgb(215,127,140)" stroke="#111" stroke-width="2.881765109646227" stroke-linejoin="round" filter="url(#fuzzy_av_1779093954968_ml3qkue3b3)"/></g><g class="accessory-svg accessory-chess" transform="translate(71.4 -26.6) rotate(-4.7) scale(0.851)">
      <circle cx="0" cy="-8" r="3" fill="#1E40AF"/><path d="M-4 -5h8l-1 11h-6z" fill="#1E40AF"/><path d="M-8 9h16v4h-16z" fill="#1E40AF"/><path d="M-6 6h12" stroke="#f8fafc" stroke-width="1" opacity=".5"/>
    </g><g class="accessory-svg accessory-brain" transform="translate(31.7 69.0) rotate(8.1) scale(0.936)">
      <path d="M-8 1c-5-4-1-11 4-8 2-5 8-2 8 2 5-1 8 5 4 9 2 5-5 9-9 5-4 4-11-2-7-8z" fill="#f9a8d4" stroke="#111827" stroke-width="1.1"/><path d="M-5-3c4 0 3 4 0 5M0-7c-2 4 2 5 0 9M5-3c-4 1-3 5 0 6" fill="none" stroke="#be185d" stroke-width="1" stroke-linecap="round"/>
    </g><g class="accessory-svg accessory-ruler" transform="translate(-75.8 13.8) rotate(0.8) scale(1.099)">
      <path d="M-10 7L7-10l5 5L-5 12z" fill="#fbbf24" stroke="#111827" stroke-width="1.1"/><path d="M-5 2l3 3M-1-2l2 2M3-6l3 3" stroke="#111827" stroke-width=".9"/>
    </g><g class="accessory-svg accessory-target" transform="translate(15.3 -75.0) rotate(8.7) scale(0.936)">
      <circle cx="0" cy="0" r="11" fill="#f8fafc" stroke="#111827" stroke-width="1.2"/><circle cx="0" cy="0" r="7" fill="none" stroke="#ef4444" stroke-width="2"/><circle cx="0" cy="0" r="2.6" fill="#ef4444"/><path d="M0-13v5M0 8v5M-13 0h5M8 0h5" stroke="#111827" stroke-width="1"/>
    </g></svg>