<svg xmlns="http://www.w3.org/2000/svg" viewBox="-100 -100 200 200" width="400" height="400" role="img" aria-label="护犊子 avatar"><defs>
      <filter id="fuzzy_av_1779093954983_rq5patbcp5j" x="-8%" y="-8%" width="116%" height="116%">
        <feTurbulence baseFrequency="0.045" numOctaves="3" type="fractalNoise" result="noise"/>
        <feDisplacementMap in="SourceGraphic" in2="noise" scale="1.6"/>
      </filter>
      <clipPath id="leftEye_av_1779093954983_rq5patbcp5j"><polyline points="-24.1,-1.0 -24.0,-1.1 -23.8,-1.3 -23.6,-1.4 -23.4,-1.6 -23.2,-1.7 -22.9,-1.9 -22.6,-2.0 -22.3,-2.2 -22.0,-2.4 -21.7,-2.5 -21.3,-2.7 -20.9,-2.8 -20.4,-3.0 -20.0,-3.1 -19.5,-3.3 -19.1,-3.5 -18.7,-3.6 -18.2,-3.8 -17.7,-4.0 -17.1,-4.2 -16.5,-4.3 -15.9,-4.5 -15.2,-4.7 -14.5,-4.8 -13.8,-5.0 -13.0,-5.1 -12.2,-5.3 -11.4,-5.4 -10.6,-5.5 -9.8,-5.7 -8.9,-5.8 -8.1,-5.9 -7.2,-6.0 -6.3,-6.0 -5.4,-6.1 -4.6,-6.2 -3.7,-6.2 -2.8,-6.3 -2.0,-6.3 -1.1,-6.3 -0.3,-6.3 0.6,-6.3 1.4,-6.3 2.2,-6.3 2.9,-6.2 3.7,-6.2 4.4,-6.1 5.1,-6.1 5.8,-6.0 6.5,-5.9 7.1,-5.8 7.7,-5.7 8.3,-5.6 8.8,-5.5 9.3,-5.3 9.8,-5.2 10.3,-5.0 10.7,-4.9 11.2,-4.7 11.5,-4.6 11.9,-4.4 12.2,-4.2 12.6,-4.0 12.8,-3.9 13.1,-3.7 13.4,-3.5 13.6,-3.3 13.8,-3.1 14.0,-2.9 14.2,-2.7 14.3,-2.5 14.5,-2.3 14.6,-2.1 14.7,-1.9 14.7,-1.7 14.8,-1.4 14.9,-1.2 14.9,-1.0 14.9,-0.8 15.3,1.1 15.0,1.3 14.8,1.5 14.6,1.6 14.3,1.8 14.0,2.0 13.8,2.2 13.5,2.4 13.2,2.5 13.0,2.7 12.7,2.9 12.4,3.1 12.1,3.2 11.8,3.4 11.5,3.5 11.2,3.7 10.8,3.9 10.5,4.0 10.2,4.2 9.8,4.3 9.5,4.5 9.1,4.6 8.7,4.8 8.4,4.9 8.0,5.0 7.6,5.2 7.2,5.3 6.8,5.4 6.3,5.5 5.9,5.6 5.5,5.7 5.0,5.8 4.6,5.9 4.1,6.0 3.6,6.1 3.1,6.1 2.6,6.2 2.1,6.2 1.6,6.3 1.1,6.3 0.6,6.3 0.0,6.3 -0.5,6.3 -1.1,6.3 -1.6,6.3 -2.2,6.3 -2.8,6.3 -3.3,6.2 -3.9,6.1 -4.5,6.1 -5.1,6.0 -5.7,5.9 -6.3,5.8 -6.9,5.7 -7.6,5.6 -8.2,5.5 -8.8,5.4 -9.4,5.2 -10.1,5.1 -10.7,4.9 -11.3,4.8 -11.9,4.6 -12.6,4.4 -13.2,4.2 -13.8,4.1 -14.3,3.9 -14.8,3.8 -15.3,3.6 -15.8,3.4 -16.3,3.3 -16.8,3.1 -17.3,2.9 -17.7,2.8 -18.2,2.6 -18.7,2.4 -19.1,2.2 -19.5,2.0 -19.9,1.8 -20.3,1.6 -20.7,1.4"/></clipPath>
      <clipPath id="rightEye_av_1779093954983_rq5patbcp5j"><polyline points="-23.8,0.4 -23.7,0.2 -23.6,0.0 -23.5,-0.2 -23.3,-0.4 -23.1,-0.6 -22.9,-0.8 -22.7,-1.0 -22.4,-1.2 -22.1,-1.4 -21.8,-1.6 -21.5,-1.8 -21.1,-2.0 -20.7,-2.2 -20.3,-2.4 -19.8,-2.6 -19.4,-2.9 -19.0,-3.1 -18.6,-3.4 -18.1,-3.6 -17.5,-3.8 -16.9,-4.1 -16.3,-4.3 -15.7,-4.5 -15.0,-4.8 -14.3,-5.0 -13.5,-5.2 -12.7,-5.4 -12.0,-5.6 -11.1,-5.8 -10.3,-5.9 -9.5,-6.1 -8.6,-6.2 -7.8,-6.4 -6.9,-6.5 -6.1,-6.6 -5.2,-6.7 -4.3,-6.8 -3.5,-6.9 -2.6,-6.9 -1.8,-7.0 -1.0,-7.0 -0.2,-7.0 0.6,-7.0 1.4,-7.0 2.1,-7.0 2.9,-7.0 3.6,-6.9 4.3,-6.8 4.9,-6.7 5.6,-6.6 6.2,-6.5 6.7,-6.4 7.3,-6.3 7.8,-6.1 8.3,-6.0 8.8,-5.8 9.2,-5.6 9.6,-5.5 10.0,-5.3 10.3,-5.1 10.6,-4.9 10.9,-4.7 11.2,-4.4 11.4,-4.2 11.7,-4.0 11.9,-3.8 12.0,-3.5 12.2,-3.3 12.3,-3.1 12.4,-2.8 12.5,-2.6 12.6,-2.3 12.7,-2.1 12.7,-1.8 12.7,-1.6 12.7,-1.3 12.7,-1.1 12.6,-0.8 12.6,-0.5 13.8,1.9 13.6,2.1 13.4,2.2 13.1,2.4 12.9,2.6 12.6,2.8 12.4,2.9 12.1,3.1 11.8,3.3 11.6,3.4 11.3,3.6 11.0,3.7 10.8,3.9 10.5,4.0 10.2,4.2 9.9,4.4 9.6,4.5 9.4,4.6 9.1,4.8 8.8,4.9 8.5,5.1 8.2,5.2 7.8,5.4 7.5,5.5 7.2,5.6 6.9,5.7 6.6,5.9 6.2,6.0 5.9,6.1 5.5,6.2 5.2,6.3 4.8,6.4 4.5,6.5 4.1,6.6 3.8,6.7 3.4,6.8 3.0,6.8 2.6,6.9 2.2,6.9 1.8,7.0 1.4,7.0 1.0,7.1 0.5,7.1 0.1,7.1 -0.4,7.1 -0.8,7.1 -1.3,7.1 -1.8,7.1 -2.3,7.1 -2.8,7.0 -3.3,7.0 -3.9,6.9 -4.4,6.9 -5.0,6.8 -5.6,6.7 -6.2,6.6 -6.8,6.5 -7.4,6.4 -8.0,6.3 -8.7,6.2 -9.3,6.1 -10.0,5.9 -10.7,5.8 -11.4,5.6 -12.1,5.4 -12.6,5.3 -13.1,5.2 -13.7,5.0 -14.2,4.9 -14.7,4.8 -15.3,4.6 -15.8,4.5 -16.3,4.3 -16.8,4.1 -17.3,4.0 -17.8,3.8 -18.3,3.6 -18.8,3.4 -19.3,3.2 -19.7,3.1"/></clipPath>
      <linearGradient id="rainbow_av_1779093954983_rq5patbcp5j" x1="0%" y1="0%" x2="100%" y2="0%">
        <stop offset="0%" stop-color="#92400E"/><stop offset="42%" stop-color="#22D3EE"/><stop offset="100%" stop-color="#78350F"/>
      </linearGradient>
      <linearGradient id="splitHair_av_1779093954983_rq5patbcp5j" x1="0%" y1="0%" x2="100%" y2="0%">
        <stop offset="49%" stop-color="#111827"/><stop offset="51%" stop-color="#F9FAFB"/>
      </linearGradient>
      <radialGradient id="halo_av_1779093954983_rq5patbcp5j"><stop offset="0%" stop-color="#92400E" stop-opacity=".45"/><stop offset="100%" stop-color="#92400E" stop-opacity="0"/></radialGradient>
    </defs><rect x="-100" y="-100" width="200" height="200" fill="#BC8F8F"/><g opacity="1"><polyline id="faceContour" class="face-shape" points="58.9,-7.0 58.6,-4.7 58.4,-4.2 58.1,-3.0 57.8,0.1 57.2,1.9 57.2,2.6 57.1,3.4 56.3,6.2 57.1,4.4 55.9,8.1 55.9,7.6 55.1,11.0 54.5,12.3 54.4,12.7 54.7,12.9 53.4,15.2 53.1,16.0 53.0,16.8 51.6,19.9 51.0,21.3 51.1,21.0 49.7,24.4 50.0,23.7 50.1,23.9 48.7,26.9 47.5,28.8 47.1,29.9 46.0,31.7 46.1,31.8 45.7,32.7 44.8,34.3 43.1,36.5 42.1,38.0 42.1,38.6 42.1,38.9 41.6,40.4 40.6,41.9 40.9,42.1 39.1,44.6 37.8,46.5 37.9,47.1 36.1,49.3 36.1,49.9 33.4,51.7 33.4,51.6 33.0,51.2 29.2,53.6 27.7,54.0 28.2,53.5 25.2,54.8 25.5,54.4 24.9,54.4 22.0,55.7 22.1,55.4 19.5,56.3 18.4,56.5 17.9,56.5 15.8,57.1 15.8,56.9 12.5,57.8 12.7,57.7 11.8,57.7 10.9,57.9 9.5,58.1 6.2,58.6 6.6,58.5 2.9,58.8 2.0,58.8 0.7,58.8 -0.7,58.8 -0.6,58.8 -1.7,58.8 -3.4,58.7 -6.0,58.5 -6.3,58.5 -7.3,58.5 -10.4,58.0 -10.1,58.1 -11.0,58.1 -13.5,57.6 -13.5,57.7 -16.3,57.0 -16.9,56.9 -18.7,56.4 -19.4,56.2 -22.5,55.2 -23.4,54.8 -25.1,54.4 -25.9,54.2 -25.6,54.6 -26.4,54.4 -29.3,53.0 -29.8,53.0 -31.7,52.1 -33.1,51.6 -35.7,50.3 -34.6,50.9 -36.0,49.1 -37.5,47.1 -38.7,45.5 -40.1,43.6 -39.7,43.2 -39.3,43.0 -42.4,39.3 -41.7,39.7 -43.4,37.1 -44.6,35.6 -43.4,36.3 -43.9,35.1 -45.0,33.5 -45.4,32.6 -46.9,30.2 -47.8,28.5 -47.5,28.5 -48.9,26.3 -50.2,24.0 -49.7,24.5 -50.3,23.3 -50.5,22.5 -50.9,21.1 -52.1,19.2 -53.2,16.3 -53.2,15.6 -52.9,16.0 -54.5,12.5 -54.4,12.7 -55.3,9.5 -55.7,8.4 -55.8,7.8 -55.7,8.4 -56.3,5.9 -57.0,3.7 -57.6,1.4 -57.6,1.7 -57.5,0.4 -57.9,-0.3 -57.8,-0.8 -58.0,-3.1 -58.3,-3.1 -58.6,-6.1 -58.8,-8.2 -58.7,-7.4 -58.7,-9.5 -59.3,-12.0 -58.8,-11.3 -59.3,-12.4 -59.2,-14.2 -59.0,-17.1 -58.9,-19.6 -59.2,-19.3 -59.0,-21.9 -58.7,-22.0 -58.8,-24.0 -58.9,-22.8 -58.7,-25.2 -58.3,-26.2 -57.5,-29.7 -57.5,-30.9 -57.3,-31.4 -56.8,-32.4 -57.1,-33.0 -56.6,-34.6 -55.9,-36.5 -55.4,-38.0 -55.5,-37.6 -54.4,-40.5 -54.3,-40.7 -54.5,-41.3 -53.3,-43.1 -52.8,-44.8 -51.1,-47.3 -50.9,-47.7 -51.3,-48.2 -49.7,-50.3 -49.6,-50.9 -48.9,-52.1 -48.4,-53.5 -45.6,-56.5 -46.9,-56.0 -46.2,-57.1 -45.9,-58.4 -43.4,-61.1 -42.6,-62.0 -42.9,-62.1 -41.6,-62.7 -37.9,-64.4 -35.4,-65.5 -35.5,-65.1 -35.3,-64.9 -31.2,-66.7 -31.7,-66.3 -29.3,-67.0 -26.4,-67.9 -25.1,-68.2 -25.3,-67.9 -21.5,-68.9 -21.8,-68.8 -18.7,-69.5 -17.2,-69.6 -15.7,-69.8 -16.5,-69.6 -12.9,-70.2 -13.1,-70.1 -10.4,-70.4 -10.1,-70.4 -5.7,-70.8 -5.2,-70.8 -2.8,-70.9 -2.4,-70.9 0.4,-70.9 4.0,-70.8 4.5,-70.8 3.6,-70.9 6.9,-70.7 9.6,-70.5 7.8,-70.7 12.1,-70.2 15.5,-69.8 13.1,-70.2 14.5,-70.0 17.7,-69.6 19.3,-69.2 21.6,-68.8 20.7,-69.1 26.6,-67.6 26.7,-67.7 25.7,-68.2 28.1,-67.5 29.0,-67.3 33.7,-65.6 34.2,-65.6 34.5,-65.7 37.1,-64.7 38.5,-64.2 39.5,-64.0 42.8,-62.2 42.4,-62.4 44.3,-60.3 44.5,-59.4 46.7,-57.2 46.5,-56.5 47.0,-55.3 47.2,-54.5 48.6,-52.7 49.3,-51.4 49.6,-50.8 51.8,-47.9 51.2,-47.7 51.2,-47.0 53.0,-44.6 53.6,-43.0 53.4,-42.8 55.0,-40.0 54.6,-39.9 56.1,-37.2 55.2,-37.9 55.4,-37.5 57.2,-33.3 57.2,-32.0 56.6,-33.6 57.3,-31.3 57.4,-31.1 57.9,-29.7 58.5,-25.5 58.4,-26.5 58.6,-25.0 58.6,-24.1 58.9,-20.7 59.1,-22.2 59.3,-17.7 59.3,-17.0 59.3,-18.5 59.4,-14.8 59.1,-15.6 59.2,-11.2 59.0,-12.3 59.0,-9.8 58.7,-7.7 58.9,-7.4 58.9,-7.0 58.6,-4.7" fill="#ffc9a9" stroke="#111" stroke-width="2.2" stroke-linejoin="round" filter="url(#fuzzy_av_1779093954983_rq5patbcp5j)"/><g id="leftEye" transform="translate(-37.1 -27.3)"><polyline points="-24.1,-1.0 -24.0,-1.1 -23.8,-1.3 -23.6,-1.4 -23.4,-1.6 -23.2,-1.7 -22.9,-1.9 -22.6,-2.0 -22.3,-2.2 -22.0,-2.4 -21.7,-2.5 -21.3,-2.7 -20.9,-2.8 -20.4,-3.0 -20.0,-3.1 -19.5,-3.3 -19.1,-3.5 -18.7,-3.6 -18.2,-3.8 -17.7,-4.0 -17.1,-4.2 -16.5,-4.3 -15.9,-4.5 -15.2,-4.7 -14.5,-4.8 -13.8,-5.0 -13.0,-5.1 -12.2,-5.3 -11.4,-5.4 -10.6,-5.5 -9.8,-5.7 -8.9,-5.8 -8.1,-5.9 -7.2,-6.0 -6.3,-6.0 -5.4,-6.1 -4.6,-6.2 -3.7,-6.2 -2.8,-6.3 -2.0,-6.3 -1.1,-6.3 -0.3,-6.3 0.6,-6.3 1.4,-6.3 2.2,-6.3 2.9,-6.2 3.7,-6.2 4.4,-6.1 5.1,-6.1 5.8,-6.0 6.5,-5.9 7.1,-5.8 7.7,-5.7 8.3,-5.6 8.8,-5.5 9.3,-5.3 9.8,-5.2 10.3,-5.0 10.7,-4.9 11.2,-4.7 11.5,-4.6 11.9,-4.4 12.2,-4.2 12.6,-4.0 12.8,-3.9 13.1,-3.7 13.4,-3.5 13.6,-3.3 13.8,-3.1 14.0,-2.9 14.2,-2.7 14.3,-2.5 14.5,-2.3 14.6,-2.1 14.7,-1.9 14.7,-1.7 14.8,-1.4 14.9,-1.2 14.9,-1.0 14.9,-0.8 15.3,1.1 15.0,1.3 14.8,1.5 14.6,1.6 14.3,1.8 14.0,2.0 13.8,2.2 13.5,2.4 13.2,2.5 13.0,2.7 12.7,2.9 12.4,3.1 12.1,3.2 11.8,3.4 11.5,3.5 11.2,3.7 10.8,3.9 10.5,4.0 10.2,4.2 9.8,4.3 9.5,4.5 9.1,4.6 8.7,4.8 8.4,4.9 8.0,5.0 7.6,5.2 7.2,5.3 6.8,5.4 6.3,5.5 5.9,5.6 5.5,5.7 5.0,5.8 4.6,5.9 4.1,6.0 3.6,6.1 3.1,6.1 2.6,6.2 2.1,6.2 1.6,6.3 1.1,6.3 0.6,6.3 0.0,6.3 -0.5,6.3 -1.1,6.3 -1.6,6.3 -2.2,6.3 -2.8,6.3 -3.3,6.2 -3.9,6.1 -4.5,6.1 -5.1,6.0 -5.7,5.9 -6.3,5.8 -6.9,5.7 -7.6,5.6 -8.2,5.5 -8.8,5.4 -9.4,5.2 -10.1,5.1 -10.7,4.9 -11.3,4.8 -11.9,4.6 -12.6,4.4 -13.2,4.2 -13.8,4.1 -14.3,3.9 -14.8,3.8 -15.3,3.6 -15.8,3.4 -16.3,3.3 -16.8,3.1 -17.3,2.9 -17.7,2.8 -18.2,2.6 -18.7,2.4 -19.1,2.2 -19.5,2.0 -19.9,1.8 -20.3,1.6 -20.7,1.4" fill="#fff" stroke="#fff" stroke-width="0" stroke-linejoin="round" filter="url(#fuzzy_av_1779093954983_rq5patbcp5j)"/><polyline points="24.4,0.2 24.5,0.1 24.5,0.0 24.5,-0.1 24.5,-0.2 24.5,-0.3 24.5,-0.5 24.4,-0.6 24.3,-0.7 24.2,-0.9 -24.1,-1.0 -24.0,-1.1 -23.8,-1.3 -23.6,-1.4 -23.4,-1.6 -23.2,-1.7 -22.9,-1.9 -22.6,-2.0 -22.3,-2.2 -22.0,-2.4 -21.7,-2.5 -21.3,-2.7 -20.9,-2.8 -20.4,-3.0 -20.0,-3.1 -19.5,-3.3 -19.1,-3.5 -18.7,-3.6 -18.2,-3.8 -17.7,-4.0 -17.1,-4.2 -16.5,-4.3 -15.9,-4.5 -15.2,-4.7 -14.5,-4.8 -13.8,-5.0 -13.0,-5.1 -12.2,-5.3 -11.4,-5.4 -10.6,-5.5 -9.8,-5.7 -8.9,-5.8 -8.1,-5.9 -7.2,-6.0 -6.3,-6.0 -5.4,-6.1 -4.6,-6.2 -3.7,-6.2 -2.8,-6.3 -2.0,-6.3 -1.1,-6.3 -0.3,-6.3 0.6,-6.3 1.4,-6.3 2.2,-6.3 2.9,-6.2 3.7,-6.2 4.4,-6.1 5.1,-6.1 5.8,-6.0 6.5,-5.9 7.1,-5.8 7.7,-5.7 8.3,-5.6 8.8,-5.5 9.3,-5.3 9.8,-5.2 10.3,-5.0 10.7,-4.9 11.2,-4.7 11.5,-4.6 11.9,-4.4 12.2,-4.2 12.6,-4.0 12.8,-3.9 13.1,-3.7 13.4,-3.5 13.6,-3.3 13.8,-3.1 14.0,-2.9 14.2,-2.7 14.3,-2.5 14.5,-2.3 14.6,-2.1 14.7,-1.9 14.7,-1.7 14.8,-1.4 14.9,-1.2 14.9,-1.0 14.9,-0.8 -14.9,-0.6 -14.9,-0.3 -14.9,-0.1 -14.8,0.1 -14.8,0.3 -14.7,0.6 -14.7,0.8 -14.6,1.0 -14.5,1.3 -14.4,1.5" fill="none" stroke="#111" stroke-width="2.1249888359014375" stroke-linejoin="round" stroke-linecap="round" filter="url(#fuzzy_av_1779093954983_rq5patbcp5j)"/><polyline points="23.3,-0.6 23.2,-0.4 23.0,-0.2 22.8,0.0 22.6,0.2 22.3,0.4 22.0,0.6 21.7,0.8 21.4,1.0 21.1,1.2 -20.7,1.4 -20.3,1.6 -19.9,1.8 -19.5,2.0 -19.1,2.2 -18.7,2.4 -18.2,2.6 -17.7,2.8 -17.3,2.9 -16.8,3.1 -16.3,3.3 -15.8,3.4 -15.3,3.6 -14.8,3.8 -14.3,3.9 -13.8,4.1 -13.2,4.2 -12.6,4.4 -11.9,4.6 -11.3,4.8 -10.7,4.9 -10.1,5.1 -9.4,5.2 -8.8,5.4 -8.2,5.5 -7.6,5.6 -6.9,5.7 -6.3,5.8 -5.7,5.9 -5.1,6.0 -4.5,6.1 -3.9,6.1 -3.3,6.2 -2.8,6.3 -2.2,6.3 -1.6,6.3 -1.1,6.3 -0.5,6.3 0.0,6.3 0.6,6.3 1.1,6.3 1.6,6.3 2.1,6.2 2.6,6.2 3.1,6.1 3.6,6.1 4.1,6.0 4.6,5.9 5.0,5.8 5.5,5.7 5.9,5.6 6.3,5.5 6.8,5.4 7.2,5.3 7.6,5.2 8.0,5.0 8.4,4.9 8.7,4.8 9.1,4.6 9.5,4.5 9.8,4.3 10.2,4.2 10.5,4.0 10.8,3.9 11.2,3.7 11.5,3.5 11.8,3.4 12.1,3.2 12.4,3.1 12.7,2.9 13.0,2.7 13.2,2.5 13.5,2.4 13.8,2.2 14.0,2.0 14.3,1.8 14.6,1.6 14.8,1.5 15.0,1.3 15.3,1.1 -15.5,0.9 -15.7,0.7 -16.0,0.5 -16.2,0.4 -16.4,0.2 -16.6,-0.0 -16.8,-0.2 -17.0,-0.4 -17.2,-0.6 -17.4,-0.8" fill="none" stroke="#111" stroke-width="3.063495202365276" stroke-linejoin="round" stroke-linecap="round" filter="url(#fuzzy_av_1779093954983_rq5patbcp5j)"/><circle r="3.0669809419045655" cx="2.2479570871345187" cy="-5.658384767263646" stroke="#111" fill="none" stroke-width="1.093264256367931" filter="url(#fuzzy_av_1779093954983_rq5patbcp5j)" clip-path="url(#leftEye_av_1779093954983_rq5patbcp5j)"/><circle r="4.055998827373884" cx="5.181731768882764" cy="-2.400741666721654" stroke="#111" fill="none" stroke-width="1.228090990610223" filter="url(#fuzzy_av_1779093954983_rq5patbcp5j)" clip-path="url(#leftEye_av_1779093954983_rq5patbcp5j)"/><circle r="3.853229001063734" cx="3.3123329528923344" cy="-5.318327302203347" stroke="#111" fill="none" stroke-width="1.3310009789701485" filter="url(#fuzzy_av_1779093954983_rq5patbcp5j)" clip-path="url(#leftEye_av_1779093954983_rq5patbcp5j)"/><circle r="2.463975212890904" cx="4.3720934682567645" cy="-3.130165514807896" stroke="#111" fill="none" stroke-width="1.304782310507791" filter="url(#fuzzy_av_1779093954983_rq5patbcp5j)" clip-path="url(#leftEye_av_1779093954983_rq5patbcp5j)"/><circle r="2.6530351853198337" cx="4.42237457206903" cy="-1.4331345033320413" stroke="#111" fill="none" stroke-width="1.3358330776617127" filter="url(#fuzzy_av_1779093954983_rq5patbcp5j)" clip-path="url(#leftEye_av_1779093954983_rq5patbcp5j)"/><circle r="4.365661079325916" cx="5.028226629439541" cy="-1.437946532809986" stroke="#111" fill="none" stroke-width="0.8600574570485434" filter="url(#fuzzy_av_1779093954983_rq5patbcp5j)" clip-path="url(#leftEye_av_1779093954983_rq5patbcp5j)"/><circle r="2.4507475684377016" cx="3.682453854443912" cy="-1.3899485549636217" stroke="#111" fill="none" stroke-width="1.2619029579283616" filter="url(#fuzzy_av_1779093954983_rq5patbcp5j)" clip-path="url(#leftEye_av_1779093954983_rq5patbcp5j)"/><circle r="4.2615908394790685" cx="2.929659841834347" cy="-4.599505441911446" stroke="#111" fill="none" stroke-width="1.1241952355254967" filter="url(#fuzzy_av_1779093954983_rq5patbcp5j)" clip-path="url(#leftEye_av_1779093954983_rq5patbcp5j)"/><circle r="3.9449752947186596" cx="3.994115186746833" cy="-5.254843326775042" stroke="#111" fill="none" stroke-width="1.377242676144764" filter="url(#fuzzy_av_1779093954983_rq5patbcp5j)" clip-path="url(#leftEye_av_1779093954983_rq5patbcp5j)"/><circle r="4.075885964126617" cx="4.232124908980334" cy="-3.117995899764076" stroke="#111" fill="none" stroke-width="0.8507119173031719" filter="url(#fuzzy_av_1779093954983_rq5patbcp5j)" clip-path="url(#leftEye_av_1779093954983_rq5patbcp5j)"/></g><g id="rightEye" transform="translate(25.5 -30.0)"><polyline points="-23.8,0.4 -23.7,0.2 -23.6,0.0 -23.5,-0.2 -23.3,-0.4 -23.1,-0.6 -22.9,-0.8 -22.7,-1.0 -22.4,-1.2 -22.1,-1.4 -21.8,-1.6 -21.5,-1.8 -21.1,-2.0 -20.7,-2.2 -20.3,-2.4 -19.8,-2.6 -19.4,-2.9 -19.0,-3.1 -18.6,-3.4 -18.1,-3.6 -17.5,-3.8 -16.9,-4.1 -16.3,-4.3 -15.7,-4.5 -15.0,-4.8 -14.3,-5.0 -13.5,-5.2 -12.7,-5.4 -12.0,-5.6 -11.1,-5.8 -10.3,-5.9 -9.5,-6.1 -8.6,-6.2 -7.8,-6.4 -6.9,-6.5 -6.1,-6.6 -5.2,-6.7 -4.3,-6.8 -3.5,-6.9 -2.6,-6.9 -1.8,-7.0 -1.0,-7.0 -0.2,-7.0 0.6,-7.0 1.4,-7.0 2.1,-7.0 2.9,-7.0 3.6,-6.9 4.3,-6.8 4.9,-6.7 5.6,-6.6 6.2,-6.5 6.7,-6.4 7.3,-6.3 7.8,-6.1 8.3,-6.0 8.8,-5.8 9.2,-5.6 9.6,-5.5 10.0,-5.3 10.3,-5.1 10.6,-4.9 10.9,-4.7 11.2,-4.4 11.4,-4.2 11.7,-4.0 11.9,-3.8 12.0,-3.5 12.2,-3.3 12.3,-3.1 12.4,-2.8 12.5,-2.6 12.6,-2.3 12.7,-2.1 12.7,-1.8 12.7,-1.6 12.7,-1.3 12.7,-1.1 12.6,-0.8 12.6,-0.5 13.8,1.9 13.6,2.1 13.4,2.2 13.1,2.4 12.9,2.6 12.6,2.8 12.4,2.9 12.1,3.1 11.8,3.3 11.6,3.4 11.3,3.6 11.0,3.7 10.8,3.9 10.5,4.0 10.2,4.2 9.9,4.4 9.6,4.5 9.4,4.6 9.1,4.8 8.8,4.9 8.5,5.1 8.2,5.2 7.8,5.4 7.5,5.5 7.2,5.6 6.9,5.7 6.6,5.9 6.2,6.0 5.9,6.1 5.5,6.2 5.2,6.3 4.8,6.4 4.5,6.5 4.1,6.6 3.8,6.7 3.4,6.8 3.0,6.8 2.6,6.9 2.2,6.9 1.8,7.0 1.4,7.0 1.0,7.1 0.5,7.1 0.1,7.1 -0.4,7.1 -0.8,7.1 -1.3,7.1 -1.8,7.1 -2.3,7.1 -2.8,7.0 -3.3,7.0 -3.9,6.9 -4.4,6.9 -5.0,6.8 -5.6,6.7 -6.2,6.6 -6.8,6.5 -7.4,6.4 -8.0,6.3 -8.7,6.2 -9.3,6.1 -10.0,5.9 -10.7,5.8 -11.4,5.6 -12.1,5.4 -12.6,5.3 -13.1,5.2 -13.7,5.0 -14.2,4.9 -14.7,4.8 -15.3,4.6 -15.8,4.5 -16.3,4.3 -16.8,4.1 -17.3,4.0 -17.8,3.8 -18.3,3.6 -18.8,3.4 -19.3,3.2 -19.7,3.1" fill="#fff" stroke="#fff" stroke-width="0" stroke-linejoin="round" filter="url(#fuzzy_av_1779093954983_rq5patbcp5j)"/><polyline points="-23.3,2.0 -23.4,1.8 -23.5,1.7 -23.7,1.6 -23.8,1.4 -23.8,1.2 -23.9,1.1 -23.9,0.9 -23.9,0.7 -23.9,0.6 -23.8,0.4 -23.7,0.2 -23.6,0.0 -23.5,-0.2 -23.3,-0.4 -23.1,-0.6 -22.9,-0.8 -22.7,-1.0 -22.4,-1.2 -22.1,-1.4 -21.8,-1.6 -21.5,-1.8 -21.1,-2.0 -20.7,-2.2 -20.3,-2.4 -19.8,-2.6 -19.4,-2.9 -19.0,-3.1 -18.6,-3.4 -18.1,-3.6 -17.5,-3.8 -16.9,-4.1 -16.3,-4.3 -15.7,-4.5 -15.0,-4.8 -14.3,-5.0 -13.5,-5.2 -12.7,-5.4 -12.0,-5.6 -11.1,-5.8 -10.3,-5.9 -9.5,-6.1 -8.6,-6.2 -7.8,-6.4 -6.9,-6.5 -6.1,-6.6 -5.2,-6.7 -4.3,-6.8 -3.5,-6.9 -2.6,-6.9 -1.8,-7.0 -1.0,-7.0 -0.2,-7.0 0.6,-7.0 1.4,-7.0 2.1,-7.0 2.9,-7.0 3.6,-6.9 4.3,-6.8 4.9,-6.7 5.6,-6.6 6.2,-6.5 6.7,-6.4 7.3,-6.3 7.8,-6.1 8.3,-6.0 8.8,-5.8 9.2,-5.6 9.6,-5.5 10.0,-5.3 10.3,-5.1 10.6,-4.9 10.9,-4.7 11.2,-4.4 11.4,-4.2 11.7,-4.0 11.9,-3.8 12.0,-3.5 12.2,-3.3 12.3,-3.1 12.4,-2.8 12.5,-2.6 12.6,-2.3 12.7,-2.1 12.7,-1.8 12.7,-1.6 12.7,-1.3 12.7,-1.1 12.6,-0.8 12.6,-0.5 12.5,-0.3 12.4,-0.0 12.3,0.2 12.2,0.5 12.0,0.7 11.9,1.0 11.7,1.3 11.5,1.5 11.3,1.8 11.1,2.0" fill="none" stroke="#111" stroke-width="3.2279005582711986" stroke-linejoin="round" stroke-linecap="round" filter="url(#fuzzy_av_1779093954983_rq5patbcp5j)"/><polyline points="-23.0,1.1 -22.8,1.3 -22.6,1.5 -22.3,1.7 -22.0,1.9 -21.7,2.1 -21.3,2.3 -21.0,2.5 -20.6,2.7 -20.2,2.9 -19.7,3.1 -19.3,3.2 -18.8,3.4 -18.3,3.6 -17.8,3.8 -17.3,4.0 -16.8,4.1 -16.3,4.3 -15.8,4.5 -15.3,4.6 -14.7,4.8 -14.2,4.9 -13.7,5.0 -13.1,5.2 -12.6,5.3 -12.1,5.4 -11.4,5.6 -10.7,5.8 -10.0,5.9 -9.3,6.1 -8.7,6.2 -8.0,6.3 -7.4,6.4 -6.8,6.5 -6.2,6.6 -5.6,6.7 -5.0,6.8 -4.4,6.9 -3.9,6.9 -3.3,7.0 -2.8,7.0 -2.3,7.1 -1.8,7.1 -1.3,7.1 -0.8,7.1 -0.4,7.1 0.1,7.1 0.5,7.1 1.0,7.1 1.4,7.0 1.8,7.0 2.2,6.9 2.6,6.9 3.0,6.8 3.4,6.8 3.8,6.7 4.1,6.6 4.5,6.5 4.8,6.4 5.2,6.3 5.5,6.2 5.9,6.1 6.2,6.0 6.6,5.9 6.9,5.7 7.2,5.6 7.5,5.5 7.8,5.4 8.2,5.2 8.5,5.1 8.8,4.9 9.1,4.8 9.4,4.6 9.6,4.5 9.9,4.4 10.2,4.2 10.5,4.0 10.8,3.9 11.0,3.7 11.3,3.6 11.6,3.4 11.8,3.3 12.1,3.1 12.4,2.9 12.6,2.8 12.9,2.6 13.1,2.4 13.4,2.2 13.6,2.1 13.8,1.9 14.1,1.7 14.3,1.5 14.5,1.3 14.8,1.2 15.0,1.0 15.2,0.8 15.4,0.6 15.6,0.4 15.8,0.2 16.0,0.1" fill="none" stroke="#111" stroke-width="2.516748086772722" stroke-linejoin="round" stroke-linecap="round" filter="url(#fuzzy_av_1779093954983_rq5patbcp5j)"/><circle r="3.2596277535440485" cx="-16.2932974059332" cy="-2.238864838649953" stroke="#111" fill="none" stroke-width="1.2518017978539921" filter="url(#fuzzy_av_1779093954983_rq5patbcp5j)" clip-path="url(#rightEye_av_1779093954983_rq5patbcp5j)"/><circle r="3.75301496699624" cx="-12.199906206597332" cy="-0.5391304734057432" stroke="#111" fill="none" stroke-width="0.9640837541140845" filter="url(#fuzzy_av_1779093954983_rq5patbcp5j)" clip-path="url(#rightEye_av_1779093954983_rq5patbcp5j)"/><circle r="3.611767391585438" cx="-14.654040775520675" cy="-1.7866998855906093" stroke="#111" fill="none" stroke-width="1.2138470126866525" filter="url(#fuzzy_av_1779093954983_rq5patbcp5j)" clip-path="url(#rightEye_av_1779093954983_rq5patbcp5j)"/><circle r="2.718454593805589" cx="-14.920122280804549" cy="-2.5391283699045415" stroke="#111" fill="none" stroke-width="1.367976321389016" filter="url(#fuzzy_av_1779093954983_rq5patbcp5j)" clip-path="url(#rightEye_av_1779093954983_rq5patbcp5j)"/><circle r="2.369344282412066" cx="-14.821683947104408" cy="-0.4322841171279479" stroke="#111" fill="none" stroke-width="1.264773178236899" filter="url(#fuzzy_av_1779093954983_rq5patbcp5j)" clip-path="url(#rightEye_av_1779093954983_rq5patbcp5j)"/><circle r="4.219857283348043" cx="-12.283900728623038" cy="-2.928381157487138" stroke="#111" fill="none" stroke-width="0.8959419598073506" filter="url(#fuzzy_av_1779093954983_rq5patbcp5j)" clip-path="url(#rightEye_av_1779093954983_rq5patbcp5j)"/><circle r="3.140863648766692" cx="-13.935906546358199" cy="-0.8021749031572805" stroke="#111" fill="none" stroke-width="0.9585319522339316" filter="url(#fuzzy_av_1779093954983_rq5patbcp5j)" clip-path="url(#rightEye_av_1779093954983_rq5patbcp5j)"/><circle r="3.330817605442038" cx="-14.041037440528019" cy="-0.2677075587903439" stroke="#111" fill="none" stroke-width="1.2781504549271325" filter="url(#fuzzy_av_1779093954983_rq5patbcp5j)" clip-path="url(#rightEye_av_1779093954983_rq5patbcp5j)"/><circle r="2.4116930162125723" cx="-16.230764091176507" cy="0.8247973687085799" stroke="#111" fill="none" stroke-width="1.355750632923615" filter="url(#fuzzy_av_1779093954983_rq5patbcp5j)" clip-path="url(#rightEye_av_1779093954983_rq5patbcp5j)"/><circle r="2.306754028034753" cx="-13.464730288233467" cy="0.38231234027169503" stroke="#111" fill="none" stroke-width="1.181613738380821" filter="url(#fuzzy_av_1779093954983_rq5patbcp5j)" clip-path="url(#rightEye_av_1779093954983_rq5patbcp5j)"/></g><g id="hairs"><polyline points="-54.4,-41.9 -54.2,-42.9 -53.6,-42.1 -52.6,-44.3 -51.4,-47.3 -50.1,-47.5 -48.9,-50.9 -47.7,-52.7 -46.5,-54.0 -45.3,-54.1 -44.2,-56.9 -43.2,-57.4 -42.3,-60.5 -41.6,-61.1 -41.1,-61.4 -40.9,-62.8 -41.0,-63.1 -41.5,-63.8 -42.2,-62.6 -42.8,-63.5 -43.4,-61.7" fill="none" stroke="rgb(167,133,106)" stroke-width="0.8290514598341604" stroke-linejoin="round" stroke-linecap="round" filter="url(#fuzzy_av_1779093954983_rq5patbcp5j)" opacity="0.8811122423900704"/><polyline points="-46.2,-58.2 -45.2,-59.3 -43.6,-60.3 -41.8,-62.0 -39.6,-64.4 -37.2,-63.6 -34.4,-65.8 -31.6,-66.1 -28.8,-66.9 -26.1,-67.1 -23.6,-69.0 -21.1,-69.0 -18.9,-70.1 -16.9,-70.4 -15.3,-70.8 -14.1,-70.1 -13.4,-70.5 -13.2,-71.8 -13.1,-71.6 -12.9,-71.9" fill="none" stroke="rgb(167,133,106)" stroke-width="2.0062429325991697" stroke-linejoin="round" stroke-linecap="round" filter="url(#fuzzy_av_1779093954983_rq5patbcp5j)" opacity="0.9032089689335266"/><polyline points="53.0,-44.9 53.4,-44.8 53.6,-43.4 53.8,-42.8 53.7,-42.1 53.4,-41.7 52.8,-40.0 52.1,-40.2 51.0,-39.9 49.7,-40.0 48.1,-40.4 46.1,-41.4 43.8,-42.6 41.2,-42.1 38.1,-43.2 34.7,-45.9 30.7,-47.6 26.4,-48.6 21.5,-51.1 16.3,-54.2 10.5,-55.4 4.3,-58.5 -2.3,-63.6 -9.2,-67.5 -15.7,-71.3" fill="none" stroke="rgb(167,133,106)" stroke-width="1.7653268645346707" stroke-linejoin="round" stroke-linecap="round" filter="url(#fuzzy_av_1779093954983_rq5patbcp5j)" opacity="0.8613873794465738"/><polyline points="-59.3,-13.9 -58.9,-12.4 -58.3,-14.6 -57.3,-17.1 -55.8,-19.2 -54.0,-20.6 -51.7,-23.1 -49.1,-25.5 -46.1,-27.6 -42.8,-28.6 -39.0,-32.2 -35.0,-34.5 -30.6,-36.5 -26.0,-39.1 -21.2,-41.8 -16.3,-46.1 -11.2,-48.0 -5.9,-50.4 -0.5,-54.4 4.9,-57.5 10.4,-60.6 15.6,-63.5 20.7,-65.6 25.7,-69.2" fill="none" stroke="rgb(167,133,106)" stroke-width="2.156353502535497" stroke-linejoin="round" stroke-linecap="round" filter="url(#fuzzy_av_1779093954983_rq5patbcp5j)" opacity="0.7984893458234169"/><polyline points="-58.8,-25.2 -58.6,-25.3 -57.8,-25.9 -56.4,-29.7 -54.8,-30.7 -52.9,-33.4 -50.7,-36.3 -48.3,-38.5 -45.7,-42.6 -43.0,-43.4 -40.1,-47.9 -37.1,-51.2 -34.2,-52.7 -31.2,-57.3 -28.2,-58.5 -25.3,-62.7 -22.4,-64.7 -19.4,-67.8 -15.7,-70.0" fill="none" stroke="rgb(167,133,106)" stroke-width="2.146871904859799" stroke-linejoin="round" stroke-linecap="round" filter="url(#fuzzy_av_1779093954983_rq5patbcp5j)" opacity="0.8917763308344806"/><polyline points="-21.5,-69.0 -20.6,-70.0 -18.7,-69.7 -16.6,-70.6 -14.3,-71.2 -12.0,-70.0 -9.4,-70.1 -6.6,-69.4 -3.6,-70.3 -0.6,-70.8 2.5,-69.7 5.5,-70.6 8.4,-69.4 11.1,-70.2 13.6,-69.2 15.7,-70.7 17.5,-69.6 19.1,-69.2 20.3,-70.4 21.1,-70.1 21.1,-69.2 21.6,-69.3" fill="none" stroke="rgb(167,133,106)" stroke-width="1.9769844331708657" stroke-linejoin="round" stroke-linecap="round" filter="url(#fuzzy_av_1779093954983_rq5patbcp5j)" opacity="0.9700583236505622"/><polyline points="-35.3,-66.4 -32.7,-67.1 -31.1,-67.8 -29.7,-68.0 -28.5,-67.3 -27.5,-67.5 -26.8,-65.7 -26.3,-64.3 -26.0,-63.1 -25.9,-61.6 -26.1,-59.9 -26.7,-58.2 -27.5,-55.2 -28.6,-52.6 -30.0,-48.3 -31.7,-45.9 -33.5,-42.1 -35.8,-36.9 -38.3,-32.3 -41.3,-25.4 -44.7,-20.3 -48.5,-13.8 -52.8,-7.8 -57.5,-1.2" fill="none" stroke="rgb(167,133,106)" stroke-width="1.4697070659159825" stroke-linejoin="round" stroke-linecap="round" filter="url(#fuzzy_av_1779093954983_rq5patbcp5j)" opacity="0.7817728986937873"/><polyline points="48.6,-54.5 49.0,-52.4 49.0,-50.8 48.4,-48.5 47.3,-47.0 45.6,-44.6 43.4,-42.7 40.7,-40.5 37.5,-38.2 33.7,-35.2 29.3,-31.8 24.4,-27.1 18.9,-23.9 13.0,-20.5 6.5,-17.8 -0.5,-13.9 -8.0,-9.7 -16.0,-3.9 -24.5,0.3 -33.4,4.8 -42.9,11.1 -53.2,16.3" fill="none" stroke="rgb(167,133,106)" stroke-width="2.113738305292091" stroke-linejoin="round" stroke-linecap="round" filter="url(#fuzzy_av_1779093954983_rq5patbcp5j)" opacity="0.8706489136743732"/><polyline points="46.7,-58.7 46.7,-57.9 46.9,-56.6 47.2,-56.4 47.4,-54.2 47.5,-54.9 47.4,-53.1 46.9,-53.4 46.1,-51.7 45.0,-53.5 43.4,-53.1 41.3,-53.5 38.9,-54.1 36.0,-56.8 32.6,-58.4 28.7,-58.9 24.1,-61.2 18.9,-64.8 13.4,-68.7 6.9,-71.8" fill="none" stroke="rgb(167,133,106)" stroke-width="1.707683031955591" stroke-linejoin="round" stroke-linecap="round" filter="url(#fuzzy_av_1779093954983_rq5patbcp5j)" opacity="0.8632251761826666"/><polyline points="-13.1,-71.5 -10.9,-71.9 -8.9,-71.4 -6.8,-70.7 -4.7,-72.2 -2.7,-71.8 -0.8,-70.8 1.1,-72.0 2.7,-71.5 4.2,-71.5 5.4,-72.2 6.4,-71.7 7.2,-72.3 7.8,-70.7 8.0,-70.7 7.9,-71.8 7.4,-70.7 6.4,-71.1 5.1,-72.2 3.2,-71.2 0.9,-71.7 -2.0,-72.1 -5.4,-70.7 -9.2,-71.9 -12.9,-71.5" fill="none" stroke="rgb(167,133,106)" stroke-width="2.0956429369471445" stroke-linejoin="round" stroke-linecap="round" filter="url(#fuzzy_av_1779093954983_rq5patbcp5j)" opacity="0.8507858646842873"/><polyline points="-15.7,-70.1 -15.4,-71.1 -14.6,-70.7 -13.8,-69.6 -13.4,-67.9 -13.1,-66.6 -13.3,-65.6 -13.9,-63.1 -14.9,-60.4 -16.5,-56.6 -18.6,-53.2 -21.2,-48.2 -24.6,-43.2 -28.5,-37.5 -33.1,-31.6 -38.3,-25.0 -44.2,-17.3 -50.6,-9.1 -57.9,-0.9" fill="none" stroke="rgb(167,133,106)" stroke-width="1.8660356402466611" stroke-linejoin="round" stroke-linecap="round" filter="url(#fuzzy_av_1779093954983_rq5patbcp5j)" opacity="0.9955478019872777"/><polyline points="42.4,-62.9 43.7,-60.9 44.6,-59.8 45.2,-59.4 45.3,-58.2 45.1,-57.2 44.6,-57.0 43.7,-57.2 42.5,-58.4 40.8,-58.4 38.5,-59.0 35.5,-60.8 31.7,-62.1 27.2,-65.5 21.6,-67.5 14.5,-71.7" fill="none" stroke="rgb(167,133,106)" stroke-width="2.511527466306998" stroke-linejoin="round" stroke-linecap="round" filter="url(#fuzzy_av_1779093954983_rq5patbcp5j)" opacity="0.8023369032659052"/><polyline points="-21.8,-68.8 -19.4,-69.6 -17.9,-69.8 -16.9,-70.9 -16.1,-70.7 -15.4,-69.4 -14.8,-69.6 -14.2,-68.7 -13.8,-69.4 -13.6,-67.5 -13.6,-66.7 -13.9,-65.1 -14.5,-63.3 -15.5,-62.2 -16.8,-61.7 -18.6,-59.1 -20.7,-56.8 -23.3,-53.8 -26.2,-50.4 -29.6,-46.9 -33.4,-44.1 -37.6,-41.0 -42.4,-35.9 -47.5,-32.9 -53.0,-27.7 -58.7,-22.2" fill="none" stroke="rgb(167,133,106)" stroke-width="0.9353556267583374" stroke-linejoin="round" stroke-linecap="round" filter="url(#fuzzy_av_1779093954983_rq5patbcp5j)" opacity="0.8344865844410149"/><polyline points="-41.6,-63.4 -38.7,-64.9 -37.1,-65.7 -36.2,-63.6 -35.5,-62.2 -34.9,-60.8 -34.5,-59.8 -34.4,-56.3 -34.5,-52.2 -35.0,-49.2 -35.8,-43.1 -37.1,-37.2 -38.8,-30.4 -40.9,-24.5 -43.4,-16.4 -46.3,-7.2 -49.7,3.2 -52.9,15.9" fill="none" stroke="rgb(167,133,106)" stroke-width="1.6193539755104172" stroke-linejoin="round" stroke-linecap="round" filter="url(#fuzzy_av_1779093954983_rq5patbcp5j)" opacity="0.827471322372544"/><polyline points="-35.3,-66.6 -32.5,-67.9 -30.4,-67.9 -28.1,-68.1 -25.6,-69.0 -23.0,-69.3 -20.4,-69.9 -17.6,-70.0 -14.9,-69.1 -12.0,-69.9 -9.3,-69.6 -6.6,-70.5 -4.0,-69.0 -1.5,-70.8 1.0,-70.9 3.4,-70.9 5.7,-70.4 7.8,-70.2 9.7,-70.2 11.1,-70.0 12.2,-70.9 12.8,-70.1 13.2,-72.0 13.6,-70.5 15.5,-70.0" fill="none" stroke="rgb(167,133,106)" stroke-width="1.7191954026305278" stroke-linejoin="round" stroke-linecap="round" filter="url(#fuzzy_av_1779093954983_rq5patbcp5j)" opacity="0.8285813264224275"/><polyline points="-35.4,-66.7 -35.0,-66.6 -33.7,-66.9 -31.9,-67.6 -29.8,-66.8 -27.6,-68.4 -25.5,-68.8 -23.3,-69.4 -21.2,-68.6 -19.2,-70.3 -17.3,-70.2 -15.6,-69.5 -14.1,-69.8 -12.8,-70.0 -11.8,-70.9 -11.1,-71.4 -10.6,-70.4 -10.4,-72.3 -10.5,-72.0 -10.9,-71.1 -11.7,-71.6 -12.8,-70.4 -14.2,-71.1 -16.1,-69.7 -18.7,-70.9" fill="none" stroke="rgb(167,133,106)" stroke-width="2.30098400313483" stroke-linejoin="round" stroke-linecap="round" filter="url(#fuzzy_av_1779093954983_rq5patbcp5j)" opacity="0.7614241961831804"/><polyline points="-48.9,-53.1 -47.8,-53.8 -46.6,-56.4 -45.4,-56.5 -43.9,-58.5 -42.2,-59.8 -40.2,-61.6 -37.9,-62.3 -35.4,-64.0 -32.8,-63.9 -30.0,-65.7 -27.2,-67.0 -24.4,-67.0 -21.8,-68.1 -19.3,-69.0 -16.8,-69.8 -14.6,-69.2 -12.5,-69.3 -10.8,-71.2 -9.4,-71.1 -8.4,-71.0 -7.8,-70.7 -7.6,-71.6 -8.0,-71.4 -10.1,-72.4" fill="none" stroke="rgb(167,133,106)" stroke-width="1.2626611273379997" stroke-linejoin="round" stroke-linecap="round" filter="url(#fuzzy_av_1779093954983_rq5patbcp5j)" opacity="0.8215263484089621"/><polyline points="34.2,-66.4 35.0,-66.5 36.0,-65.4 36.8,-65.0 37.1,-64.2 36.9,-62.7 36.2,-61.4 34.9,-61.1 33.1,-59.8 30.7,-58.2 27.8,-57.5 24.4,-55.6 20.5,-54.4 16.1,-51.9 11.2,-49.5 5.7,-49.0 -0.2,-47.2 -6.6,-45.4 -13.6,-42.8 -21.1,-41.9 -29.2,-39.3 -37.9,-37.5 -47.2,-36.6 -57.1,-33.0" fill="none" stroke="rgb(167,133,106)" stroke-width="1.4966322935626855" stroke-linejoin="round" stroke-linecap="round" filter="url(#fuzzy_av_1779093954983_rq5patbcp5j)" opacity="0.97857211537603"/><polyline points="-59.3,-14.3 -58.8,-15.7 -57.6,-17.7 -55.7,-20.2 -53.1,-23.4 -49.8,-25.7 -45.8,-27.0 -41.2,-28.9 -35.9,-33.3 -30.0,-36.4 -23.5,-39.8 -16.6,-44.2 -9.3,-48.2 -1.6,-50.4 6.4,-55.7 14.8,-59.8 23.9,-63.7 33.7,-67.1" fill="none" stroke="rgb(167,133,106)" stroke-width="2.202196659917931" stroke-linejoin="round" stroke-linecap="round" filter="url(#fuzzy_av_1779093954983_rq5patbcp5j)" opacity="0.9268790705372313"/><polyline points="51.2,-47.7 52.4,-45.9 53.0,-44.6 53.3,-43.7 53.3,-42.3 53.0,-41.3 52.5,-41.5 51.8,-41.7 50.7,-41.4 49.4,-41.3 47.7,-42.7 45.7,-43.6 43.4,-44.5 40.6,-46.6 37.5,-47.5 34.0,-49.8 30.0,-50.8 25.6,-53.9 20.7,-56.9 15.1,-59.7 8.9,-64.1 2.2,-67.1 -5.2,-72.5" fill="none" stroke="rgb(167,133,106)" stroke-width="0.8411532369951641" stroke-linejoin="round" stroke-linecap="round" filter="url(#fuzzy_av_1779093954983_rq5patbcp5j)" opacity="0.7633940510686122"/><polyline points="57.4,-32.5 58.3,-28.1 58.7,-25.6 59.0,-22.0 59.2,-21.0 59.3,-17.9 59.3,-16.1 59.4,-13.4 59.4,-10.9 59.3,-8.2 59.0,-5.4 58.7,-2.6 58.3,0.2 57.8,2.3 57.4,5.7 56.9,9.0 56.4,11.4 55.8,14.0 55.1,15.2 54.2,18.8 53.3,20.7 52.3,24.0 51.2,26.7 50.0,28.4 48.8,30.7 47.6,33.6 46.3,35.8 44.9,37.9 43.4,39.6 41.8,43.1 40.1,45.4 38.2,48.1 36.1,50.0 33.9,50.2 31.6,52.1 29.2,53.8 26.8,54.1 24.2,55.0 20.8,54.7" fill="none" stroke="rgb(167,133,106)" stroke-width="0.7502991533080303" stroke-linejoin="round" stroke-linecap="round" filter="url(#fuzzy_av_1779093954983_rq5patbcp5j)" opacity="0.8331467672808506"/><polyline points="57.4,-31.8 58.4,-28.1 59.1,-25.5 59.7,-23.1 60.5,-20.2 61.6,-18.3 62.9,-16.4 64.3,-13.8 65.4,-11.0 66.2,-8.9 66.6,-6.2 66.6,-2.1 66.3,0.1 65.9,3.1 65.7,5.2 65.6,7.8 65.8,10.9 66.0,13.7 66.0,16.0 65.8,18.5 65.2,20.4 64.3,23.5 63.0,26.1 61.6,27.0 60.0,29.9 58.4,32.8 57.0,34.4 55.8,38.3 54.8,40.5 54.0,41.6 52.8,46.0 50.9,47.4 48.6,51.6" fill="none" stroke="rgb(167,133,106)" stroke-width="2.392606799541353" stroke-linejoin="round" stroke-linecap="round" filter="url(#fuzzy_av_1779093954983_rq5patbcp5j)" opacity="0.9942014545651796"/><polyline points="48.6,-54.3 47.6,-55.4 46.6,-57.8 45.0,-61.4 42.9,-63.2 40.2,-63.5 37.3,-64.9 34.1,-65.8 30.9,-67.3 27.7,-69.2 24.5,-69.0 21.4,-70.0 18.3,-69.3 15.2,-71.0 12.1,-71.3 8.9,-70.9 5.7,-72.3 2.3,-72.3 -1.1,-71.1 -4.7,-71.6 -8.4,-70.6 -12.1,-71.6 -15.7,-70.2 -19.4,-70.9 -23.1,-69.6 -26.9,-69.2 -30.7,-69.5 -34.6,-67.2 -38.5,-67.8 -42.4,-66.7 -46.2,-65.3" fill="none" stroke="rgb(167,133,106)" stroke-width="1.450796823304799" stroke-linejoin="round" stroke-linecap="round" filter="url(#fuzzy_av_1779093954983_rq5patbcp5j)" opacity="0.8421767440384398"/><polyline points="46.5,-58.5 42.2,-59.3 38.5,-63.0 35.9,-63.4 33.2,-64.8 30.2,-65.9 27.0,-67.0 24.0,-68.7 20.9,-69.1 17.9,-69.8 14.8,-69.1 11.7,-70.8 9.0,-70.1 6.6,-71.5 4.6,-70.5 2.7,-71.9 1.0,-71.4 -0.6,-71.6 -2.1,-72.1 -3.3,-71.7 -3.9,-70.9 -4.1,-70.8 -3.9,-71.4" fill="none" stroke="rgb(167,133,106)" stroke-width="1.4003015712752114" stroke-linejoin="round" stroke-linecap="round" filter="url(#fuzzy_av_1779093954983_rq5patbcp5j)" opacity="0.9295583383354564"/><polyline points="-5.7,-71.2 -9.5,-72.1 -12.7,-70.4 -15.8,-71.4 -18.8,-69.3 -21.9,-68.8 -25.1,-68.9 -28.5,-67.6 -32.1,-66.5 -35.8,-66.4 -39.5,-65.3 -43.0,-64.0 -46.2,-60.7 -49.1,-58.7 -51.6,-56.3 -53.7,-54.9 -55.7,-52.2 -57.5,-49.5 -59.1,-46.9 -60.6,-44.1 -62.0,-41.5 -63.3,-39.6 -64.5,-37.4 -65.6,-34.6 -66.9,-32.5 -68.1,-30.5 -69.3,-27.1 -70.3,-24.8 -71.0,-21.4 -71.6,-20.6 -72.3,-17.9 -73.3,-14.5 -74.4,-12.8 -75.2,-9.2" fill="none" stroke="rgb(167,133,106)" stroke-width="2.543557442755958" stroke-linejoin="round" stroke-linecap="round" filter="url(#fuzzy_av_1779093954983_rq5patbcp5j)" opacity="0.8602795725815073"/><polyline points="-10.4,-72.3 -13.0,-71.3 -15.8,-70.6 -18.8,-71.1 -22.2,-70.7 -25.6,-69.4 -29.1,-67.3 -32.5,-67.0 -35.5,-66.9 -38.3,-63.9 -40.8,-63.8 -43.1,-61.3 -45.1,-58.5 -47.0,-57.4 -48.9,-53.7 -50.6,-52.0 -52.3,-50.1 -53.9,-46.7 -55.4,-45.1 -56.9,-42.6 -58.3,-39.2 -59.6,-37.0 -60.7,-34.8 -61.8,-33.0 -62.7,-28.9 -63.3,-26.2 -63.8,-23.7 -64.2,-22.3 -64.4,-18.5 -64.7,-16.0 -64.9,-15.0 -65.1,-12.1 -65.1,-9.7 -65.1,-5.7 -65.1,-3.2 -65.4,-0.3" fill="none" stroke="rgb(167,133,106)" stroke-width="1.200630105148099" stroke-linejoin="round" stroke-linecap="round" filter="url(#fuzzy_av_1779093954983_rq5patbcp5j)" opacity="0.8448223517414524"/><polyline points="-16.5,-71.1 -18.4,-71.3 -21.6,-69.5 -24.9,-68.1 -28.1,-68.0 -31.2,-68.1 -34.2,-66.4 -37.1,-64.7 -39.8,-64.3 -42.3,-61.9 -44.6,-60.0 -46.6,-56.7 -48.4,-55.8 -50.0,-53.8 -51.5,-51.3 -52.9,-47.1 -54.4,-44.8 -55.8,-43.6 -57.1,-41.0 -58.3,-39.2 -59.4,-35.6 -60.4,-33.5 -61.2,-31.7 -61.8,-27.7 -62.3,-25.3 -62.7,-24.5 -63.2,-20.5 -63.5,-17.5 -63.9,-14.6 -64.3,-13.0 -64.5,-10.9 -64.6,-8.1 -64.5,-4.5 -64.3,-2.3 -64.0,-1.2 -63.6,1.9 -63.3,3.6 -62.9,6.9 -62.7,8.2" fill="none" stroke="rgb(167,133,106)" stroke-width="2.404884531133379" stroke-linejoin="round" stroke-linecap="round" filter="url(#fuzzy_av_1779093954983_rq5patbcp5j)" opacity="0.9773124057538208"/><polyline points="-18.7,-69.5 -21.7,-68.9 -25.0,-68.7 -28.3,-67.6 -31.5,-66.3 -34.6,-65.8 -37.5,-64.1 -40.1,-63.0 -42.4,-61.4 -44.4,-58.4 -46.2,-56.0 -47.8,-54.6 -49.3,-52.1 -50.7,-49.1 -52.0,-47.4 -53.2,-43.7 -54.2,-41.7 -55.2,-40.4 -56.1,-37.8 -56.9,-34.4 -57.7,-32.7 -58.3,-28.7 -58.9,-26.5 -59.3,-24.0 -59.6,-21.2 -59.9,-18.3 -60.0,-17.5 -60.0,-14.9 -59.9,-11.3 -59.7,-9.2 -59.5,-5.9 -59.3,-2.9 -59.0,-1.0 -58.6,1.2 -58.1,3.6 -57.6,7.0 -57.3,7.0" fill="none" stroke="rgb(167,133,106)" stroke-width="1.759603852627182" stroke-linejoin="round" stroke-linecap="round" filter="url(#fuzzy_av_1779093954983_rq5patbcp5j)" opacity="0.8806988223250333"/><polyline points="-29.3,-68.0 -32.4,-67.9 -35.7,-65.7 -39.0,-64.2 -41.9,-63.7 -44.3,-61.2 -46.4,-59.1 -48.3,-56.5 -50.1,-54.1 -51.9,-51.9 -53.6,-50.1 -55.3,-46.4 -56.9,-43.4 -58.5,-42.8 -60.0,-39.2 -61.6,-36.3 -63.1,-35.3 -64.7,-32.0 -66.3,-29.5 -68.0,-26.3 -69.6,-24.6 -71.2,-20.8 -72.8,-19.3 -74.3,-15.7 -75.7,-14.2 -76.8,-11.0 -77.4,-8.9 -77.7,-5.8 -77.5,-3.8 -77.1,-0.2 -76.4,1.9 -75.7,4.2 -75.1,6.2 -74.6,9.9 -74.5,11.1 -74.6,13.4 -74.4,16.1 -73.1,20.3" fill="none" stroke="rgb(167,133,106)" stroke-width="1.4460100574435137" stroke-linejoin="round" stroke-linecap="round" filter="url(#fuzzy_av_1779093954983_rq5patbcp5j)" opacity="0.7950988757689444"/><polyline points="-45.6,-58.2 -48.1,-53.4 -49.8,-51.9 -51.2,-49.4 -52.4,-45.2 -53.6,-42.9 -54.6,-42.0 -55.5,-39.2 -56.4,-37.1 -57.1,-34.5 -57.8,-32.1 -58.5,-29.0 -59.1,-25.2 -59.6,-23.2 -60.1,-19.9 -60.5,-18.4 -60.8,-15.4 -61.0,-12.8 -61.1,-9.9 -61.1,-8.7 -61.1,-6.1 -61.0,-3.8 -60.8,-1.3 -60.4,2.3 -60.0,3.9 -59.5,6.0 -58.9,10.4 -58.2,11.8 -57.5,14.4 -56.8,18.0 -56.0,19.4 -55.1,22.2 -54.2,24.9 -53.2,26.4 -52.1,29.3 -50.8,32.4 -49.6,33.7 -48.7,36.3 -48.2,37.5" fill="none" stroke="rgb(167,133,106)" stroke-width="2.137546097423089" stroke-linejoin="round" stroke-linecap="round" filter="url(#fuzzy_av_1779093954983_rq5patbcp5j)" opacity="0.943816808784788"/><polyline points="-51.1,-48.0 -54.1,-44.2 -55.4,-41.8 -56.5,-38.7 -57.6,-36.5 -58.7,-35.7 -59.6,-32.1 -60.2,-30.2 -60.5,-28.9 -60.7,-26.3 -60.9,-23.1 -61.1,-21.1 -61.5,-18.5 -62.0,-14.6 -62.5,-13.2 -63.0,-9.1 -63.6,-7.5 -64.2,-5.3 -64.7,-2.3 -65.2,-0.2 -65.4,2.8 -65.2,3.5 -64.6,5.6 -63.7,8.8" fill="none" stroke="rgb(167,133,106)" stroke-width="1.9510976077698492" stroke-linejoin="round" stroke-linecap="round" filter="url(#fuzzy_av_1779093954983_rq5patbcp5j)" opacity="0.9804393679058445"/><polyline points="-54.3,-41.6 -56.0,-39.9 -58.8,-36.3 -61.2,-35.5 -62.6,-32.0 -63.1,-31.2 -63.4,-27.1 -63.7,-26.0 -64.4,-23.4 -65.7,-20.2 -67.5,-16.7 -69.8,-14.8 -72.2,-12.0 -74.5,-10.4 -76.5,-7.6 -77.9,-3.7 -78.6,-3.1 -78.7,0.3 -78.5,2.9 -78.6,5.2 -79.3,6.5 -80.0,8.9 -79.9,12.2" fill="none" stroke="rgb(167,133,106)" stroke-width="0.9524129565359094" stroke-linejoin="round" stroke-linecap="round" filter="url(#fuzzy_av_1779093954983_rq5patbcp5j)" opacity="0.8611655072495832"/><polyline points="-57.5,-30.4 -58.4,-27.6 -59.2,-25.1 -60.1,-23.0 -61.0,-20.0 -61.9,-17.8 -62.7,-14.2 -63.2,-11.0 -63.3,-9.0 -63.2,-7.0 -62.9,-4.5 -62.5,-1.8 -62.0,1.3 -61.6,3.3 -61.2,5.4 -60.8,9.0 -60.3,10.5 -59.8,13.1 -59.2,15.5 -58.5,19.7 -57.7,20.6 -56.8,24.0 -55.9,27.5 -54.8,29.9 -53.8,30.5 -52.8,33.8 -51.7,36.9 -50.4,38.0 -48.9,41.0 -47.1,44.7 -45.4,47.2 -43.6,48.3 -42.2,50.5" fill="none" stroke="rgb(167,133,106)" stroke-width="1.2982124725590813" stroke-linejoin="round" stroke-linecap="round" filter="url(#fuzzy_av_1779093954983_rq5patbcp5j)" opacity="0.7895741738338121"/><polyline points="-55.8,7.8 -55.5,9.9 -55.4,11.2 -55.8,13.9 -56.3,17.5 -56.3,19.6 -55.8,21.9 -54.7,24.4 -53.3,28.4 -51.7,31.0 -50.1,32.8 -48.5,35.7 -46.8,38.0 -45.2,39.2 -43.6,41.5 -42.1,43.6 -40.6,46.0 -39.0,47.9 -37.3,50.5 -35.2,50.7 -32.9,52.2 -30.1,52.9 -27.1,54.3 -23.9,54.8 -20.6,55.7 -17.4,56.7 -14.3,55.8 -11.2,56.3 -8.0,57.2 -4.6,57.9 -1.4,57.5 1.0,57.8" fill="none" stroke="rgb(167,133,106)" stroke-width="2.155618891686576" stroke-linejoin="round" stroke-linecap="round" filter="url(#fuzzy_av_1779093954983_rq5patbcp5j)" opacity="0.9503690439307626"/><polyline points="-55.7,6.8 -54.5,11.6 -53.6,13.1 -52.6,17.2 -51.7,19.0 -50.6,20.4 -49.6,22.7 -48.4,25.6 -47.2,28.5 -46.0,30.7 -44.8,33.1 -43.5,35.5 -42.2,38.8 -40.8,39.7 -39.2,43.7 -37.5,45.9 -35.6,46.9 -33.5,49.1 -31.3,51.2 -29.0,51.5 -26.6,52.2 -24.2,54.3 -21.8,54.3 -19.1,55.4 -16.5,55.6" fill="none" stroke="rgb(167,133,106)" stroke-width="1.5589641880246217" stroke-linejoin="round" stroke-linecap="round" filter="url(#fuzzy_av_1779093954983_rq5patbcp5j)" opacity="0.8045422416474536"/><polyline points="-54.4,12.6 -54.2,13.6 -53.8,16.9 -52.8,18.2 -51.6,21.5 -50.3,24.0 -49.1,27.1 -48.0,28.7 -47.0,30.4 -45.9,34.5 -44.7,36.3 -43.4,39.3 -41.9,41.9 -40.3,42.2 -38.7,44.5 -36.9,47.5 -34.9,49.9 -32.8,49.7 -30.6,52.4 -28.2,53.1 -25.7,53.9 -23.1,54.8 -20.2,54.6 -17.3,55.5 -14.3,55.8 -11.3,57.0 -8.3,56.4 -5.2,57.2 -2.2,58.2 1.0,58.3 4.2,56.9 7.5,56.7 10.7,56.4 13.7,57.6 16.6,57.2 19.5,56.0 22.9,56.3" fill="none" stroke="rgb(167,133,106)" stroke-width="1.4775403818094588" stroke-linejoin="round" stroke-linecap="round" filter="url(#fuzzy_av_1779093954983_rq5patbcp5j)" opacity="0.8768938464013158"/><polyline points="-54.5,10.9 -53.1,14.5 -51.6,18.0 -50.2,19.8 -48.7,23.0 -46.9,25.6 -44.8,27.4 -42.6,29.2 -40.3,31.7 -38.1,35.8 -36.2,38.2 -34.5,39.7 -32.9,42.0 -31.2,45.3 -29.2,47.0 -26.8,47.9 -24.2,51.0 -21.4,51.4 -18.7,52.5 -16.0,53.6 -13.3,53.8 -10.7,55.1 -8.5,56.7 -7.2,57.2" fill="none" stroke="rgb(167,133,106)" stroke-width="1.1576575540337248" stroke-linejoin="round" stroke-linecap="round" filter="url(#fuzzy_av_1779093954983_rq5patbcp5j)" opacity="0.8524420388675589"/><polyline points="-43.4,36.4 -42.1,37.9 -40.4,41.2 -38.7,43.8 -36.8,46.5 -34.8,47.7 -32.6,50.3 -30.3,50.6 -27.9,51.5 -25.4,53.1 -22.9,54.1 -20.2,55.6 -17.5,56.2 -14.7,56.9 -12.0,55.6 -9.2,56.4 -6.5,56.4 -3.8,57.1 -1.0,57.3 1.7,58.2 4.5,57.2 7.2,57.7 10.0,55.8 12.7,56.1 15.3,55.5 18.0,55.7 20.7,55.8 23.3,54.1 26.0,53.9 28.6,52.9 31.2,52.0 33.7,50.2 36.2,47.9 38.6,45.7 40.8,43.6 42.7,42.3 44.3,39.5 45.5,37.2 46.6,35.8" fill="none" stroke="rgb(167,133,106)" stroke-width="1.3056047781110682" stroke-linejoin="round" stroke-linecap="round" filter="url(#fuzzy_av_1779093954983_rq5patbcp5j)" opacity="0.9156868073819046"/></g><circle r="1.1343378624345022" cx="-5.550915614429325" cy="8.010749484136303" stroke="#111" fill="none" stroke-width="1.272292458020701" filter="url(#fuzzy_av_1779093954983_rq5patbcp5j)"/><circle r="0.8958352025669053" cx="-6.6067193220889235" cy="8.878467295471548" stroke="#111" fill="none" stroke-width="0.8663960158694382" filter="url(#fuzzy_av_1779093954983_rq5patbcp5j)"/><circle r="0.9742120311862845" cx="-8.21401023753431" cy="7.6873660444921965" stroke="#111" fill="none" stroke-width="1.211120029013479" filter="url(#fuzzy_av_1779093954983_rq5patbcp5j)"/><circle r="0.9202641995213355" cx="-5.614744968312311" cy="7.682942434062523" stroke="#111" fill="none" stroke-width="1.1060816531076116" filter="url(#fuzzy_av_1779093954983_rq5patbcp5j)"/><circle r="2.2050019106097096" cx="-6.092313615667542" cy="8.69792135063065" stroke="#111" fill="none" stroke-width="0.9328205616280452" filter="url(#fuzzy_av_1779093954983_rq5patbcp5j)"/><circle r="1.9471702299274163" cx="-8.134697201031525" cy="8.472628386018485" stroke="#111" fill="none" stroke-width="1.0954691695731684" filter="url(#fuzzy_av_1779093954983_rq5patbcp5j)"/><circle r="2.330385158798663" cx="-7.871983042735541" cy="8.623597236696774" stroke="#111" fill="none" stroke-width="1.2274247381113432" filter="url(#fuzzy_av_1779093954983_rq5patbcp5j)"/><circle r="1.142305558280207" cx="-6.761045426498452" cy="6.219176502264141" stroke="#111" fill="none" stroke-width="0.9002832479376903" filter="url(#fuzzy_av_1779093954983_rq5patbcp5j)"/><circle r="1.0147543456651364" cx="-6.373659706029711" cy="9.10883983070284" stroke="#111" fill="none" stroke-width="0.9350688431908196" filter="url(#fuzzy_av_1779093954983_rq5patbcp5j)"/><circle r="2.102743651430427" cx="-8.678736008003552" cy="9.281131992074194" stroke="#111" fill="none" stroke-width="0.8992231267076054" filter="url(#fuzzy_av_1779093954983_rq5patbcp5j)"/><circle r="1.9627630347726834" cx="10.02097573492348" cy="10.321280708379595" stroke="#111" fill="none" stroke-width="1.1363461829272483" filter="url(#fuzzy_av_1779093954983_rq5patbcp5j)"/><circle r="1.8584756218993854" cx="9.384889759133475" cy="7.348627715650073" stroke="#111" fill="none" stroke-width="1.0177331427590335" filter="url(#fuzzy_av_1779093954983_rq5patbcp5j)"/><circle r="2.3546300706243315" cx="8.948366131358545" cy="7.568988134330064" stroke="#111" fill="none" stroke-width="1.2666462701430095" filter="url(#fuzzy_av_1779093954983_rq5patbcp5j)"/><circle r="1.580931386582181" cx="8.173747609220914" cy="6.772594856824401" stroke="#111" fill="none" stroke-width="0.8190856649739534" filter="url(#fuzzy_av_1779093954983_rq5patbcp5j)"/><circle r="1.461814929200345" cx="8.83167937100384" cy="9.40623749415324" stroke="#111" fill="none" stroke-width="1.1026590746160552" filter="url(#fuzzy_av_1779093954983_rq5patbcp5j)"/><circle r="1.4166877550591397" cx="7.185929971458701" cy="6.808921455215261" stroke="#111" fill="none" stroke-width="0.8731629848965424" filter="url(#fuzzy_av_1779093954983_rq5patbcp5j)"/><circle r="1.2572614618125564" cx="8.32996172557587" cy="9.402286827791086" stroke="#111" fill="none" stroke-width="0.8591658212563932" filter="url(#fuzzy_av_1779093954983_rq5patbcp5j)"/><circle r="2.2144333541943335" cx="7.6054288127139635" cy="9.915952354732875" stroke="#111" fill="none" stroke-width="1.0787035921740715" filter="url(#fuzzy_av_1779093954983_rq5patbcp5j)"/><circle r="1.5414879569528286" cx="8.01795157986995" cy="8.23920235161129" stroke="#111" fill="none" stroke-width="0.9182824983166789" filter="url(#fuzzy_av_1779093954983_rq5patbcp5j)"/><circle r="1.4559739431214453" cx="8.305364882606112" cy="7.214310034990003" stroke="#111" fill="none" stroke-width="0.9213223624088138" filter="url(#fuzzy_av_1779093954983_rq5patbcp5j)"/><polyline points="-28.9,18.2 -28.5,18.4 -28.1,18.7 -27.7,19.0 -27.3,19.3 -26.8,19.7 -26.3,20.0 -25.9,20.4 -25.3,20.8 -24.8,21.3 -24.3,21.7 -23.8,22.2 -23.2,22.7 -22.6,23.2 -22.0,23.7 -21.4,24.2 -20.8,24.8 -20.2,25.3 -19.5,25.9 -18.9,26.5 -18.2,27.1 -17.6,27.7 -16.9,28.3 -16.2,28.9 -15.5,29.5 -14.8,30.1 -14.1,30.7 -13.3,31.4 -12.6,32.0 -11.9,32.6 -11.1,33.3 -10.4,33.9 -9.6,34.5 -8.9,35.2 -8.1,35.8 -7.3,36.4 -6.6,37.0 -5.8,37.6 -5.0,38.2 -4.2,38.8 -3.4,39.4 -2.7,40.0 -1.9,40.6 -1.1,41.1 -0.3,41.7 0.5,42.2 1.3,42.7 2.0,43.2 2.8,43.7 3.6,44.1 4.4,44.6 5.1,45.0 5.9,45.4 6.7,45.8 7.4,46.2 8.2,46.5 8.9,46.9 9.6,47.2 10.4,47.4 11.1,47.7 11.8,47.9 12.5,48.1 13.2,48.2 13.9,48.4 14.6,48.5 15.3,48.6 16.0,48.6 16.6,48.6 17.2,48.6 17.9,48.5 18.5,48.4 19.1,48.3 19.7,48.1 20.3,47.9 20.8,47.6 21.4,47.3 21.9,47.0 22.5,46.6 23.0,46.2 23.5,45.7 23.9,45.2 24.4,44.6 24.8,44.0 25.2,43.4 25.6,42.7 26.0,41.9 26.4,41.1 26.7,40.3 27.1,39.4 27.4,38.4 27.6,37.4 27.9,36.3 28.1,35.2 28.4,34.0 28.6,32.8 28.7,31.5 28.9,30.1 29.0,28.7 29.1,27.2 29.2,25.7 29.2,24.1 29.2,25.7 29.1,27.2 29.0,28.7 28.9,30.1 28.7,31.5 28.6,32.8 28.4,34.0 28.1,35.2 27.9,36.3 27.6,37.4 27.4,38.4 27.1,39.4 26.7,40.3 26.4,41.1 26.0,41.9 25.6,42.7 25.2,43.4 24.8,44.0 24.4,44.6 23.9,45.2 23.5,45.7 23.0,46.2 22.5,46.6 21.9,47.0 21.4,47.3 20.8,47.6 20.3,47.9 19.7,48.1 19.1,48.3 18.5,48.4 17.9,48.5 17.2,48.6 16.6,48.6 16.0,48.6 15.3,48.6 14.6,48.5 13.9,48.4 13.2,48.2 12.5,48.1 11.8,47.9 11.1,47.7 10.4,47.4 9.6,47.2 8.9,46.9 8.2,46.5 7.4,46.2 6.7,45.8 5.9,45.4 5.1,45.0 4.4,44.6 3.6,44.1 2.8,43.7 2.0,43.2 1.3,42.7 0.5,42.2 -0.3,41.7 -1.1,41.1 -1.9,40.6 -2.7,40.0 -3.4,39.4 -4.2,38.8 -5.0,38.2 -5.8,37.6 -6.6,37.0 -7.3,36.4 -8.1,35.8 -8.9,35.2 -9.6,34.5 -10.4,33.9 -11.1,33.3 -11.9,32.6 -12.6,32.0 -13.3,31.4 -14.1,30.7 -14.8,30.1 -15.5,29.5 -16.2,28.9 -16.9,28.3 -17.6,27.7 -18.2,27.1 -18.9,26.5 -19.5,25.9 -20.2,25.3 -20.8,24.8 -21.4,24.2 -22.0,23.7 -22.6,23.2 -23.2,22.7 -23.8,22.2 -24.3,21.7 -24.8,21.3 -25.3,20.8 -25.9,20.4 -26.3,20.0 -26.8,19.7 -27.3,19.3 -27.7,19.0 -28.1,18.7 -28.5,18.4" fill="rgb(215,127,140)" stroke="#111" stroke-width="2.5141767839740004" stroke-linejoin="round" filter="url(#fuzzy_av_1779093954983_rq5patbcp5j)"/></g><g class="accessory-svg accessory-shield" transform="translate(77.3 7.2) rotate(-5.1) scale(1.192)">
      <path d="M0-12l10 4v7c0 7-4 11-10 14C-6 10-10 6-10-1v-7z" fill="#92400E" stroke="#111827" stroke-width="1.2"/><path d="M0-8v17M-5-2h10" stroke="#f8fafc" stroke-width="1.2"/>
    </g><g class="accessory-svg accessory-pan" transform="translate(17.0 75.2) rotate(11.9) scale(0.960)">
      <ellipse cx="-3" cy="2" rx="8" ry="6" fill="#374151" stroke="#111827" stroke-width="1.1"/><path d="M4-1l10-8" stroke="#111827" stroke-width="3" stroke-linecap="round"/><circle cx="-5" cy="0" r="2" fill="#fbbf24"/>
    </g><g class="accessory-svg accessory-heart" transform="translate(-74.1 -24.3) rotate(-6.2) scale(1.153)">
      <path d="M0 10C-10 3-13-3-8-8c3-3 7-1 8 3 1-4 5-6 8-3 5 5 2 11-8 18z" fill="#ef4444" stroke="#111827" stroke-width="1.1"/>
    </g><g class="accessory-svg accessory-home" transform="translate(11.3 -76.8) rotate(-10.7) scale(1.177)">
      <path d="M-12 0L0-11 12 0" fill="none" stroke="#111827" stroke-width="1.6" stroke-linecap="round"/><rect x="-8" y="0" width="16" height="12" rx="1.5" fill="#f8fafc" stroke="#111827" stroke-width="1.1"/><rect x="-2" y="5" width="4" height="7" fill="#92400E"/>
    </g></svg>