<svg xmlns="http://www.w3.org/2000/svg" viewBox="-100 -100 200 200" width="400" height="400" role="img" aria-label="气氛组 avatar"><defs>
      <filter id="fuzzy_av_1779093954985_3w2doli8tcx" x="-8%" y="-8%" width="116%" height="116%">
        <feTurbulence baseFrequency="0.045" numOctaves="3" type="fractalNoise" result="noise"/>
        <feDisplacementMap in="SourceGraphic" in2="noise" scale="1.6"/>
      </filter>
      <clipPath id="leftEye_av_1779093954985_3w2doli8tcx"><polyline points="-17.6,-3.9 -17.5,-4.0 -17.3,-4.1 -17.1,-4.2 -16.9,-4.3 -16.6,-4.4 -16.4,-4.4 -16.1,-4.5 -15.8,-4.6 -15.5,-4.7 -15.2,-4.7 -14.9,-4.8 -14.5,-4.8 -14.2,-4.9 -13.8,-4.9 -13.4,-5.0 -13.0,-5.0 -12.6,-5.0 -12.2,-5.1 -11.7,-5.1 -11.3,-5.1 -10.8,-5.2 -10.2,-5.2 -9.7,-5.2 -9.1,-5.2 -8.5,-5.2 -7.9,-5.3 -7.3,-5.3 -6.6,-5.3 -6.0,-5.3 -5.3,-5.3 -4.6,-5.3 -3.9,-5.3 -3.2,-5.3 -2.5,-5.4 -1.8,-5.4 -1.1,-5.4 -0.4,-5.4 0.3,-5.4 1.0,-5.4 1.6,-5.4 2.3,-5.4 3.0,-5.4 3.7,-5.4 4.3,-5.4 5.0,-5.4 5.6,-5.4 6.2,-5.4 6.8,-5.4 7.4,-5.3 8.0,-5.3 8.5,-5.3 9.1,-5.3 9.6,-5.3 10.1,-5.3 10.6,-5.3 11.0,-5.3 11.5,-5.3 11.9,-5.3 12.3,-5.3 12.7,-5.2 13.1,-5.2 13.5,-5.2 13.8,-5.2 14.2,-5.2 14.5,-5.2 14.8,-5.2 15.1,-5.1 15.4,-5.1 15.6,-5.1 15.9,-5.1 16.1,-5.1 16.3,-5.0 16.5,-5.0 16.8,-5.0 16.9,-5.0 17.1,-4.9 17.3,-4.9 17.4,-4.9 17.6,-4.9 15.7,-2.2 15.4,-2.1 15.1,-1.9 14.8,-1.7 14.5,-1.6 14.2,-1.4 13.9,-1.2 13.6,-1.0 13.2,-0.8 12.9,-0.6 12.5,-0.4 12.2,-0.2 11.8,-0.0 11.4,0.2 11.0,0.4 10.6,0.6 10.2,0.8 9.8,1.0 9.4,1.2 8.9,1.4 8.5,1.7 8.0,1.9 7.5,2.1 7.1,2.3 6.6,2.5 6.1,2.8 5.6,3.0 5.0,3.2 4.5,3.4 4.0,3.6 3.4,3.8 2.9,4.0 2.3,4.2 1.8,4.4 1.2,4.6 0.7,4.8 0.1,4.9 -0.5,5.1 -1.1,5.2 -1.6,5.4 -2.2,5.5 -2.8,5.6 -3.4,5.7 -3.9,5.7 -4.5,5.8 -5.1,5.8 -5.6,5.9 -6.2,5.9 -6.7,5.9 -7.3,5.8 -7.8,5.8 -8.3,5.7 -8.8,5.6 -9.3,5.5 -9.8,5.3 -10.3,5.2 -10.8,5.0 -11.2,4.8 -11.6,4.6 -12.1,4.3 -12.5,4.1 -12.8,3.8 -13.2,3.5 -13.6,3.2 -13.9,2.9 -14.2,2.7 -14.5,2.4 -14.9,2.2 -15.2,2.0 -15.4,1.7 -15.7,1.5 -16.0,1.2 -16.2,1.0 -16.5,0.7 -16.7,0.5 -16.9,0.2 -17.1,-0.0 -17.3,-0.3 -17.5,-0.5 -17.7,-0.8"/></clipPath>
      <clipPath id="rightEye_av_1779093954985_3w2doli8tcx"><polyline points="-18.2,-4.5 -18.1,-4.6 -18.0,-4.8 -17.8,-4.9 -17.6,-5.0 -17.4,-5.2 -17.2,-5.3 -17.0,-5.4 -16.7,-5.5 -16.4,-5.6 -16.1,-5.7 -15.8,-5.8 -15.5,-5.8 -15.2,-5.9 -14.8,-6.0 -14.4,-6.0 -14.1,-6.1 -13.7,-6.1 -13.3,-6.2 -12.9,-6.2 -12.4,-6.3 -11.9,-6.3 -11.4,-6.3 -10.9,-6.4 -10.3,-6.4 -9.8,-6.4 -9.2,-6.5 -8.6,-6.5 -8.0,-6.5 -7.3,-6.5 -6.7,-6.5 -6.0,-6.5 -5.3,-6.6 -4.7,-6.6 -4.0,-6.6 -3.3,-6.6 -2.6,-6.6 -1.9,-6.6 -1.2,-6.6 -0.6,-6.6 0.1,-6.6 0.8,-6.6 1.5,-6.6 2.1,-6.6 2.8,-6.6 3.4,-6.6 4.0,-6.6 4.7,-6.6 5.3,-6.6 5.8,-6.6 6.4,-6.5 7.0,-6.5 7.5,-6.5 8.0,-6.5 8.5,-6.5 9.0,-6.5 9.5,-6.5 10.0,-6.5 10.4,-6.4 10.8,-6.4 11.2,-6.4 11.6,-6.4 12.0,-6.4 12.4,-6.3 12.7,-6.3 13.0,-6.3 13.4,-6.3 13.7,-6.2 14.0,-6.2 14.2,-6.2 14.5,-6.2 14.8,-6.1 15.0,-6.1 15.2,-6.1 15.4,-6.0 15.6,-6.0 15.8,-6.0 16.0,-5.9 16.2,-5.9 16.4,-5.8 15.8,-2.8 15.5,-2.6 15.3,-2.4 15.1,-2.2 14.8,-1.9 14.5,-1.7 14.3,-1.5 14.0,-1.3 13.7,-1.0 13.4,-0.8 13.1,-0.6 12.8,-0.3 12.5,-0.1 12.1,0.2 11.8,0.4 11.4,0.7 11.1,0.9 10.7,1.2 10.3,1.5 9.9,1.7 9.5,2.0 9.1,2.3 8.7,2.6 8.2,2.8 7.8,3.1 7.3,3.4 6.8,3.7 6.3,3.9 5.9,4.2 5.4,4.5 4.8,4.7 4.3,5.0 3.8,5.2 3.2,5.4 2.7,5.7 2.1,5.9 1.6,6.1 1.0,6.3 0.5,6.4 -0.1,6.6 -0.7,6.7 -1.3,6.9 -1.9,7.0 -2.5,7.1 -3.0,7.1 -3.6,7.2 -4.2,7.2 -4.8,7.2 -5.4,7.2 -5.9,7.1 -6.5,7.1 -7.1,7.0 -7.6,6.9 -8.1,6.7 -8.7,6.5 -9.2,6.3 -9.7,6.1 -10.2,5.9 -10.7,5.6 -11.2,5.3 -11.6,5.0 -12.1,4.6 -12.5,4.3 -12.9,3.9 -13.3,3.5 -13.7,3.2 -14.1,3.0 -14.5,2.7 -14.8,2.4 -15.2,2.1 -15.5,1.8 -15.8,1.5 -16.1,1.2 -16.4,0.9 -16.7,0.6 -17.0,0.2 -17.2,-0.1 -17.5,-0.4 -17.7,-0.7 -17.9,-1.0"/></clipPath>
      <linearGradient id="rainbow_av_1779093954985_3w2doli8tcx" x1="0%" y1="0%" x2="100%" y2="0%">
        <stop offset="0%" stop-color="#EC4899"/><stop offset="70%" stop-color="#22D3EE"/><stop offset="100%" stop-color="#DB2777"/>
      </linearGradient>
      <linearGradient id="splitHair_av_1779093954985_3w2doli8tcx" x1="0%" y1="0%" x2="100%" y2="0%">
        <stop offset="49%" stop-color="#111827"/><stop offset="51%" stop-color="#F9FAFB"/>
      </linearGradient>
      <radialGradient id="halo_av_1779093954985_3w2doli8tcx"><stop offset="0%" stop-color="#EC4899" stop-opacity=".45"/><stop offset="100%" stop-color="#EC4899" stop-opacity="0"/></radialGradient>
    </defs><rect x="-100" y="-100" width="200" height="200" fill="#BC8F8F"/><g opacity="1"><polyline id="faceContour" class="face-shape" points="55.0,-4.3 55.0,-5.4 54.8,-3.5 54.5,-0.2 54.6,-1.8 54.1,1.8 53.8,4.3 54.1,3.0 53.6,6.3 53.5,6.5 52.9,8.7 51.8,12.9 52.1,12.3 51.6,14.5 51.3,15.0 49.9,18.9 50.0,18.2 50.4,17.7 49.1,21.6 48.9,21.6 48.0,23.8 47.1,26.1 46.1,27.6 46.5,27.1 45.9,28.7 45.9,28.5 45.0,29.7 42.7,33.8 42.1,34.8 41.7,35.8 41.7,35.6 39.4,38.9 40.4,37.8 37.5,41.7 37.7,41.4 37.6,41.5 36.7,42.3 36.0,43.5 33.9,45.8 33.2,46.6 33.2,46.3 31.1,48.4 31.7,48.0 29.5,50.1 29.8,49.8 29.1,50.3 27.4,51.6 24.8,53.5 23.5,54.3 23.3,54.5 21.8,55.4 21.6,55.6 19.7,56.2 20.2,56.3 19.6,56.5 16.7,57.9 15.5,58.5 13.3,59.1 12.5,59.5 12.7,59.4 10.0,60.1 11.2,59.7 10.1,59.9 9.6,60.2 7.8,60.4 5.3,60.9 2.8,61.0 5.1,60.8 1.6,61.1 0.7,61.1 -0.3,61.1 -2.0,61.0 -2.2,60.8 -3.4,60.8 -4.7,60.5 -4.9,60.6 -6.5,60.3 -7.0,60.2 -9.4,59.6 -9.5,59.6 -11.0,59.3 -10.8,59.2 -13.9,58.3 -16.3,57.1 -17.7,56.5 -18.7,56.1 -19.1,55.9 -18.3,56.2 -20.3,55.2 -20.7,54.9 -21.8,54.3 -24.2,52.7 -25.4,52.0 -25.2,51.9 -24.9,52.1 -27.7,50.1 -28.0,49.9 -29.0,49.2 -29.5,48.6 -31.5,46.6 -31.4,47.0 -33.2,44.8 -34.7,43.5 -35.9,41.8 -36.4,41.6 -37.4,40.5 -37.6,40.1 -38.6,38.8 -38.8,38.3 -39.9,36.8 -40.5,36.2 -42.4,33.2 -42.3,33.6 -44.2,30.2 -43.8,30.8 -44.9,29.4 -46.6,26.0 -46.3,26.7 -46.7,25.7 -48.1,22.4 -47.0,24.6 -47.8,22.9 -49.7,18.4 -49.5,18.9 -50.8,15.0 -51.2,14.8 -51.7,12.8 -52.1,11.3 -52.6,9.9 -52.5,9.1 -52.7,9.5 -53.1,7.8 -53.2,7.5 -53.4,5.8 -53.9,3.4 -54.4,-0.5 -54.5,0.2 -54.9,-3.5 -54.7,-2.5 -54.9,-3.7 -55.1,-8.0 -55.3,-7.3 -55.2,-10.4 -55.0,-10.2 -55.2,-13.0 -55.4,-15.2 -55.0,-13.6 -55.1,-14.0 -55.2,-15.8 -55.0,-17.2 -54.6,-20.7 -54.5,-21.6 -54.4,-24.0 -53.8,-26.2 -54.3,-24.6 -54.1,-25.5 -52.9,-29.7 -52.8,-29.8 -52.9,-30.0 -52.2,-32.0 -51.1,-35.1 -50.4,-37.3 -50.2,-38.0 -49.4,-40.0 -49.6,-39.6 -48.5,-42.1 -48.5,-41.6 -47.7,-43.4 -46.5,-45.3 -46.4,-45.8 -44.4,-48.6 -44.1,-49.1 -44.4,-49.0 -43.1,-50.5 -42.6,-51.2 -40.6,-53.8 -41.3,-53.0 -40.6,-53.7 -38.4,-56.0 -36.3,-58.1 -37.6,-57.0 -37.2,-57.1 -36.5,-58.0 -33.0,-61.2 -31.3,-62.1 -30.9,-62.6 -29.7,-63.4 -30.4,-63.0 -28.3,-64.2 -26.9,-65.3 -25.9,-65.9 -23.4,-67.0 -24.3,-66.8 -21.8,-67.9 -21.0,-68.1 -20.5,-68.4 -19.2,-68.9 -17.3,-69.7 -15.4,-70.3 -16.8,-69.8 -13.1,-71.0 -12.3,-71.2 -10.8,-71.5 -10.3,-71.8 -7.7,-72.2 -6.7,-72.3 -3.7,-72.7 -5.4,-72.6 -4.6,-72.6 -2.5,-72.7 1.3,-73.0 0.7,-72.9 2.8,-72.9 2.6,-72.9 4.2,-73.0 7.1,-72.5 9.0,-72.5 10.8,-72.0 11.4,-71.9 13.1,-71.6 12.0,-71.9 15.4,-71.1 15.2,-71.2 18.1,-70.3 18.7,-70.0 20.0,-69.7 19.9,-69.6 21.9,-68.8 23.2,-68.1 24.6,-67.5 28.0,-65.8 27.5,-66.0 27.2,-66.1 29.7,-64.6 30.8,-63.9 30.8,-63.8 33.4,-61.9 32.6,-62.6 35.6,-60.2 35.9,-59.8 36.7,-59.3 37.5,-58.4 39.4,-56.6 40.9,-55.0 39.5,-56.4 41.9,-53.4 41.8,-53.8 42.5,-53.0 44.2,-50.3 45.2,-48.8 45.1,-49.4 45.4,-48.6 46.7,-46.4 48.6,-43.1 47.5,-45.2 49.5,-41.2 49.0,-41.7 49.8,-40.3 50.0,-40.0 50.7,-37.6 51.5,-35.4 52.1,-33.3 52.5,-31.6 52.5,-32.4 53.5,-29.2 53.1,-30.4 53.9,-27.3 53.7,-28.0 53.8,-25.8 54.6,-21.2 54.7,-20.4 54.6,-21.8 55.0,-18.2 55.2,-16.4 55.3,-16.5 55.2,-14.7 55.2,-12.3 55.2,-9.9 55.1,-7.4 55.1,-9.3 55.0,-4.3 55.0,-5.4" fill="#ffc9a9" stroke="#111" stroke-width="2.2" stroke-linejoin="round" filter="url(#fuzzy_av_1779093954985_3w2doli8tcx)"/><g id="leftEye" transform="translate(-28.2 -29.6)"><polyline points="-17.6,-3.9 -17.5,-4.0 -17.3,-4.1 -17.1,-4.2 -16.9,-4.3 -16.6,-4.4 -16.4,-4.4 -16.1,-4.5 -15.8,-4.6 -15.5,-4.7 -15.2,-4.7 -14.9,-4.8 -14.5,-4.8 -14.2,-4.9 -13.8,-4.9 -13.4,-5.0 -13.0,-5.0 -12.6,-5.0 -12.2,-5.1 -11.7,-5.1 -11.3,-5.1 -10.8,-5.2 -10.2,-5.2 -9.7,-5.2 -9.1,-5.2 -8.5,-5.2 -7.9,-5.3 -7.3,-5.3 -6.6,-5.3 -6.0,-5.3 -5.3,-5.3 -4.6,-5.3 -3.9,-5.3 -3.2,-5.3 -2.5,-5.4 -1.8,-5.4 -1.1,-5.4 -0.4,-5.4 0.3,-5.4 1.0,-5.4 1.6,-5.4 2.3,-5.4 3.0,-5.4 3.7,-5.4 4.3,-5.4 5.0,-5.4 5.6,-5.4 6.2,-5.4 6.8,-5.4 7.4,-5.3 8.0,-5.3 8.5,-5.3 9.1,-5.3 9.6,-5.3 10.1,-5.3 10.6,-5.3 11.0,-5.3 11.5,-5.3 11.9,-5.3 12.3,-5.3 12.7,-5.2 13.1,-5.2 13.5,-5.2 13.8,-5.2 14.2,-5.2 14.5,-5.2 14.8,-5.2 15.1,-5.1 15.4,-5.1 15.6,-5.1 15.9,-5.1 16.1,-5.1 16.3,-5.0 16.5,-5.0 16.8,-5.0 16.9,-5.0 17.1,-4.9 17.3,-4.9 17.4,-4.9 17.6,-4.9 15.7,-2.2 15.4,-2.1 15.1,-1.9 14.8,-1.7 14.5,-1.6 14.2,-1.4 13.9,-1.2 13.6,-1.0 13.2,-0.8 12.9,-0.6 12.5,-0.4 12.2,-0.2 11.8,-0.0 11.4,0.2 11.0,0.4 10.6,0.6 10.2,0.8 9.8,1.0 9.4,1.2 8.9,1.4 8.5,1.7 8.0,1.9 7.5,2.1 7.1,2.3 6.6,2.5 6.1,2.8 5.6,3.0 5.0,3.2 4.5,3.4 4.0,3.6 3.4,3.8 2.9,4.0 2.3,4.2 1.8,4.4 1.2,4.6 0.7,4.8 0.1,4.9 -0.5,5.1 -1.1,5.2 -1.6,5.4 -2.2,5.5 -2.8,5.6 -3.4,5.7 -3.9,5.7 -4.5,5.8 -5.1,5.8 -5.6,5.9 -6.2,5.9 -6.7,5.9 -7.3,5.8 -7.8,5.8 -8.3,5.7 -8.8,5.6 -9.3,5.5 -9.8,5.3 -10.3,5.2 -10.8,5.0 -11.2,4.8 -11.6,4.6 -12.1,4.3 -12.5,4.1 -12.8,3.8 -13.2,3.5 -13.6,3.2 -13.9,2.9 -14.2,2.7 -14.5,2.4 -14.9,2.2 -15.2,2.0 -15.4,1.7 -15.7,1.5 -16.0,1.2 -16.2,1.0 -16.5,0.7 -16.7,0.5 -16.9,0.2 -17.1,-0.0 -17.3,-0.3 -17.5,-0.5 -17.7,-0.8" fill="#fff" stroke="#fff" stroke-width="0" stroke-linejoin="round" filter="url(#fuzzy_av_1779093954985_3w2doli8tcx)"/><polyline points="18.4,-2.4 18.4,-2.5 18.3,-2.7 18.3,-2.9 18.2,-3.1 18.2,-3.2 18.1,-3.4 18.0,-3.5 17.9,-3.6 17.8,-3.8 -17.6,-3.9 -17.5,-4.0 -17.3,-4.1 -17.1,-4.2 -16.9,-4.3 -16.6,-4.4 -16.4,-4.4 -16.1,-4.5 -15.8,-4.6 -15.5,-4.7 -15.2,-4.7 -14.9,-4.8 -14.5,-4.8 -14.2,-4.9 -13.8,-4.9 -13.4,-5.0 -13.0,-5.0 -12.6,-5.0 -12.2,-5.1 -11.7,-5.1 -11.3,-5.1 -10.8,-5.2 -10.2,-5.2 -9.7,-5.2 -9.1,-5.2 -8.5,-5.2 -7.9,-5.3 -7.3,-5.3 -6.6,-5.3 -6.0,-5.3 -5.3,-5.3 -4.6,-5.3 -3.9,-5.3 -3.2,-5.3 -2.5,-5.4 -1.8,-5.4 -1.1,-5.4 -0.4,-5.4 0.3,-5.4 1.0,-5.4 1.6,-5.4 2.3,-5.4 3.0,-5.4 3.7,-5.4 4.3,-5.4 5.0,-5.4 5.6,-5.4 6.2,-5.4 6.8,-5.4 7.4,-5.3 8.0,-5.3 8.5,-5.3 9.1,-5.3 9.6,-5.3 10.1,-5.3 10.6,-5.3 11.0,-5.3 11.5,-5.3 11.9,-5.3 12.3,-5.3 12.7,-5.2 13.1,-5.2 13.5,-5.2 13.8,-5.2 14.2,-5.2 14.5,-5.2 14.8,-5.2 15.1,-5.1 15.4,-5.1 15.6,-5.1 15.9,-5.1 16.1,-5.1 16.3,-5.0 16.5,-5.0 16.8,-5.0 16.9,-5.0 17.1,-4.9 17.3,-4.9 17.4,-4.9 17.6,-4.9 -17.7,-4.8 -17.9,-4.8 -18.0,-4.8 -18.1,-4.8 -18.2,-4.7 -18.3,-4.7 -18.4,-4.7 -18.5,-4.6 -18.5,-4.6 -18.6,-4.6" fill="none" stroke="#111" stroke-width="2.362669874355724" stroke-linejoin="round" stroke-linecap="round" filter="url(#fuzzy_av_1779093954985_3w2doli8tcx)"/><polyline points="18.6,-2.7 18.6,-2.6 18.6,-2.5 18.5,-2.3 18.4,-2.1 18.3,-1.9 18.2,-1.7 18.1,-1.5 18.0,-1.3 17.8,-1.0 -17.7,-0.8 -17.5,-0.5 -17.3,-0.3 -17.1,-0.0 -16.9,0.2 -16.7,0.5 -16.5,0.7 -16.2,1.0 -16.0,1.2 -15.7,1.5 -15.4,1.7 -15.2,2.0 -14.9,2.2 -14.5,2.4 -14.2,2.7 -13.9,2.9 -13.6,3.2 -13.2,3.5 -12.8,3.8 -12.5,4.1 -12.1,4.3 -11.6,4.6 -11.2,4.8 -10.8,5.0 -10.3,5.2 -9.8,5.3 -9.3,5.5 -8.8,5.6 -8.3,5.7 -7.8,5.8 -7.3,5.8 -6.7,5.9 -6.2,5.9 -5.6,5.9 -5.1,5.8 -4.5,5.8 -3.9,5.7 -3.4,5.7 -2.8,5.6 -2.2,5.5 -1.6,5.4 -1.1,5.2 -0.5,5.1 0.1,4.9 0.7,4.8 1.2,4.6 1.8,4.4 2.3,4.2 2.9,4.0 3.4,3.8 4.0,3.6 4.5,3.4 5.0,3.2 5.6,3.0 6.1,2.8 6.6,2.5 7.1,2.3 7.5,2.1 8.0,1.9 8.5,1.7 8.9,1.4 9.4,1.2 9.8,1.0 10.2,0.8 10.6,0.6 11.0,0.4 11.4,0.2 11.8,-0.0 12.2,-0.2 12.5,-0.4 12.9,-0.6 13.2,-0.8 13.6,-1.0 13.9,-1.2 14.2,-1.4 14.5,-1.6 14.8,-1.7 15.1,-1.9 15.4,-2.1 15.7,-2.2 -16.0,-2.4 -16.2,-2.5 -16.5,-2.7 -16.7,-2.8 -17.0,-3.0 -17.2,-3.1 -17.4,-3.3 -17.6,-3.4 -17.9,-3.5 -18.1,-3.6" fill="none" stroke="#111" stroke-width="2.9741791709520538" stroke-linejoin="round" stroke-linecap="round" filter="url(#fuzzy_av_1779093954985_3w2doli8tcx)"/><circle r="3.9618131828298147" cx="-7.860717303216893" cy="0.30604048513733373" stroke="#111" fill="none" stroke-width="0.9202852377568185" filter="url(#fuzzy_av_1779093954985_3w2doli8tcx)" clip-path="url(#leftEye_av_1779093954985_3w2doli8tcx)"/><circle r="4.5905899124581895" cx="-8.514423595380123" cy="-1.269901223851735" stroke="#111" fill="none" stroke-width="1.1939512387408686" filter="url(#fuzzy_av_1779093954985_3w2doli8tcx)" clip-path="url(#leftEye_av_1779093954985_3w2doli8tcx)"/><circle r="2.3615142204135413" cx="-6.190297337520326" cy="-0.025174045025130987" stroke="#111" fill="none" stroke-width="1.3122991074677115" filter="url(#fuzzy_av_1779093954985_3w2doli8tcx)" clip-path="url(#leftEye_av_1779093954985_3w2doli8tcx)"/><circle r="3.9868487685052174" cx="-5.84191735522353" cy="-1.9081459680347155" stroke="#111" fill="none" stroke-width="1.2364308912374298" filter="url(#fuzzy_av_1779093954985_3w2doli8tcx)" clip-path="url(#leftEye_av_1779093954985_3w2doli8tcx)"/><circle r="3.2764269565522883" cx="-8.323436644560825" cy="0.811554452331757" stroke="#111" fill="none" stroke-width="0.8097435393480275" filter="url(#fuzzy_av_1779093954985_3w2doli8tcx)" clip-path="url(#leftEye_av_1779093954985_3w2doli8tcx)"/><circle r="3.1848870810743115" cx="-9.473060111876254" cy="-0.058128432878991276" stroke="#111" fill="none" stroke-width="1.0556428304795564" filter="url(#fuzzy_av_1779093954985_3w2doli8tcx)" clip-path="url(#leftEye_av_1779093954985_3w2doli8tcx)"/><circle r="3.204796685159702" cx="-9.032603234761979" cy="1.3693602755686198" stroke="#111" fill="none" stroke-width="0.9888231165921825" filter="url(#fuzzy_av_1779093954985_3w2doli8tcx)" clip-path="url(#leftEye_av_1779093954985_3w2doli8tcx)"/><circle r="4.526005819085983" cx="-6.692512674642608" cy="1.21837273673128" stroke="#111" fill="none" stroke-width="1.1262106024817053" filter="url(#fuzzy_av_1779093954985_3w2doli8tcx)" clip-path="url(#leftEye_av_1779093954985_3w2doli8tcx)"/><circle r="3.34306947880855" cx="-7.1499066970815175" cy="0.9654694532017882" stroke="#111" fill="none" stroke-width="0.8937621848005212" filter="url(#fuzzy_av_1779093954985_3w2doli8tcx)" clip-path="url(#leftEye_av_1779093954985_3w2doli8tcx)"/><circle r="2.914252044716811" cx="-6.427931945198424" cy="-1.7084872568631209" stroke="#111" fill="none" stroke-width="1.0706326709093954" filter="url(#fuzzy_av_1779093954985_3w2doli8tcx)" clip-path="url(#leftEye_av_1779093954985_3w2doli8tcx)"/></g><g id="rightEye" transform="translate(23.4 -31.5)"><polyline points="-18.2,-4.5 -18.1,-4.6 -18.0,-4.8 -17.8,-4.9 -17.6,-5.0 -17.4,-5.2 -17.2,-5.3 -17.0,-5.4 -16.7,-5.5 -16.4,-5.6 -16.1,-5.7 -15.8,-5.8 -15.5,-5.8 -15.2,-5.9 -14.8,-6.0 -14.4,-6.0 -14.1,-6.1 -13.7,-6.1 -13.3,-6.2 -12.9,-6.2 -12.4,-6.3 -11.9,-6.3 -11.4,-6.3 -10.9,-6.4 -10.3,-6.4 -9.8,-6.4 -9.2,-6.5 -8.6,-6.5 -8.0,-6.5 -7.3,-6.5 -6.7,-6.5 -6.0,-6.5 -5.3,-6.6 -4.7,-6.6 -4.0,-6.6 -3.3,-6.6 -2.6,-6.6 -1.9,-6.6 -1.2,-6.6 -0.6,-6.6 0.1,-6.6 0.8,-6.6 1.5,-6.6 2.1,-6.6 2.8,-6.6 3.4,-6.6 4.0,-6.6 4.7,-6.6 5.3,-6.6 5.8,-6.6 6.4,-6.5 7.0,-6.5 7.5,-6.5 8.0,-6.5 8.5,-6.5 9.0,-6.5 9.5,-6.5 10.0,-6.5 10.4,-6.4 10.8,-6.4 11.2,-6.4 11.6,-6.4 12.0,-6.4 12.4,-6.3 12.7,-6.3 13.0,-6.3 13.4,-6.3 13.7,-6.2 14.0,-6.2 14.2,-6.2 14.5,-6.2 14.8,-6.1 15.0,-6.1 15.2,-6.1 15.4,-6.0 15.6,-6.0 15.8,-6.0 16.0,-5.9 16.2,-5.9 16.4,-5.8 15.8,-2.8 15.5,-2.6 15.3,-2.4 15.1,-2.2 14.8,-1.9 14.5,-1.7 14.3,-1.5 14.0,-1.3 13.7,-1.0 13.4,-0.8 13.1,-0.6 12.8,-0.3 12.5,-0.1 12.1,0.2 11.8,0.4 11.4,0.7 11.1,0.9 10.7,1.2 10.3,1.5 9.9,1.7 9.5,2.0 9.1,2.3 8.7,2.6 8.2,2.8 7.8,3.1 7.3,3.4 6.8,3.7 6.3,3.9 5.9,4.2 5.4,4.5 4.8,4.7 4.3,5.0 3.8,5.2 3.2,5.4 2.7,5.7 2.1,5.9 1.6,6.1 1.0,6.3 0.5,6.4 -0.1,6.6 -0.7,6.7 -1.3,6.9 -1.9,7.0 -2.5,7.1 -3.0,7.1 -3.6,7.2 -4.2,7.2 -4.8,7.2 -5.4,7.2 -5.9,7.1 -6.5,7.1 -7.1,7.0 -7.6,6.9 -8.1,6.7 -8.7,6.5 -9.2,6.3 -9.7,6.1 -10.2,5.9 -10.7,5.6 -11.2,5.3 -11.6,5.0 -12.1,4.6 -12.5,4.3 -12.9,3.9 -13.3,3.5 -13.7,3.2 -14.1,3.0 -14.5,2.7 -14.8,2.4 -15.2,2.1 -15.5,1.8 -15.8,1.5 -16.1,1.2 -16.4,0.9 -16.7,0.6 -17.0,0.2 -17.2,-0.1 -17.5,-0.4 -17.7,-0.7 -17.9,-1.0" fill="#fff" stroke="#fff" stroke-width="0" stroke-linejoin="round" filter="url(#fuzzy_av_1779093954985_3w2doli8tcx)"/><polyline points="-18.6,-2.2 -18.6,-2.5 -18.6,-2.8 -18.6,-3.0 -18.6,-3.3 -18.6,-3.5 -18.6,-3.7 -18.5,-3.9 -18.4,-4.1 -18.3,-4.3 -18.2,-4.5 -18.1,-4.6 -18.0,-4.8 -17.8,-4.9 -17.6,-5.0 -17.4,-5.2 -17.2,-5.3 -17.0,-5.4 -16.7,-5.5 -16.4,-5.6 -16.1,-5.7 -15.8,-5.8 -15.5,-5.8 -15.2,-5.9 -14.8,-6.0 -14.4,-6.0 -14.1,-6.1 -13.7,-6.1 -13.3,-6.2 -12.9,-6.2 -12.4,-6.3 -11.9,-6.3 -11.4,-6.3 -10.9,-6.4 -10.3,-6.4 -9.8,-6.4 -9.2,-6.5 -8.6,-6.5 -8.0,-6.5 -7.3,-6.5 -6.7,-6.5 -6.0,-6.5 -5.3,-6.6 -4.7,-6.6 -4.0,-6.6 -3.3,-6.6 -2.6,-6.6 -1.9,-6.6 -1.2,-6.6 -0.6,-6.6 0.1,-6.6 0.8,-6.6 1.5,-6.6 2.1,-6.6 2.8,-6.6 3.4,-6.6 4.0,-6.6 4.7,-6.6 5.3,-6.6 5.8,-6.6 6.4,-6.5 7.0,-6.5 7.5,-6.5 8.0,-6.5 8.5,-6.5 9.0,-6.5 9.5,-6.5 10.0,-6.5 10.4,-6.4 10.8,-6.4 11.2,-6.4 11.6,-6.4 12.0,-6.4 12.4,-6.3 12.7,-6.3 13.0,-6.3 13.4,-6.3 13.7,-6.2 14.0,-6.2 14.2,-6.2 14.5,-6.2 14.8,-6.1 15.0,-6.1 15.2,-6.1 15.4,-6.0 15.6,-6.0 15.8,-6.0 16.0,-5.9 16.2,-5.9 16.4,-5.8 16.5,-5.8 16.7,-5.8 16.8,-5.7 16.9,-5.7 17.0,-5.6 17.1,-5.6 17.2,-5.5 17.3,-5.5 17.4,-5.4 17.5,-5.4" fill="none" stroke="#111" stroke-width="3.049877229421514" stroke-linejoin="round" stroke-linecap="round" filter="url(#fuzzy_av_1779093954985_3w2doli8tcx)"/><polyline points="-19.3,-3.4 -19.3,-3.2 -19.2,-3.1 -19.1,-2.9 -18.9,-2.7 -18.8,-2.4 -18.7,-2.2 -18.5,-1.9 -18.3,-1.6 -18.1,-1.3 -17.9,-1.0 -17.7,-0.7 -17.5,-0.4 -17.2,-0.1 -17.0,0.2 -16.7,0.6 -16.4,0.9 -16.1,1.2 -15.8,1.5 -15.5,1.8 -15.2,2.1 -14.8,2.4 -14.5,2.7 -14.1,3.0 -13.7,3.2 -13.3,3.5 -12.9,3.9 -12.5,4.3 -12.1,4.6 -11.6,5.0 -11.2,5.3 -10.7,5.6 -10.2,5.9 -9.7,6.1 -9.2,6.3 -8.7,6.5 -8.1,6.7 -7.6,6.9 -7.1,7.0 -6.5,7.1 -5.9,7.1 -5.4,7.2 -4.8,7.2 -4.2,7.2 -3.6,7.2 -3.0,7.1 -2.5,7.1 -1.9,7.0 -1.3,6.9 -0.7,6.7 -0.1,6.6 0.5,6.4 1.0,6.3 1.6,6.1 2.1,5.9 2.7,5.7 3.2,5.4 3.8,5.2 4.3,5.0 4.8,4.7 5.4,4.5 5.9,4.2 6.3,3.9 6.8,3.7 7.3,3.4 7.8,3.1 8.2,2.8 8.7,2.6 9.1,2.3 9.5,2.0 9.9,1.7 10.3,1.5 10.7,1.2 11.1,0.9 11.4,0.7 11.8,0.4 12.1,0.2 12.5,-0.1 12.8,-0.3 13.1,-0.6 13.4,-0.8 13.7,-1.0 14.0,-1.3 14.3,-1.5 14.5,-1.7 14.8,-1.9 15.1,-2.2 15.3,-2.4 15.5,-2.6 15.8,-2.8 16.0,-3.0 16.2,-3.2 16.4,-3.3 16.6,-3.5 16.8,-3.7 17.0,-3.9 17.2,-4.0 17.4,-4.2 17.5,-4.4 17.7,-4.5" fill="none" stroke="#111" stroke-width="2.2313740592286164" stroke-linejoin="round" stroke-linecap="round" filter="url(#fuzzy_av_1779093954985_3w2doli8tcx)"/><circle r="2.630258958185307" cx="-2.2908930882327874" cy="-3.2386897679239164" stroke="#111" fill="none" stroke-width="1.1188927177420065" filter="url(#fuzzy_av_1779093954985_3w2doli8tcx)" clip-path="url(#rightEye_av_1779093954985_3w2doli8tcx)"/><circle r="2.623418838554052" cx="-1.482706328785238" cy="-2.42524530094909" stroke="#111" fill="none" stroke-width="1.3949639223140993" filter="url(#fuzzy_av_1779093954985_3w2doli8tcx)" clip-path="url(#rightEye_av_1779093954985_3w2doli8tcx)"/><circle r="4.252544797583298" cx="-3.5120429834512032" cy="-3.4253211856674737" stroke="#111" fill="none" stroke-width="1.3927613232614897" filter="url(#fuzzy_av_1779093954985_3w2doli8tcx)" clip-path="url(#rightEye_av_1779093954985_3w2doli8tcx)"/><circle r="2.972306877491509" cx="-3.130807073596172" cy="-1.1114748068854912" stroke="#111" fill="none" stroke-width="1.166807028648235" filter="url(#fuzzy_av_1779093954985_3w2doli8tcx)" clip-path="url(#rightEye_av_1779093954985_3w2doli8tcx)"/><circle r="3.024328105872321" cx="-2.9424725380797634" cy="-4.92657076721664" stroke="#111" fill="none" stroke-width="1.2940418955860058" filter="url(#fuzzy_av_1779093954985_3w2doli8tcx)" clip-path="url(#rightEye_av_1779093954985_3w2doli8tcx)"/><circle r="4.209813520954709" cx="-1.792817471282445" cy="-4.480109965680234" stroke="#111" fill="none" stroke-width="1.2082614977489146" filter="url(#fuzzy_av_1779093954985_3w2doli8tcx)" clip-path="url(#rightEye_av_1779093954985_3w2doli8tcx)"/><circle r="3.62733611334013" cx="-3.6436667728982117" cy="-4.723438413315264" stroke="#111" fill="none" stroke-width="1.227854020675153" filter="url(#fuzzy_av_1779093954985_3w2doli8tcx)" clip-path="url(#rightEye_av_1779093954985_3w2doli8tcx)"/><circle r="4.5901734346613825" cx="-4.801248095067828" cy="-0.8872594684244874" stroke="#111" fill="none" stroke-width="1.2188772490060638" filter="url(#fuzzy_av_1779093954985_3w2doli8tcx)" clip-path="url(#rightEye_av_1779093954985_3w2doli8tcx)"/><circle r="3.4322756520268705" cx="-4.591155184569489" cy="-4.413420619999419" stroke="#111" fill="none" stroke-width="1.182535266089016" filter="url(#fuzzy_av_1779093954985_3w2doli8tcx)" clip-path="url(#rightEye_av_1779093954985_3w2doli8tcx)"/><circle r="3.936591285907336" cx="-1.1460831638975213" cy="-3.731012881782098" stroke="#111" fill="none" stroke-width="1.1965915019218245" filter="url(#fuzzy_av_1779093954985_3w2doli8tcx)" clip-path="url(#rightEye_av_1779093954985_3w2doli8tcx)"/></g><g id="hairs"><polyline points="54.6,-21.3 55.7,-21.2 56.1,-17.7 56.4,-14.5 56.6,-12.6 56.8,-8.8 56.8,-7.6 56.7,-3.2 56.4,-0.4 55.9,2.4 55.3,6.0 54.6,8.8 53.9,10.4 53.2,14.3 52.5,16.3 51.8,19.1 50.9,21.9 50.0,23.6 48.9,27.2 47.8,30.3 46.5,32.8 45.0,36.0 43.0,38.9" fill="none" stroke="rgb(120,84,60)" stroke-width="1.3172829371620605" stroke-linejoin="round" stroke-linecap="round" filter="url(#fuzzy_av_1779093954985_3w2doli8tcx)" opacity="0.9276753634209931"/><polyline points="53.8,-27.6 55.2,-22.5 56.5,-20.0 57.8,-15.8 58.9,-13.3 59.8,-10.8 60.5,-6.5 61.1,-3.9 61.6,-1.6 62.0,1.6 62.1,3.2 62.0,7.0 61.6,10.2 61.0,13.6 60.2,15.2 59.4,18.5 58.5,21.6 57.5,23.4 56.5,26.2 55.6,28.4 54.7,30.6 53.9,33.9 53.1,36.0 52.0,38.1 50.6,39.2 48.9,41.9 47.1,43.4 45.4,44.9 44.2,47.3 43.2,48.7" fill="none" stroke="rgb(120,84,60)" stroke-width="1.1680480771066086" stroke-linejoin="round" stroke-linecap="round" filter="url(#fuzzy_av_1779093954985_3w2doli8tcx)" opacity="0.8564019760666701"/><polyline points="53.7,-29.0 54.4,-24.1 54.9,-21.2 55.4,-19.2 55.9,-15.6 56.3,-12.2 56.7,-10.5 56.8,-6.2 56.7,-4.2 56.4,-1.2 55.9,2.6 55.4,4.9 54.8,8.3 54.4,11.1 53.9,13.9 53.6,17.2 53.4,18.7 53.1,21.7 52.6,25.5 51.9,26.4 50.8,29.0 49.5,32.8 48.0,35.4 46.5,37.2 45.2,40.4 44.0,41.8 42.6,43.9 40.3,45.4" fill="none" stroke="rgb(120,84,60)" stroke-width="2.3353969275231368" stroke-linejoin="round" stroke-linecap="round" filter="url(#fuzzy_av_1779093954985_3w2doli8tcx)" opacity="0.8013545956392695"/><polyline points="53.7,-28.6 54.4,-25.3 54.8,-21.2 55.0,-19.2 55.2,-15.4 55.3,-13.1 55.2,-9.5 55.1,-6.3 54.9,-3.6 54.6,-1.1 54.2,2.0 53.8,5.8 53.2,8.5 52.5,10.9 51.8,15.3 50.9,16.3 50.0,19.4 49.0,22.8 47.9,25.7 46.7,26.8 45.4,30.0 44.0,32.6 42.6,36.0 41.0,36.7 39.5,40.1 37.9,41.6 36.3,44.4 34.6,45.6 32.9,47.2 31.2,49.4 29.2,50.3 26.2,51.9" fill="none" stroke="rgb(120,84,60)" stroke-width="1.8558580889597123" stroke-linejoin="round" stroke-linecap="round" filter="url(#fuzzy_av_1779093954985_3w2doli8tcx)" opacity="0.9689988409191584"/><polyline points="53.9,-27.4 56.1,-26.8 56.7,-21.8 56.7,-18.9 56.7,-17.6 56.8,-14.2 56.9,-11.0 57.2,-8.0 57.5,-3.6 57.8,-1.5 58.2,0.4 58.7,4.3 59.2,6.2 59.9,10.2 60.5,12.9 61.0,15.5 61.3,18.2 61.2,21.9 60.6,23.4 59.5,25.9 58.1,28.8 56.4,30.6 54.8,32.8 53.3,36.4 52.0,37.4 51.0,39.1 50.1,41.8 49.0,43.7 47.4,46.1 45.3,48.0 42.8,48.6 40.2,50.8" fill="none" stroke="rgb(120,84,60)" stroke-width="0.8331583915365463" stroke-linejoin="round" stroke-linecap="round" filter="url(#fuzzy_av_1779093954985_3w2doli8tcx)" opacity="0.8963082413957486"/><polyline points="53.5,-29.7 53.9,-28.7 54.3,-24.8 54.8,-22.3 55.3,-20.4 55.8,-17.0 56.2,-13.4 56.8,-10.0 57.3,-8.1 57.7,-4.2 58.0,-1.8 58.2,0.4 58.2,3.5 58.1,7.3 58.0,9.3 57.8,12.0 57.5,14.8 56.8,17.9 55.8,21.1 54.6,24.3 53.2,26.4 51.6,29.5 50.0,31.6 48.4,32.9 46.8,36.2 45.3,38.6 43.7,40.2 42.2,42.3 40.8,44.2 39.4,45.0 37.9,47.0 35.9,49.5 33.2,51.4 29.5,52.8" fill="none" stroke="rgb(120,84,60)" stroke-width="2.440085210108366" stroke-linejoin="round" stroke-linecap="round" filter="url(#fuzzy_av_1779093954985_3w2doli8tcx)" opacity="0.9592136592865508"/><polyline points="52.1,-33.4 52.7,-33.3 53.5,-31.1 54.2,-26.9 54.9,-24.9 55.5,-20.9 56.0,-18.8 56.3,-16.3 56.6,-12.9 56.7,-9.4 56.7,-7.4 56.7,-3.3 56.5,0.0 56.3,2.5 56.0,6.3 55.6,8.2 55.2,11.8 54.7,13.6 54.1,17.2 53.4,20.2 52.6,21.8 51.7,25.0 50.7,28.3 49.6,30.1 48.4,32.2 47.1,34.3 45.8,38.3 44.4,39.9 43.0,41.6 41.4,44.0 39.7,45.3 37.8,46.5 35.8,49.4 33.7,50.5 31.4,51.4 29.1,53.9 27.1,53.8 25.6,55.8" fill="none" stroke="rgb(120,84,60)" stroke-width="1.4834604697307563" stroke-linejoin="round" stroke-linecap="round" filter="url(#fuzzy_av_1779093954985_3w2doli8tcx)" opacity="0.7936570490052182"/><polyline points="50.0,-41.6 51.0,-37.6 51.4,-34.1 51.6,-30.7 52.1,-27.4 52.7,-26.1 53.3,-23.6 53.6,-20.5 53.8,-16.9 53.6,-14.2 53.3,-11.6 52.9,-8.5 52.5,-4.0 51.9,-2.3 51.3,1.7 50.6,3.4 49.7,6.0 48.7,10.4 47.7,13.2 46.6,14.8 45.6,17.9 44.5,21.6 43.4,22.6 42.3,26.6 41.0,28.4 39.6,31.6 38.2,32.2 36.7,34.4 35.1,37.2 33.4,40.1 31.8,42.5 30.1,43.4 28.6,46.1 27.1,47.8 25.3,48.2" fill="none" stroke="rgb(120,84,60)" stroke-width="1.9468037124272022" stroke-linejoin="round" stroke-linecap="round" filter="url(#fuzzy_av_1779093954985_3w2doli8tcx)" opacity="0.8377060350337325"/><polyline points="49.5,-41.6 50.6,-41.0 52.4,-37.4 54.2,-36.3 55.8,-33.5 57.3,-30.9 58.7,-29.0 60.2,-24.6 61.5,-23.0 62.6,-19.5 63.5,-16.3 64.2,-14.2 64.9,-9.7 65.6,-7.8 66.5,-4.0 67.6,-0.9 68.8,1.1 69.8,4.5 70.7,7.4 71.3,10.4 71.6,12.8 71.9,15.5 71.9,18.3 70.3,19.7" fill="none" stroke="rgb(120,84,60)" stroke-width="2.2225091217201456" stroke-linejoin="round" stroke-linecap="round" filter="url(#fuzzy_av_1779093954985_3w2doli8tcx)" opacity="0.9020320668167273"/><polyline points="45.2,-50.7 46.2,-48.6 47.7,-46.1 49.0,-43.6 50.1,-40.2 51.1,-38.7 52.0,-36.6 52.8,-34.2 53.5,-30.8 54.2,-28.9 54.7,-25.1 55.2,-21.8 55.6,-20.2 55.9,-15.8 56.1,-14.0 56.2,-9.7 56.2,-8.1 56.1,-3.9 55.9,-2.1 55.4,2.4 54.9,3.8 54.3,7.3 53.5,10.3 52.8,12.8 52.0,16.5 51.1,18.1 50.2,21.5 49.2,24.5 48.0,26.8 46.6,30.2 45.0,32.4 43.3,34.7 41.6,38.4 39.8,40.3" fill="none" stroke="rgb(120,84,60)" stroke-width="2.3122368157160644" stroke-linejoin="round" stroke-linecap="round" filter="url(#fuzzy_av_1779093954985_3w2doli8tcx)" opacity="0.8856004743909169"/><polyline points="42.5,-53.4 46.0,-51.4 48.9,-47.8 51.3,-45.9 52.9,-43.7 53.9,-41.8 54.5,-38.0 55.2,-35.8 56.0,-34.1 57.1,-30.2 58.1,-28.2 59.0,-25.5 59.7,-21.6 60.0,-19.1 60.3,-15.7 60.4,-14.3 60.6,-10.3 60.8,-8.4 61.2,-5.1 61.6,-1.5 62.0,1.7 62.4,3.7 62.6,8.4 62.6,10.8 62.2,13.5 61.6,15.8 60.9,19.0 60.2,20.5 59.5,24.2 59.2,25.5 59.2,27.5" fill="none" stroke="rgb(120,84,60)" stroke-width="1.613574031891174" stroke-linejoin="round" stroke-linecap="round" filter="url(#fuzzy_av_1779093954985_3w2doli8tcx)" opacity="0.8350730436368761"/><polyline points="36.7,-59.9 38.4,-57.4 38.7,-56.0 38.6,-55.5 38.8,-52.4 39.7,-49.4 40.7,-47.3 41.5,-45.9 41.8,-42.4 41.7,-40.2 41.6,-36.9 41.3,-34.1 40.8,-32.1 40.0,-29.8 38.7,-26.6 37.1,-24.6 35.6,-20.7 34.4,-19.0 33.5,-14.5 33.0,-11.5 32.6,-9.8 32.3,-5.4 31.4,-2.6 29.5,-0.8 26.9,2.0 25.0,6.3" fill="none" stroke="rgb(120,84,60)" stroke-width="0.8569039002109706" stroke-linejoin="round" stroke-linecap="round" filter="url(#fuzzy_av_1779093954985_3w2doli8tcx)" opacity="0.979118942533753"/><polyline points="33.4,-63.9 35.6,-61.7 37.8,-60.6 39.8,-57.6 41.5,-55.7 43.0,-55.4 44.5,-53.4 45.9,-51.2 47.3,-48.5 48.8,-45.8 50.3,-42.8 51.8,-40.7 53.4,-37.6 54.9,-34.5 56.2,-33.1 57.3,-29.7 58.1,-26.5 58.7,-24.0 59.1,-21.3 59.4,-18.4 59.7,-14.9 60.1,-11.7 60.4,-9.3 60.7,-5.5 60.9,-4.1 61.1,-0.2 61.3,4.2" fill="none" stroke="rgb(120,84,60)" stroke-width="1.4678026721539863" stroke-linejoin="round" stroke-linecap="round" filter="url(#fuzzy_av_1779093954985_3w2doli8tcx)" opacity="0.8211202363253184"/><polyline points="30.8,-64.4 33.3,-63.0 36.0,-62.0 38.5,-60.4 40.6,-57.4 42.2,-57.2 43.9,-55.6 46.0,-52.2 48.7,-49.5 51.7,-47.6 54.9,-46.9 57.7,-43.4 60.0,-40.0 61.8,-37.5 63.2,-35.5 64.3,-33.3 65.2,-29.0 66.0,-26.7 66.7,-24.5 67.3,-21.9 67.8,-17.7 68.5,-16.3 69.4,-12.2 70.7,-10.1 72.0,-7.4 73.0,-4.2 73.4,-1.1 74.0,3.1" fill="none" stroke="rgb(120,84,60)" stroke-width="2.2052841017485885" stroke-linejoin="round" stroke-linecap="round" filter="url(#fuzzy_av_1779093954985_3w2doli8tcx)" opacity="0.9929696523792394"/><polyline points="30.8,-65.3 33.3,-62.5 35.6,-60.9 37.8,-60.2 39.7,-57.4 41.5,-56.6 43.3,-53.9 45.2,-53.5 47.1,-49.5 49.0,-47.8 50.8,-45.5 52.6,-42.4 54.2,-39.8 55.8,-38.4 57.3,-35.9 58.8,-31.9 60.2,-30.3 61.6,-26.1 62.7,-24.4 63.7,-20.5 64.5,-19.1 65.1,-15.0 65.7,-12.7 66.1,-9.5 66.5,-5.6 66.8,-4.3 66.9,-1.1 67.0,1.7 67.1,4.7 67.4,8.5 67.8,12.2" fill="none" stroke="rgb(120,84,60)" stroke-width="2.448577197621276" stroke-linejoin="round" stroke-linecap="round" filter="url(#fuzzy_av_1779093954985_3w2doli8tcx)" opacity="0.7733542008730663"/><polyline points="20.0,-69.7 22.2,-69.4 24.6,-68.7 26.9,-67.9 29.0,-65.8 31.1,-64.6 33.3,-63.3 35.4,-61.1 37.6,-60.2 39.6,-57.3 41.6,-55.1 43.4,-54.0 45.2,-51.5 46.9,-49.0 48.5,-46.1 50.0,-43.4 51.4,-42.0 52.6,-39.9 53.7,-37.4 54.6,-34.6 55.3,-32.0 56.0,-28.9 56.5,-25.6 57.1,-23.4 57.6,-20.7 58.0,-18.4 58.5,-14.1 58.8,-12.0 59.1,-7.8 59.2,-5.0 59.2,-2.7 59.1,0.9 59.2,2.8" fill="none" stroke="rgb(120,84,60)" stroke-width="2.517318828556638" stroke-linejoin="round" stroke-linecap="round" filter="url(#fuzzy_av_1779093954985_3w2doli8tcx)" opacity="0.9588438869436544"/><polyline points="20.0,-70.7 22.2,-70.1 24.8,-68.3 27.7,-68.2 30.6,-65.4 33.5,-64.0 36.4,-63.1 39.0,-61.6 41.2,-59.0 43.1,-56.8 44.6,-54.7 46.1,-54.3 47.6,-50.8 49.3,-49.4 51.4,-47.6 53.7,-44.8 56.3,-42.0 58.9,-38.9 61.5,-37.9 63.8,-35.6 65.8,-32.9 67.6,-29.6 69.5,-27.7 72.3,-21.8" fill="none" stroke="rgb(120,84,60)" stroke-width="1.5480832775112952" stroke-linejoin="round" stroke-linecap="round" filter="url(#fuzzy_av_1779093954985_3w2doli8tcx)" opacity="0.7714038552821914"/><polyline points="15.4,-72.7 17.7,-71.7 19.9,-70.2 22.2,-69.1 24.5,-68.8 26.8,-67.5 29.0,-66.7 31.1,-64.9 33.2,-64.0 35.3,-60.6 37.5,-59.3 39.7,-57.5 41.8,-56.7 43.8,-54.4 45.7,-51.1 47.5,-50.2 49.3,-46.8 50.9,-45.0 52.4,-42.0 53.7,-39.3 54.9,-37.4 56.2,-36.3 57.4,-33.1 58.5,-31.3" fill="none" stroke="rgb(120,84,60)" stroke-width="2.369385976902346" stroke-linejoin="round" stroke-linecap="round" filter="url(#fuzzy_av_1779093954985_3w2doli8tcx)" opacity="0.8837647742541619"/><polyline points="13.1,-72.3 15.4,-71.9 17.8,-71.9 20.2,-70.0 22.6,-68.7 25.0,-69.0 27.3,-67.3 29.7,-65.2 32.0,-64.5 34.4,-62.9 36.9,-60.6 39.4,-60.0 42.0,-56.8 44.6,-55.1 47.1,-53.8 49.5,-50.5 51.6,-48.6 53.5,-45.9 55.1,-43.5 56.4,-42.9 57.5,-39.1 58.5,-36.7 59.4,-35.6 60.3,-31.6 61.2,-29.9 62.2,-27.0 63.3,-24.2 64.4,-21.5 65.4,-18.0 66.3,-13.8 67.2,-10.6" fill="none" stroke="rgb(120,84,60)" stroke-width="0.8002481744081515" stroke-linejoin="round" stroke-linecap="round" filter="url(#fuzzy_av_1779093954985_3w2doli8tcx)" opacity="0.987933057955721"/><polyline points="13.1,-73.4 15.6,-71.4 18.4,-70.7 21.0,-71.1 23.4,-69.0 25.7,-67.7 28.1,-67.3 30.4,-65.2 32.6,-65.2 34.7,-63.8 36.8,-60.8 38.9,-60.2 41.0,-57.7 43.3,-56.2 45.5,-53.4 47.7,-51.6 49.9,-49.8 51.8,-46.0 53.6,-43.8 55.3,-42.4 56.8,-38.5 58.1,-36.8 59.4,-35.5 60.5,-32.8 61.5,-28.7 62.5,-27.5 63.3,-23.8 64.2,-20.2 65.0,-17.2 65.9,-15.6 66.8,-10.9 67.5,-8.3 68.0,-5.4 68.7,-0.2" fill="none" stroke="rgb(120,84,60)" stroke-width="1.5179466692070682" stroke-linejoin="round" stroke-linecap="round" filter="url(#fuzzy_av_1779093954985_3w2doli8tcx)" opacity="0.884230074312744"/><polyline points="-7.7,-72.6 -5.1,-72.7 -2.8,-73.6 -0.2,-74.7 2.5,-73.4 5.2,-74.5 8.0,-74.3 10.8,-73.4 13.6,-73.2 16.4,-71.8 19.2,-71.2 21.9,-70.0 24.5,-68.2 27.2,-67.2 29.7,-66.5 32.3,-64.6 35.0,-64.4 37.7,-61.7 40.6,-61.3 43.6,-58.4 46.7,-57.0 49.8,-55.1 52.9,-52.8 55.9,-52.5 58.7,-49.0 61.3,-47.5 63.5,-45.2 65.4,-43.1 67.1,-39.4 68.8,-36.5 70.9,-32.0" fill="none" stroke="rgb(120,84,60)" stroke-width="2.257320718830785" stroke-linejoin="round" stroke-linecap="round" filter="url(#fuzzy_av_1779093954985_3w2doli8tcx)" opacity="0.8668101304025027"/><polyline points="-15.4,-72.2 -13.8,-71.7 -11.2,-72.0 -8.4,-73.0 -5.7,-73.8 -3.0,-73.9 -0.3,-73.8 2.4,-73.6 5.1,-74.3 8.0,-74.1 10.8,-73.0 13.7,-72.0 16.6,-72.1 19.7,-71.8 22.8,-70.1 26.0,-68.7 29.3,-68.7 32.6,-66.6 35.8,-66.1 38.8,-63.0 41.6,-61.7 44.1,-61.2 46.4,-58.7 48.6,-56.8 50.8,-55.5 53.2,-53.7 55.6,-51.3 58.1,-49.0 60.5,-47.8 62.8,-43.6 65.1,-41.7 67.3,-38.8 69.5,-36.7 71.6,-32.5 73.5,-31.3 74.9,-28.5 75.8,-26.4" fill="none" stroke="rgb(120,84,60)" stroke-width="1.9359135172316222" stroke-linejoin="round" stroke-linecap="round" filter="url(#fuzzy_av_1779093954985_3w2doli8tcx)" opacity="0.8966306592247671"/><polyline points="-28.3,-64.3 -26.1,-67.2 -23.9,-68.0 -21.5,-68.9 -19.0,-70.3 -16.4,-71.1 -13.7,-71.8 -11.1,-72.4 -8.5,-72.7 -5.9,-72.6 -3.3,-73.3 -0.8,-74.1 1.8,-72.8 4.3,-73.0 6.9,-74.1 9.4,-73.1 12.0,-71.6 14.5,-72.5 17.1,-71.5 19.6,-69.7 22.1,-70.0 24.6,-67.3 27.1,-66.5 29.5,-65.7 31.7,-63.4 33.9,-63.2 36.0,-61.3 37.9,-59.6 39.8,-58.4 41.6,-55.7 43.3,-53.7 44.9,-51.0 46.5,-49.8 47.8,-47.8 49.0,-47.1" fill="none" stroke="rgb(120,84,60)" stroke-width="2.276453392085691" stroke-linejoin="round" stroke-linecap="round" filter="url(#fuzzy_av_1779093954985_3w2doli8tcx)" opacity="0.9428997005054454"/><polyline points="-37.2,-58.1 -35.5,-60.5 -32.9,-63.6 -30.3,-64.0 -27.8,-66.8 -25.6,-66.1 -23.5,-68.8 -21.5,-69.7 -19.6,-70.2 -17.5,-71.6 -15.3,-71.7 -12.9,-71.9 -10.3,-73.5 -7.5,-72.8 -4.4,-74.0 -1.2,-74.2 2.2,-73.5 5.8,-73.3 9.5,-72.4 13.3,-73.5 17.2,-73.3 21.0,-72.3 24.8,-70.4 28.4,-70.6 32.0,-69.0 35.6,-68.7" fill="none" stroke="rgb(120,84,60)" stroke-width="1.2625442808164344" stroke-linejoin="round" stroke-linecap="round" filter="url(#fuzzy_av_1779093954985_3w2doli8tcx)" opacity="0.8405838774771468"/><polyline points="-37.6,-58.0 -35.9,-59.4 -33.9,-61.3 -31.8,-62.9 -29.5,-65.4 -27.1,-67.3 -24.6,-67.1 -22.1,-68.4 -19.5,-70.2 -17.0,-71.1 -14.3,-70.4 -11.7,-71.4 -9.1,-71.8 -6.4,-73.6 -3.7,-73.0 -1.1,-74.3 1.7,-74.0 4.4,-73.1 7.2,-72.5 9.9,-72.8 12.7,-72.1 15.5,-71.1 18.4,-70.6 21.2,-69.5 24.1,-69.8 26.9,-67.6 29.8,-67.1 32.6,-66.7 35.4,-63.6 38.1,-62.8 40.7,-61.2 43.2,-60.3 46.2,-57.9" fill="none" stroke="rgb(120,84,60)" stroke-width="1.3188196957716736" stroke-linejoin="round" stroke-linecap="round" filter="url(#fuzzy_av_1779093954985_3w2doli8tcx)" opacity="0.8834250114268629"/><polyline points="-41.3,-53.8 -40.3,-56.0 -39.8,-57.8 -38.4,-59.5 -36.1,-61.1 -33.6,-64.1 -30.9,-65.5 -28.3,-65.6 -25.8,-67.2 -23.3,-69.2 -20.8,-69.7 -18.3,-69.4 -15.8,-70.7 -13.2,-71.5 -10.6,-73.3 -7.8,-73.1 -5.0,-74.2 -2.0,-74.0 1.0,-73.7 4.2,-74.4 7.6,-73.4 10.9,-72.5 14.2,-73.0 17.2,-73.2 20.7,-72.8" fill="none" stroke="rgb(120,84,60)" stroke-width="2.4303557263397155" stroke-linejoin="round" stroke-linecap="round" filter="url(#fuzzy_av_1779093954985_3w2doli8tcx)" opacity="0.9446677827723098"/><polyline points="-40.6,-55.3 -42.4,-56.1 -40.0,-57.8 -37.3,-58.8 -34.9,-60.1 -32.7,-62.1 -30.7,-63.7 -28.8,-65.9 -26.9,-67.6 -25.0,-67.8 -23.1,-68.3 -21.0,-69.0 -18.8,-71.6 -16.2,-71.3 -13.4,-71.2 -10.5,-72.4 -7.3,-73.5 -4.0,-72.4 -0.6,-74.2 2.9,-73.9 6.6,-74.1 10.3,-72.9 13.9,-72.6 17.4,-72.2 20.9,-71.7 24.3,-70.1 27.9,-70.7 31.8,-69.5 36.0,-69.3 40.5,-66.3" fill="none" stroke="rgb(120,84,60)" stroke-width="1.9528820114537715" stroke-linejoin="round" stroke-linecap="round" filter="url(#fuzzy_av_1779093954985_3w2doli8tcx)" opacity="0.8098859350398472"/><polyline points="-43.1,-52.2 -42.6,-54.0 -41.2,-55.3 -39.5,-57.2 -37.8,-59.7 -35.9,-60.2 -33.9,-62.6 -31.9,-64.0 -29.9,-65.2 -27.9,-66.4 -25.7,-67.6 -23.4,-69.2 -20.9,-70.7 -18.2,-70.4 -15.4,-72.2 -12.6,-72.9 -9.8,-72.5 -6.9,-72.5 -4.0,-73.1 -0.8,-73.3 2.5,-74.3 6.1,-74.0 9.7,-73.6 13.3,-71.7 16.8,-72.3 20.2,-71.5 23.5,-70.8 26.8,-71.4 30.1,-70.3 33.7,-67.4 37.6,-67.8" fill="none" stroke="rgb(120,84,60)" stroke-width="1.8681189231127422" stroke-linejoin="round" stroke-linecap="round" filter="url(#fuzzy_av_1779093954985_3w2doli8tcx)" opacity="0.9505045327816645"/><polyline points="-44.4,-50.2 -43.2,-52.7 -42.2,-53.7 -41.0,-56.0 -39.5,-57.8 -37.9,-59.2 -36.2,-62.2 -34.5,-62.4 -32.7,-64.8 -30.7,-66.1 -28.6,-67.2 -26.3,-68.0 -23.7,-70.2 -21.0,-70.8 -18.0,-71.2 -14.9,-71.2 -11.8,-71.6 -8.7,-73.6 -5.6,-72.7 -2.5,-72.8 0.7,-74.8 4.0,-73.0 7.5,-74.5 12.6,-73.6" fill="none" stroke="rgb(120,84,60)" stroke-width="2.3483143585571082" stroke-linejoin="round" stroke-linecap="round" filter="url(#fuzzy_av_1779093954985_3w2doli8tcx)" opacity="0.8173789392863594"/><polyline points="-46.4,-46.5 -44.7,-50.4 -43.5,-50.8 -42.1,-54.5 -40.4,-55.8 -38.5,-56.9 -36.4,-59.9 -34.4,-60.3 -32.2,-62.4 -30.0,-64.9 -27.8,-65.2 -25.5,-66.1 -23.3,-67.7 -21.0,-68.2 -18.8,-69.6 -16.4,-71.4 -14.0,-71.2 -11.5,-72.3 -9.0,-72.9 -6.3,-72.9 -3.6,-72.3 -0.7,-73.4 2.2,-73.3 5.2,-73.9 8.2,-72.1 11.1,-72.0 14.0,-73.0 16.8,-70.8 19.5,-71.9 22.1,-69.7 24.6,-69.6 27.2,-68.4 29.7,-67.9 32.1,-65.3 34.2,-65.2 36.1,-63.1" fill="none" stroke="rgb(120,84,60)" stroke-width="1.32487636369606" stroke-linejoin="round" stroke-linecap="round" filter="url(#fuzzy_av_1779093954985_3w2doli8tcx)" opacity="0.8734939424282203"/><polyline points="-46.5,-46.2 -45.1,-49.6 -43.9,-50.7 -42.6,-53.1 -41.0,-54.9 -39.3,-56.0 -37.5,-56.9 -35.5,-59.3 -33.4,-61.1 -31.2,-63.3 -29.1,-63.6 -26.9,-66.4 -24.7,-67.6 -22.3,-68.3 -20.0,-70.0 -17.5,-69.7 -14.9,-70.5 -12.4,-70.8 -9.8,-72.3 -7.2,-72.2 -4.7,-74.0 -2.2,-74.2 0.4,-73.1 2.9,-74.4 5.5,-73.2 9.2,-73.9" fill="none" stroke="rgb(120,84,60)" stroke-width="1.272369257497476" stroke-linejoin="round" stroke-linecap="round" filter="url(#fuzzy_av_1779093954985_3w2doli8tcx)" opacity="0.778744157566331"/><polyline points="-48.5,-41.7 -46.9,-46.0 -45.5,-49.1 -44.1,-49.6 -42.7,-51.4 -41.1,-53.8 -39.5,-56.6 -37.7,-57.1 -35.8,-59.6 -33.8,-61.0 -31.7,-62.8 -29.6,-64.3 -27.5,-66.6 -25.2,-67.5 -22.9,-68.8 -20.6,-69.1 -18.1,-71.0 -15.5,-71.7 -12.9,-71.0 -10.3,-72.7 -7.7,-73.5 -5.1,-73.3 -2.6,-73.3 1.3,-74.3" fill="none" stroke="rgb(120,84,60)" stroke-width="1.7181013640253227" stroke-linejoin="round" stroke-linecap="round" filter="url(#fuzzy_av_1779093954985_3w2doli8tcx)" opacity="0.7937490954913708"/><polyline points="-54.3,-25.1 -54.0,-29.9 -54.1,-32.6 -54.5,-34.2 -54.6,-38.4 -54.1,-40.8 -53.0,-42.0 -51.6,-44.3 -50.1,-48.4 -48.6,-49.5 -47.1,-51.1 -45.6,-52.8 -44.1,-55.1 -42.5,-57.1 -40.8,-58.6 -38.9,-60.7 -37.0,-62.7 -34.9,-64.0 -32.8,-66.3 -30.6,-67.0 -28.1,-67.4 -25.4,-68.4 -22.4,-69.4 -19.2,-69.9 -15.9,-71.3 -12.4,-72.6 -9.0,-72.6 -5.6,-73.4 -2.1,-73.7 1.3,-74.5 4.9,-73.3 8.5,-73.8 12.2,-72.8 15.9,-73.4 19.6,-71.8 23.4,-72.7 27.3,-71.8 30.2,-70.4" fill="none" stroke="rgb(120,84,60)" stroke-width="0.7716540430452898" stroke-linejoin="round" stroke-linecap="round" filter="url(#fuzzy_av_1779093954985_3w2doli8tcx)" opacity="0.9029819663515934"/><polyline points="-53.8,-26.4 -53.6,-27.1 -52.9,-30.9 -52.1,-34.4 -51.1,-36.4 -50.1,-39.3 -49.1,-42.6 -47.9,-44.4 -46.6,-45.6 -45.3,-48.8 -43.8,-50.6 -42.3,-53.4 -40.7,-55.3 -39.0,-56.6 -37.2,-57.5 -35.4,-60.5 -33.4,-61.4 -31.3,-62.6 -29.1,-65.6 -26.9,-67.0 -24.6,-68.4 -22.4,-69.1 -20.3,-69.8 -18.1,-70.2 -15.8,-71.7 -13.2,-72.1 -10.8,-71.9" fill="none" stroke="rgb(120,84,60)" stroke-width="1.7147878432037793" stroke-linejoin="round" stroke-linecap="round" filter="url(#fuzzy_av_1779093954985_3w2doli8tcx)" opacity="0.9274670543303725"/><polyline points="-53.8,-26.3 -53.8,-28.6 -53.5,-31.2 -53.3,-33.3 -53.4,-37.0 -53.5,-39.6 -53.4,-42.4 -52.9,-44.7 -51.9,-46.9 -50.7,-49.5 -49.2,-49.8 -47.5,-53.1 -45.7,-54.4 -43.8,-55.9 -41.8,-57.6 -39.8,-60.6 -37.7,-62.4 -35.5,-63.0 -33.3,-65.9 -31.1,-66.6 -28.9,-67.3 -26.7,-68.9 -24.3,-70.4 -21.8,-69.9 -19.0,-71.7 -15.9,-71.1 -12.7,-71.6 -9.5,-72.7 -6.2,-74.3 -2.9,-74.6 0.6,-72.9 3.7,-74.3" fill="none" stroke="rgb(120,84,60)" stroke-width="1.5627929215396028" stroke-linejoin="round" stroke-linecap="round" filter="url(#fuzzy_av_1779093954985_3w2doli8tcx)" opacity="0.8040072015391626"/><polyline points="-54.6,-21.7 -54.5,-25.0 -54.4,-26.9 -54.4,-29.6 -54.6,-31.3 -54.7,-34.1 -54.8,-36.5 -54.7,-40.5 -54.4,-41.5 -53.7,-44.3 -52.7,-47.4 -51.5,-48.4 -50.3,-50.7 -49.1,-52.7 -48.0,-55.4 -46.8,-57.8 -45.3,-58.7 -43.6,-60.3 -41.4,-62.4 -39.0,-64.4 -36.5,-65.7 -33.9,-66.9 -31.3,-67.7 -28.7,-69.9 -25.7,-70.1 -21.9,-70.8" fill="none" stroke="rgb(120,84,60)" stroke-width="2.510665542311685" stroke-linejoin="round" stroke-linecap="round" filter="url(#fuzzy_av_1779093954985_3w2doli8tcx)" opacity="0.9313587680299726"/><polyline points="-55.0,-17.6 -54.8,-21.1 -54.8,-26.0 -54.9,-27.6 -55.0,-29.8 -55.0,-33.6 -54.8,-36.7 -54.6,-39.8 -54.3,-41.9 -53.7,-43.4 -52.9,-45.6 -51.8,-47.8 -50.5,-49.8 -49.2,-53.5 -47.8,-55.0 -46.4,-56.2 -44.9,-57.5 -43.3,-61.1 -41.6,-61.4 -39.6,-63.5 -37.3,-65.0 -34.8,-66.0 -32.0,-67.1 -29.1,-69.6 -26.1,-69.3 -23.1,-71.2 -20.0,-71.8 -16.8,-71.3 -13.5,-72.4 -10.3,-73.4 -7.6,-72.6" fill="none" stroke="rgb(120,84,60)" stroke-width="2.231691576050118" stroke-linejoin="round" stroke-linecap="round" filter="url(#fuzzy_av_1779093954985_3w2doli8tcx)" opacity="0.9526768633407616"/><polyline points="-55.0,-13.7 -56.9,-13.2 -57.3,-11.1 -57.0,-8.7 -56.4,-4.0 -55.7,-1.4 -55.2,0.7 -54.9,4.4 -54.6,6.8 -54.4,9.1 -54.0,12.1 -53.5,13.3 -53.0,17.0 -52.3,18.5 -51.4,21.9 -50.4,25.5 -49.3,27.7 -48.0,30.5 -46.5,33.4 -45.0,34.9 -43.6,37.3 -42.4,39.9 -41.2,41.3" fill="none" stroke="rgb(120,84,60)" stroke-width="1.8642920603915314" stroke-linejoin="round" stroke-linecap="round" filter="url(#fuzzy_av_1779093954985_3w2doli8tcx)" opacity="0.837645826611823"/><polyline points="-55.0,-14.6 -59.1,-13.7 -59.6,-10.9 -58.8,-7.3 -58.0,-5.6 -57.5,-1.7 -57.1,1.6 -56.7,4.9 -56.1,7.7 -55.4,9.9 -54.7,11.2 -54.0,13.5 -53.3,17.9 -52.4,19.3 -51.5,21.7 -50.5,25.7 -49.5,28.1 -48.4,29.5 -47.5,32.5 -46.4,35.5 -45.2,37.4 -43.7,40.0 -41.9,42.3 -39.8,43.1 -37.8,46.3 -35.8,46.5 -33.9,48.7 -32.3,49.8 -31.8,50.2" fill="none" stroke="rgb(120,84,60)" stroke-width="0.9712907798883308" stroke-linejoin="round" stroke-linecap="round" filter="url(#fuzzy_av_1779093954985_3w2doli8tcx)" opacity="0.7967337617678915"/><polyline points="-55.2,-10.8 -56.4,-7.4 -57.9,-4.5 -58.3,-0.4 -57.8,1.2 -56.9,5.2 -55.9,7.7 -55.1,10.3 -54.4,12.2 -53.8,13.7 -53.2,17.2 -52.5,19.3 -51.7,23.3 -51.0,24.5 -50.2,27.2 -49.2,31.4 -48.2,32.3 -46.9,34.4 -45.4,37.4 -43.6,39.1 -41.6,42.0 -39.5,42.8 -37.4,45.6 -35.3,48.1 -33.4,49.0 -31.6,50.8 -29.9,52.3 -28.0,52.2 -26.1,53.7 -24.1,54.6 -21.8,56.6 -18.3,57.2" fill="none" stroke="rgb(120,84,60)" stroke-width="2.128257128199495" stroke-linejoin="round" stroke-linecap="round" filter="url(#fuzzy_av_1779093954985_3w2doli8tcx)" opacity="0.7556833710624112"/><polyline points="-54.9,-4.2 -56.4,-0.0 -55.9,2.0 -56.0,5.1 -56.5,8.7 -56.7,11.5 -56.4,14.5 -55.6,17.3 -54.9,18.3 -54.5,21.5 -54.3,23.9 -54.2,26.0 -54.0,29.3 -53.4,31.6 -52.4,34.4 -50.9,36.4 -49.1,37.8 -47.1,40.2 -45.1,41.7 -43.1,43.1 -41.1,46.1 -39.0,47.7 -36.8,49.2 -34.7,51.7 -32.6,51.8 -30.0,54.3" fill="none" stroke="rgb(120,84,60)" stroke-width="1.729430789607731" stroke-linejoin="round" stroke-linecap="round" filter="url(#fuzzy_av_1779093954985_3w2doli8tcx)" opacity="0.8885445386372893"/><polyline points="-53.9,3.2 -53.5,6.4 -53.1,7.6 -52.6,10.7 -52.0,11.1 -51.3,15.3 -50.7,17.2 -50.0,21.0 -49.4,22.9 -48.7,26.3 -47.8,27.6 -46.6,30.1 -45.4,32.2 -44.1,36.4 -42.8,37.7 -41.5,39.8 -40.1,41.8 -38.6,44.5 -37.0,45.5 -35.3,47.7 -33.7,48.2 -32.1,49.8 -30.4,51.6 -28.6,53.6 -26.8,54.1 -25.0,55.0" fill="none" stroke="rgb(120,84,60)" stroke-width="1.7784224956410086" stroke-linejoin="round" stroke-linecap="round" filter="url(#fuzzy_av_1779093954985_3w2doli8tcx)" opacity="0.8320058796013367"/><polyline points="-53.2,7.0 -53.0,7.2 -53.3,9.8 -53.8,12.8 -54.3,15.0 -54.2,18.0 -53.3,19.6 -52.0,24.0 -50.4,25.8 -49.0,29.4 -47.7,30.3 -46.6,33.3 -45.4,35.2 -44.1,38.5 -42.6,39.3 -40.9,41.0 -39.0,43.3 -37.3,44.7 -35.6,46.6 -34.1,48.6 -32.6,50.5 -31.2,51.6 -29.6,52.4 -27.8,53.7 -25.6,55.3 -22.9,57.1 -19.5,56.3 -15.6,59.3" fill="none" stroke="rgb(120,84,60)" stroke-width="1.0897851889061256" stroke-linejoin="round" stroke-linecap="round" filter="url(#fuzzy_av_1779093954985_3w2doli8tcx)" opacity="0.9111148590309053"/><polyline points="-46.3,25.6 -45.3,28.4 -44.3,29.3 -43.1,32.2 -41.6,34.5 -39.9,36.2 -38.1,39.1 -36.2,40.1 -34.4,43.1 -32.5,45.3 -30.7,46.8 -29.0,47.8 -27.1,49.3 -25.3,52.2 -23.3,52.7 -21.2,53.0 -19.0,55.3 -16.8,55.0 -14.4,57.3 -12.1,57.2 -9.7,58.3 -7.3,58.0 -4.9,59.4 -2.5,59.7 -0.1,60.3 2.5,59.6 5.1,59.8 7.6,60.1 10.1,58.3 12.5,57.8 14.8,57.3 17.2,56.5 19.9,56.5 22.9,55.0 25.5,55.3" fill="none" stroke="rgb(120,84,60)" stroke-width="2.5047636540144986" stroke-linejoin="round" stroke-linecap="round" filter="url(#fuzzy_av_1779093954985_3w2doli8tcx)" opacity="0.9361978587798334"/><polyline points="-46.3,25.9 -45.1,27.8 -44.0,30.0 -42.9,31.6 -41.6,35.1 -40.2,37.4 -38.9,38.2 -37.4,41.6 -35.7,42.5 -33.8,44.2 -31.8,46.6 -29.6,48.6 -27.5,50.5 -25.3,52.0 -23.2,51.8 -21.1,53.8 -19.0,55.1 -16.9,55.9 -14.7,57.0 -12.4,57.7 -10.0,58.1 -7.6,58.8 -5.1,59.2 -2.6,58.5 0.0,59.5 2.7,58.7 5.4,60.0 8.2,58.6 10.9,58.8 13.5,57.8 16.2,58.4 18.9,56.8 21.9,56.6 25.1,56.3 28.2,55.2 31.1,53.7" fill="none" stroke="rgb(120,84,60)" stroke-width="2.2232792642025174" stroke-linejoin="round" stroke-linecap="round" filter="url(#fuzzy_av_1779093954985_3w2doli8tcx)" opacity="0.7959690546682684"/><polyline points="-44.9,28.3 -44.0,30.4 -42.5,32.0 -40.9,35.6 -39.5,37.0 -38.2,39.2 -36.8,40.5 -35.3,42.7 -33.7,45.1 -32.1,47.0 -30.3,48.1 -28.5,49.7 -26.5,50.3 -24.4,53.3 -22.2,53.8 -19.9,54.4 -17.6,55.3 -15.2,56.5 -12.7,57.2 -10.2,58.9 -7.6,58.9 -5.1,60.0 -2.4,60.1 0.2,59.2 2.9,59.0 5.7,59.2 8.4,59.6 11.2,57.9 14.0,59.3 16.8,57.7 19.7,57.1 22.6,56.6 25.7,55.8 28.9,54.7 32.3,52.7 35.8,50.7 39.3,49.4 42.5,49.2 45.2,46.7" fill="none" stroke="rgb(120,84,60)" stroke-width="2.546671447645796" stroke-linejoin="round" stroke-linecap="round" filter="url(#fuzzy_av_1779093954985_3w2doli8tcx)" opacity="0.9942010601660266"/><polyline points="-38.6,37.8 -29.7,39.5 -29.7,42.0 -30.0,42.4 -29.0,44.8 -26.8,47.9 -24.1,48.0 -21.5,50.9 -19.1,51.1 -17.2,53.2 -15.4,53.0 -13.8,55.9 -12.1,55.3 -10.4,56.3 -8.6,56.8 -6.8,57.5 -5.0,59.4 -3.4,59.7 -2.0,58.9 -0.7,59.1 0.4,59.7 1.4,59.5 2.2,58.6 2.7,59.8 2.9,59.4 2.8,59.0 2.6,57.2" fill="none" stroke="rgb(120,84,60)" stroke-width="0.8666290730781501" stroke-linejoin="round" stroke-linecap="round" filter="url(#fuzzy_av_1779093954985_3w2doli8tcx)" opacity="0.8393965287333985"/><polyline points="-37.4,38.8 -36.4,41.9 -34.6,43.5 -32.8,45.7 -31.2,47.3 -29.5,47.9 -27.6,49.4 -25.6,50.8 -23.5,52.2 -21.3,54.8 -18.9,55.3 -16.5,56.2 -14.0,56.2 -11.6,56.8 -9.1,58.9 -6.7,58.7 -4.2,58.5 -1.8,59.2 0.7,59.9 3.3,60.0 5.9,59.1 8.6,58.2 11.2,58.7 13.9,57.7 16.5,58.3 19.1,56.7 21.8,56.7 24.6,55.1 27.4,54.2 30.2,53.0 32.9,51.0 35.6,49.5 38.3,48.9 41.1,46.1 44.2,44.9 47.4,43.1 50.1,39.7" fill="none" stroke="rgb(120,84,60)" stroke-width="1.761135857271983" stroke-linejoin="round" stroke-linecap="round" filter="url(#fuzzy_av_1779093954985_3w2doli8tcx)" opacity="0.9718581897523431"/><polyline points="-36.4,40.8 -34.4,42.8 -32.2,44.4 -30.2,47.2 -28.3,47.9 -26.5,49.5 -24.7,50.4 -22.9,53.3 -21.1,53.4 -19.2,55.1 -17.2,55.3 -15.1,56.4 -12.8,56.4 -10.6,57.9 -8.3,58.9 -6.1,58.5 -3.9,58.6 -1.7,59.8 0.6,59.1 2.8,59.4 5.1,59.2 7.4,58.6 9.7,58.2 12.0,58.7 14.3,57.1 16.9,57.2 19.5,56.4 21.1,54.3" fill="none" stroke="rgb(120,84,60)" stroke-width="2.389562019694746" stroke-linejoin="round" stroke-linecap="round" filter="url(#fuzzy_av_1779093954985_3w2doli8tcx)" opacity="0.9223540022532988"/></g><circle r="2.1041738930567258" cx="-7.797160075983182" cy="15.34409046485284" stroke="#111" fill="none" stroke-width="1.1349148777938627" filter="url(#fuzzy_av_1779093954985_3w2doli8tcx)"/><circle r="1.956914926004893" cx="-8.169285987476409" cy="17.661441433214932" stroke="#111" fill="none" stroke-width="1.126480042883823" filter="url(#fuzzy_av_1779093954985_3w2doli8tcx)"/><circle r="2.3455178582240808" cx="-6.144229649719969" cy="14.523978705721357" stroke="#111" fill="none" stroke-width="1.2694756368731213" filter="url(#fuzzy_av_1779093954985_3w2doli8tcx)"/><circle r="1.3006324808127978" cx="-8.067099249755064" cy="17.020241848265655" stroke="#111" fill="none" stroke-width="0.9184304726976626" filter="url(#fuzzy_av_1779093954985_3w2doli8tcx)"/><circle r="1.0971484647146978" cx="-9.248074049884258" cy="15.013090570623167" stroke="#111" fill="none" stroke-width="1.1099066466971013" filter="url(#fuzzy_av_1779093954985_3w2doli8tcx)"/><circle r="1.1452093341093346" cx="-7.034395007937826" cy="17.609553444336303" stroke="#111" fill="none" stroke-width="1.0976456208794745" filter="url(#fuzzy_av_1779093954985_3w2doli8tcx)"/><circle r="1.1287647092744142" cx="-7.068468941320109" cy="14.622336162681773" stroke="#111" fill="none" stroke-width="0.9007115050793519" filter="url(#fuzzy_av_1779093954985_3w2doli8tcx)"/><circle r="1.870743978419881" cx="-9.306264042295306" cy="15.93369757006713" stroke="#111" fill="none" stroke-width="1.0279301830292589" filter="url(#fuzzy_av_1779093954985_3w2doli8tcx)"/><circle r="1.3432149259433592" cx="-9.091316742893406" cy="16.640783900751533" stroke="#111" fill="none" stroke-width="0.8710077126690903" filter="url(#fuzzy_av_1779093954985_3w2doli8tcx)"/><circle r="1.9412218899868405" cx="-9.233937085929737" cy="16.34510416811275" stroke="#111" fill="none" stroke-width="1.0107962871320297" filter="url(#fuzzy_av_1779093954985_3w2doli8tcx)"/><circle r="0.9958736790864047" cx="8.11180920665807" cy="8.811011419395108" stroke="#111" fill="none" stroke-width="0.878757056025296" filter="url(#fuzzy_av_1779093954985_3w2doli8tcx)"/><circle r="1.3685488315602163" cx="8.278439156959692" cy="10.15325338310392" stroke="#111" fill="none" stroke-width="0.8446317677084478" filter="url(#fuzzy_av_1779093954985_3w2doli8tcx)"/><circle r="1.8521514290573744" cx="9.588710776536573" cy="7.743437420425002" stroke="#111" fill="none" stroke-width="0.8198236579582767" filter="url(#fuzzy_av_1779093954985_3w2doli8tcx)"/><circle r="1.1084735623630209" cx="9.97523061345916" cy="9.028476160672914" stroke="#111" fill="none" stroke-width="0.9909649908439476" filter="url(#fuzzy_av_1779093954985_3w2doli8tcx)"/><circle r="1.0080922596970558" cx="9.946568254156533" cy="10.675693451527504" stroke="#111" fill="none" stroke-width="0.8563626974782221" filter="url(#fuzzy_av_1779093954985_3w2doli8tcx)"/><circle r="0.9747204753233394" cx="6.968040126478463" cy="10.26002080740171" stroke="#111" fill="none" stroke-width="1.0307285524960976" filter="url(#fuzzy_av_1779093954985_3w2doli8tcx)"/><circle r="1.2672923473881943" cx="7.866954135647878" cy="8.451390322922178" stroke="#111" fill="none" stroke-width="0.8688979432507592" filter="url(#fuzzy_av_1779093954985_3w2doli8tcx)"/><circle r="2.1014955578596988" cx="7.66368791635319" cy="9.959148052469759" stroke="#111" fill="none" stroke-width="0.8500114263188352" filter="url(#fuzzy_av_1779093954985_3w2doli8tcx)"/><circle r="2.3663406681439554" cx="6.992487646121667" cy="10.902817299862866" stroke="#111" fill="none" stroke-width="1.0890461932290818" filter="url(#fuzzy_av_1779093954985_3w2doli8tcx)"/><circle r="1.9959263054406537" cx="7.350472930083308" cy="8.253224211780124" stroke="#111" fill="none" stroke-width="1.2880456321304863" filter="url(#fuzzy_av_1779093954985_3w2doli8tcx)"/><polyline points="-22.1,59.3 -22.0,58.1 -21.9,57.0 -21.8,55.8 -21.7,54.7 -21.5,53.7 -21.3,52.7 -21.1,51.6 -20.9,50.7 -20.7,49.7 -20.4,48.8 -20.2,47.9 -19.9,47.0 -19.6,46.2 -19.2,45.4 -18.9,44.6 -18.5,43.8 -18.2,43.1 -17.8,42.4 -17.4,41.7 -17.0,41.0 -16.6,40.4 -16.1,39.8 -15.7,39.2 -15.2,38.7 -14.7,38.1 -14.3,37.6 -13.8,37.1 -13.3,36.7 -12.8,36.2 -12.2,35.8 -11.7,35.5 -11.2,35.1 -10.6,34.8 -10.1,34.4 -9.5,34.2 -8.9,33.9 -8.4,33.7 -7.8,33.4 -7.2,33.2 -6.6,33.1 -6.0,32.9 -5.4,32.8 -4.8,32.7 -4.2,32.6 -3.6,32.6 -3.0,32.5 -2.4,32.5 -1.8,32.5 -1.2,32.6 -0.6,32.6 0.1,32.7 0.7,32.8 1.3,32.9 1.9,33.0 2.5,33.2 3.1,33.4 3.7,33.6 4.3,33.8 4.9,34.0 5.5,34.3 6.0,34.6 6.6,34.9 7.2,35.2 7.8,35.6 8.3,35.9 8.9,36.3 9.4,36.7 10.0,37.1 10.5,37.6 11.0,38.0 11.5,38.5 12.0,39.0 12.5,39.5 13.0,40.1 13.5,40.6 13.9,41.2 14.4,41.8 14.8,42.4 15.2,43.0 15.6,43.6 16.0,44.3 16.4,45.0 16.8,45.7 17.1,46.4 17.5,47.1 17.8,47.8 18.1,48.6 18.4,49.4 18.7,50.2 18.9,51.0 19.1,51.8 19.4,52.7 19.6,53.5 19.7,54.4 19.9,55.3 20.0,56.2 20.2,57.1 20.2,58.0 20.3,59.0 20.4,60.0 20.3,59.0 20.2,58.0 20.2,57.1 20.0,56.2 19.9,55.3 19.7,54.4 19.6,53.5 19.4,52.7 19.1,51.8 18.9,51.0 18.7,50.2 18.4,49.4 18.1,48.6 17.8,47.8 17.5,47.1 17.1,46.4 16.8,45.7 16.4,45.0 16.0,44.3 15.6,43.6 15.2,43.0 14.8,42.4 14.4,41.8 13.9,41.2 13.5,40.6 13.0,40.1 12.5,39.5 12.0,39.0 11.5,38.5 11.0,38.0 10.5,37.6 10.0,37.1 9.4,36.7 8.9,36.3 8.3,35.9 7.8,35.6 7.2,35.2 6.6,34.9 6.0,34.6 5.5,34.3 4.9,34.0 4.3,33.8 3.7,33.6 3.1,33.4 2.5,33.2 1.9,33.0 1.3,32.9 0.7,32.8 0.1,32.7 -0.6,32.6 -1.2,32.6 -1.8,32.5 -2.4,32.5 -3.0,32.5 -3.6,32.6 -4.2,32.6 -4.8,32.7 -5.4,32.8 -6.0,32.9 -6.6,33.1 -7.2,33.2 -7.8,33.4 -8.4,33.7 -8.9,33.9 -9.5,34.2 -10.1,34.4 -10.6,34.8 -11.2,35.1 -11.7,35.5 -12.2,35.8 -12.8,36.2 -13.3,36.7 -13.8,37.1 -14.3,37.6 -14.7,38.1 -15.2,38.7 -15.7,39.2 -16.1,39.8 -16.6,40.4 -17.0,41.0 -17.4,41.7 -17.8,42.4 -18.2,43.1 -18.5,43.8 -18.9,44.6 -19.2,45.4 -19.6,46.2 -19.9,47.0 -20.2,47.9 -20.4,48.8 -20.7,49.7 -20.9,50.7 -21.1,51.6 -21.3,52.7 -21.5,53.7 -21.7,54.7 -21.8,55.8 -21.9,57.0 -22.0,58.1" fill="rgb(215,127,140)" stroke="#111" stroke-width="2.954065896609018" stroke-linejoin="round" filter="url(#fuzzy_av_1779093954985_3w2doli8tcx)"/></g><g class="accessory-svg accessory-confetti" transform="translate(74.4 24.6) rotate(9.9) scale(1.231)">
      <path d="M-10 11l4-20 15 15z" fill="#fbbf24" stroke="#111827" stroke-width="1.1"/><circle cx="-3" cy="-7" r="1.5" fill="#ef4444"/><rect x="6" y="-9" width="4" height="4" rx="1" fill="#38bdf8" transform="rotate(25 8 -7)"/><path d="M4-2c4-6 8-6 10-2" fill="none" stroke="#22c55e" stroke-width="1.3" stroke-linecap="round"/>
    </g><g class="accessory-svg accessory-balloon" transform="translate(-10.5 77.3) rotate(-6.4) scale(1.155)">
      <ellipse cx="0" cy="-3" rx="8" ry="10" fill="#ef4444" stroke="#111827" stroke-width="1.1"/><path d="M0 7l-2 4h4zM0 11c-6 2 4 4-2 7" fill="none" stroke="#111827" stroke-width="1"/><ellipse cx="-3" cy="-7" rx="2" ry="3" fill="#f8fafc" opacity=".45"/>
    </g><g class="accessory-svg accessory-music" transform="translate(-78.1 -11.1) rotate(-11.1) scale(1.132)">
      <path d="M-5 5V-9l13-3v14" fill="none" stroke="#111827" stroke-width="2" stroke-linecap="round"/><ellipse cx="-8" cy="7" rx="4" ry="3" fill="#EC4899" stroke="#111827" stroke-width="1"/><ellipse cx="5" cy="4" rx="4" ry="3" fill="#EC4899" stroke="#111827" stroke-width="1"/>
    </g><g class="accessory-svg accessory-sparkle" transform="translate(24.0 -74.8) rotate(5.1) scale(1.129)">
      <path d="M0-12l3.5 7.5L12-3 5.8 2.7 7.5 11 0 6.7-7.5 11l1.7-8.3L-12-3l8.5-1.5z" fill="#fbbf24" stroke="#111827" stroke-width="1.1" stroke-linejoin="round"/>
    </g></svg>