<svg xmlns="http://www.w3.org/2000/svg" viewBox="-100 -100 200 200" width="400" height="400" role="img" aria-label="霸总 avatar"><defs>
      <filter id="fuzzy_av_1779093954975_nyi2pq4s07d" x="-8%" y="-8%" width="116%" height="116%">
        <feTurbulence baseFrequency="0.045" numOctaves="3" type="fractalNoise" result="noise"/>
        <feDisplacementMap in="SourceGraphic" in2="noise" scale="1.6"/>
      </filter>
      <clipPath id="leftEye_av_1779093954975_nyi2pq4s07d"><polyline points="-12.3,-3.5 -12.3,-3.6 -12.2,-3.7 -12.2,-3.8 -12.2,-3.8 -12.1,-3.9 -12.0,-4.0 -12.0,-4.1 -11.9,-4.2 -11.7,-4.3 -11.6,-4.4 -11.5,-4.4 -11.3,-4.5 -11.2,-4.6 -11.0,-4.7 -10.8,-4.7 -10.7,-4.8 -10.5,-4.9 -10.3,-5.0 -10.1,-5.1 -9.9,-5.2 -9.6,-5.2 -9.3,-5.3 -9.0,-5.4 -8.7,-5.4 -8.4,-5.5 -8.0,-5.5 -7.6,-5.6 -7.2,-5.6 -6.8,-5.7 -6.3,-5.7 -5.9,-5.8 -5.4,-5.8 -4.9,-5.8 -4.4,-5.8 -3.9,-5.8 -3.4,-5.9 -2.9,-5.9 -2.4,-5.9 -1.8,-5.9 -1.3,-5.8 -0.8,-5.8 -0.2,-5.8 0.3,-5.8 0.8,-5.8 1.4,-5.7 1.9,-5.7 2.4,-5.7 3.0,-5.6 3.5,-5.6 4.0,-5.5 4.5,-5.5 5.0,-5.4 5.5,-5.4 6.0,-5.3 6.4,-5.2 6.9,-5.2 7.3,-5.1 7.8,-5.0 8.2,-4.9 8.6,-4.9 9.0,-4.8 9.4,-4.7 9.7,-4.6 10.1,-4.5 10.5,-4.5 10.8,-4.4 11.1,-4.3 11.5,-4.2 11.8,-4.1 12.1,-4.0 12.3,-3.9 12.6,-3.8 12.9,-3.8 13.1,-3.7 13.4,-3.6 13.6,-3.5 13.9,-3.4 14.1,-3.3 14.3,-3.2 13.8,0.7 13.6,0.9 13.3,1.1 13.1,1.3 12.9,1.5 12.7,1.7 12.4,1.9 12.2,2.1 11.9,2.3 11.7,2.5 11.4,2.7 11.1,2.9 10.8,3.1 10.5,3.2 10.3,3.4 10.0,3.6 9.7,3.8 9.3,4.0 9.0,4.1 8.7,4.3 8.4,4.5 8.0,4.6 7.7,4.8 7.3,4.9 7.0,5.1 6.6,5.2 6.3,5.3 5.9,5.4 5.5,5.5 5.1,5.6 4.8,5.7 4.4,5.8 4.0,5.8 3.6,5.9 3.2,5.9 2.8,5.9 2.5,5.9 2.1,5.9 1.7,5.9 1.3,5.8 0.9,5.8 0.5,5.7 0.2,5.7 -0.2,5.6 -0.6,5.5 -1.0,5.4 -1.4,5.2 -1.7,5.1 -2.1,4.9 -2.4,4.8 -2.8,4.6 -3.2,4.4 -3.5,4.3 -3.9,4.1 -4.2,3.9 -4.5,3.7 -4.9,3.4 -5.2,3.2 -5.5,3.0 -5.9,2.8 -6.2,2.6 -6.5,2.3 -6.8,2.1 -7.1,1.9 -7.4,1.6 -7.6,1.4 -7.9,1.2 -8.2,1.0 -8.4,0.8 -8.7,0.6 -8.9,0.4 -9.2,0.2 -9.4,0.0 -9.6,-0.2 -9.9,-0.4 -10.1,-0.6 -10.3,-0.8 -10.5,-1.0 -10.7,-1.2 -10.9,-1.4"/></clipPath>
      <clipPath id="rightEye_av_1779093954975_nyi2pq4s07d"><polyline points="-12.3,-5.1 -12.3,-5.2 -12.3,-5.3 -12.3,-5.4 -12.3,-5.5 -12.3,-5.6 -12.3,-5.7 -12.2,-5.8 -12.1,-5.9 -12.1,-6.0 -12.0,-6.1 -11.9,-6.2 -11.8,-6.3 -11.7,-6.4 -11.5,-6.5 -11.4,-6.5 -11.3,-6.6 -11.1,-6.7 -11.0,-6.8 -10.8,-6.9 -10.7,-7.0 -10.4,-7.1 -10.2,-7.2 -10.0,-7.3 -9.7,-7.3 -9.4,-7.4 -9.1,-7.4 -8.8,-7.5 -8.4,-7.5 -8.1,-7.6 -7.7,-7.6 -7.3,-7.6 -6.9,-7.7 -6.5,-7.7 -6.1,-7.7 -5.6,-7.7 -5.2,-7.7 -4.7,-7.7 -4.2,-7.7 -3.7,-7.7 -3.3,-7.6 -2.8,-7.6 -2.3,-7.6 -1.8,-7.5 -1.3,-7.5 -0.7,-7.5 -0.2,-7.4 0.3,-7.4 0.8,-7.3 1.3,-7.2 1.8,-7.2 2.3,-7.1 2.8,-7.0 3.3,-7.0 3.8,-6.9 4.3,-6.8 4.7,-6.7 5.2,-6.6 5.7,-6.6 6.1,-6.5 6.6,-6.4 7.0,-6.3 7.4,-6.2 7.8,-6.1 8.3,-6.0 8.7,-5.9 9.0,-5.8 9.4,-5.7 9.8,-5.6 10.2,-5.5 10.5,-5.4 10.9,-5.3 11.2,-5.2 11.5,-5.1 11.8,-5.0 12.1,-4.9 12.4,-4.8 12.7,-4.7 13.0,-4.6 13.3,-4.5 13.9,1.0 13.7,1.2 13.6,1.5 13.4,1.8 13.3,2.1 13.1,2.3 12.9,2.6 12.7,2.9 12.5,3.1 12.3,3.4 12.1,3.7 11.9,3.9 11.7,4.2 11.5,4.4 11.2,4.7 11.0,4.9 10.7,5.2 10.5,5.4 10.2,5.6 10.0,5.9 9.7,6.1 9.4,6.3 9.1,6.5 8.8,6.7 8.5,6.9 8.2,7.0 7.9,7.2 7.5,7.3 7.2,7.4 6.9,7.5 6.5,7.6 6.2,7.7 5.8,7.8 5.5,7.8 5.1,7.8 4.7,7.8 4.4,7.8 4.0,7.8 3.6,7.7 3.3,7.6 2.9,7.5 2.5,7.4 2.1,7.3 1.7,7.2 1.4,7.0 1.0,6.8 0.6,6.6 0.2,6.4 -0.2,6.2 -0.6,5.9 -1.0,5.7 -1.3,5.4 -1.7,5.2 -2.1,4.9 -2.5,4.6 -2.9,4.3 -3.2,4.0 -3.6,3.7 -4.0,3.4 -4.4,3.1 -4.7,2.7 -5.1,2.4 -5.4,2.1 -5.8,1.8 -6.2,1.5 -6.5,1.2 -6.8,0.9 -7.1,0.7 -7.4,0.4 -7.7,0.1 -8.0,-0.2 -8.3,-0.4 -8.5,-0.7 -8.8,-1.0 -9.1,-1.3 -9.4,-1.5 -9.6,-1.8 -9.9,-2.1 -10.1,-2.3 -10.4,-2.6"/></clipPath>
      <linearGradient id="rainbow_av_1779093954975_nyi2pq4s07d" x1="0%" y1="0%" x2="100%" y2="0%">
        <stop offset="0%" stop-color="#D97706"/><stop offset="45%" stop-color="#22D3EE"/><stop offset="100%" stop-color="#B45309"/>
      </linearGradient>
      <linearGradient id="splitHair_av_1779093954975_nyi2pq4s07d" x1="0%" y1="0%" x2="100%" y2="0%">
        <stop offset="49%" stop-color="#111827"/><stop offset="51%" stop-color="#F9FAFB"/>
      </linearGradient>
      <radialGradient id="halo_av_1779093954975_nyi2pq4s07d"><stop offset="0%" stop-color="#D97706" stop-opacity=".45"/><stop offset="100%" stop-color="#D97706" stop-opacity="0"/></radialGradient>
    </defs><rect x="-100" y="-100" width="200" height="200" fill="#FEF3C7"/><g opacity="1"><polyline id="faceContour" class="face-shape" points="36.3,-6.0 36.3,-5.2 36.3,-4.3 36.3,-3.6 36.3,-2.7 36.3,-1.9 36.3,-1.0 36.3,-0.4 36.3,0.4 36.3,1.4 36.3,2.3 36.3,3.1 36.3,4.0 36.3,4.8 36.3,5.9 36.3,6.7 36.3,7.6 36.3,8.6 36.3,9.4 36.3,10.4 36.3,11.5 36.3,12.5 36.3,13.6 36.3,14.7 36.3,15.7 36.3,16.9 36.3,17.8 36.3,19.0 36.3,20.2 36.3,21.4 36.3,23.0 36.3,24.3 36.3,25.5 36.3,27.0 36.3,28.5 36.3,30.1 36.3,31.8 36.3,33.8 36.3,35.6 36.3,37.4 36.3,39.6 36.3,41.8 36.3,43.7 36.3,46.5 36.3,48.9 36.3,51.8 36.3,54.7 36.3,57.7 36.3,61.6 35.2,63.3 33.2,63.3 31.6,63.3 29.6,63.3 27.6,63.3 26.1,63.3 24.3,63.3 22.4,63.3 20.6,63.3 19.2,63.3 17.6,63.3 15.8,63.3 14.1,63.3 12.8,63.3 10.9,63.3 9.4,63.3 7.6,63.3 6.1,63.3 4.6,63.3 3.2,63.3 1.4,63.3 -0.2,63.3 -1.6,63.3 -3.1,63.3 -4.6,63.3 -6.1,63.3 -8.0,63.3 -9.5,63.3 -11.0,63.3 -12.7,63.3 -14.1,63.3 -15.8,63.3 -17.3,63.3 -19.3,63.3 -20.9,63.3 -22.4,63.3 -24.2,63.3 -26.1,63.3 -27.9,63.3 -29.5,63.3 -31.4,63.3 -33.5,63.3 -35.3,63.3 -36.2,60.9 -36.2,58.2 -36.2,55.2 -36.2,51.3 -36.2,49.0 -36.2,46.5 -36.2,44.0 -36.2,41.9 -36.2,39.4 -36.2,37.3 -36.2,35.5 -36.2,33.7 -36.2,31.8 -36.2,30.4 -36.2,28.7 -36.2,26.9 -36.2,25.7 -36.2,24.3 -36.2,22.9 -36.2,21.8 -36.2,20.2 -36.2,19.2 -36.2,17.9 -36.2,16.9 -36.2,15.5 -36.2,14.5 -36.2,13.6 -36.2,12.5 -36.2,11.4 -36.2,10.4 -36.2,9.4 -36.2,8.7 -36.2,7.7 -36.2,6.8 -36.2,5.8 -36.2,4.9 -36.2,3.9 -36.2,3.2 -36.2,2.3 -36.2,1.4 -36.2,0.6 -36.2,-0.2 -36.2,-1.0 -36.2,-1.9 -36.2,-2.8 -36.2,-3.5 -36.2,-4.4 -36.2,-5.2 -36.2,-6.1 -36.2,-6.7 -36.2,-7.6 -36.2,-8.5 -36.2,-9.3 -36.2,-10.1 -36.2,-10.9 -36.2,-11.9 -36.2,-12.6 -36.2,-13.4 -36.2,-14.3 -36.2,-15.1 -36.2,-16.0 -36.2,-17.0 -36.2,-17.7 -36.2,-18.6 -36.2,-19.7 -36.2,-20.5 -36.2,-21.6 -36.2,-22.3 -36.2,-23.6 -36.2,-24.3 -36.2,-25.4 -36.2,-26.7 -36.2,-27.8 -36.2,-28.9 -36.2,-29.9 -36.2,-31.1 -36.2,-32.3 -36.2,-33.6 -36.2,-35.0 -36.2,-36.4 -36.2,-37.7 -36.2,-39.1 -36.2,-40.7 -36.2,-42.2 -36.2,-43.9 -36.2,-45.6 -36.2,-47.2 -36.2,-49.6 -36.2,-51.2 -36.2,-53.4 -36.2,-56.2 -36.2,-58.6 -36.2,-61.2 -36.2,-63.4 -36.2,-66.3 -36.2,-70.1 -36.2,-73.1 -35.5,-75.3 -33.5,-75.3 -31.2,-75.3 -29.7,-75.3 -27.9,-75.3 -26.2,-75.3 -24.0,-75.3 -22.3,-75.3 -20.6,-75.3 -18.9,-75.3 -17.4,-75.3 -15.8,-75.3 -14.3,-75.3 -12.7,-75.3 -10.8,-75.3 -9.5,-75.3 -7.6,-75.3 -6.4,-75.3 -4.6,-75.3 -3.0,-75.3 -1.4,-75.3 0.0,-75.3 1.6,-75.3 3.2,-75.3 4.5,-75.3 6.2,-75.3 7.8,-75.3 9.4,-75.3 11.2,-75.3 12.6,-75.3 14.0,-75.3 15.6,-75.3 17.4,-75.3 19.0,-75.3 20.7,-75.3 22.5,-75.3 24.4,-75.3 26.0,-75.3 27.9,-75.3 29.5,-75.3 31.6,-75.3 33.1,-75.3 35.4,-75.3 36.3,-73.0 36.3,-70.0 36.3,-66.6 36.3,-63.7 36.3,-60.9 36.3,-58.1 36.3,-56.3 36.3,-53.6 36.3,-51.7 36.3,-49.4 36.3,-47.3 36.3,-45.5 36.3,-44.0 36.3,-42.1 36.3,-40.7 36.3,-39.3 36.3,-37.5 36.3,-36.3 36.3,-35.1 36.3,-33.4 36.3,-32.4 36.3,-31.0 36.3,-29.9 36.3,-28.9 36.3,-27.5 36.3,-26.5 36.3,-25.5 36.3,-24.5 36.3,-23.4 36.3,-22.4 36.3,-21.4 36.3,-20.5 36.3,-19.7 36.3,-18.7 36.3,-17.9 36.3,-16.9 36.3,-16.1 36.3,-15.2 36.3,-14.2 36.3,-13.4 36.3,-12.6 36.3,-11.8 36.3,-11.0 36.3,-10.2 36.3,-9.2 36.3,-8.6 36.3,-7.7 36.3,-6.7 36.3,-6.0 36.3,-5.2" fill="#ffc9a9" stroke="#111" stroke-width="2.2" stroke-linejoin="round" filter="url(#fuzzy_av_1779093954975_nyi2pq4s07d)"/><g id="leftEye" transform="translate(-13.8 -36.0)"><polyline points="-12.3,-3.5 -12.3,-3.6 -12.2,-3.7 -12.2,-3.8 -12.2,-3.8 -12.1,-3.9 -12.0,-4.0 -12.0,-4.1 -11.9,-4.2 -11.7,-4.3 -11.6,-4.4 -11.5,-4.4 -11.3,-4.5 -11.2,-4.6 -11.0,-4.7 -10.8,-4.7 -10.7,-4.8 -10.5,-4.9 -10.3,-5.0 -10.1,-5.1 -9.9,-5.2 -9.6,-5.2 -9.3,-5.3 -9.0,-5.4 -8.7,-5.4 -8.4,-5.5 -8.0,-5.5 -7.6,-5.6 -7.2,-5.6 -6.8,-5.7 -6.3,-5.7 -5.9,-5.8 -5.4,-5.8 -4.9,-5.8 -4.4,-5.8 -3.9,-5.8 -3.4,-5.9 -2.9,-5.9 -2.4,-5.9 -1.8,-5.9 -1.3,-5.8 -0.8,-5.8 -0.2,-5.8 0.3,-5.8 0.8,-5.8 1.4,-5.7 1.9,-5.7 2.4,-5.7 3.0,-5.6 3.5,-5.6 4.0,-5.5 4.5,-5.5 5.0,-5.4 5.5,-5.4 6.0,-5.3 6.4,-5.2 6.9,-5.2 7.3,-5.1 7.8,-5.0 8.2,-4.9 8.6,-4.9 9.0,-4.8 9.4,-4.7 9.7,-4.6 10.1,-4.5 10.5,-4.5 10.8,-4.4 11.1,-4.3 11.5,-4.2 11.8,-4.1 12.1,-4.0 12.3,-3.9 12.6,-3.8 12.9,-3.8 13.1,-3.7 13.4,-3.6 13.6,-3.5 13.9,-3.4 14.1,-3.3 14.3,-3.2 13.8,0.7 13.6,0.9 13.3,1.1 13.1,1.3 12.9,1.5 12.7,1.7 12.4,1.9 12.2,2.1 11.9,2.3 11.7,2.5 11.4,2.7 11.1,2.9 10.8,3.1 10.5,3.2 10.3,3.4 10.0,3.6 9.7,3.8 9.3,4.0 9.0,4.1 8.7,4.3 8.4,4.5 8.0,4.6 7.7,4.8 7.3,4.9 7.0,5.1 6.6,5.2 6.3,5.3 5.9,5.4 5.5,5.5 5.1,5.6 4.8,5.7 4.4,5.8 4.0,5.8 3.6,5.9 3.2,5.9 2.8,5.9 2.5,5.9 2.1,5.9 1.7,5.9 1.3,5.8 0.9,5.8 0.5,5.7 0.2,5.7 -0.2,5.6 -0.6,5.5 -1.0,5.4 -1.4,5.2 -1.7,5.1 -2.1,4.9 -2.4,4.8 -2.8,4.6 -3.2,4.4 -3.5,4.3 -3.9,4.1 -4.2,3.9 -4.5,3.7 -4.9,3.4 -5.2,3.2 -5.5,3.0 -5.9,2.8 -6.2,2.6 -6.5,2.3 -6.8,2.1 -7.1,1.9 -7.4,1.6 -7.6,1.4 -7.9,1.2 -8.2,1.0 -8.4,0.8 -8.7,0.6 -8.9,0.4 -9.2,0.2 -9.4,0.0 -9.6,-0.2 -9.9,-0.4 -10.1,-0.6 -10.3,-0.8 -10.5,-1.0 -10.7,-1.2 -10.9,-1.4" fill="#fff" stroke="#fff" stroke-width="0" stroke-linejoin="round" filter="url(#fuzzy_av_1779093954975_nyi2pq4s07d)"/><polyline points="12.0,-2.6 12.0,-2.6 12.1,-2.7 12.1,-2.8 12.2,-2.9 12.2,-3.0 12.2,-3.1 12.3,-3.2 12.3,-3.3 12.3,-3.4 -12.3,-3.5 -12.3,-3.6 -12.2,-3.7 -12.2,-3.8 -12.2,-3.8 -12.1,-3.9 -12.0,-4.0 -12.0,-4.1 -11.9,-4.2 -11.7,-4.3 -11.6,-4.4 -11.5,-4.4 -11.3,-4.5 -11.2,-4.6 -11.0,-4.7 -10.8,-4.7 -10.7,-4.8 -10.5,-4.9 -10.3,-5.0 -10.1,-5.1 -9.9,-5.2 -9.6,-5.2 -9.3,-5.3 -9.0,-5.4 -8.7,-5.4 -8.4,-5.5 -8.0,-5.5 -7.6,-5.6 -7.2,-5.6 -6.8,-5.7 -6.3,-5.7 -5.9,-5.8 -5.4,-5.8 -4.9,-5.8 -4.4,-5.8 -3.9,-5.8 -3.4,-5.9 -2.9,-5.9 -2.4,-5.9 -1.8,-5.9 -1.3,-5.8 -0.8,-5.8 -0.2,-5.8 0.3,-5.8 0.8,-5.8 1.4,-5.7 1.9,-5.7 2.4,-5.7 3.0,-5.6 3.5,-5.6 4.0,-5.5 4.5,-5.5 5.0,-5.4 5.5,-5.4 6.0,-5.3 6.4,-5.2 6.9,-5.2 7.3,-5.1 7.8,-5.0 8.2,-4.9 8.6,-4.9 9.0,-4.8 9.4,-4.7 9.7,-4.6 10.1,-4.5 10.5,-4.5 10.8,-4.4 11.1,-4.3 11.5,-4.2 11.8,-4.1 12.1,-4.0 12.3,-3.9 12.6,-3.8 12.9,-3.8 13.1,-3.7 13.4,-3.6 13.6,-3.5 13.9,-3.4 14.1,-3.3 14.3,-3.2 -14.5,-3.1 -14.7,-3.0 -14.8,-2.9 -15.0,-2.8 -15.2,-2.7 -15.3,-2.6 -15.5,-2.5 -15.6,-2.4 -15.7,-2.3 -15.9,-2.2" fill="none" stroke="#111" stroke-width="2.6669856215139713" stroke-linejoin="round" stroke-linecap="round" filter="url(#fuzzy_av_1779093954975_nyi2pq4s07d)"/><polyline points="12.6,-3.0 12.5,-2.9 12.3,-2.7 12.2,-2.6 12.0,-2.4 11.9,-2.3 11.7,-2.1 11.5,-1.9 11.3,-1.7 11.1,-1.5 -10.9,-1.4 -10.7,-1.2 -10.5,-1.0 -10.3,-0.8 -10.1,-0.6 -9.9,-0.4 -9.6,-0.2 -9.4,0.0 -9.2,0.2 -8.9,0.4 -8.7,0.6 -8.4,0.8 -8.2,1.0 -7.9,1.2 -7.6,1.4 -7.4,1.6 -7.1,1.9 -6.8,2.1 -6.5,2.3 -6.2,2.6 -5.9,2.8 -5.5,3.0 -5.2,3.2 -4.9,3.4 -4.5,3.7 -4.2,3.9 -3.9,4.1 -3.5,4.3 -3.2,4.4 -2.8,4.6 -2.4,4.8 -2.1,4.9 -1.7,5.1 -1.4,5.2 -1.0,5.4 -0.6,5.5 -0.2,5.6 0.2,5.7 0.5,5.7 0.9,5.8 1.3,5.8 1.7,5.9 2.1,5.9 2.5,5.9 2.8,5.9 3.2,5.9 3.6,5.9 4.0,5.8 4.4,5.8 4.8,5.7 5.1,5.6 5.5,5.5 5.9,5.4 6.3,5.3 6.6,5.2 7.0,5.1 7.3,4.9 7.7,4.8 8.0,4.6 8.4,4.5 8.7,4.3 9.0,4.1 9.3,4.0 9.7,3.8 10.0,3.6 10.3,3.4 10.5,3.2 10.8,3.1 11.1,2.9 11.4,2.7 11.7,2.5 11.9,2.3 12.2,2.1 12.4,1.9 12.7,1.7 12.9,1.5 13.1,1.3 13.3,1.1 13.6,0.9 13.8,0.7 -14.0,0.5 -14.2,0.3 -14.3,0.1 -14.5,-0.1 -14.7,-0.3 -14.8,-0.4 -15.0,-0.6 -15.2,-0.8 -15.3,-1.0 -15.4,-1.2" fill="none" stroke="#111" stroke-width="2.951314063881637" stroke-linejoin="round" stroke-linecap="round" filter="url(#fuzzy_av_1779093954975_nyi2pq4s07d)"/><circle r="4.3584138092837765" cx="5.158743323997973" cy="2.559506867471463" stroke="#111" fill="none" stroke-width="1.2436233716706129" filter="url(#fuzzy_av_1779093954975_nyi2pq4s07d)" clip-path="url(#leftEye_av_1779093954975_nyi2pq4s07d)"/><circle r="2.5888202314136795" cx="3.705300845792899" cy="2.0397199225174947" stroke="#111" fill="none" stroke-width="1.2302326174818434" filter="url(#fuzzy_av_1779093954975_nyi2pq4s07d)" clip-path="url(#leftEye_av_1779093954975_nyi2pq4s07d)"/><circle r="3.4207004252833992" cx="4.452640039047762" cy="4.084540956454292" stroke="#111" fill="none" stroke-width="0.94681526500048" filter="url(#fuzzy_av_1779093954975_nyi2pq4s07d)" clip-path="url(#leftEye_av_1779093954975_nyi2pq4s07d)"/><circle r="3.0097242106416893" cx="3.7821249715689325" cy="4.490173509519683" stroke="#111" fill="none" stroke-width="1.0409780786151215" filter="url(#fuzzy_av_1779093954975_nyi2pq4s07d)" clip-path="url(#leftEye_av_1779093954975_nyi2pq4s07d)"/><circle r="3.869925549353985" cx="2.7809026097063407" cy="5.552443091716896" stroke="#111" fill="none" stroke-width="1.0456031351041164" filter="url(#fuzzy_av_1779093954975_nyi2pq4s07d)" clip-path="url(#leftEye_av_1779093954975_nyi2pq4s07d)"/><circle r="2.4689378360680387" cx="4.010994904778162" cy="5.260957948664742" stroke="#111" fill="none" stroke-width="1.0723089369927172" filter="url(#fuzzy_av_1779093954975_nyi2pq4s07d)" clip-path="url(#leftEye_av_1779093954975_nyi2pq4s07d)"/><circle r="2.8058095821485556" cx="3.266300617275888" cy="2.9435941061332267" stroke="#111" fill="none" stroke-width="0.9356089947538777" filter="url(#fuzzy_av_1779093954975_nyi2pq4s07d)" clip-path="url(#leftEye_av_1779093954975_nyi2pq4s07d)"/><circle r="3.4114882704782863" cx="3.264307948898611" cy="1.9189882053367948" stroke="#111" fill="none" stroke-width="1.3007615927669143" filter="url(#fuzzy_av_1779093954975_nyi2pq4s07d)" clip-path="url(#leftEye_av_1779093954975_nyi2pq4s07d)"/><circle r="2.79073209690144" cx="5.4969416231335835" cy="1.7591387862959704" stroke="#111" fill="none" stroke-width="1.3034753843295326" filter="url(#fuzzy_av_1779093954975_nyi2pq4s07d)" clip-path="url(#leftEye_av_1779093954975_nyi2pq4s07d)"/><circle r="3.9810983011809666" cx="5.326740094771955" cy="3.8379189023082803" stroke="#111" fill="none" stroke-width="1.363685589060807" filter="url(#fuzzy_av_1779093954975_nyi2pq4s07d)" clip-path="url(#leftEye_av_1779093954975_nyi2pq4s07d)"/></g><g id="rightEye" transform="translate(20.1 -31.7)"><polyline points="-12.3,-5.1 -12.3,-5.2 -12.3,-5.3 -12.3,-5.4 -12.3,-5.5 -12.3,-5.6 -12.3,-5.7 -12.2,-5.8 -12.1,-5.9 -12.1,-6.0 -12.0,-6.1 -11.9,-6.2 -11.8,-6.3 -11.7,-6.4 -11.5,-6.5 -11.4,-6.5 -11.3,-6.6 -11.1,-6.7 -11.0,-6.8 -10.8,-6.9 -10.7,-7.0 -10.4,-7.1 -10.2,-7.2 -10.0,-7.3 -9.7,-7.3 -9.4,-7.4 -9.1,-7.4 -8.8,-7.5 -8.4,-7.5 -8.1,-7.6 -7.7,-7.6 -7.3,-7.6 -6.9,-7.7 -6.5,-7.7 -6.1,-7.7 -5.6,-7.7 -5.2,-7.7 -4.7,-7.7 -4.2,-7.7 -3.7,-7.7 -3.3,-7.6 -2.8,-7.6 -2.3,-7.6 -1.8,-7.5 -1.3,-7.5 -0.7,-7.5 -0.2,-7.4 0.3,-7.4 0.8,-7.3 1.3,-7.2 1.8,-7.2 2.3,-7.1 2.8,-7.0 3.3,-7.0 3.8,-6.9 4.3,-6.8 4.7,-6.7 5.2,-6.6 5.7,-6.6 6.1,-6.5 6.6,-6.4 7.0,-6.3 7.4,-6.2 7.8,-6.1 8.3,-6.0 8.7,-5.9 9.0,-5.8 9.4,-5.7 9.8,-5.6 10.2,-5.5 10.5,-5.4 10.9,-5.3 11.2,-5.2 11.5,-5.1 11.8,-5.0 12.1,-4.9 12.4,-4.8 12.7,-4.7 13.0,-4.6 13.3,-4.5 13.9,1.0 13.7,1.2 13.6,1.5 13.4,1.8 13.3,2.1 13.1,2.3 12.9,2.6 12.7,2.9 12.5,3.1 12.3,3.4 12.1,3.7 11.9,3.9 11.7,4.2 11.5,4.4 11.2,4.7 11.0,4.9 10.7,5.2 10.5,5.4 10.2,5.6 10.0,5.9 9.7,6.1 9.4,6.3 9.1,6.5 8.8,6.7 8.5,6.9 8.2,7.0 7.9,7.2 7.5,7.3 7.2,7.4 6.9,7.5 6.5,7.6 6.2,7.7 5.8,7.8 5.5,7.8 5.1,7.8 4.7,7.8 4.4,7.8 4.0,7.8 3.6,7.7 3.3,7.6 2.9,7.5 2.5,7.4 2.1,7.3 1.7,7.2 1.4,7.0 1.0,6.8 0.6,6.6 0.2,6.4 -0.2,6.2 -0.6,5.9 -1.0,5.7 -1.3,5.4 -1.7,5.2 -2.1,4.9 -2.5,4.6 -2.9,4.3 -3.2,4.0 -3.6,3.7 -4.0,3.4 -4.4,3.1 -4.7,2.7 -5.1,2.4 -5.4,2.1 -5.8,1.8 -6.2,1.5 -6.5,1.2 -6.8,0.9 -7.1,0.7 -7.4,0.4 -7.7,0.1 -8.0,-0.2 -8.3,-0.4 -8.5,-0.7 -8.8,-1.0 -9.1,-1.3 -9.4,-1.5 -9.6,-1.8 -9.9,-2.1 -10.1,-2.3 -10.4,-2.6" fill="#fff" stroke="#fff" stroke-width="0" stroke-linejoin="round" filter="url(#fuzzy_av_1779093954975_nyi2pq4s07d)"/><polyline points="-11.7,-3.9 -11.8,-4.0 -11.9,-4.1 -12.0,-4.2 -12.0,-4.4 -12.1,-4.5 -12.2,-4.6 -12.2,-4.7 -12.3,-4.8 -12.3,-4.9 -12.3,-5.1 -12.3,-5.2 -12.3,-5.3 -12.3,-5.4 -12.3,-5.5 -12.3,-5.6 -12.3,-5.7 -12.2,-5.8 -12.1,-5.9 -12.1,-6.0 -12.0,-6.1 -11.9,-6.2 -11.8,-6.3 -11.7,-6.4 -11.5,-6.5 -11.4,-6.5 -11.3,-6.6 -11.1,-6.7 -11.0,-6.8 -10.8,-6.9 -10.7,-7.0 -10.4,-7.1 -10.2,-7.2 -10.0,-7.3 -9.7,-7.3 -9.4,-7.4 -9.1,-7.4 -8.8,-7.5 -8.4,-7.5 -8.1,-7.6 -7.7,-7.6 -7.3,-7.6 -6.9,-7.7 -6.5,-7.7 -6.1,-7.7 -5.6,-7.7 -5.2,-7.7 -4.7,-7.7 -4.2,-7.7 -3.7,-7.7 -3.3,-7.6 -2.8,-7.6 -2.3,-7.6 -1.8,-7.5 -1.3,-7.5 -0.7,-7.5 -0.2,-7.4 0.3,-7.4 0.8,-7.3 1.3,-7.2 1.8,-7.2 2.3,-7.1 2.8,-7.0 3.3,-7.0 3.8,-6.9 4.3,-6.8 4.7,-6.7 5.2,-6.6 5.7,-6.6 6.1,-6.5 6.6,-6.4 7.0,-6.3 7.4,-6.2 7.8,-6.1 8.3,-6.0 8.7,-5.9 9.0,-5.8 9.4,-5.7 9.8,-5.6 10.2,-5.5 10.5,-5.4 10.9,-5.3 11.2,-5.2 11.5,-5.1 11.8,-5.0 12.1,-4.9 12.4,-4.8 12.7,-4.7 13.0,-4.6 13.3,-4.5 13.6,-4.4 13.8,-4.3 14.1,-4.2 14.3,-4.1 14.5,-4.0 14.7,-3.9 15.0,-3.7 15.2,-3.6 15.4,-3.5 15.5,-3.4" fill="none" stroke="#111" stroke-width="2.678822788842902" stroke-linejoin="round" stroke-linecap="round" filter="url(#fuzzy_av_1779093954975_nyi2pq4s07d)"/><polyline points="-12.3,-4.8 -12.2,-4.6 -12.0,-4.4 -11.9,-4.2 -11.7,-4.0 -11.5,-3.8 -11.3,-3.5 -11.1,-3.3 -10.8,-3.1 -10.6,-2.8 -10.4,-2.6 -10.1,-2.3 -9.9,-2.1 -9.6,-1.8 -9.4,-1.5 -9.1,-1.3 -8.8,-1.0 -8.5,-0.7 -8.3,-0.4 -8.0,-0.2 -7.7,0.1 -7.4,0.4 -7.1,0.7 -6.8,0.9 -6.5,1.2 -6.2,1.5 -5.8,1.8 -5.4,2.1 -5.1,2.4 -4.7,2.7 -4.4,3.1 -4.0,3.4 -3.6,3.7 -3.2,4.0 -2.9,4.3 -2.5,4.6 -2.1,4.9 -1.7,5.2 -1.3,5.4 -1.0,5.7 -0.6,5.9 -0.2,6.2 0.2,6.4 0.6,6.6 1.0,6.8 1.4,7.0 1.7,7.2 2.1,7.3 2.5,7.4 2.9,7.5 3.3,7.6 3.6,7.7 4.0,7.8 4.4,7.8 4.7,7.8 5.1,7.8 5.5,7.8 5.8,7.8 6.2,7.7 6.5,7.6 6.9,7.5 7.2,7.4 7.5,7.3 7.9,7.2 8.2,7.0 8.5,6.9 8.8,6.7 9.1,6.5 9.4,6.3 9.7,6.1 10.0,5.9 10.2,5.6 10.5,5.4 10.7,5.2 11.0,4.9 11.2,4.7 11.5,4.4 11.7,4.2 11.9,3.9 12.1,3.7 12.3,3.4 12.5,3.1 12.7,2.9 12.9,2.6 13.1,2.3 13.3,2.1 13.4,1.8 13.6,1.5 13.7,1.2 13.9,1.0 14.0,0.7 14.1,0.4 14.2,0.2 14.3,-0.1 14.4,-0.4 14.5,-0.6 14.6,-0.9 14.7,-1.1 14.8,-1.4 14.9,-1.6" fill="none" stroke="#111" stroke-width="2.811057460901405" stroke-linejoin="round" stroke-linecap="round" filter="url(#fuzzy_av_1779093954975_nyi2pq4s07d)"/><circle r="4.623092186635016" cx="3.353526558383933" cy="-0.728975310592797" stroke="#111" fill="none" stroke-width="0.9517267627772864" filter="url(#fuzzy_av_1779093954975_nyi2pq4s07d)" clip-path="url(#rightEye_av_1779093954975_nyi2pq4s07d)"/><circle r="2.7338941740902416" cx="0.07408749582124585" cy="-1.4060374763460364" stroke="#111" fill="none" stroke-width="1.129667283978546" filter="url(#fuzzy_av_1779093954975_nyi2pq4s07d)" clip-path="url(#rightEye_av_1779093954975_nyi2pq4s07d)"/><circle r="2.7726766181449145" cx="1.192196343118134" cy="-0.706507586768222" stroke="#111" fill="none" stroke-width="0.9726767848975378" filter="url(#fuzzy_av_1779093954975_nyi2pq4s07d)" clip-path="url(#rightEye_av_1779093954975_nyi2pq4s07d)"/><circle r="4.307982634263775" cx="1.744075179680319" cy="0.2339200892564528" stroke="#111" fill="none" stroke-width="1.3545917801970626" filter="url(#fuzzy_av_1779093954975_nyi2pq4s07d)" clip-path="url(#rightEye_av_1779093954975_nyi2pq4s07d)"/><circle r="2.9425680699250125" cx="2.3074705027508613" cy="-0.859674749933929" stroke="#111" fill="none" stroke-width="0.8105198995792652" filter="url(#fuzzy_av_1779093954975_nyi2pq4s07d)" clip-path="url(#rightEye_av_1779093954975_nyi2pq4s07d)"/><circle r="2.596378878819735" cx="4.156709613433254" cy="1.0316329469372003" stroke="#111" fill="none" stroke-width="1.3925570333193775" filter="url(#fuzzy_av_1779093954975_nyi2pq4s07d)" clip-path="url(#rightEye_av_1779093954975_nyi2pq4s07d)"/><circle r="3.7371852790138558" cx="3.1246974399208503" cy="-2.2736405903105585" stroke="#111" fill="none" stroke-width="1.215066981840426" filter="url(#fuzzy_av_1779093954975_nyi2pq4s07d)" clip-path="url(#rightEye_av_1779093954975_nyi2pq4s07d)"/><circle r="3.550615557593793" cx="1.7743454808870025" cy="-1.867572382348121" stroke="#111" fill="none" stroke-width="1.1661428389559396" filter="url(#fuzzy_av_1779093954975_nyi2pq4s07d)" clip-path="url(#rightEye_av_1779093954975_nyi2pq4s07d)"/><circle r="3.1327427430433885" cx="3.5580042481618337" cy="1.7307842852939546" stroke="#111" fill="none" stroke-width="1.1463871025569852" filter="url(#fuzzy_av_1779093954975_nyi2pq4s07d)" clip-path="url(#rightEye_av_1779093954975_nyi2pq4s07d)"/><circle r="4.68339190792897" cx="4.03662088090269" cy="1.5690971302849261" stroke="#111" fill="none" stroke-width="0.8834728482214363" filter="url(#fuzzy_av_1779093954975_nyi2pq4s07d)" clip-path="url(#rightEye_av_1779093954975_nyi2pq4s07d)"/></g><g id="hairs"><polyline points="-3.0,-75.8 -1.6,-75.3 -0.6,-76.1 0.3,-75.4 0.8,-74.6 1.1,-73.7 1.0,-72.8 0.6,-70.8 -0.2,-69.4 -1.4,-65.6 -3.1,-63.3 -5.3,-60.0 -8.0,-56.5 -11.2,-52.8 -14.9,-49.7 -19.3,-44.3 -24.2,-37.7 -29.9,-32.2 -36.2,-26.3" fill="none" stroke="url(#rainbow_av_1779093954975_nyi2pq4s07d)" stroke-width="0.7664368078700318" stroke-linejoin="round" stroke-linecap="round" filter="url(#fuzzy_av_1779093954975_nyi2pq4s07d)" opacity="0.9547133642172196"/><polyline points="-36.2,-21.9 -36.1,-23.2 -35.6,-23.4 -34.9,-26.5 -34.0,-27.6 -32.8,-30.9 -31.5,-32.7 -30.0,-36.6 -28.3,-39.6 -26.6,-41.9 -24.8,-46.1 -22.9,-48.3 -21.0,-52.6 -19.2,-55.7 -17.3,-61.2 -15.6,-64.6 -13.9,-68.2 -12.3,-71.8 -10.8,-76.6" fill="none" stroke="url(#rainbow_av_1779093954975_nyi2pq4s07d)" stroke-width="1.9968041868494086" stroke-linejoin="round" stroke-linecap="round" filter="url(#fuzzy_av_1779093954975_nyi2pq4s07d)" opacity="0.8546001436991069"/><polyline points="-36.2,-25.9 -36.1,-26.1 -35.6,-27.8 -34.9,-28.2 -33.8,-29.7 -32.5,-31.0 -30.9,-33.1 -28.9,-34.9 -26.7,-37.8 -24.1,-39.8 -21.3,-42.7 -18.1,-44.4 -14.7,-46.9 -11.1,-50.2 -7.2,-54.7 -3.2,-57.0 0.8,-61.6 4.8,-64.3 8.8,-66.9 12.7,-69.4 16.6,-71.7 20.5,-73.4 24.4,-76.9" fill="none" stroke="url(#rainbow_av_1779093954975_nyi2pq4s07d)" stroke-width="1.9894537041159028" stroke-linejoin="round" stroke-linecap="round" filter="url(#fuzzy_av_1779093954975_nyi2pq4s07d)" opacity="0.9329654829544234"/><polyline points="-22.3,-75.4 -20.8,-76.6 -19.4,-75.1 -18.3,-74.9 -17.3,-72.8 -16.6,-72.5 -16.1,-69.9 -15.8,-65.9 -15.9,-62.7 -16.4,-60.7 -17.2,-55.8 -18.5,-50.9 -20.1,-45.8 -22.3,-40.0 -25.0,-34.9 -28.2,-27.1 -31.9,-20.2 -36.2,-11.6" fill="none" stroke="url(#rainbow_av_1779093954975_nyi2pq4s07d)" stroke-width="2.5309660526212534" stroke-linejoin="round" stroke-linecap="round" filter="url(#fuzzy_av_1779093954975_nyi2pq4s07d)" opacity="0.9985213083421294"/><polyline points="-31.2,-76.9 -29.6,-75.8 -27.8,-75.6 -26.0,-75.7 -24.1,-75.7 -22.3,-76.7 -20.7,-76.1 -19.3,-76.7 -18.1,-75.9 -17.2,-75.4 -16.5,-76.3 -16.2,-76.9 -16.2,-77.0 -16.6,-77.0 -17.6,-77.0 -19.0,-77.0 -20.9,-75.6 -23.4,-74.8 -26.3,-74.1 -29.5,-73.2 -32.8,-71.1 -36.2,-66.9" fill="none" stroke="url(#rainbow_av_1779093954975_nyi2pq4s07d)" stroke-width="2.3526908567461833" stroke-linejoin="round" stroke-linecap="round" filter="url(#fuzzy_av_1779093954975_nyi2pq4s07d)" opacity="0.8513154673615766"/><polyline points="36.3,-37.6 35.9,-35.5 35.0,-34.1 33.4,-34.6 31.1,-33.9 28.2,-31.8 24.7,-30.5 20.5,-30.3 15.6,-30.3 10.2,-29.3 4.0,-28.5 -2.7,-27.6 -10.1,-28.5 -18.2,-27.8 -26.9,-27.4 -36.2,-25.4" fill="none" stroke="url(#rainbow_av_1779093954975_nyi2pq4s07d)" stroke-width="1.1074054736457435" stroke-linejoin="round" stroke-linecap="round" filter="url(#fuzzy_av_1779093954975_nyi2pq4s07d)" opacity="0.9272049520712964"/><polyline points="36.3,-52.5 36.2,-50.4 36.1,-49.0 35.8,-47.6 35.5,-46.7 34.9,-45.4 34.2,-44.1 33.4,-43.4 32.3,-43.6 31.0,-44.0 29.5,-43.2 27.8,-45.4 25.8,-45.9 23.5,-46.7 20.9,-47.6 18.0,-50.2 14.7,-52.8 11.1,-54.2 7.1,-57.3 2.7,-60.7 -2.1,-64.3 -7.3,-67.5 -12.9,-71.2 -18.9,-76.6" fill="none" stroke="url(#rainbow_av_1779093954975_nyi2pq4s07d)" stroke-width="0.7671779808940652" stroke-linejoin="round" stroke-linecap="round" filter="url(#fuzzy_av_1779093954975_nyi2pq4s07d)" opacity="0.9955559472137123"/><polyline points="36.3,-62.7 36.2,-59.7 36.2,-57.9 36.1,-56.5 35.9,-54.2 35.6,-52.0 35.2,-50.9 34.7,-51.0 33.9,-51.1 32.9,-50.2 31.8,-51.3 30.3,-50.8 28.6,-53.0 26.7,-55.1 24.4,-56.7 21.8,-59.4 18.9,-61.7 15.5,-64.1 11.8,-68.3 7.6,-72.6 3.2,-76.9" fill="none" stroke="url(#rainbow_av_1779093954975_nyi2pq4s07d)" stroke-width="1.040661105119666" stroke-linejoin="round" stroke-linecap="round" filter="url(#fuzzy_av_1779093954975_nyi2pq4s07d)" opacity="0.9418712325687393"/><polyline points="-36.2,-73.8 -35.1,-74.5 -33.5,-75.9 -31.9,-75.5 -30.3,-74.8 -28.8,-74.6 -27.4,-73.8 -26.2,-73.6 -25.2,-73.6 -24.5,-70.8 -24.0,-69.3 -23.7,-67.1 -23.8,-65.3 -24.1,-62.0 -24.8,-60.0 -25.7,-56.5 -27.0,-53.4 -28.7,-48.5 -30.8,-44.2 -33.3,-39.2 -36.2,-34.1" fill="none" stroke="url(#rainbow_av_1779093954975_nyi2pq4s07d)" stroke-width="0.8809447675409805" stroke-linejoin="round" stroke-linecap="round" filter="url(#fuzzy_av_1779093954975_nyi2pq4s07d)" opacity="0.8992626598939735"/><polyline points="11.2,-75.5 12.4,-76.8 13.6,-76.3 14.6,-75.4 15.5,-73.7 16.1,-72.6 16.5,-72.8 16.6,-71.5 16.4,-68.1 15.9,-67.1 15.1,-63.9 13.9,-61.5 12.2,-58.5 10.1,-54.2 7.5,-50.9 4.3,-45.5 0.6,-41.1 -3.6,-36.0 -8.2,-29.6 -13.2,-24.3 -18.6,-18.6 -24.2,-13.3 -30.1,-9.0 -36.2,-3.1" fill="none" stroke="url(#rainbow_av_1779093954975_nyi2pq4s07d)" stroke-width="1.2065652126112778" stroke-linejoin="round" stroke-linecap="round" filter="url(#fuzzy_av_1779093954975_nyi2pq4s07d)" opacity="0.9702237014942398"/><polyline points="33.1,-76.1 34.6,-75.0 35.1,-73.5 34.9,-69.9 34.3,-67.6 33.3,-63.9 32.1,-60.0 30.6,-58.6 28.8,-54.4 26.9,-51.1 24.7,-48.3 22.2,-45.9 19.6,-43.7 16.7,-39.4 13.5,-38.0 10.2,-34.6 6.6,-33.1 2.7,-29.3 -1.3,-26.2 -5.6,-24.4 -10.1,-21.1 -14.9,-19.1 -19.9,-17.8 -25.1,-14.2 -30.6,-11.2 -36.2,-8.7" fill="none" stroke="url(#rainbow_av_1779093954975_nyi2pq4s07d)" stroke-width="1.4436947076970705" stroke-linejoin="round" stroke-linecap="round" filter="url(#fuzzy_av_1779093954975_nyi2pq4s07d)" opacity="0.9596453748582694"/><polyline points="-36.2,-8.1 -36.2,-8.3 -36.0,-9.0 -35.7,-10.5 -35.3,-12.8 -34.8,-14.2 -34.3,-16.0 -33.7,-17.8 -33.1,-21.5 -32.5,-22.8 -31.8,-24.7 -31.2,-28.6 -30.6,-31.2 -30.1,-33.4 -29.6,-37.2 -29.1,-40.6 -28.8,-43.9 -28.5,-46.1 -28.5,-51.2 -28.5,-54.0 -28.8,-56.9 -29.2,-62.3 -29.9,-65.3 -30.8,-69.4 -31.9,-71.7 -33.5,-76.0" fill="none" stroke="url(#rainbow_av_1779093954975_nyi2pq4s07d)" stroke-width="2.2100622262262046" stroke-linejoin="round" stroke-linecap="round" filter="url(#fuzzy_av_1779093954975_nyi2pq4s07d)" opacity="0.8923874511805341"/><polyline points="-36.2,-68.0 -36.2,-70.3 -35.7,-72.5 -34.7,-72.7 -33.5,-73.5 -32.0,-71.9 -30.6,-71.3 -29.2,-69.2 -27.9,-66.6 -26.8,-64.6 -25.9,-61.4 -25.3,-57.5 -24.8,-53.3 -24.6,-49.3 -24.7,-45.6 -25.0,-39.3 -25.7,-34.7 -26.6,-28.2 -27.8,-22.4 -29.4,-15.1 -31.3,-7.5 -33.6,-1.2 -36.2,6.8" fill="none" stroke="url(#rainbow_av_1779093954975_nyi2pq4s07d)" stroke-width="2.5477485265715076" stroke-linejoin="round" stroke-linecap="round" filter="url(#fuzzy_av_1779093954975_nyi2pq4s07d)" opacity="0.7917563953305315"/><polyline points="-7.6,-76.9 -6.4,-75.3 -5.2,-76.8 -4.4,-74.9 -3.8,-74.1 -3.5,-72.6 -3.6,-70.9 -4.1,-68.8 -5.0,-67.9 -6.3,-63.9 -8.0,-62.5 -10.3,-59.0 -13.1,-53.4 -16.5,-49.4 -20.5,-43.8 -25.1,-38.7 -30.3,-32.8 -36.2,-25.9" fill="none" stroke="url(#rainbow_av_1779093954975_nyi2pq4s07d)" stroke-width="2.1145314320688717" stroke-linejoin="round" stroke-linecap="round" filter="url(#fuzzy_av_1779093954975_nyi2pq4s07d)" opacity="0.9264205487868589"/><polyline points="-36.2,-14.4 -36.0,-16.0 -35.3,-18.5 -34.2,-19.6 -32.7,-20.7 -30.8,-23.9 -28.5,-27.3 -25.9,-29.1 -23.1,-32.5 -20.0,-36.1 -16.7,-41.0 -13.2,-44.9 -9.6,-48.8 -5.8,-53.5 -2.0,-57.9 2.0,-61.5 5.9,-66.2 10.0,-70.5 14.0,-76.6" fill="none" stroke="url(#rainbow_av_1779093954975_nyi2pq4s07d)" stroke-width="1.6519187053180566" stroke-linejoin="round" stroke-linecap="round" filter="url(#fuzzy_av_1779093954975_nyi2pq4s07d)" opacity="0.9062813373445883"/><polyline points="36.3,-74.6 36.2,-72.0 35.9,-67.6 35.4,-65.5 34.6,-62.8 33.6,-61.3 32.3,-59.2 30.7,-57.3 28.8,-56.8 26.5,-55.6 23.9,-54.8 20.9,-55.2 17.5,-55.6 13.6,-56.4 9.3,-56.3 4.6,-57.0 -0.5,-58.8 -6.0,-59.6 -11.7,-61.0 -17.6,-62.0 -23.6,-61.8 -29.8,-61.6 -36.2,-61.3" fill="none" stroke="url(#rainbow_av_1779093954975_nyi2pq4s07d)" stroke-width="2.570022017941829" stroke-linejoin="round" stroke-linecap="round" filter="url(#fuzzy_av_1779093954975_nyi2pq4s07d)" opacity="0.8220102678396624"/><polyline points="-36.2,-22.0 -36.2,-23.5 -36.1,-23.9 -35.9,-26.5 -35.7,-28.0 -35.4,-29.5 -35.1,-31.7 -34.9,-32.6 -34.6,-35.4 -34.5,-38.0 -34.3,-39.5 -34.3,-43.6 -34.4,-46.3 -34.5,-47.8 -34.8,-51.5 -35.1,-53.2 -35.4,-56.2 -35.7,-56.5 -36.0,-57.4 -36.1,-59.2 -36.2,-58.4 -36.2,-59.5 -36.2,-58.5 -36.2,-57.2 -36.2,-54.5" fill="none" stroke="url(#rainbow_av_1779093954975_nyi2pq4s07d)" stroke-width="2.4504802287815846" stroke-linejoin="round" stroke-linecap="round" filter="url(#fuzzy_av_1779093954975_nyi2pq4s07d)" opacity="0.8531604126290342"/><polyline points="29.5,-76.1 31.0,-76.0 31.7,-74.2 31.4,-73.1 30.1,-70.2 27.7,-67.1 24.5,-61.4 20.4,-57.8 15.6,-52.2 10.2,-46.8 4.0,-41.1 -2.7,-37.0 -10.1,-30.7 -18.2,-26.4 -26.9,-21.0 -36.2,-16.3" fill="none" stroke="url(#rainbow_av_1779093954975_nyi2pq4s07d)" stroke-width="1.2523445748655546" stroke-linejoin="round" stroke-linecap="round" filter="url(#fuzzy_av_1779093954975_nyi2pq4s07d)" opacity="0.8546960273593613"/><polyline points="26.0,-75.8 27.5,-75.4 28.7,-76.4 29.4,-75.6 29.6,-72.4 29.1,-71.6 27.8,-67.6 25.8,-63.8 23.1,-58.9 19.9,-54.6 16.1,-50.4 11.9,-45.2 7.3,-40.3 2.3,-35.4 -3.1,-32.0 -8.9,-27.0 -15.2,-22.4 -21.8,-16.3 -28.8,-11.9 -36.2,-7.7" fill="none" stroke="url(#rainbow_av_1779093954975_nyi2pq4s07d)" stroke-width="1.427823506637374" stroke-linejoin="round" stroke-linecap="round" filter="url(#fuzzy_av_1779093954975_nyi2pq4s07d)" opacity="0.810093406669097"/><polyline points="-36.2,-18.8 -36.2,-18.5 -36.2,-20.5 -36.2,-20.6 -36.2,-23.9 -36.2,-25.3 -36.2,-26.2 -36.2,-27.4 -36.2,-28.5 -36.2,-30.6 -36.2,-32.1 -36.2,-32.4 -36.2,-33.0 -36.2,-33.5 -36.2,-31.8 -36.2,-32.8 -36.2,-30.3" fill="none" stroke="url(#rainbow_av_1779093954975_nyi2pq4s07d)" stroke-width="1.9976304625176067" stroke-linejoin="round" stroke-linecap="round" filter="url(#fuzzy_av_1779093954975_nyi2pq4s07d)" opacity="0.7759092605936855"/><polyline points="31.6,-76.1 33.0,-76.4 33.9,-74.5 34.1,-71.7 33.7,-69.9 32.7,-65.1 31.3,-62.2 29.5,-58.2 27.5,-53.4 25.2,-50.1 22.5,-45.8 19.7,-40.9 16.5,-38.2 13.1,-34.4 9.4,-29.9 5.4,-24.5 1.2,-22.0 -3.4,-16.6 -8.1,-12.4 -13.2,-7.9 -18.6,-5.0 -24.2,0.5 -30.1,5.3 -36.2,8.5" fill="none" stroke="url(#rainbow_av_1779093954975_nyi2pq4s07d)" stroke-width="1.0960868406459179" stroke-linejoin="round" stroke-linecap="round" filter="url(#fuzzy_av_1779093954975_nyi2pq4s07d)" opacity="0.9820379364539399"/><polyline points="-36.2,-18.7 -36.2,-20.9 -36.2,-21.1 -36.2,-23.6 -36.2,-23.0 -36.2,-24.6 -36.2,-26.8 -36.2,-27.4 -36.2,-28.8 -36.2,-27.9 -36.2,-29.0 -36.2,-29.7 -36.2,-29.9 -36.2,-32.0 -36.2,-31.5 -36.2,-32.1 -36.2,-31.6 -36.2,-31.9 -36.2,-31.0 -36.2,-28.7 -36.2,-28.6 -36.2,-26.1 -36.2,-24.1 -36.2,-21.5 -36.2,-20.4 -36.2,-15.5" fill="none" stroke="url(#rainbow_av_1779093954975_nyi2pq4s07d)" stroke-width="0.9650445781229176" stroke-linejoin="round" stroke-linecap="round" filter="url(#fuzzy_av_1779093954975_nyi2pq4s07d)" opacity="0.828780599456105"/><polyline points="-36.2,-22.2 -36.2,-24.1 -36.2,-24.2 -36.2,-24.5 -36.2,-24.7 -36.2,-26.4 -36.2,-26.6 -36.2,-25.1 -36.2,-26.2 -36.2,-25.0 -36.2,-23.6 -36.2,-23.0 -36.2,-20.8 -36.2,-18.7 -36.2,-15.8 -36.2,-10.7 -36.2,-8.1 -36.2,-2.5 -36.2,2.8 -36.2,8.1" fill="none" stroke="url(#rainbow_av_1779093954975_nyi2pq4s07d)" stroke-width="1.258457273869117" stroke-linejoin="round" stroke-linecap="round" filter="url(#fuzzy_av_1779093954975_nyi2pq4s07d)" opacity="0.9715748789804015"/><polyline points="-24.0,-76.0 -22.4,-75.3 -20.9,-75.5 -19.5,-74.5 -18.3,-75.2 -17.2,-73.4 -16.3,-73.7 -15.5,-71.9 -14.9,-68.6 -14.4,-68.2 -14.3,-64.8 -14.3,-63.0 -14.6,-59.4 -15.3,-58.0 -16.2,-54.4 -17.4,-50.4 -19.0,-46.5 -20.9,-42.3 -23.1,-36.4 -25.8,-30.4 -28.9,-26.0 -32.3,-19.5 -36.2,-13.2" fill="none" stroke="url(#rainbow_av_1779093954975_nyi2pq4s07d)" stroke-width="2.3861977644262993" stroke-linejoin="round" stroke-linecap="round" filter="url(#fuzzy_av_1779093954975_nyi2pq4s07d)" opacity="0.7508981129008278"/><polyline points="7.8,-76.6 9.4,-75.4 11.0,-76.5 12.6,-75.8 14.1,-77.0 15.5,-77.1 16.7,-76.0 17.8,-76.5 18.5,-76.7 18.9,-75.8 18.8,-76.7 18.2,-76.8 17.0,-75.9 15.1,-76.1 12.6,-77.2 9.3,-76.3 5.1,-75.7 0.0,-76.6" fill="none" stroke="url(#rainbow_av_1779093954975_nyi2pq4s07d)" stroke-width="1.2891178628831943" stroke-linejoin="round" stroke-linecap="round" filter="url(#fuzzy_av_1779093954975_nyi2pq4s07d)" opacity="0.8369560744757443"/><polyline points="-6.4,-76.9 -4.8,-77.2 -3.5,-75.7 -2.5,-75.9 -1.8,-76.1 -1.5,-76.4 -1.6,-76.4 -2.1,-76.7 -3.2,-75.5 -4.7,-76.2 -6.7,-74.0 -9.2,-73.4 -12.3,-71.0 -15.8,-69.3 -19.9,-67.3 -24.7,-63.5 -30.1,-58.5 -36.2,-53.9" fill="none" stroke="url(#rainbow_av_1779093954975_nyi2pq4s07d)" stroke-width="1.5234791198992785" stroke-linejoin="round" stroke-linecap="round" filter="url(#fuzzy_av_1779093954975_nyi2pq4s07d)" opacity="0.9294359565132803"/><polyline points="7.8,-75.7 9.3,-75.5 10.5,-76.4 11.5,-76.9 12.1,-76.7 12.5,-76.3 12.5,-77.0 12.0,-76.7 11.1,-75.7 9.6,-75.7 7.6,-75.8 5.1,-75.5 1.9,-74.9 -1.7,-73.1 -5.9,-70.5 -10.6,-68.6 -16.0,-65.1 -22.1,-62.4 -28.9,-58.7 -36.2,-54.9" fill="none" stroke="url(#rainbow_av_1779093954975_nyi2pq4s07d)" stroke-width="1.1021687876224897" stroke-linejoin="round" stroke-linecap="round" filter="url(#fuzzy_av_1779093954975_nyi2pq4s07d)" opacity="0.8257664673047547"/><polyline points="36.3,-15.9 36.7,-13.1 36.8,-11.7 37.0,-10.8 37.3,-8.0 37.8,-8.2 38.3,-6.2 38.6,-4.9 38.9,-2.1 39.0,-0.3 39.2,1.3 39.4,2.6 39.8,5.1 40.2,6.4 40.8,7.0 41.3,9.1 41.9,11.8 42.5,14.7 43.0,15.3 43.7,19.2 44.4,21.0 45.2,23.3 46.2,26.5 47.2,29.7 48.2,32.4 49.0,35.6 49.5,40.6 49.8,43.5 49.9,48.1 49.9,53.5 49.4,58.1 47.8,63.0" fill="none" stroke="url(#rainbow_av_1779093954975_nyi2pq4s07d)" stroke-width="1.981063092323367" stroke-linejoin="round" stroke-linecap="round" filter="url(#fuzzy_av_1779093954975_nyi2pq4s07d)" opacity="0.9383323919719476"/><polyline points="36.3,-18.3 37.8,-16.4 39.1,-13.6 39.8,-12.8 40.0,-12.3 40.1,-8.9 40.2,-8.6 40.6,-6.3 41.2,-5.3 41.9,-2.8 42.6,-2.6 43.3,0.4 43.9,1.1 44.5,3.2 45.0,4.0 45.4,5.8 45.9,8.9 46.4,9.8 47.1,12.1 48.0,14.7 49.1,16.2 50.3,19.6 51.2,20.1 52.0,23.6 52.7,26.4 53.4,28.5" fill="none" stroke="url(#rainbow_av_1779093954975_nyi2pq4s07d)" stroke-width="1.786188094630425" stroke-linejoin="round" stroke-linecap="round" filter="url(#fuzzy_av_1779093954975_nyi2pq4s07d)" opacity="0.8929984213773005"/><polyline points="36.3,-21.6 37.4,-18.9 37.4,-17.0 37.2,-16.1 37.3,-14.2 37.7,-13.0 38.2,-10.9 38.7,-9.8 38.9,-7.0 39.0,-6.0 39.1,-3.7 39.2,-3.4 39.6,-1.3 40.2,1.1 41.1,3.2 42.2,3.8 43.2,6.5 44.2,6.7 44.9,10.1 45.4,11.6 45.8,14.1 46.1,14.5 46.3,16.9 46.7,19.8 47.3,22.5 48.1,24.8 48.8,27.7" fill="none" stroke="url(#rainbow_av_1779093954975_nyi2pq4s07d)" stroke-width="1.7398920740690924" stroke-linejoin="round" stroke-linecap="round" filter="url(#fuzzy_av_1779093954975_nyi2pq4s07d)" opacity="0.8484581265902117"/><polyline points="36.3,-20.4 36.3,-19.8 36.4,-17.0 36.5,-15.3 36.8,-14.5 37.1,-12.7 37.5,-10.8 37.9,-9.8 38.2,-8.2 38.4,-6.1 38.4,-5.1 38.2,-3.2 38.1,-0.5 38.0,0.1 38.0,2.6 38.0,5.0 38.2,5.6 38.3,7.2 38.6,9.9 38.8,11.7 39.2,13.9 39.5,15.5 39.9,18.8 40.3,20.0 40.6,22.6 40.8,25.9 40.9,29.6 40.9,32.0 40.9,36.2 40.9,40.7 40.9,44.6 40.9,48.2 40.7,53.6 40.1,59.7 38.2,62.4" fill="none" stroke="url(#rainbow_av_1779093954975_nyi2pq4s07d)" stroke-width="1.7251260949507863" stroke-linejoin="round" stroke-linecap="round" filter="url(#fuzzy_av_1779093954975_nyi2pq4s07d)" opacity="0.9198868954557968"/><polyline points="36.3,-21.0 36.6,-19.5 37.5,-17.7 38.4,-15.9 39.0,-15.3 39.5,-13.9 39.8,-12.2 40.1,-10.2 40.5,-8.7 40.9,-6.4 41.4,-6.2 41.8,-3.4 42.2,-1.7 42.6,-0.5 42.8,1.2 43.0,2.8 43.1,4.2 43.3,7.4 43.6,8.2 44.1,10.3 44.9,11.6 45.7,13.1 46.5,16.4 47.0,18.1 47.4,20.9 49.0,23.4" fill="none" stroke="url(#rainbow_av_1779093954975_nyi2pq4s07d)" stroke-width="2.4042233392074532" stroke-linejoin="round" stroke-linecap="round" filter="url(#fuzzy_av_1779093954975_nyi2pq4s07d)" opacity="0.8439432059257437"/><polyline points="36.3,-23.3 37.2,-22.3 38.7,-20.8 40.2,-17.2 41.4,-16.8 42.1,-14.2 42.1,-12.9 41.6,-10.9 41.0,-9.4 40.6,-9.3 40.6,-6.7 41.1,-6.0 41.9,-3.8 42.9,-1.6 44.0,-1.5 45.1,1.4 46.1,2.6 46.9,5.1 47.6,5.3 48.4,9.0 49.2,9.9 50.2,11.5 51.4,13.5 52.9,16.6 54.5,18.1 55.3,21.1" fill="none" stroke="url(#rainbow_av_1779093954975_nyi2pq4s07d)" stroke-width="0.959122496654437" stroke-linejoin="round" stroke-linecap="round" filter="url(#fuzzy_av_1779093954975_nyi2pq4s07d)" opacity="0.8294779756307782"/><polyline points="36.3,-24.5 36.3,-24.3 36.4,-21.0 36.5,-19.8 37.0,-18.6 37.7,-16.6 38.7,-15.3 39.7,-14.2 40.5,-10.9 41.1,-9.6 41.4,-9.3 41.5,-6.3 41.6,-4.4 41.7,-2.7 41.8,-2.1 42.1,-0.6 42.4,0.8 42.8,3.4 43.2,5.1 43.7,6.2 44.2,8.4 44.7,11.1 45.3,13.0 46.2,13.7 47.2,16.2 48.2,18.2 49.1,21.4 49.7,23.1 50.1,26.3 50.5,30.2 50.4,33.4" fill="none" stroke="url(#rainbow_av_1779093954975_nyi2pq4s07d)" stroke-width="2.314245082788891" stroke-linejoin="round" stroke-linecap="round" filter="url(#fuzzy_av_1779093954975_nyi2pq4s07d)" opacity="0.8804277592508193"/><polyline points="36.3,-26.4 36.4,-25.2 36.6,-22.7 37.0,-20.2 37.6,-18.4 38.2,-18.0 38.8,-16.5 39.2,-14.5 39.6,-12.2 39.9,-11.2 40.3,-8.1 40.7,-6.6 41.1,-5.4 41.5,-3.9 41.8,-2.6 41.9,-0.3 41.8,1.6 41.7,2.1 41.4,4.2 41.2,6.0 41.1,8.2 41.2,9.1 41.4,12.6 41.8,13.7 42.2,16.6 42.7,17.5 43.2,19.8 43.6,22.9 43.9,26.6 44.1,28.9 44.3,32.3 44.5,36.3 44.9,40.3 45.5,45.4 46.0,49.4 46.1,54.4 45.3,58.4 43.2,60.4 39.6,63.2" fill="none" stroke="url(#rainbow_av_1779093954975_nyi2pq4s07d)" stroke-width="1.2601304220813332" stroke-linejoin="round" stroke-linecap="round" filter="url(#fuzzy_av_1779093954975_nyi2pq4s07d)" opacity="0.9971573858704454"/><polyline points="36.3,-31.3 36.9,-29.2 37.8,-26.4 38.1,-25.6 38.0,-22.9 37.8,-20.4 37.8,-19.7 37.9,-17.1 38.0,-15.4 38.3,-13.4 38.5,-12.1 38.7,-10.6 38.9,-8.5 39.1,-7.9 39.2,-5.5 39.3,-4.6 39.5,-3.2 39.7,-0.7 40.0,0.7 40.4,1.5 40.8,4.8 41.1,5.5 41.4,7.8 41.6,8.8 41.8,10.5 41.9,14.0 42.1,15.1 42.3,17.1 42.5,19.7 42.7,22.1 43.0,26.4 43.3,28.5 43.7,31.0 44.2,35.0 44.8,38.9 45.5,42.0" fill="none" stroke="url(#rainbow_av_1779093954975_nyi2pq4s07d)" stroke-width="2.588137018503682" stroke-linejoin="round" stroke-linecap="round" filter="url(#fuzzy_av_1779093954975_nyi2pq4s07d)" opacity="0.9549410935127831"/><polyline points="36.3,-33.9 37.7,-31.7 38.0,-30.7 38.1,-27.6 38.3,-25.8 38.6,-24.2 39.3,-22.6 40.2,-20.0 41.0,-19.1 41.8,-16.4 42.3,-14.2 42.7,-12.5 42.9,-12.7 43.1,-10.3 43.3,-8.7 43.6,-6.2 44.0,-6.1 44.6,-3.8 45.3,-2.6 46.1,-1.4 46.8,0.5 47.3,2.6 47.6,5.4 47.7,6.4 47.8,9.3 48.1,10.2 48.7,11.3 49.7,15.0 50.9,15.5 52.2,19.0 53.3,21.9 53.9,24.4 54.2,26.8 54.3,30.1 55.0,33.3" fill="none" stroke="url(#rainbow_av_1779093954975_nyi2pq4s07d)" stroke-width="1.9617153215348317" stroke-linejoin="round" stroke-linecap="round" filter="url(#fuzzy_av_1779093954975_nyi2pq4s07d)" opacity="0.7925006083432171"/><polyline points="36.3,-48.4 36.9,-45.0 37.7,-42.0 38.2,-39.4 38.9,-37.4 39.9,-34.5 41.2,-32.3 42.2,-29.8 42.9,-26.5 43.0,-25.8 42.7,-22.5 42.3,-22.1 42.0,-18.9 41.9,-17.7 42.3,-15.8 43.0,-15.2 44.0,-12.7 44.9,-11.3 45.8,-10.5 46.5,-8.1 46.9,-5.9 47.0,-4.4 47.1,-3.2 47.3,-1.3 47.6,0.8 48.2,1.1 48.9,4.4 49.8,5.1 50.6,6.8 51.3,8.2 52.2,11.8 53.1,13.5 54.2,14.5 55.1,16.5" fill="none" stroke="url(#rainbow_av_1779093954975_nyi2pq4s07d)" stroke-width="1.6170972465521423" stroke-linejoin="round" stroke-linecap="round" filter="url(#fuzzy_av_1779093954975_nyi2pq4s07d)" opacity="0.8261790446852497"/><polyline points="36.3,-50.5 36.7,-46.7 37.5,-44.3 37.9,-41.6 37.9,-37.6 37.8,-35.3 37.8,-32.1 37.9,-31.1 37.9,-29.3 37.9,-26.5 37.9,-23.7 37.8,-22.7 37.8,-19.6 37.8,-18.6 37.9,-17.9 38.1,-15.7 38.3,-13.4 38.5,-11.9 38.7,-10.9 38.9,-7.8 39.0,-7.5 39.2,-4.7 39.4,-3.0 39.7,-1.8 40.0,0.3 40.4,1.6 40.8,3.3 41.3,5.4 41.8,6.5 42.2,8.4 42.7,10.9 43.1,11.7 43.5,14.9 43.7,17.2 43.9,18.0 44.0,20.7 44.1,23.3 44.5,26.6" fill="none" stroke="url(#rainbow_av_1779093954975_nyi2pq4s07d)" stroke-width="0.9644882386763377" stroke-linejoin="round" stroke-linecap="round" filter="url(#fuzzy_av_1779093954975_nyi2pq4s07d)" opacity="0.9583263926156024"/><polyline points="36.3,-73.6 36.6,-68.9 36.9,-62.7 37.1,-58.0 37.4,-54.1 37.9,-49.9 38.6,-47.1 39.4,-43.5 40.4,-40.7 41.5,-37.2 42.8,-35.0 44.0,-31.6 45.0,-30.7 45.7,-27.0 46.1,-26.2 46.5,-24.0 46.9,-22.8 47.5,-20.9 48.2,-18.2 49.1,-16.8 50.0,-15.7 50.9,-13.4 51.9,-11.5 52.8,-9.5 53.2,-9.4 53.4,-6.8" fill="none" stroke="url(#rainbow_av_1779093954975_nyi2pq4s07d)" stroke-width="0.7201194483895175" stroke-linejoin="round" stroke-linecap="round" filter="url(#fuzzy_av_1779093954975_nyi2pq4s07d)" opacity="0.9666895482460214"/><polyline points="35.4,-76.4 36.0,-70.9 36.4,-66.4 36.7,-61.6 37.1,-55.2 37.4,-52.4 37.8,-47.7 38.0,-44.0 38.2,-41.3 38.4,-39.2 38.5,-36.3 38.7,-34.1 38.9,-32.0 39.1,-28.1 39.2,-26.9 39.4,-25.8 39.5,-22.4 39.6,-21.0 39.7,-19.4 39.8,-16.8 40.1,-15.9 40.3,-13.8 40.5,-12.5 40.7,-10.5 41.1,-8.9 41.5,-8.5" fill="none" stroke="url(#rainbow_av_1779093954975_nyi2pq4s07d)" stroke-width="1.6884387426963792" stroke-linejoin="round" stroke-linecap="round" filter="url(#fuzzy_av_1779093954975_nyi2pq4s07d)" opacity="0.8163039459418787"/><polyline points="19.0,-75.9 22.4,-76.4 25.7,-76.4 28.7,-74.3 31.0,-74.1 32.6,-71.4 33.4,-67.1 33.7,-63.2 33.7,-58.7 33.5,-54.6 33.3,-51.9 33.1,-46.3 33.0,-43.2 32.9,-39.8 32.8,-37.4 32.6,-34.9 32.4,-32.7 32.1,-29.6 31.7,-27.3 31.4,-26.2 31.1,-24.4 30.8,-22.0 30.4,-19.1 30.1,-17.6 29.7,-15.7 29.2,-14.5 28.7,-13.8 28.3,-12.2 27.9,-10.1 27.6,-8.4 27.4,-7.1 27.2,-5.7 27.0,-4.2 26.7,-2.1 26.3,0.4 25.9,2.0 25.5,3.3 25.3,5.4 25.0,6.9" fill="none" stroke="url(#rainbow_av_1779093954975_nyi2pq4s07d)" stroke-width="1.1031649523213312" stroke-linejoin="round" stroke-linecap="round" filter="url(#fuzzy_av_1779093954975_nyi2pq4s07d)" opacity="0.8692809367821132"/><polyline points="17.4,-75.9 21.0,-77.3 24.6,-76.4 27.9,-75.9 30.7,-75.4 33.0,-72.4 34.9,-69.6 36.2,-64.8 37.3,-62.0 38.1,-56.9 38.7,-53.2 39.0,-48.6 39.2,-44.8 39.3,-41.8 39.3,-38.8 39.3,-35.6 39.3,-33.4 39.5,-31.5 39.6,-29.0 39.8,-27.8 40.0,-24.0 40.2,-22.1 40.5,-21.8 40.9,-19.3 41.2,-17.4 41.5,-16.5 41.9,-15.1 42.2,-11.6 42.6,-10.6 42.9,-9.6 43.3,-7.5 43.7,-5.8 44.0,-5.4 44.4,-3.7 45.0,-0.6" fill="none" stroke="url(#rainbow_av_1779093954975_nyi2pq4s07d)" stroke-width="2.14325095987694" stroke-linejoin="round" stroke-linecap="round" filter="url(#fuzzy_av_1779093954975_nyi2pq4s07d)" opacity="0.792852812653416"/><polyline points="14.0,-75.6 17.8,-76.4 21.4,-76.5 25.4,-75.4 29.4,-74.6 32.9,-74.0 35.5,-72.9 37.1,-69.2 38.0,-65.6 38.6,-61.3 39.0,-58.0 39.5,-53.3 40.2,-49.9 41.0,-46.0 41.9,-43.4 42.9,-39.6 43.7,-36.8 44.3,-33.3 44.6,-31.4 44.7,-29.2 44.6,-27.0 44.4,-25.2 44.3,-23.2 44.5,-21.0 44.9,-19.3 45.6,-18.4 46.3,-15.9 47.1,-14.7 47.9,-12.6 48.8,-11.2 49.8,-10.3 51.0,-7.6 51.8,-7.1" fill="none" stroke="url(#rainbow_av_1779093954975_nyi2pq4s07d)" stroke-width="1.1737768328523428" stroke-linejoin="round" stroke-linecap="round" filter="url(#fuzzy_av_1779093954975_nyi2pq4s07d)" opacity="0.8935178624620653"/><polyline points="11.2,-75.6 14.2,-77.1 17.6,-76.2 21.4,-75.9 25.4,-75.7 29.3,-75.7 32.7,-75.1 35.3,-72.8 37.3,-69.6 38.7,-66.0 39.7,-60.9 40.6,-57.3 41.3,-54.6 42.1,-50.2 42.8,-46.8 43.5,-42.9 44.3,-40.4 45.2,-36.5 46.1,-34.1 46.9,-31.9 47.7,-30.3 48.6,-26.5 49.8,-25.0 51.4,-24.1" fill="none" stroke="url(#rainbow_av_1779093954975_nyi2pq4s07d)" stroke-width="2.3940380956483196" stroke-linejoin="round" stroke-linecap="round" filter="url(#fuzzy_av_1779093954975_nyi2pq4s07d)" opacity="0.7797465375610979"/><polyline points="4.5,-75.8 7.7,-77.2 11.1,-76.4 14.5,-75.8 17.9,-75.6 21.3,-76.1 24.7,-75.4 27.8,-74.6 30.6,-72.9 33.0,-70.8 34.7,-68.7 36.0,-64.8 37.0,-61.2 37.7,-57.3 38.3,-53.0 38.8,-49.7 39.2,-45.4 39.6,-42.3 40.0,-39.5 40.3,-36.7 40.7,-34.9 41.2,-31.1 41.7,-29.7 42.2,-27.8 42.7,-25.9 43.1,-23.5 43.4,-20.8 43.5,-18.8 43.6,-17.6 43.6,-16.6 43.6,-13.5 43.7,-11.8 43.9,-11.1 44.2,-8.7 44.6,-7.3 45.1,-5.7 45.7,-4.7 46.4,-2.3 47.0,-2.3" fill="none" stroke="url(#rainbow_av_1779093954975_nyi2pq4s07d)" stroke-width="0.9999003140950313" stroke-linejoin="round" stroke-linecap="round" filter="url(#fuzzy_av_1779093954975_nyi2pq4s07d)" opacity="0.7551046870241749"/><polyline points="3.2,-76.7 6.2,-76.8 9.3,-76.1 12.5,-75.8 15.8,-76.3 19.3,-76.1 22.8,-76.1 26.2,-75.4 29.3,-74.7 32.0,-71.9 34.2,-70.1 35.8,-67.9 36.9,-64.0 37.7,-58.9 38.2,-54.8 38.7,-52.2 39.0,-47.1 39.4,-44.3 39.9,-41.1 40.4,-37.6 40.9,-36.0 41.5,-33.7 42.1,-30.5 42.7,-28.8 43.3,-25.6 43.7,-25.0 44.0,-23.1 44.2,-19.7 44.2,-18.4 44.3,-17.5 44.5,-15.0 44.8,-12.9 45.3,-10.8 45.8,-10.4 46.3,-7.6 46.7,-7.3 46.8,-4.4" fill="none" stroke="url(#rainbow_av_1779093954975_nyi2pq4s07d)" stroke-width="2.5263452988084216" stroke-linejoin="round" stroke-linecap="round" filter="url(#fuzzy_av_1779093954975_nyi2pq4s07d)" opacity="0.9324553983736563"/><polyline points="3.2,-77.2 6.5,-75.3 9.9,-76.2 13.3,-76.7 16.5,-77.0 19.8,-75.8 23.2,-77.0 26.6,-76.3 29.9,-75.5 32.9,-73.6 35.5,-69.9 37.5,-66.8 39.1,-64.0 40.2,-59.1 40.9,-55.2 41.4,-52.6 41.6,-47.5 41.8,-45.0 42.0,-41.6 42.2,-38.6 42.4,-35.4 42.7,-32.5 43.0,-31.2 43.1,-28.6 43.3,-26.0 43.5,-25.0" fill="none" stroke="url(#rainbow_av_1779093954975_nyi2pq4s07d)" stroke-width="1.1363716533495398" stroke-linejoin="round" stroke-linecap="round" filter="url(#fuzzy_av_1779093954975_nyi2pq4s07d)" opacity="0.9626860980198988"/><polyline points="-12.7,-76.8 -9.6,-77.1 -6.5,-75.4 -3.5,-76.1 -0.4,-75.5 2.7,-75.6 5.9,-75.9 9.1,-75.7 12.3,-77.1 15.6,-76.1 19.0,-76.6 22.3,-75.3 25.6,-75.3 28.8,-73.7 31.6,-73.5 33.9,-70.2 35.8,-68.2 37.1,-64.1 37.9,-59.5 38.5,-56.1 39.0,-51.9 39.4,-48.3 39.9,-44.4 40.3,-42.4 40.8,-39.6 41.2,-35.6 41.5,-32.8 41.6,-31.2 41.5,-29.0 41.7,-25.6" fill="none" stroke="url(#rainbow_av_1779093954975_nyi2pq4s07d)" stroke-width="1.4064420929276737" stroke-linejoin="round" stroke-linecap="round" filter="url(#fuzzy_av_1779093954975_nyi2pq4s07d)" opacity="0.7829865938910923"/><polyline points="-18.9,-76.5 -16.0,-75.8 -13.0,-75.7 -10.0,-76.3 -6.9,-75.7 -3.8,-76.9 -0.7,-76.2 2.5,-75.3 5.8,-76.9 9.2,-76.7 12.7,-75.8 16.4,-75.5 20.1,-75.9 23.9,-76.5 27.8,-76.7 31.6,-75.0 35.2,-73.8 38.4,-72.5 41.0,-68.3 42.9,-65.3 44.0,-61.6 44.7,-57.5 45.3,-52.8 45.8,-48.9 46.1,-45.0" fill="none" stroke="url(#rainbow_av_1779093954975_nyi2pq4s07d)" stroke-width="1.4761953759197544" stroke-linejoin="round" stroke-linecap="round" filter="url(#fuzzy_av_1779093954975_nyi2pq4s07d)" opacity="0.8838933291467184"/><polyline points="-26.2,-75.7 -22.7,-77.2 -19.4,-76.3 -16.2,-75.8 -13.1,-77.0 -10.0,-76.0 -6.9,-75.6 -3.8,-75.7 -0.7,-76.6 2.3,-76.4 5.4,-75.4 8.5,-77.0 11.6,-75.7 14.8,-76.6 17.9,-75.8 21.1,-75.7 24.1,-75.9 26.9,-74.3 29.5,-71.5 31.6,-70.9 33.4,-66.6 34.6,-64.7 35.5,-60.5 36.1,-56.7 36.4,-51.9 36.5,-49.6 36.6,-45.4 36.6,-42.6 36.7,-38.5 36.7,-36.0 36.7,-32.6 36.7,-31.6 36.7,-29.5 36.8,-25.6 36.8,-24.7" fill="none" stroke="url(#rainbow_av_1779093954975_nyi2pq4s07d)" stroke-width="0.9868596416067126" stroke-linejoin="round" stroke-linecap="round" filter="url(#fuzzy_av_1779093954975_nyi2pq4s07d)" opacity="0.8811688727931368"/><polyline points="-27.9,-76.1 -24.4,-75.4 -21.0,-75.4 -17.8,-76.2 -14.7,-76.1 -11.5,-77.0 -8.4,-76.6 -5.4,-76.7 -2.3,-76.1 0.8,-76.1 3.8,-76.5 6.9,-76.9 10.1,-75.9 13.3,-76.7 16.5,-77.1 19.7,-75.6 23.0,-75.1 26.1,-74.2 29.0,-73.3 31.6,-72.0 33.7,-69.3 35.4,-67.1 36.5,-62.8 37.2,-59.8 37.6,-54.8 37.9,-51.4 38.1,-46.7 38.3,-44.3 38.5,-40.9 38.6,-36.9 38.8,-34.6" fill="none" stroke="url(#rainbow_av_1779093954975_nyi2pq4s07d)" stroke-width="0.8763564650676455" stroke-linejoin="round" stroke-linecap="round" filter="url(#fuzzy_av_1779093954975_nyi2pq4s07d)" opacity="0.7898774941851263"/><polyline points="-35.5,-76.9 -31.7,-76.0 -28.2,-76.9 -24.8,-75.8 -21.5,-75.5 -18.4,-76.1 -15.2,-76.3 -12.1,-76.1 -9.1,-75.7 -6.0,-75.6 -2.9,-75.8 0.1,-76.7 3.2,-75.7 6.3,-75.8 9.4,-77.2 12.5,-75.7 15.7,-75.8 19.0,-77.0 22.4,-76.6 25.9,-76.7 29.4,-75.6 32.8,-74.8 35.9,-73.3 37.7,-70.2" fill="none" stroke="url(#rainbow_av_1779093954975_nyi2pq4s07d)" stroke-width="1.5566995935928476" stroke-linejoin="round" stroke-linecap="round" filter="url(#fuzzy_av_1779093954975_nyi2pq4s07d)" opacity="0.8853289763758097"/><polyline points="-36.2,-60.0 -36.3,-64.3 -35.8,-69.7 -34.4,-71.8 -32.2,-74.5 -29.5,-76.0 -26.4,-75.7 -23.1,-77.0 -19.7,-75.7 -16.3,-76.9 -12.9,-76.0 -9.5,-76.9 -6.1,-76.8 -2.7,-76.1 0.7,-76.2 4.2,-77.1 7.8,-77.1 11.5,-76.6 15.5,-76.4 19.6,-77.0 23.9,-76.1 28.2,-76.4 32.5,-75.5 36.6,-74.6 40.1,-71.1 42.9,-69.5 45.0,-67.0 46.4,-63.3 47.2,-58.1 47.8,-54.0 48.4,-51.6 49.2,-46.6 50.1,-43.1 51.1,-40.3 52.0,-36.6 52.8,-34.2 53.5,-31.9" fill="none" stroke="url(#rainbow_av_1779093954975_nyi2pq4s07d)" stroke-width="1.9537993795869169" stroke-linejoin="round" stroke-linecap="round" filter="url(#fuzzy_av_1779093954975_nyi2pq4s07d)" opacity="0.8072791062607358"/><polyline points="-36.2,-52.0 -36.9,-58.0 -36.9,-62.4 -36.3,-66.7 -35.1,-70.6 -33.4,-72.7 -31.2,-74.7 -28.6,-74.7 -25.7,-75.4 -22.5,-75.3 -19.1,-76.0 -15.6,-76.7 -12.1,-75.8 -8.6,-75.5 -5.0,-75.5 -1.4,-75.9 2.3,-75.4 6.1,-76.5 9.9,-75.9 13.9,-75.3 17.9,-76.2 22.1,-76.5 26.4,-75.8 30.7,-75.2 35.0,-74.8 39.1,-73.9 42.9,-72.1 46.1,-68.9 48.6,-66.7 50.3,-61.7 51.4,-57.4 52.1,-52.2 52.4,-48.9 52.8,-44.3" fill="none" stroke="url(#rainbow_av_1779093954975_nyi2pq4s07d)" stroke-width="0.9813177065167287" stroke-linejoin="round" stroke-linecap="round" filter="url(#fuzzy_av_1779093954975_nyi2pq4s07d)" opacity="0.983307000431378"/><polyline points="-36.2,-45.0 -36.5,-48.5 -37.1,-53.4 -37.4,-56.7 -37.0,-61.5 -36.2,-65.2 -34.9,-68.7 -33.1,-72.5 -30.7,-73.0 -27.9,-74.4 -24.7,-74.6 -21.4,-76.3 -18.1,-76.6 -14.8,-77.0 -11.5,-77.1 -8.2,-75.6 -4.8,-75.8 -1.3,-76.1 2.3,-76.4 6.1,-76.5 10.0,-75.7 14.0,-77.1 18.3,-76.8 22.7,-77.0 27.1,-75.0 31.6,-74.5 35.9,-75.1 39.9,-73.0 43.3,-71.6 46.1,-68.6 48.1,-64.8 49.7,-60.7 50.8,-57.3 51.7,-53.5 52.6,-48.2 53.5,-45.5 54.6,-40.7" fill="none" stroke="url(#rainbow_av_1779093954975_nyi2pq4s07d)" stroke-width="1.4640082526339895" stroke-linejoin="round" stroke-linecap="round" filter="url(#fuzzy_av_1779093954975_nyi2pq4s07d)" opacity="0.9283311015858747"/><polyline points="-36.2,-42.5 -35.9,-45.9 -35.6,-48.8 -35.3,-51.9 -34.9,-56.4 -34.4,-62.4 -33.5,-64.5 -32.3,-69.8 -30.5,-72.0 -28.2,-74.0 -25.5,-74.0 -22.5,-76.4 -19.3,-76.1 -16.2,-76.2 -13.0,-76.6 -10.0,-76.2 -7.0,-75.4 -4.2,-76.4 -1.4,-76.4 1.3,-77.3 4.0,-76.9 6.6,-76.9 9.3,-76.2 11.8,-76.9 14.4,-76.6 16.8,-76.6 19.0,-75.3 21.1,-76.1 22.9,-74.0 24.4,-73.3 25.6,-69.2 26.5,-65.6 26.8,-61.1 26.8,-56.6 26.4,-53.5" fill="none" stroke="url(#rainbow_av_1779093954975_nyi2pq4s07d)" stroke-width="1.1903424059959593" stroke-linejoin="round" stroke-linecap="round" filter="url(#fuzzy_av_1779093954975_nyi2pq4s07d)" opacity="0.7517585059875005"/><polyline points="-36.2,-34.6 -36.3,-36.7 -36.3,-40.8 -36.3,-44.1 -36.3,-46.2 -36.4,-51.2 -36.3,-55.8 -36.1,-58.7 -35.6,-64.0 -34.5,-66.5 -32.9,-68.8 -30.8,-73.0 -28.3,-74.2 -25.4,-74.0 -22.3,-74.8 -19.1,-76.0 -15.9,-76.8 -12.7,-76.1 -9.5,-76.9 -6.4,-75.5 -3.2,-77.2 -0.1,-75.7 3.1,-76.2 6.3,-75.6 9.5,-75.4 12.8,-75.9 16.1,-77.1 19.5,-75.7 22.9,-75.0 26.2,-75.3 29.4,-75.0 32.3,-73.7 34.7,-70.5 36.5,-67.6 37.7,-63.5 38.3,-60.1 38.6,-53.8 38.7,-50.7 38.8,-47.5" fill="none" stroke="url(#rainbow_av_1779093954975_nyi2pq4s07d)" stroke-width="0.7198521568194137" stroke-linejoin="round" stroke-linecap="round" filter="url(#fuzzy_av_1779093954975_nyi2pq4s07d)" opacity="0.910952310934376"/><polyline points="-36.2,-30.0 -36.3,-32.2 -36.3,-34.3 -36.3,-37.9 -36.3,-40.1 -36.3,-44.0 -36.3,-47.7 -36.2,-50.0 -36.0,-54.1 -35.7,-59.3 -35.0,-62.4 -33.9,-67.2 -32.4,-70.1 -30.4,-72.5 -28.0,-73.7 -25.2,-74.8 -22.3,-74.6 -19.2,-76.0 -16.0,-76.6 -12.8,-77.0 -9.7,-75.4 -6.6,-75.4 -3.5,-76.8 -0.4,-75.8 2.7,-76.2 5.8,-75.8 8.9,-75.3 12.1,-75.5 15.3,-77.0 18.5,-76.3 21.8,-76.9 25.2,-76.0 28.5,-76.2 31.7,-74.7 34.4,-72.3 36.2,-70.3 36.8,-65.3" fill="none" stroke="url(#rainbow_av_1779093954975_nyi2pq4s07d)" stroke-width="1.6434979520094957" stroke-linejoin="round" stroke-linecap="round" filter="url(#fuzzy_av_1779093954975_nyi2pq4s07d)" opacity="0.8320629568374205"/><polyline points="-36.2,-26.9 -36.1,-25.1 -36.0,-22.5 -35.8,-21.0 -35.5,-18.9 -35.1,-17.9 -34.8,-15.3 -34.4,-13.9 -34.0,-13.4 -33.6,-10.7 -33.2,-9.0 -32.8,-7.3 -32.3,-5.2 -31.8,-5.0 -31.3,-2.6 -30.7,-0.7 -30.1,-0.4 -29.6,2.2 -29.2,3.3 -28.8,5.4 -28.5,6.6 -28.0,8.3 -27.5,10.1 -26.8,13.6 -26.0,14.7 -25.2,17.0 -24.6,19.7 -24.1,21.6 -23.2,24.4" fill="none" stroke="url(#rainbow_av_1779093954975_nyi2pq4s07d)" stroke-width="2.103979361385182" stroke-linejoin="round" stroke-linecap="round" filter="url(#fuzzy_av_1779093954975_nyi2pq4s07d)" opacity="0.8843284428705995"/><polyline points="-36.2,-23.3 -36.2,-20.9 -36.2,-19.4 -36.1,-19.0 -36.0,-16.5 -35.9,-15.8 -35.8,-12.9 -35.7,-11.2 -35.6,-10.3 -35.5,-8.5 -35.4,-7.7 -35.3,-4.8 -35.1,-4.3 -34.9,-2.9 -34.7,-0.8 -34.5,0.9 -34.3,2.1 -34.0,4.1 -33.8,6.1 -33.7,7.8 -33.5,9.8 -33.3,12.6 -33.1,14.8 -32.9,15.9 -32.6,18.6" fill="none" stroke="url(#rainbow_av_1779093954975_nyi2pq4s07d)" stroke-width="1.401501412941516" stroke-linejoin="round" stroke-linecap="round" filter="url(#fuzzy_av_1779093954975_nyi2pq4s07d)" opacity="0.8809806284260089"/><polyline points="-36.2,-24.2 -36.3,-22.3 -36.3,-18.9 -36.4,-18.9 -36.4,-16.4 -36.5,-14.2 -36.6,-12.9 -36.7,-12.1 -36.7,-10.0 -36.7,-8.7 -36.7,-7.3 -36.7,-5.4 -36.7,-2.5 -36.7,-2.4 -36.7,0.3 -36.7,1.4 -36.7,2.4 -36.8,5.5 -36.8,7.2 -36.9,9.7 -36.9,11.2 -36.9,12.8 -37.0,16.0 -37.0,17.4 -37.0,20.6 -37.0,22.4 -37.0,24.9 -37.0,27.4 -37.1,31.7 -37.1,33.8 -37.1,39.2 -37.1,42.8 -37.1,46.5 -36.8,51.6 -36.1,55.0 -34.7,59.3 -32.3,61.6 -29.0,62.5" fill="none" stroke="url(#rainbow_av_1779093954975_nyi2pq4s07d)" stroke-width="0.7258528895699319" stroke-linejoin="round" stroke-linecap="round" filter="url(#fuzzy_av_1779093954975_nyi2pq4s07d)" opacity="0.8237918365403454"/><polyline points="-36.2,-21.5 -37.0,-19.6 -36.9,-16.3 -36.7,-14.8 -36.7,-13.7 -36.8,-12.9 -37.0,-9.8 -37.1,-8.5 -37.2,-8.4 -37.2,-5.7 -37.2,-5.1 -37.2,-2.2 -37.3,-1.1 -37.4,1.0 -37.6,3.0 -37.8,5.1 -38.0,5.6 -38.2,8.0 -38.5,9.0 -38.7,12.3 -39.0,13.9 -39.3,16.6 -39.5,18.7 -39.8,19.8 -40.0,22.1 -40.2,24.9 -40.4,28.0 -40.6,31.5 -40.9,34.8 -41.2,39.7 -41.5,43.3 -41.9,47.6" fill="none" stroke="url(#rainbow_av_1779093954975_nyi2pq4s07d)" stroke-width="1.1078733692594718" stroke-linejoin="round" stroke-linecap="round" filter="url(#fuzzy_av_1779093954975_nyi2pq4s07d)" opacity="0.7848112806393909"/><polyline points="-36.2,-20.6 -36.3,-19.0 -36.3,-18.0 -36.4,-16.4 -36.4,-13.6 -36.5,-13.1 -36.5,-10.4 -36.6,-8.6 -36.7,-7.8 -36.7,-5.5 -36.8,-3.3 -36.9,-2.7 -37.0,-0.7 -37.0,0.1 -37.1,3.2 -37.1,3.6 -37.1,5.4 -37.1,7.6 -37.1,9.1 -37.1,12.3 -37.2,14.3 -37.2,16.3 -37.3,18.9 -37.3,21.5 -37.3,24.7 -37.3,25.7 -37.4,29.4 -37.4,32.9 -37.4,36.9 -37.4,39.9 -37.3,44.0 -37.0,48.7 -36.4,52.4 -35.2,57.7 -33.4,59.2 -30.6,61.7 -27.3,62.0 -23.7,62.4" fill="none" stroke="url(#rainbow_av_1779093954975_nyi2pq4s07d)" stroke-width="2.340033970804355" stroke-linejoin="round" stroke-linecap="round" filter="url(#fuzzy_av_1779093954975_nyi2pq4s07d)" opacity="0.9475222351018917"/><polyline points="-36.2,-17.3 -37.8,-14.6 -38.9,-12.8 -39.2,-11.9 -39.6,-9.6 -40.3,-8.7 -41.0,-6.7 -41.6,-6.0 -42.2,-3.5 -42.8,-1.8 -43.5,-1.7 -44.1,1.5 -44.5,2.0 -44.7,3.6 -44.7,6.5 -44.7,8.0 -44.6,10.3 -44.7,12.3 -44.8,14.5 -45.0,16.4 -45.3,18.6 -45.6,20.3 -45.9,23.8 -46.3,26.2 -46.8,29.6 -47.3,32.7 -47.8,37.5 -48.4,39.6 -48.8,45.5 -49.0,48.4 -48.8,53.0 -47.9,58.0 -46.1,60.9 -42.9,62.5 -38.9,63.0" fill="none" stroke="url(#rainbow_av_1779093954975_nyi2pq4s07d)" stroke-width="1.8389344893824342" stroke-linejoin="round" stroke-linecap="round" filter="url(#fuzzy_av_1779093954975_nyi2pq4s07d)" opacity="0.7810462007241163"/><polyline points="-36.2,-15.1 -38.8,-15.4 -38.7,-13.7 -38.1,-10.4 -37.9,-10.5 -38.3,-8.8 -39.3,-6.1 -40.8,-5.7 -42.4,-3.3 -43.8,-1.5 -44.8,-0.5 -45.6,2.3 -46.0,3.8 -46.4,4.0 -46.6,6.4 -46.9,8.8 -47.4,10.7 -48.1,13.2 -48.8,15.1 -49.5,17.1 -50.3,19.7 -51.4,21.9 -52.8,23.7 -53.9,26.3 -53.8,28.4" fill="none" stroke="url(#rainbow_av_1779093954975_nyi2pq4s07d)" stroke-width="1.5012750936955892" stroke-linejoin="round" stroke-linecap="round" filter="url(#fuzzy_av_1779093954975_nyi2pq4s07d)" opacity="0.8796855830416568"/><polyline points="-36.2,-12.0 -36.3,-11.3 -36.4,-8.4 -36.6,-8.0 -36.9,-6.1 -37.4,-3.4 -37.9,-2.3 -38.4,-1.5 -38.9,0.3 -39.5,1.6 -40.3,4.6 -41.3,5.3 -42.3,8.2 -43.2,10.1 -44.0,10.9 -44.6,13.1 -45.2,16.1 -45.8,17.0 -46.5,20.5 -47.3,22.7 -48.1,25.3 -49.0,27.3 -49.9,30.8 -51.3,34.4" fill="none" stroke="url(#rainbow_av_1779093954975_nyi2pq4s07d)" stroke-width="1.6092932374871713" stroke-linejoin="round" stroke-linecap="round" filter="url(#fuzzy_av_1779093954975_nyi2pq4s07d)" opacity="0.9954208470416794"/><polyline points="-36.2,-9.5 -37.0,-8.3 -38.5,-7.8 -39.4,-4.8 -39.5,-4.2 -39.2,-1.6 -39.0,0.0 -39.0,1.8 -39.3,3.5 -39.7,4.8 -40.1,6.3 -40.4,7.5 -40.5,10.8 -40.6,12.1 -40.5,15.2 -40.5,17.2 -40.5,18.7 -40.6,21.1 -40.9,24.2 -41.3,27.3 -41.8,30.4 -42.4,33.9 -43.1,38.2 -43.5,40.6 -43.8,46.3 -43.5,49.0 -42.6,53.2 -40.9,56.7 -38.7,59.0 -35.8,59.5 -32.5,61.9 -28.8,61.7 -24.9,62.5 -20.8,62.9 -16.6,62.7 -12.5,63.1 -8.4,62.4 -4.3,62.1" fill="none" stroke="url(#rainbow_av_1779093954975_nyi2pq4s07d)" stroke-width="1.0020499774868257" stroke-linejoin="round" stroke-linecap="round" filter="url(#fuzzy_av_1779093954975_nyi2pq4s07d)" opacity="0.8044036191926613"/><polyline points="-36.2,-2.9 -36.4,-1.3 -36.9,-0.1 -37.6,1.4 -37.9,3.8 -38.0,5.4 -37.8,7.2 -37.7,8.9 -37.7,11.7 -37.9,13.1 -38.2,14.6 -38.7,18.0 -39.2,20.9 -39.8,22.0 -40.3,26.4 -40.9,27.9 -41.6,32.3 -42.3,35.8 -43.0,38.8 -43.5,42.8 -43.7,48.1 -43.4,51.2 -42.4,54.8 -40.7,57.8 -38.3,59.3 -35.2,60.6 -31.6,62.5 -27.7,62.0 -23.8,61.9 -19.8,61.7 -15.8,62.4" fill="none" stroke="url(#rainbow_av_1779093954975_nyi2pq4s07d)" stroke-width="1.7768174488880004" stroke-linejoin="round" stroke-linecap="round" filter="url(#fuzzy_av_1779093954975_nyi2pq4s07d)" opacity="0.968685571369226"/><polyline points="-36.2,-1.4 -39.3,-0.7 -39.0,1.8 -38.8,2.7 -39.3,5.0 -40.1,6.2 -41.0,7.4 -41.7,10.9 -42.2,11.2 -42.5,14.0 -42.6,15.4 -42.6,18.7 -42.8,20.8 -43.2,24.0 -43.8,25.8 -44.6,30.1 -45.6,32.2 -46.8,36.0 -48.1,40.2 -49.4,44.5 -50.6,49.8 -51.6,54.0 -52.0,59.0" fill="none" stroke="url(#rainbow_av_1779093954975_nyi2pq4s07d)" stroke-width="2.1062858316779627" stroke-linejoin="round" stroke-linecap="round" filter="url(#fuzzy_av_1779093954975_nyi2pq4s07d)" opacity="0.851580624448361"/><polyline points="-36.2,0.4 -39.6,1.9 -39.2,4.7 -38.8,5.3 -38.9,6.7 -39.5,9.2 -40.5,11.4 -41.4,13.1 -42.0,16.0 -42.1,16.6 -42.0,19.5 -41.7,22.0 -41.5,25.3 -41.5,27.3 -42.0,31.6 -42.6,34.9 -43.4,37.5 -44.1,42.1 -44.7,47.4 -45.2,51.7 -45.3,56.3 -44.6,60.5 -42.0,62.9" fill="none" stroke="url(#rainbow_av_1779093954975_nyi2pq4s07d)" stroke-width="1.8345321191075399" stroke-linejoin="round" stroke-linecap="round" filter="url(#fuzzy_av_1779093954975_nyi2pq4s07d)" opacity="0.9799526742607099"/><polyline points="-36.2,1.8 -36.3,3.5 -36.4,5.9 -36.7,7.0 -37.1,10.2 -37.4,11.7 -37.6,13.0 -37.8,16.5 -37.8,17.5 -37.8,19.3 -37.9,23.7 -37.9,26.3 -38.0,28.7 -38.2,32.1 -38.4,34.7 -38.6,38.8 -38.7,42.8 -38.6,47.5 -38.1,51.7 -37.2,55.4 -35.7,58.4 -33.4,61.6 -30.5,61.5 -27.0,63.2 -23.4,61.3" fill="none" stroke="url(#rainbow_av_1779093954975_nyi2pq4s07d)" stroke-width="2.2268714412408537" stroke-linejoin="round" stroke-linecap="round" filter="url(#fuzzy_av_1779093954975_nyi2pq4s07d)" opacity="0.9534684978521741"/><polyline points="-36.2,1.6 -36.4,3.0 -36.5,6.0 -36.6,8.2 -36.8,8.9 -37.0,11.6 -37.2,14.2 -37.4,15.6 -37.5,18.6 -37.6,19.5 -37.7,22.1 -37.8,26.4 -37.8,29.2 -37.9,32.7 -37.9,35.3 -38.0,39.3 -38.0,42.7 -37.8,48.5 -37.4,51.3 -36.6,54.9 -35.1,58.4 -33.0,60.0 -30.1,62.7 -26.6,61.2 -23.0,62.2 -19.2,62.7" fill="none" stroke="url(#rainbow_av_1779093954975_nyi2pq4s07d)" stroke-width="1.805196716824597" stroke-linejoin="round" stroke-linecap="round" filter="url(#fuzzy_av_1779093954975_nyi2pq4s07d)" opacity="0.820106880934384"/><polyline points="-36.2,4.8 -36.6,6.4 -36.8,8.5 -36.9,10.4 -37.0,13.2 -37.2,14.7 -37.3,16.2 -37.4,19.8 -37.5,22.5 -37.6,24.4 -37.7,26.9 -37.9,30.5 -38.0,33.8 -38.0,38.9 -37.9,41.7 -37.5,46.4 -36.8,49.3 -35.7,54.1 -34.1,56.7 -32.0,58.5 -29.4,59.6 -26.4,60.3 -23.2,62.4 -19.9,63.1 -16.6,62.5 -13.2,61.3 -9.9,61.3 -6.5,62.2 -3.2,63.1 0.1,62.8 3.6,63.2" fill="none" stroke="url(#rainbow_av_1779093954975_nyi2pq4s07d)" stroke-width="0.8874896250661077" stroke-linejoin="round" stroke-linecap="round" filter="url(#fuzzy_av_1779093954975_nyi2pq4s07d)" opacity="0.8853340615028817"/><polyline points="-36.2,6.6 -39.0,8.0 -40.2,10.1 -40.4,11.4 -40.0,13.0 -39.5,16.6 -39.3,17.7 -39.4,20.0 -39.8,23.0 -40.2,26.4 -40.6,29.7 -40.9,32.3 -41.2,35.9 -41.5,40.5 -41.9,43.1 -42.2,47.9 -42.1,51.7 -41.4,55.3 -40.0,57.6 -37.7,60.6 -34.7,60.8 -31.2,62.5 -27.4,62.2 -23.5,61.3 -19.4,63.0 -15.4,63.1 -11.4,62.8" fill="none" stroke="url(#rainbow_av_1779093954975_nyi2pq4s07d)" stroke-width="0.8593175919855629" stroke-linejoin="round" stroke-linecap="round" filter="url(#fuzzy_av_1779093954975_nyi2pq4s07d)" opacity="0.8666110138483519"/><polyline points="-36.2,5.1 -35.0,7.8 -32.0,8.6 -30.3,11.2 -30.4,14.2 -31.4,15.3 -32.2,17.4 -32.5,19.4 -32.2,23.7 -31.6,26.5 -30.6,28.3 -29.2,32.6 -27.4,36.2 -25.2,38.5 -22.6,42.6 -19.7,48.5 -16.8,50.8 -14.0,55.6 -11.6,58.8 -9.6,61.6 -8.0,62.5 -6.5,63.2 -5.1,61.6 -3.8,61.5" fill="none" stroke="url(#rainbow_av_1779093954975_nyi2pq4s07d)" stroke-width="1.7891478377319738" stroke-linejoin="round" stroke-linecap="round" filter="url(#fuzzy_av_1779093954975_nyi2pq4s07d)" opacity="0.9203770722531969"/><polyline points="-36.2,7.6 -36.5,8.7 -37.1,11.1 -38.0,13.5 -38.8,15.0 -39.4,18.6 -39.5,19.8 -39.3,22.7 -39.0,25.0 -38.8,29.3 -38.8,31.4 -38.8,35.7 -39.0,40.0 -39.0,43.4 -38.9,47.3 -38.5,51.7 -37.6,55.3 -36.0,57.5 -33.8,59.6 -30.9,62.0 -27.5,62.6 -23.9,61.7 -20.3,61.5 -16.9,62.6 -13.6,61.6" fill="none" stroke="url(#rainbow_av_1779093954975_nyi2pq4s07d)" stroke-width="1.9919288138739537" stroke-linejoin="round" stroke-linecap="round" filter="url(#fuzzy_av_1779093954975_nyi2pq4s07d)" opacity="0.9456084891280843"/><polyline points="-36.2,7.0 -36.3,10.3 -36.5,11.9 -36.6,12.9 -36.8,15.9 -37.0,18.5 -37.3,19.5 -37.7,24.1 -38.1,25.9 -38.7,29.6 -39.2,33.3 -39.8,36.2 -40.3,40.5 -40.7,43.7 -40.8,47.8 -40.5,51.5 -39.6,54.7 -38.0,57.8 -35.5,60.2 -32.4,60.4 -28.7,60.9 -24.8,62.5 -20.9,62.6 -17.2,63.1 -13.6,62.3 -10.0,63.1 -6.2,61.8 -2.2,62.0" fill="none" stroke="url(#rainbow_av_1779093954975_nyi2pq4s07d)" stroke-width="1.5066490581585388" stroke-linejoin="round" stroke-linecap="round" filter="url(#fuzzy_av_1779093954975_nyi2pq4s07d)" opacity="0.9867217308254878"/><polyline points="-36.2,10.1 -36.3,12.8 -36.6,14.0 -36.8,17.7 -36.9,18.2 -37.0,22.2 -37.2,23.8 -37.7,26.9 -38.3,31.5 -39.0,35.2 -39.6,37.3 -39.9,42.1 -40.0,46.6 -39.7,49.3 -39.0,54.0 -37.8,56.0 -35.9,59.1 -33.5,60.3 -30.6,62.1 -27.3,62.5 -23.7,61.2 -19.9,61.4 -15.9,63.0 -11.9,62.1 -7.9,62.8 -3.9,62.9 0.2,63.1 4.5,61.4" fill="none" stroke="url(#rainbow_av_1779093954975_nyi2pq4s07d)" stroke-width="1.4489080527335447" stroke-linejoin="round" stroke-linecap="round" filter="url(#fuzzy_av_1779093954975_nyi2pq4s07d)" opacity="0.8432747670264877"/><polyline points="-36.2,11.1 -37.2,14.4 -38.0,16.1 -38.1,18.0 -38.1,20.4 -38.0,24.2 -37.9,26.5 -37.8,28.7 -37.8,32.7 -37.8,35.5 -37.8,39.4 -37.7,44.4 -37.5,48.6 -36.8,52.9 -35.7,55.5 -34.0,58.0 -31.6,59.4 -28.8,61.1 -25.5,62.4 -22.0,62.4 -18.4,62.1 -14.9,62.5 -11.4,62.8 -8.0,63.1 -4.5,62.0 -1.0,62.3 2.6,62.8 6.3,61.6 10.1,61.3 14.0,62.8 18.0,62.4 22.0,62.2" fill="none" stroke="url(#rainbow_av_1779093954975_nyi2pq4s07d)" stroke-width="1.8362917016889417" stroke-linejoin="round" stroke-linecap="round" filter="url(#fuzzy_av_1779093954975_nyi2pq4s07d)" opacity="0.9219161474717025"/><polyline points="-36.2,12.6 -36.3,14.9 -36.4,17.3 -36.6,19.6 -37.0,24.1 -37.5,26.8 -38.1,28.4 -38.7,31.8 -39.4,35.3 -40.0,39.8 -40.5,44.4 -40.7,48.8 -40.3,52.7 -39.2,54.6 -37.2,58.0 -34.6,60.8 -31.5,61.8 -28.2,61.2 -24.8,62.1 -21.5,62.1 -18.0,61.7 -14.4,63.1 -10.5,61.8 -6.3,61.9 -2.1,62.3 2.1,62.6" fill="none" stroke="url(#rainbow_av_1779093954975_nyi2pq4s07d)" stroke-width="1.840801556175146" stroke-linejoin="round" stroke-linecap="round" filter="url(#fuzzy_av_1779093954975_nyi2pq4s07d)" opacity="0.976591114587444"/><polyline points="-36.2,16.3 -37.5,18.9 -37.9,22.6 -38.2,23.8 -38.6,28.0 -39.3,31.4 -40.0,35.4 -40.5,37.8 -40.6,42.4 -40.0,46.2 -38.8,50.0 -37.1,53.5 -34.9,56.7 -32.4,58.5 -29.7,60.9 -26.8,60.8 -23.8,62.4 -20.6,61.8 -17.3,62.5 -13.8,63.0 -10.2,62.0 -6.4,62.1 -2.6,61.5 1.2,63.0 5.2,61.6 9.2,62.6 13.2,62.0 17.4,62.3 21.5,62.7 25.7,63.0 30.1,62.2 35.2,62.2" fill="none" stroke="url(#rainbow_av_1779093954975_nyi2pq4s07d)" stroke-width="2.143697551828965" stroke-linejoin="round" stroke-linecap="round" filter="url(#fuzzy_av_1779093954975_nyi2pq4s07d)" opacity="0.7706310120041548"/><polyline points="-36.2,16.5 -36.7,19.8 -37.2,21.7 -37.5,24.5 -37.8,27.5 -38.0,31.3 -38.2,35.0 -38.2,37.4 -38.2,42.8 -38.1,45.9 -37.7,51.3 -36.8,53.5 -35.4,56.7 -33.3,59.3 -30.7,59.9 -27.6,61.7 -24.4,61.4 -21.0,62.4 -17.5,62.7 -14.1,62.5 -10.6,62.2 -7.1,61.5 -3.5,63.2 0.1,61.5 4.0,61.5" fill="none" stroke="url(#rainbow_av_1779093954975_nyi2pq4s07d)" stroke-width="1.87852357551292" stroke-linejoin="round" stroke-linecap="round" filter="url(#fuzzy_av_1779093954975_nyi2pq4s07d)" opacity="0.8306148392604806"/><polyline points="-36.2,17.8 -36.4,19.8 -36.4,23.8 -36.5,26.2 -36.6,28.6 -36.6,33.6 -36.5,36.9 -36.5,40.2 -36.3,44.9 -35.8,47.9 -34.9,52.9 -33.6,55.3 -31.7,57.3 -29.3,60.4 -26.5,61.8 -23.5,62.4 -20.3,61.8 -17.0,62.5 -13.8,61.7 -10.6,62.9 -7.4,62.3 -4.3,61.9 -1.2,62.4 1.9,63.1 5.0,61.5 8.2,63.2 11.4,62.3" fill="none" stroke="url(#rainbow_av_1779093954975_nyi2pq4s07d)" stroke-width="2.005250042612799" stroke-linejoin="round" stroke-linecap="round" filter="url(#fuzzy_av_1779093954975_nyi2pq4s07d)" opacity="0.9803673854195707"/><polyline points="-36.2,23.2 -36.2,27.0 -36.2,29.2 -36.2,33.6 -36.2,36.8 -36.1,40.7 -35.8,44.6 -35.2,49.1 -34.2,52.5 -32.6,55.3 -30.6,58.9 -28.1,60.2 -25.3,61.0 -22.2,60.8 -19.1,61.2 -16.0,62.1 -12.8,63.0 -9.7,62.8 -6.6,62.9 -3.6,61.4 -0.5,62.7 2.5,62.3 5.6,63.1 8.6,62.2 11.8,62.0 14.9,61.9 18.1,61.8 21.4,61.6 24.7,62.7 28.2,61.9 31.7,62.1 35.3,62.3" fill="none" stroke="url(#rainbow_av_1779093954975_nyi2pq4s07d)" stroke-width="1.6328012188527068" stroke-linejoin="round" stroke-linecap="round" filter="url(#fuzzy_av_1779093954975_nyi2pq4s07d)" opacity="0.7937697414449695"/><polyline points="-36.2,28.0 -36.4,30.9 -37.1,34.7 -38.1,37.8 -39.1,44.0 -39.6,46.6 -39.2,51.4 -37.8,55.7 -35.5,58.6 -32.7,60.4 -29.5,61.7 -26.2,60.7 -22.9,61.6 -19.4,62.4 -16.0,62.8 -12.5,61.5 -8.9,61.8 -5.3,61.6 -1.6,61.6 2.2,62.4 6.1,62.9 10.2,61.4 14.4,62.6 18.7,62.2 23.0,61.2 27.5,62.1 31.9,62.0 36.1,60.8 40.1,61.0 43.5,57.9 46.2,56.2 48.3,53.2 49.7,47.0 50.9,43.7 52.4,39.2" fill="none" stroke="url(#rainbow_av_1779093954975_nyi2pq4s07d)" stroke-width="1.0862392272676413" stroke-linejoin="round" stroke-linecap="round" filter="url(#fuzzy_av_1779093954975_nyi2pq4s07d)" opacity="0.8288248233623522"/><polyline points="-36.2,35.5 -36.3,40.8 -36.5,45.8 -36.6,49.8 -36.0,53.7 -34.5,57.4 -32.2,59.3 -29.4,60.5 -26.2,61.3 -22.9,62.2 -19.6,61.8 -16.4,62.3 -13.2,62.5 -10.0,61.8 -6.9,61.8 -3.7,62.1 -0.5,62.9 2.7,62.6 6.0,63.1 9.3,62.5 12.7,62.2 16.2,62.5 19.8,61.4 23.5,61.4 27.4,62.2" fill="none" stroke="url(#rainbow_av_1779093954975_nyi2pq4s07d)" stroke-width="0.95232523651881" stroke-linejoin="round" stroke-linecap="round" filter="url(#fuzzy_av_1779093954975_nyi2pq4s07d)" opacity="0.9543587408552969"/><polyline points="-36.2,38.9 -36.7,43.6 -36.5,47.2 -35.7,52.0 -34.3,57.1 -32.3,58.0 -29.8,60.9 -26.9,61.0 -23.9,60.9 -20.7,61.6 -17.6,61.5 -14.4,62.1 -11.3,62.8 -8.1,61.8 -4.9,61.4 -1.8,62.7 1.4,62.6 4.6,61.3 7.8,62.9 11.1,62.3 14.4,62.4 17.8,61.6 21.3,62.8 24.9,62.7 28.6,61.8 32.1,61.4 35.4,60.7 38.1,57.9 39.3,54.5" fill="none" stroke="url(#rainbow_av_1779093954975_nyi2pq4s07d)" stroke-width="1.0287984400396994" stroke-linejoin="round" stroke-linecap="round" filter="url(#fuzzy_av_1779093954975_nyi2pq4s07d)" opacity="0.7581713802031873"/></g><circle r="2.048871187405954" cx="-5.308341286546066" cy="7.759302705220477" stroke="#111" fill="none" stroke-width="1.0123278059088332" filter="url(#fuzzy_av_1779093954975_nyi2pq4s07d)"/><circle r="1.3982128838388665" cx="-6.371762199124761" cy="9.32210330155458" stroke="#111" fill="none" stroke-width="1.1926724437825917" filter="url(#fuzzy_av_1779093954975_nyi2pq4s07d)"/><circle r="2.3980580141042345" cx="-6.780571340982759" cy="7.5428188417841415" stroke="#111" fill="none" stroke-width="1.0608697873240356" filter="url(#fuzzy_av_1779093954975_nyi2pq4s07d)"/><circle r="1.299040036862853" cx="-4.947728474064846" cy="8.187580123606836" stroke="#111" fill="none" stroke-width="1.0161498953775623" filter="url(#fuzzy_av_1779093954975_nyi2pq4s07d)"/><circle r="1.121265765999794" cx="-4.817152037821286" cy="6.50457914753258" stroke="#111" fill="none" stroke-width="1.1092878135579134" filter="url(#fuzzy_av_1779093954975_nyi2pq4s07d)"/><circle r="1.4130957662549584" cx="-5.932959107808031" cy="9.219789162644226" stroke="#111" fill="none" stroke-width="1.2143597059102382" filter="url(#fuzzy_av_1779093954975_nyi2pq4s07d)"/><circle r="2.4553585269254716" cx="-5.2350230640401945" cy="7.646287505645709" stroke="#111" fill="none" stroke-width="1.066725024118736" filter="url(#fuzzy_av_1779093954975_nyi2pq4s07d)"/><circle r="1.9168489113529799" cx="-5.148459820499754" cy="7.264405412962205" stroke="#111" fill="none" stroke-width="1.1212040915617016" filter="url(#fuzzy_av_1779093954975_nyi2pq4s07d)"/><circle r="2.147350967502723" cx="-7.529837036960515" cy="8.48765840745079" stroke="#111" fill="none" stroke-width="1.0248107667700037" filter="url(#fuzzy_av_1779093954975_nyi2pq4s07d)"/><circle r="1.9358861969940666" cx="-7.2476122724636705" cy="7.208908793935852" stroke="#111" fill="none" stroke-width="1.281919154458544" filter="url(#fuzzy_av_1779093954975_nyi2pq4s07d)"/><circle r="1.9575194283841508" cx="6.584143073922872" cy="4.586052160102501" stroke="#111" fill="none" stroke-width="1.160313188762422" filter="url(#fuzzy_av_1779093954975_nyi2pq4s07d)"/><circle r="2.1480388338197383" cx="6.688798495349446" cy="4.979389367881516" stroke="#111" fill="none" stroke-width="1.0640221141628288" filter="url(#fuzzy_av_1779093954975_nyi2pq4s07d)"/><circle r="2.3762884350445113" cx="5.894826142059924" cy="6.745340297925794" stroke="#111" fill="none" stroke-width="1.1456262618077562" filter="url(#fuzzy_av_1779093954975_nyi2pq4s07d)"/><circle r="0.8984390410200602" cx="7.739586067455204" cy="5.256445411367708" stroke="#111" fill="none" stroke-width="1.2673172389386693" filter="url(#fuzzy_av_1779093954975_nyi2pq4s07d)"/><circle r="1.1801331271035644" cx="4.616334995989525" cy="4.217758679697266" stroke="#111" fill="none" stroke-width="0.8139806940552121" filter="url(#fuzzy_av_1779093954975_nyi2pq4s07d)"/><circle r="1.078702207805609" cx="6.24580527577375" cy="7.0825447089977835" stroke="#111" fill="none" stroke-width="1.14069203924527" filter="url(#fuzzy_av_1779093954975_nyi2pq4s07d)"/><circle r="1.2510648276823733" cx="7.372796514454124" cy="6.49830792738284" stroke="#111" fill="none" stroke-width="0.8683428292791979" filter="url(#fuzzy_av_1779093954975_nyi2pq4s07d)"/><circle r="1.4470229818810973" cx="5.623141572332785" cy="7.686116654673597" stroke="#111" fill="none" stroke-width="1.1390438086463026" filter="url(#fuzzy_av_1779093954975_nyi2pq4s07d)"/><circle r="2.4411683456351003" cx="6.88334441556947" cy="4.921793025460005" stroke="#111" fill="none" stroke-width="1.2986848849797081" filter="url(#fuzzy_av_1779093954975_nyi2pq4s07d)"/><circle r="1.1446036007333338" cx="4.521977477838137" cy="6.012576028473523" stroke="#111" fill="none" stroke-width="1.0051654437456996" filter="url(#fuzzy_av_1779093954975_nyi2pq4s07d)"/><polyline points="-17.0,35.3 -16.6,34.6 -16.3,34.0 -15.9,33.4 -15.6,32.8 -15.2,32.2 -14.8,31.6 -14.4,31.1 -14.1,30.6 -13.7,30.1 -13.3,29.6 -12.9,29.2 -12.6,28.7 -12.2,28.3 -11.8,27.9 -11.4,27.6 -11.0,27.2 -10.6,26.9 -10.2,26.5 -9.9,26.2 -9.5,26.0 -9.1,25.7 -8.7,25.5 -8.3,25.2 -7.9,25.0 -7.5,24.8 -7.1,24.6 -6.7,24.5 -6.3,24.3 -5.9,24.2 -5.5,24.0 -5.1,23.9 -4.7,23.9 -4.4,23.8 -4.0,23.7 -3.6,23.7 -3.2,23.6 -2.8,23.6 -2.4,23.6 -2.0,23.6 -1.6,23.6 -1.2,23.6 -0.9,23.7 -0.5,23.7 -0.1,23.8 0.3,23.9 0.7,24.0 1.0,24.0 1.4,24.2 1.8,24.3 2.2,24.4 2.5,24.5 2.9,24.7 3.3,24.8 3.6,25.0 4.0,25.2 4.4,25.3 4.7,25.5 5.1,25.7 5.4,25.9 5.8,26.1 6.1,26.3 6.4,26.6 6.8,26.8 7.1,27.0 7.4,27.3 7.8,27.5 8.1,27.8 8.4,28.0 8.7,28.3 9.1,28.5 9.4,28.8 9.7,29.1 10.0,29.4 10.3,29.6 10.6,29.9 10.9,30.2 11.1,30.5 11.4,30.8 11.7,31.1 12.0,31.4 12.2,31.7 12.5,32.0 12.8,32.2 13.0,32.5 13.3,32.8 13.5,33.1 13.7,33.4 14.0,33.7 14.2,34.0 14.4,34.3 14.6,34.6 14.8,34.9 15.0,35.2 15.2,35.5 15.4,35.8 15.6,36.1 15.8,36.4 15.9,36.6 16.1,36.9 16.3,37.2 16.1,36.9 15.9,36.6 15.8,36.4 15.6,36.1 15.4,35.8 15.2,35.5 15.0,35.2 14.8,34.9 14.6,34.6 14.4,34.3 14.2,34.0 14.0,33.7 13.7,33.4 13.5,33.1 13.3,32.8 13.0,32.5 12.8,32.2 12.5,32.0 12.2,31.7 12.0,31.4 11.7,31.1 11.4,30.8 11.1,30.5 10.9,30.2 10.6,29.9 10.3,29.6 10.0,29.4 9.7,29.1 9.4,28.8 9.1,28.5 8.7,28.3 8.4,28.0 8.1,27.8 7.8,27.5 7.4,27.3 7.1,27.0 6.8,26.8 6.4,26.6 6.1,26.3 5.8,26.1 5.4,25.9 5.1,25.7 4.7,25.5 4.4,25.3 4.0,25.2 3.6,25.0 3.3,24.8 2.9,24.7 2.5,24.5 2.2,24.4 1.8,24.3 1.4,24.2 1.0,24.0 0.7,24.0 0.3,23.9 -0.1,23.8 -0.5,23.7 -0.9,23.7 -1.2,23.6 -1.6,23.6 -2.0,23.6 -2.4,23.6 -2.8,23.6 -3.2,23.6 -3.6,23.7 -4.0,23.7 -4.4,23.8 -4.7,23.9 -5.1,23.9 -5.5,24.0 -5.9,24.2 -6.3,24.3 -6.7,24.5 -7.1,24.6 -7.5,24.8 -7.9,25.0 -8.3,25.2 -8.7,25.5 -9.1,25.7 -9.5,26.0 -9.9,26.2 -10.2,26.5 -10.6,26.9 -11.0,27.2 -11.4,27.6 -11.8,27.9 -12.2,28.3 -12.6,28.7 -12.9,29.2 -13.3,29.6 -13.7,30.1 -14.1,30.6 -14.4,31.1 -14.8,31.6 -15.2,32.2 -15.6,32.8 -15.9,33.4 -16.3,34.0 -16.6,34.6" fill="rgb(215,127,140)" stroke="#111" stroke-width="3.0093339018253076" stroke-linejoin="round" filter="url(#fuzzy_av_1779093954975_nyi2pq4s07d)"/></g><g class="accessory-svg accessory-crown" transform="translate(74.1 31.5) rotate(5.5) scale(1.158)">
      <path d="M-11 7l2-13 6 7 5-9 5 9 6-7 2 13z" fill="#fbbf24" stroke="#111827" stroke-width="1.1" stroke-linejoin="round"/><rect x="-10" y="7" width="20" height="4" rx="1" fill="#fbbf24" stroke="#111827" stroke-width="1"/>
    </g><g class="accessory-svg accessory-coin" transform="translate(-13.1 79.3) rotate(-5.4) scale(0.860)">
      <circle cx="0" cy="0" r="10" fill="#fbbf24" stroke="#111827" stroke-width="1.2"/><ellipse cx="0" cy="0" rx="5" ry="9" fill="none" stroke="#111827" stroke-width="1"/><path d="M-4 0h8" stroke="#111827" stroke-width="1.2"/><circle cx="4" cy="-5" r="2" fill="#f8fafc" opacity=".45"/>
    </g><g class="accessory-svg accessory-trophy" transform="translate(-79.8 8.1) rotate(10.2) scale(1.022)">
      <path d="M-7-8h14v6c0 6-3 9-7 9s-7-3-7-9z" fill="#fbbf24" stroke="#111827" stroke-width="1.1"/><path d="M-7-5h-5c0 5 2 7 6 7M7-5h5c0 5-2 7-6 7M0 7v4M-5 12h10" fill="none" stroke="#111827" stroke-width="1.2"/>
    </g><g class="accessory-svg accessory-chart-up" transform="translate(-31.3 -72.9) rotate(5.8) scale(1.251)">
      <rect x="-11" y="-10" width="22" height="20" rx="3" fill="#f8fafc" stroke="#111827" stroke-width="1.2"/><rect x="-7" y="1" width="3" height="6" rx="1" fill="#D97706"/><rect x="-1.5" y="-4" width="3" height="11" rx="1" fill="#38bdf8"/><rect x="4" y="-8" width="3" height="15" rx="1" fill="#ef4444"/><path d="M-7 5l5-7 5 3 5-8" fill="none" stroke="#B45309" stroke-width="1.3" stroke-linecap="round" stroke-linejoin="round"/>
    </g></svg>