<svg xmlns="http://www.w3.org/2000/svg" viewBox="-100 -100 200 200" width="400" height="400" role="img" aria-label="教练 avatar"><defs>
      <filter id="fuzzy_av_1779093954979_d0u5cnfr3xu" x="-8%" y="-8%" width="116%" height="116%">
        <feTurbulence baseFrequency="0.045" numOctaves="3" type="fractalNoise" result="noise"/>
        <feDisplacementMap in="SourceGraphic" in2="noise" scale="1.6"/>
      </filter>
      <clipPath id="leftEye_av_1779093954979_d0u5cnfr3xu"><polyline points="-17.8,-2.8 -17.8,-3.3 -17.7,-3.8 -17.6,-4.3 -17.4,-4.8 -17.2,-5.3 -17.0,-5.7 -16.8,-6.2 -16.5,-6.6 -16.2,-7.1 -15.9,-7.5 -15.6,-7.9 -15.3,-8.2 -14.9,-8.6 -14.6,-8.9 -14.2,-9.2 -13.7,-9.8 -13.2,-10.4 -12.7,-10.9 -12.2,-11.3 -11.7,-11.7 -11.1,-12.0 -10.6,-12.3 -10.1,-12.5 -9.5,-12.7 -9.0,-12.8 -8.4,-12.9 -7.9,-12.9 -7.3,-12.9 -6.7,-12.8 -6.2,-12.7 -5.6,-12.6 -5.0,-12.4 -4.4,-12.1 -3.9,-11.9 -3.3,-11.6 -2.7,-11.3 -2.2,-10.9 -1.6,-10.6 -1.1,-10.2 -0.5,-9.8 0.1,-9.4 0.6,-8.9 1.2,-8.5 1.7,-8.0 2.2,-7.5 2.8,-7.1 3.3,-6.6 3.8,-6.1 4.3,-5.6 4.8,-5.2 5.3,-4.7 5.8,-4.2 6.2,-3.8 6.7,-3.3 7.1,-2.9 7.6,-2.4 8.0,-2.0 8.4,-1.6 8.8,-1.2 9.2,-0.8 9.6,-0.4 9.9,-0.0 10.3,0.3 10.6,0.7 10.9,1.0 11.2,1.4 11.5,1.7 11.8,2.0 12.0,2.3 12.3,2.6 12.5,2.9 12.7,3.2 12.9,3.5 13.1,3.8 13.3,4.0 13.5,4.3 13.6,4.5 13.7,4.8 13.8,5.0 13.2,7.3 13.1,7.4 13.0,7.5 12.9,7.6 12.7,7.7 12.5,7.8 12.4,7.9 12.2,8.0 12.0,8.1 11.8,8.2 11.5,8.3 11.3,8.4 11.0,8.5 10.8,8.6 10.5,8.7 10.2,8.8 9.9,8.9 9.6,9.0 9.3,9.0 8.9,9.1 8.6,9.2 8.2,9.3 7.9,9.4 7.5,9.4 7.1,9.5 6.7,9.6 6.3,9.6 5.9,9.7 5.5,9.7 5.1,9.8 4.6,9.8 4.2,9.8 3.7,9.8 3.3,9.8 2.8,9.9 2.4,9.9 1.9,9.8 1.4,9.8 1.0,9.8 0.5,9.8 0.0,9.7 -0.5,9.7 -1.0,9.6 -1.5,9.6 -2.0,9.5 -2.5,9.4 -3.0,9.4 -3.5,9.3 -4.0,9.2 -4.6,9.1 -5.1,9.0 -5.7,8.9 -6.2,8.8 -6.8,8.7 -7.3,8.5 -7.9,8.4 -8.5,8.3 -9.1,8.1 -9.6,8.0 -10.2,7.9 -10.8,7.7 -11.4,7.6 -12.0,7.4 -12.6,7.3 -13.3,7.1 -13.7,7.0 -14.2,6.8 -14.7,6.7 -15.1,6.5 -15.6,6.3 -16.0,6.1 -16.5,5.9 -16.9,5.8 -17.3,5.6 -17.7,5.4 -18.1,5.1 -18.5,4.9 -18.8,4.7 -19.2,4.5 -19.5,4.2"/></clipPath>
      <clipPath id="rightEye_av_1779093954979_d0u5cnfr3xu"><polyline points="-17.2,-2.4 -16.9,-2.7 -16.5,-2.9 -16.1,-3.2 -15.7,-3.4 -15.3,-3.7 -14.9,-3.9 -14.5,-4.2 -14.1,-4.4 -13.6,-4.6 -13.2,-4.8 -12.7,-5.0 -12.3,-5.2 -11.8,-5.4 -11.3,-5.6 -10.9,-5.7 -10.3,-6.0 -9.6,-6.3 -9.0,-6.6 -8.4,-6.8 -7.8,-7.0 -7.3,-7.2 -6.7,-7.3 -6.1,-7.5 -5.6,-7.6 -5.1,-7.6 -4.5,-7.7 -4.0,-7.7 -3.5,-7.7 -3.0,-7.7 -2.5,-7.6 -2.0,-7.6 -1.6,-7.5 -1.1,-7.4 -0.6,-7.3 -0.2,-7.1 0.3,-7.0 0.7,-6.8 1.1,-6.6 1.6,-6.4 2.0,-6.2 2.4,-6.0 2.8,-5.8 3.3,-5.6 3.7,-5.3 4.1,-5.1 4.5,-4.9 4.9,-4.6 5.3,-4.4 5.7,-4.1 6.1,-3.9 6.5,-3.6 6.9,-3.4 7.3,-3.1 7.7,-2.9 8.1,-2.6 8.5,-2.4 8.8,-2.2 9.2,-1.9 9.6,-1.7 9.9,-1.5 10.3,-1.3 10.6,-1.1 10.9,-0.8 11.3,-0.6 11.6,-0.4 11.9,-0.2 12.2,-0.0 12.5,0.2 12.7,0.4 13.0,0.6 13.2,0.7 13.5,0.9 13.7,1.1 14.0,1.3 14.2,1.5 14.4,1.6 14.6,1.8 14.7,2.0 14.9,2.2 16.4,3.8 16.2,3.9 15.9,4.0 15.6,4.1 15.4,4.2 15.1,4.3 14.8,4.5 14.5,4.6 14.1,4.7 13.8,4.8 13.4,4.9 13.0,5.0 12.7,5.1 12.3,5.2 11.8,5.3 11.4,5.4 11.0,5.5 10.5,5.5 10.1,5.6 9.6,5.7 9.1,5.8 8.6,5.9 8.1,6.0 7.5,6.0 7.0,6.1 6.4,6.1 5.9,6.2 5.3,6.2 4.7,6.3 4.2,6.3 3.6,6.3 3.0,6.4 2.4,6.4 1.7,6.4 1.1,6.4 0.5,6.3 -0.1,6.3 -0.7,6.3 -1.4,6.3 -2.0,6.2 -2.6,6.2 -3.2,6.1 -3.9,6.0 -4.5,6.0 -5.1,5.9 -5.7,5.8 -6.3,5.7 -6.9,5.6 -7.5,5.5 -8.1,5.4 -8.7,5.3 -9.3,5.2 -9.8,5.1 -10.4,4.9 -10.9,4.8 -11.5,4.7 -12.0,4.6 -12.5,4.4 -13.0,4.3 -13.5,4.2 -14.0,4.0 -14.4,3.9 -14.9,3.7 -15.3,3.6 -15.7,3.5 -16.1,3.3 -16.4,3.2 -16.8,3.1 -17.1,2.9 -17.4,2.8 -17.7,2.6 -17.9,2.5 -18.2,2.3 -18.4,2.1 -18.6,2.0 -18.8,1.8 -19.0,1.6 -19.2,1.5 -19.3,1.3 -19.4,1.1"/></clipPath>
      <linearGradient id="rainbow_av_1779093954979_d0u5cnfr3xu" x1="0%" y1="0%" x2="100%" y2="0%">
        <stop offset="0%" stop-color="#EA580C"/><stop offset="31%" stop-color="#22D3EE"/><stop offset="100%" stop-color="#C2410C"/>
      </linearGradient>
      <linearGradient id="splitHair_av_1779093954979_d0u5cnfr3xu" x1="0%" y1="0%" x2="100%" y2="0%">
        <stop offset="49%" stop-color="#111827"/><stop offset="51%" stop-color="#F9FAFB"/>
      </linearGradient>
      <radialGradient id="halo_av_1779093954979_d0u5cnfr3xu"><stop offset="0%" stop-color="#EA580C" stop-opacity=".45"/><stop offset="100%" stop-color="#EA580C" stop-opacity="0"/></radialGradient>
    </defs><rect x="-100" y="-100" width="200" height="200" fill="#BC8F8F"/><g opacity="1"><polyline id="faceContour" class="face-shape" points="59.0,-4.2 59.5,-5.1 59.4,-4.3 58.5,-1.5 58.1,1.3 58.1,0.5 57.8,2.7 57.1,5.7 56.3,7.4 56.8,6.1 56.2,8.1 55.5,10.5 54.1,13.6 55.2,11.7 53.9,14.4 53.8,15.1 53.0,17.2 52.9,17.1 52.0,19.0 52.0,18.7 50.5,22.4 49.5,23.8 48.4,25.8 48.6,25.2 47.2,27.9 48.0,26.9 45.8,30.5 44.9,31.7 44.0,32.6 43.8,33.4 42.4,35.0 43.2,34.3 41.0,36.7 41.1,36.7 39.3,38.8 37.2,41.1 38.3,39.8 36.7,41.6 33.7,44.4 34.6,43.8 33.3,44.9 32.4,45.7 33.1,45.1 29.8,47.9 29.8,47.7 27.9,49.1 25.6,50.8 26.1,50.4 23.6,52.0 25.0,51.2 22.9,52.3 22.7,52.6 21.5,53.1 21.2,53.4 18.6,54.6 16.7,55.3 17.2,55.3 14.2,56.2 14.8,56.1 12.0,57.0 10.3,57.3 10.2,57.5 9.4,57.4 9.2,57.6 6.4,58.0 6.4,58.0 4.4,58.4 4.5,58.2 0.3,58.6 2.2,58.4 -0.9,58.4 -2.5,58.3 -4.0,58.3 -2.5,58.4 -4.2,58.2 -5.0,58.1 -6.6,57.8 -9.0,57.4 -9.2,57.3 -10.4,57.1 -11.3,56.9 -12.6,56.5 -13.1,56.2 -16.8,54.8 -16.2,55.1 -17.3,54.8 -18.1,54.3 -19.2,53.9 -21.7,52.7 -20.9,52.9 -23.3,51.7 -24.8,50.7 -24.0,51.2 -26.0,50.1 -28.0,48.5 -29.1,48.0 -29.6,47.4 -30.9,46.3 -32.5,44.9 -30.8,46.4 -34.2,43.5 -34.0,43.6 -34.8,42.8 -35.8,41.9 -38.0,39.5 -39.2,38.5 -37.9,39.9 -41.6,35.5 -39.5,38.0 -41.6,35.3 -42.9,33.4 -42.5,34.2 -45.3,30.3 -46.0,29.7 -46.3,28.8 -46.7,28.0 -47.8,26.2 -48.0,26.0 -49.3,23.7 -48.9,24.1 -51.3,20.2 -50.6,21.5 -50.8,20.7 -52.5,17.6 -53.7,14.5 -54.0,14.3 -53.4,14.9 -55.1,10.8 -55.0,11.5 -55.2,9.9 -55.1,10.5 -55.8,8.8 -57.0,5.8 -57.8,1.8 -57.9,1.6 -57.6,1.9 -58.0,0.1 -58.2,0.6 -58.8,-3.7 -59.6,-5.7 -59.1,-5.6 -59.0,-6.0 -59.4,-9.2 -59.4,-8.9 -59.7,-11.5 -59.8,-12.4 -60.0,-15.9 -60.1,-16.4 -59.6,-19.5 -59.7,-19.5 -59.6,-20.9 -59.9,-19.9 -59.5,-23.0 -59.5,-24.2 -59.3,-25.8 -59.0,-26.0 -58.7,-28.6 -58.2,-29.9 -57.5,-32.6 -57.3,-34.1 -57.0,-34.5 -57.4,-33.8 -56.5,-36.0 -55.9,-38.0 -55.9,-37.8 -54.3,-41.5 -53.9,-42.1 -52.7,-44.2 -52.4,-44.7 -52.2,-45.2 -50.5,-47.3 -51.1,-46.8 -48.9,-49.6 -50.5,-47.5 -48.5,-49.9 -46.7,-52.1 -47.7,-50.9 -46.6,-52.6 -43.9,-54.9 -44.5,-54.4 -43.8,-55.2 -42.3,-56.2 -39.6,-58.6 -39.6,-58.5 -38.2,-59.7 -36.2,-60.8 -37.8,-59.8 -33.6,-62.2 -33.0,-62.5 -32.7,-62.8 -31.5,-63.3 -30.2,-64.1 -25.6,-65.9 -25.2,-66.0 -26.7,-65.7 -24.1,-66.5 -22.1,-67.1 -21.7,-67.1 -17.4,-68.3 -17.5,-68.5 -14.4,-68.9 -14.0,-68.9 -11.9,-69.6 -12.5,-69.5 -10.2,-69.7 -5.5,-70.2 -4.6,-70.2 -4.4,-70.4 -4.1,-70.4 -1.8,-70.4 1.5,-70.4 3.0,-70.5 0.5,-70.6 3.7,-70.4 4.4,-70.3 9.7,-69.9 11.1,-69.8 9.7,-70.0 14.5,-69.4 12.7,-69.7 17.9,-68.6 17.0,-68.7 19.7,-68.1 21.1,-67.8 23.7,-67.0 22.1,-67.3 24.4,-66.7 24.2,-66.8 28.3,-65.3 30.7,-64.3 28.4,-65.1 29.7,-64.6 31.3,-64.1 33.0,-63.0 36.9,-60.9 35.4,-61.8 39.2,-59.4 39.0,-59.6 40.5,-58.3 42.6,-56.9 42.0,-57.2 43.7,-55.7 44.5,-54.7 44.5,-54.9 47.6,-52.1 47.4,-51.9 49.2,-50.1 49.2,-50.0 49.7,-49.4 50.2,-48.3 50.8,-47.3 52.9,-44.7 52.8,-44.3 54.1,-42.7 53.4,-43.0 55.6,-38.6 56.1,-38.3 56.1,-38.5 55.7,-38.2 56.4,-36.4 57.5,-33.9 58.2,-31.1 57.7,-32.6 58.4,-29.8 58.5,-30.3 58.8,-28.2 59.3,-26.8 59.5,-23.9 59.8,-22.0 59.6,-21.1 59.8,-19.7 60.1,-20.4 60.0,-15.2 59.8,-15.4 60.0,-15.7 59.9,-12.2 59.8,-11.9 59.6,-10.9 59.5,-8.2 59.5,-8.4 59.0,-4.2 59.5,-5.1" fill="#ffc9a9" stroke="#111" stroke-width="2.2" stroke-linejoin="round" filter="url(#fuzzy_av_1779093954979_d0u5cnfr3xu)"/><g id="leftEye" transform="translate(-28.8 -27.2)"><polyline points="-17.8,-2.8 -17.8,-3.3 -17.7,-3.8 -17.6,-4.3 -17.4,-4.8 -17.2,-5.3 -17.0,-5.7 -16.8,-6.2 -16.5,-6.6 -16.2,-7.1 -15.9,-7.5 -15.6,-7.9 -15.3,-8.2 -14.9,-8.6 -14.6,-8.9 -14.2,-9.2 -13.7,-9.8 -13.2,-10.4 -12.7,-10.9 -12.2,-11.3 -11.7,-11.7 -11.1,-12.0 -10.6,-12.3 -10.1,-12.5 -9.5,-12.7 -9.0,-12.8 -8.4,-12.9 -7.9,-12.9 -7.3,-12.9 -6.7,-12.8 -6.2,-12.7 -5.6,-12.6 -5.0,-12.4 -4.4,-12.1 -3.9,-11.9 -3.3,-11.6 -2.7,-11.3 -2.2,-10.9 -1.6,-10.6 -1.1,-10.2 -0.5,-9.8 0.1,-9.4 0.6,-8.9 1.2,-8.5 1.7,-8.0 2.2,-7.5 2.8,-7.1 3.3,-6.6 3.8,-6.1 4.3,-5.6 4.8,-5.2 5.3,-4.7 5.8,-4.2 6.2,-3.8 6.7,-3.3 7.1,-2.9 7.6,-2.4 8.0,-2.0 8.4,-1.6 8.8,-1.2 9.2,-0.8 9.6,-0.4 9.9,-0.0 10.3,0.3 10.6,0.7 10.9,1.0 11.2,1.4 11.5,1.7 11.8,2.0 12.0,2.3 12.3,2.6 12.5,2.9 12.7,3.2 12.9,3.5 13.1,3.8 13.3,4.0 13.5,4.3 13.6,4.5 13.7,4.8 13.8,5.0 13.2,7.3 13.1,7.4 13.0,7.5 12.9,7.6 12.7,7.7 12.5,7.8 12.4,7.9 12.2,8.0 12.0,8.1 11.8,8.2 11.5,8.3 11.3,8.4 11.0,8.5 10.8,8.6 10.5,8.7 10.2,8.8 9.9,8.9 9.6,9.0 9.3,9.0 8.9,9.1 8.6,9.2 8.2,9.3 7.9,9.4 7.5,9.4 7.1,9.5 6.7,9.6 6.3,9.6 5.9,9.7 5.5,9.7 5.1,9.8 4.6,9.8 4.2,9.8 3.7,9.8 3.3,9.8 2.8,9.9 2.4,9.9 1.9,9.8 1.4,9.8 1.0,9.8 0.5,9.8 0.0,9.7 -0.5,9.7 -1.0,9.6 -1.5,9.6 -2.0,9.5 -2.5,9.4 -3.0,9.4 -3.5,9.3 -4.0,9.2 -4.6,9.1 -5.1,9.0 -5.7,8.9 -6.2,8.8 -6.8,8.7 -7.3,8.5 -7.9,8.4 -8.5,8.3 -9.1,8.1 -9.6,8.0 -10.2,7.9 -10.8,7.7 -11.4,7.6 -12.0,7.4 -12.6,7.3 -13.3,7.1 -13.7,7.0 -14.2,6.8 -14.7,6.7 -15.1,6.5 -15.6,6.3 -16.0,6.1 -16.5,5.9 -16.9,5.8 -17.3,5.6 -17.7,5.4 -18.1,5.1 -18.5,4.9 -18.8,4.7 -19.2,4.5 -19.5,4.2" fill="#fff" stroke="#fff" stroke-width="0" stroke-linejoin="round" filter="url(#fuzzy_av_1779093954979_d0u5cnfr3xu)"/><polyline points="16.3,1.3 16.7,1.0 17.0,0.7 17.3,0.4 17.5,-0.0 17.6,-0.5 17.8,-0.9 17.8,-1.4 17.9,-1.8 17.9,-2.3 -17.8,-2.8 -17.8,-3.3 -17.7,-3.8 -17.6,-4.3 -17.4,-4.8 -17.2,-5.3 -17.0,-5.7 -16.8,-6.2 -16.5,-6.6 -16.2,-7.1 -15.9,-7.5 -15.6,-7.9 -15.3,-8.2 -14.9,-8.6 -14.6,-8.9 -14.2,-9.2 -13.7,-9.8 -13.2,-10.4 -12.7,-10.9 -12.2,-11.3 -11.7,-11.7 -11.1,-12.0 -10.6,-12.3 -10.1,-12.5 -9.5,-12.7 -9.0,-12.8 -8.4,-12.9 -7.9,-12.9 -7.3,-12.9 -6.7,-12.8 -6.2,-12.7 -5.6,-12.6 -5.0,-12.4 -4.4,-12.1 -3.9,-11.9 -3.3,-11.6 -2.7,-11.3 -2.2,-10.9 -1.6,-10.6 -1.1,-10.2 -0.5,-9.8 0.1,-9.4 0.6,-8.9 1.2,-8.5 1.7,-8.0 2.2,-7.5 2.8,-7.1 3.3,-6.6 3.8,-6.1 4.3,-5.6 4.8,-5.2 5.3,-4.7 5.8,-4.2 6.2,-3.8 6.7,-3.3 7.1,-2.9 7.6,-2.4 8.0,-2.0 8.4,-1.6 8.8,-1.2 9.2,-0.8 9.6,-0.4 9.9,-0.0 10.3,0.3 10.6,0.7 10.9,1.0 11.2,1.4 11.5,1.7 11.8,2.0 12.0,2.3 12.3,2.6 12.5,2.9 12.7,3.2 12.9,3.5 13.1,3.8 13.3,4.0 13.5,4.3 13.6,4.5 13.7,4.8 13.8,5.0 -13.9,5.2 -14.0,5.5 -14.1,5.7 -14.1,5.9 -14.2,6.1 -14.2,6.3 -14.2,6.5 -14.2,6.7 -14.2,6.9 -14.2,7.1" fill="none" stroke="#111" stroke-width="2.9873335228760176" stroke-linejoin="round" stroke-linecap="round" filter="url(#fuzzy_av_1779093954979_d0u5cnfr3xu)"/><polyline points="21.3,1.3 21.3,1.6 21.2,1.9 21.1,2.3 21.0,2.6 20.8,2.9 20.6,3.2 20.4,3.5 20.1,3.7 19.8,4.0 -19.5,4.2 -19.2,4.5 -18.8,4.7 -18.5,4.9 -18.1,5.1 -17.7,5.4 -17.3,5.6 -16.9,5.8 -16.5,5.9 -16.0,6.1 -15.6,6.3 -15.1,6.5 -14.7,6.7 -14.2,6.8 -13.7,7.0 -13.3,7.1 -12.6,7.3 -12.0,7.4 -11.4,7.6 -10.8,7.7 -10.2,7.9 -9.6,8.0 -9.1,8.1 -8.5,8.3 -7.9,8.4 -7.3,8.5 -6.8,8.7 -6.2,8.8 -5.7,8.9 -5.1,9.0 -4.6,9.1 -4.0,9.2 -3.5,9.3 -3.0,9.4 -2.5,9.4 -2.0,9.5 -1.5,9.6 -1.0,9.6 -0.5,9.7 0.0,9.7 0.5,9.8 1.0,9.8 1.4,9.8 1.9,9.8 2.4,9.9 2.8,9.9 3.3,9.8 3.7,9.8 4.2,9.8 4.6,9.8 5.1,9.8 5.5,9.7 5.9,9.7 6.3,9.6 6.7,9.6 7.1,9.5 7.5,9.4 7.9,9.4 8.2,9.3 8.6,9.2 8.9,9.1 9.3,9.0 9.6,9.0 9.9,8.9 10.2,8.8 10.5,8.7 10.8,8.6 11.0,8.5 11.3,8.4 11.5,8.3 11.8,8.2 12.0,8.1 12.2,8.0 12.4,7.9 12.5,7.8 12.7,7.7 12.9,7.6 13.0,7.5 13.1,7.4 13.2,7.3 -13.3,7.2 -13.4,7.1 -13.5,7.0 -13.5,6.9 -13.5,6.8 -13.6,6.7 -13.6,6.6 -13.6,6.5 -13.5,6.4 -13.5,6.3" fill="none" stroke="#111" stroke-width="2.1796258980092857" stroke-linejoin="round" stroke-linecap="round" filter="url(#fuzzy_av_1779093954979_d0u5cnfr3xu)"/><circle r="3.6682836816140227" cx="2.58464544798377" cy="2.0118152136915612" stroke="#111" fill="none" stroke-width="1.3440479605074285" filter="url(#fuzzy_av_1779093954979_d0u5cnfr3xu)" clip-path="url(#leftEye_av_1779093954979_d0u5cnfr3xu)"/><circle r="3.801127879551196" cx="1.9092539382177862" cy="3.76293846169618" stroke="#111" fill="none" stroke-width="1.1469047858618984" filter="url(#fuzzy_av_1779093954979_d0u5cnfr3xu)" clip-path="url(#leftEye_av_1779093954979_d0u5cnfr3xu)"/><circle r="2.5112228391171665" cx="4.751961918464071" cy="2.6663336629715917" stroke="#111" fill="none" stroke-width="1.1139574835614494" filter="url(#fuzzy_av_1779093954979_d0u5cnfr3xu)" clip-path="url(#leftEye_av_1779093954979_d0u5cnfr3xu)"/><circle r="4.352720389664425" cx="2.206889108452696" cy="2.0534232901798286" stroke="#111" fill="none" stroke-width="1.3247335377391212" filter="url(#fuzzy_av_1779093954979_d0u5cnfr3xu)" clip-path="url(#leftEye_av_1779093954979_d0u5cnfr3xu)"/><circle r="3.185341823491027" cx="5.405217596027402" cy="4.0439714731246434" stroke="#111" fill="none" stroke-width="1.3822555714388762" filter="url(#fuzzy_av_1779093954979_d0u5cnfr3xu)" clip-path="url(#leftEye_av_1779093954979_d0u5cnfr3xu)"/><circle r="4.153120856961989" cx="2.159763343058496" cy="3.2900775982603068" stroke="#111" fill="none" stroke-width="1.2194908525796606" filter="url(#fuzzy_av_1779093954979_d0u5cnfr3xu)" clip-path="url(#leftEye_av_1779093954979_d0u5cnfr3xu)"/><circle r="3.8919603308359623" cx="1.9341234778470242" cy="3.2661526181640452" stroke="#111" fill="none" stroke-width="0.9801191228401971" filter="url(#fuzzy_av_1779093954979_d0u5cnfr3xu)" clip-path="url(#leftEye_av_1779093954979_d0u5cnfr3xu)"/><circle r="3.1299529123184646" cx="2.016495776310618" cy="2.5103734534415363" stroke="#111" fill="none" stroke-width="1.312120633205476" filter="url(#fuzzy_av_1779093954979_d0u5cnfr3xu)" clip-path="url(#leftEye_av_1779093954979_d0u5cnfr3xu)"/><circle r="4.403978453943312" cx="3.375409025375502" cy="2.842482169789282" stroke="#111" fill="none" stroke-width="1.1676116763015463" filter="url(#fuzzy_av_1779093954979_d0u5cnfr3xu)" clip-path="url(#leftEye_av_1779093954979_d0u5cnfr3xu)"/><circle r="2.3502582261723504" cx="5.367947856567911" cy="0.9994172790342337" stroke="#111" fill="none" stroke-width="1.3687646528465716" filter="url(#fuzzy_av_1779093954979_d0u5cnfr3xu)" clip-path="url(#leftEye_av_1779093954979_d0u5cnfr3xu)"/></g><g id="rightEye" transform="translate(24.5 -26.7)"><polyline points="-17.2,-2.4 -16.9,-2.7 -16.5,-2.9 -16.1,-3.2 -15.7,-3.4 -15.3,-3.7 -14.9,-3.9 -14.5,-4.2 -14.1,-4.4 -13.6,-4.6 -13.2,-4.8 -12.7,-5.0 -12.3,-5.2 -11.8,-5.4 -11.3,-5.6 -10.9,-5.7 -10.3,-6.0 -9.6,-6.3 -9.0,-6.6 -8.4,-6.8 -7.8,-7.0 -7.3,-7.2 -6.7,-7.3 -6.1,-7.5 -5.6,-7.6 -5.1,-7.6 -4.5,-7.7 -4.0,-7.7 -3.5,-7.7 -3.0,-7.7 -2.5,-7.6 -2.0,-7.6 -1.6,-7.5 -1.1,-7.4 -0.6,-7.3 -0.2,-7.1 0.3,-7.0 0.7,-6.8 1.1,-6.6 1.6,-6.4 2.0,-6.2 2.4,-6.0 2.8,-5.8 3.3,-5.6 3.7,-5.3 4.1,-5.1 4.5,-4.9 4.9,-4.6 5.3,-4.4 5.7,-4.1 6.1,-3.9 6.5,-3.6 6.9,-3.4 7.3,-3.1 7.7,-2.9 8.1,-2.6 8.5,-2.4 8.8,-2.2 9.2,-1.9 9.6,-1.7 9.9,-1.5 10.3,-1.3 10.6,-1.1 10.9,-0.8 11.3,-0.6 11.6,-0.4 11.9,-0.2 12.2,-0.0 12.5,0.2 12.7,0.4 13.0,0.6 13.2,0.7 13.5,0.9 13.7,1.1 14.0,1.3 14.2,1.5 14.4,1.6 14.6,1.8 14.7,2.0 14.9,2.2 16.4,3.8 16.2,3.9 15.9,4.0 15.6,4.1 15.4,4.2 15.1,4.3 14.8,4.5 14.5,4.6 14.1,4.7 13.8,4.8 13.4,4.9 13.0,5.0 12.7,5.1 12.3,5.2 11.8,5.3 11.4,5.4 11.0,5.5 10.5,5.5 10.1,5.6 9.6,5.7 9.1,5.8 8.6,5.9 8.1,6.0 7.5,6.0 7.0,6.1 6.4,6.1 5.9,6.2 5.3,6.2 4.7,6.3 4.2,6.3 3.6,6.3 3.0,6.4 2.4,6.4 1.7,6.4 1.1,6.4 0.5,6.3 -0.1,6.3 -0.7,6.3 -1.4,6.3 -2.0,6.2 -2.6,6.2 -3.2,6.1 -3.9,6.0 -4.5,6.0 -5.1,5.9 -5.7,5.8 -6.3,5.7 -6.9,5.6 -7.5,5.5 -8.1,5.4 -8.7,5.3 -9.3,5.2 -9.8,5.1 -10.4,4.9 -10.9,4.8 -11.5,4.7 -12.0,4.6 -12.5,4.4 -13.0,4.3 -13.5,4.2 -14.0,4.0 -14.4,3.9 -14.9,3.7 -15.3,3.6 -15.7,3.5 -16.1,3.3 -16.4,3.2 -16.8,3.1 -17.1,2.9 -17.4,2.8 -17.7,2.6 -17.9,2.5 -18.2,2.3 -18.4,2.1 -18.6,2.0 -18.8,1.8 -19.0,1.6 -19.2,1.5 -19.3,1.3 -19.4,1.1" fill="#fff" stroke="#fff" stroke-width="0" stroke-linejoin="round" filter="url(#fuzzy_av_1779093954979_d0u5cnfr3xu)"/><polyline points="-19.1,-0.3 -19.1,-0.4 -19.0,-0.6 -18.9,-0.8 -18.7,-1.0 -18.6,-1.2 -18.3,-1.4 -18.1,-1.7 -17.8,-1.9 -17.5,-2.2 -17.2,-2.4 -16.9,-2.7 -16.5,-2.9 -16.1,-3.2 -15.7,-3.4 -15.3,-3.7 -14.9,-3.9 -14.5,-4.2 -14.1,-4.4 -13.6,-4.6 -13.2,-4.8 -12.7,-5.0 -12.3,-5.2 -11.8,-5.4 -11.3,-5.6 -10.9,-5.7 -10.3,-6.0 -9.6,-6.3 -9.0,-6.6 -8.4,-6.8 -7.8,-7.0 -7.3,-7.2 -6.7,-7.3 -6.1,-7.5 -5.6,-7.6 -5.1,-7.6 -4.5,-7.7 -4.0,-7.7 -3.5,-7.7 -3.0,-7.7 -2.5,-7.6 -2.0,-7.6 -1.6,-7.5 -1.1,-7.4 -0.6,-7.3 -0.2,-7.1 0.3,-7.0 0.7,-6.8 1.1,-6.6 1.6,-6.4 2.0,-6.2 2.4,-6.0 2.8,-5.8 3.3,-5.6 3.7,-5.3 4.1,-5.1 4.5,-4.9 4.9,-4.6 5.3,-4.4 5.7,-4.1 6.1,-3.9 6.5,-3.6 6.9,-3.4 7.3,-3.1 7.7,-2.9 8.1,-2.6 8.5,-2.4 8.8,-2.2 9.2,-1.9 9.6,-1.7 9.9,-1.5 10.3,-1.3 10.6,-1.1 10.9,-0.8 11.3,-0.6 11.6,-0.4 11.9,-0.2 12.2,-0.0 12.5,0.2 12.7,0.4 13.0,0.6 13.2,0.7 13.5,0.9 13.7,1.1 14.0,1.3 14.2,1.5 14.4,1.6 14.6,1.8 14.7,2.0 14.9,2.2 15.0,2.3 15.2,2.5 15.3,2.7 15.4,2.8 15.5,3.0 15.6,3.2 15.7,3.3 15.7,3.5 15.8,3.6 15.8,3.8" fill="none" stroke="#111" stroke-width="2.9962741019160575" stroke-linejoin="round" stroke-linecap="round" filter="url(#fuzzy_av_1779093954979_d0u5cnfr3xu)"/><polyline points="-18.9,-1.0 -19.1,-0.8 -19.2,-0.5 -19.4,-0.3 -19.5,-0.1 -19.5,0.1 -19.5,0.3 -19.5,0.5 -19.5,0.7 -19.5,0.9 -19.4,1.1 -19.3,1.3 -19.2,1.5 -19.0,1.6 -18.8,1.8 -18.6,2.0 -18.4,2.1 -18.2,2.3 -17.9,2.5 -17.7,2.6 -17.4,2.8 -17.1,2.9 -16.8,3.1 -16.4,3.2 -16.1,3.3 -15.7,3.5 -15.3,3.6 -14.9,3.7 -14.4,3.9 -14.0,4.0 -13.5,4.2 -13.0,4.3 -12.5,4.4 -12.0,4.6 -11.5,4.7 -10.9,4.8 -10.4,4.9 -9.8,5.1 -9.3,5.2 -8.7,5.3 -8.1,5.4 -7.5,5.5 -6.9,5.6 -6.3,5.7 -5.7,5.8 -5.1,5.9 -4.5,6.0 -3.9,6.0 -3.2,6.1 -2.6,6.2 -2.0,6.2 -1.4,6.3 -0.7,6.3 -0.1,6.3 0.5,6.3 1.1,6.4 1.7,6.4 2.4,6.4 3.0,6.4 3.6,6.3 4.2,6.3 4.7,6.3 5.3,6.2 5.9,6.2 6.4,6.1 7.0,6.1 7.5,6.0 8.1,6.0 8.6,5.9 9.1,5.8 9.6,5.7 10.1,5.6 10.5,5.5 11.0,5.5 11.4,5.4 11.8,5.3 12.3,5.2 12.7,5.1 13.0,5.0 13.4,4.9 13.8,4.8 14.1,4.7 14.5,4.6 14.8,4.5 15.1,4.3 15.4,4.2 15.6,4.1 15.9,4.0 16.2,3.9 16.4,3.8 16.6,3.7 16.8,3.6 17.0,3.5 17.2,3.4 17.3,3.3 17.5,3.2 17.6,3.1 17.8,3.0 17.9,2.9 18.0,2.8" fill="none" stroke="#111" stroke-width="2.970334060301003" stroke-linejoin="round" stroke-linecap="round" filter="url(#fuzzy_av_1779093954979_d0u5cnfr3xu)"/><circle r="3.72320262216559" cx="-9.014139885659707" cy="2.4797960450504974" stroke="#111" fill="none" stroke-width="0.8370908703386838" filter="url(#fuzzy_av_1779093954979_d0u5cnfr3xu)" clip-path="url(#rightEye_av_1779093954979_d0u5cnfr3xu)"/><circle r="4.106975785795372" cx="-7.95538813907485" cy="-0.4028713528298238" stroke="#111" fill="none" stroke-width="0.8887093190786666" filter="url(#fuzzy_av_1779093954979_d0u5cnfr3xu)" clip-path="url(#rightEye_av_1779093954979_d0u5cnfr3xu)"/><circle r="2.6065418018566473" cx="-8.417960629170548" cy="2.6327051459990236" stroke="#111" fill="none" stroke-width="0.9641687512750999" filter="url(#fuzzy_av_1779093954979_d0u5cnfr3xu)" clip-path="url(#rightEye_av_1779093954979_d0u5cnfr3xu)"/><circle r="3.6657565512186787" cx="-6.704878056480661" cy="0.5149057451120722" stroke="#111" fill="none" stroke-width="0.8119243800612385" filter="url(#fuzzy_av_1779093954979_d0u5cnfr3xu)" clip-path="url(#rightEye_av_1779093954979_d0u5cnfr3xu)"/><circle r="2.33354363360864" cx="-6.929367060896781" cy="1.3523267322678851" stroke="#111" fill="none" stroke-width="1.0136014320524596" filter="url(#fuzzy_av_1779093954979_d0u5cnfr3xu)" clip-path="url(#rightEye_av_1779093954979_d0u5cnfr3xu)"/><circle r="3.215898866488473" cx="-6.871017182205264" cy="-0.5176354557373908" stroke="#111" fill="none" stroke-width="0.8343489229265615" filter="url(#fuzzy_av_1779093954979_d0u5cnfr3xu)" clip-path="url(#rightEye_av_1779093954979_d0u5cnfr3xu)"/><circle r="3.5070901019002276" cx="-8.170744713766705" cy="2.301620345191288" stroke="#111" fill="none" stroke-width="1.0982100634984764" filter="url(#fuzzy_av_1779093954979_d0u5cnfr3xu)" clip-path="url(#rightEye_av_1779093954979_d0u5cnfr3xu)"/><circle r="3.5491152119394522" cx="-8.985191295416914" cy="1.164735994740464" stroke="#111" fill="none" stroke-width="1.2273957170830359" filter="url(#fuzzy_av_1779093954979_d0u5cnfr3xu)" clip-path="url(#rightEye_av_1779093954979_d0u5cnfr3xu)"/><circle r="2.359442954827289" cx="-6.682445401163389" cy="2.5916369901044436" stroke="#111" fill="none" stroke-width="1.2095279548048077" filter="url(#fuzzy_av_1779093954979_d0u5cnfr3xu)" clip-path="url(#rightEye_av_1779093954979_d0u5cnfr3xu)"/><circle r="3.1998735470514488" cx="-7.775773754549693" cy="0.8037368671713221" stroke="#111" fill="none" stroke-width="0.8940280184039754" filter="url(#fuzzy_av_1779093954979_d0u5cnfr3xu)" clip-path="url(#rightEye_av_1779093954979_d0u5cnfr3xu)"/></g><g id="hairs"><polyline points="-59.4,-9.7 -59.3,-11.3 -59.0,-11.9 -58.3,-14.2 -57.3,-17.9 -56.0,-20.6 -54.5,-22.5 -52.7,-24.7 -50.7,-27.1 -48.5,-30.9 -46.2,-32.6 -43.7,-36.8 -41.0,-40.2 -38.1,-43.0 -35.1,-46.4 -32.1,-49.3 -29.0,-52.8 -25.9,-55.3 -22.9,-58.0 -20.2,-61.6 -17.8,-63.9 -15.4,-68.4 -11.9,-69.6" fill="none" stroke="rgb(120,84,60)" stroke-width="0.7753142908000321" stroke-linejoin="round" stroke-linecap="round" filter="url(#fuzzy_av_1779093954979_d0u5cnfr3xu)" opacity="0.8434378912800897"/><polyline points="-56.5,-37.3 -55.8,-38.6 -54.7,-40.6 -53.1,-41.8 -51.3,-42.8 -49.2,-46.1 -46.8,-45.9 -44.3,-48.4 -41.6,-50.8 -38.7,-51.5 -35.7,-52.2 -32.5,-55.3 -29.2,-57.2 -25.9,-57.1 -22.5,-58.8 -19.1,-60.9 -15.7,-62.0 -12.5,-64.1 -9.5,-65.3 -6.8,-68.1 -4.3,-69.1 -1.4,-71.1 3.0,-70.9" fill="none" stroke="rgb(120,84,60)" stroke-width="1.5776021999821683" stroke-linejoin="round" stroke-linecap="round" filter="url(#fuzzy_av_1779093954979_d0u5cnfr3xu)" opacity="0.9226402327269233"/><polyline points="-59.7,-12.8 -59.8,-14.7 -59.9,-16.3 -59.9,-16.5 -59.8,-19.0 -59.7,-19.7 -59.6,-19.2 -59.5,-19.7 -59.4,-20.6 -59.2,-20.3 -58.9,-20.4 -58.5,-19.6 -58.1,-18.7 -57.6,-16.0 -57.1,-14.3 -56.6,-11.6 -56.1,-9.2 -55.6,-5.6 -55.1,-1.0 -54.5,3.1 -54.0,8.7 -53.7,13.8" fill="none" stroke="rgb(120,84,60)" stroke-width="2.588770465232786" stroke-linejoin="round" stroke-linecap="round" filter="url(#fuzzy_av_1779093954979_d0u5cnfr3xu)" opacity="0.757977415011864"/><polyline points="31.3,-64.1 33.2,-63.9 34.6,-63.6 35.5,-61.7 35.8,-62.3 35.8,-61.3 35.3,-60.4 34.3,-60.4 32.8,-60.7 30.7,-59.4 28.1,-59.4 24.9,-59.6 21.2,-58.9 16.9,-59.8 11.9,-59.9 6.3,-59.1 -0.2,-60.7 -7.5,-60.1 -15.6,-62.4 -24.2,-62.6 -33.0,-63.3" fill="none" stroke="rgb(120,84,60)" stroke-width="1.391618875982775" stroke-linejoin="round" stroke-linecap="round" filter="url(#fuzzy_av_1779093954979_d0u5cnfr3xu)" opacity="0.9507985655042713"/><polyline points="0.5,-70.8 3.0,-71.5 5.0,-70.6 6.6,-70.1 7.6,-69.8 8.2,-70.1 8.3,-68.2 8.1,-67.2 7.6,-65.4 6.7,-64.4 5.4,-62.7 3.6,-59.9 1.4,-58.4 -1.3,-55.3 -4.4,-54.2 -7.9,-50.5 -11.9,-46.8 -16.2,-44.4 -21.1,-40.0 -26.4,-37.3 -32.1,-33.6 -38.3,-28.4 -44.9,-22.7 -52.0,-17.2 -59.7,-12.0" fill="none" stroke="rgb(120,84,60)" stroke-width="0.7110757706172405" stroke-linejoin="round" stroke-linecap="round" filter="url(#fuzzy_av_1779093954979_d0u5cnfr3xu)" opacity="0.8517516354939445"/><polyline points="-59.4,-10.8 -59.3,-10.1 -59.1,-12.5 -58.6,-16.2 -57.9,-19.5 -56.9,-22.2 -55.9,-24.8 -54.6,-28.7 -53.3,-31.8 -51.9,-34.1 -50.5,-38.4 -49.1,-41.9 -47.6,-46.0 -46.2,-47.5 -45.0,-51.7 -44.2,-54.3 -43.8,-55.4" fill="none" stroke="rgb(120,84,60)" stroke-width="1.0974129364864975" stroke-linejoin="round" stroke-linecap="round" filter="url(#fuzzy_av_1779093954979_d0u5cnfr3xu)" opacity="0.9200310924548172"/><polyline points="21.1,-68.2 22.2,-68.3 21.9,-68.0 21.2,-66.9 20.1,-63.8 18.3,-63.2 15.7,-59.8 12.1,-57.3 7.6,-53.6 2.4,-50.3 -3.5,-46.8 -10.4,-41.8 -18.1,-35.6 -26.9,-30.0 -36.7,-23.6 -47.5,-16.0 -59.4,-10.4" fill="none" stroke="rgb(120,84,60)" stroke-width="1.761452520481286" stroke-linejoin="round" stroke-linecap="round" filter="url(#fuzzy_av_1779093954979_d0u5cnfr3xu)" opacity="0.894133434244144"/><polyline points="-4.1,-70.9 -1.9,-72.2 -0.5,-70.6 0.1,-70.5 0.1,-69.9 0.0,-69.2 -0.3,-68.0 -0.9,-66.7 -1.9,-64.9 -3.5,-62.2 -5.7,-58.3 -8.4,-56.0 -11.7,-53.6 -15.5,-49.7 -19.9,-44.4 -25.0,-41.4 -30.7,-35.6 -37.0,-31.0 -44.0,-24.6 -51.5,-18.0 -59.4,-9.2" fill="none" stroke="rgb(120,84,60)" stroke-width="1.6803777332617766" stroke-linejoin="round" stroke-linecap="round" filter="url(#fuzzy_av_1779093954979_d0u5cnfr3xu)" opacity="0.9163055429476569"/><polyline points="-57.0,-34.5 -57.0,-36.0 -56.6,-37.5 -56.2,-37.2 -55.7,-37.8 -55.2,-38.5 -54.7,-39.2 -54.4,-36.9 -54.1,-36.8 -54.0,-35.2 -54.0,-31.6 -54.0,-28.3 -54.2,-24.7 -54.5,-19.8 -54.9,-15.5 -55.3,-8.3 -55.7,-0.9 -55.8,7.6" fill="none" stroke="rgb(120,84,60)" stroke-width="0.8539700832134506" stroke-linejoin="round" stroke-linecap="round" filter="url(#fuzzy_av_1779093954979_d0u5cnfr3xu)" opacity="0.9420760952707662"/><polyline points="-59.6,-21.6 -59.5,-22.6 -58.9,-22.7 -57.9,-25.0 -56.5,-27.6 -54.8,-29.3 -52.7,-31.3 -50.4,-32.5 -47.9,-35.7 -45.1,-37.8 -42.1,-40.4 -38.9,-41.3 -35.5,-43.8 -31.8,-47.1 -28.0,-48.7 -24.1,-52.2 -20.0,-53.3 -15.8,-56.2 -11.7,-58.9 -7.6,-59.6 -3.6,-62.8 0.3,-64.4 4.0,-67.2 7.5,-69.3 9.7,-71.1" fill="none" stroke="rgb(120,84,60)" stroke-width="2.4831448250415664" stroke-linejoin="round" stroke-linecap="round" filter="url(#fuzzy_av_1779093954979_d0u5cnfr3xu)" opacity="0.8066375934024627"/><polyline points="-54.3,-41.8 -53.6,-42.6 -52.6,-45.6 -51.3,-46.2 -49.9,-46.9 -48.4,-48.6 -46.7,-50.6 -45.0,-52.0 -43.3,-52.9 -41.5,-54.6 -39.8,-56.4 -38.2,-58.4 -36.6,-59.5 -35.1,-60.4 -33.8,-62.8 -32.8,-62.8 -32.4,-63.3 -32.5,-63.0 -32.7,-64.2" fill="none" stroke="rgb(120,84,60)" stroke-width="1.6633287238825774" stroke-linejoin="round" stroke-linecap="round" filter="url(#fuzzy_av_1779093954979_d0u5cnfr3xu)" opacity="0.8482958471997578"/><polyline points="-52.7,-45.3 -52.3,-45.2 -51.6,-46.5 -50.8,-47.3 -50.0,-49.6 -49.2,-49.1 -48.4,-50.7 -47.6,-52.7 -46.9,-52.3 -46.3,-54.0 -45.8,-54.2 -45.5,-54.5 -45.4,-54.5 -45.5,-53.8 -45.9,-54.4 -46.5,-53.1 -47.5,-52.6 -48.8,-51.1 -51.1,-48.3" fill="none" stroke="rgb(120,84,60)" stroke-width="1.2811509178260918" stroke-linejoin="round" stroke-linecap="round" filter="url(#fuzzy_av_1779093954979_d0u5cnfr3xu)" opacity="0.7565080688492924"/><polyline points="-50.5,-47.7 -50.3,-49.5 -49.3,-49.6 -48.0,-50.3 -46.3,-50.6 -44.4,-52.7 -42.2,-53.0 -39.7,-55.4 -37.1,-55.9 -34.2,-56.3 -31.2,-58.0 -28.1,-60.2 -24.9,-61.4 -21.6,-62.1 -18.3,-62.8 -15.1,-64.6 -12.0,-64.6 -9.0,-64.9 -6.1,-67.2 -3.4,-67.0 -0.9,-68.3 1.5,-68.5 3.7,-70.4 5.2,-71.0 4.4,-70.6" fill="none" stroke="rgb(120,84,60)" stroke-width="1.4572484376687633" stroke-linejoin="round" stroke-linecap="round" filter="url(#fuzzy_av_1779093954979_d0u5cnfr3xu)" opacity="0.9384609924763396"/><polyline points="9.7,-70.3 12.4,-71.1 13.8,-69.5 14.7,-70.0 15.2,-69.0 15.3,-67.3 15.0,-66.2 14.2,-65.2 12.9,-61.5 11.2,-61.1 9.2,-57.5 6.8,-56.4 3.9,-53.7 0.6,-48.9 -3.2,-47.1 -7.4,-41.9 -12.0,-38.3 -17.0,-33.3 -22.6,-28.5 -28.6,-25.1 -35.3,-19.4 -42.4,-12.3 -49.9,-7.4 -58.0,-0.5" fill="none" stroke="rgb(120,84,60)" stroke-width="2.5927410715542645" stroke-linejoin="round" stroke-linecap="round" filter="url(#fuzzy_av_1779093954979_d0u5cnfr3xu)" opacity="0.8284880189433397"/><polyline points="3.7,-71.1 5.6,-71.6 8.1,-70.1 10.3,-71.5 12.2,-69.9 14.1,-69.6 16.0,-69.2 17.9,-69.8 19.7,-69.0 21.3,-67.5 22.6,-68.0 23.8,-68.2 24.7,-67.0 25.4,-67.9 25.8,-66.3 25.8,-67.2 25.6,-66.4 25.0,-67.3 24.0,-68.7 22.6,-67.7 20.3,-68.6 17.0,-69.2" fill="none" stroke="rgb(120,84,60)" stroke-width="1.4645652992151552" stroke-linejoin="round" stroke-linecap="round" filter="url(#fuzzy_av_1779093954979_d0u5cnfr3xu)" opacity="0.8344302312495513"/><polyline points="-59.6,-20.4 -59.6,-20.1 -59.3,-23.0 -58.9,-23.4 -58.4,-26.0 -57.7,-27.7 -56.9,-30.0 -56.1,-32.5 -55.2,-36.4 -54.3,-37.8 -53.5,-40.2 -52.9,-42.6 -52.3,-44.6 -51.8,-45.0 -51.3,-47.7 -50.5,-48.7" fill="none" stroke="rgb(120,84,60)" stroke-width="2.008631149978089" stroke-linejoin="round" stroke-linecap="round" filter="url(#fuzzy_av_1779093954979_d0u5cnfr3xu)" opacity="0.9974091342850431"/><polyline points="-1.8,-71.5 0.5,-71.5 1.6,-71.9 2.5,-71.8 3.6,-72.2 4.8,-71.6 6.0,-71.9 6.8,-71.7 7.2,-70.4 7.1,-71.2 6.4,-70.8 5.3,-70.7 3.6,-70.6 1.3,-69.5 -1.6,-68.9 -5.5,-69.9 -10.3,-69.3 -16.0,-68.5 -22.1,-68.8" fill="none" stroke="rgb(120,84,60)" stroke-width="1.4069607833032713" stroke-linejoin="round" stroke-linecap="round" filter="url(#fuzzy_av_1779093954979_d0u5cnfr3xu)" opacity="0.8877673756080942"/><polyline points="-25.2,-67.0 -25.4,-67.4 -24.3,-66.6 -23.0,-67.8 -21.7,-68.3 -20.7,-68.6 -20.0,-69.1 -19.7,-67.6 -20.0,-66.8 -20.7,-66.2 -21.9,-66.6 -23.6,-65.0 -25.9,-64.0 -28.7,-61.5 -32.4,-59.7 -36.9,-58.4 -41.9,-55.8 -46.7,-52.3" fill="none" stroke="rgb(120,84,60)" stroke-width="1.5635426129283574" stroke-linejoin="round" stroke-linecap="round" filter="url(#fuzzy_av_1779093954979_d0u5cnfr3xu)" opacity="0.985068219299884"/><polyline points="-59.6,-20.7 -59.7,-21.8 -59.7,-22.3 -59.7,-21.3 -59.6,-23.6 -59.5,-23.6 -59.3,-25.9 -59.1,-25.9 -58.9,-25.3 -58.6,-26.5 -58.4,-24.6 -58.3,-24.9 -58.2,-22.5 -58.1,-19.7 -58.1,-17.7 -58.0,-13.2 -57.8,-8.9 -57.7,-5.3 -57.6,0.6" fill="none" stroke="rgb(120,84,60)" stroke-width="2.2000782376901507" stroke-linejoin="round" stroke-linecap="round" filter="url(#fuzzy_av_1779093954979_d0u5cnfr3xu)" opacity="0.7647735604883286"/><polyline points="-59.0,-7.6 -59.0,-8.4 -58.4,-11.7 -57.4,-13.6 -55.8,-16.6 -53.7,-19.4 -51.2,-21.6 -48.3,-25.7 -45.0,-28.4 -41.2,-32.2 -37.2,-34.6 -32.8,-39.2 -28.2,-42.6 -23.4,-46.6 -18.4,-50.4 -13.3,-55.1 -8.0,-59.0 -2.4,-62.9 3.5,-66.7 9.7,-70.6" fill="none" stroke="rgb(120,84,60)" stroke-width="1.3740835973666612" stroke-linejoin="round" stroke-linecap="round" filter="url(#fuzzy_av_1779093954979_d0u5cnfr3xu)" opacity="0.9780971983121414"/><polyline points="59.8,-22.4 59.8,-20.2 59.7,-18.7 59.6,-16.0 59.4,-13.5 59.2,-9.5 58.9,-6.0 58.5,-4.7 57.9,-0.9 57.2,1.1 56.4,5.1 55.5,6.5 54.5,9.5 53.4,13.2 52.3,15.8 51.2,17.5 49.9,19.5 48.6,22.7 47.2,25.7 45.7,27.4 44.1,30.6 42.5,31.7 40.9,33.5 39.2,36.0 37.4,38.1 35.7,39.4 33.8,41.8 31.9,44.3 30.0,45.0 27.9,47.5 25.9,47.9 23.8,50.3 21.8,51.4 19.9,53.1 17.9,53.1 15.7,53.5 13.4,54.3 10.9,56.7 9.1,55.6" fill="none" stroke="rgb(120,84,60)" stroke-width="2.0192619450295375" stroke-linejoin="round" stroke-linecap="round" filter="url(#fuzzy_av_1779093954979_d0u5cnfr3xu)" opacity="0.9810196373781448"/><polyline points="58.8,-30.0 59.5,-25.8 60.2,-23.6 60.9,-20.7 61.5,-17.1 61.9,-14.4 62.3,-11.4 62.9,-8.9 63.8,-7.4 64.8,-3.8 65.7,-1.7 66.2,1.0 66.2,4.1 65.7,6.8 64.9,10.2 64.0,12.0 62.9,15.4 62.0,17.4 61.2,19.1 60.5,23.3 59.8,24.2 59.1,28.5 58.1,30.1 56.8,31.8 55.2,34.8 53.3,37.6 51.2,39.1 48.9,41.8 46.5,43.3 43.9,44.5 41.3,45.9 39.4,47.6" fill="none" stroke="rgb(120,84,60)" stroke-width="0.7644669325126515" stroke-linejoin="round" stroke-linecap="round" filter="url(#fuzzy_av_1779093954979_d0u5cnfr3xu)" opacity="0.8452067571302824"/><polyline points="57.7,-33.5 58.5,-30.2 59.1,-27.5 59.5,-23.4 59.8,-21.7 60.0,-18.3 60.0,-15.6 60.0,-13.4 60.0,-10.1 59.8,-7.9 59.5,-5.2 59.2,-1.0 58.8,0.7 58.4,4.2 58.0,6.2 57.5,9.9 57.0,12.9 56.3,15.1 55.4,17.2 54.3,20.1 53.0,23.2 51.5,24.6 49.9,28.1 48.4,30.1 46.8,32.6 45.4,33.1 43.9,36.9 42.3,37.1 40.7,39.1 39.0,41.9 37.7,42.7 37.3,44.2" fill="none" stroke="rgb(120,84,60)" stroke-width="2.4974852236410956" stroke-linejoin="round" stroke-linecap="round" filter="url(#fuzzy_av_1779093954979_d0u5cnfr3xu)" opacity="0.8257601200269319"/><polyline points="58.2,-32.0 63.5,-31.2 64.0,-27.7 64.2,-25.1 65.1,-23.3 66.2,-20.5 66.7,-17.4 66.5,-15.6 65.7,-11.5 64.7,-10.2 63.8,-7.4 63.0,-3.2 62.5,-1.6 62.2,1.1 62.2,3.8 62.3,7.7 62.5,9.0 62.8,13.2 63.2,14.0 63.6,17.1 63.8,19.0 63.6,22.1 63.0,24.1 61.8,28.1 60.1,29.7 58.0,32.3 55.8,34.3 53.7,37.7 51.9,39.1 50.6,41.4 49.6,42.7 47.8,45.4" fill="none" stroke="rgb(120,84,60)" stroke-width="2.451727911729306" stroke-linejoin="round" stroke-linecap="round" filter="url(#fuzzy_av_1779093954979_d0u5cnfr3xu)" opacity="0.7971550482391276"/><polyline points="55.7,-38.8 57.1,-36.2 58.2,-32.9 59.0,-30.7 59.6,-28.2 60.1,-23.8 60.6,-21.6 61.1,-19.2 61.5,-15.2 61.8,-12.7 61.8,-10.5 61.7,-7.5 61.4,-5.7 61.2,-2.5 60.9,0.5 60.7,3.8 60.5,6.8 60.2,8.3 59.9,12.2 59.6,13.3 59.0,15.8 58.1,19.6 56.8,22.5 55.3,24.3 54.2,26.8" fill="none" stroke="rgb(120,84,60)" stroke-width="2.28337346106502" stroke-linejoin="round" stroke-linecap="round" filter="url(#fuzzy_av_1779093954979_d0u5cnfr3xu)" opacity="0.9131493830045012"/><polyline points="56.1,-38.9 56.8,-35.9 57.7,-33.0 58.5,-31.5 59.1,-28.1 59.6,-25.7 60.0,-23.2 60.3,-20.1 60.4,-18.8 60.4,-14.2 60.3,-11.7 60.1,-9.2 59.8,-7.9 59.4,-4.8 59.0,-0.8 58.4,1.7 57.8,3.6 57.2,7.4 56.4,9.5 55.6,12.7 54.7,15.1 53.7,17.6 52.6,18.7 51.4,22.9 50.1,25.6 48.6,26.8 47.0,30.3 45.5,31.8" fill="none" stroke="rgb(120,84,60)" stroke-width="1.8605284515172211" stroke-linejoin="round" stroke-linecap="round" filter="url(#fuzzy_av_1779093954979_d0u5cnfr3xu)" opacity="0.9002591622596706"/><polyline points="56.1,-39.7 56.9,-38.5 59.4,-35.4 61.9,-33.6 63.5,-30.7 64.3,-26.8 64.7,-25.2 64.9,-20.8 64.9,-18.5 64.9,-16.4 64.8,-13.7 64.8,-9.8 64.8,-8.5 65.1,-5.2 65.4,-1.4 65.8,-0.0 66.2,4.1 66.5,7.5 66.5,8.3 66.3,12.4 65.7,14.4 64.9,17.0 63.9,19.6 62.8,21.8 61.5,24.9 60.4,27.0 59.4,29.1 58.6,31.1 57.8,34.5 56.7,35.9 55.1,37.3 53.1,39.7 50.8,41.6 49.1,43.6" fill="none" stroke="rgb(120,84,60)" stroke-width="0.9847187240211208" stroke-linejoin="round" stroke-linecap="round" filter="url(#fuzzy_av_1779093954979_d0u5cnfr3xu)" opacity="0.7757346515575525"/><polyline points="49.7,-50.5 51.1,-47.8 52.5,-45.4 53.8,-43.1 55.0,-41.5 56.0,-38.0 57.0,-36.1 57.9,-34.1 58.6,-31.4 59.2,-28.7 59.7,-24.9 60.0,-21.7 60.2,-18.3 60.2,-15.5 60.2,-13.7 60.0,-11.2 59.8,-7.1 59.4,-5.2 58.9,-2.7 58.4,1.7 57.7,2.6 57.0,6.2 56.3,8.4 55.5,12.2 54.6,15.0 53.6,17.1 52.4,19.5 51.2,21.7 49.8,23.7 48.3,27.1 46.8,28.8 45.3,32.6 43.8,33.5 42.3,36.3 40.7,38.3" fill="none" stroke="rgb(120,84,60)" stroke-width="1.5704023908871054" stroke-linejoin="round" stroke-linecap="round" filter="url(#fuzzy_av_1779093954979_d0u5cnfr3xu)" opacity="0.9894311060135574"/><polyline points="47.4,-52.9 49.0,-50.2 50.8,-49.6 52.4,-46.8 53.8,-43.6 55.1,-41.9 56.2,-38.1 57.2,-36.2 58.0,-34.5 58.7,-31.8 59.2,-29.5 59.6,-25.4 59.9,-23.8 60.1,-21.4 60.2,-18.9 60.3,-15.3 60.3,-12.3 60.1,-10.3 59.9,-6.3 59.6,-4.1 59.1,-1.0 58.6,0.9 58.0,3.5 57.3,6.5 56.5,9.1 55.6,12.6 54.6,14.7 53.5,16.8 52.3,19.3 51.0,23.0 49.6,25.4 48.2,27.9 46.7,30.1 45.2,31.9 43.5,34.1 41.6,36.4 39.6,38.5 38.2,41.0" fill="none" stroke="rgb(120,84,60)" stroke-width="0.9976887242864131" stroke-linejoin="round" stroke-linecap="round" filter="url(#fuzzy_av_1779093954979_d0u5cnfr3xu)" opacity="0.788155235581095"/><polyline points="44.5,-54.8 46.0,-54.3 47.4,-51.4 48.1,-49.6 48.7,-47.4 49.3,-45.6 50.1,-44.4 51.1,-41.7 52.1,-39.7 52.7,-35.9 52.9,-35.0 52.7,-31.0 52.1,-29.4 51.3,-25.8 50.3,-22.9 49.1,-20.9 47.6,-17.5 46.1,-13.4 44.9,-12.3 44.1,-9.6 43.7,-6.3 43.1,-3.1 41.5,-1.4 38.9,1.6" fill="none" stroke="rgb(120,84,60)" stroke-width="2.164774047099253" stroke-linejoin="round" stroke-linecap="round" filter="url(#fuzzy_av_1779093954979_d0u5cnfr3xu)" opacity="0.9778406811207656"/><polyline points="40.5,-58.6 42.5,-58.3 44.8,-56.5 47.2,-54.2 49.5,-51.4 51.7,-50.9 53.8,-47.3 55.7,-46.5 57.6,-44.1 59.3,-40.9 60.9,-38.7 62.5,-35.5 64.1,-33.3 65.8,-32.0 67.4,-29.3 68.9,-25.8 70.1,-23.2 71.1,-19.9 72.0,-16.7 72.8,-13.6 73.6,-12.0 74.3,-8.0 75.1,-4.8 75.8,-2.7 76.4,1.1 76.7,3.0 76.7,6.4 76.6,9.4 76.4,10.8 76.1,14.6 75.6,15.9 75.4,17.7" fill="none" stroke="rgb(120,84,60)" stroke-width="1.8137998665338053" stroke-linejoin="round" stroke-linecap="round" filter="url(#fuzzy_av_1779093954979_d0u5cnfr3xu)" opacity="0.8164653612543112"/><polyline points="35.4,-61.9 39.1,-60.7 42.3,-58.8 45.1,-57.3 47.8,-54.9 50.2,-54.1 52.4,-50.3 54.6,-48.9 56.7,-46.3 58.7,-44.6 60.6,-42.2 62.3,-39.3 63.9,-36.7 65.2,-34.9 66.4,-32.0 67.4,-29.0 68.3,-26.7 69.1,-23.4 69.9,-20.6 70.7,-18.6 71.6,-16.3 72.7,-12.5 74.0,-10.1 75.3,-8.1 76.6,-4.3 77.7,-1.7 78.3,0.9 78.4,4.3 78.2,5.3 77.7,9.6 77.1,10.6 76.5,13.8 76.0,16.2 75.3,18.0 73.5,22.6" fill="none" stroke="rgb(120,84,60)" stroke-width="2.242707353537848" stroke-linejoin="round" stroke-linecap="round" filter="url(#fuzzy_av_1779093954979_d0u5cnfr3xu)" opacity="0.87232497803775"/><polyline points="31.3,-65.8 35.8,-62.7 39.3,-61.3 42.1,-58.9 44.4,-57.2 46.6,-56.9 48.9,-53.4 51.4,-53.1 54.0,-50.9 56.7,-47.7 59.2,-46.6 61.5,-44.2 63.5,-41.3 65.4,-40.2 67.1,-36.9 68.8,-35.7 70.7,-32.2 72.7,-30.2 74.8,-25.6 76.8,-23.8 78.1,-20.0 79.0,-17.2 81.4,-16.6" fill="none" stroke="rgb(120,84,60)" stroke-width="1.519814885395676" stroke-linejoin="round" stroke-linecap="round" filter="url(#fuzzy_av_1779093954979_d0u5cnfr3xu)" opacity="0.8420557766852426"/><polyline points="30.7,-65.4 31.2,-64.1 33.2,-64.8 35.8,-61.5 38.5,-61.2 41.2,-59.6 43.7,-57.7 46.0,-55.5 48.4,-53.4 50.8,-51.2 53.2,-48.7 55.5,-47.8 57.6,-44.4 59.3,-41.9 60.8,-40.1 62.0,-36.7 63.1,-34.9 64.3,-31.7 65.5,-29.9 66.8,-27.7 68.0,-25.0 69.2,-22.4 70.1,-20.3 70.6,-16.2 70.6,-13.6" fill="none" stroke="rgb(120,84,60)" stroke-width="0.8297215417699761" stroke-linejoin="round" stroke-linecap="round" filter="url(#fuzzy_av_1779093954979_d0u5cnfr3xu)" opacity="0.7694763155026422"/><polyline points="28.3,-67.2 29.9,-65.8 33.1,-65.0 36.5,-62.7 39.5,-62.0 42.1,-59.8 44.7,-58.0 47.4,-56.5 50.0,-53.7 52.4,-52.9 54.5,-51.3 56.4,-48.9 58.1,-45.3 59.7,-43.7 61.4,-40.9 63.2,-39.1 65.1,-37.4 67.1,-35.2 69.0,-31.3 70.9,-29.4 72.7,-25.7 74.4,-22.8 75.9,-20.9 77.2,-18.2 78.2,-14.9 78.7,-12.2 78.7,-8.2 78.8,-4.5" fill="none" stroke="rgb(120,84,60)" stroke-width="1.031170859421618" stroke-linejoin="round" stroke-linecap="round" filter="url(#fuzzy_av_1779093954979_d0u5cnfr3xu)" opacity="0.8618568016849898"/><polyline points="21.1,-68.0 22.8,-68.0 25.4,-67.5 28.0,-65.4 30.5,-64.7 33.0,-63.1 35.5,-61.9 38.0,-60.2 40.4,-59.0 42.7,-57.3 44.8,-54.9 46.7,-52.9 48.5,-51.0 50.2,-48.9 51.8,-46.8 53.4,-45.8 54.8,-43.1 56.0,-39.7 57.1,-38.6 58.0,-34.4 58.9,-32.8 59.6,-31.2 60.3,-27.4 60.8,-24.7 61.2,-22.9 61.5,-19.9 61.6,-17.5 61.7,-12.4" fill="none" stroke="rgb(120,84,60)" stroke-width="2.0461797998214606" stroke-linejoin="round" stroke-linecap="round" filter="url(#fuzzy_av_1779093954979_d0u5cnfr3xu)" opacity="0.7924638542493971"/><polyline points="14.5,-71.1 17.4,-69.9 20.0,-68.4 22.5,-69.2 24.9,-66.6 27.3,-66.4 29.8,-64.9 32.4,-65.1 35.2,-62.6 37.8,-61.7 40.4,-58.7 42.8,-57.5 45.0,-56.5 47.1,-53.9 49.0,-52.5 50.8,-51.0 52.4,-49.2 54.0,-47.1 55.4,-45.0 56.7,-41.8 58.0,-40.1 59.0,-36.4 60.0,-35.8 60.8,-32.9 61.6,-29.9 62.2,-26.3 62.8,-23.2 63.2,-21.4 63.4,-18.0 63.6,-14.6 63.7,-12.2" fill="none" stroke="rgb(120,84,60)" stroke-width="2.597563542055066" stroke-linejoin="round" stroke-linecap="round" filter="url(#fuzzy_av_1779093954979_d0u5cnfr3xu)" opacity="0.9237436745589966"/><polyline points="11.1,-70.9 14.4,-70.4 17.4,-69.8 20.3,-68.4 23.1,-67.3 25.8,-68.3 28.6,-66.5 31.4,-64.6 34.4,-64.9 37.5,-62.9 40.7,-61.5 44.0,-60.0 47.1,-57.2 50.1,-55.9 52.9,-55.2 55.4,-52.4 57.7,-50.1 60.1,-48.4 62.6,-46.3 65.4,-44.5 68.4,-42.4 71.3,-39.2 74.0,-38.6 76.2,-36.6 78.0,-33.0 80.6,-32.2" fill="none" stroke="rgb(120,84,60)" stroke-width="2.0337114891500114" stroke-linejoin="round" stroke-linecap="round" filter="url(#fuzzy_av_1779093954979_d0u5cnfr3xu)" opacity="0.9428114770046165"/><polyline points="3.0,-72.4 5.0,-70.7 7.7,-71.6 10.5,-70.0 13.3,-71.0 16.3,-70.5 19.3,-69.5 22.2,-68.1 25.0,-67.2 27.7,-66.2 30.4,-65.5 33.0,-63.1 35.6,-63.1 38.2,-61.3 40.8,-59.0 43.2,-58.5 45.5,-55.0 47.7,-53.5 49.7,-51.1 51.7,-50.3 53.5,-47.9 55.2,-44.4 56.8,-43.3 58.2,-41.1 59.5,-38.9 60.7,-36.2 61.9,-32.8 63.0,-31.7 63.7,-28.3" fill="none" stroke="rgb(120,84,60)" stroke-width="0.938277754319856" stroke-linejoin="round" stroke-linecap="round" filter="url(#fuzzy_av_1779093954979_d0u5cnfr3xu)" opacity="0.9480478166704707"/><polyline points="3.0,-71.8 5.4,-70.5 8.4,-70.3 11.8,-71.1 15.4,-70.6 19.0,-69.0 22.6,-69.5 26.1,-67.6 29.4,-67.4 32.6,-66.0 35.5,-64.4 38.3,-63.7 41.1,-62.1 44.2,-61.2 47.6,-60.1 51.2,-58.2 54.9,-56.5 58.7,-53.6 62.6,-51.9 66.5,-50.6 70.2,-47.4 73.6,-45.0 76.3,-42.2 78.5,-40.2 80.3,-39.6 82.3,-37.2" fill="none" stroke="rgb(120,84,60)" stroke-width="2.0084812440011826" stroke-linejoin="round" stroke-linecap="round" filter="url(#fuzzy_av_1779093954979_d0u5cnfr3xu)" opacity="0.8683398565721508"/><polyline points="1.5,-71.6 2.5,-71.5 5.9,-71.7 9.8,-71.0 13.6,-71.1 17.0,-69.2 20.1,-68.3 22.9,-68.3 25.5,-67.7 28.2,-66.8 30.9,-64.3 33.6,-63.5 36.2,-62.5 38.7,-62.0 41.0,-58.7 43.3,-57.1 45.5,-55.8 47.7,-53.4 49.9,-51.8 52.1,-50.8 54.2,-47.8 56.3,-46.3 58.3,-44.9 60.0,-42.0 61.6,-38.8 63.0,-37.6 64.3,-35.3 65.3,-32.3 66.2,-30.2 66.9,-27.0 67.4,-23.3 67.7,-20.3 67.9,-17.2 68.1,-14.4 68.4,-12.3 68.7,-8.7 68.8,-7.3 69.0,-4.4" fill="none" stroke="rgb(120,84,60)" stroke-width="2.186240238956457" stroke-linejoin="round" stroke-linecap="round" filter="url(#fuzzy_av_1779093954979_d0u5cnfr3xu)" opacity="0.9108437122634866"/><polyline points="-4.6,-70.7 -2.8,-70.9 -0.2,-71.6 2.9,-72.2 6.5,-70.8 10.3,-69.7 14.1,-70.0 17.7,-70.3 21.3,-69.7 24.7,-67.9 28.1,-67.7 31.3,-67.2 34.5,-65.6 37.6,-64.3 40.7,-63.0 43.7,-60.7 46.6,-59.3 49.4,-57.5 51.9,-56.2 54.2,-54.0 56.3,-52.1 58.5,-50.6 60.7,-49.2 63.1,-46.7 65.6,-45.4 68.1,-41.7 70.5,-39.7 72.5,-37.3 74.2,-34.9 75.7,-32.4 77.1,-30.7 78.6,-27.5 80.3,-23.0 82.6,-21.5" fill="none" stroke="rgb(120,84,60)" stroke-width="1.989963098653935" stroke-linejoin="round" stroke-linecap="round" filter="url(#fuzzy_av_1779093954979_d0u5cnfr3xu)" opacity="0.8878438406247124"/><polyline points="-5.5,-70.7 -3.8,-72.2 -1.4,-71.5 1.1,-70.5 3.6,-71.1 6.0,-71.3 8.4,-71.3 10.9,-70.8 13.4,-69.5 15.9,-69.4 18.3,-68.1 20.6,-68.4 22.8,-66.0 24.7,-64.8 26.4,-64.2 27.8,-62.0 28.9,-61.1 29.7,-60.6 30.1,-59.2 30.4,-57.3 30.7,-54.3 30.9,-52.1 30.5,-50.6" fill="none" stroke="rgb(120,84,60)" stroke-width="2.0792134996932914" stroke-linejoin="round" stroke-linecap="round" filter="url(#fuzzy_av_1779093954979_d0u5cnfr3xu)" opacity="0.8220742566400392"/><polyline points="-10.2,-70.6 -6.2,-72.1 -3.2,-71.2 -0.5,-71.5 2.5,-71.6 5.8,-70.7 9.3,-71.4 12.8,-70.5 16.2,-70.5 19.4,-69.8 22.3,-69.3 25.2,-67.3 27.9,-66.0 30.6,-65.9 33.4,-64.6 36.2,-62.7 39.1,-61.4 41.9,-60.1 44.6,-57.6 47.2,-56.3 49.6,-54.8 51.9,-52.5 54.0,-50.4 55.9,-50.1 57.9,-46.7 60.1,-44.9 61.6,-43.8" fill="none" stroke="rgb(120,84,60)" stroke-width="2.4669191766262593" stroke-linejoin="round" stroke-linecap="round" filter="url(#fuzzy_av_1779093954979_d0u5cnfr3xu)" opacity="0.8485760963463272"/><polyline points="-12.5,-71.3 -7.6,-70.1 -4.3,-70.8 -1.4,-70.5 1.5,-70.8 4.4,-71.7 7.3,-70.6 10.3,-70.6 13.2,-70.3 16.1,-69.9 19.1,-68.8 22.0,-67.6 24.8,-66.9 27.6,-65.9 30.3,-64.6 33.0,-64.1 35.8,-61.7 38.5,-60.2 41.2,-60.3 43.8,-57.7 46.3,-56.1 48.7,-54.4 51.0,-52.7 53.3,-50.1 55.5,-48.6 57.6,-46.0 59.6,-43.1 61.2,-40.1 62.6,-38.4 63.8,-35.1 65.5,-32.8" fill="none" stroke="rgb(120,84,60)" stroke-width="2.2890162383264756" stroke-linejoin="round" stroke-linecap="round" filter="url(#fuzzy_av_1779093954979_d0u5cnfr3xu)" opacity="0.920810986998336"/><polyline points="-12.5,-70.3 -8.0,-71.6 -4.7,-70.4 -1.6,-70.5 1.6,-71.3 4.7,-72.0 7.7,-71.4 10.7,-71.4 13.7,-69.5 16.6,-70.2 19.6,-69.6 22.6,-67.7 25.7,-67.2 28.9,-66.3 32.1,-65.0 35.4,-63.1 38.6,-62.9 41.7,-61.6 44.6,-58.5 47.5,-58.3 50.4,-55.5 53.2,-54.0 56.0,-52.0 58.6,-50.2 61.1,-46.8 63.2,-44.3 65.0,-41.9 66.6,-41.1 68.1,-37.6 69.5,-34.5 71.1,-33.1 72.8,-31.2 74.6,-27.4 76.3,-25.2 77.8,-22.5 79.2,-18.7 80.2,-17.5 80.7,-14.6 80.9,-12.0" fill="none" stroke="rgb(120,84,60)" stroke-width="1.6416046707956773" stroke-linejoin="round" stroke-linecap="round" filter="url(#fuzzy_av_1779093954979_d0u5cnfr3xu)" opacity="0.9129015606038204"/><polyline points="-21.7,-68.1 -16.9,-69.9 -13.3,-69.0 -10.2,-69.6 -7.2,-70.5 -4.4,-71.4 -1.8,-70.7 0.6,-71.6 2.9,-71.4 5.1,-70.4 7.2,-71.3 9.3,-69.4 11.2,-70.3 13.0,-68.9 14.7,-67.2 16.4,-66.9 18.2,-65.6 20.0,-66.1 21.9,-64.7 23.6,-62.0 24.9,-60.6 25.5,-59.1 25.6,-58.6 25.1,-55.0 24.4,-53.1 23.5,-51.1 22.7,-48.8 22.0,-47.2 21.2,-44.8 20.3,-42.8 18.9,-40.2 17.3,-37.9 15.8,-35.0 14.7,-33.7 13.7,-31.0 12.0,-27.7 8.5,-24.8 5.4,-22.3" fill="none" stroke="rgb(120,84,60)" stroke-width="2.5503834756615733" stroke-linejoin="round" stroke-linecap="round" filter="url(#fuzzy_av_1779093954979_d0u5cnfr3xu)" opacity="0.8734345764876275"/><polyline points="-22.1,-68.6 -18.2,-68.2 -15.1,-69.9 -12.3,-69.8 -9.4,-71.6 -6.5,-71.1 -3.5,-70.5 -0.4,-71.1 2.9,-71.8 6.3,-70.2 10.0,-71.1 13.6,-69.3 17.2,-69.3 20.7,-68.7 24.0,-68.3 27.2,-66.7 30.2,-65.7 33.2,-66.1 36.0,-65.0 38.9,-63.4 41.7,-61.5 44.4,-60.4 47.1,-57.6 49.8,-55.7 52.5,-54.5 55.2,-52.9 57.9,-50.6 60.5,-48.8 63.0,-47.1 65.5,-45.1 67.7,-41.8 69.7,-39.5 71.5,-37.4 73.1,-35.6 74.6,-34.1" fill="none" stroke="rgb(120,84,60)" stroke-width="0.7619392499713625" stroke-linejoin="round" stroke-linecap="round" filter="url(#fuzzy_av_1779093954979_d0u5cnfr3xu)" opacity="0.9254561811241944"/><polyline points="-22.1,-67.9 -18.2,-68.4 -15.1,-69.4 -12.3,-69.3 -9.5,-70.6 -6.7,-70.8 -3.8,-70.3 -0.8,-72.0 2.3,-70.6 5.6,-71.7 9.0,-71.2 12.5,-71.1 15.9,-69.4 19.2,-68.6 22.3,-68.0 25.4,-67.2 28.4,-66.0 31.4,-66.6 34.5,-63.6 37.6,-62.7 40.7,-62.2 43.8,-59.4 46.9,-58.9 49.9,-57.4 52.9,-56.1 55.7,-54.3 58.2,-50.9 60.3,-49.1 62.2,-47.9 64.6,-44.8" fill="none" stroke="rgb(120,84,60)" stroke-width="2.178920718756773" stroke-linejoin="round" stroke-linecap="round" filter="url(#fuzzy_av_1779093954979_d0u5cnfr3xu)" opacity="0.9906358558307161"/><polyline points="-22.1,-67.8 -18.5,-69.2 -15.7,-69.4 -12.8,-70.6 -9.9,-70.5 -6.9,-70.4 -3.9,-70.7 -0.7,-71.9 2.5,-71.7 5.9,-71.1 9.3,-70.6 12.7,-71.0 16.0,-70.0 19.2,-68.9 22.3,-67.5 25.4,-68.0 28.4,-66.0 31.3,-64.8 34.2,-64.1 37.0,-63.4 39.7,-61.3 42.3,-59.6 44.7,-57.9 47.1,-55.6 49.5,-53.7 51.8,-52.1 54.0,-50.5 56.2,-49.5 58.4,-46.5 60.4,-44.9 62.4,-41.5 64.2,-40.1 65.8,-37.9 67.1,-35.2 68.3,-32.9 69.2,-29.1 70.0,-26.5 70.7,-24.1 71.3,-21.3" fill="none" stroke="rgb(120,84,60)" stroke-width="1.4233632956975026" stroke-linejoin="round" stroke-linecap="round" filter="url(#fuzzy_av_1779093954979_d0u5cnfr3xu)" opacity="0.9356722264974592"/><polyline points="-26.7,-66.5 -22.4,-67.5 -18.6,-69.8 -15.4,-68.8 -12.4,-70.0 -9.4,-69.8 -6.5,-69.9 -3.5,-70.9 -0.3,-70.5 2.9,-70.6 6.3,-70.9 9.8,-70.6 13.2,-70.6 16.6,-70.5 19.9,-68.7 23.1,-67.7 26.3,-68.1 29.5,-67.2 32.8,-65.1 36.1,-64.4 39.5,-63.3 42.8,-60.8 46.0,-60.1 49.2,-58.0 52.1,-56.5 55.0,-55.3 57.7,-52.7 60.2,-51.3 62.7,-49.3 65.2,-47.6 67.6,-45.4 70.0,-42.5 72.3,-39.8 74.5,-36.9 76.4,-35.9 78.0,-33.2 79.4,-29.8 80.9,-27.5 82.4,-24.0" fill="none" stroke="rgb(120,84,60)" stroke-width="2.0555642002545365" stroke-linejoin="round" stroke-linecap="round" filter="url(#fuzzy_av_1779093954979_d0u5cnfr3xu)" opacity="0.8171485083401873"/><polyline points="-25.2,-66.8 -23.9,-67.7 -22.1,-68.6 -19.8,-68.4 -16.8,-69.5 -13.4,-69.8 -9.7,-69.9 -6.0,-71.8 -2.4,-71.6 1.1,-70.9 4.4,-71.4 7.6,-70.1 10.8,-71.4 14.0,-70.6 17.2,-70.0 20.6,-68.5 24.0,-69.1 27.6,-67.8 31.4,-66.0 35.2,-65.7 39.2,-63.4 43.3,-63.3 47.4,-62.5 51.5,-60.3 55.2,-57.8 58.4,-56.5 61.0,-55.6 63.3,-53.0 65.8,-50.4 68.6,-48.6" fill="none" stroke="rgb(120,84,60)" stroke-width="0.8848884746257093" stroke-linejoin="round" stroke-linecap="round" filter="url(#fuzzy_av_1779093954979_d0u5cnfr3xu)" opacity="0.7608674242275244"/><polyline points="-25.6,-66.4 -25.5,-66.8 -23.0,-68.2 -19.6,-69.4 -16.2,-70.3 -13.0,-69.3 -9.9,-70.7 -6.8,-71.0 -3.7,-71.5 -0.5,-71.8 2.9,-70.8 6.5,-69.9 10.2,-70.6 13.9,-69.8 17.6,-70.2 21.2,-69.3 24.7,-68.7 28.0,-67.2 31.2,-66.1 34.5,-65.1 37.7,-65.3 41.0,-62.7 44.5,-60.8 48.0,-59.6 51.5,-58.0 54.9,-56.0 57.9,-54.1 60.6,-53.0 63.0,-52.1 65.4,-50.2 68.0,-47.1 70.8,-44.6 73.6,-43.4 76.5,-39.4" fill="none" stroke="rgb(120,84,60)" stroke-width="1.832454329038793" stroke-linejoin="round" stroke-linecap="round" filter="url(#fuzzy_av_1779093954979_d0u5cnfr3xu)" opacity="0.9319200722374159"/><polyline points="-31.5,-65.0 -27.8,-65.8 -25.3,-67.4 -22.8,-68.0 -20.2,-68.2 -17.3,-69.3 -14.3,-70.6 -11.2,-69.6 -8.0,-70.3 -4.7,-71.5 -1.4,-71.7 2.0,-71.6 5.6,-70.2 9.4,-71.0 13.2,-70.0 16.9,-69.1 20.5,-68.9 23.8,-68.4 27.0,-67.7 30.0,-67.9 33.2,-65.9 36.6,-64.5 40.4,-63.2 44.4,-61.6 48.2,-60.0 51.1,-58.7 53.4,-57.2" fill="none" stroke="rgb(120,84,60)" stroke-width="2.3686847161657494" stroke-linejoin="round" stroke-linecap="round" filter="url(#fuzzy_av_1779093954979_d0u5cnfr3xu)" opacity="0.8322652488283877"/><polyline points="-32.7,-63.0 -29.0,-64.9 -25.8,-66.8 -23.0,-66.4 -20.3,-67.3 -17.4,-69.7 -14.4,-70.4 -11.3,-70.3 -8.2,-70.9 -5.2,-70.2 -2.5,-70.8 0.0,-71.8 2.3,-71.6 4.3,-70.8 6.1,-70.9 7.7,-69.4 9.2,-69.6 10.5,-69.6 11.7,-68.8 12.9,-67.1 14.2,-66.8 15.3,-66.4 15.7,-64.9 14.9,-64.2" fill="none" stroke="rgb(120,84,60)" stroke-width="1.212869663401352" stroke-linejoin="round" stroke-linecap="round" filter="url(#fuzzy_av_1779093954979_d0u5cnfr3xu)" opacity="0.8911187425946091"/><polyline points="-33.6,-62.4 -34.8,-64.4 -32.3,-65.9 -28.7,-65.3 -25.1,-68.1 -21.8,-68.9 -18.5,-68.1 -15.2,-68.8 -12.0,-70.9 -8.7,-70.1 -5.5,-70.5 -2.3,-70.1 1.0,-71.4 4.2,-71.2 7.5,-70.7 10.9,-69.8 14.3,-70.2 17.7,-70.1 21.1,-69.2 24.5,-67.8 27.8,-66.9 31.0,-66.9 34.2,-64.6 37.4,-63.9 40.6,-63.1 43.9,-61.8 47.2,-60.2 50.5,-57.8 53.8,-56.7 56.9,-54.1 59.8,-53.0 62.5,-50.6 65.3,-49.0 68.4,-46.1" fill="none" stroke="rgb(120,84,60)" stroke-width="1.7950746020284076" stroke-linejoin="round" stroke-linecap="round" filter="url(#fuzzy_av_1779093954979_d0u5cnfr3xu)" opacity="0.9155591294484334"/><polyline points="-39.6,-59.8 -37.1,-62.4 -35.3,-63.0 -33.3,-64.2 -30.9,-64.5 -28.1,-66.8 -25.3,-67.6 -22.4,-68.9 -19.4,-68.4 -16.3,-69.1 -13.0,-69.6 -9.7,-69.6 -6.3,-71.6 -3.0,-71.0 0.3,-70.9 3.5,-71.1 6.8,-70.1 10.1,-71.1 13.4,-69.5 16.9,-69.1 20.5,-70.0 24.1,-69.5 27.7,-68.2 31.3,-66.8 34.7,-66.3 36.2,-66.0" fill="none" stroke="rgb(120,84,60)" stroke-width="0.9991601556535976" stroke-linejoin="round" stroke-linecap="round" filter="url(#fuzzy_av_1779093954979_d0u5cnfr3xu)" opacity="0.8546107980091424"/><polyline points="-39.6,-58.8 -36.8,-60.4 -34.6,-62.3 -32.9,-64.1 -31.1,-64.9 -29.1,-65.5 -26.7,-67.4 -23.9,-68.8 -20.9,-69.2 -17.6,-69.6 -14.1,-69.7 -10.6,-71.3 -6.9,-71.8 -3.3,-71.8 0.3,-71.2 3.9,-72.0 7.5,-71.3 11.2,-69.9 14.9,-70.7 18.8,-70.7 22.8,-70.0 26.9,-68.0 31.0,-68.8 35.3,-67.3 42.2,-64.7" fill="none" stroke="rgb(120,84,60)" stroke-width="2.3877244411775913" stroke-linejoin="round" stroke-linecap="round" filter="url(#fuzzy_av_1779093954979_d0u5cnfr3xu)" opacity="0.8302287936929629"/><polyline points="-39.6,-60.3 -38.4,-59.7 -37.0,-60.8 -35.1,-62.6 -32.8,-64.8 -30.0,-65.7 -26.9,-66.0 -23.7,-67.2 -20.4,-69.4 -17.2,-70.0 -14.0,-69.6 -10.8,-70.6 -7.7,-69.7 -4.5,-70.0 -1.3,-70.5 2.1,-70.8 5.6,-70.5 9.4,-70.0 13.2,-71.1 17.2,-70.1 21.1,-69.3 24.9,-69.5 28.4,-67.4 31.9,-67.8 35.3,-65.3 38.8,-64.0 42.6,-63.2 46.5,-61.2 50.2,-60.5 53.6,-58.6 56.6,-56.9 59.9,-56.4" fill="none" stroke="rgb(120,84,60)" stroke-width="2.0280419012914144" stroke-linejoin="round" stroke-linecap="round" filter="url(#fuzzy_av_1779093954979_d0u5cnfr3xu)" opacity="0.9958851223391869"/><polyline points="-39.6,-59.0 -38.6,-61.0 -37.3,-62.3 -35.7,-63.2 -33.7,-64.8 -31.5,-66.1 -28.8,-65.9 -25.9,-67.4 -22.7,-68.0 -19.2,-69.2 -15.7,-69.6 -12.2,-70.2 -8.8,-71.6 -5.5,-71.6 -2.0,-71.8 1.6,-71.2 5.7,-71.9 10.4,-71.2 15.5,-71.0 20.7,-70.7 25.6,-69.7 29.9,-68.0 34.7,-67.7" fill="none" stroke="rgb(120,84,60)" stroke-width="0.874608248580051" stroke-linejoin="round" stroke-linecap="round" filter="url(#fuzzy_av_1779093954979_d0u5cnfr3xu)" opacity="0.9945452403891306"/><polyline points="-43.9,-56.7 -43.2,-56.1 -41.9,-59.5 -40.4,-59.2 -38.4,-62.3 -36.0,-63.8 -33.3,-63.2 -30.3,-65.3 -27.3,-67.4 -24.2,-68.5 -20.9,-69.1 -17.7,-69.5 -14.6,-68.8 -11.5,-70.3 -8.4,-70.5 -5.4,-70.2 -2.4,-70.4 0.8,-70.9 4.1,-70.6 7.9,-70.6 12.0,-70.4 16.3,-70.7 20.2,-68.9 23.2,-69.1" fill="none" stroke="rgb(120,84,60)" stroke-width="1.6067851254155452" stroke-linejoin="round" stroke-linecap="round" filter="url(#fuzzy_av_1779093954979_d0u5cnfr3xu)" opacity="0.8335145914589752"/><polyline points="-47.7,-52.5 -45.5,-53.9 -43.3,-55.8 -41.2,-57.9 -39.2,-61.0 -37.1,-62.3 -34.8,-63.7 -32.3,-63.7 -29.5,-66.2 -26.6,-66.8 -23.5,-67.2 -20.3,-68.7 -17.2,-68.9 -14.0,-69.8 -11.0,-69.5 -7.9,-71.1 -4.8,-71.6 -1.7,-71.6 1.6,-70.7 5.0,-71.0 8.6,-70.5 12.4,-71.0 16.0,-69.4 19.6,-70.3 22.8,-67.8 25.8,-67.3 28.6,-68.2 31.2,-66.1 34.0,-66.5 37.4,-64.5 42.6,-61.1" fill="none" stroke="rgb(120,84,60)" stroke-width="1.3137413401962594" stroke-linejoin="round" stroke-linecap="round" filter="url(#fuzzy_av_1779093954979_d0u5cnfr3xu)" opacity="0.8886413213403179"/><polyline points="-50.5,-49.2 -48.5,-49.8 -46.3,-51.3 -44.0,-52.5 -41.7,-53.8 -39.6,-57.3 -37.5,-58.4 -35.5,-60.0 -33.3,-60.3 -31.0,-63.6 -28.6,-63.8 -25.9,-64.8 -23.2,-66.4 -20.3,-66.8 -17.4,-67.7 -14.6,-68.5 -11.8,-70.0 -9.1,-70.0 -6.5,-70.3 -3.9,-70.0 -1.3,-70.2 1.2,-70.3 3.8,-71.6 6.4,-70.5 8.9,-70.6 11.3,-69.1 13.6,-69.9 15.8,-67.8 17.7,-67.9 19.5,-66.5 21.2,-65.1 22.9,-64.6 24.5,-63.8 26.0,-62.7 27.6,-60.9 29.0,-60.0 30.0,-57.1 30.7,-56.3 32.0,-53.7" fill="none" stroke="rgb(120,84,60)" stroke-width="1.5872269229613338" stroke-linejoin="round" stroke-linecap="round" filter="url(#fuzzy_av_1779093954979_d0u5cnfr3xu)" opacity="0.9667942074444953"/><polyline points="-52.2,-47.0 -51.4,-47.6 -50.7,-49.1 -49.6,-51.7 -48.2,-53.5 -46.3,-54.5 -44.2,-57.2 -42.0,-58.4 -39.6,-59.5 -37.2,-61.9 -34.8,-62.8 -32.2,-64.9 -29.5,-65.4 -26.7,-67.3 -23.7,-68.5 -20.6,-68.8 -17.4,-68.8 -14.0,-68.9 -10.6,-70.9 -7.1,-70.0 -3.6,-70.2 -0.2,-70.2 3.3,-71.8 6.7,-71.0 10.2,-71.6 13.7,-71.4 17.3,-70.1 20.9,-68.5 24.5,-68.1 28.2,-68.2 32.4,-66.3 38.9,-65.1" fill="none" stroke="rgb(120,84,60)" stroke-width="2.0663198814381536" stroke-linejoin="round" stroke-linecap="round" filter="url(#fuzzy_av_1779093954979_d0u5cnfr3xu)" opacity="0.9279718220516435"/><polyline points="-52.4,-46.2 -51.3,-47.5 -50.0,-50.4 -48.6,-51.9 -47.1,-52.1 -45.3,-55.3 -43.3,-56.6 -41.2,-57.2 -39.0,-60.1 -36.7,-60.7 -34.4,-62.2 -31.9,-64.1 -29.3,-65.6 -26.6,-66.4 -23.7,-67.2 -20.7,-68.2 -17.6,-68.0 -14.5,-70.1 -11.4,-70.8 -8.3,-70.3 -5.2,-70.8 -2.1,-70.0 1.1,-71.7 4.5,-70.9 7.9,-70.6 11.5,-70.6 15.1,-69.4 18.6,-69.0 21.9,-68.2 24.8,-67.4 27.5,-68.0 29.9,-67.4 32.1,-65.8 34.4,-65.0" fill="none" stroke="rgb(120,84,60)" stroke-width="2.4796975644221364" stroke-linejoin="round" stroke-linecap="round" filter="url(#fuzzy_av_1779093954979_d0u5cnfr3xu)" opacity="0.9554781102157166"/><polyline points="-57.5,-33.8 -57.0,-36.3 -56.4,-36.8 -55.4,-40.4 -54.3,-42.5 -52.9,-44.0 -51.5,-46.4 -50.1,-48.8 -48.6,-50.2 -47.1,-53.1 -45.5,-55.2 -43.7,-56.9 -41.8,-58.5 -39.8,-58.6 -37.5,-61.1 -35.1,-63.0 -32.5,-63.8 -29.8,-65.8 -27.0,-65.3 -24.0,-66.7 -21.0,-67.4 -17.9,-68.6 -14.8,-69.9 -11.7,-69.8 -8.7,-71.0 -5.8,-71.4 -3.0,-71.5 -0.4,-71.3 1.9,-71.7 4.6,-71.2" fill="none" stroke="rgb(120,84,60)" stroke-width="2.350062154562508" stroke-linejoin="round" stroke-linecap="round" filter="url(#fuzzy_av_1779093954979_d0u5cnfr3xu)" opacity="0.8573047452737579"/><polyline points="-58.7,-29.0 -58.1,-33.0 -57.7,-34.2 -57.4,-36.5 -56.9,-38.7 -56.2,-41.5 -55.3,-43.5 -54.2,-45.9 -53.1,-49.2 -52.0,-50.3 -51.1,-52.4 -50.1,-54.3 -49.1,-56.1 -48.0,-57.7 -46.7,-60.1 -45.1,-60.0 -43.1,-62.9 -40.6,-63.7 -37.7,-65.6 -34.4,-65.5 -30.9,-66.8 -27.0,-67.2 -22.7,-68.8 -18.9,-69.5" fill="none" stroke="rgb(120,84,60)" stroke-width="1.0137296515956367" stroke-linejoin="round" stroke-linecap="round" filter="url(#fuzzy_av_1779093954979_d0u5cnfr3xu)" opacity="0.7970541817510102"/><polyline points="-59.3,-26.9 -59.3,-29.7 -58.4,-31.7 -57.6,-34.9 -57.0,-37.3 -56.3,-40.4 -55.5,-41.8 -54.4,-44.4 -53.1,-46.8 -51.6,-49.0 -49.9,-50.3 -48.2,-53.2 -46.5,-55.2 -44.6,-55.4 -42.6,-58.0 -40.5,-58.5 -38.2,-59.9 -35.7,-62.9 -33.2,-63.1 -30.4,-65.0 -27.6,-65.3 -24.6,-66.4 -21.6,-68.4 -18.4,-68.0 -15.3,-70.0 -12.1,-70.1 -9.0,-69.6 -5.8,-71.2 -2.6,-71.3 0.6,-71.8 4.1,-72.1 7.8,-71.3 11.8,-70.7 15.9,-70.2 19.8,-69.7 23.3,-68.9 27.2,-67.7" fill="none" stroke="rgb(120,84,60)" stroke-width="2.2293105461247213" stroke-linejoin="round" stroke-linecap="round" filter="url(#fuzzy_av_1779093954979_d0u5cnfr3xu)" opacity="0.8006829827035297"/><polyline points="-59.6,-22.0 -59.7,-24.8 -59.5,-26.9 -59.0,-30.0 -58.4,-32.3 -57.7,-35.3 -57.0,-36.4 -56.3,-38.9 -55.4,-41.3 -54.6,-44.2 -53.7,-46.7 -52.6,-48.0 -51.5,-49.8 -50.1,-51.4 -48.5,-54.5 -46.8,-54.9 -44.9,-57.1 -42.9,-59.5 -40.8,-59.9 -38.6,-61.5 -36.2,-63.9 -33.5,-64.5 -30.6,-65.1 -27.5,-68.0 -24.3,-67.4 -20.8,-68.3 -17.4,-69.9 -13.8,-70.3 -10.3,-70.3 -6.8,-71.8 -3.3,-71.0 0.2,-70.4 4.0,-71.7 8.4,-71.7 13.8,-70.6 19.3,-71.3" fill="none" stroke="rgb(120,84,60)" stroke-width="1.8507611838996008" stroke-linejoin="round" stroke-linecap="round" filter="url(#fuzzy_av_1779093954979_d0u5cnfr3xu)" opacity="0.8553916831085211"/><polyline points="-59.7,-20.9 -60.2,-21.9 -61.0,-24.6 -61.4,-27.1 -61.1,-29.9 -60.3,-33.6 -59.5,-35.4 -58.8,-38.6 -58.3,-41.0 -58.0,-43.4 -57.7,-44.6 -57.2,-46.6 -56.3,-49.3 -55.1,-50.3 -53.4,-52.1 -51.6,-55.5 -49.6,-56.5 -47.6,-57.4 -45.5,-59.8 -43.4,-60.7 -41.0,-63.8 -38.4,-64.6 -35.5,-65.3 -32.2,-66.1 -28.8,-67.1 -25.1,-68.2 -21.4,-68.2 -17.5,-70.4 -13.5,-69.8 -9.3,-69.9 -5.2,-71.1 -1.1,-70.7 3.1,-72.2 7.6,-71.9 13.8,-70.0" fill="none" stroke="rgb(120,84,60)" stroke-width="2.5456354054328956" stroke-linejoin="round" stroke-linecap="round" filter="url(#fuzzy_av_1779093954979_d0u5cnfr3xu)" opacity="0.9932328487655696"/><polyline points="-60.0,-17.0 -59.9,-20.7 -60.5,-22.7 -61.2,-24.9 -61.6,-27.8 -61.6,-30.1 -61.5,-31.5 -61.4,-34.5 -61.4,-36.4 -61.4,-39.7 -61.3,-42.3 -61.1,-44.2 -60.7,-46.5 -59.9,-48.7 -58.7,-50.6 -57.0,-51.9 -54.7,-53.3 -52.1,-56.0 -49.1,-56.7 -46.1,-58.8 -43.1,-59.9 -40.1,-62.5 -37.3,-62.5 -34.3,-65.0 -31.3,-65.7 -28.2,-66.5 -25.0,-67.7 -21.6,-69.1 -18.2,-70.5 -14.8,-70.7 -11.2,-71.2 -7.5,-71.2 -3.8,-70.6 0.0,-70.3 4.1,-71.3 8.9,-71.7 14.8,-70.4 21.0,-69.7" fill="none" stroke="rgb(120,84,60)" stroke-width="2.5951927268823445" stroke-linejoin="round" stroke-linecap="round" filter="url(#fuzzy_av_1779093954979_d0u5cnfr3xu)" opacity="0.8924935540572119"/><polyline points="-59.4,-9.3 -59.7,-12.7 -59.8,-16.6 -59.8,-19.2 -59.6,-20.8 -59.4,-24.0 -59.0,-27.5 -58.5,-29.1 -57.9,-31.1 -57.2,-34.2 -56.3,-37.4 -55.4,-39.3 -54.2,-40.5 -53.0,-44.0 -51.7,-46.6 -50.3,-48.6 -48.8,-50.3 -47.2,-52.1 -45.6,-54.6 -43.8,-55.8 -41.9,-58.0 -39.8,-59.9 -37.6,-60.5 -35.3,-61.6 -32.8,-63.3 -30.1,-63.7 -27.3,-65.9 -24.4,-67.8 -21.3,-68.4 -18.0,-68.8 -14.7,-70.3 -12.0,-70.1" fill="none" stroke="rgb(120,84,60)" stroke-width="1.877275080740749" stroke-linejoin="round" stroke-linecap="round" filter="url(#fuzzy_av_1779093954979_d0u5cnfr3xu)" opacity="0.9075811046333926"/><polyline points="-59.6,-5.9 -60.7,-8.3 -62.1,-11.1 -63.1,-12.3 -64.2,-15.6 -65.8,-19.3 -67.6,-21.8 -69.3,-23.9 -70.6,-26.0 -71.5,-29.0 -72.0,-31.3 -72.3,-35.2 -72.1,-37.3 -71.4,-40.8 -70.3,-41.6 -68.9,-44.2 -67.6,-47.4 -66.6,-49.1 -65.9,-51.1 -65.5,-52.5 -64.8,-53.7 -63.3,-54.9 -61.5,-57.0" fill="none" stroke="rgb(120,84,60)" stroke-width="2.0659844073356757" stroke-linejoin="round" stroke-linecap="round" filter="url(#fuzzy_av_1779093954979_d0u5cnfr3xu)" opacity="0.9045321785820436"/><polyline points="-58.8,-3.9 -60.0,-7.0 -60.3,-9.6 -60.7,-13.5 -61.2,-16.6 -61.7,-19.0 -62.1,-21.9 -62.2,-24.5 -62.0,-26.7 -61.6,-28.7 -61.0,-31.2 -60.3,-33.2 -59.5,-36.5 -58.7,-39.7 -57.8,-42.4 -56.7,-43.7 -55.4,-46.4 -54.0,-47.4 -52.4,-49.3 -50.8,-52.4 -49.1,-53.7 -47.5,-56.2 -45.9,-56.7 -44.2,-59.2 -42.4,-61.4 -40.3,-61.5 -37.7,-64.0 -34.9,-63.8 -31.8,-67.0 -28.5,-66.4 -25.0,-68.2 -21.1,-69.8 -17.3,-69.8" fill="none" stroke="rgb(120,84,60)" stroke-width="0.8642032525737889" stroke-linejoin="round" stroke-linecap="round" filter="url(#fuzzy_av_1779093954979_d0u5cnfr3xu)" opacity="0.7692185778114067"/><polyline points="-57.6,0.4 -58.5,-1.2 -59.3,-3.9 -60.0,-7.2 -60.7,-9.3 -61.4,-13.6 -62.0,-15.2 -62.5,-19.0 -62.8,-22.2 -62.9,-25.0 -62.7,-26.5 -62.4,-29.2 -61.9,-32.8 -61.4,-33.9 -60.9,-37.9 -60.4,-39.2 -59.8,-41.4 -59.1,-43.9 -58.3,-46.3 -57.4,-47.9 -56.3,-50.7 -55.0,-51.7 -53.4,-53.1 -51.5,-54.8 -49.4,-57.2 -46.8,-59.5" fill="none" stroke="rgb(120,84,60)" stroke-width="1.9300959435912233" stroke-linejoin="round" stroke-linecap="round" filter="url(#fuzzy_av_1779093954979_d0u5cnfr3xu)" opacity="0.7978284036493078"/><polyline points="-53.7,13.9 -54.8,13.0 -56.1,10.0 -57.9,8.5 -59.5,4.7 -60.7,2.5 -61.4,-0.9 -61.8,-4.4 -62.4,-6.8 -63.2,-9.0 -64.3,-11.5 -65.5,-16.1 -66.5,-17.3 -67.2,-19.7 -67.6,-22.5 -67.6,-25.9 -67.5,-27.6 -67.3,-30.7 -67.1,-33.5 -66.8,-36.0 -66.3,-39.3 -65.6,-41.4 -64.6,-42.9 -63.5,-44.9 -62.1,-47.0 -60.8,-50.0 -59.6,-51.5 -58.3,-53.6 -57.0,-55.8 -55.5,-56.9 -53.5,-58.1 -51.3,-61.2 -48.9,-61.4 -46.2,-62.1 -43.7,-65.1" fill="none" stroke="rgb(120,84,60)" stroke-width="1.5107826661792574" stroke-linejoin="round" stroke-linecap="round" filter="url(#fuzzy_av_1779093954979_d0u5cnfr3xu)" opacity="0.7571124897166654"/><polyline points="-51.3,18.2 -49.7,23.1 -48.2,25.3 -46.7,28.0 -45.2,29.3 -43.7,31.7 -42.3,35.1 -41.0,37.5 -39.9,38.7 -38.6,40.1 -37.2,42.6 -35.5,43.0 -33.4,44.7 -31.2,46.1 -29.0,47.5 -26.7,50.2 -24.6,51.5 -22.3,52.5 -20.0,54.2 -17.5,54.7 -15.0,54.1 -12.6,56.1 -10.2,55.5 -7.7,56.6" fill="none" stroke="rgb(120,84,60)" stroke-width="2.1113876713175728" stroke-linejoin="round" stroke-linecap="round" filter="url(#fuzzy_av_1779093954979_d0u5cnfr3xu)" opacity="0.8137530812250221"/><polyline points="-51.3,19.1 -49.6,21.8 -48.2,25.8 -46.8,27.3 -45.1,30.5 -43.3,32.4 -41.4,35.4 -39.6,37.5 -37.8,37.9 -36.1,41.0 -34.4,41.3 -32.7,43.6 -30.8,44.6 -28.9,46.3 -26.8,49.1 -24.7,49.0 -22.5,51.5 -20.2,52.6 -18.0,52.6 -15.7,53.4 -13.4,55.7 -11.2,56.2 -9.0,55.6 -6.9,56.5 -4.8,57.9 -2.8,56.8 -0.7,57.1 1.6,57.7 4.2,57.9 6.8,57.2" fill="none" stroke="rgb(120,84,60)" stroke-width="2.3483804853510906" stroke-linejoin="round" stroke-linecap="round" filter="url(#fuzzy_av_1779093954979_d0u5cnfr3xu)" opacity="0.8626588816635443"/><polyline points="-49.3,22.6 -47.9,26.0 -46.6,28.0 -45.0,29.6 -43.4,32.9 -41.8,35.2 -40.4,37.5 -39.2,38.4 -37.9,39.7 -36.7,41.7 -35.3,44.3 -33.8,46.1 -32.1,46.2 -30.2,47.9 -28.1,49.5 -25.7,50.2 -23.2,52.8 -20.6,53.7 -18.0,54.7 -15.5,55.7 -12.9,56.2 -10.5,56.7 -8.0,55.5 -5.5,56.0 -2.9,57.3 -0.2,57.0 2.8,57.3 6.1,56.4 9.5,56.8 13.1,57.0 16.8,56.1 20.7,54.6 24.3,55.2 27.0,52.8" fill="none" stroke="rgb(120,84,60)" stroke-width="2.3624139738663894" stroke-linejoin="round" stroke-linecap="round" filter="url(#fuzzy_av_1779093954979_d0u5cnfr3xu)" opacity="0.8308230160526795"/><polyline points="-48.0,25.2 -47.3,27.0 -45.8,29.5 -44.1,31.8 -42.6,33.6 -41.2,35.7 -39.6,37.7 -38.0,40.0 -36.3,41.0 -34.6,42.6 -32.9,44.3 -31.1,47.0 -29.3,48.8 -27.3,49.9 -25.2,51.4 -23.0,52.3 -20.7,52.5 -18.3,53.8 -15.9,53.6 -13.5,55.7 -11.0,55.3 -8.4,55.7 -5.8,57.3 -3.1,55.9 -0.3,57.6 2.4,57.9 5.2,57.7 7.8,56.6 10.3,56.9 12.7,57.1 15.2,54.8 17.8,55.8 20.6,53.8" fill="none" stroke="rgb(120,84,60)" stroke-width="1.7965760281843604" stroke-linejoin="round" stroke-linecap="round" filter="url(#fuzzy_av_1779093954979_d0u5cnfr3xu)" opacity="0.9101518082214537"/><polyline points="-47.8,24.5 -47.4,26.6 -46.1,30.1 -44.2,33.2 -42.4,35.1 -41.0,38.0 -40.0,39.4 -39.1,41.1 -38.0,43.1 -36.7,44.6 -35.0,44.5 -33.1,47.4 -31.0,47.5 -28.7,49.3 -26.2,51.0 -23.7,52.4 -21.0,53.1 -18.3,54.9 -15.6,54.9 -13.0,55.6 -10.5,57.1 -8.1,55.7 -5.7,56.0 -3.3,57.7 -0.8,57.2 2.1,56.4 5.5,58.1 8.8,56.8" fill="none" stroke="rgb(120,84,60)" stroke-width="1.3324339476831901" stroke-linejoin="round" stroke-linecap="round" filter="url(#fuzzy_av_1779093954979_d0u5cnfr3xu)" opacity="0.8143050241132656"/><polyline points="-46.3,27.6 -45.6,29.5 -44.2,32.7 -42.7,35.7 -41.3,36.3 -40.1,38.6 -38.7,40.8 -37.2,42.5 -35.5,43.1 -33.6,45.6 -31.7,47.3 -29.7,48.9 -27.6,48.9 -25.5,51.2 -23.2,51.8 -20.8,53.3 -18.3,54.5 -15.7,54.0 -13.2,55.2 -10.7,56.3 -8.3,55.7 -6.2,57.0 -5.1,57.8" fill="none" stroke="rgb(120,84,60)" stroke-width="1.3428881893456954" stroke-linejoin="round" stroke-linecap="round" filter="url(#fuzzy_av_1779093954979_d0u5cnfr3xu)" opacity="0.8152238484459806"/><polyline points="-46.3,26.8 -46.3,30.7 -45.6,33.1 -44.0,34.2 -42.3,38.1 -40.5,39.7 -38.9,40.3 -37.2,42.4 -35.5,43.8 -33.7,45.0 -31.7,47.8 -29.5,47.9 -27.3,49.5 -25.0,50.2 -22.5,52.6 -20.0,53.6 -17.4,53.8 -14.8,55.9 -12.3,55.5 -10.0,56.5 -7.8,56.1 -5.7,57.9 -3.6,56.9 -1.5,56.8 0.4,58.2" fill="none" stroke="rgb(120,84,60)" stroke-width="1.4147093775583008" stroke-linejoin="round" stroke-linecap="round" filter="url(#fuzzy_av_1779093954979_d0u5cnfr3xu)" opacity="0.8288492591718901"/><polyline points="-46.0,28.3 -43.6,32.7 -42.0,33.7 -40.5,36.6 -38.7,37.9 -36.7,39.1 -34.7,41.7 -32.7,43.3 -30.7,44.6 -28.7,47.6 -26.7,48.1 -24.6,50.4 -22.5,51.5 -20.4,52.5 -18.3,52.3 -16.1,54.0 -13.9,53.9 -11.6,54.2 -9.3,56.4 -6.9,57.2 -4.6,55.9 -2.2,57.2 0.1,56.1 2.4,56.8 4.7,56.1 6.9,55.7 9.1,55.7 11.3,55.7 13.5,55.1 15.8,53.6 18.1,52.9 20.4,52.3 22.7,51.1 24.8,50.3 26.8,48.8 28.7,48.2 30.6,46.7 32.8,45.3 35.1,42.8" fill="none" stroke="rgb(120,84,60)" stroke-width="1.7771149547549807" stroke-linejoin="round" stroke-linecap="round" filter="url(#fuzzy_av_1779093954979_d0u5cnfr3xu)" opacity="0.9505165261218762"/><polyline points="-45.3,28.6 -43.0,32.1 -41.2,34.4 -39.6,36.6 -38.3,39.8 -36.8,40.4 -35.3,41.8 -33.7,44.6 -32.0,44.8 -30.2,46.7 -28.3,48.0 -26.3,49.9 -24.2,51.6 -22.0,52.2 -19.6,53.1 -17.1,53.9 -14.5,54.2 -12.0,55.4 -9.5,55.6 -7.1,56.6 -4.6,56.7 -2.1,57.6 0.5,56.3 3.2,57.3 5.9,56.7 8.8,55.9 11.8,56.4 14.8,55.2 17.7,53.8 20.6,54.3 23.5,53.4 26.3,51.6 29.0,50.3 31.9,49.2 35.4,48.5 39.6,45.6 44.3,44.6" fill="none" stroke="rgb(120,84,60)" stroke-width="2.1529477803964996" stroke-linejoin="round" stroke-linecap="round" filter="url(#fuzzy_av_1779093954979_d0u5cnfr3xu)" opacity="0.9495327837586065"/><polyline points="-34.0,41.9 -31.9,45.4 -30.4,45.8 -28.8,46.3 -27.0,47.8 -25.1,49.9 -23.1,51.7 -21.0,52.8 -18.9,53.0 -16.8,54.0 -14.5,54.7 -12.1,55.5 -9.7,55.1 -7.2,55.5 -4.7,57.2 -2.1,56.2 0.5,56.6 3.1,57.8 5.7,56.7 8.3,56.8 11.0,56.2 13.7,56.5 16.6,55.7 19.6,53.6 22.7,53.9 25.9,52.8 29.1,50.6 32.2,50.0 35.1,48.6 38.0,47.5 40.9,45.2 44.2,44.9 47.9,42.4 51.8,40.3 55.7,38.3 60.1,35.3" fill="none" stroke="rgb(120,84,60)" stroke-width="1.7231399361054884" stroke-linejoin="round" stroke-linecap="round" filter="url(#fuzzy_av_1779093954979_d0u5cnfr3xu)" opacity="0.9358708114444044"/></g><path d="M -6.712999563624101 7.225082027856248 Q 9.359357800543124 7.638777364905823, 1.3231791184595116 5.218711660011999" fill="none" stroke="#111" stroke-width="2.7827422184853985" stroke-linejoin="round" filter="url(#fuzzy_av_1779093954979_d0u5cnfr3xu)"/><polyline points="-29.9,20.3 -29.3,20.2 -28.7,20.1 -28.0,20.0 -27.4,19.9 -26.7,19.8 -26.1,19.7 -25.4,19.7 -24.8,19.6 -24.1,19.5 -23.4,19.4 -22.7,19.3 -22.0,19.3 -21.3,19.2 -20.6,19.1 -19.9,19.1 -19.1,19.0 -18.4,18.9 -17.7,18.9 -16.9,18.8 -16.2,18.8 -15.5,18.7 -14.7,18.7 -14.0,18.6 -13.2,18.6 -12.4,18.5 -11.7,18.5 -10.9,18.4 -10.2,18.4 -9.4,18.3 -8.6,18.3 -7.9,18.2 -7.1,18.2 -6.3,18.2 -5.6,18.1 -4.8,18.1 -4.0,18.0 -3.3,18.0 -2.5,18.0 -1.7,17.9 -1.0,17.9 -0.2,17.9 0.5,17.9 1.3,17.8 2.0,17.8 2.8,17.8 3.5,17.7 4.2,17.7 5.0,17.7 5.7,17.7 6.4,17.6 7.1,17.6 7.9,17.6 8.6,17.6 9.3,17.5 9.9,17.5 10.6,17.5 11.3,17.5 12.0,17.4 12.6,17.4 13.3,17.4 13.9,17.4 14.6,17.3 15.2,17.3 15.8,17.3 16.4,17.3 17.0,17.2 17.6,17.2 18.2,17.2 18.7,17.2 19.3,17.1 19.8,17.1 20.4,17.1 20.9,17.1 21.4,17.0 21.9,17.0 22.4,17.0 22.8,16.9 23.3,16.9 23.7,16.9 24.1,16.9 24.5,16.8 24.9,16.8 25.3,16.8 25.7,16.7 26.0,16.7 26.3,16.7 26.7,16.6 27.0,16.6 27.2,16.5 27.5,16.5 27.7,16.5 28.0,16.4 28.2,16.4 28.4,16.3 28.5,16.3 28.7,16.2 28.8,16.2 28.9,16.1 29.0,16.1 29.1,16.0 29.0,16.1 28.9,16.1 28.8,16.2 28.7,16.2 28.5,16.3 28.4,16.3 28.2,16.4 28.0,16.4 27.7,16.5 27.5,16.5 27.2,16.5 27.0,16.6 26.7,16.6 26.3,16.7 26.0,16.7 25.7,16.7 25.3,16.8 24.9,16.8 24.5,16.8 24.1,16.9 23.7,16.9 23.3,16.9 22.8,16.9 22.4,17.0 21.9,17.0 21.4,17.0 20.9,17.1 20.4,17.1 19.8,17.1 19.3,17.1 18.7,17.2 18.2,17.2 17.6,17.2 17.0,17.2 16.4,17.3 15.8,17.3 15.2,17.3 14.6,17.3 13.9,17.4 13.3,17.4 12.6,17.4 12.0,17.4 11.3,17.5 10.6,17.5 9.9,17.5 9.3,17.5 8.6,17.6 7.9,17.6 7.1,17.6 6.4,17.6 5.7,17.7 5.0,17.7 4.2,17.7 3.5,17.7 2.8,17.8 2.0,17.8 1.3,17.8 0.5,17.9 -0.2,17.9 -1.0,17.9 -1.7,17.9 -2.5,18.0 -3.3,18.0 -4.0,18.0 -4.8,18.1 -5.6,18.1 -6.3,18.2 -7.1,18.2 -7.9,18.2 -8.6,18.3 -9.4,18.3 -10.2,18.4 -10.9,18.4 -11.7,18.5 -12.4,18.5 -13.2,18.6 -14.0,18.6 -14.7,18.7 -15.5,18.7 -16.2,18.8 -16.9,18.8 -17.7,18.9 -18.4,18.9 -19.1,19.0 -19.9,19.1 -20.6,19.1 -21.3,19.2 -22.0,19.3 -22.7,19.3 -23.4,19.4 -24.1,19.5 -24.8,19.6 -25.4,19.7 -26.1,19.7 -26.7,19.8 -27.4,19.9 -28.0,20.0 -28.7,20.1 -29.3,20.2" fill="rgb(215,127,140)" stroke="#111" stroke-width="2.37897707218527" stroke-linejoin="round" filter="url(#fuzzy_av_1779093954979_d0u5cnfr3xu)"/></g><g class="accessory-svg accessory-medal" transform="translate(76.4 -5.5) rotate(10.3) scale(1.075)">
      <path d="M-5-12l5 8 5-8" fill="none" stroke="#ef4444" stroke-width="3"/><circle cx="0" cy="3" r="8" fill="#fbbf24" stroke="#111827" stroke-width="1.1"/><path d="M0-1l1.5 3.2L5 2.6 2.4 5 3 8.5 0 6.8-3 8.5-2.4 5-5 2.6-1.5 2.2z" fill="#f8fafc"/>
    </g><g class="accessory-svg accessory-megaphone" transform="translate(-10.9 76.0) rotate(9.9) scale(0.956)">
      <path d="M-11 0l14-7v14l-14-4z" fill="#f8fafc" stroke="#111827" stroke-width="1.2"/><path d="M-11 0h-3v4h3M-5 5l2 7" stroke="#111827" stroke-width="1.2"/><path d="M6-5c3 3 3 7 0 10" fill="none" stroke="#EA580C" stroke-width="1.5"/>
    </g><g class="accessory-svg accessory-muscle" transform="translate(-75.2 15.8) rotate(9.7) scale(0.848)">
      <path d="M-10 6c3-7 6-10 11-10 0-3 3-6 6-4-2 3-1 5 3 7 4 3 2 10-3 11H-7c-3 0-5-1-3-4z" fill="#f8c7a6" stroke="#111827" stroke-width="1.1"/><path d="M-1-3c-1 5 4 7 9 5" fill="none" stroke="#b45309" stroke-width="1"/>
    </g><g class="accessory-svg accessory-jersey" transform="translate(0.1 -77.2) rotate(-1.3) scale(1.300)">
      <path d="M-9-7l5-4h8l5 4 4 6-5 3v10H-8V2l-5-3z" fill="#EA580C" stroke="#111827" stroke-width="1.1" stroke-linejoin="round"/><path d="M0-11v23" stroke="#C2410C" stroke-width="1"/><path d="M-3-10l3 5 3-5" fill="#f8fafc" stroke="#111827" stroke-width=".8"/><circle cx="4" cy="-1" r="1" fill="#fbbf24"/><circle cx="4" cy="4" r="1" fill="#fbbf24"/>
    </g></svg>