<svg xmlns="http://www.w3.org/2000/svg" viewBox="-100 -100 200 200" width="400" height="400" role="img" aria-label="螺丝钉 avatar"><defs>
      <filter id="fuzzy_av_1779093954993_vxp6njh9yzs" x="-8%" y="-8%" width="116%" height="116%">
        <feTurbulence baseFrequency="0.045" numOctaves="3" type="fractalNoise" result="noise"/>
        <feDisplacementMap in="SourceGraphic" in2="noise" scale="1.6"/>
      </filter>
      <clipPath id="leftEye_av_1779093954993_vxp6njh9yzs"><polyline points="-19.8,1.9 -19.9,1.8 -20.0,1.7 -20.0,1.5 -20.0,1.4 -20.0,1.3 -19.9,1.2 -19.9,1.0 -19.8,0.9 -19.6,0.8 -19.5,0.6 -19.3,0.5 -19.1,0.4 -18.8,0.2 -18.6,0.1 -18.3,-0.1 -18.0,-0.2 -17.8,-0.3 -17.5,-0.5 -17.1,-0.6 -16.7,-0.8 -16.3,-0.9 -15.8,-1.1 -15.3,-1.3 -14.8,-1.4 -14.2,-1.6 -13.6,-1.8 -13.0,-2.0 -12.3,-2.1 -11.6,-2.3 -10.9,-2.5 -10.1,-2.7 -9.4,-2.8 -8.6,-3.0 -7.8,-3.2 -7.0,-3.3 -6.1,-3.5 -5.3,-3.6 -4.4,-3.7 -3.6,-3.9 -2.7,-4.0 -1.8,-4.1 -0.9,-4.2 -0.1,-4.3 0.8,-4.3 1.7,-4.4 2.5,-4.5 3.4,-4.5 4.3,-4.5 5.1,-4.5 5.9,-4.5 6.7,-4.5 7.6,-4.5 8.3,-4.5 9.1,-4.5 9.9,-4.4 10.6,-4.4 11.4,-4.3 12.1,-4.2 12.8,-4.1 13.4,-4.1 14.1,-4.0 14.7,-3.9 15.3,-3.8 15.9,-3.7 16.5,-3.5 17.1,-3.4 17.6,-3.3 18.2,-3.2 18.7,-3.1 19.2,-2.9 19.7,-2.8 20.1,-2.7 20.6,-2.5 21.0,-2.4 21.4,-2.2 21.8,-2.1 22.2,-1.9 22.6,-1.8 22.9,-1.6 20.6,-0.3 20.3,-0.2 20.1,0.0 19.9,0.2 19.6,0.3 19.4,0.5 19.1,0.6 18.8,0.8 18.5,0.9 18.2,1.0 17.8,1.2 17.5,1.3 17.1,1.4 16.7,1.6 16.3,1.7 15.9,1.8 15.5,1.9 15.1,2.1 14.6,2.2 14.2,2.3 13.7,2.4 13.2,2.5 12.7,2.6 12.2,2.7 11.7,2.8 11.1,2.9 10.6,3.0 10.0,3.1 9.4,3.2 8.9,3.3 8.3,3.4 7.7,3.5 7.1,3.5 6.5,3.6 5.8,3.7 5.2,3.8 4.6,3.8 4.0,3.9 3.3,3.9 2.7,4.0 2.1,4.0 1.4,4.1 0.8,4.1 0.1,4.1 -0.5,4.2 -1.2,4.2 -1.8,4.2 -2.5,4.2 -3.1,4.2 -3.7,4.2 -4.4,4.2 -5.0,4.2 -5.6,4.2 -6.2,4.2 -6.9,4.2 -7.5,4.1 -8.1,4.1 -8.7,4.1 -9.3,4.0 -9.9,4.0 -10.5,3.9 -11.0,3.8 -11.6,3.8 -12.1,3.7 -12.7,3.6 -13.2,3.6 -13.6,3.5 -14.1,3.5 -14.6,3.4 -15.0,3.4 -15.5,3.3 -15.9,3.2 -16.3,3.2 -16.7,3.1 -17.1,3.1 -17.5,3.0 -17.9,2.9 -18.3,2.9 -18.6,2.8 -19.0,2.8"/></clipPath>
      <clipPath id="rightEye_av_1779093954993_vxp6njh9yzs"><polyline points="-22.1,1.1 -22.1,1.0 -22.1,0.9 -22.1,0.8 -22.0,0.7 -21.9,0.6 -21.8,0.5 -21.7,0.3 -21.5,0.2 -21.4,0.1 -21.2,0.0 -21.0,-0.1 -20.7,-0.2 -20.5,-0.4 -20.2,-0.5 -19.9,-0.6 -19.6,-0.7 -19.4,-0.8 -19.0,-0.9 -18.7,-1.1 -18.3,-1.2 -17.9,-1.3 -17.4,-1.5 -17.0,-1.6 -16.4,-1.8 -15.9,-1.9 -15.3,-2.0 -14.7,-2.2 -14.1,-2.3 -13.4,-2.5 -12.7,-2.6 -12.0,-2.8 -11.3,-2.9 -10.6,-3.1 -9.8,-3.2 -9.0,-3.3 -8.2,-3.4 -7.4,-3.6 -6.6,-3.7 -5.7,-3.8 -4.9,-3.9 -4.1,-4.0 -3.2,-4.0 -2.3,-4.1 -1.5,-4.2 -0.6,-4.2 0.2,-4.3 1.1,-4.3 1.9,-4.3 2.8,-4.3 3.6,-4.3 4.4,-4.3 5.3,-4.3 6.1,-4.3 6.9,-4.3 7.6,-4.2 8.4,-4.2 9.2,-4.1 9.9,-4.1 10.6,-4.0 11.4,-3.9 12.0,-3.8 12.7,-3.8 13.4,-3.7 14.0,-3.6 14.7,-3.5 15.3,-3.4 15.9,-3.3 16.5,-3.2 17.0,-3.1 17.6,-3.0 18.1,-2.9 18.7,-2.7 19.2,-2.6 19.7,-2.5 20.2,-2.4 20.6,-2.3 21.1,-2.2 21.5,-2.0 22.0,-1.9 23.6,0.3 23.4,0.4 23.2,0.5 23.0,0.6 22.8,0.7 22.6,0.8 22.3,0.9 22.0,1.0 21.7,1.0 21.4,1.1 21.1,1.2 20.8,1.3 20.5,1.4 20.1,1.5 19.7,1.6 19.3,1.7 18.9,1.8 18.5,1.9 18.0,2.0 17.6,2.1 17.1,2.2 16.6,2.3 16.1,2.4 15.6,2.4 15.0,2.5 14.5,2.6 13.9,2.7 13.3,2.8 12.6,2.9 12.0,3.0 11.4,3.1 10.7,3.2 10.0,3.3 9.3,3.4 8.6,3.5 7.9,3.6 7.2,3.6 6.4,3.7 5.7,3.8 4.9,3.9 4.1,3.9 3.4,4.0 2.6,4.1 1.8,4.1 1.0,4.2 0.2,4.2 -0.6,4.2 -1.3,4.3 -2.1,4.3 -2.9,4.3 -3.7,4.3 -4.5,4.3 -5.2,4.3 -6.0,4.3 -6.7,4.3 -7.4,4.3 -8.1,4.2 -8.8,4.2 -9.5,4.1 -10.2,4.1 -10.9,4.0 -11.5,3.9 -12.1,3.8 -12.7,3.7 -13.3,3.6 -13.8,3.5 -14.4,3.5 -14.9,3.4 -15.4,3.3 -15.9,3.3 -16.4,3.2 -16.8,3.1 -17.3,3.0 -17.7,2.9 -18.2,2.9 -18.6,2.8 -19.0,2.7 -19.3,2.6 -19.7,2.5 -20.0,2.4"/></clipPath>
      <linearGradient id="rainbow_av_1779093954993_vxp6njh9yzs" x1="0%" y1="0%" x2="100%" y2="0%">
        <stop offset="0%" stop-color="#78350F"/><stop offset="71%" stop-color="#22D3EE"/><stop offset="100%" stop-color="#451A03"/>
      </linearGradient>
      <linearGradient id="splitHair_av_1779093954993_vxp6njh9yzs" x1="0%" y1="0%" x2="100%" y2="0%">
        <stop offset="49%" stop-color="#111827"/><stop offset="51%" stop-color="#F9FAFB"/>
      </linearGradient>
      <radialGradient id="halo_av_1779093954993_vxp6njh9yzs"><stop offset="0%" stop-color="#78350F" stop-opacity=".45"/><stop offset="100%" stop-color="#78350F" stop-opacity="0"/></radialGradient>
    </defs><rect x="-100" y="-100" width="200" height="200" fill="#87CEEB"/><g opacity="1"><polyline id="faceContour" class="face-shape" points="62.5,-6.2 62.4,-5.4 62.5,-5.0 62.6,-3.1 62.6,-0.3 62.6,0.6 62.3,0.7 62.2,0.8 62.3,3.8 62.4,4.7 62.2,6.2 61.6,8.2 62.0,7.5 61.5,10.1 61.3,10.1 60.6,12.6 60.4,13.4 60.4,13.4 59.6,16.1 59.9,15.4 58.7,18.1 58.6,19.1 58.8,18.8 57.2,21.8 57.7,21.8 56.9,23.2 55.9,25.2 55.5,25.7 55.7,26.4 55.9,26.6 55.2,27.8 53.9,29.8 53.4,30.8 53.4,31.4 52.1,33.2 51.2,34.6 49.9,36.0 49.0,37.4 48.1,38.6 47.8,39.7 46.4,41.3 44.9,43.0 44.6,42.9 41.6,43.9 42.1,43.5 38.9,44.7 38.2,44.8 35.1,45.8 33.6,46.3 32.5,46.4 32.6,46.2 30.2,46.9 27.5,47.5 26.7,47.6 27.0,47.5 25.9,47.7 22.0,48.5 21.4,48.5 20.2,48.7 18.5,48.9 14.6,49.5 15.4,49.3 12.1,49.8 9.8,49.9 9.9,49.9 7.6,50.1 8.3,50.0 5.4,50.1 5.3,50.1 3.4,50.2 -1.3,50.2 -2.9,50.2 -2.5,50.2 -4.5,50.2 -4.4,50.2 -5.9,50.2 -9.1,50.0 -13.5,49.5 -11.1,49.8 -13.3,49.6 -17.4,49.0 -18.7,48.9 -19.7,48.8 -22.1,48.3 -24.0,48.0 -23.2,48.3 -24.8,48.1 -27.7,47.3 -29.5,46.8 -31.6,46.4 -32.3,46.3 -35.2,45.4 -33.1,46.3 -35.8,45.5 -37.2,45.2 -39.7,44.2 -41.8,43.6 -43.1,43.1 -44.3,42.7 -46.5,41.7 -45.1,42.0 -48.5,39.2 -47.5,39.3 -50.1,36.6 -49.5,36.4 -51.4,33.9 -52.4,32.7 -51.8,32.6 -53.2,30.6 -54.1,29.4 -52.7,30.0 -55.2,27.0 -55.6,26.1 -56.6,24.4 -56.7,23.9 -56.7,23.2 -57.2,22.0 -57.1,21.9 -57.8,20.4 -58.7,18.5 -59.7,16.6 -60.0,15.2 -60.4,14.6 -60.7,13.1 -60.3,13.5 -61.4,10.6 -60.9,10.9 -60.9,10.3 -61.8,8.0 -62.0,5.7 -61.9,4.6 -62.0,4.7 -62.0,4.5 -62.4,0.6 -62.3,-0.4 -62.2,1.2 -62.3,-1.2 -62.3,-2.0 -62.3,-4.8 -62.6,-3.3 -61.9,-7.5 -62.1,-7.6 -61.6,-9.6 -61.5,-9.7 -61.3,-11.8 -61.8,-10.6 -61.5,-12.4 -60.9,-14.8 -60.6,-15.4 -60.6,-15.7 -60.4,-16.4 -59.3,-19.8 -59.8,-19.0 -59.3,-20.0 -58.6,-22.0 -58.3,-23.4 -58.0,-24.1 -56.9,-26.5 -56.5,-27.4 -57.0,-26.7 -55.3,-29.7 -56.2,-29.0 -54.2,-31.8 -54.8,-31.5 -53.1,-34.2 -53.3,-34.5 -51.7,-36.9 -52.3,-36.3 -51.8,-37.6 -49.7,-40.3 -49.7,-40.7 -47.7,-43.1 -48.0,-43.3 -48.4,-43.8 -47.4,-45.1 -45.1,-47.5 -44.7,-48.4 -43.6,-49.7 -42.5,-51.3 -42.7,-52.2 -41.2,-53.7 -41.4,-54.3 -38.7,-55.6 -39.7,-54.7 -36.6,-56.0 -36.1,-55.9 -35.0,-56.2 -32.4,-57.2 -32.4,-57.1 -30.8,-57.4 -26.6,-59.0 -27.5,-58.5 -24.3,-59.5 -22.9,-59.8 -21.0,-60.2 -20.4,-60.3 -19.0,-60.5 -19.9,-60.2 -18.2,-60.4 -14.4,-61.2 -14.3,-61.2 -13.1,-61.4 -11.1,-61.6 -11.3,-61.6 -8.9,-61.8 -7.9,-61.9 -4.1,-62.2 -2.6,-62.2 -2.1,-62.2 -2.7,-62.2 1.0,-62.2 2.9,-62.2 3.2,-62.2 3.0,-62.2 4.1,-62.2 6.6,-62.0 10.0,-61.7 8.9,-61.9 11.6,-61.6 12.9,-61.4 15.8,-60.9 15.1,-61.2 16.8,-60.9 19.3,-60.3 19.1,-60.5 20.5,-60.3 21.3,-60.3 24.0,-59.5 24.3,-59.6 27.7,-58.5 27.8,-58.6 28.8,-58.4 30.7,-57.9 32.0,-57.4 35.1,-56.2 34.8,-56.7 36.8,-56.1 37.1,-56.1 40.7,-54.5 41.2,-54.3 42.8,-52.6 42.1,-52.5 42.8,-51.1 44.4,-49.4 44.9,-48.2 46.5,-46.3 45.7,-46.3 47.6,-44.4 48.0,-43.4 48.7,-42.2 48.7,-41.7 49.3,-40.6 50.6,-38.8 51.6,-37.2 51.9,-36.6 53.5,-34.0 53.7,-33.5 53.4,-33.9 53.7,-32.8 55.9,-29.3 55.2,-29.8 56.5,-27.6 56.2,-27.6 57.2,-26.0 58.0,-23.9 57.8,-23.9 59.2,-21.0 58.6,-21.4 59.9,-18.7 59.7,-19.5 60.2,-17.8 60.6,-15.4 61.0,-14.5 61.1,-14.0 61.4,-12.3 61.4,-12.6 61.5,-10.4 61.9,-9.2 61.7,-8.8 62.3,-6.1 62.5,-6.2 62.4,-5.4" fill="#ffc9a9" stroke="#111" stroke-width="2.2" stroke-linejoin="round" filter="url(#fuzzy_av_1779093954993_vxp6njh9yzs)"/><g id="leftEye" transform="translate(-35.0 -29.5)"><polyline points="-19.8,1.9 -19.9,1.8 -20.0,1.7 -20.0,1.5 -20.0,1.4 -20.0,1.3 -19.9,1.2 -19.9,1.0 -19.8,0.9 -19.6,0.8 -19.5,0.6 -19.3,0.5 -19.1,0.4 -18.8,0.2 -18.6,0.1 -18.3,-0.1 -18.0,-0.2 -17.8,-0.3 -17.5,-0.5 -17.1,-0.6 -16.7,-0.8 -16.3,-0.9 -15.8,-1.1 -15.3,-1.3 -14.8,-1.4 -14.2,-1.6 -13.6,-1.8 -13.0,-2.0 -12.3,-2.1 -11.6,-2.3 -10.9,-2.5 -10.1,-2.7 -9.4,-2.8 -8.6,-3.0 -7.8,-3.2 -7.0,-3.3 -6.1,-3.5 -5.3,-3.6 -4.4,-3.7 -3.6,-3.9 -2.7,-4.0 -1.8,-4.1 -0.9,-4.2 -0.1,-4.3 0.8,-4.3 1.7,-4.4 2.5,-4.5 3.4,-4.5 4.3,-4.5 5.1,-4.5 5.9,-4.5 6.7,-4.5 7.6,-4.5 8.3,-4.5 9.1,-4.5 9.9,-4.4 10.6,-4.4 11.4,-4.3 12.1,-4.2 12.8,-4.1 13.4,-4.1 14.1,-4.0 14.7,-3.9 15.3,-3.8 15.9,-3.7 16.5,-3.5 17.1,-3.4 17.6,-3.3 18.2,-3.2 18.7,-3.1 19.2,-2.9 19.7,-2.8 20.1,-2.7 20.6,-2.5 21.0,-2.4 21.4,-2.2 21.8,-2.1 22.2,-1.9 22.6,-1.8 22.9,-1.6 20.6,-0.3 20.3,-0.2 20.1,0.0 19.9,0.2 19.6,0.3 19.4,0.5 19.1,0.6 18.8,0.8 18.5,0.9 18.2,1.0 17.8,1.2 17.5,1.3 17.1,1.4 16.7,1.6 16.3,1.7 15.9,1.8 15.5,1.9 15.1,2.1 14.6,2.2 14.2,2.3 13.7,2.4 13.2,2.5 12.7,2.6 12.2,2.7 11.7,2.8 11.1,2.9 10.6,3.0 10.0,3.1 9.4,3.2 8.9,3.3 8.3,3.4 7.7,3.5 7.1,3.5 6.5,3.6 5.8,3.7 5.2,3.8 4.6,3.8 4.0,3.9 3.3,3.9 2.7,4.0 2.1,4.0 1.4,4.1 0.8,4.1 0.1,4.1 -0.5,4.2 -1.2,4.2 -1.8,4.2 -2.5,4.2 -3.1,4.2 -3.7,4.2 -4.4,4.2 -5.0,4.2 -5.6,4.2 -6.2,4.2 -6.9,4.2 -7.5,4.1 -8.1,4.1 -8.7,4.1 -9.3,4.0 -9.9,4.0 -10.5,3.9 -11.0,3.8 -11.6,3.8 -12.1,3.7 -12.7,3.6 -13.2,3.6 -13.6,3.5 -14.1,3.5 -14.6,3.4 -15.0,3.4 -15.5,3.3 -15.9,3.2 -16.3,3.2 -16.7,3.1 -17.1,3.1 -17.5,3.0 -17.9,2.9 -18.3,2.9 -18.6,2.8 -19.0,2.8" fill="#fff" stroke="#fff" stroke-width="0" stroke-linejoin="round" filter="url(#fuzzy_av_1779093954993_vxp6njh9yzs)"/><polyline points="17.3,3.1 17.7,3.0 18.0,2.9 18.3,2.7 18.6,2.6 18.9,2.5 19.1,2.4 19.3,2.2 19.5,2.1 19.7,2.0 -19.8,1.9 -19.9,1.8 -20.0,1.7 -20.0,1.5 -20.0,1.4 -20.0,1.3 -19.9,1.2 -19.9,1.0 -19.8,0.9 -19.6,0.8 -19.5,0.6 -19.3,0.5 -19.1,0.4 -18.8,0.2 -18.6,0.1 -18.3,-0.1 -18.0,-0.2 -17.8,-0.3 -17.5,-0.5 -17.1,-0.6 -16.7,-0.8 -16.3,-0.9 -15.8,-1.1 -15.3,-1.3 -14.8,-1.4 -14.2,-1.6 -13.6,-1.8 -13.0,-2.0 -12.3,-2.1 -11.6,-2.3 -10.9,-2.5 -10.1,-2.7 -9.4,-2.8 -8.6,-3.0 -7.8,-3.2 -7.0,-3.3 -6.1,-3.5 -5.3,-3.6 -4.4,-3.7 -3.6,-3.9 -2.7,-4.0 -1.8,-4.1 -0.9,-4.2 -0.1,-4.3 0.8,-4.3 1.7,-4.4 2.5,-4.5 3.4,-4.5 4.3,-4.5 5.1,-4.5 5.9,-4.5 6.7,-4.5 7.6,-4.5 8.3,-4.5 9.1,-4.5 9.9,-4.4 10.6,-4.4 11.4,-4.3 12.1,-4.2 12.8,-4.1 13.4,-4.1 14.1,-4.0 14.7,-3.9 15.3,-3.8 15.9,-3.7 16.5,-3.5 17.1,-3.4 17.6,-3.3 18.2,-3.2 18.7,-3.1 19.2,-2.9 19.7,-2.8 20.1,-2.7 20.6,-2.5 21.0,-2.4 21.4,-2.2 21.8,-2.1 22.2,-1.9 22.6,-1.8 22.9,-1.6 -23.3,-1.5 -23.6,-1.4 -23.9,-1.2 -24.2,-1.1 -24.5,-0.9 -24.7,-0.8 -25.0,-0.6 -25.2,-0.5 -25.5,-0.4 -25.7,-0.2" fill="none" stroke="#111" stroke-width="2.75605785555836" stroke-linejoin="round" stroke-linecap="round" filter="url(#fuzzy_av_1779093954993_vxp6njh9yzs)"/><polyline points="21.4,2.3 21.3,2.3 21.1,2.3 20.9,2.4 20.7,2.4 20.4,2.5 20.2,2.5 19.9,2.6 19.6,2.6 19.3,2.7 -19.0,2.8 -18.6,2.8 -18.3,2.9 -17.9,2.9 -17.5,3.0 -17.1,3.1 -16.7,3.1 -16.3,3.2 -15.9,3.2 -15.5,3.3 -15.0,3.4 -14.6,3.4 -14.1,3.5 -13.6,3.5 -13.2,3.6 -12.7,3.6 -12.1,3.7 -11.6,3.8 -11.0,3.8 -10.5,3.9 -9.9,4.0 -9.3,4.0 -8.7,4.1 -8.1,4.1 -7.5,4.1 -6.9,4.2 -6.2,4.2 -5.6,4.2 -5.0,4.2 -4.4,4.2 -3.7,4.2 -3.1,4.2 -2.5,4.2 -1.8,4.2 -1.2,4.2 -0.5,4.2 0.1,4.1 0.8,4.1 1.4,4.1 2.1,4.0 2.7,4.0 3.3,3.9 4.0,3.9 4.6,3.8 5.2,3.8 5.8,3.7 6.5,3.6 7.1,3.5 7.7,3.5 8.3,3.4 8.9,3.3 9.4,3.2 10.0,3.1 10.6,3.0 11.1,2.9 11.7,2.8 12.2,2.7 12.7,2.6 13.2,2.5 13.7,2.4 14.2,2.3 14.6,2.2 15.1,2.1 15.5,1.9 15.9,1.8 16.3,1.7 16.7,1.6 17.1,1.4 17.5,1.3 17.8,1.2 18.2,1.0 18.5,0.9 18.8,0.8 19.1,0.6 19.4,0.5 19.6,0.3 19.9,0.2 20.1,0.0 20.3,-0.2 20.6,-0.3 -20.7,-0.5 -20.9,-0.7 -21.1,-0.8 -21.2,-1.0 -21.4,-1.2 -21.5,-1.4 -21.6,-1.5 -21.7,-1.7 -21.8,-1.9 -21.9,-2.1" fill="none" stroke="#111" stroke-width="1.901088334925365" stroke-linejoin="round" stroke-linecap="round" filter="url(#fuzzy_av_1779093954993_vxp6njh9yzs)"/><circle r="3.219636028715295" cx="11.668109100700985" cy="0.5418227431317142" stroke="#111" fill="none" stroke-width="1.183322012597603" filter="url(#fuzzy_av_1779093954993_vxp6njh9yzs)" clip-path="url(#leftEye_av_1779093954993_vxp6njh9yzs)"/><circle r="2.8040293411714954" cx="13.253737057578093" cy="-0.49106521616161847" stroke="#111" fill="none" stroke-width="0.9715240014174154" filter="url(#fuzzy_av_1779093954993_vxp6njh9yzs)" clip-path="url(#leftEye_av_1779093954993_vxp6njh9yzs)"/><circle r="4.403963598029593" cx="13.590741888424468" cy="1.061003371280163" stroke="#111" fill="none" stroke-width="1.3262172895169813" filter="url(#fuzzy_av_1779093954993_vxp6njh9yzs)" clip-path="url(#leftEye_av_1779093954993_vxp6njh9yzs)"/><circle r="3.5979292299023564" cx="15.20795008761648" cy="0.7364183574558223" stroke="#111" fill="none" stroke-width="1.256988873284006" filter="url(#fuzzy_av_1779093954993_vxp6njh9yzs)" clip-path="url(#leftEye_av_1779093954993_vxp6njh9yzs)"/><circle r="4.183084034377153" cx="14.635609781867512" cy="0.8729044158063091" stroke="#111" fill="none" stroke-width="0.9945072979690015" filter="url(#fuzzy_av_1779093954993_vxp6njh9yzs)" clip-path="url(#leftEye_av_1779093954993_vxp6njh9yzs)"/><circle r="4.334454025047744" cx="14.75693439529352" cy="-1.387488665812171" stroke="#111" fill="none" stroke-width="1.0701703754547416" filter="url(#fuzzy_av_1779093954993_vxp6njh9yzs)" clip-path="url(#leftEye_av_1779093954993_vxp6njh9yzs)"/><circle r="3.3708901115853607" cx="13.995000840424403" cy="1.5446680129423682" stroke="#111" fill="none" stroke-width="1.0570274445156143" filter="url(#fuzzy_av_1779093954993_vxp6njh9yzs)" clip-path="url(#leftEye_av_1779093954993_vxp6njh9yzs)"/><circle r="4.541171855541047" cx="14.859259503432042" cy="-0.5224151853874357" stroke="#111" fill="none" stroke-width="0.897198290758629" filter="url(#fuzzy_av_1779093954993_vxp6njh9yzs)" clip-path="url(#leftEye_av_1779093954993_vxp6njh9yzs)"/><circle r="3.699510521088939" cx="12.197644742468803" cy="-1.3571452754608548" stroke="#111" fill="none" stroke-width="0.8240589457403313" filter="url(#fuzzy_av_1779093954993_vxp6njh9yzs)" clip-path="url(#leftEye_av_1779093954993_vxp6njh9yzs)"/><circle r="2.8283974756945423" cx="15.175511229867027" cy="1.9923218790122412" stroke="#111" fill="none" stroke-width="0.8379681349289052" filter="url(#fuzzy_av_1779093954993_vxp6njh9yzs)" clip-path="url(#leftEye_av_1779093954993_vxp6njh9yzs)"/></g><g id="rightEye" transform="translate(22.9 -27.8)"><polyline points="-22.1,1.1 -22.1,1.0 -22.1,0.9 -22.1,0.8 -22.0,0.7 -21.9,0.6 -21.8,0.5 -21.7,0.3 -21.5,0.2 -21.4,0.1 -21.2,0.0 -21.0,-0.1 -20.7,-0.2 -20.5,-0.4 -20.2,-0.5 -19.9,-0.6 -19.6,-0.7 -19.4,-0.8 -19.0,-0.9 -18.7,-1.1 -18.3,-1.2 -17.9,-1.3 -17.4,-1.5 -17.0,-1.6 -16.4,-1.8 -15.9,-1.9 -15.3,-2.0 -14.7,-2.2 -14.1,-2.3 -13.4,-2.5 -12.7,-2.6 -12.0,-2.8 -11.3,-2.9 -10.6,-3.1 -9.8,-3.2 -9.0,-3.3 -8.2,-3.4 -7.4,-3.6 -6.6,-3.7 -5.7,-3.8 -4.9,-3.9 -4.1,-4.0 -3.2,-4.0 -2.3,-4.1 -1.5,-4.2 -0.6,-4.2 0.2,-4.3 1.1,-4.3 1.9,-4.3 2.8,-4.3 3.6,-4.3 4.4,-4.3 5.3,-4.3 6.1,-4.3 6.9,-4.3 7.6,-4.2 8.4,-4.2 9.2,-4.1 9.9,-4.1 10.6,-4.0 11.4,-3.9 12.0,-3.8 12.7,-3.8 13.4,-3.7 14.0,-3.6 14.7,-3.5 15.3,-3.4 15.9,-3.3 16.5,-3.2 17.0,-3.1 17.6,-3.0 18.1,-2.9 18.7,-2.7 19.2,-2.6 19.7,-2.5 20.2,-2.4 20.6,-2.3 21.1,-2.2 21.5,-2.0 22.0,-1.9 23.6,0.3 23.4,0.4 23.2,0.5 23.0,0.6 22.8,0.7 22.6,0.8 22.3,0.9 22.0,1.0 21.7,1.0 21.4,1.1 21.1,1.2 20.8,1.3 20.5,1.4 20.1,1.5 19.7,1.6 19.3,1.7 18.9,1.8 18.5,1.9 18.0,2.0 17.6,2.1 17.1,2.2 16.6,2.3 16.1,2.4 15.6,2.4 15.0,2.5 14.5,2.6 13.9,2.7 13.3,2.8 12.6,2.9 12.0,3.0 11.4,3.1 10.7,3.2 10.0,3.3 9.3,3.4 8.6,3.5 7.9,3.6 7.2,3.6 6.4,3.7 5.7,3.8 4.9,3.9 4.1,3.9 3.4,4.0 2.6,4.1 1.8,4.1 1.0,4.2 0.2,4.2 -0.6,4.2 -1.3,4.3 -2.1,4.3 -2.9,4.3 -3.7,4.3 -4.5,4.3 -5.2,4.3 -6.0,4.3 -6.7,4.3 -7.4,4.3 -8.1,4.2 -8.8,4.2 -9.5,4.1 -10.2,4.1 -10.9,4.0 -11.5,3.9 -12.1,3.8 -12.7,3.7 -13.3,3.6 -13.8,3.5 -14.4,3.5 -14.9,3.4 -15.4,3.3 -15.9,3.3 -16.4,3.2 -16.8,3.1 -17.3,3.0 -17.7,2.9 -18.2,2.9 -18.6,2.8 -19.0,2.7 -19.3,2.6 -19.7,2.5 -20.0,2.4" fill="#fff" stroke="#fff" stroke-width="0" stroke-linejoin="round" filter="url(#fuzzy_av_1779093954993_vxp6njh9yzs)"/><polyline points="-21.2,2.2 -21.3,2.1 -21.5,2.0 -21.6,1.9 -21.8,1.7 -21.9,1.6 -22.0,1.5 -22.0,1.4 -22.1,1.3 -22.1,1.2 -22.1,1.1 -22.1,1.0 -22.1,0.9 -22.1,0.8 -22.0,0.7 -21.9,0.6 -21.8,0.5 -21.7,0.3 -21.5,0.2 -21.4,0.1 -21.2,0.0 -21.0,-0.1 -20.7,-0.2 -20.5,-0.4 -20.2,-0.5 -19.9,-0.6 -19.6,-0.7 -19.4,-0.8 -19.0,-0.9 -18.7,-1.1 -18.3,-1.2 -17.9,-1.3 -17.4,-1.5 -17.0,-1.6 -16.4,-1.8 -15.9,-1.9 -15.3,-2.0 -14.7,-2.2 -14.1,-2.3 -13.4,-2.5 -12.7,-2.6 -12.0,-2.8 -11.3,-2.9 -10.6,-3.1 -9.8,-3.2 -9.0,-3.3 -8.2,-3.4 -7.4,-3.6 -6.6,-3.7 -5.7,-3.8 -4.9,-3.9 -4.1,-4.0 -3.2,-4.0 -2.3,-4.1 -1.5,-4.2 -0.6,-4.2 0.2,-4.3 1.1,-4.3 1.9,-4.3 2.8,-4.3 3.6,-4.3 4.4,-4.3 5.3,-4.3 6.1,-4.3 6.9,-4.3 7.6,-4.2 8.4,-4.2 9.2,-4.1 9.9,-4.1 10.6,-4.0 11.4,-3.9 12.0,-3.8 12.7,-3.8 13.4,-3.7 14.0,-3.6 14.7,-3.5 15.3,-3.4 15.9,-3.3 16.5,-3.2 17.0,-3.1 17.6,-3.0 18.1,-2.9 18.7,-2.7 19.2,-2.6 19.7,-2.5 20.2,-2.4 20.6,-2.3 21.1,-2.2 21.5,-2.0 22.0,-1.9 22.4,-1.8 22.8,-1.7 23.2,-1.6 23.5,-1.4 23.9,-1.3 24.2,-1.2 24.6,-1.1 24.9,-1.0 25.2,-0.9 25.5,-0.7" fill="none" stroke="#111" stroke-width="2.261403933437753" stroke-linejoin="round" stroke-linecap="round" filter="url(#fuzzy_av_1779093954993_vxp6njh9yzs)"/><polyline points="-22.4,1.7 -22.3,1.8 -22.1,1.8 -21.9,1.9 -21.7,1.9 -21.5,2.0 -21.2,2.1 -20.9,2.2 -20.7,2.3 -20.3,2.3 -20.0,2.4 -19.7,2.5 -19.3,2.6 -19.0,2.7 -18.6,2.8 -18.2,2.9 -17.7,2.9 -17.3,3.0 -16.8,3.1 -16.4,3.2 -15.9,3.3 -15.4,3.3 -14.9,3.4 -14.4,3.5 -13.8,3.5 -13.3,3.6 -12.7,3.7 -12.1,3.8 -11.5,3.9 -10.9,4.0 -10.2,4.1 -9.5,4.1 -8.8,4.2 -8.1,4.2 -7.4,4.3 -6.7,4.3 -6.0,4.3 -5.2,4.3 -4.5,4.3 -3.7,4.3 -2.9,4.3 -2.1,4.3 -1.3,4.3 -0.6,4.2 0.2,4.2 1.0,4.2 1.8,4.1 2.6,4.1 3.4,4.0 4.1,3.9 4.9,3.9 5.7,3.8 6.4,3.7 7.2,3.6 7.9,3.6 8.6,3.5 9.3,3.4 10.0,3.3 10.7,3.2 11.4,3.1 12.0,3.0 12.6,2.9 13.3,2.8 13.9,2.7 14.5,2.6 15.0,2.5 15.6,2.4 16.1,2.4 16.6,2.3 17.1,2.2 17.6,2.1 18.0,2.0 18.5,1.9 18.9,1.8 19.3,1.7 19.7,1.6 20.1,1.5 20.5,1.4 20.8,1.3 21.1,1.2 21.4,1.1 21.7,1.0 22.0,1.0 22.3,0.9 22.6,0.8 22.8,0.7 23.0,0.6 23.2,0.5 23.4,0.4 23.6,0.3 23.8,0.2 24.0,0.1 24.1,0.0 24.3,-0.1 24.4,-0.2 24.5,-0.3 24.6,-0.3 24.7,-0.4 24.7,-0.5 24.8,-0.6" fill="none" stroke="#111" stroke-width="2.1693326172975076" stroke-linejoin="round" stroke-linecap="round" filter="url(#fuzzy_av_1779093954993_vxp6njh9yzs)"/><circle r="3.4383967429588425" cx="5.51299496476869" cy="0.6994450803776187" stroke="#111" fill="none" stroke-width="1.3786365468777129" filter="url(#fuzzy_av_1779093954993_vxp6njh9yzs)" clip-path="url(#rightEye_av_1779093954993_vxp6njh9yzs)"/><circle r="3.512723832910467" cx="4.170240442817895" cy="0.24932848402331942" stroke="#111" fill="none" stroke-width="1.0449492884994378" filter="url(#fuzzy_av_1779093954993_vxp6njh9yzs)" clip-path="url(#rightEye_av_1779093954993_vxp6njh9yzs)"/><circle r="4.421647022468073" cx="4.984869181106788" cy="0.3334629013115955" stroke="#111" fill="none" stroke-width="1.2988543401539376" filter="url(#fuzzy_av_1779093954993_vxp6njh9yzs)" clip-path="url(#rightEye_av_1779093954993_vxp6njh9yzs)"/><circle r="2.3269947620930247" cx="4.19580119337676" cy="0.45710766704599504" stroke="#111" fill="none" stroke-width="1.2032825528819378" filter="url(#fuzzy_av_1779093954993_vxp6njh9yzs)" clip-path="url(#rightEye_av_1779093954993_vxp6njh9yzs)"/><circle r="2.8389757935127706" cx="4.570591536243353" cy="-1.2325683239247112" stroke="#111" fill="none" stroke-width="1.3158274404546406" filter="url(#fuzzy_av_1779093954993_vxp6njh9yzs)" clip-path="url(#rightEye_av_1779093954993_vxp6njh9yzs)"/><circle r="3.983888939129651" cx="3.463879264159405" cy="1.4397011779615623" stroke="#111" fill="none" stroke-width="1.3563254294556" filter="url(#fuzzy_av_1779093954993_vxp6njh9yzs)" clip-path="url(#rightEye_av_1779093954993_vxp6njh9yzs)"/><circle r="4.689111677461529" cx="4.54411765726894" cy="0.9749948725050861" stroke="#111" fill="none" stroke-width="0.9680228212910921" filter="url(#fuzzy_av_1779093954993_vxp6njh9yzs)" clip-path="url(#rightEye_av_1779093954993_vxp6njh9yzs)"/><circle r="4.355582654077111" cx="4.040872054721174" cy="1.1511459058287477" stroke="#111" fill="none" stroke-width="0.9060483075299636" filter="url(#fuzzy_av_1779093954993_vxp6njh9yzs)" clip-path="url(#rightEye_av_1779093954993_vxp6njh9yzs)"/><circle r="3.937953678654952" cx="4.547592176470042" cy="1.1828375604712864" stroke="#111" fill="none" stroke-width="0.9849021404833559" filter="url(#fuzzy_av_1779093954993_vxp6njh9yzs)" clip-path="url(#rightEye_av_1779093954993_vxp6njh9yzs)"/><circle r="4.1308735878223946" cx="2.3778311873818185" cy="1.3246558966653827" stroke="#111" fill="none" stroke-width="1.3770030565410378" filter="url(#fuzzy_av_1779093954993_vxp6njh9yzs)" clip-path="url(#rightEye_av_1779093954993_vxp6njh9yzs)"/></g><g id="hairs"><polyline points="59.9,-19.8 60.4,-17.2 61.5,-15.7 63.1,-14.5 64.9,-12.7 66.5,-10.1 67.6,-7.8 68.5,-5.6 69.2,-2.8 69.8,-0.2 70.2,1.0 70.3,4.0 70.1,6.3 70.0,8.7 70.1,9.7 70.7,13.8 71.7,16.0 73.0,17.9 74.1,18.6 74.8,22.0 74.8,23.7 74.1,25.5 72.9,27.2 71.3,29.7 70.4,31.7" fill="none" stroke="rgb(167,133,106)" stroke-width="2.5143364701764304" stroke-linejoin="round" stroke-linecap="round" filter="url(#fuzzy_av_1779093954993_vxp6njh9yzs)" opacity="0.901343306081924"/><polyline points="59.9,-20.0 60.1,-17.2 60.1,-16.5 58.9,-14.5 56.5,-12.0 53.4,-9.3 50.6,-8.0 48.4,-6.3 46.7,-2.2 45.3,-0.2 43.9,1.2 42.6,3.3 41.5,5.4 40.6,7.5 39.8,10.1 38.7,12.0 37.2,14.3 35.1,17.3 32.4,19.8 29.4,20.9 26.5,23.9 23.8,25.2 21.5,28.1 19.9,30.5 19.7,31.9" fill="none" stroke="rgb(167,133,106)" stroke-width="0.9844189147220217" stroke-linejoin="round" stroke-linecap="round" filter="url(#fuzzy_av_1779093954993_vxp6njh9yzs)" opacity="0.9878279701668049"/><polyline points="57.2,-26.6 58.7,-24.0 59.4,-21.8 60.0,-20.6 60.7,-17.4 61.4,-14.9 62.0,-13.4 62.6,-10.8 63.2,-8.6 63.7,-5.7 64.1,-3.6 64.4,-2.3 64.4,-0.2 64.3,2.5 63.9,5.6 63.5,7.4 63.0,10.4 62.5,11.9 61.9,13.2 61.3,16.5 60.6,19.2 59.9,21.4 59.2,22.0 58.4,25.5 57.5,26.3 56.4,30.1 55.2,31.5 53.7,33.2 51.9,37.1 49.8,39.7 47.4,40.3 44.6,42.5 41.6,43.7 38.1,45.1" fill="none" stroke="rgb(167,133,106)" stroke-width="2.500910035961516" stroke-linejoin="round" stroke-linecap="round" filter="url(#fuzzy_av_1779093954993_vxp6njh9yzs)" opacity="0.8670790746357043"/><polyline points="56.2,-29.0 58.2,-26.0 59.5,-23.2 60.8,-21.2 62.4,-19.1 64.5,-17.1 66.8,-13.4 68.9,-12.9 70.4,-9.7 71.2,-8.2 71.3,-6.4 70.9,-3.4 70.3,-1.8 69.6,0.4 69.0,3.7 68.6,6.8 68.3,7.5 68.3,10.1 68.6,12.5 69.0,15.0 69.5,16.9 69.9,20.0 70.1,21.8 70.0,24.0 69.7,26.4 69.2,28.6 68.4,30.8 67.4,33.5 66.3,36.0 64.8,38.3" fill="none" stroke="rgb(167,133,106)" stroke-width="1.4844873646956032" stroke-linejoin="round" stroke-linecap="round" filter="url(#fuzzy_av_1779093954993_vxp6njh9yzs)" opacity="0.8619745921231772"/><polyline points="53.4,-35.4 58.0,-32.4 59.9,-28.3 61.0,-26.4 61.7,-25.2 62.3,-23.3 62.9,-20.1 63.3,-18.1 63.7,-15.6 64.2,-13.1 64.7,-10.3 65.4,-8.4 66.1,-5.9 66.7,-3.8 67.1,-3.2 67.3,0.1 67.4,2.4 67.4,5.3 67.4,7.3 67.4,9.2 67.5,12.3 67.5,14.5 67.4,15.5 67.1,17.8 66.6,21.2 66.0,22.8 65.8,24.7 66.2,25.8" fill="none" stroke="rgb(167,133,106)" stroke-width="1.330946685287263" stroke-linejoin="round" stroke-linecap="round" filter="url(#fuzzy_av_1779093954993_vxp6njh9yzs)" opacity="0.8188676384542245"/><polyline points="53.7,-35.3 58.2,-33.9 60.7,-30.1 61.5,-27.6 61.7,-26.0 61.9,-23.5 62.5,-21.4 63.5,-18.9 64.7,-17.3 66.1,-13.5 67.4,-12.6 68.6,-11.0 69.6,-8.1 70.3,-5.7 70.8,-3.1 70.9,-1.9 70.9,2.2 70.8,4.4 70.7,6.1 70.5,7.5 70.5,10.0 70.5,12.1 70.5,14.1 70.5,16.3 70.2,18.4 69.6,22.4 68.7,23.1 67.6,26.3 66.5,28.3 65.5,30.0 64.6,32.9 63.7,35.8 62.6,37.8 61.4,40.5" fill="none" stroke="rgb(167,133,106)" stroke-width="1.7750149752306887" stroke-linejoin="round" stroke-linecap="round" filter="url(#fuzzy_av_1779093954993_vxp6njh9yzs)" opacity="0.8974537690914519"/><polyline points="48.7,-42.3 50.1,-42.0 51.8,-37.8 53.3,-36.7 54.7,-33.6 56.3,-32.6 58.0,-29.1 59.6,-26.4 61.0,-25.6 62.2,-23.0 63.2,-19.9 64.1,-17.7 65.1,-15.4 66.0,-13.8 67.0,-11.6 67.9,-9.2 68.6,-7.0 69.0,-4.5 69.2,-2.9 69.1,-0.3 68.9,3.0 68.8,4.2 68.8,6.4 69.0,9.6 69.3,11.9 69.6,13.1 69.4,15.6 68.7,17.5 67.4,21.7" fill="none" stroke="rgb(167,133,106)" stroke-width="1.1105378361294114" stroke-linejoin="round" stroke-linecap="round" filter="url(#fuzzy_av_1779093954993_vxp6njh9yzs)" opacity="0.8035407685864547"/><polyline points="48.0,-43.6 49.0,-41.9 50.3,-40.0 51.5,-37.3 52.6,-36.4 53.6,-33.9 54.5,-30.6 55.5,-28.7 56.4,-26.8 57.3,-23.4 58.0,-20.3 58.7,-19.4 59.2,-16.1 59.6,-14.3 59.9,-11.9 60.0,-10.2 60.1,-8.4 60.0,-6.2 59.9,-3.9 59.7,-2.3 59.4,0.9 59.1,3.7 58.6,4.6 58.1,8.6 57.5,10.1 56.8,13.3 56.0,14.8 55.3,16.3 54.6,18.6 53.9,22.1 53.0,24.0 52.2,24.8 51.6,26.8" fill="none" stroke="rgb(167,133,106)" stroke-width="2.5727148963800595" stroke-linejoin="round" stroke-linecap="round" filter="url(#fuzzy_av_1779093954993_vxp6njh9yzs)" opacity="0.9713063116666141"/><polyline points="45.7,-46.6 47.7,-44.8 49.3,-42.4 50.8,-40.9 52.2,-38.1 53.6,-36.0 55.0,-33.1 56.6,-30.5 58.2,-29.3 59.9,-26.8 61.6,-23.9 63.1,-21.8 64.4,-18.4 65.5,-17.5 66.5,-14.4 67.5,-13.4 68.4,-10.1 69.5,-7.5 70.6,-7.1 71.7,-4.4 72.6,-0.9 73.2,0.0 73.5,2.7 73.7,4.7 73.7,6.8 73.6,10.7 73.2,12.8 73.3,14.2" fill="none" stroke="rgb(167,133,106)" stroke-width="1.2382381296798806" stroke-linejoin="round" stroke-linecap="round" filter="url(#fuzzy_av_1779093954993_vxp6njh9yzs)" opacity="0.7991792722766261"/><polyline points="45.7,-47.8 48.9,-44.3 51.4,-43.0 53.0,-41.2 54.4,-37.0 55.8,-35.1 57.1,-33.6 58.2,-32.0 59.2,-27.7 60.1,-26.5 61.0,-23.2 62.0,-21.9 63.2,-18.5 64.5,-16.4 65.9,-15.2 67.1,-13.0 68.2,-9.6 69.0,-7.4 69.4,-5.2 69.7,-4.2 69.9,-2.6 70.1,0.6 70.3,3.8 70.6,5.9 70.8,8.5 70.9,9.4 71.0,12.2 71.2,15.0 71.4,15.9 71.4,17.4" fill="none" stroke="rgb(167,133,106)" stroke-width="2.02184802957662" stroke-linejoin="round" stroke-linecap="round" filter="url(#fuzzy_av_1779093954993_vxp6njh9yzs)" opacity="0.7726412735311489"/><polyline points="44.9,-48.7 48.3,-46.3 51.2,-45.0 52.4,-43.1 53.3,-40.7 54.5,-38.8 56.2,-36.3 58.5,-32.7 61.2,-30.4 63.8,-28.8 66.2,-26.6 68.2,-23.4 69.9,-20.7 71.4,-19.6 73.0,-17.2 74.7,-14.9 76.5,-12.7 78.5,-10.1 80.3,-7.8 81.9,-6.9 83.1,-3.1 83.8,-2.2 84.2,0.9 84.3,2.3 84.4,4.8 84.7,7.9 85.1,10.1 85.5,12.4 85.8,15.2 85.8,16.7 85.9,18.9 86.4,20.7" fill="none" stroke="rgb(167,133,106)" stroke-width="1.0779930741684016" stroke-linejoin="round" stroke-linecap="round" filter="url(#fuzzy_av_1779093954993_vxp6njh9yzs)" opacity="0.7568375391728329"/><polyline points="44.9,-49.2 47.1,-46.7 49.7,-45.6 51.8,-43.2 53.3,-41.2 54.3,-37.1 55.1,-35.8 56.0,-33.2 57.2,-30.5 58.9,-28.2 61.0,-26.9 63.4,-23.1 66.0,-22.2 68.4,-18.8 70.6,-16.6 72.4,-13.7 73.9,-13.2 74.9,-11.2 75.6,-8.9 76.0,-6.5 76.1,-3.4 76.1,-1.8 76.0,1.4 75.9,3.7 76.1,4.9 76.4,8.0 77.1,10.6 77.8,13.5 78.6,14.8 79.1,16.5 79.1,18.5 78.7,21.9 78.0,22.6 77.2,24.9 76.2,26.7 74.9,29.0 73.7,32.0" fill="none" stroke="rgb(167,133,106)" stroke-width="2.273288390983091" stroke-linejoin="round" stroke-linecap="round" filter="url(#fuzzy_av_1779093954993_vxp6njh9yzs)" opacity="0.9107633810082274"/><polyline points="42.8,-51.1 43.0,-49.6 43.5,-47.6 45.1,-45.8 46.8,-41.7 48.1,-40.7 49.3,-37.3 50.3,-35.4 51.3,-32.9 52.1,-30.4 52.7,-28.5 53.0,-25.5 53.1,-24.7 53.0,-21.2 52.9,-18.6 52.8,-16.7 52.8,-15.2 52.6,-13.5 52.2,-11.2 51.6,-8.2 50.8,-5.3 49.8,-4.5 48.8,-2.5 48.0,0.0 47.3,2.8 46.9,5.4 46.5,6.7 45.9,10.2 44.8,11.4 43.2,15.0 41.3,17.2 39.8,17.0" fill="none" stroke="rgb(167,133,106)" stroke-width="1.5358249512201532" stroke-linejoin="round" stroke-linecap="round" filter="url(#fuzzy_av_1779093954993_vxp6njh9yzs)" opacity="0.8363210199206969"/><polyline points="42.1,-54.1 44.4,-49.6 46.2,-47.9 47.8,-44.9 49.3,-42.6 50.8,-41.4 52.4,-38.4 54.0,-37.3 55.7,-34.1 57.6,-32.5 59.6,-30.3 61.8,-28.0 63.8,-25.5 65.7,-24.0 67.2,-21.3 68.4,-18.5 69.4,-16.1 70.2,-13.4 70.9,-12.8 71.6,-9.8 72.2,-6.6 72.8,-4.4 73.4,-3.0 73.9,-0.7 74.4,2.9 74.8,3.5 74.9,7.1 74.7,8.2 74.3,11.0 73.8,12.5 73.6,15.6 73.5,18.7 73.6,20.8" fill="none" stroke="rgb(167,133,106)" stroke-width="2.543122212186172" stroke-linejoin="round" stroke-linecap="round" filter="url(#fuzzy_av_1779093954993_vxp6njh9yzs)" opacity="0.9338550494622987"/><polyline points="42.8,-53.7 43.6,-51.2 45.0,-50.1 46.5,-46.7 48.0,-45.2 49.5,-42.9 50.9,-40.3 52.4,-37.6 53.8,-36.6 55.2,-34.0 56.5,-31.2 57.8,-28.0 59.2,-26.6 60.5,-24.7 61.7,-22.3 62.8,-20.2 63.8,-17.9 64.7,-14.5 65.4,-13.7 66.1,-10.0 66.7,-9.3 67.1,-6.3 67.4,-4.9 67.6,-2.4 67.7,1.4 67.8,2.6 67.8,5.4 67.6,6.8 67.1,10.1 66.5,12.1 65.9,14.8 65.1,16.8" fill="none" stroke="rgb(167,133,106)" stroke-width="0.7758267100385745" stroke-linejoin="round" stroke-linecap="round" filter="url(#fuzzy_av_1779093954993_vxp6njh9yzs)" opacity="0.9216473707127425"/><polyline points="41.2,-55.9 43.7,-52.5 46.5,-49.8 48.1,-47.5 49.1,-45.0 50.0,-44.4 51.2,-42.0 52.8,-38.5 54.5,-35.9 56.2,-33.5 57.8,-31.3 59.3,-29.6 60.5,-27.1 61.8,-24.8 63.0,-23.7 64.2,-20.6 65.5,-18.7 66.8,-17.1 68.0,-15.2 69.1,-12.0 69.9,-9.3 70.6,-8.4 71.1,-5.0 71.7,-3.2 72.4,-0.7 73.1,2.2 73.8,3.8 74.3,6.6 74.5,9.5" fill="none" stroke="rgb(167,133,106)" stroke-width="2.0313786515142764" stroke-linejoin="round" stroke-linecap="round" filter="url(#fuzzy_av_1779093954993_vxp6njh9yzs)" opacity="0.8836527315193871"/><polyline points="37.1,-58.0 39.6,-55.9 41.7,-53.7 43.5,-51.5 45.0,-48.7 46.3,-46.8 47.5,-43.7 48.7,-41.2 49.9,-38.4 51.1,-37.7 52.3,-34.4 53.3,-32.0 54.3,-29.6 55.1,-27.4 55.9,-25.4 56.6,-23.7 57.2,-20.4 57.8,-18.2 58.2,-17.0 58.6,-15.2 58.9,-11.4 59.2,-9.5 59.3,-8.7 59.4,-5.7 59.3,-2.5 59.3,0.5" fill="none" stroke="rgb(167,133,106)" stroke-width="1.8385376796412636" stroke-linejoin="round" stroke-linecap="round" filter="url(#fuzzy_av_1779093954993_vxp6njh9yzs)" opacity="0.8939666755711622"/><polyline points="34.8,-58.4 37.4,-56.9 39.9,-55.6 42.0,-52.2 43.9,-51.6 45.6,-48.5 47.1,-45.4 48.6,-44.2 49.9,-42.0 51.3,-38.7 52.5,-36.7 53.7,-34.9 54.8,-32.0 55.9,-29.2 56.8,-28.0 57.7,-24.8 58.5,-22.4 59.3,-20.9 60.0,-18.3 60.7,-15.6 61.3,-13.9 61.8,-11.7 62.2,-8.8 62.6,-6.6 62.8,-4.1 62.9,-3.2 62.9,0.0 62.8,2.5 62.6,4.8 62.3,6.1 61.9,8.6 61.5,11.2 61.0,13.6 60.3,14.6 59.4,18.5 58.2,21.3" fill="none" stroke="rgb(167,133,106)" stroke-width="0.8870724246326138" stroke-linejoin="round" stroke-linecap="round" filter="url(#fuzzy_av_1779093954993_vxp6njh9yzs)" opacity="0.8157719707301414"/><polyline points="32.0,-59.0 34.9,-58.2 38.2,-55.9 41.4,-55.7 44.7,-53.4 48.3,-51.8 51.8,-48.4 54.7,-46.1 56.9,-43.7 58.5,-40.8 59.9,-39.1 61.4,-37.6 63.3,-35.7 65.5,-33.2 67.8,-29.9 70.2,-27.3 72.6,-25.3 75.0,-23.2 77.6,-21.4 80.2,-18.8 83.0,-16.3 85.5,-15.2 87.6,-12.6 89.2,-10.5 92.6,-7.8" fill="none" stroke="rgb(167,133,106)" stroke-width="1.0870299736230995" stroke-linejoin="round" stroke-linecap="round" filter="url(#fuzzy_av_1779093954993_vxp6njh9yzs)" opacity="0.9990402782922673"/><polyline points="28.8,-59.0 32.1,-58.8 34.8,-56.7 37.3,-56.4 39.9,-54.6 42.3,-53.6 44.6,-50.4 46.6,-48.5 48.3,-46.8 49.9,-43.3 51.4,-41.6 52.8,-40.1 54.2,-38.1 55.6,-34.8 56.9,-33.0 58.1,-31.4 59.2,-27.5 60.3,-25.7 61.2,-23.8 62.2,-22.3 63.3,-19.7 64.4,-16.6 65.6,-14.6" fill="none" stroke="rgb(167,133,106)" stroke-width="1.7469979635243758" stroke-linejoin="round" stroke-linecap="round" filter="url(#fuzzy_av_1779093954993_vxp6njh9yzs)" opacity="0.9670599438080405"/><polyline points="21.3,-61.1 24.6,-60.1 27.7,-60.2 30.8,-59.0 33.7,-58.5 36.4,-56.8 38.8,-54.1 41.0,-54.1 42.8,-52.1 44.5,-49.6 46.0,-48.4 47.4,-45.4 48.8,-42.6 50.1,-41.0 51.4,-39.1 52.7,-36.8 53.9,-34.1 55.1,-30.6 56.3,-29.3 57.4,-26.2 58.5,-24.0 59.4,-22.7 60.3,-20.1 61.1,-16.5 61.7,-14.6 62.3,-12.9 62.8,-11.7 63.2,-8.0 63.5,-7.4 63.7,-4.6 63.9,-2.8 64.0,0.8 63.9,2.3 63.7,5.4 63.4,6.3 62.9,10.2 62.2,12.9" fill="none" stroke="rgb(167,133,106)" stroke-width="1.3451117977326272" stroke-linejoin="round" stroke-linecap="round" filter="url(#fuzzy_av_1779093954993_vxp6njh9yzs)" opacity="0.9763996468839917"/><polyline points="19.1,-61.0 21.6,-61.8 24.5,-60.6 27.6,-59.2 30.6,-58.0 33.5,-57.0 36.2,-55.5 38.6,-55.7 40.7,-52.4 42.5,-50.7 44.2,-50.3 45.7,-46.8 47.2,-44.6 48.6,-43.1 50.0,-39.9 51.3,-38.1 52.6,-37.1 53.8,-34.4 55.0,-31.2 56.2,-28.2 57.3,-27.1 58.3,-24.7 59.2,-21.8 60.0,-19.5 60.7,-17.3 61.3,-14.7 61.9,-13.5 62.3,-10.3 62.7,-8.2 63.0,-7.4 63.2,-3.8 63.3,-2.7 63.3,0.3 63.3,2.7 63.2,4.9 63.0,6.8 62.5,9.7" fill="none" stroke="rgb(167,133,106)" stroke-width="1.0726687123385896" stroke-linejoin="round" stroke-linecap="round" filter="url(#fuzzy_av_1779093954993_vxp6njh9yzs)" opacity="0.752185107195877"/><polyline points="19.3,-61.2 21.4,-61.5 24.4,-60.7 27.6,-60.7 30.8,-58.4 34.0,-58.9 37.3,-58.1 40.5,-55.6 43.4,-53.6 46.0,-52.7 48.3,-50.2 50.3,-48.1 52.2,-46.6 54.1,-43.8 56.1,-41.0 58.3,-39.7 60.6,-37.5 63.1,-34.3 65.6,-32.9 67.9,-31.1 70.0,-27.5 71.8,-26.4 73.2,-24.1 74.2,-21.1 75.1,-18.7 75.9,-15.8 76.7,-14.8 77.7,-12.5 78.8,-9.0 80.0,-7.2 81.1,-4.7 82.2,-3.8 83.2,-1.4 84.3,0.9 85.3,4.0 86.2,6.1 86.7,8.9 86.4,11.2 85.5,12.3" fill="none" stroke="rgb(167,133,106)" stroke-width="1.8647785361082738" stroke-linejoin="round" stroke-linecap="round" filter="url(#fuzzy_av_1779093954993_vxp6njh9yzs)" opacity="0.9604590774603258"/><polyline points="12.9,-63.1 15.6,-62.8 18.4,-61.3 21.2,-61.1 23.9,-59.9 26.6,-59.2 29.3,-58.3 32.2,-57.6 35.2,-57.3 38.1,-56.8 40.9,-54.6 43.5,-53.1 45.9,-50.2 48.0,-48.9 49.8,-47.1 51.5,-44.2 53.1,-41.3 54.6,-38.8 56.0,-37.3 57.5,-34.3 58.8,-32.5 60.2,-31.3 61.6,-27.3 63.0,-25.1 64.3,-23.3 65.5,-21.3 66.7,-19.9 67.7,-17.0 68.7,-13.9 69.6,-11.8 70.5,-9.3 71.2,-7.5 71.8,-5.9 72.3,-3.8 72.8,-1.2 73.2,0.6 73.4,4.5 73.5,6.6 73.4,8.8" fill="none" stroke="rgb(167,133,106)" stroke-width="1.6434746717608375" stroke-linejoin="round" stroke-linecap="round" filter="url(#fuzzy_av_1779093954993_vxp6njh9yzs)" opacity="0.8864315247077383"/><polyline points="11.6,-62.0 15.1,-61.2 17.6,-60.9 20.1,-61.3 22.8,-61.1 25.6,-61.1 28.6,-59.7 31.5,-58.2 34.5,-58.0 37.3,-57.2 39.9,-54.5 42.5,-54.3 44.8,-51.5 47.0,-49.9 49.0,-47.7 50.9,-46.4 52.7,-43.4 54.4,-41.8 56.1,-39.3 57.7,-37.4 59.4,-33.8 61.1,-31.6 62.7,-29.7 64.4,-26.9 66.0,-24.5 67.5,-23.2 68.9,-19.4 70.2,-16.8 71.4,-15.4 72.4,-13.8 73.2,-12.3 74.0,-9.0 74.8,-7.7 75.6,-5.3" fill="none" stroke="rgb(167,133,106)" stroke-width="1.1440410734885966" stroke-linejoin="round" stroke-linecap="round" filter="url(#fuzzy_av_1779093954993_vxp6njh9yzs)" opacity="0.8845504395620565"/><polyline points="11.6,-61.6 15.8,-63.0 18.9,-61.7 21.7,-61.7 24.4,-61.7 27.4,-61.1 30.5,-59.1 33.8,-58.4 37.1,-57.6 40.2,-57.2 43.2,-55.8 45.9,-53.5 48.4,-52.2 50.6,-49.1 52.7,-47.2 54.5,-44.7 56.2,-43.7 57.8,-40.2 59.3,-38.7 60.8,-36.0 62.3,-34.6 63.8,-31.7 65.3,-29.6 66.9,-26.8 68.5,-25.5 70.3,-22.0 72.1,-19.8 74.1,-16.7 76.1,-15.7 78.0,-14.2 79.7,-11.3 81.2,-8.8 82.4,-7.2 83.5,-4.3 84.5,-2.2 85.0,-0.5 85.0,2.7 85.1,4.5" fill="none" stroke="rgb(167,133,106)" stroke-width="1.3561800542079911" stroke-linejoin="round" stroke-linecap="round" filter="url(#fuzzy_av_1779093954993_vxp6njh9yzs)" opacity="0.8090496219498414"/><polyline points="8.9,-63.2 12.5,-63.1 15.7,-61.5 18.8,-60.9 21.9,-61.4 25.0,-60.2 28.1,-59.6 31.3,-59.2 34.4,-57.6 37.6,-56.3 40.6,-55.6 43.6,-54.3 46.4,-52.0 48.9,-49.9 51.4,-48.1 53.6,-47.3 55.6,-43.7 57.4,-41.1 58.9,-39.4 60.3,-36.4 61.5,-35.7 62.7,-31.9 64.0,-31.1 65.4,-28.2 67.1,-26.1 68.8,-23.7 70.7,-22.1 72.4,-19.5 74.1,-16.5 75.7,-15.2 77.3,-13.4 79.0,-9.9 80.9,-8.7 83.1,-5.6 84.8,-2.5 85.2,-0.9" fill="none" stroke="rgb(167,133,106)" stroke-width="2.231133177550872" stroke-linejoin="round" stroke-linecap="round" filter="url(#fuzzy_av_1779093954993_vxp6njh9yzs)" opacity="0.8294391741788559"/><polyline points="6.6,-63.7 9.5,-62.8 12.8,-62.6 16.0,-61.7 18.9,-62.3 21.6,-61.5 24.3,-60.5 27.0,-60.2 29.7,-59.8 32.6,-58.6 35.5,-57.6 38.5,-55.9 41.5,-54.5 44.3,-53.2 46.8,-50.4 49.1,-48.8 51.1,-47.8 53.0,-43.9 54.8,-42.2 56.8,-40.2 58.8,-38.3 60.8,-36.3 62.7,-33.4 64.5,-30.8 66.3,-29.0 68.1,-27.1 69.6,-24.5 70.7,-23.2" fill="none" stroke="rgb(167,133,106)" stroke-width="1.3541682347711879" stroke-linejoin="round" stroke-linecap="round" filter="url(#fuzzy_av_1779093954993_vxp6njh9yzs)" opacity="0.9239329753661926"/><polyline points="-2.1,-63.6 0.6,-62.5 3.0,-62.8 5.7,-63.7 8.5,-61.9 11.3,-62.2 14.1,-61.8 16.8,-60.8 19.5,-62.1 22.3,-60.8 25.2,-60.5 28.1,-59.7 31.2,-59.4 34.1,-57.8 36.8,-56.2 39.4,-55.5 41.7,-54.4 43.8,-50.9 45.7,-49.5 47.5,-48.9 49.2,-45.3 50.9,-43.9 52.7,-42.1 54.5,-39.3 56.3,-36.6 58.0,-34.1 59.7,-33.3 61.4,-30.0 62.9,-26.7 64.3,-24.4 65.6,-22.2 66.7,-20.7 67.9,-18.4 69.1,-15.6 70.2,-13.5" fill="none" stroke="rgb(167,133,106)" stroke-width="2.386436039076254" stroke-linejoin="round" stroke-linecap="round" filter="url(#fuzzy_av_1779093954993_vxp6njh9yzs)" opacity="0.9391235333117713"/><polyline points="-7.9,-63.6 -4.1,-62.6 -1.4,-63.0 1.0,-62.2 3.3,-63.8 5.5,-63.0 7.6,-62.1 9.9,-63.2 12.1,-61.2 14.4,-61.0 16.6,-61.1 18.6,-60.9 20.5,-60.3 22.2,-58.7 23.8,-58.2 25.2,-56.8 26.6,-56.2 27.8,-55.2 29.0,-52.7 30.1,-50.9 31.0,-48.7 31.7,-47.7 32.3,-43.8 32.6,-42.4 32.9,-39.7 32.9,-37.2 32.7,-34.6 32.3,-33.5 31.5,-31.6 30.5,-28.2 29.4,-26.4 28.3,-24.9 27.5,-22.6 26.9,-20.6 26.5,-17.0 26.0,-15.9 24.1,-14.1" fill="none" stroke="rgb(167,133,106)" stroke-width="2.0728529676490774" stroke-linejoin="round" stroke-linecap="round" filter="url(#fuzzy_av_1779093954993_vxp6njh9yzs)" opacity="0.8169723829628279"/><polyline points="-11.3,-61.7 -7.8,-61.9 -4.5,-62.9 -1.7,-62.6 1.0,-63.0 3.7,-64.0 6.3,-62.4 9.1,-62.4 11.9,-62.0 14.8,-61.6 17.6,-62.4 20.5,-60.9 23.4,-61.4 26.2,-60.4 29.0,-58.6 31.8,-57.8 34.6,-57.2 37.3,-55.5 40.0,-54.2 42.5,-54.1 44.7,-52.3 46.8,-48.9 48.7,-46.8 50.4,-44.6 52.0,-43.0 53.7,-40.5 55.3,-37.9 56.9,-36.0 57.6,-34.1" fill="none" stroke="rgb(167,133,106)" stroke-width="1.2725070479704321" stroke-linejoin="round" stroke-linecap="round" filter="url(#fuzzy_av_1779093954993_vxp6njh9yzs)" opacity="0.750199536600618"/><polyline points="-14.3,-62.5 -11.7,-63.4 -8.7,-63.7 -5.8,-62.7 -2.8,-62.4 0.2,-63.2 3.2,-63.7 6.2,-63.4 9.4,-63.0 12.5,-61.9 15.5,-62.2 18.4,-61.5 21.3,-61.8 24.3,-60.3 27.6,-60.1 31.1,-59.6 34.8,-58.5 38.7,-58.1 42.7,-57.4 46.9,-55.7 51.2,-54.9 55.4,-53.1 59.2,-51.3 62.7,-49.9" fill="none" stroke="rgb(167,133,106)" stroke-width="0.7954317543242657" stroke-linejoin="round" stroke-linecap="round" filter="url(#fuzzy_av_1779093954993_vxp6njh9yzs)" opacity="0.8981767096691652"/><polyline points="-14.3,-61.5 -10.8,-62.5 -8.0,-61.9 -5.2,-63.3 -2.6,-63.1 -0.1,-63.1 2.3,-63.1 4.7,-63.6 7.0,-63.6 9.4,-63.0 11.7,-62.3 14.0,-61.6 16.4,-61.7 18.7,-60.3 21.1,-59.6 23.5,-60.0 25.8,-58.9 28.0,-58.7 30.0,-56.8 31.9,-56.3 33.5,-54.6 34.9,-51.4 36.0,-51.1 36.7,-48.7 37.2,-46.2 37.4,-43.6 37.5,-41.1 37.6,-38.9 37.9,-38.1 38.3,-35.9 38.4,-32.7 38.0,-30.5 37.7,-29.0" fill="none" stroke="rgb(167,133,106)" stroke-width="1.1617981025760502" stroke-linejoin="round" stroke-linecap="round" filter="url(#fuzzy_av_1779093954993_vxp6njh9yzs)" opacity="0.8879092074461952"/><polyline points="-27.5,-60.3 -24.7,-61.0 -23.0,-60.9 -21.0,-61.1 -18.4,-62.7 -15.3,-62.7 -12.1,-62.2 -8.9,-62.5 -5.7,-63.5 -2.6,-63.6 0.6,-62.9 3.7,-63.4 6.9,-63.5 10.3,-62.3 13.7,-63.0 17.2,-62.2 20.8,-62.1 24.6,-60.7 28.5,-61.4 32.5,-59.8 36.4,-59.5 40.2,-58.6 43.9,-57.5 47.8,-57.7" fill="none" stroke="rgb(167,133,106)" stroke-width="1.9934558799861264" stroke-linejoin="round" stroke-linecap="round" filter="url(#fuzzy_av_1779093954993_vxp6njh9yzs)" opacity="0.9107849169315886"/><polyline points="-35.0,-57.8 -31.9,-58.2 -28.6,-59.5 -25.9,-60.4 -23.6,-59.9 -21.3,-61.4 -18.6,-60.8 -15.7,-61.2 -12.6,-62.2 -9.5,-61.6 -6.3,-62.7 -3.1,-62.2 0.0,-63.8 3.2,-62.8 6.5,-62.8 9.7,-61.8 12.9,-61.9 16.1,-62.4 19.3,-62.1 22.4,-62.0 25.7,-60.8 29.1,-59.8 32.8,-59.5 36.7,-58.9 40.8,-58.6 44.9,-56.6 48.8,-54.8 52.3,-54.4 55.4,-52.4 58.2,-51.6 60.8,-48.3 63.7,-47.1 66.7,-44.5 70.0,-42.4 73.1,-39.3 76.6,-37.5" fill="none" stroke="rgb(167,133,106)" stroke-width="1.9367274379225334" stroke-linejoin="round" stroke-linecap="round" filter="url(#fuzzy_av_1779093954993_vxp6njh9yzs)" opacity="0.9412020481346881"/><polyline points="-36.6,-57.0 -35.6,-57.8 -33.6,-58.9 -30.7,-58.7 -27.6,-59.4 -24.6,-61.4 -21.7,-61.4 -18.9,-62.4 -16.0,-62.3 -13.1,-61.4 -10.0,-63.3 -6.9,-61.9 -3.7,-63.5 -0.6,-62.8 2.5,-62.9 5.6,-63.7 8.7,-63.0 11.9,-63.3 15.0,-62.8 18.2,-61.8 21.5,-62.5 24.9,-60.7 28.4,-61.2 32.2,-60.2 36.2,-58.3 40.4,-57.8 44.6,-56.8 48.6,-56.0 52.2,-55.6 54.8,-52.9 56.4,-52.7" fill="none" stroke="rgb(167,133,106)" stroke-width="2.0377549985239045" stroke-linejoin="round" stroke-linecap="round" filter="url(#fuzzy_av_1779093954993_vxp6njh9yzs)" opacity="0.9180188934257208"/><polyline points="-42.7,-52.5 -41.2,-55.1 -39.0,-55.7 -36.4,-57.7 -33.7,-56.9 -30.8,-58.2 -28.0,-60.2 -25.1,-59.2 -22.3,-60.4 -19.6,-61.0 -17.0,-61.8 -14.3,-62.4 -11.6,-61.8 -8.9,-63.1 -6.2,-63.7 -3.4,-62.7 -0.7,-62.4 2.0,-62.9 4.7,-63.4 7.3,-62.6 10.1,-61.8 13.1,-62.3 16.2,-61.2 19.7,-61.0" fill="none" stroke="rgb(167,133,106)" stroke-width="2.0342375832715627" stroke-linejoin="round" stroke-linecap="round" filter="url(#fuzzy_av_1779093954993_vxp6njh9yzs)" opacity="0.9184873490469352"/><polyline points="-43.6,-51.6 -42.6,-52.1 -41.1,-54.4 -39.0,-55.1 -36.5,-55.7 -33.8,-58.0 -31.0,-59.2 -28.2,-59.3 -25.4,-60.0 -22.6,-61.4 -20.0,-60.3 -17.3,-61.7 -14.7,-61.8 -12.1,-63.2 -9.3,-62.3 -6.5,-62.2 -3.7,-62.1 -0.9,-62.1 1.8,-63.3 4.5,-63.2 7.2,-62.5 10.1,-62.6 13.7,-63.3" fill="none" stroke="rgb(167,133,106)" stroke-width="0.7070487249946918" stroke-linejoin="round" stroke-linecap="round" filter="url(#fuzzy_av_1779093954993_vxp6njh9yzs)" opacity="0.9055838421548048"/><polyline points="-43.6,-50.9 -42.7,-53.2 -41.3,-55.3 -39.4,-54.7 -37.1,-56.1 -34.7,-57.8 -32.1,-57.6 -29.5,-59.7 -26.7,-59.7 -24.0,-60.4 -21.2,-61.0 -18.5,-62.6 -15.7,-62.3 -12.8,-61.5 -9.9,-63.2 -6.8,-62.1 -3.8,-63.1 -0.7,-63.0 2.3,-63.6 5.4,-63.8 8.6,-62.5 11.9,-62.4 15.4,-63.1 19.0,-61.1 22.6,-60.9 25.5,-60.7" fill="none" stroke="rgb(167,133,106)" stroke-width="1.565458722457331" stroke-linejoin="round" stroke-linecap="round" filter="url(#fuzzy_av_1779093954993_vxp6njh9yzs)" opacity="0.9611984342698495"/><polyline points="-44.7,-49.2 -42.9,-51.0 -41.2,-54.9 -39.3,-55.0 -37.2,-56.2 -34.9,-57.9 -32.2,-57.9 -29.4,-58.4 -26.5,-59.4 -23.7,-60.5 -21.0,-60.4 -18.3,-61.9 -15.6,-60.9 -12.9,-62.8 -10.0,-61.7 -7.2,-62.4 -4.3,-62.2 -1.5,-62.7 1.3,-63.4 4.1,-63.8 6.9,-62.2 9.8,-62.2 12.8,-63.3 15.6,-62.4 18.0,-62.6 20.2,-62.2" fill="none" stroke="rgb(167,133,106)" stroke-width="1.9161584288806295" stroke-linejoin="round" stroke-linecap="round" filter="url(#fuzzy_av_1779093954993_vxp6njh9yzs)" opacity="0.9832742980504702"/><polyline points="-48.4,-44.5 -45.9,-46.9 -44.3,-50.8 -42.8,-51.8 -41.2,-54.2 -39.1,-54.4 -36.7,-57.0 -34.1,-57.1 -31.2,-57.6 -28.4,-60.0 -25.5,-59.2 -22.7,-60.3 -20.0,-61.7 -17.2,-61.2 -14.5,-62.9 -11.7,-61.8 -9.0,-62.8 -6.2,-62.2 -3.4,-63.8 -0.6,-63.6 2.2,-62.5 5.0,-62.8 7.8,-62.6 10.6,-62.1 13.6,-62.4 16.5,-62.2 19.5,-61.9 22.5,-60.8 25.6,-60.3 29.2,-59.6" fill="none" stroke="rgb(167,133,106)" stroke-width="1.4144536726381691" stroke-linejoin="round" stroke-linecap="round" filter="url(#fuzzy_av_1779093954993_vxp6njh9yzs)" opacity="0.8706793961785575"/><polyline points="-48.4,-45.7 -46.3,-48.8 -45.3,-50.1 -44.6,-52.9 -43.5,-54.5 -41.7,-55.1 -39.4,-56.4 -36.6,-56.9 -33.7,-58.2 -30.6,-58.8 -27.6,-59.5 -24.7,-60.1 -21.8,-60.3 -19.0,-60.6 -16.2,-61.8 -13.3,-62.7 -10.3,-61.8 -7.2,-63.7 -3.9,-63.5 -0.6,-63.4 2.8,-63.7 6.1,-63.9 9.6,-62.1 13.3,-62.3 17.2,-61.7 21.6,-62.5 26.9,-61.7" fill="none" stroke="rgb(167,133,106)" stroke-width="1.3895322843528013" stroke-linejoin="round" stroke-linecap="round" filter="url(#fuzzy_av_1779093954993_vxp6njh9yzs)" opacity="0.8355928256623858"/><polyline points="-47.7,-43.7 -48.0,-46.3 -47.6,-47.8 -46.7,-49.4 -45.4,-52.0 -43.6,-54.2 -41.5,-54.2 -39.1,-56.6 -36.7,-57.5 -34.2,-57.6 -31.6,-60.1 -28.9,-60.7 -26.1,-60.5 -23.1,-61.8 -20.2,-61.0 -17.3,-61.1 -14.3,-62.9 -11.3,-62.5 -8.1,-63.3 -4.7,-63.9 -1.3,-62.3 2.0,-62.8 4.0,-63.3" fill="none" stroke="rgb(167,133,106)" stroke-width="2.0521839290876542" stroke-linejoin="round" stroke-linecap="round" filter="url(#fuzzy_av_1779093954993_vxp6njh9yzs)" opacity="0.7709729761910968"/><polyline points="-47.7,-45.0 -47.2,-46.1 -45.8,-47.1 -44.3,-49.7 -42.7,-52.7 -40.9,-53.3 -38.9,-55.8 -36.5,-57.0 -34.0,-56.8 -31.3,-58.1 -28.5,-59.7 -25.7,-59.5 -22.9,-60.8 -20.1,-61.1 -17.4,-61.0 -14.7,-61.5 -12.0,-61.3 -9.3,-63.1 -6.5,-62.0 -3.7,-63.5 -0.9,-63.3 1.7,-62.9 4.3,-62.1 6.9,-63.4 9.7,-63.7 13.2,-61.8" fill="none" stroke="rgb(167,133,106)" stroke-width="2.2603837797380923" stroke-linejoin="round" stroke-linecap="round" filter="url(#fuzzy_av_1779093954993_vxp6njh9yzs)" opacity="0.7813322770763594"/><polyline points="-47.7,-43.4 -47.3,-46.4 -46.2,-47.5 -45.2,-49.9 -44.2,-52.5 -43.0,-54.0 -41.4,-54.8 -39.3,-56.8 -36.7,-57.9 -33.8,-58.9 -30.6,-60.0 -27.5,-60.6 -24.4,-60.1 -21.5,-60.6 -18.7,-61.0 -15.9,-61.7 -13.1,-62.0 -10.2,-63.4 -7.1,-63.3 -4.0,-62.0 -0.8,-63.9 2.3,-62.0 5.5,-62.4 8.7,-62.6 12.1,-63.6 15.7,-62.1 19.5,-61.0 23.7,-62.1" fill="none" stroke="rgb(167,133,106)" stroke-width="2.551084241311206" stroke-linejoin="round" stroke-linecap="round" filter="url(#fuzzy_av_1779093954993_vxp6njh9yzs)" opacity="0.8708669651088707"/><polyline points="-49.7,-42.5 -48.7,-43.5 -48.1,-46.7 -47.1,-49.9 -45.6,-52.1 -43.7,-52.3 -41.6,-55.0 -39.3,-56.6 -36.9,-57.0 -34.2,-58.1 -31.4,-58.3 -28.6,-59.2 -25.8,-61.0 -23.0,-61.3 -20.1,-61.2 -17.2,-61.0 -14.1,-62.4 -10.9,-61.8 -7.6,-62.4 -4.3,-63.4 -1.0,-62.2 2.3,-62.2 5.7,-62.5 9.0,-62.8 12.4,-62.3 15.8,-62.7 19.3,-61.6 22.8,-61.9 26.3,-60.6 30.0,-61.5 34.0,-59.5 38.3,-59.9 42.8,-59.0 47.6,-58.2 52.3,-57.1 56.8,-54.9 60.9,-53.7" fill="none" stroke="rgb(167,133,106)" stroke-width="1.4941489411930138" stroke-linejoin="round" stroke-linecap="round" filter="url(#fuzzy_av_1779093954993_vxp6njh9yzs)" opacity="0.8191691537135779"/><polyline points="-51.7,-38.5 -51.4,-39.9 -50.8,-42.2 -50.0,-43.5 -49.1,-46.5 -48.0,-49.1 -46.7,-51.7 -45.2,-52.4 -43.6,-53.9 -41.9,-55.9 -39.9,-57.1 -37.6,-57.2 -34.8,-59.6 -31.8,-58.7 -28.5,-60.4 -25.3,-61.5 -22.3,-60.5 -19.3,-61.3 -16.3,-61.5 -13.1,-62.4 -9.7,-63.2 -6.0,-62.7 -2.3,-63.2 1.4,-62.2" fill="none" stroke="rgb(167,133,106)" stroke-width="0.8218035129503832" stroke-linejoin="round" stroke-linecap="round" filter="url(#fuzzy_av_1779093954993_vxp6njh9yzs)" opacity="0.9461610270971148"/><polyline points="-53.1,-36.1 -52.1,-37.7 -51.4,-40.2 -50.4,-41.2 -49.2,-43.8 -47.8,-45.9 -46.2,-49.2 -44.6,-49.9 -42.7,-52.2 -40.7,-55.0 -38.4,-56.1 -36.0,-56.7 -33.4,-58.9 -30.8,-58.8 -28.0,-58.8 -25.3,-60.5 -22.5,-61.2 -19.8,-61.4 -17.0,-61.9 -14.1,-62.9 -11.1,-62.9 -8.1,-62.1 -5.0,-63.1 -2.0,-63.2 0.9,-64.0 3.8,-63.4 6.8,-62.0 10.0,-63.0 13.0,-62.3" fill="none" stroke="rgb(167,133,106)" stroke-width="1.3467381435299064" stroke-linejoin="round" stroke-linecap="round" filter="url(#fuzzy_av_1779093954993_vxp6njh9yzs)" opacity="0.8184783291122373"/><polyline points="-53.1,-35.4 -55.1,-38.3 -54.6,-39.4 -53.5,-41.9 -52.3,-44.6 -50.9,-45.7 -49.1,-48.9 -46.9,-50.9 -44.4,-52.4 -41.7,-53.9 -39.0,-55.9 -36.2,-56.3 -33.5,-58.1 -30.8,-58.5 -28.1,-59.9 -25.5,-60.1 -22.8,-61.7 -20.1,-62.2 -17.3,-62.6 -14.3,-61.8 -11.2,-61.6 -8.1,-63.3 -4.9,-62.8 -1.7,-62.5 1.4,-62.9 4.6,-63.4 7.9,-63.0 11.2,-63.1 14.7,-61.9 17.9,-61.1 20.7,-62.7 23.3,-62.1" fill="none" stroke="rgb(167,133,106)" stroke-width="2.0113148380119723" stroke-linejoin="round" stroke-linecap="round" filter="url(#fuzzy_av_1779093954993_vxp6njh9yzs)" opacity="0.8337858073352102"/><polyline points="-54.8,-32.4 -53.7,-34.5 -52.5,-37.4 -51.5,-41.2 -50.8,-42.5 -50.0,-44.8 -48.8,-48.5 -47.3,-50.6 -45.5,-51.7 -43.3,-53.9 -40.9,-54.0 -38.3,-55.5 -35.5,-57.8 -32.6,-57.8 -29.8,-58.0 -26.9,-59.1 -24.2,-60.5 -21.4,-62.0 -18.7,-61.3 -15.9,-61.4 -13.0,-62.7 -10.1,-63.2 -7.0,-62.7 -3.8,-63.3 -0.6,-63.0 2.6,-62.9 5.9,-63.1 9.3,-62.9 12.9,-62.8 16.6,-61.5 20.4,-61.9 24.2,-61.3 28.1,-60.7 32.1,-60.3 36.6,-58.6" fill="none" stroke="rgb(167,133,106)" stroke-width="1.5658529780635113" stroke-linejoin="round" stroke-linecap="round" filter="url(#fuzzy_av_1779093954993_vxp6njh9yzs)" opacity="0.9804623290514779"/><polyline points="-54.8,-33.3 -56.7,-35.6 -58.2,-38.7 -57.6,-39.4 -55.5,-43.5 -53.0,-45.5 -50.6,-46.7 -48.7,-49.4 -47.4,-50.9 -46.3,-54.0 -45.2,-54.6 -43.6,-56.6 -41.5,-56.4 -38.8,-58.1 -35.7,-59.8 -32.4,-59.1 -29.1,-60.3 -25.9,-62.0 -23.0,-61.4 -20.2,-62.3 -17.5,-63.2 -14.7,-62.8 -11.1,-63.2" fill="none" stroke="rgb(167,133,106)" stroke-width="2.3037050433148623" stroke-linejoin="round" stroke-linecap="round" filter="url(#fuzzy_av_1779093954993_vxp6njh9yzs)" opacity="0.798973896955925"/><polyline points="-54.8,-31.6 -56.4,-34.2 -54.5,-38.6 -52.2,-40.7 -50.3,-42.3 -49.2,-45.9 -48.5,-48.1 -47.9,-49.0 -47.1,-51.0 -45.8,-53.8 -44.0,-54.6 -41.8,-55.6 -39.2,-57.0 -36.4,-58.7 -33.3,-59.2 -30.1,-58.8 -26.9,-60.2 -23.7,-60.2 -20.6,-62.1 -17.6,-61.6 -14.6,-61.6 -11.5,-62.2 -8.2,-62.4 -4.8,-62.8 -1.2,-62.8 2.3,-63.5 5.7,-63.5 9.2,-63.2 12.7,-63.1" fill="none" stroke="rgb(167,133,106)" stroke-width="1.3422923736772303" stroke-linejoin="round" stroke-linecap="round" filter="url(#fuzzy_av_1779093954993_vxp6njh9yzs)" opacity="0.9726403111666416"/><polyline points="-54.2,-32.5 -53.1,-35.0 -52.1,-36.9 -51.0,-38.8 -49.8,-40.6 -48.4,-43.7 -46.8,-45.9 -45.1,-47.9 -43.3,-51.3 -41.4,-52.4 -39.3,-53.3 -37.1,-56.4 -34.6,-57.3 -32.0,-57.9 -29.3,-58.0 -26.5,-58.7 -23.7,-59.6 -20.9,-60.3 -18.2,-60.7 -15.4,-62.5 -12.6,-61.3 -9.8,-61.8 -7.0,-63.0 -4.2,-62.6 -1.4,-62.4 1.4,-62.7 4.2,-63.1 7.0,-62.7 9.8,-61.7 12.5,-62.8 15.2,-62.6 17.8,-62.4 20.4,-60.9 23.0,-59.9 25.9,-59.4 28.9,-60.3 32.2,-58.3 35.4,-57.7 38.0,-56.1" fill="none" stroke="rgb(167,133,106)" stroke-width="1.5581407069695936" stroke-linejoin="round" stroke-linecap="round" filter="url(#fuzzy_av_1779093954993_vxp6njh9yzs)" opacity="0.9655511573982896"/><polyline points="-54.2,-32.9 -54.4,-35.5 -53.8,-37.6 -52.7,-40.1 -51.2,-40.9 -49.7,-43.6 -48.1,-46.1 -46.4,-49.2 -44.7,-50.6 -43.0,-53.2 -41.2,-53.8 -39.2,-56.4 -37.1,-56.4 -34.6,-58.6 -32.0,-59.2 -29.2,-58.9 -26.3,-60.0 -23.3,-60.7 -20.2,-62.3 -17.2,-62.3 -14.1,-62.0 -11.0,-62.1 -7.8,-63.0 -4.6,-62.2 -1.4,-63.2 1.9,-62.3 5.3,-63.0 8.8,-61.8 12.4,-62.4 16.0,-63.1 19.5,-62.3 22.9,-60.9 26.1,-60.8 29.3,-60.0 33.0,-60.4 37.4,-58.8" fill="none" stroke="rgb(167,133,106)" stroke-width="0.9060547459989566" stroke-linejoin="round" stroke-linecap="round" filter="url(#fuzzy_av_1779093954993_vxp6njh9yzs)" opacity="0.825000207092661"/><polyline points="-54.2,-32.4 -53.3,-34.3 -52.4,-37.7 -51.6,-39.8 -50.8,-41.4 -49.8,-43.3 -48.6,-46.8 -47.1,-47.4 -45.3,-50.1 -43.4,-51.7 -41.5,-53.8 -39.3,-55.7 -37.0,-56.6 -34.3,-57.0 -31.5,-59.3 -28.6,-59.1 -25.7,-60.1 -23.1,-60.2 -20.7,-61.2 -18.3,-61.4 -15.7,-62.5 -12.9,-63.5 -10.2,-61.8" fill="none" stroke="rgb(167,133,106)" stroke-width="1.3167825243459337" stroke-linejoin="round" stroke-linecap="round" filter="url(#fuzzy_av_1779093954993_vxp6njh9yzs)" opacity="0.8937306932690267"/><polyline points="-57.0,-27.0 -56.2,-29.3 -55.5,-32.4 -54.7,-35.9 -53.6,-36.6 -52.2,-39.6 -50.8,-42.5 -49.5,-44.4 -48.3,-46.4 -47.1,-50.2 -45.8,-51.9 -44.1,-52.2 -42.1,-55.6 -39.7,-55.6 -37.1,-56.7 -34.3,-57.4 -31.4,-58.7 -28.4,-59.2 -25.4,-60.1 -22.4,-61.9 -19.5,-61.6 -16.5,-61.4 -13.5,-61.6 -10.5,-62.9 -7.4,-63.3 -4.3,-63.4 -1.1,-63.5 2.0,-62.7 5.1,-64.0 8.2,-63.8 11.7,-63.2 15.8,-62.6" fill="none" stroke="rgb(167,133,106)" stroke-width="0.7689733250874318" stroke-linejoin="round" stroke-linecap="round" filter="url(#fuzzy_av_1779093954993_vxp6njh9yzs)" opacity="0.9751840077433525"/><polyline points="-56.5,-28.7 -40.7,-31.3 -40.5,-33.2 -42.2,-35.6 -43.0,-36.6 -43.2,-39.3 -42.7,-41.3 -41.6,-43.1 -39.4,-45.3 -36.1,-48.9 -32.0,-50.8 -27.5,-51.4 -23.1,-53.9 -19.2,-56.3 -16.3,-57.4 -14.2,-57.6 -12.8,-59.6 -11.8,-59.9 -10.8,-60.1 -9.7,-60.0 -8.2,-60.7 -6.6,-61.3 -4.9,-61.8 -3.4,-62.3 -2.3,-62.4 -1.4,-62.9 -0.6,-63.4 -0.1,-62.3 0.3,-63.8" fill="none" stroke="rgb(167,133,106)" stroke-width="2.0921214608354735" stroke-linejoin="round" stroke-linecap="round" filter="url(#fuzzy_av_1779093954993_vxp6njh9yzs)" opacity="0.816426580603904"/><polyline points="-56.5,-28.9 -59.5,-29.8 -57.5,-33.5 -55.4,-34.8 -54.2,-36.8 -53.6,-38.3 -53.1,-41.7 -52.4,-44.2 -51.3,-46.5 -49.9,-48.8 -48.2,-49.8 -46.3,-53.2 -44.2,-53.9 -42.0,-56.1 -39.5,-56.6 -36.9,-57.6 -34.1,-58.9 -31.2,-58.9 -28.3,-61.2 -25.4,-60.0 -22.5,-61.2 -19.5,-61.4 -16.4,-62.1 -13.1,-63.0 -9.6,-62.0 -6.0,-63.1 -2.4,-62.7 1.2,-62.5 4.4,-62.9" fill="none" stroke="rgb(167,133,106)" stroke-width="0.736258309154618" stroke-linejoin="round" stroke-linecap="round" filter="url(#fuzzy_av_1779093954993_vxp6njh9yzs)" opacity="0.851021118248689"/><polyline points="-58.0,-25.1 -56.8,-27.5 -55.7,-31.2 -54.6,-33.2 -53.6,-34.2 -52.7,-36.4 -51.8,-38.3 -51.0,-42.3 -50.3,-44.0 -49.4,-46.2 -48.3,-47.6 -46.9,-50.6 -45.2,-52.8 -43.3,-53.7 -41.1,-55.7 -38.8,-56.3 -36.5,-57.2 -34.1,-58.3 -31.6,-58.7 -29.1,-59.3 -26.3,-61.6 -23.3,-60.9 -20.0,-61.8 -16.5,-62.8 -12.9,-61.5 -9.2,-63.1 -5.5,-62.1 -1.9,-62.8 1.7,-63.4 5.3,-62.4 9.1,-63.2 13.1,-61.8 17.2,-62.4 21.2,-61.5 25.0,-62.5 28.8,-62.1" fill="none" stroke="rgb(167,133,106)" stroke-width="0.8568913538229179" stroke-linejoin="round" stroke-linecap="round" filter="url(#fuzzy_av_1779093954993_vxp6njh9yzs)" opacity="0.9681603313785477"/><polyline points="-58.3,-25.3 -57.4,-26.9 -56.7,-29.0 -55.9,-29.9 -54.9,-31.9 -53.8,-35.9 -52.7,-38.0 -51.5,-39.3 -50.2,-41.4 -48.8,-44.2 -47.3,-48.0 -45.7,-49.3 -43.9,-51.7 -42.1,-52.4 -40.1,-55.0 -37.9,-55.5 -35.4,-56.2 -32.8,-57.5 -30.1,-58.8 -27.2,-59.9 -24.3,-59.9 -21.5,-61.6 -18.8,-61.4 -16.0,-61.4 -13.2,-62.0 -10.4,-62.9 -7.4,-63.7 -4.3,-63.1 -1.0,-63.0 3.2,-63.7" fill="none" stroke="rgb(167,133,106)" stroke-width="1.600413507766" stroke-linejoin="round" stroke-linecap="round" filter="url(#fuzzy_av_1779093954993_vxp6njh9yzs)" opacity="0.8162065739921117"/><polyline points="-58.3,-23.7 -57.5,-25.9 -57.4,-29.4 -57.4,-30.8 -56.8,-32.1 -55.6,-34.2 -54.0,-37.5 -52.3,-39.1 -50.7,-42.7 -49.2,-44.3 -47.8,-47.6 -46.3,-48.4 -44.6,-51.4 -42.8,-52.1 -40.8,-54.1 -38.7,-56.6 -36.3,-56.7 -33.8,-57.7 -31.1,-59.1 -28.2,-60.2 -25.3,-59.9 -22.3,-60.4 -19.3,-61.0 -16.3,-61.1 -13.2,-62.2 -10.2,-63.4 -7.1,-63.4 -4.0,-63.9 -0.9,-62.8 2.1,-62.3 5.2,-62.7 8.3,-63.6 11.5,-61.9 14.9,-61.9 18.4,-62.3 21.8,-60.6 24.5,-62.2" fill="none" stroke="rgb(167,133,106)" stroke-width="1.6076271773244382" stroke-linejoin="round" stroke-linecap="round" filter="url(#fuzzy_av_1779093954993_vxp6njh9yzs)" opacity="0.8245957451254169"/><polyline points="-58.6,-23.1 -58.5,-24.4 -59.0,-28.8 -59.0,-29.6 -58.1,-32.8 -56.7,-35.7 -55.2,-37.3 -53.6,-38.3 -52.0,-42.2 -50.4,-43.0 -48.8,-45.7 -47.2,-48.5 -45.6,-51.1 -44.0,-51.6 -42.3,-53.8 -40.4,-56.4 -38.4,-56.3 -36.1,-57.9 -33.5,-59.6 -30.7,-58.5 -27.8,-59.5 -24.8,-61.0 -21.7,-61.6 -18.6,-61.6 -15.4,-63.1 -12.1,-63.3 -8.8,-62.5 -5.4,-62.5 -2.0,-63.5 1.4,-63.8 4.9,-62.7 8.4,-63.4 12.1,-63.6 15.9,-61.7 19.5,-61.7 22.7,-61.0 25.6,-61.0" fill="none" stroke="rgb(167,133,106)" stroke-width="2.218176506371123" stroke-linejoin="round" stroke-linecap="round" filter="url(#fuzzy_av_1779093954993_vxp6njh9yzs)" opacity="0.8486596318260959"/><polyline points="-59.3,-21.2 -59.0,-22.3 -58.3,-24.4 -57.7,-26.7 -57.1,-28.0 -56.7,-31.3 -56.4,-32.5 -56.1,-34.8 -55.8,-37.0 -55.3,-39.9 -54.6,-41.9 -53.6,-44.1 -52.3,-47.4 -50.6,-49.4 -48.6,-51.2 -46.4,-53.2 -43.9,-54.7 -41.4,-56.1 -38.7,-56.5 -36.0,-57.0 -33.2,-58.4 -30.4,-60.2 -27.4,-60.3 -24.5,-60.6 -21.5,-62.0 -18.5,-61.4 -15.3,-62.6 -12.0,-62.4 -8.6,-63.1 -5.0,-63.5 -1.4,-63.3 2.1,-62.7 5.5,-63.1 8.9,-63.1 12.4,-62.6" fill="none" stroke="rgb(167,133,106)" stroke-width="2.188677572057701" stroke-linejoin="round" stroke-linecap="round" filter="url(#fuzzy_av_1779093954993_vxp6njh9yzs)" opacity="0.9962073090167646"/><polyline points="-60.6,-16.0 -60.8,-18.0 -62.0,-19.8 -63.2,-21.9 -63.3,-24.6 -62.6,-27.3 -61.6,-30.7 -60.8,-32.9 -60.2,-33.6 -59.6,-36.8 -58.7,-38.1 -57.5,-41.4 -55.7,-42.5 -53.6,-45.4 -51.4,-47.8 -49.2,-50.6 -47.1,-51.4 -45.2,-54.3 -43.4,-55.2 -41.5,-56.4 -39.3,-58.7 -36.9,-58.2 -34.2,-59.7 -31.2,-60.0 -28.1,-60.3 -24.9,-62.2 -21.5,-61.2 -17.9,-61.2 -14.2,-62.7 -10.3,-62.0 -6.4,-62.9 -2.5,-63.7 1.1,-63.2 4.6,-63.0 8.6,-63.5 14.7,-62.7" fill="none" stroke="rgb(167,133,106)" stroke-width="2.5829239779986786" stroke-linejoin="round" stroke-linecap="round" filter="url(#fuzzy_av_1779093954993_vxp6njh9yzs)" opacity="0.8167124968420354"/><polyline points="-61.3,-11.8 -61.2,-13.2 -60.9,-16.0 -60.4,-18.9 -59.9,-19.6 -59.4,-21.7 -58.7,-25.8 -58.0,-27.0 -57.2,-29.4 -56.4,-32.1 -55.6,-34.3 -54.8,-35.6 -53.9,-38.8 -52.9,-42.0 -51.7,-42.9 -50.2,-46.4 -48.5,-47.9 -46.5,-50.0 -44.4,-51.3 -42.2,-54.6 -39.9,-54.4 -37.6,-57.1 -35.1,-57.2 -32.4,-59.0 -29.6,-60.3 -26.8,-60.9 -23.8,-60.6 -20.8,-61.4 -17.8,-61.4 -14.8,-61.3 -11.7,-62.7 -8.5,-63.4 -5.3,-63.9 -2.2,-63.9 0.9,-62.3 4.0,-62.2 7.3,-62.3 10.9,-63.0 14.1,-62.5" fill="none" stroke="rgb(167,133,106)" stroke-width="1.2092973181418476" stroke-linejoin="round" stroke-linecap="round" filter="url(#fuzzy_av_1779093954993_vxp6njh9yzs)" opacity="0.9547111068313634"/><polyline points="-61.5,-10.7 -61.5,-11.8 -61.1,-13.8 -60.6,-17.0 -59.9,-18.4 -59.3,-21.7 -58.6,-24.6 -57.9,-26.7 -57.1,-28.9 -56.2,-29.9 -55.2,-32.9 -54.1,-33.6 -52.8,-37.4 -51.5,-39.3 -50.1,-41.4 -48.6,-43.4 -47.1,-46.8 -45.6,-48.4 -43.9,-50.8 -42.1,-53.6 -40.1,-55.0 -37.9,-56.1 -35.5,-57.4 -32.9,-57.2 -30.1,-59.7 -27.2,-59.2 -24.3,-61.3 -21.5,-61.2 -18.7,-62.5 -14.8,-61.8" fill="none" stroke="rgb(167,133,106)" stroke-width="1.485271851250222" stroke-linejoin="round" stroke-linecap="round" filter="url(#fuzzy_av_1779093954993_vxp6njh9yzs)" opacity="0.9009120089912325"/><polyline points="-62.3,-3.5 -62.9,-5.1 -63.0,-6.8 -62.9,-10.0 -62.7,-12.4 -62.7,-14.5 -62.5,-16.0 -62.1,-19.7 -61.6,-20.8 -60.9,-23.9 -60.1,-26.5 -59.2,-27.7 -58.3,-30.9 -57.2,-31.3 -56.1,-34.9 -54.9,-36.4 -53.6,-39.9 -52.3,-42.8 -51.0,-44.3 -49.6,-45.9 -48.2,-49.0 -46.8,-49.9 -45.1,-53.3 -43.3,-53.8 -41.2,-55.9 -38.8,-55.9 -36.2,-57.5 -33.3,-58.1 -30.2,-59.3 -27.1,-60.7 -24.0,-61.9 -21.0,-60.7 -18.1,-62.7 -15.3,-61.6 -12.7,-63.0 -9.5,-62.8" fill="none" stroke="rgb(167,133,106)" stroke-width="1.4968023512823057" stroke-linejoin="round" stroke-linecap="round" filter="url(#fuzzy_av_1779093954993_vxp6njh9yzs)" opacity="0.9430989883180101"/><polyline points="-62.0,4.6 -63.1,2.5 -65.4,1.0 -66.6,-0.2 -66.4,-3.5 -66.0,-4.8 -66.0,-6.8 -66.5,-9.8 -67.5,-12.1 -68.3,-13.6 -68.9,-16.0 -69.0,-19.4 -69.0,-21.4 -68.9,-23.8 -68.9,-24.9 -69.0,-27.7 -68.9,-30.4 -68.6,-31.7 -67.9,-34.0 -66.8,-36.7 -65.4,-39.2 -63.7,-40.6 -61.9,-44.5 -60.0,-46.8 -58.1,-47.9 -56.1,-50.4 -54.2,-51.9 -52.3,-54.6 -50.1,-55.0 -47.6,-56.8 -44.8,-58.6 -41.7,-59.7 -38.0,-59.6 -33.2,-60.6" fill="none" stroke="rgb(167,133,106)" stroke-width="1.4493800209857657" stroke-linejoin="round" stroke-linecap="round" filter="url(#fuzzy_av_1779093954993_vxp6njh9yzs)" opacity="0.8648878476011732"/><polyline points="-62.0,3.9 -62.1,3.7 -62.3,1.8 -62.5,0.1 -62.7,-2.2 -62.8,-4.1 -63.0,-7.8 -63.3,-9.4 -63.6,-12.1 -63.7,-13.6 -63.8,-16.3 -63.7,-18.1 -63.4,-20.7 -63.0,-24.1 -62.5,-25.9 -61.8,-27.2 -61.0,-29.4 -60.1,-30.8 -59.0,-33.9 -57.8,-36.2 -56.4,-39.7 -55.0,-42.3 -53.6,-44.8 -52.2,-46.9 -50.7,-48.4 -49.2,-49.8 -47.7,-52.4 -46.0,-54.1 -43.9,-55.1 -41.1,-57.7 -37.8,-58.4" fill="none" stroke="rgb(167,133,106)" stroke-width="2.440857693012001" stroke-linejoin="round" stroke-linecap="round" filter="url(#fuzzy_av_1779093954993_vxp6njh9yzs)" opacity="0.8082263556826914"/><polyline points="-61.8,7.6 -62.1,4.9 -63.3,2.4 -65.0,0.2 -66.6,-3.5 -67.6,-5.5 -68.2,-7.0 -68.4,-9.5 -68.5,-11.5 -68.5,-13.1 -68.3,-16.3 -67.9,-17.4 -67.4,-19.3 -66.7,-21.4 -66.0,-24.1 -65.4,-27.4 -64.9,-28.6 -64.5,-30.4 -64.1,-32.8 -63.6,-35.2 -63.1,-37.5 -62.5,-40.3 -61.5,-43.4 -60.2,-43.9 -58.5,-46.6 -56.7,-50.1 -55.0,-51.2 -53.4,-53.7 -51.7,-55.3 -50.2,-57.3" fill="none" stroke="rgb(167,133,106)" stroke-width="0.7371118064665965" stroke-linejoin="round" stroke-linecap="round" filter="url(#fuzzy_av_1779093954993_vxp6njh9yzs)" opacity="0.8409577310067937"/><polyline points="-61.4,10.3 -57.1,12.3 -54.6,15.2 -54.3,16.4 -54.5,20.1 -54.4,21.2 -53.8,23.2 -52.7,25.8 -51.2,28.9 -49.6,29.8 -47.7,33.2 -45.8,33.7 -43.7,36.5 -41.4,38.1 -38.8,40.6 -36.0,41.8 -32.9,42.6 -29.8,43.8 -26.7,44.6 -23.6,44.9 -20.6,47.0 -17.7,46.9 -14.9,47.8 -12.2,47.6 -9.7,48.4 -7.4,48.6 -5.2,48.7 -3.0,48.9 -0.8,49.8 2.1,50.0" fill="none" stroke="rgb(167,133,106)" stroke-width="1.5608370186413092" stroke-linejoin="round" stroke-linecap="round" filter="url(#fuzzy_av_1779093954993_vxp6njh9yzs)" opacity="0.8429864104867382"/><polyline points="-60.4,14.1 -60.4,15.5 -61.2,19.1 -62.5,21.6 -63.6,22.2 -64.1,25.9 -63.9,28.3 -62.8,30.3 -61.1,32.3 -59.0,33.8 -56.5,37.1 -53.9,37.8 -51.0,40.7 -48.0,41.1 -44.9,42.4 -41.8,44.6 -38.7,45.3 -35.7,46.3 -32.8,45.2 -29.9,47.5 -26.8,46.3 -23.5,47.5 -19.8,48.0 -15.6,47.6 -11.1,48.9 -6.8,48.8 -3.5,50.0" fill="none" stroke="rgb(167,133,106)" stroke-width="1.2233332244396826" stroke-linejoin="round" stroke-linecap="round" filter="url(#fuzzy_av_1779093954993_vxp6njh9yzs)" opacity="0.9146573532023781"/><polyline points="-59.7,14.8 -58.2,18.4 -57.1,21.2 -56.0,23.3 -54.8,25.1 -53.5,28.1 -52.0,29.3 -50.3,32.9 -48.6,34.1 -46.7,36.7 -44.6,39.4 -42.4,39.4 -40.1,42.0 -37.5,42.0 -34.8,43.2 -32.0,44.8 -29.1,45.9 -26.1,45.4 -23.0,46.4 -19.9,48.2 -16.8,48.4 -13.6,47.2 -10.5,47.5 -7.5,49.7 -4.5,49.1 -1.6,48.1 1.3,49.1 4.1,48.9 6.8,48.4 9.5,48.4 12.1,48.4 14.8,48.7 17.7,46.9 20.8,47.9 24.4,46.2" fill="none" stroke="rgb(167,133,106)" stroke-width="1.0897833303361961" stroke-linejoin="round" stroke-linecap="round" filter="url(#fuzzy_av_1779093954993_vxp6njh9yzs)" opacity="0.7888718709209377"/><polyline points="-57.8,18.6 -57.7,20.5 -56.9,22.5 -56.1,25.7 -55.3,27.2 -54.3,29.7 -53.0,31.4 -51.5,34.0 -49.8,36.9 -48.1,38.1 -46.2,40.8 -44.0,41.7 -41.5,42.8 -38.8,43.5 -35.9,44.5 -32.8,45.1 -29.7,46.2 -26.4,46.3 -23.1,47.8 -19.6,48.4 -16.1,48.1 -12.5,49.2 -8.8,48.6 -5.2,49.7 -1.6,48.3 2.0,49.3 5.5,48.3 9.0,48.4 12.5,49.6 15.9,48.3 19.5,47.6 23.3,47.9 27.3,48.2 31.2,46.8 33.6,46.2" fill="none" stroke="rgb(167,133,106)" stroke-width="0.9664149122420997" stroke-linejoin="round" stroke-linecap="round" filter="url(#fuzzy_av_1779093954993_vxp6njh9yzs)" opacity="0.9656194254061674"/><polyline points="-57.1,20.9 -58.8,21.5 -57.9,23.0 -56.7,26.8 -55.5,28.3 -54.7,30.6 -54.2,32.5 -53.6,34.4 -52.6,37.9 -50.9,38.2 -48.5,39.8 -45.7,41.0 -42.7,43.5 -39.6,43.3 -36.5,45.0 -33.5,45.7 -30.3,45.8 -27.0,46.7 -23.5,47.0 -19.8,47.7 -16.1,49.2 -12.2,49.3 -8.3,47.9 -4.4,49.8 -0.4,49.9 3.6,48.4 7.7,49.9 11.9,48.5 16.4,49.2 21.3,48.9 26.5,48.4 32.0,48.2 37.8,47.0" fill="none" stroke="rgb(167,133,106)" stroke-width="1.4119589132158654" stroke-linejoin="round" stroke-linecap="round" filter="url(#fuzzy_av_1779093954993_vxp6njh9yzs)" opacity="0.7591626062630046"/><polyline points="-55.2,25.4 -54.4,28.7 -53.7,31.2 -52.6,33.0 -51.0,35.0 -49.0,37.9 -46.8,39.2 -44.3,40.7 -41.8,41.9 -39.3,43.5 -36.7,44.3 -34.0,45.6 -31.1,44.9 -28.1,47.0 -25.0,47.7 -21.7,48.3 -18.4,48.1 -15.0,48.8 -11.5,48.2 -8.1,49.1 -4.8,49.5 -1.3,50.0 3.7,49.5" fill="none" stroke="rgb(167,133,106)" stroke-width="2.539166293410764" stroke-linejoin="round" stroke-linecap="round" filter="url(#fuzzy_av_1779093954993_vxp6njh9yzs)" opacity="0.9648622720744275"/><polyline points="-55.2,26.2 -54.5,27.4 -54.2,31.7 -53.6,33.5 -52.7,34.8 -51.4,36.9 -50.0,39.6 -48.2,40.5 -46.1,42.8 -43.7,43.9 -40.9,44.4 -37.9,44.9 -34.7,45.5 -31.3,46.5 -27.9,46.6 -24.4,47.6 -20.8,48.4 -17.0,48.0 -13.2,49.5 -9.4,48.2 -5.6,48.9 -1.5,49.0 4.6,49.3" fill="none" stroke="rgb(167,133,106)" stroke-width="1.3519811214169624" stroke-linejoin="round" stroke-linecap="round" filter="url(#fuzzy_av_1779093954993_vxp6njh9yzs)" opacity="0.8695741693334907"/><polyline points="-52.4,31.9 -49.9,35.4 -47.9,37.0 -46.0,39.0 -44.0,40.9 -42.0,42.5 -39.6,42.9 -37.1,44.7 -34.5,44.7 -31.7,46.7 -28.9,45.5 -26.0,46.6 -23.0,48.0 -19.7,48.2 -16.2,48.4 -12.6,48.3 -8.8,49.1 -5.1,48.8 -1.4,48.6 2.3,48.5 5.9,49.9 9.5,49.4 13.1,48.7 16.8,47.5 20.8,47.2 25.1,48.5 29.6,47.9 33.8,47.7 36.2,47.4" fill="none" stroke="rgb(167,133,106)" stroke-width="2.2190112176369006" stroke-linejoin="round" stroke-linecap="round" filter="url(#fuzzy_av_1779093954993_vxp6njh9yzs)" opacity="0.948622586334709"/><polyline points="-50.1,35.4 -48.5,37.2 -46.6,40.9 -44.2,41.3 -41.3,41.8 -38.2,43.3 -35.2,44.5 -32.2,45.9 -29.1,46.3 -26.0,46.8 -22.9,46.2 -19.7,48.4 -16.5,48.8 -13.2,48.9 -9.8,49.2 -6.5,49.6 -3.1,48.4 0.4,48.0 3.8,48.6 7.3,49.1 11.0,49.4 14.7,48.7 18.5,48.7 22.3,47.8 26.3,46.7 30.2,45.9 34.2,45.8 38.1,44.6 42.0,43.9 45.8,43.2 49.6,43.1 53.2,41.3 56.6,39.4 59.9,38.8 63.0,36.4 66.4,33.8 70.5,31.2" fill="none" stroke="rgb(167,133,106)" stroke-width="1.5056397367374954" stroke-linejoin="round" stroke-linecap="round" filter="url(#fuzzy_av_1779093954993_vxp6njh9yzs)" opacity="0.7918563877699096"/><polyline points="-47.5,39.2 -44.0,39.6 -40.8,42.5 -37.9,42.7 -35.2,42.7 -32.6,44.5 -30.1,45.2 -27.6,46.8 -25.0,46.7 -22.3,47.7 -19.3,47.1 -16.3,48.3 -13.1,47.6 -10.0,48.4 -6.9,47.9 -4.0,48.6 -1.1,49.5 1.6,49.8 4.3,48.2 6.9,49.5 9.5,48.4 12.0,47.7 14.6,47.0 17.1,47.1 19.6,45.9 22.0,46.1 24.2,46.6 26.3,44.4 28.2,44.0 30.0,43.6 31.5,41.4 32.8,40.3 33.8,38.2 34.5,36.2 34.9,34.1 35.1,31.5 35.3,28.9 35.5,27.3 35.9,25.2" fill="none" stroke="rgb(167,133,106)" stroke-width="1.017719080970261" stroke-linejoin="round" stroke-linecap="round" filter="url(#fuzzy_av_1779093954993_vxp6njh9yzs)" opacity="0.8555825308480914"/></g><path d="M -10.22133996637422 12.260085109464146 Q 8.852570392614863 15.611491821219628, -0.6843847868796784 5.130468868572382" fill="none" stroke="#111" stroke-width="2.2150360386171513" stroke-linejoin="round" filter="url(#fuzzy_av_1779093954993_vxp6njh9yzs)"/><polyline points="10.2,28.9 10.2,29.1 10.3,29.6 10.5,29.8 10.4,30.7 10.5,31.1 10.4,31.4 10.4,31.4 10.2,31.8 10.3,31.7 10.2,31.8 9.9,32.6 10.0,32.7 9.4,33.8 9.2,34.0 9.3,33.8 9.3,33.9 9.3,34.0 8.6,34.9 8.7,34.7 7.7,35.8 8.0,35.5 7.9,35.7 6.5,37.0 6.5,37.0 6.4,37.0 6.3,37.1 6.3,37.2 5.7,37.6 5.5,37.8 4.2,38.7 3.9,38.9 3.8,39.0 2.5,39.8 2.6,39.7 2.6,39.7 1.3,40.4 1.2,40.5 0.0,41.1 0.8,40.7 0.1,41.0 -0.4,41.2 -2.6,42.2 -1.7,41.8 -3.2,42.4 -4.4,42.8 -3.4,42.5 -3.5,42.5 -4.4,42.8 -5.3,43.1 -7.1,43.6 -7.6,43.7 -7.4,43.7 -8.5,43.9 -8.5,43.9 -9.1,44.1 -10.5,44.3 -11.4,44.4 -11.7,44.5 -11.3,44.5 -11.6,44.5 -12.4,44.6 -14.3,44.8 -13.5,44.7 -14.9,44.8 -14.8,44.8 -15.9,44.8 -16.1,44.9 -16.6,44.9 -18.3,44.8 -17.5,44.8 -17.8,44.8 -19.6,44.6 -19.5,44.7 -20.8,44.5 -20.0,44.6 -20.1,44.6 -21.3,44.4 -22.4,44.2 -22.5,44.1 -22.2,44.2 -22.5,44.1 -23.5,43.8 -24.2,43.5 -23.6,43.7 -24.3,43.5 -24.8,43.3 -24.9,43.1 -25.7,42.6 -25.8,42.5 -26.4,42.1 -26.5,42.0 -26.4,42.0 -27.2,41.3 -27.0,41.6 -27.3,41.0 -27.4,41.0 -27.6,40.6 -27.5,40.6 -27.6,40.4 -27.7,40.1 -27.7,40.0 -27.9,38.9 -27.9,39.6 -27.9,38.3 -28.0,38.4 -28.0,38.4 -27.8,37.7 -27.8,37.3 -27.6,37.0 -27.6,36.8 -27.7,37.2 -27.4,36.2 -27.4,36.3 -27.1,35.9 -27.0,35.6 -26.9,35.6 -26.8,35.2 -26.1,34.4 -25.5,33.7 -26.0,34.2 -25.1,33.3 -24.7,32.8 -25.0,33.1 -24.4,32.7 -23.9,32.2 -23.0,31.5 -22.8,31.3 -23.1,31.6 -22.1,30.8 -22.0,30.8 -20.9,30.0 -21.6,30.5 -20.0,29.5 -20.9,30.0 -19.5,29.2 -19.0,28.9 -19.3,29.1 -18.9,28.9 -17.4,28.2 -16.5,27.8 -15.9,27.5 -16.2,27.7 -15.0,27.1 -15.3,27.3 -13.9,26.8 -14.4,26.9 -13.7,26.7 -11.5,26.0 -11.2,25.9 -10.9,25.8 -10.4,25.7 -11.0,25.8 -9.4,25.4 -8.7,25.3 -8.7,25.3 -8.2,25.2 -7.6,25.1 -7.0,24.9 -5.7,24.7 -5.2,24.7 -5.3,24.7 -5.0,24.7 -3.5,24.5 -1.9,24.4 -2.5,24.5 -1.0,24.4 -1.5,24.4 -1.2,24.4 -0.9,24.4 1.1,24.5 0.4,24.4 1.5,24.5 2.7,24.6 3.4,24.7 3.0,24.7 3.5,24.8 4.0,24.8 4.6,25.0 4.3,24.9 5.5,25.2 5.4,25.2 6.4,25.6 6.8,25.7 7.1,25.9 7.4,26.0 8.0,26.4 7.3,26.0 7.6,26.1 8.4,26.7 8.8,27.0 8.6,26.8 9.0,27.2 9.3,27.6 9.1,27.4 9.6,27.9 9.7,28.2 9.8,28.4 10.2,29.0 10.3,29.4" fill="rgb(215,127,140)" stroke="#111" stroke-width="2.587031594638302" stroke-linejoin="round" filter="url(#fuzzy_av_1779093954993_vxp6njh9yzs)"/></g><g class="accessory-svg accessory-bolt" transform="translate(76.1 -11.8) rotate(0.4) scale(0.875)">
      <path d="M-8-10H4L1-2h8L-5 12l3-9h-7z" fill="#451A03" stroke="#111827" stroke-width="1.1" stroke-linejoin="round"/><circle cx="0" cy="0" r="2" fill="#fbbf24"/>
    </g><g class="accessory-svg accessory-gear" transform="translate(5.6 74.4) rotate(8.9) scale(0.841)">
      <path d="M0-12l2 3 4-1 2 4-2 3 3 3-3 3 2 3-2 4-4-1-2 3-2-3-4 1-2-4 2-3-3-3 3-3-2-3 2-4 4 1z" fill="#451A03" stroke="#111827" stroke-width="1"/><circle cx="0" cy="0" r="4" fill="#f8fafc" stroke="#111827" stroke-width="1"/>
    </g><g class="accessory-svg accessory-toolbox" transform="translate(-71.0 -29.4) rotate(-6.4) scale(1.084)">
      <rect x="-11" y="-5" width="22" height="15" rx="2" fill="#78350F" stroke="#111827" stroke-width="1.1"/><path d="M-5-5v-4h10v4M-11 0h22M0-5v15" fill="none" stroke="#111827" stroke-width="1"/><rect x="-2" y="1" width="4" height="3" fill="#fbbf24"/>
    </g><g class="accessory-svg accessory-box" transform="translate(-17.9 -74.5) rotate(9.8) scale(0.999)">
      <rect x="-11" y="-5" width="22" height="15" rx="2" fill="#c08457" stroke="#111827" stroke-width="1.1"/><path d="M-5-5v-4h10v4M-11 0h22M0-5v15" fill="none" stroke="#111827" stroke-width="1"/><rect x="-2" y="1" width="4" height="3" fill="#fbbf24"/>
    </g></svg>