<svg xmlns="http://www.w3.org/2000/svg" viewBox="-100 -100 200 200" width="400" height="400" role="img" aria-label="扫地僧 avatar"><defs>
      <filter id="fuzzy_av_1779093954996_61umre51fz4" x="-8%" y="-8%" width="116%" height="116%">
        <feTurbulence baseFrequency="0.045" numOctaves="3" type="fractalNoise" result="noise"/>
        <feDisplacementMap in="SourceGraphic" in2="noise" scale="1.6"/>
      </filter>
      <clipPath id="leftEye_av_1779093954996_61umre51fz4"><polyline points="-14.9,3.5 -14.9,3.1 -14.8,2.8 -14.7,2.5 -14.6,2.1 -14.5,1.7 -14.4,1.4 -14.3,1.0 -14.2,0.6 -14.0,0.3 -13.8,-0.1 -13.7,-0.5 -13.5,-0.8 -13.2,-1.2 -13.0,-1.6 -12.8,-1.9 -12.6,-2.4 -12.4,-2.8 -12.1,-3.3 -11.9,-3.7 -11.6,-4.1 -11.3,-4.6 -10.9,-5.0 -10.5,-5.3 -10.1,-5.7 -9.7,-6.1 -9.2,-6.4 -8.7,-6.7 -8.2,-7.0 -7.7,-7.2 -7.1,-7.5 -6.6,-7.7 -6.0,-7.9 -5.4,-8.1 -4.8,-8.2 -4.2,-8.3 -3.5,-8.4 -2.9,-8.5 -2.2,-8.6 -1.6,-8.6 -0.9,-8.6 -0.2,-8.6 0.5,-8.5 1.1,-8.4 1.8,-8.3 2.4,-8.2 3.1,-8.1 3.8,-7.9 4.4,-7.7 5.0,-7.5 5.7,-7.3 6.3,-7.1 6.9,-6.9 7.5,-6.6 8.0,-6.3 8.6,-6.0 9.1,-5.7 9.7,-5.4 10.2,-5.1 10.7,-4.8 11.2,-4.5 11.6,-4.2 12.1,-3.8 12.5,-3.5 12.9,-3.1 13.3,-2.8 13.6,-2.5 14.0,-2.1 14.3,-1.8 14.7,-1.5 15.0,-1.1 15.3,-0.8 15.5,-0.4 15.8,-0.1 16.0,0.2 16.3,0.6 16.5,0.9 16.7,1.2 16.8,1.6 17.0,1.9 18.8,6.2 18.6,6.3 18.3,6.4 18.1,6.5 17.8,6.7 17.5,6.8 17.2,6.9 16.9,7.0 16.6,7.1 16.2,7.2 15.9,7.3 15.5,7.4 15.1,7.4 14.7,7.5 14.3,7.6 13.9,7.7 13.5,7.7 13.1,7.8 12.6,7.9 12.2,7.9 11.7,8.0 11.2,8.1 10.7,8.1 10.2,8.2 9.7,8.2 9.1,8.2 8.6,8.3 8.0,8.3 7.5,8.4 6.9,8.4 6.3,8.4 5.7,8.4 5.1,8.5 4.5,8.5 3.9,8.5 3.3,8.5 2.7,8.5 2.1,8.6 1.5,8.6 0.9,8.6 0.3,8.6 -0.3,8.6 -0.9,8.6 -1.5,8.6 -2.1,8.6 -2.7,8.6 -3.3,8.6 -3.8,8.6 -4.4,8.6 -4.9,8.6 -5.4,8.5 -5.9,8.5 -6.4,8.5 -6.9,8.5 -7.4,8.5 -7.8,8.4 -8.2,8.4 -8.7,8.3 -9.0,8.3 -9.4,8.3 -9.8,8.2 -10.1,8.1 -10.4,8.1 -10.7,8.0 -11.0,7.9 -11.3,7.8 -11.6,7.8 -11.9,7.7 -12.1,7.5 -12.4,7.4 -12.6,7.3 -12.9,7.2 -13.1,7.0 -13.3,6.8 -13.5,6.7 -13.7,6.5 -13.9,6.3 -14.1,6.1 -14.3,5.9 -14.5,5.6"/></clipPath>
      <clipPath id="rightEye_av_1779093954996_61umre51fz4"><polyline points="-15.2,3.4 -15.1,3.2 -15.0,3.0 -14.9,2.7 -14.8,2.5 -14.6,2.2 -14.5,2.0 -14.3,1.7 -14.1,1.4 -14.0,1.2 -13.7,0.9 -13.5,0.6 -13.3,0.3 -13.0,0.0 -12.7,-0.2 -12.4,-0.5 -12.2,-0.9 -11.9,-1.2 -11.6,-1.5 -11.3,-1.9 -11.0,-2.2 -10.6,-2.5 -10.2,-2.9 -9.7,-3.2 -9.3,-3.5 -8.8,-3.8 -8.3,-4.1 -7.7,-4.4 -7.2,-4.6 -6.6,-4.9 -6.0,-5.2 -5.4,-5.4 -4.8,-5.6 -4.1,-5.8 -3.5,-6.0 -2.8,-6.1 -2.2,-6.3 -1.5,-6.4 -0.8,-6.5 -0.1,-6.6 0.6,-6.7 1.2,-6.7 1.9,-6.7 2.6,-6.7 3.3,-6.7 3.9,-6.7 4.6,-6.7 5.2,-6.6 5.8,-6.5 6.5,-6.4 7.1,-6.3 7.7,-6.1 8.2,-6.0 8.8,-5.8 9.3,-5.6 9.9,-5.5 10.4,-5.2 10.9,-5.0 11.3,-4.8 11.8,-4.6 12.2,-4.3 12.6,-4.1 13.0,-3.8 13.4,-3.6 13.7,-3.3 14.1,-3.1 14.4,-2.8 14.7,-2.5 15.0,-2.3 15.3,-2.0 15.5,-1.7 15.7,-1.4 16.0,-1.2 16.2,-0.9 16.3,-0.6 16.5,-0.3 16.7,-0.1 16.8,0.2 16.9,0.5 17.0,0.8 18.6,5.4 18.3,5.4 17.9,5.5 17.6,5.6 17.3,5.6 16.9,5.7 16.6,5.7 16.2,5.8 15.8,5.9 15.4,5.9 15.0,6.0 14.6,6.0 14.2,6.1 13.8,6.1 13.3,6.1 12.9,6.2 12.4,6.2 12.0,6.3 11.5,6.3 11.0,6.3 10.5,6.4 9.9,6.4 9.4,6.4 8.9,6.4 8.3,6.5 7.8,6.5 7.2,6.5 6.6,6.5 6.1,6.5 5.5,6.6 4.9,6.6 4.3,6.6 3.7,6.6 3.1,6.6 2.5,6.6 1.9,6.6 1.3,6.6 0.7,6.7 0.0,6.7 -0.6,6.7 -1.1,6.7 -1.7,6.7 -2.3,6.7 -2.9,6.7 -3.5,6.7 -4.0,6.7 -4.6,6.7 -5.1,6.7 -5.7,6.7 -6.2,6.7 -6.7,6.7 -7.2,6.7 -7.7,6.7 -8.1,6.7 -8.6,6.7 -9.0,6.7 -9.4,6.7 -9.8,6.7 -10.1,6.7 -10.5,6.7 -10.8,6.7 -11.1,6.6 -11.4,6.6 -11.7,6.6 -11.9,6.6 -12.2,6.6 -12.5,6.6 -12.7,6.5 -13.0,6.5 -13.2,6.5 -13.4,6.4 -13.6,6.4 -13.8,6.4 -14.0,6.3 -14.2,6.3 -14.4,6.2 -14.6,6.1 -14.7,6.1 -14.8,6.0 -15.0,5.9"/></clipPath>
      <linearGradient id="rainbow_av_1779093954996_61umre51fz4" x1="0%" y1="0%" x2="100%" y2="0%">
        <stop offset="0%" stop-color="#7C3AED"/><stop offset="74%" stop-color="#22D3EE"/><stop offset="100%" stop-color="#6D28D9"/>
      </linearGradient>
      <linearGradient id="splitHair_av_1779093954996_61umre51fz4" x1="0%" y1="0%" x2="100%" y2="0%">
        <stop offset="49%" stop-color="#111827"/><stop offset="51%" stop-color="#F9FAFB"/>
      </linearGradient>
      <radialGradient id="halo_av_1779093954996_61umre51fz4"><stop offset="0%" stop-color="#7C3AED" stop-opacity=".45"/><stop offset="100%" stop-color="#7C3AED" stop-opacity="0"/></radialGradient>
    </defs><rect x="-100" y="-100" width="200" height="200" fill="#EDE9FE"/><g opacity="1"><polyline id="faceContour" class="face-shape" points="56.7,-5.1 56.7,-4.2 56.4,-1.9 56.7,-3.2 55.8,-0.4 55.9,-0.5 56.2,-0.4 55.1,3.4 55.7,1.6 54.5,5.2 54.7,4.4 54.5,6.1 53.4,8.3 53.4,8.2 53.1,9.5 52.7,10.7 52.1,11.2 51.2,13.3 51.4,12.5 49.6,16.5 50.3,15.3 49.5,16.6 48.6,17.6 48.4,18.2 47.3,19.6 45.3,22.4 46.6,21.0 45.9,21.8 44.6,23.7 42.8,25.6 41.9,26.5 42.4,26.2 41.5,27.3 39.4,29.1 38.2,30.2 38.3,30.2 37.5,31.0 37.7,30.5 35.5,32.7 33.4,34.1 33.0,34.4 32.5,35.0 32.1,35.1 30.0,36.7 29.7,36.9 28.6,37.6 26.7,38.5 27.1,38.4 25.1,39.5 23.3,40.5 24.3,40.0 23.9,40.2 19.7,42.0 19.2,42.3 18.6,42.4 18.4,42.6 16.5,43.1 16.1,43.3 13.4,44.1 13.2,44.2 12.5,44.5 9.6,45.1 9.1,45.2 6.8,45.6 7.8,45.4 6.0,45.7 3.4,45.9 3.1,46.0 0.6,46.1 1.4,46.1 -0.6,46.2 -2.3,46.2 -0.5,46.2 -3.8,46.2 -5.0,46.1 -6.2,46.0 -8.8,45.7 -7.4,45.8 -11.1,45.2 -11.2,45.3 -14.0,44.8 -13.1,44.8 -15.2,44.4 -14.8,44.5 -17.4,43.8 -16.2,44.2 -17.9,43.6 -19.1,43.1 -21.7,42.2 -23.7,41.5 -24.8,40.8 -22.9,41.7 -25.3,40.6 -25.1,40.7 -26.0,40.2 -27.1,39.5 -30.3,37.7 -31.2,37.3 -31.2,37.1 -33.0,35.9 -32.9,36.2 -34.7,34.6 -35.6,33.9 -34.7,34.4 -37.2,32.6 -38.9,31.2 -38.5,31.2 -39.7,30.4 -41.5,28.5 -42.1,27.6 -43.4,26.4 -43.9,25.6 -43.8,25.9 -45.4,23.6 -45.1,24.3 -45.9,22.9 -46.4,22.3 -48.8,19.0 -48.5,19.1 -48.4,19.2 -50.2,16.2 -50.8,15.1 -50.8,15.1 -50.8,15.5 -51.4,13.5 -53.3,9.9 -52.8,10.3 -53.3,9.0 -53.5,8.5 -54.3,6.3 -54.1,6.5 -54.7,6.0 -54.7,5.0 -55.2,2.8 -55.8,0.3 -56.1,-0.8 -55.9,0.7 -56.0,-1.0 -56.3,-1.9 -56.9,-4.7 -56.7,-5.1 -56.9,-5.9 -57.1,-7.3 -57.0,-11.6 -57.1,-10.2 -56.9,-11.4 -56.9,-14.4 -56.8,-15.3 -56.8,-15.3 -56.5,-16.0 -56.1,-18.8 -56.7,-17.5 -56.0,-20.2 -56.2,-20.3 -54.9,-24.1 -54.9,-24.1 -54.8,-25.0 -53.9,-27.3 -53.6,-28.3 -54.2,-26.9 -52.9,-30.0 -51.8,-31.9 -52.2,-31.0 -51.1,-32.8 -51.3,-33.2 -49.7,-35.3 -48.8,-36.4 -48.0,-37.7 -47.7,-38.1 -47.7,-38.4 -47.3,-38.9 -46.8,-39.2 -44.6,-42.0 -45.6,-40.9 -44.1,-42.4 -43.6,-43.0 -41.0,-45.2 -39.8,-46.0 -41.0,-45.4 -38.3,-47.3 -37.2,-48.0 -35.7,-49.2 -36.5,-48.5 -34.4,-49.8 -33.4,-50.4 -32.6,-50.8 -33.1,-50.6 -30.2,-52.0 -30.3,-52.1 -27.3,-53.3 -28.2,-52.9 -23.5,-54.7 -25.9,-53.9 -23.0,-55.0 -20.2,-55.8 -21.0,-55.6 -20.1,-55.9 -17.2,-56.6 -15.8,-56.8 -13.4,-57.4 -12.4,-57.4 -14.0,-57.2 -12.4,-57.4 -11.3,-57.7 -8.7,-57.9 -8.6,-58.0 -6.7,-58.1 -2.8,-58.2 -4.1,-58.2 -3.0,-58.1 0.4,-58.2 2.0,-58.2 2.4,-58.1 6.2,-57.9 4.7,-58.0 8.2,-57.7 9.6,-57.5 11.9,-56.9 12.6,-56.8 12.6,-56.9 14.5,-56.4 14.8,-56.4 14.8,-56.3 17.4,-55.6 17.6,-55.6 21.8,-54.4 22.3,-54.3 23.4,-53.9 24.7,-53.3 26.5,-52.6 25.8,-52.9 27.1,-52.4 29.2,-51.5 28.5,-51.7 32.7,-49.6 32.6,-49.3 33.6,-48.9 34.9,-48.3 36.5,-47.1 37.7,-46.3 38.4,-45.8 38.4,-45.9 39.8,-44.5 40.7,-43.9 42.5,-42.4 42.8,-42.1 44.2,-40.5 43.6,-41.4 45.4,-39.4 45.4,-39.6 46.9,-37.7 47.9,-36.6 47.7,-36.8 48.1,-36.3 49.1,-35.2 49.6,-34.3 51.8,-30.6 51.8,-30.3 52.7,-29.0 51.7,-30.7 52.9,-28.1 54.1,-26.1 54.2,-25.6 53.6,-26.5 54.5,-24.4 55.2,-22.1 55.5,-21.3 56.2,-19.4 56.1,-18.8 56.2,-17.6 56.3,-17.2 56.9,-14.7 56.5,-16.0 56.8,-14.9 56.9,-12.1 57.1,-11.6 57.0,-9.5 57.2,-10.8 57.0,-7.1 57.2,-8.0 56.7,-5.1 56.7,-4.2" fill="#ffc9a9" stroke="#111" stroke-width="2.2" stroke-linejoin="round" filter="url(#fuzzy_av_1779093954996_61umre51fz4)"/><g id="leftEye" transform="translate(-38.7 -23.6)"><polyline points="-14.9,3.5 -14.9,3.1 -14.8,2.8 -14.7,2.5 -14.6,2.1 -14.5,1.7 -14.4,1.4 -14.3,1.0 -14.2,0.6 -14.0,0.3 -13.8,-0.1 -13.7,-0.5 -13.5,-0.8 -13.2,-1.2 -13.0,-1.6 -12.8,-1.9 -12.6,-2.4 -12.4,-2.8 -12.1,-3.3 -11.9,-3.7 -11.6,-4.1 -11.3,-4.6 -10.9,-5.0 -10.5,-5.3 -10.1,-5.7 -9.7,-6.1 -9.2,-6.4 -8.7,-6.7 -8.2,-7.0 -7.7,-7.2 -7.1,-7.5 -6.6,-7.7 -6.0,-7.9 -5.4,-8.1 -4.8,-8.2 -4.2,-8.3 -3.5,-8.4 -2.9,-8.5 -2.2,-8.6 -1.6,-8.6 -0.9,-8.6 -0.2,-8.6 0.5,-8.5 1.1,-8.4 1.8,-8.3 2.4,-8.2 3.1,-8.1 3.8,-7.9 4.4,-7.7 5.0,-7.5 5.7,-7.3 6.3,-7.1 6.9,-6.9 7.5,-6.6 8.0,-6.3 8.6,-6.0 9.1,-5.7 9.7,-5.4 10.2,-5.1 10.7,-4.8 11.2,-4.5 11.6,-4.2 12.1,-3.8 12.5,-3.5 12.9,-3.1 13.3,-2.8 13.6,-2.5 14.0,-2.1 14.3,-1.8 14.7,-1.5 15.0,-1.1 15.3,-0.8 15.5,-0.4 15.8,-0.1 16.0,0.2 16.3,0.6 16.5,0.9 16.7,1.2 16.8,1.6 17.0,1.9 18.8,6.2 18.6,6.3 18.3,6.4 18.1,6.5 17.8,6.7 17.5,6.8 17.2,6.9 16.9,7.0 16.6,7.1 16.2,7.2 15.9,7.3 15.5,7.4 15.1,7.4 14.7,7.5 14.3,7.6 13.9,7.7 13.5,7.7 13.1,7.8 12.6,7.9 12.2,7.9 11.7,8.0 11.2,8.1 10.7,8.1 10.2,8.2 9.7,8.2 9.1,8.2 8.6,8.3 8.0,8.3 7.5,8.4 6.9,8.4 6.3,8.4 5.7,8.4 5.1,8.5 4.5,8.5 3.9,8.5 3.3,8.5 2.7,8.5 2.1,8.6 1.5,8.6 0.9,8.6 0.3,8.6 -0.3,8.6 -0.9,8.6 -1.5,8.6 -2.1,8.6 -2.7,8.6 -3.3,8.6 -3.8,8.6 -4.4,8.6 -4.9,8.6 -5.4,8.5 -5.9,8.5 -6.4,8.5 -6.9,8.5 -7.4,8.5 -7.8,8.4 -8.2,8.4 -8.7,8.3 -9.0,8.3 -9.4,8.3 -9.8,8.2 -10.1,8.1 -10.4,8.1 -10.7,8.0 -11.0,7.9 -11.3,7.8 -11.6,7.8 -11.9,7.7 -12.1,7.5 -12.4,7.4 -12.6,7.3 -12.9,7.2 -13.1,7.0 -13.3,6.8 -13.5,6.7 -13.7,6.5 -13.9,6.3 -14.1,6.1 -14.3,5.9 -14.5,5.6" fill="#fff" stroke="#fff" stroke-width="0" stroke-linejoin="round" filter="url(#fuzzy_av_1779093954996_61umre51fz4)"/><polyline points="15.0,5.9 15.0,5.7 15.0,5.6 15.0,5.4 15.0,5.1 15.0,4.9 15.0,4.6 15.0,4.4 15.0,4.1 14.9,3.8 -14.9,3.5 -14.9,3.1 -14.8,2.8 -14.7,2.5 -14.6,2.1 -14.5,1.7 -14.4,1.4 -14.3,1.0 -14.2,0.6 -14.0,0.3 -13.8,-0.1 -13.7,-0.5 -13.5,-0.8 -13.2,-1.2 -13.0,-1.6 -12.8,-1.9 -12.6,-2.4 -12.4,-2.8 -12.1,-3.3 -11.9,-3.7 -11.6,-4.1 -11.3,-4.6 -10.9,-5.0 -10.5,-5.3 -10.1,-5.7 -9.7,-6.1 -9.2,-6.4 -8.7,-6.7 -8.2,-7.0 -7.7,-7.2 -7.1,-7.5 -6.6,-7.7 -6.0,-7.9 -5.4,-8.1 -4.8,-8.2 -4.2,-8.3 -3.5,-8.4 -2.9,-8.5 -2.2,-8.6 -1.6,-8.6 -0.9,-8.6 -0.2,-8.6 0.5,-8.5 1.1,-8.4 1.8,-8.3 2.4,-8.2 3.1,-8.1 3.8,-7.9 4.4,-7.7 5.0,-7.5 5.7,-7.3 6.3,-7.1 6.9,-6.9 7.5,-6.6 8.0,-6.3 8.6,-6.0 9.1,-5.7 9.7,-5.4 10.2,-5.1 10.7,-4.8 11.2,-4.5 11.6,-4.2 12.1,-3.8 12.5,-3.5 12.9,-3.1 13.3,-2.8 13.6,-2.5 14.0,-2.1 14.3,-1.8 14.7,-1.5 15.0,-1.1 15.3,-0.8 15.5,-0.4 15.8,-0.1 16.0,0.2 16.3,0.6 16.5,0.9 16.7,1.2 16.8,1.6 17.0,1.9 -17.1,2.2 -17.3,2.5 -17.4,2.8 -17.5,3.1 -17.6,3.4 -17.6,3.7 -17.7,4.0 -17.7,4.3 -17.8,4.5 -17.8,4.8" fill="none" stroke="#111" stroke-width="2.660341248916917" stroke-linejoin="round" stroke-linecap="round" filter="url(#fuzzy_av_1779093954996_61umre51fz4)"/><polyline points="15.9,2.2 15.8,2.6 15.6,3.1 15.5,3.4 15.4,3.8 15.2,4.2 15.1,4.5 14.9,4.8 14.8,5.1 14.6,5.4 -14.5,5.6 -14.3,5.9 -14.1,6.1 -13.9,6.3 -13.7,6.5 -13.5,6.7 -13.3,6.8 -13.1,7.0 -12.9,7.2 -12.6,7.3 -12.4,7.4 -12.1,7.5 -11.9,7.7 -11.6,7.8 -11.3,7.8 -11.0,7.9 -10.7,8.0 -10.4,8.1 -10.1,8.1 -9.8,8.2 -9.4,8.3 -9.0,8.3 -8.7,8.3 -8.2,8.4 -7.8,8.4 -7.4,8.5 -6.9,8.5 -6.4,8.5 -5.9,8.5 -5.4,8.5 -4.9,8.6 -4.4,8.6 -3.8,8.6 -3.3,8.6 -2.7,8.6 -2.1,8.6 -1.5,8.6 -0.9,8.6 -0.3,8.6 0.3,8.6 0.9,8.6 1.5,8.6 2.1,8.6 2.7,8.5 3.3,8.5 3.9,8.5 4.5,8.5 5.1,8.5 5.7,8.4 6.3,8.4 6.9,8.4 7.5,8.4 8.0,8.3 8.6,8.3 9.1,8.2 9.7,8.2 10.2,8.2 10.7,8.1 11.2,8.1 11.7,8.0 12.2,7.9 12.6,7.9 13.1,7.8 13.5,7.7 13.9,7.7 14.3,7.6 14.7,7.5 15.1,7.4 15.5,7.4 15.9,7.3 16.2,7.2 16.6,7.1 16.9,7.0 17.2,6.9 17.5,6.8 17.8,6.7 18.1,6.5 18.3,6.4 18.6,6.3 18.8,6.2 -19.1,6.0 -19.3,5.9 -19.5,5.8 -19.7,5.6 -19.9,5.5 -20.0,5.3 -20.2,5.2 -20.4,5.0 -20.5,4.8 -20.6,4.7" fill="none" stroke="#111" stroke-width="2.2830357572450604" stroke-linejoin="round" stroke-linecap="round" filter="url(#fuzzy_av_1779093954996_61umre51fz4)"/><circle r="2.5328789060044112" cx="-8.406730354579125" cy="5.747713049396475" stroke="#111" fill="none" stroke-width="0.8801493681758141" filter="url(#fuzzy_av_1779093954996_61umre51fz4)" clip-path="url(#leftEye_av_1779093954996_61umre51fz4)"/><circle r="4.633789096914632" cx="-7.983178953456159" cy="3.8089458806957537" stroke="#111" fill="none" stroke-width="1.2111555608931368" filter="url(#fuzzy_av_1779093954996_61umre51fz4)" clip-path="url(#leftEye_av_1779093954996_61umre51fz4)"/><circle r="4.33421081826231" cx="-7.399955536446874" cy="3.2700379845499774" stroke="#111" fill="none" stroke-width="1.2792434635171555" filter="url(#fuzzy_av_1779093954996_61umre51fz4)" clip-path="url(#leftEye_av_1779093954996_61umre51fz4)"/><circle r="4.668090442211561" cx="-6.467505344399871" cy="5.495010111821159" stroke="#111" fill="none" stroke-width="1.2230977979432993" filter="url(#fuzzy_av_1779093954996_61umre51fz4)" clip-path="url(#leftEye_av_1779093954996_61umre51fz4)"/><circle r="4.614137544143837" cx="-6.680058564903206" cy="6.314051158707267" stroke="#111" fill="none" stroke-width="1.368913912601696" filter="url(#fuzzy_av_1779093954996_61umre51fz4)" clip-path="url(#leftEye_av_1779093954996_61umre51fz4)"/><circle r="3.635706785573043" cx="-9.950378726109355" cy="2.923295278885174" stroke="#111" fill="none" stroke-width="1.3177230533819824" filter="url(#fuzzy_av_1779093954996_61umre51fz4)" clip-path="url(#leftEye_av_1779093954996_61umre51fz4)"/><circle r="3.799805840107254" cx="-6.957769845147682" cy="6.364004243971418" stroke="#111" fill="none" stroke-width="1.069021294406707" filter="url(#fuzzy_av_1779093954996_61umre51fz4)" clip-path="url(#leftEye_av_1779093954996_61umre51fz4)"/><circle r="4.621734824635671" cx="-8.968953716905986" cy="4.828154922615877" stroke="#111" fill="none" stroke-width="1.0047633929568807" filter="url(#fuzzy_av_1779093954996_61umre51fz4)" clip-path="url(#leftEye_av_1779093954996_61umre51fz4)"/><circle r="3.8824642491945047" cx="-7.828871169094452" cy="3.844369474101291" stroke="#111" fill="none" stroke-width="1.0103949547096367" filter="url(#fuzzy_av_1779093954996_61umre51fz4)" clip-path="url(#leftEye_av_1779093954996_61umre51fz4)"/><circle r="4.3263617984928615" cx="-9.33127285320291" cy="5.084489816302055" stroke="#111" fill="none" stroke-width="0.9189249906250849" filter="url(#fuzzy_av_1779093954996_61umre51fz4)" clip-path="url(#leftEye_av_1779093954996_61umre51fz4)"/></g><g id="rightEye" transform="translate(26.3 -24.3)"><polyline points="-15.2,3.4 -15.1,3.2 -15.0,3.0 -14.9,2.7 -14.8,2.5 -14.6,2.2 -14.5,2.0 -14.3,1.7 -14.1,1.4 -14.0,1.2 -13.7,0.9 -13.5,0.6 -13.3,0.3 -13.0,0.0 -12.7,-0.2 -12.4,-0.5 -12.2,-0.9 -11.9,-1.2 -11.6,-1.5 -11.3,-1.9 -11.0,-2.2 -10.6,-2.5 -10.2,-2.9 -9.7,-3.2 -9.3,-3.5 -8.8,-3.8 -8.3,-4.1 -7.7,-4.4 -7.2,-4.6 -6.6,-4.9 -6.0,-5.2 -5.4,-5.4 -4.8,-5.6 -4.1,-5.8 -3.5,-6.0 -2.8,-6.1 -2.2,-6.3 -1.5,-6.4 -0.8,-6.5 -0.1,-6.6 0.6,-6.7 1.2,-6.7 1.9,-6.7 2.6,-6.7 3.3,-6.7 3.9,-6.7 4.6,-6.7 5.2,-6.6 5.8,-6.5 6.5,-6.4 7.1,-6.3 7.7,-6.1 8.2,-6.0 8.8,-5.8 9.3,-5.6 9.9,-5.5 10.4,-5.2 10.9,-5.0 11.3,-4.8 11.8,-4.6 12.2,-4.3 12.6,-4.1 13.0,-3.8 13.4,-3.6 13.7,-3.3 14.1,-3.1 14.4,-2.8 14.7,-2.5 15.0,-2.3 15.3,-2.0 15.5,-1.7 15.7,-1.4 16.0,-1.2 16.2,-0.9 16.3,-0.6 16.5,-0.3 16.7,-0.1 16.8,0.2 16.9,0.5 17.0,0.8 18.6,5.4 18.3,5.4 17.9,5.5 17.6,5.6 17.3,5.6 16.9,5.7 16.6,5.7 16.2,5.8 15.8,5.9 15.4,5.9 15.0,6.0 14.6,6.0 14.2,6.1 13.8,6.1 13.3,6.1 12.9,6.2 12.4,6.2 12.0,6.3 11.5,6.3 11.0,6.3 10.5,6.4 9.9,6.4 9.4,6.4 8.9,6.4 8.3,6.5 7.8,6.5 7.2,6.5 6.6,6.5 6.1,6.5 5.5,6.6 4.9,6.6 4.3,6.6 3.7,6.6 3.1,6.6 2.5,6.6 1.9,6.6 1.3,6.6 0.7,6.7 0.0,6.7 -0.6,6.7 -1.1,6.7 -1.7,6.7 -2.3,6.7 -2.9,6.7 -3.5,6.7 -4.0,6.7 -4.6,6.7 -5.1,6.7 -5.7,6.7 -6.2,6.7 -6.7,6.7 -7.2,6.7 -7.7,6.7 -8.1,6.7 -8.6,6.7 -9.0,6.7 -9.4,6.7 -9.8,6.7 -10.1,6.7 -10.5,6.7 -10.8,6.7 -11.1,6.6 -11.4,6.6 -11.7,6.6 -11.9,6.6 -12.2,6.6 -12.5,6.6 -12.7,6.5 -13.0,6.5 -13.2,6.5 -13.4,6.4 -13.6,6.4 -13.8,6.4 -14.0,6.3 -14.2,6.3 -14.4,6.2 -14.6,6.1 -14.7,6.1 -14.8,6.0 -15.0,5.9" fill="#fff" stroke="#fff" stroke-width="0" stroke-linejoin="round" filter="url(#fuzzy_av_1779093954996_61umre51fz4)"/><polyline points="-15.4,5.0 -15.4,4.9 -15.4,4.8 -15.4,4.7 -15.4,4.6 -15.4,4.4 -15.4,4.2 -15.3,4.0 -15.3,3.9 -15.2,3.6 -15.2,3.4 -15.1,3.2 -15.0,3.0 -14.9,2.7 -14.8,2.5 -14.6,2.2 -14.5,2.0 -14.3,1.7 -14.1,1.4 -14.0,1.2 -13.7,0.9 -13.5,0.6 -13.3,0.3 -13.0,0.0 -12.7,-0.2 -12.4,-0.5 -12.2,-0.9 -11.9,-1.2 -11.6,-1.5 -11.3,-1.9 -11.0,-2.2 -10.6,-2.5 -10.2,-2.9 -9.7,-3.2 -9.3,-3.5 -8.8,-3.8 -8.3,-4.1 -7.7,-4.4 -7.2,-4.6 -6.6,-4.9 -6.0,-5.2 -5.4,-5.4 -4.8,-5.6 -4.1,-5.8 -3.5,-6.0 -2.8,-6.1 -2.2,-6.3 -1.5,-6.4 -0.8,-6.5 -0.1,-6.6 0.6,-6.7 1.2,-6.7 1.9,-6.7 2.6,-6.7 3.3,-6.7 3.9,-6.7 4.6,-6.7 5.2,-6.6 5.8,-6.5 6.5,-6.4 7.1,-6.3 7.7,-6.1 8.2,-6.0 8.8,-5.8 9.3,-5.6 9.9,-5.5 10.4,-5.2 10.9,-5.0 11.3,-4.8 11.8,-4.6 12.2,-4.3 12.6,-4.1 13.0,-3.8 13.4,-3.6 13.7,-3.3 14.1,-3.1 14.4,-2.8 14.7,-2.5 15.0,-2.3 15.3,-2.0 15.5,-1.7 15.7,-1.4 16.0,-1.2 16.2,-0.9 16.3,-0.6 16.5,-0.3 16.7,-0.1 16.8,0.2 16.9,0.5 17.0,0.8 17.1,1.0 17.1,1.3 17.2,1.6 17.2,1.8 17.3,2.1 17.3,2.3 17.3,2.6 17.2,2.8 17.2,3.0 17.2,3.3" fill="none" stroke="#111" stroke-width="2.5701915305995264" stroke-linejoin="round" stroke-linecap="round" filter="url(#fuzzy_av_1779093954996_61umre51fz4)"/><polyline points="-15.9,4.9 -15.8,5.0 -15.8,5.2 -15.7,5.3 -15.6,5.4 -15.5,5.5 -15.4,5.6 -15.3,5.7 -15.2,5.8 -15.1,5.9 -15.0,5.9 -14.8,6.0 -14.7,6.1 -14.6,6.1 -14.4,6.2 -14.2,6.3 -14.0,6.3 -13.8,6.4 -13.6,6.4 -13.4,6.4 -13.2,6.5 -13.0,6.5 -12.7,6.5 -12.5,6.6 -12.2,6.6 -11.9,6.6 -11.7,6.6 -11.4,6.6 -11.1,6.6 -10.8,6.7 -10.5,6.7 -10.1,6.7 -9.8,6.7 -9.4,6.7 -9.0,6.7 -8.6,6.7 -8.1,6.7 -7.7,6.7 -7.2,6.7 -6.7,6.7 -6.2,6.7 -5.7,6.7 -5.1,6.7 -4.6,6.7 -4.0,6.7 -3.5,6.7 -2.9,6.7 -2.3,6.7 -1.7,6.7 -1.1,6.7 -0.6,6.7 0.0,6.7 0.7,6.7 1.3,6.6 1.9,6.6 2.5,6.6 3.1,6.6 3.7,6.6 4.3,6.6 4.9,6.6 5.5,6.6 6.1,6.5 6.6,6.5 7.2,6.5 7.8,6.5 8.3,6.5 8.9,6.4 9.4,6.4 9.9,6.4 10.5,6.4 11.0,6.3 11.5,6.3 12.0,6.3 12.4,6.2 12.9,6.2 13.3,6.1 13.8,6.1 14.2,6.1 14.6,6.0 15.0,6.0 15.4,5.9 15.8,5.9 16.2,5.8 16.6,5.7 16.9,5.7 17.3,5.6 17.6,5.6 17.9,5.5 18.3,5.4 18.6,5.4 18.9,5.3 19.1,5.2 19.4,5.1 19.7,5.0 19.9,5.0 20.2,4.9 20.4,4.8 20.6,4.7 20.9,4.6 21.1,4.5" fill="none" stroke="#111" stroke-width="1.9334460437784597" stroke-linejoin="round" stroke-linecap="round" filter="url(#fuzzy_av_1779093954996_61umre51fz4)"/><circle r="3.957426029558901" cx="-3.943195465992991" cy="0.28258950875511357" stroke="#111" fill="none" stroke-width="1.2782841128208497" filter="url(#fuzzy_av_1779093954996_61umre51fz4)" clip-path="url(#rightEye_av_1779093954996_61umre51fz4)"/><circle r="4.4330923842122765" cx="-2.4663296900278797" cy="1.5930923073484995" stroke="#111" fill="none" stroke-width="1.1783517179613976" filter="url(#fuzzy_av_1779093954996_61umre51fz4)" clip-path="url(#rightEye_av_1779093954996_61umre51fz4)"/><circle r="2.6381432144617296" cx="-0.2923298385780462" cy="1.8282917666793357" stroke="#111" fill="none" stroke-width="0.8584047170005726" filter="url(#fuzzy_av_1779093954996_61umre51fz4)" clip-path="url(#rightEye_av_1779093954996_61umre51fz4)"/><circle r="2.747421059324493" cx="-4.111479782512915" cy="-0.06791870237660835" stroke="#111" fill="none" stroke-width="0.8034514156329542" filter="url(#fuzzy_av_1779093954996_61umre51fz4)" clip-path="url(#rightEye_av_1779093954996_61umre51fz4)"/><circle r="3.067825898333239" cx="-4.1074309270578295" cy="-0.7952246010179114" stroke="#111" fill="none" stroke-width="1.191431039260244" filter="url(#fuzzy_av_1779093954996_61umre51fz4)" clip-path="url(#rightEye_av_1779093954996_61umre51fz4)"/><circle r="3.493886267380409" cx="-2.373753035022836" cy="-0.8783368000251781" stroke="#111" fill="none" stroke-width="1.2886083952066727" filter="url(#fuzzy_av_1779093954996_61umre51fz4)" clip-path="url(#rightEye_av_1779093954996_61umre51fz4)"/><circle r="3.9290193560825273" cx="-0.5263489799599115" cy="-0.7044022118506454" stroke="#111" fill="none" stroke-width="0.8342183209018545" filter="url(#fuzzy_av_1779093954996_61umre51fz4)" clip-path="url(#rightEye_av_1779093954996_61umre51fz4)"/><circle r="3.4424431618343925" cx="-1.78950210697325" cy="1.6435037371831798" stroke="#111" fill="none" stroke-width="0.9076484342116786" filter="url(#fuzzy_av_1779093954996_61umre51fz4)" clip-path="url(#rightEye_av_1779093954996_61umre51fz4)"/><circle r="3.496744702005963" cx="-2.499340735534017" cy="2.7417946240740743" stroke="#111" fill="none" stroke-width="1.3578568753613034" filter="url(#fuzzy_av_1779093954996_61umre51fz4)" clip-path="url(#rightEye_av_1779093954996_61umre51fz4)"/><circle r="4.268810017516528" cx="-1.958379046128654" cy="1.9127555759268557" stroke="#111" fill="none" stroke-width="1.1125865572199398" filter="url(#fuzzy_av_1779093954996_61umre51fz4)" clip-path="url(#rightEye_av_1779093954996_61umre51fz4)"/></g><g id="hairs"><polyline points="32.7,-51.4 32.8,-50.8 33.1,-49.9 33.3,-49.2 33.1,-49.2 32.3,-47.7 31.1,-47.1 29.3,-46.7 27.0,-46.6 24.2,-46.4 20.7,-44.3 16.7,-44.6 12.0,-44.0 6.7,-42.8 0.7,-42.6 -5.9,-42.0 -13.1,-41.0 -21.0,-40.4 -29.5,-39.6 -38.4,-38.4 -48.0,-39.6" fill="none" stroke="rgb(120,84,60)" stroke-width="2.095955842509463" stroke-linejoin="round" stroke-linecap="round" filter="url(#fuzzy_av_1779093954996_61umre51fz4)" opacity="0.7546588889320088"/><polyline points="33.6,-49.5 34.7,-48.8 35.5,-48.9 35.8,-47.5 35.5,-48.5 34.7,-47.9 33.6,-47.6 32.0,-47.3 29.9,-46.6 27.2,-45.1 23.9,-46.7 20.0,-45.7 15.4,-45.4 10.1,-46.5 4.2,-46.9 -2.4,-46.3 -9.6,-47.4 -17.5,-48.9 -26.4,-49.8 -36.5,-49.7" fill="none" stroke="rgb(120,84,60)" stroke-width="2.1615554771277514" stroke-linejoin="round" stroke-linecap="round" filter="url(#fuzzy_av_1779093954996_61umre51fz4)" opacity="0.9542210865406958"/><polyline points="-45.6,-41.2 -44.2,-44.2 -42.6,-45.4 -40.8,-45.2 -38.9,-47.2 -37.0,-48.0 -35.0,-50.0 -33.1,-50.4 -31.2,-51.5 -29.6,-52.3 -28.2,-53.2 -27.0,-54.0 -26.1,-53.6 -25.5,-54.7 -25.1,-55.0 -23.5,-55.2" fill="none" stroke="rgb(120,84,60)" stroke-width="2.3836307946891724" stroke-linejoin="round" stroke-linecap="round" filter="url(#fuzzy_av_1779093954996_61umre51fz4)" opacity="0.7822128228171473"/><polyline points="-56.7,-18.4 -55.9,-19.7 -54.4,-22.2 -52.4,-24.9 -49.7,-26.9 -46.4,-27.8 -42.6,-28.7 -38.3,-30.4 -33.4,-32.4 -28.0,-36.0 -22.1,-36.2 -15.8,-38.7 -9.2,-41.4 -2.3,-43.5 4.8,-45.5 12.1,-48.5 19.7,-50.3 27.1,-53.7" fill="none" stroke="rgb(120,84,60)" stroke-width="0.7640314564141724" stroke-linejoin="round" stroke-linecap="round" filter="url(#fuzzy_av_1779093954996_61umre51fz4)" opacity="0.8318796737670658"/><polyline points="-53.6,-29.4 -53.5,-28.9 -52.9,-30.7 -52.1,-32.4 -51.5,-33.4 -50.8,-34.1 -50.1,-34.7 -49.5,-35.6 -48.9,-37.5 -48.4,-37.3 -48.2,-38.6 -48.2,-37.9 -48.4,-38.7 -48.9,-38.2 -49.7,-36.1 -50.7,-34.1 -52.2,-31.2" fill="none" stroke="rgb(120,84,60)" stroke-width="2.1231671790037003" stroke-linejoin="round" stroke-linecap="round" filter="url(#fuzzy_av_1779093954996_61umre51fz4)" opacity="0.8066977150341076"/><polyline points="-13.4,-57.6 -13.0,-58.9 -12.6,-57.9 -11.8,-58.2 -10.6,-58.7 -9.3,-59.2 -8.0,-58.0 -7.0,-59.6 -6.2,-59.7 -5.7,-59.1 -5.6,-58.9 -5.8,-58.4 -6.3,-58.8 -7.2,-58.9 -8.9,-58.7 -11.4,-58.3 -15.0,-57.8 -20.1,-57.1" fill="none" stroke="rgb(120,84,60)" stroke-width="0.859366274628705" stroke-linejoin="round" stroke-linecap="round" filter="url(#fuzzy_av_1779093954996_61umre51fz4)" opacity="0.849095163834565"/><polyline points="-28.2,-54.6 -25.5,-54.0 -23.8,-55.4 -21.9,-56.2 -19.7,-56.5 -17.3,-55.6 -14.7,-55.3 -11.9,-55.9 -9.1,-56.4 -6.2,-56.4 -3.3,-54.9 -0.5,-55.2 2.3,-56.2 5.1,-55.0 8.0,-55.4 10.8,-55.6 13.6,-54.0 16.1,-53.8 18.4,-53.8 20.4,-53.7 22.3,-55.2 24.2,-54.4 26.5,-52.9" fill="none" stroke="rgb(120,84,60)" stroke-width="1.473256596393351" stroke-linejoin="round" stroke-linecap="round" filter="url(#fuzzy_av_1779093954996_61umre51fz4)" opacity="0.8509562337027793"/><polyline points="-56.9,-6.5 -57.0,-8.1 -57.0,-11.3 -57.0,-10.7 -57.0,-11.8 -56.9,-13.3 -56.8,-13.4 -56.7,-13.9 -56.5,-13.2 -56.3,-12.9 -56.2,-11.7 -56.0,-9.2 -55.7,-7.0 -55.3,-4.5 -54.9,-0.0 -54.7,4.6" fill="none" stroke="rgb(120,84,60)" stroke-width="0.8105311193421777" stroke-linejoin="round" stroke-linecap="round" filter="url(#fuzzy_av_1779093954996_61umre51fz4)" opacity="0.7942834357473609"/><polyline points="-34.4,-51.5 -33.6,-52.0 -33.0,-50.8 -32.3,-52.4 -31.6,-52.9 -30.9,-52.7 -30.2,-52.0 -29.7,-52.1 -29.3,-50.2 -29.1,-51.0 -29.2,-50.1 -29.4,-47.3 -29.8,-46.2 -30.5,-44.6 -31.4,-43.0 -32.5,-41.2 -34.0,-38.1 -35.8,-34.2 -37.9,-32.0 -40.4,-26.8 -43.1,-23.1 -45.9,-18.3 -49.0,-12.4 -52.4,-7.4 -56.0,-1.6" fill="none" stroke="rgb(120,84,60)" stroke-width="2.3385591679378184" stroke-linejoin="round" stroke-linecap="round" filter="url(#fuzzy_av_1779093954996_61umre51fz4)" opacity="0.8317145636568585"/><polyline points="-57.1,-12.1 -57.0,-13.1 -56.9,-15.3 -56.8,-16.3 -56.7,-15.5 -56.6,-16.1 -56.5,-17.5 -56.3,-18.6 -56.2,-18.5 -56.0,-19.6 -55.8,-18.4 -55.6,-18.5 -55.5,-17.0 -55.3,-15.4 -55.2,-14.2 -55.1,-10.9 -55.1,-9.1 -55.0,-5.6 -54.9,-0.9 -54.7,4.9" fill="none" stroke="rgb(120,84,60)" stroke-width="1.6833002822796805" stroke-linejoin="round" stroke-linecap="round" filter="url(#fuzzy_av_1779093954996_61umre51fz4)" opacity="0.9547967425709281"/><polyline points="-47.7,-40.1 -46.9,-40.3 -45.4,-40.6 -43.4,-41.8 -40.9,-43.9 -37.9,-44.9 -34.5,-44.5 -30.6,-46.2 -26.5,-48.1 -22.2,-48.1 -17.7,-50.9 -13.2,-51.4 -8.7,-52.3 -4.3,-53.2 0.1,-55.5 4.6,-55.9 9.3,-57.5 14.5,-56.4" fill="none" stroke="rgb(120,84,60)" stroke-width="2.027805408299158" stroke-linejoin="round" stroke-linecap="round" filter="url(#fuzzy_av_1779093954996_61umre51fz4)" opacity="0.7837875954927536"/><polyline points="-56.9,-13.0 -56.8,-14.9 -56.6,-15.0 -56.3,-16.8 -55.9,-18.0 -55.5,-19.1 -55.0,-22.1 -54.5,-24.0 -54.0,-26.1 -53.4,-27.4 -52.8,-27.7 -52.3,-29.5 -51.8,-32.1 -51.3,-33.2 -50.9,-33.7 -50.6,-33.9 -50.3,-35.0 -50.3,-36.0 -50.5,-35.2 -50.8,-35.0 -51.4,-32.9 -52.2,-32.8" fill="none" stroke="rgb(120,84,60)" stroke-width="1.3280362041604077" stroke-linejoin="round" stroke-linecap="round" filter="url(#fuzzy_av_1779093954996_61umre51fz4)" opacity="0.7696194249380001"/><polyline points="-49.7,-36.0 -48.9,-38.3 -48.0,-37.5 -47.2,-38.8 -46.4,-39.6 -45.4,-40.4 -44.4,-41.9 -43.3,-43.2 -42.1,-45.3 -41.0,-45.0 -39.9,-45.5 -38.9,-48.2 -38.1,-48.0 -37.5,-49.3 -37.2,-48.5 -37.1,-48.5 -37.5,-48.0 -38.7,-47.8 -41.0,-46.4" fill="none" stroke="rgb(120,84,60)" stroke-width="1.0831972937136187" stroke-linejoin="round" stroke-linecap="round" filter="url(#fuzzy_av_1779093954996_61umre51fz4)" opacity="0.8785969674024207"/><polyline points="6.2,-58.0 6.2,-59.0 7.4,-58.3 8.7,-58.6 9.6,-57.9 10.1,-58.0 10.1,-57.4 9.8,-58.1 9.1,-57.7 8.2,-56.2 7.0,-57.5 5.5,-55.8 3.6,-55.2 1.1,-55.1 -2.0,-55.6 -5.7,-54.2 -10.2,-54.0 -15.3,-52.8 -20.9,-52.4 -26.9,-51.1 -33.4,-51.1" fill="none" stroke="rgb(120,84,60)" stroke-width="1.3240289219316477" stroke-linejoin="round" stroke-linecap="round" filter="url(#fuzzy_av_1779093954996_61umre51fz4)" opacity="0.7785692537178004"/><polyline points="-51.1,-33.3 -50.6,-34.6 -49.5,-36.5 -48.2,-37.0 -46.9,-39.4 -45.5,-39.2 -44.1,-41.5 -42.5,-42.8 -40.8,-44.6 -39.0,-44.1 -37.3,-46.7 -35.5,-47.1 -33.9,-48.7 -32.3,-50.4 -30.9,-52.0 -29.7,-51.9 -28.8,-52.9 -28.2,-53.9 -27.9,-53.0 -27.3,-54.9" fill="none" stroke="rgb(120,84,60)" stroke-width="2.142595252747339" stroke-linejoin="round" stroke-linecap="round" filter="url(#fuzzy_av_1779093954996_61umre51fz4)" opacity="0.7907135840310806"/><polyline points="4.7,-59.3 7.4,-58.1 9.3,-58.9 10.7,-57.3 11.6,-57.5 12.1,-57.9 12.4,-58.1 12.5,-58.4 12.3,-57.9 11.9,-57.2 11.3,-57.3 10.2,-57.1 8.6,-57.4 6.4,-56.9 3.5,-57.4 -0.1,-58.0 -4.3,-57.1 -8.7,-58.1 -12.4,-59.4" fill="none" stroke="rgb(120,84,60)" stroke-width="0.7776348593307504" stroke-linejoin="round" stroke-linecap="round" filter="url(#fuzzy_av_1779093954996_61umre51fz4)" opacity="0.8009312082411679"/><polyline points="-51.8,-32.2 -51.4,-32.5 -49.8,-34.3 -47.4,-35.4 -44.2,-37.5 -40.3,-38.8 -36.0,-39.0 -31.3,-40.8 -26.1,-42.1 -20.4,-44.0 -14.3,-46.2 -7.7,-47.3 -0.8,-50.8 6.4,-51.4 13.9,-53.0 21.8,-55.8" fill="none" stroke="rgb(120,84,60)" stroke-width="1.7433979035819593" stroke-linejoin="round" stroke-linecap="round" filter="url(#fuzzy_av_1779093954996_61umre51fz4)" opacity="0.9414623350729057"/><polyline points="6.2,-58.8 6.3,-58.4 7.8,-58.9 9.5,-58.1 10.9,-58.3 12.1,-57.1 13.1,-57.9 14.0,-57.7 14.8,-57.3 15.6,-57.8 16.4,-57.6 17.1,-57.4 17.7,-56.3 18.1,-56.3 18.1,-56.1 17.7,-57.0 17.0,-55.4 15.8,-56.9 14.3,-55.6 12.4,-56.0 10.1,-56.3 7.5,-56.3 4.5,-57.9 1.0,-57.2 -3.4,-58.9 -8.6,-58.4" fill="none" stroke="rgb(120,84,60)" stroke-width="1.2216439549715123" stroke-linejoin="round" stroke-linecap="round" filter="url(#fuzzy_av_1779093954996_61umre51fz4)" opacity="0.9800402109151893"/><polyline points="-54.2,-28.1 -52.7,-31.2 -50.9,-32.2 -48.5,-33.6 -45.5,-33.4 -41.7,-35.4 -37.3,-37.0 -32.2,-38.1 -26.7,-39.5 -20.7,-41.9 -14.3,-42.3 -7.5,-43.3 -0.3,-44.7 7.3,-45.8 15.2,-47.2 23.5,-50.1 32.7,-50.1" fill="none" stroke="rgb(120,84,60)" stroke-width="2.225100050673628" stroke-linejoin="round" stroke-linecap="round" filter="url(#fuzzy_av_1779093954996_61umre51fz4)" opacity="0.8135156567637838"/><polyline points="24.7,-54.7 25.7,-54.0 26.0,-53.6 26.2,-52.6 26.4,-51.9 26.3,-51.9 25.8,-51.9 25.0,-50.5 23.7,-49.7 22.0,-48.5 19.7,-48.9 16.9,-47.9 13.5,-46.4 9.6,-45.2 5.2,-45.2 0.3,-44.0 -5.1,-41.6 -11.1,-41.7 -17.6,-39.7 -24.6,-38.9 -32.3,-38.0 -40.6,-37.1 -49.7,-36.2" fill="none" stroke="rgb(120,84,60)" stroke-width="1.0068480178072614" stroke-linejoin="round" stroke-linecap="round" filter="url(#fuzzy_av_1779093954996_61umre51fz4)" opacity="0.7910001996656336"/><polyline points="-41.0,-46.5 -39.0,-47.2 -37.7,-49.6 -36.9,-48.3 -36.3,-48.8 -35.9,-49.8 -35.5,-49.0 -35.3,-49.3 -35.3,-48.4 -35.3,-47.2 -35.4,-45.2 -35.7,-45.0 -36.2,-43.9 -36.9,-41.6 -37.9,-38.6 -39.2,-36.3 -40.8,-34.0 -42.6,-29.2 -44.8,-25.3 -47.2,-21.0 -50.0,-15.4 -53.2,-11.5 -56.9,-6.0" fill="none" stroke="rgb(120,84,60)" stroke-width="2.066920737187883" stroke-linejoin="round" stroke-linecap="round" filter="url(#fuzzy_av_1779093954996_61umre51fz4)" opacity="0.8806928570141119"/><polyline points="-21.0,-56.2 -19.4,-57.5 -17.1,-57.1 -14.6,-57.2 -12.1,-56.8 -9.7,-57.0 -7.2,-56.2 -4.5,-56.9 -1.5,-56.6 1.7,-56.0 5.0,-55.4 8.4,-56.1 11.6,-55.0 14.7,-53.9 17.6,-54.5 20.1,-54.4 22.4,-54.0 24.4,-54.5 25.8,-53.1" fill="none" stroke="rgb(120,84,60)" stroke-width="1.2547133353486886" stroke-linejoin="round" stroke-linecap="round" filter="url(#fuzzy_av_1779093954996_61umre51fz4)" opacity="0.9073791494415366"/><polyline points="-46.8,-39.3 -45.4,-42.1 -44.4,-43.2 -43.0,-42.8 -41.2,-45.4 -39.2,-46.5 -37.1,-47.1 -34.9,-48.4 -32.7,-49.2 -30.4,-51.0 -28.2,-51.3 -26.1,-51.9 -24.0,-52.8 -22.0,-53.1 -20.2,-54.2 -18.4,-56.0 -16.8,-56.8 -15.3,-57.4 -14.1,-56.4 -13.1,-57.3 -12.5,-58.4 -12.3,-58.3 -12.4,-59.1" fill="none" stroke="rgb(120,84,60)" stroke-width="1.4942123784631054" stroke-linejoin="round" stroke-linecap="round" filter="url(#fuzzy_av_1779093954996_61umre51fz4)" opacity="0.882450348494155"/><polyline points="23.4,-55.3 24.3,-54.0 24.3,-53.1 23.5,-52.5 22.1,-49.9 20.1,-48.3 17.4,-45.8 14.1,-42.8 10.0,-39.0 5.0,-33.9 -0.8,-28.8 -7.4,-24.6 -14.9,-20.1 -23.3,-12.9 -32.6,-7.8 -42.8,0.4 -53.5,7.8" fill="none" stroke="rgb(120,84,60)" stroke-width="1.1114735875755137" stroke-linejoin="round" stroke-linecap="round" filter="url(#fuzzy_av_1779093954996_61umre51fz4)" opacity="0.976339714073324"/><polyline points="23.4,-55.4 24.5,-53.9 25.2,-54.0 25.4,-54.0 25.5,-53.0 25.3,-52.2 24.9,-51.5 24.2,-51.0 23.0,-50.6 21.4,-50.4 19.3,-49.8 16.6,-49.4 13.5,-49.2 9.7,-49.3 5.4,-48.8 0.5,-46.8 -5.1,-46.8 -11.2,-46.4 -18.0,-47.1 -25.5,-45.7 -33.8,-44.7 -43.6,-44.2" fill="none" stroke="rgb(120,84,60)" stroke-width="0.7190456512621707" stroke-linejoin="round" stroke-linecap="round" filter="url(#fuzzy_av_1779093954996_61umre51fz4)" opacity="0.9495119557133096"/><polyline points="14.8,-57.8 15.4,-57.3 16.6,-56.0 17.8,-55.8 18.8,-55.7 19.3,-56.0 19.4,-55.5 18.9,-54.2 17.9,-54.7 16.5,-55.5 14.6,-55.4 12.3,-54.2 9.5,-55.8 6.0,-54.4 1.7,-54.4 -3.3,-54.4 -9.0,-54.6 -15.2,-55.5 -23.0,-55.7" fill="none" stroke="rgb(120,84,60)" stroke-width="1.6707221975799182" stroke-linejoin="round" stroke-linecap="round" filter="url(#fuzzy_av_1779093954996_61umre51fz4)" opacity="0.951314272636611"/><polyline points="-53.9,-27.9 -53.7,-29.3 -53.4,-28.6 -52.9,-30.8 -52.4,-31.3 -51.9,-31.7 -51.4,-34.0 -51.0,-33.7 -50.7,-34.0 -50.5,-35.0 -50.5,-34.2 -50.6,-34.8 -51.0,-32.9 -51.6,-32.1 -52.4,-28.9 -53.3,-28.2 -54.6,-24.9 -56.0,-20.5" fill="none" stroke="rgb(120,84,60)" stroke-width="1.1595774691164893" stroke-linejoin="round" stroke-linecap="round" filter="url(#fuzzy_av_1779093954996_61umre51fz4)" opacity="0.8843631029714152"/><polyline points="-44.1,-42.8 -43.0,-45.4 -41.5,-45.7 -40.1,-45.7 -38.7,-46.9 -37.3,-48.4 -35.8,-49.1 -34.4,-49.4 -32.9,-50.7 -31.5,-51.8 -30.2,-52.1 -28.9,-52.6 -27.7,-52.8 -26.6,-54.4 -25.7,-54.2 -24.9,-54.7 -24.3,-55.8 -24.0,-56.0 -24.0,-55.9 -24.3,-55.9 -25.0,-55.1 -26.1,-54.9 -27.7,-53.6 -30.3,-52.6" fill="none" stroke="rgb(120,84,60)" stroke-width="1.8168369483055475" stroke-linejoin="round" stroke-linecap="round" filter="url(#fuzzy_av_1779093954996_61umre51fz4)" opacity="0.7614076921631793"/><polyline points="-49.7,-36.4 -48.9,-37.2 -48.4,-38.8 -48.0,-39.5 -47.7,-39.8 -47.3,-39.8 -47.0,-40.5 -46.6,-39.8 -46.1,-40.3 -45.7,-40.3 -45.4,-40.3 -45.0,-39.2 -44.8,-38.4 -44.7,-37.6 -44.7,-35.0 -44.9,-34.2 -45.2,-32.2 -45.7,-29.0 -46.3,-26.0 -47.1,-22.9 -48.0,-19.0 -49.1,-17.1 -50.4,-12.5 -51.7,-7.4 -53.2,-3.2 -54.7,4.5" fill="none" stroke="rgb(120,84,60)" stroke-width="1.3760860897457383" stroke-linejoin="round" stroke-linecap="round" filter="url(#fuzzy_av_1779093954996_61umre51fz4)" opacity="0.9297093404763707"/><polyline points="-44.6,-42.3 -44.7,-42.5 -43.7,-44.4 -42.2,-45.4 -40.4,-46.0 -38.6,-46.0 -36.8,-47.8 -35.0,-49.2 -33.3,-49.8 -31.5,-50.2 -29.8,-52.1 -28.2,-52.5 -26.7,-53.4 -25.2,-54.1 -24.0,-55.3 -23.0,-55.1 -22.4,-55.8 -22.0,-56.2 -21.8,-56.0 -21.8,-55.5 -23.0,-55.6" fill="none" stroke="rgb(120,84,60)" stroke-width="0.7772127046995148" stroke-linejoin="round" stroke-linecap="round" filter="url(#fuzzy_av_1779093954996_61umre51fz4)" opacity="0.9343012542087801"/><polyline points="40.7,-44.8 41.6,-44.6 41.3,-43.6 40.1,-41.2 38.0,-40.1 35.0,-39.6 31.3,-37.5 26.6,-35.3 21.1,-33.5 14.6,-30.5 7.2,-28.8 -1.1,-26.2 -10.4,-22.8 -20.5,-20.5 -31.7,-17.3 -43.8,-12.9 -57.1,-8.2" fill="none" stroke="rgb(120,84,60)" stroke-width="2.0009799755181117" stroke-linejoin="round" stroke-linecap="round" filter="url(#fuzzy_av_1779093954996_61umre51fz4)" opacity="0.800453272619171"/><polyline points="34.9,-50.3 35.8,-47.9 35.6,-46.5 34.2,-45.3 32.0,-44.7 28.9,-43.0 25.0,-41.1 20.0,-38.4 14.1,-34.7 7.1,-32.3 -1.0,-29.2 -10.1,-25.0 -20.2,-20.7 -31.3,-15.2 -43.5,-10.1 -56.9,-6.0" fill="none" stroke="rgb(120,84,60)" stroke-width="2.178923219249678" stroke-linejoin="round" stroke-linecap="round" filter="url(#fuzzy_av_1779093954996_61umre51fz4)" opacity="0.8763862505712023"/><polyline points="24.7,-53.4 25.8,-53.9 26.6,-52.8 27.6,-54.0 28.8,-53.1 30.1,-52.2 31.4,-51.6 32.6,-50.4 33.7,-49.1 34.6,-49.6 35.4,-47.8 35.9,-48.7 36.2,-47.6 36.2,-48.5 36.1,-48.2 35.7,-48.2 35.1,-47.4 34.2,-47.9 33.0,-48.5 31.5,-49.4 29.7,-51.0 27.3,-52.0 24.4,-53.6 20.9,-55.1 17.4,-57.3" fill="none" stroke="rgb(120,84,60)" stroke-width="1.5216569402238516" stroke-linejoin="round" stroke-linecap="round" filter="url(#fuzzy_av_1779093954996_61umre51fz4)" opacity="0.9176040313814176"/><polyline points="-56.8,-15.4 -56.6,-17.6 -56.3,-17.2 -56.0,-18.9 -55.5,-20.6 -55.0,-23.0 -54.4,-24.2 -53.7,-26.8 -53.0,-28.3 -52.3,-29.1 -51.6,-30.5 -51.0,-32.5 -50.5,-33.4 -50.0,-34.6 -49.6,-35.7 -49.2,-36.0 -48.9,-36.8 -48.6,-38.4 -48.4,-37.7 -48.4,-38.0 -48.4,-37.8 -48.9,-36.8 -49.7,-37.2" fill="none" stroke="rgb(120,84,60)" stroke-width="1.5050846987059265" stroke-linejoin="round" stroke-linecap="round" filter="url(#fuzzy_av_1779093954996_61umre51fz4)" opacity="0.782395533403845"/><polyline points="12.6,-57.0 13.9,-57.8 14.7,-56.5 15.6,-57.0 16.6,-55.9 17.7,-56.7 18.6,-55.4 19.2,-56.2 19.2,-56.0 18.6,-55.6 17.4,-56.7 15.6,-55.6 13.3,-56.1 10.2,-57.8 6.3,-56.8 1.5,-57.4 -4.1,-59.0" fill="none" stroke="rgb(120,84,60)" stroke-width="0.9544294046496649" stroke-linejoin="round" stroke-linecap="round" filter="url(#fuzzy_av_1779093954996_61umre51fz4)" opacity="0.9100334313736026"/><polyline points="-54.9,-24.7 -54.7,-26.1 -54.2,-26.4 -53.5,-29.0 -52.7,-29.5 -51.8,-30.4 -50.8,-32.8 -49.6,-34.9 -48.5,-35.5 -47.4,-37.5 -46.3,-38.2 -45.3,-40.9 -44.4,-42.7 -43.7,-41.9 -43.2,-44.4 -42.9,-44.6 -43.0,-45.0 -43.5,-43.1 -44.1,-43.1" fill="none" stroke="rgb(120,84,60)" stroke-width="1.0375395800939173" stroke-linejoin="round" stroke-linecap="round" filter="url(#fuzzy_av_1779093954996_61umre51fz4)" opacity="0.8268259240397305"/><polyline points="-56.8,-15.5 -56.5,-18.4 -56.2,-18.1 -55.8,-20.9 -55.3,-21.4 -54.6,-23.6 -53.9,-25.8 -53.1,-26.7 -52.3,-28.9 -51.5,-31.1 -50.6,-31.5 -49.8,-34.1 -48.9,-34.7 -48.1,-36.7 -47.3,-37.2 -46.6,-37.9 -46.0,-40.7 -45.5,-39.7 -45.1,-41.6 -45.0,-42.7 -45.0,-42.9 -45.2,-41.8 -45.5,-41.2 -45.9,-41.5 -46.4,-40.0 -47.3,-40.7" fill="none" stroke="rgb(120,84,60)" stroke-width="0.877335171051232" stroke-linejoin="round" stroke-linecap="round" filter="url(#fuzzy_av_1779093954996_61umre51fz4)" opacity="0.8307962917271781"/><polyline points="32.6,-49.7 33.7,-50.5 34.9,-49.7 36.0,-49.0 37.0,-48.7 37.7,-47.8 38.4,-45.9 38.9,-46.3 39.2,-44.9 39.4,-45.9 39.4,-45.3 39.1,-45.7 38.6,-44.9 37.8,-46.1 36.7,-46.7 35.3,-46.5 33.4,-47.1 31.1,-49.6 28.2,-49.6 25.0,-50.9 21.5,-53.4 18.0,-55.2 14.5,-58.1" fill="none" stroke="rgb(120,84,60)" stroke-width="1.6721456138305169" stroke-linejoin="round" stroke-linecap="round" filter="url(#fuzzy_av_1779093954996_61umre51fz4)" opacity="0.7670002969359568"/><polyline points="34.9,-49.4 36.1,-48.2 36.7,-46.8 36.8,-46.6 36.7,-46.4 36.2,-46.1 35.5,-44.3 34.4,-43.3 32.9,-42.3 31.0,-41.4 28.6,-40.2 25.9,-39.9 22.8,-37.1 19.2,-37.3 15.3,-34.9 10.9,-34.5 6.0,-33.2 0.8,-31.4 -4.9,-28.0 -10.9,-26.9 -17.5,-24.2 -24.5,-23.6 -31.9,-20.5 -39.8,-18.5 -48.1,-18.0 -56.8,-16.9" fill="none" stroke="rgb(120,84,60)" stroke-width="1.5177795213844085" stroke-linejoin="round" stroke-linecap="round" filter="url(#fuzzy_av_1779093954996_61umre51fz4)" opacity="0.8767270519692578"/><polyline points="-36.5,-49.0 -34.8,-49.9 -33.3,-50.3 -31.8,-52.4 -30.0,-52.8 -28.0,-53.5 -25.7,-53.2 -23.2,-53.3 -20.6,-53.9 -18.0,-54.0 -15.3,-54.9 -12.8,-54.8 -10.3,-56.9 -7.8,-55.7 -5.4,-56.1 -3.0,-57.7 -0.7,-57.2 1.4,-56.9 3.2,-57.8 4.6,-58.5 5.5,-57.7 5.7,-58.3 4.7,-58.5" fill="none" stroke="rgb(120,84,60)" stroke-width="1.791059086598288" stroke-linejoin="round" stroke-linecap="round" filter="url(#fuzzy_av_1779093954996_61umre51fz4)" opacity="0.7545016305716108"/><polyline points="-49.7,-36.1 -48.8,-37.6 -47.7,-38.7 -46.4,-39.0 -45.0,-41.3 -43.3,-41.8 -41.3,-42.6 -39.1,-43.4 -36.7,-45.3 -34.2,-47.2 -31.7,-47.7 -29.1,-49.8 -26.7,-51.3 -24.4,-52.2 -22.2,-55.2 -20.1,-55.4 -17.9,-56.9 -15.6,-56.5 -13.4,-59.1" fill="none" stroke="rgb(120,84,60)" stroke-width="0.9937171576586228" stroke-linejoin="round" stroke-linecap="round" filter="url(#fuzzy_av_1779093954996_61umre51fz4)" opacity="0.8578871665501533"/><polyline points="42.5,-43.7 43.0,-43.5 43.6,-41.9 44.2,-42.4 44.8,-42.0 45.3,-40.3 45.7,-39.2 46.0,-38.8 46.1,-40.0 46.0,-39.2 45.8,-39.0 45.5,-37.8 44.9,-37.7 44.1,-38.0 43.0,-38.6 41.6,-40.1 40.0,-41.1 37.9,-42.1 35.5,-43.3 32.7,-44.1 29.4,-46.6 25.8,-48.5 22.0,-52.0 18.2,-55.4 14.5,-57.4" fill="none" stroke="rgb(120,84,60)" stroke-width="1.291402078106756" stroke-linejoin="round" stroke-linecap="round" filter="url(#fuzzy_av_1779093954996_61umre51fz4)" opacity="0.8636857050610804"/><polyline points="14.8,-56.5 16.7,-55.9 18.4,-56.9 19.9,-56.7 21.0,-54.9 21.7,-55.5 21.9,-55.3 21.7,-54.8 20.9,-55.5 19.7,-56.0 18.0,-56.1 15.8,-55.6 12.9,-56.4 9.4,-55.8 5.1,-57.3 0.1,-58.7 -6.7,-58.1" fill="none" stroke="rgb(120,84,60)" stroke-width="2.3929879852430664" stroke-linejoin="round" stroke-linecap="round" filter="url(#fuzzy_av_1779093954996_61umre51fz4)" opacity="0.7696078703378698"/><polyline points="32.6,-50.6 33.5,-50.0 34.4,-49.6 35.0,-48.7 35.2,-47.7 34.9,-48.9 34.1,-48.2 32.8,-47.7 30.9,-48.5 28.5,-49.2 25.3,-49.4 21.4,-52.2 16.5,-53.0 10.6,-54.3 3.6,-57.4 -4.1,-59.2" fill="none" stroke="rgb(120,84,60)" stroke-width="1.5814146487884606" stroke-linejoin="round" stroke-linecap="round" filter="url(#fuzzy_av_1779093954996_61umre51fz4)" opacity="0.9995657191345823"/><polyline points="56.3,-18.4 56.6,-15.8 57.0,-14.4 57.3,-11.2 57.6,-9.2 58.0,-6.9 58.4,-4.7 58.8,-1.6 58.9,-1.6 58.6,1.1 58.1,2.8 57.4,4.7 56.8,6.9 56.3,8.9 55.8,11.6 55.4,13.9 54.8,15.2 54.1,17.7 53.1,18.7 52.0,20.6 50.6,22.6 49.0,25.1 47.3,27.4 45.4,29.5 43.4,30.9 41.4,32.1 39.4,33.6 37.5,35.6 35.5,36.0 33.6,37.0 31.7,37.9 29.5,40.4 27.1,41.2 24.5,42.4 21.9,41.5" fill="none" stroke="rgb(120,84,60)" stroke-width="2.2591101905643924" stroke-linejoin="round" stroke-linecap="round" filter="url(#fuzzy_av_1779093954996_61umre51fz4)" opacity="0.7775832422513718"/><polyline points="56.3,-18.0 56.6,-16.6 57.0,-14.3 57.7,-11.0 58.8,-8.4 59.9,-7.0 60.4,-4.1 60.4,-2.3 60.0,0.1 59.5,1.1 59.3,3.8 59.4,5.6 59.7,7.1 59.9,9.1 59.9,11.3 59.4,13.6 58.7,15.0 57.8,16.2 56.8,19.6 55.7,20.6 54.3,22.5 52.6,24.9 50.8,27.9 49.2,29.5 48.2,31.0" fill="none" stroke="rgb(120,84,60)" stroke-width="1.938413437582865" stroke-linejoin="round" stroke-linecap="round" filter="url(#fuzzy_av_1779093954996_61umre51fz4)" opacity="0.8386184862488576"/><polyline points="55.2,-23.9 57.8,-20.8 59.7,-18.8 60.5,-16.6 60.9,-15.7 61.3,-13.1 61.9,-10.5 62.7,-8.7 63.5,-7.1 64.3,-4.5 64.9,-1.6 65.0,0.6 64.9,2.6 64.7,4.7 64.5,5.7 64.2,7.6 63.9,11.4 63.5,11.9 63.2,14.7 63.0,15.5 62.8,17.3 62.5,19.3 62.0,21.6" fill="none" stroke="rgb(120,84,60)" stroke-width="1.31013610474282" stroke-linejoin="round" stroke-linecap="round" filter="url(#fuzzy_av_1779093954996_61umre51fz4)" opacity="0.9559498308963926"/><polyline points="54.2,-26.5 61.5,-25.8 64.2,-22.3 64.3,-20.6 63.3,-17.3 62.5,-15.6 62.6,-13.4 63.2,-12.3 63.9,-8.6 64.4,-7.0 64.3,-4.5 63.8,-2.1 63.1,-0.5 62.4,2.1 61.8,3.7 61.4,5.1 61.2,7.6 61.1,9.6 61.1,10.2 60.9,12.4 60.6,14.8 60.1,16.3 59.3,18.7 58.2,21.8 56.8,23.8 55.1,24.8 53.4,26.3 51.6,28.5 49.8,30.0 47.9,31.7 46.0,34.1 43.7,34.1 41.2,35.6 38.4,37.4 35.5,37.6 32.7,40.5 29.9,40.0 27.5,41.5" fill="none" stroke="rgb(120,84,60)" stroke-width="1.7822730890654377" stroke-linejoin="round" stroke-linecap="round" filter="url(#fuzzy_av_1779093954996_61umre51fz4)" opacity="0.9261157311093535"/><polyline points="54.1,-26.5 54.7,-25.4 56.5,-23.8 57.9,-20.9 58.5,-19.9 58.8,-17.2 59.1,-16.0 59.4,-12.4 59.8,-10.9 60.2,-9.6 60.5,-6.6 60.7,-5.1 60.7,-2.7 60.6,0.3 60.5,2.1 60.1,4.7 59.6,6.5 58.7,9.1 57.7,11.3 56.5,12.7 55.2,14.3 54.0,15.9 52.7,17.5 51.5,19.5 50.4,22.6 49.3,24.0 48.0,25.4 46.1,27.6" fill="none" stroke="rgb(120,84,60)" stroke-width="2.2235189373926723" stroke-linejoin="round" stroke-linecap="round" filter="url(#fuzzy_av_1779093954996_61umre51fz4)" opacity="0.7739742719974619"/><polyline points="54.1,-27.9 54.5,-25.4 55.4,-22.9 56.4,-21.1 57.3,-19.7 58.2,-16.6 59.0,-14.7 59.8,-13.6 60.7,-11.7 61.5,-9.7 62.3,-7.5 62.9,-4.4 63.3,-1.8 63.6,-0.5 63.7,1.8 63.5,4.7 63.1,6.3 62.4,8.1 61.4,10.9 60.3,12.1 58.9,15.7 57.5,17.6 56.2,19.2 54.9,19.9 53.7,22.3 52.5,24.0 51.3,25.2 50.1,27.9 48.7,29.5 47.2,31.8 45.5,32.0 43.8,33.1 42.0,34.4 40.0,37.2 38.0,37.4 35.8,39.6 33.2,39.9 29.3,41.4" fill="none" stroke="rgb(120,84,60)" stroke-width="0.7525093997727634" stroke-linejoin="round" stroke-linecap="round" filter="url(#fuzzy_av_1779093954996_61umre51fz4)" opacity="0.910185749866761"/><polyline points="51.8,-31.4 52.8,-30.4 54.5,-28.3 56.5,-26.2 58.4,-25.1 60.0,-22.1 61.3,-21.7 62.4,-18.7 63.2,-16.2 63.6,-13.1 63.4,-10.9 62.9,-8.8 62.4,-7.3 61.8,-4.9 61.5,-2.7 61.2,-0.4 61.0,0.3 60.8,1.6 60.5,4.3 60.2,6.6 59.8,9.5 59.5,9.7 59.4,12.8 59.3,13.6 59.2,16.3 58.9,18.6 58.2,20.9 56.5,21.8" fill="none" stroke="rgb(120,84,60)" stroke-width="2.309537016905758" stroke-linejoin="round" stroke-linecap="round" filter="url(#fuzzy_av_1779093954996_61umre51fz4)" opacity="0.8215996143405081"/><polyline points="49.1,-35.9 51.1,-32.3 52.3,-29.7 53.4,-29.6 54.2,-27.3 55.0,-24.7 55.6,-22.0 56.1,-21.5 56.5,-18.1 56.8,-16.2 57.0,-14.7 57.2,-12.8 57.3,-9.4 57.2,-8.3 57.1,-4.4 56.9,-2.7 56.6,-1.1 56.2,-0.3 55.8,3.1 55.3,4.7 54.8,6.9 54.1,8.3 53.3,10.4 52.3,12.4 51.2,14.4 50.1,17.5 49.0,18.8 47.8,20.5 46.3,22.5" fill="none" stroke="rgb(120,84,60)" stroke-width="1.075364289938386" stroke-linejoin="round" stroke-linecap="round" filter="url(#fuzzy_av_1779093954996_61umre51fz4)" opacity="0.9510078167328766"/><polyline points="48.1,-36.5 49.7,-35.2 51.2,-32.4 52.6,-30.6 53.7,-27.6 54.7,-26.1 55.5,-23.9 56.2,-22.6 56.8,-19.9 57.3,-17.5 57.7,-15.7 58.0,-12.5 58.1,-11.6 58.2,-8.6 58.1,-7.3 58.0,-4.5 57.8,-2.0 57.6,-0.8 57.3,1.6 57.1,4.3 56.8,6.2 56.4,7.8 55.8,10.5 55.1,12.8 54.2,15.0 53.1,16.2 51.8,19.0 50.4,21.3 48.8,22.9 47.2,24.0 45.6,25.9 44.0,27.7 42.3,29.4 40.5,30.5 38.6,33.0 36.5,33.5 34.4,35.7 32.5,36.4" fill="none" stroke="rgb(120,84,60)" stroke-width="0.9033701729280923" stroke-linejoin="round" stroke-linecap="round" filter="url(#fuzzy_av_1779093954996_61umre51fz4)" opacity="0.8442324953572998"/><polyline points="47.9,-36.7 48.9,-36.6 50.9,-35.8 53.3,-32.5 55.8,-30.1 58.1,-27.6 60.0,-25.8 61.6,-23.3 62.9,-21.9 63.9,-18.9 64.7,-18.6 65.2,-15.8 65.5,-13.7 65.8,-11.3 66.1,-9.7 66.4,-8.1 66.5,-6.0 66.5,-1.9 66.3,-0.2 66.1,2.4 66.0,5.0 65.9,6.4 65.8,8.0 65.7,9.5 65.4,13.1 65.2,14.6 65.3,16.8 65.3,17.5" fill="none" stroke="rgb(120,84,60)" stroke-width="1.6098066739641474" stroke-linejoin="round" stroke-linecap="round" filter="url(#fuzzy_av_1779093954996_61umre51fz4)" opacity="0.8789693010899975"/><polyline points="47.9,-37.7 46.6,-37.2 44.1,-34.6 43.3,-33.8 43.9,-30.2 45.0,-28.7 45.9,-25.4 46.5,-23.4 46.4,-21.4 45.8,-19.8 44.7,-17.1 43.4,-14.8 42.0,-13.8 41.0,-11.3 40.4,-10.4 40.2,-7.3 40.1,-5.7 39.7,-1.8 38.8,-1.1 37.0,1.1 34.6,4.8 31.6,5.9 28.6,7.7 26.2,10.5 24.8,13.0 23.9,15.2 22.6,16.1 20.0,16.4" fill="none" stroke="rgb(120,84,60)" stroke-width="1.4654046169494501" stroke-linejoin="round" stroke-linecap="round" filter="url(#fuzzy_av_1779093954996_61umre51fz4)" opacity="0.7920085683147262"/><polyline points="47.9,-37.2 48.7,-36.9 50.3,-34.3 52.5,-33.4 55.0,-31.1 57.3,-28.9 59.3,-26.2 60.9,-25.0 62.3,-22.4 63.2,-20.3 63.7,-18.3 63.8,-15.2 63.7,-14.4 63.8,-12.1 64.3,-9.6 65.3,-8.2 66.6,-5.0 68.0,-2.8 69.4,-0.0 70.5,1.8 71.2,4.7 71.3,5.5 70.8,8.2 69.6,10.0 68.0,12.6 66.3,14.7" fill="none" stroke="rgb(120,84,60)" stroke-width="1.8267078813152233" stroke-linejoin="round" stroke-linecap="round" filter="url(#fuzzy_av_1779093954996_61umre51fz4)" opacity="0.7561310305684578"/><polyline points="38.4,-47.0 40.5,-44.9 42.6,-44.5 44.6,-42.1 46.4,-40.1 48.3,-38.5 50.4,-37.7 52.6,-35.9 54.8,-33.3 56.6,-31.5 57.9,-28.9 59.1,-26.8 60.1,-25.7 61.4,-22.8 63.0,-20.9 64.9,-19.8 66.9,-18.1 68.6,-15.7 70.0,-13.6 70.8,-9.6 71.2,-8.5 71.5,-6.1 72.1,-3.6 72.4,-2.2" fill="none" stroke="rgb(120,84,60)" stroke-width="0.907680548777358" stroke-linejoin="round" stroke-linecap="round" filter="url(#fuzzy_av_1779093954996_61umre51fz4)" opacity="0.865112171479971"/><polyline points="37.7,-46.5 38.9,-45.6 40.6,-44.9 42.3,-43.5 44.0,-42.0 45.7,-41.0 47.3,-39.2 49.0,-37.8 50.6,-34.0 52.1,-32.0 53.5,-30.0 54.7,-29.1 55.8,-26.3 56.7,-23.9 57.5,-22.7 58.1,-19.4 58.6,-18.0 59.0,-16.3 59.3,-13.8 59.5,-12.5 59.7,-9.7 59.8,-7.8 59.8,-5.5 59.6,-2.5 59.4,0.1 59.0,1.2 58.5,3.3 58.0,6.3 57.4,7.7 56.7,10.0 55.8,12.3 54.9,15.1 54.3,15.9" fill="none" stroke="rgb(120,84,60)" stroke-width="2.0970367966925663" stroke-linejoin="round" stroke-linecap="round" filter="url(#fuzzy_av_1779093954996_61umre51fz4)" opacity="0.8805711990361259"/><polyline points="36.5,-47.8 36.8,-47.6 37.8,-45.4 38.8,-43.2 39.7,-42.5 40.6,-41.1 41.7,-39.3 42.8,-37.7 43.7,-35.6 44.3,-33.9 44.4,-32.1 43.8,-30.6 42.8,-28.4 41.6,-26.0 40.6,-24.1 39.9,-20.6 39.3,-18.7 38.6,-18.2 37.7,-14.4 36.2,-12.5 34.4,-11.0 32.5,-8.8 30.6,-5.6 28.3,-2.9 25.4,-2.3 24.0,-1.9" fill="none" stroke="rgb(120,84,60)" stroke-width="1.0643620528070947" stroke-linejoin="round" stroke-linecap="round" filter="url(#fuzzy_av_1779093954996_61umre51fz4)" opacity="0.807259818673292"/><polyline points="34.9,-49.0 37.1,-48.6 39.3,-47.5 41.8,-46.0 44.3,-44.1 46.4,-42.9 48.3,-41.1 50.1,-38.4 52.1,-36.7 54.3,-34.8 56.4,-33.7 58.4,-30.9 60.1,-28.4 61.5,-27.4 62.6,-24.1 63.5,-21.8 64.3,-19.8 65.2,-17.3 66.2,-16.6 67.2,-13.9 68.3,-11.6 69.1,-9.4 69.7,-8.5 70.0,-4.8 69.9,-3.4 69.7,-1.6 69.6,2.1 70.0,3.6" fill="none" stroke="rgb(120,84,60)" stroke-width="1.0475580456975546" stroke-linejoin="round" stroke-linecap="round" filter="url(#fuzzy_av_1779093954996_61umre51fz4)" opacity="0.8848424376952487"/><polyline points="32.6,-49.9 35.0,-49.7 37.4,-46.9 39.6,-47.2 41.7,-44.6 43.6,-43.5 45.4,-42.5 47.1,-40.7 48.7,-39.8 50.2,-37.6 51.5,-36.1 52.9,-33.7 54.3,-30.9 55.7,-29.1 57.2,-27.8 58.8,-24.1 60.3,-23.3 61.6,-21.4 62.7,-17.7 63.5,-16.8 64.0,-13.9 64.1,-13.4 64.1,-9.9 64.0,-7.3 64.0,-5.7 64.3,-3.9 64.2,-1.9" fill="none" stroke="rgb(120,84,60)" stroke-width="1.9643786347720105" stroke-linejoin="round" stroke-linecap="round" filter="url(#fuzzy_av_1779093954996_61umre51fz4)" opacity="0.8348598573336788"/><polyline points="32.6,-51.0 35.1,-49.5 37.3,-47.4 39.1,-46.8 40.9,-44.9 42.7,-43.2 44.5,-41.5 46.2,-39.7 47.9,-38.8 49.5,-37.4 51.0,-34.9 52.4,-33.4 53.7,-32.2 54.9,-30.4 56.1,-27.4 57.2,-25.0 58.2,-22.2 59.1,-21.0 60.0,-18.2 60.7,-16.5 61.3,-15.4 61.7,-12.7 62.1,-12.2" fill="none" stroke="rgb(120,84,60)" stroke-width="1.3425579026475916" stroke-linejoin="round" stroke-linecap="round" filter="url(#fuzzy_av_1779093954996_61umre51fz4)" opacity="0.8554403943220318"/><polyline points="27.1,-53.4 29.3,-51.6 32.2,-50.4 35.1,-48.4 37.5,-47.8 39.5,-46.4 41.3,-44.9 43.0,-44.1 44.8,-42.5 46.6,-41.5 48.6,-38.8 50.5,-36.5 52.4,-34.9 54.3,-33.5 56.1,-31.2 57.8,-29.4 59.5,-27.1 61.1,-24.8 62.6,-22.3 64.0,-20.2 65.1,-17.6 66.0,-16.4 66.7,-15.3 67.1,-13.0 67.3,-9.7 67.4,-8.9 67.4,-5.7 67.2,-3.0 67.0,-0.1 66.8,0.7 67.0,3.7 68.0,5.0" fill="none" stroke="rgb(120,84,60)" stroke-width="1.179106260541661" stroke-linejoin="round" stroke-linecap="round" filter="url(#fuzzy_av_1779093954996_61umre51fz4)" opacity="0.998607730197447"/><polyline points="26.5,-54.1 27.9,-52.4 30.6,-52.4 33.7,-51.7 36.5,-48.9 39.1,-47.7 41.6,-46.2 44.2,-45.2 46.8,-42.8 49.3,-42.7 51.5,-40.0 53.4,-39.1 55.2,-36.5 57.0,-34.0 59.0,-32.8 61.1,-30.1 63.1,-28.1 64.9,-27.6 66.4,-25.5 67.6,-23.2 68.7,-19.5 69.6,-18.7 70.6,-15.6 71.7,-13.3 72.7,-11.6 73.8,-10.3 74.7,-7.5 75.6,-5.8 76.3,-2.0 76.8,-1.3 77.1,1.6 77.1,3.9 76.9,5.1 76.4,8.2 75.7,11.0 74.6,11.9 73.5,15.2 73.0,15.6 72.5,17.8" fill="none" stroke="rgb(120,84,60)" stroke-width="2.2761680101990454" stroke-linejoin="round" stroke-linecap="round" filter="url(#fuzzy_av_1779093954996_61umre51fz4)" opacity="0.7571278511919709"/><polyline points="23.4,-55.5 25.9,-54.4 27.8,-53.0 30.0,-53.1 32.7,-51.7 35.4,-50.4 38.0,-48.7 40.3,-46.8 42.4,-46.1 44.4,-43.9 46.4,-42.2 48.4,-40.7 50.4,-38.4 52.5,-37.6 54.7,-34.8 56.8,-34.5 58.9,-32.2 61.0,-29.0 63.1,-28.1 65.3,-24.5 67.5,-23.6 69.5,-20.1 71.2,-18.1 72.1,-16.3" fill="none" stroke="rgb(120,84,60)" stroke-width="2.2037503909307965" stroke-linejoin="round" stroke-linecap="round" filter="url(#fuzzy_av_1779093954996_61umre51fz4)" opacity="0.7849271637446487"/><polyline points="12.6,-58.6 13.1,-57.7 15.0,-57.1 17.1,-56.0 19.1,-55.6 20.9,-54.5 22.7,-52.4 24.7,-51.1 26.7,-50.0 28.6,-49.3 30.3,-47.4 31.5,-47.9 32.1,-45.7 32.1,-43.1 31.5,-41.9 30.4,-40.6 29.0,-39.6 27.7,-37.6 26.6,-34.7 26.0,-33.9 25.8,-30.9 25.7,-29.2 25.1,-28.1 23.8,-26.2 21.8,-23.4 19.6,-21.4 17.8,-18.2 16.1,-17.2 14.0,-15.1" fill="none" stroke="rgb(120,84,60)" stroke-width="1.932500555454261" stroke-linejoin="round" stroke-linecap="round" filter="url(#fuzzy_av_1779093954996_61umre51fz4)" opacity="0.89350754542084"/><polyline points="12.6,-58.7 15.6,-57.3 18.6,-56.0 21.5,-56.0 24.1,-54.7 26.5,-53.0 28.8,-53.4 31.0,-51.3 33.3,-50.8 35.6,-49.7 37.9,-47.7 40.2,-47.4 42.4,-45.6 44.6,-42.9 46.8,-41.7 49.0,-39.9 51.2,-39.4 53.4,-36.9 55.6,-34.7 57.8,-33.0 59.9,-31.3 61.9,-28.7 63.7,-27.0 65.3,-24.8 66.6,-23.4 67.6,-20.2 68.3,-19.3 68.7,-16.0 69.0,-15.1 69.2,-12.8 69.8,-10.2 70.7,-8.4 71.5,-5.1" fill="none" stroke="rgb(120,84,60)" stroke-width="1.5215755193956282" stroke-linejoin="round" stroke-linecap="round" filter="url(#fuzzy_av_1779093954996_61umre51fz4)" opacity="0.9753782450860304"/><polyline points="8.2,-58.7 11.1,-59.1 13.5,-57.2 16.1,-57.7 18.7,-55.9 21.4,-55.4 24.1,-54.6 26.7,-54.0 29.4,-52.6 32.1,-51.4 35.0,-51.3 37.9,-48.9 40.8,-48.0 43.5,-47.8 46.0,-45.4 48.4,-44.8 51.0,-43.2 53.9,-41.6 57.1,-40.7 60.4,-38.7 63.6,-36.1 66.4,-34.1 69.0,-33.0 71.5,-30.1 74.8,-26.7" fill="none" stroke="rgb(120,84,60)" stroke-width="1.7577203926364626" stroke-linejoin="round" stroke-linecap="round" filter="url(#fuzzy_av_1779093954996_61umre51fz4)" opacity="0.9220701882947415"/><polyline points="8.2,-58.6 11.1,-58.4 13.2,-57.0 15.4,-57.2 18.0,-56.8 20.8,-56.4 23.7,-54.9 26.8,-54.4 29.9,-53.0 33.2,-51.8 36.3,-51.6 39.1,-49.3 41.5,-48.4 43.7,-46.8 45.7,-46.1 47.7,-43.4 49.8,-43.1 52.0,-41.2 54.2,-39.7 56.4,-37.2 58.5,-35.6 60.7,-33.2 62.9,-31.1 65.1,-29.9 67.3,-28.2 69.4,-25.5 71.6,-23.2 74.0,-19.9 76.3,-17.3 78.0,-16.3" fill="none" stroke="rgb(120,84,60)" stroke-width="1.0792673661695578" stroke-linejoin="round" stroke-linecap="round" filter="url(#fuzzy_av_1779093954996_61umre51fz4)" opacity="0.9704614019980851"/><polyline points="2.4,-58.3 5.3,-58.9 8.5,-58.6 11.4,-57.5 13.9,-57.0 16.3,-57.7 18.8,-56.5 21.3,-56.1 23.8,-53.8 26.5,-53.2 29.2,-52.3 31.9,-51.5 34.8,-49.1 37.8,-48.1 40.8,-48.2 43.8,-46.7 46.6,-45.0 49.2,-42.7 51.6,-41.1 53.7,-39.6 55.7,-38.6 57.8,-36.3 60.1,-34.8 62.3,-32.5 64.3,-31.4 65.9,-27.8 67.4,-27.4 69.0,-26.1" fill="none" stroke="rgb(120,84,60)" stroke-width="1.1958090942297888" stroke-linejoin="round" stroke-linecap="round" filter="url(#fuzzy_av_1779093954996_61umre51fz4)" opacity="0.9281936325641167"/><polyline points="0.4,-58.5 2.7,-59.9 5.6,-58.8 8.6,-58.2 11.5,-57.8 14.1,-58.0 16.6,-56.7 19.0,-56.5 21.4,-56.0 23.9,-54.3 26.4,-54.4 28.8,-51.9 31.3,-51.3 33.7,-50.0 36.0,-48.7 38.2,-46.6 40.3,-45.6 42.3,-44.9 44.1,-43.2 45.9,-41.4 47.7,-38.9 49.4,-37.4 51.0,-35.7 52.7,-34.3 54.2,-32.9 55.6,-29.4 56.9,-29.1 58.0,-26.4 59.0,-24.2 60.0,-22.3 60.8,-19.8 61.3,-17.8" fill="none" stroke="rgb(120,84,60)" stroke-width="1.431240965767845" stroke-linejoin="round" stroke-linecap="round" filter="url(#fuzzy_av_1779093954996_61umre51fz4)" opacity="0.8537310764579376"/><polyline points="-3.0,-59.7 1.4,-58.9 5.0,-58.0 8.0,-58.5 10.7,-58.5 13.3,-58.4 16.0,-58.0 18.7,-57.0 21.3,-56.6 23.9,-54.6 26.4,-53.7 29.0,-53.2 31.7,-53.2 34.7,-51.3 37.8,-50.8 41.0,-48.3 44.0,-47.6 46.9,-46.1 49.5,-45.4 51.9,-43.0 54.4,-41.0 57.3,-40.0 60.3,-37.5 61.6,-38.2" fill="none" stroke="rgb(120,84,60)" stroke-width="1.1737988511189759" stroke-linejoin="round" stroke-linecap="round" filter="url(#fuzzy_av_1779093954996_61umre51fz4)" opacity="0.9053397276374119"/><polyline points="-4.1,-59.7 -0.5,-58.9 2.5,-59.0 5.4,-58.4 8.3,-57.7 11.0,-58.3 13.7,-57.3 16.4,-56.0 19.3,-57.1 22.5,-56.2 25.8,-53.7 29.2,-54.0 32.4,-53.4 35.6,-51.6 38.6,-49.2 41.4,-49.1 44.3,-47.5 47.2,-46.2 50.1,-44.9 53.0,-42.2 55.8,-41.9 58.6,-40.7 61.5,-38.7 64.7,-36.1 68.2,-33.7 71.7,-32.5 74.8,-30.8 77.2,-29.4 79.5,-27.3 82.7,-24.8" fill="none" stroke="rgb(120,84,60)" stroke-width="1.6609971495984746" stroke-linejoin="round" stroke-linecap="round" filter="url(#fuzzy_av_1779093954996_61umre51fz4)" opacity="0.8516942218950917"/><polyline points="-6.7,-59.5 -3.8,-58.4 -0.7,-58.8 2.5,-58.9 5.7,-59.2 8.9,-58.4 12.0,-58.4 14.9,-58.5 17.8,-57.9 20.7,-56.2 23.6,-55.3 26.5,-55.6 29.4,-53.2 32.2,-52.2 35.1,-51.2 38.0,-51.0 41.1,-49.3 44.3,-47.5 47.7,-46.3 51.1,-43.9 54.6,-43.4 57.9,-41.0 61.0,-40.0 63.7,-38.4 66.1,-37.5 68.2,-35.6" fill="none" stroke="rgb(120,84,60)" stroke-width="1.5476256008345626" stroke-linejoin="round" stroke-linecap="round" filter="url(#fuzzy_av_1779093954996_61umre51fz4)" opacity="0.976480891855309"/><polyline points="-8.7,-59.0 -6.4,-58.3 -3.6,-58.8 -0.7,-59.3 2.3,-58.4 5.2,-59.1 8.1,-58.9 10.9,-58.6 13.6,-58.3 16.2,-56.0 18.8,-55.6 21.4,-56.2 24.0,-54.0 26.6,-53.2 29.2,-52.2 31.9,-51.1 34.4,-50.0 36.9,-47.8 39.3,-47.0 41.5,-45.4 43.6,-44.1 45.7,-41.9 47.7,-42.0 49.6,-39.0 51.6,-38.3 53.5,-35.4 55.4,-34.6 57.3,-31.5 59.0,-30.2 60.6,-28.0 61.8,-26.2 62.8,-24.4 63.6,-21.9 64.4,-19.8 65.2,-18.3 66.2,-17.0 67.0,-13.4" fill="none" stroke="rgb(120,84,60)" stroke-width="2.322510368444898" stroke-linejoin="round" stroke-linecap="round" filter="url(#fuzzy_av_1779093954996_61umre51fz4)" opacity="0.7828559684128626"/><polyline points="-13.4,-57.8 -12.8,-58.4 -10.8,-58.3 -8.0,-59.3 -4.9,-59.6 -1.8,-59.7 1.3,-59.2 4.3,-57.9 7.1,-59.0 9.8,-57.6 12.4,-57.9 15.0,-58.0 17.5,-56.0 19.9,-54.7 22.3,-55.0 24.7,-54.3 27.1,-52.2 29.4,-51.5 31.7,-50.5 33.9,-49.3 36.1,-48.9 38.3,-47.7 40.4,-45.4 42.3,-44.4 44.2,-42.2 46.0,-40.4 47.7,-39.1 49.3,-38.8 50.9,-36.6 52.4,-34.7 53.7,-31.9 55.0,-30.3 56.1,-29.2 57.1,-26.2 58.2,-22.6" fill="none" stroke="rgb(120,84,60)" stroke-width="2.0608007107946724" stroke-linejoin="round" stroke-linecap="round" filter="url(#fuzzy_av_1779093954996_61umre51fz4)" opacity="0.8923565559240183"/><polyline points="-13.4,-58.0 -13.0,-59.0 -11.0,-58.6 -8.2,-59.6 -5.0,-58.9 -1.8,-59.5 1.4,-58.0 4.5,-59.1 7.6,-57.8 10.5,-58.4 13.4,-57.6 16.3,-57.3 19.3,-57.0 22.2,-55.3 25.1,-54.2 27.9,-53.7 30.5,-52.5 33.1,-53.0 35.6,-51.3 38.2,-50.4 41.0,-48.9 43.8,-47.2 46.8,-45.1 49.8,-43.8 52.8,-43.2 55.8,-42.4 58.8,-40.7 61.6,-38.9 64.3,-37.0 67.0,-34.6 69.5,-31.9 71.1,-32.2" fill="none" stroke="rgb(120,84,60)" stroke-width="1.3573312442509782" stroke-linejoin="round" stroke-linecap="round" filter="url(#fuzzy_av_1779093954996_61umre51fz4)" opacity="0.8405657329670284"/><polyline points="-23.0,-56.2 -20.7,-56.1 -18.3,-57.2 -16.0,-58.4 -13.8,-58.4 -11.4,-58.9 -8.6,-58.5 -5.5,-59.2 -2.2,-59.6 1.3,-59.6 4.8,-58.6 8.2,-58.6 11.5,-58.7 14.8,-57.2 17.9,-56.6 21.0,-56.6 24.0,-56.4 27.2,-54.6 30.4,-53.8 33.9,-52.7 37.5,-52.5 41.3,-51.5 45.3,-50.5 49.4,-49.2 53.4,-47.0 57.3,-47.0 61.0,-45.4 64.5,-44.0" fill="none" stroke="rgb(120,84,60)" stroke-width="1.6854239444370085" stroke-linejoin="round" stroke-linecap="round" filter="url(#fuzzy_av_1779093954996_61umre51fz4)" opacity="0.8115430278217248"/><polyline points="-27.3,-55.3 -24.9,-54.5 -23.3,-57.0 -21.3,-56.8 -18.9,-57.4 -16.5,-56.9 -14.0,-59.1 -11.4,-59.3 -8.6,-59.4 -5.7,-58.4 -2.6,-58.0 0.6,-58.7 3.8,-59.6 6.8,-59.0 9.8,-57.9 12.8,-57.6 15.7,-56.8 18.6,-55.8 21.5,-55.9 24.4,-54.5 27.2,-54.2 29.9,-53.0 32.5,-52.7 35.1,-51.8 38.2,-50.3 41.5,-49.9 45.2,-46.8" fill="none" stroke="rgb(120,84,60)" stroke-width="2.3013825646058916" stroke-linejoin="round" stroke-linecap="round" filter="url(#fuzzy_av_1779093954996_61umre51fz4)" opacity="0.850689695142461"/><polyline points="-30.3,-52.5 -28.1,-53.5 -25.5,-54.3 -22.7,-55.7 -19.9,-57.2 -17.2,-57.6 -14.7,-58.0 -12.2,-58.8 -9.6,-59.2 -7.0,-58.8 -4.1,-58.9 -1.1,-59.8 1.9,-59.0 5.0,-57.8 8.1,-58.9 11.1,-58.4 14.0,-57.8 16.9,-57.0 19.8,-57.0 22.7,-55.1 25.7,-54.7 28.8,-54.3 31.9,-51.9 34.9,-50.5 37.9,-49.9 40.8,-48.5 43.5,-47.4 46.1,-46.6 48.6,-45.3 51.0,-43.9 53.3,-40.7 55.5,-39.5 57.4,-38.3 59.3,-37.2 61.3,-35.6 63.5,-32.2 65.6,-30.5 66.8,-28.9" fill="none" stroke="rgb(120,84,60)" stroke-width="1.4136815281932638" stroke-linejoin="round" stroke-linecap="round" filter="url(#fuzzy_av_1779093954996_61umre51fz4)" opacity="0.8127083262878977"/><polyline points="-30.3,-53.4 -29.5,-54.0 -26.6,-54.8 -23.5,-56.3 -20.6,-56.6 -17.7,-58.0 -14.9,-57.3 -12.2,-58.5 -9.6,-58.7 -6.8,-59.4 -4.0,-58.9 -1.1,-59.0 1.8,-59.5 4.7,-58.8 7.7,-57.6 10.5,-57.3 13.3,-56.6 16.0,-56.8 18.7,-56.0 21.4,-54.7 24.0,-55.4 26.7,-52.7 29.4,-52.9 32.1,-51.5 34.7,-49.8 37.4,-48.0 40.1,-46.6 42.8,-45.5 45.5,-45.2 48.1,-42.1 50.6,-41.0 52.9,-40.6 55.0,-38.5 56.9,-35.7 58.8,-33.7 60.8,-33.5 62.6,-30.7 64.2,-28.7 65.7,-26.4" fill="none" stroke="rgb(120,84,60)" stroke-width="0.753568952415375" stroke-linejoin="round" stroke-linecap="round" filter="url(#fuzzy_av_1779093954996_61umre51fz4)" opacity="0.9937825077514135"/><polyline points="-33.1,-51.7 -31.5,-52.8 -30.0,-53.6 -27.7,-54.8 -24.9,-56.6 -21.9,-57.2 -19.0,-56.6 -16.2,-57.4 -13.5,-58.9 -10.8,-59.2 -8.0,-58.2 -5.1,-59.2 -1.9,-59.2 1.4,-59.3 4.8,-57.9 8.3,-59.3 11.8,-59.1 15.3,-57.4 18.8,-58.0 22.5,-56.8 26.3,-56.9 30.2,-55.8 34.1,-54.4 38.2,-53.0 42.8,-51.8 47.8,-50.0" fill="none" stroke="rgb(120,84,60)" stroke-width="1.59308635356923" stroke-linejoin="round" stroke-linecap="round" filter="url(#fuzzy_av_1779093954996_61umre51fz4)" opacity="0.9868388668357349"/><polyline points="-33.1,-51.9 -31.1,-53.3 -28.5,-54.1 -25.8,-54.3 -23.1,-55.7 -20.4,-55.8 -17.8,-57.8 -15.1,-57.2 -12.5,-57.3 -9.9,-57.8 -7.1,-59.5 -4.3,-59.7 -1.3,-59.6 1.8,-58.7 5.0,-59.5 8.3,-58.9 11.7,-57.8 15.0,-58.1 18.4,-57.0 21.7,-55.4 25.0,-55.3 28.3,-55.5 31.4,-53.9 34.4,-53.5 37.4,-50.9 40.4,-50.6 43.4,-48.8 46.4,-48.4 49.6,-45.6 53.2,-44.0 57.0,-43.3 60.5,-42.4 62.5,-40.6" fill="none" stroke="rgb(120,84,60)" stroke-width="1.4300780722387476" stroke-linejoin="round" stroke-linecap="round" filter="url(#fuzzy_av_1779093954996_61umre51fz4)" opacity="0.9763935832552376"/><polyline points="-33.4,-51.2 -33.2,-51.7 -32.0,-52.4 -29.8,-54.5 -27.0,-54.2 -24.0,-55.0 -21.2,-56.0 -18.6,-56.4 -16.1,-58.0 -13.5,-58.0 -10.8,-59.3 -7.9,-58.1 -4.9,-59.0 -1.7,-57.9 1.6,-59.3 4.9,-59.5 8.3,-58.4 11.6,-58.3 14.9,-58.1 18.1,-57.0 21.3,-55.7 24.7,-55.8 28.1,-54.5 31.7,-55.0 35.4,-52.3 39.0,-51.0 42.7,-51.3 46.3,-50.3 49.7,-47.4 53.0,-47.6 56.0,-45.0" fill="none" stroke="rgb(120,84,60)" stroke-width="1.4452594259373952" stroke-linejoin="round" stroke-linecap="round" filter="url(#fuzzy_av_1779093954996_61umre51fz4)" opacity="0.934061161352792"/><polyline points="-35.7,-49.2 -34.1,-51.2 -32.1,-52.3 -29.8,-52.1 -27.4,-54.6 -25.0,-55.3 -22.6,-55.8 -20.3,-56.7 -18.0,-57.8 -15.6,-56.6 -13.2,-57.3 -10.6,-59.1 -8.0,-58.6 -5.2,-59.5 -2.4,-58.6 0.4,-57.8 3.3,-57.6 6.0,-58.6 8.7,-57.6 11.2,-58.3 13.7,-56.7 16.1,-55.8 18.4,-55.2 20.7,-55.4 22.9,-53.8 25.1,-53.9 27.2,-53.2 29.4,-50.7 31.4,-51.0 33.5,-49.5 35.4,-47.9 37.3,-45.9 38.9,-44.5 40.5,-42.8 41.9,-41.5 43.4,-40.7 45.4,-38.0" fill="none" stroke="rgb(120,84,60)" stroke-width="1.9618557261863305" stroke-linejoin="round" stroke-linecap="round" filter="url(#fuzzy_av_1779093954996_61umre51fz4)" opacity="0.8375527042583729"/><polyline points="-39.8,-47.7 -38.3,-47.9 -36.9,-48.7 -35.3,-50.3 -33.3,-52.4 -31.0,-52.2 -28.6,-53.9 -26.1,-54.8 -23.6,-55.2 -21.2,-56.0 -18.8,-56.0 -16.4,-57.6 -13.9,-57.0 -11.3,-58.6 -8.6,-59.1 -5.7,-59.0 -2.6,-57.9 0.5,-58.0 3.6,-59.6 6.7,-58.2 9.8,-58.8 12.7,-57.7 15.5,-57.2 18.3,-56.7 21.0,-56.9 23.7,-54.4 26.3,-55.3 29.0,-53.4 31.6,-53.6 34.4,-51.4 37.4,-49.7 40.5,-48.1 43.4,-48.6 45.2,-47.2" fill="none" stroke="rgb(120,84,60)" stroke-width="1.6949860054832735" stroke-linejoin="round" stroke-linecap="round" filter="url(#fuzzy_av_1779093954996_61umre51fz4)" opacity="0.9245333842259741"/><polyline points="-44.6,-43.8 -43.8,-44.5 -42.4,-44.7 -40.8,-47.0 -39.0,-48.5 -37.3,-50.1 -35.7,-49.8 -34.0,-51.6 -32.1,-52.5 -29.9,-53.3 -27.4,-55.3 -24.7,-55.4 -22.0,-56.8 -19.3,-56.5 -16.6,-57.3 -14.1,-57.2 -11.6,-57.6 -9.0,-59.5 -6.3,-59.0 -3.2,-59.1 -0.0,-59.0 3.4,-58.1 7.0,-59.2 11.6,-58.9" fill="none" stroke="rgb(120,84,60)" stroke-width="1.1696487965455822" stroke-linejoin="round" stroke-linecap="round" filter="url(#fuzzy_av_1779093954996_61umre51fz4)" opacity="0.8815733509939723"/><polyline points="-48.8,-36.6 -47.9,-39.4 -46.9,-40.3 -45.8,-42.1 -44.8,-42.9 -43.8,-45.5 -42.6,-46.5 -41.2,-48.4 -39.6,-49.1 -37.7,-49.6 -35.6,-52.0 -33.4,-53.5 -31.0,-53.2 -28.5,-54.8 -25.8,-55.1 -23.0,-56.9 -20.2,-57.1 -17.4,-58.5 -14.5,-57.4 -11.7,-58.8 -8.7,-57.8 -5.7,-58.2 -2.4,-58.7 1.0,-59.9 4.5,-58.8 8.2,-58.6 11.9,-58.5 15.4,-57.2 18.8,-57.2 22.2,-57.8 26.1,-56.0 31.8,-56.2" fill="none" stroke="rgb(120,84,60)" stroke-width="0.9294998121518929" stroke-linejoin="round" stroke-linecap="round" filter="url(#fuzzy_av_1779093954996_61umre51fz4)" opacity="0.9876519469213102"/><polyline points="-54.2,-28.8 -52.8,-30.7 -51.8,-34.3 -50.8,-35.8 -49.9,-36.7 -48.8,-38.3 -47.6,-40.1 -46.1,-41.7 -44.3,-43.3 -42.3,-45.6 -40.1,-47.7 -38.0,-47.9 -35.8,-50.7 -33.7,-51.3 -31.5,-51.5 -29.3,-53.1 -27.1,-53.5 -24.8,-54.9 -22.4,-55.5 -20.1,-56.3 -17.7,-58.0 -15.2,-57.4 -12.7,-57.2 -10.0,-58.4 -7.1,-59.6 -4.0,-59.6 -0.7,-59.4 2.7,-58.5 6.1,-59.7 9.4,-59.2 12.2,-58.2 13.9,-58.0" fill="none" stroke="rgb(120,84,60)" stroke-width="1.3106470311420582" stroke-linejoin="round" stroke-linecap="round" filter="url(#fuzzy_av_1779093954996_61umre51fz4)" opacity="0.8245821467675881"/><polyline points="-54.8,-25.5 -54.1,-29.4 -53.9,-31.5 -53.8,-32.2 -53.5,-34.5 -52.9,-36.4 -52.1,-37.6 -51.0,-39.5 -49.7,-40.9 -48.2,-43.5 -46.5,-45.3 -44.7,-45.9 -42.7,-48.7 -40.5,-48.2 -38.3,-50.8 -36.0,-51.0 -33.7,-53.0 -31.1,-53.1 -28.5,-54.7 -25.8,-55.2 -23.0,-55.8 -20.1,-57.2 -17.3,-58.2 -14.4,-58.5 -11.5,-58.8 -8.6,-59.4 -5.5,-59.4 -2.4,-58.9 0.8,-59.5 4.2,-59.6 7.5,-59.0 10.9,-58.7 14.1,-56.9 17.3,-56.6 20.3,-56.8 23.5,-56.4 27.0,-56.2 30.5,-53.6 33.1,-54.5" fill="none" stroke="rgb(120,84,60)" stroke-width="1.4197770706776975" stroke-linejoin="round" stroke-linecap="round" filter="url(#fuzzy_av_1779093954996_61umre51fz4)" opacity="0.9108238834082252"/><polyline points="-54.9,-24.1 -55.4,-28.2 -55.2,-30.1 -54.0,-31.7 -52.7,-34.3 -51.6,-34.9 -50.6,-38.2 -49.8,-38.9 -48.8,-40.9 -47.5,-41.5 -45.9,-44.0 -44.1,-45.3 -42.0,-47.2 -39.9,-48.4 -37.7,-49.4 -35.4,-50.7 -33.2,-51.7 -30.9,-52.4 -28.7,-53.8 -26.4,-55.9 -24.1,-56.4 -21.7,-55.9 -19.3,-57.4 -16.8,-56.9 -14.2,-59.0 -11.4,-58.4 -8.3,-58.5 -4.9,-59.9 -1.3,-59.0 2.8,-58.9 7.6,-59.7" fill="none" stroke="rgb(120,84,60)" stroke-width="2.0011506641390246" stroke-linejoin="round" stroke-linecap="round" filter="url(#fuzzy_av_1779093954996_61umre51fz4)" opacity="0.8440643589825008"/><polyline points="-56.7,-18.8 -56.8,-21.3 -58.0,-23.3 -59.1,-25.9 -59.5,-29.7 -59.3,-31.8 -59.0,-34.3 -58.4,-35.7 -57.5,-37.1 -56.2,-38.1 -54.5,-41.0 -52.5,-42.4 -50.3,-44.3 -48.2,-45.7 -46.0,-47.1 -43.9,-48.8 -41.7,-50.8 -39.5,-51.8 -37.2,-51.8 -34.9,-52.3 -32.4,-54.1 -29.9,-56.0 -27.3,-55.2 -24.6,-56.2 -21.9,-56.9 -19.2,-58.2 -16.3,-59.0 -13.2,-59.2 -9.7,-58.3 -5.8,-59.9 -1.5,-58.9 3.2,-59.5 8.8,-58.5" fill="none" stroke="rgb(120,84,60)" stroke-width="0.7355279443975963" stroke-linejoin="round" stroke-linecap="round" filter="url(#fuzzy_av_1779093954996_61umre51fz4)" opacity="0.9970014891389027"/><polyline points="-56.5,-17.6 -56.4,-19.3 -56.0,-21.7 -55.6,-25.2 -55.4,-26.8 -55.2,-29.2 -54.8,-30.4 -54.3,-32.8 -53.6,-35.6 -52.9,-37.4 -52.0,-39.4 -51.0,-40.3 -49.8,-41.9 -48.2,-43.2 -46.3,-45.2 -44.0,-46.7 -41.7,-48.2 -39.2,-50.5 -36.8,-52.0 -34.3,-51.8 -31.8,-53.9 -29.3,-55.0 -26.9,-55.1 -24.4,-55.4 -22.0,-57.0 -19.6,-57.4 -17.2,-57.5 -14.5,-57.7 -11.6,-59.4 -8.4,-58.3 -4.8,-59.4 -1.0,-60.0 3.1,-58.3 7.3,-59.6 11.4,-59.1 15.8,-57.3" fill="none" stroke="rgb(120,84,60)" stroke-width="1.325533212559167" stroke-linejoin="round" stroke-linecap="round" filter="url(#fuzzy_av_1779093954996_61umre51fz4)" opacity="0.7825517763784147"/><polyline points="-56.5,-16.1 -56.4,-18.6 -55.9,-21.8 -55.1,-24.5 -54.3,-27.5 -53.4,-29.1 -52.5,-31.8 -51.4,-33.8 -50.4,-35.6 -49.3,-37.1 -48.1,-38.1 -46.8,-39.7 -45.3,-41.4 -43.7,-44.0 -41.8,-46.1 -39.8,-46.5 -37.8,-48.0 -35.7,-48.9 -33.6,-51.6 -31.4,-52.8 -29.1,-53.7 -26.9,-55.1 -24.5,-56.0 -22.2,-56.6 -19.8,-57.6 -17.5,-58.2 -15.3,-58.9 -13.2,-59.1 -11.2,-59.0 -8.8,-59.0" fill="none" stroke="rgb(120,84,60)" stroke-width="0.8435607309367877" stroke-linejoin="round" stroke-linecap="round" filter="url(#fuzzy_av_1779093954996_61umre51fz4)" opacity="0.8306918810335315"/><polyline points="-56.5,-17.2 -56.5,-18.7 -56.4,-20.6 -56.1,-24.3 -55.7,-26.3 -55.1,-28.6 -54.7,-30.9 -54.3,-33.8 -53.6,-36.0 -52.8,-37.8 -51.6,-38.4 -50.3,-40.3 -48.8,-42.4 -47.1,-42.8 -45.4,-45.3 -43.5,-47.4 -41.6,-49.2 -39.6,-50.1 -37.6,-51.8 -35.5,-52.4 -33.4,-54.1 -31.1,-54.8 -28.7,-55.1 -26.1,-55.6 -23.3,-56.5 -20.6,-58.1 -17.8,-57.9 -15.0,-58.9 -12.0,-59.4 -8.8,-58.2 -5.2,-59.6 -1.3,-58.1 2.9,-58.2 7.3,-59.3 11.0,-58.6" fill="none" stroke="rgb(120,84,60)" stroke-width="1.6509338880300477" stroke-linejoin="round" stroke-linecap="round" filter="url(#fuzzy_av_1779093954996_61umre51fz4)" opacity="0.9370725631857361"/><polyline points="-56.9,-11.7 -56.9,-15.0 -56.8,-16.5 -56.7,-19.1 -56.7,-21.9 -56.6,-23.8 -56.4,-27.0 -56.2,-27.8 -55.6,-31.5 -54.8,-33.9 -53.8,-34.1 -52.6,-36.0 -51.4,-38.1 -50.2,-39.3 -49.1,-41.5 -47.9,-43.5 -46.5,-45.8 -45.0,-46.8 -43.3,-48.6 -41.5,-50.0 -39.7,-51.4 -37.7,-51.8 -35.5,-52.8 -32.9,-53.9 -30.3,-55.1 -28.6,-55.9" fill="none" stroke="rgb(120,84,60)" stroke-width="1.7398322727453572" stroke-linejoin="round" stroke-linecap="round" filter="url(#fuzzy_av_1779093954996_61umre51fz4)" opacity="0.7796129260200281"/><polyline points="-57.1,-8.5 -58.6,-10.5 -58.5,-13.4 -58.0,-15.6 -57.6,-18.2 -57.2,-21.8 -56.7,-23.3 -56.2,-25.4 -55.6,-26.8 -55.1,-29.7 -54.6,-31.1 -54.1,-34.7 -53.5,-35.0 -52.8,-36.9 -51.9,-40.0 -50.8,-40.3 -49.6,-42.0 -48.1,-44.2 -46.6,-45.4 -44.9,-46.9 -43.2,-48.4 -41.5,-49.5 -39.7,-51.4 -37.8,-51.6 -35.7,-53.5 -33.6,-54.1 -31.3,-55.8" fill="none" stroke="rgb(120,84,60)" stroke-width="1.7165443176209878" stroke-linejoin="round" stroke-linecap="round" filter="url(#fuzzy_av_1779093954996_61umre51fz4)" opacity="0.9957213554018124"/><polyline points="-55.9,-0.7 -56.3,-2.8 -56.7,-6.3 -56.9,-7.8 -57.0,-11.2 -56.9,-13.9 -56.7,-17.1 -56.4,-18.7 -55.9,-21.7 -55.4,-22.9 -54.8,-25.6 -54.0,-27.7 -53.2,-30.5 -52.3,-31.0 -51.3,-34.1 -50.2,-35.6 -49.1,-37.6 -47.8,-38.7 -46.4,-41.0 -45.0,-42.0 -43.4,-43.9 -41.8,-45.5 -40.0,-47.0 -38.3,-48.1 -36.5,-50.0 -34.8,-50.9 -33.1,-51.9 -31.0,-52.9" fill="none" stroke="rgb(120,84,60)" stroke-width="2.1805915671674256" stroke-linejoin="round" stroke-linecap="round" filter="url(#fuzzy_av_1779093954996_61umre51fz4)" opacity="0.9427280834776127"/><polyline points="-55.8,0.2 -55.6,-1.5 -55.7,-4.2 -55.8,-5.1 -55.9,-9.0 -56.0,-11.3 -55.9,-14.3 -55.7,-16.3 -55.3,-19.3 -54.7,-20.7 -54.1,-22.3 -53.4,-26.0 -52.6,-27.6 -51.7,-28.4 -50.7,-31.9 -49.6,-33.3 -48.4,-36.2 -47.1,-37.4 -45.7,-39.7 -44.2,-41.7 -42.6,-42.6 -41.0,-44.4 -39.4,-44.6 -38.4,-45.9" fill="none" stroke="rgb(120,84,60)" stroke-width="2.5259105113309" stroke-linejoin="round" stroke-linecap="round" filter="url(#fuzzy_av_1779093954996_61umre51fz4)" opacity="0.9023459293380804"/><polyline points="-54.7,5.1 -55.3,2.4 -55.8,-0.8 -56.4,-3.0 -56.9,-5.2 -57.3,-8.7 -57.5,-11.0 -57.6,-11.7 -57.8,-14.5 -57.8,-16.6 -57.9,-18.7 -57.8,-20.5 -57.4,-24.0 -56.9,-26.2 -56.3,-29.2 -55.5,-30.7 -54.6,-32.7 -53.7,-34.4 -52.7,-36.6 -51.6,-37.8 -50.4,-39.1 -49.0,-41.1 -47.4,-44.3 -45.7,-45.1 -43.8,-46.2 -41.8,-48.4 -39.7,-48.6 -37.5,-50.4 -35.3,-51.1 -32.9,-53.3 -30.4,-54.9 -27.9,-55.1 -25.4,-55.5 -22.9,-56.7 -20.3,-56.5 -17.7,-58.4 -15.6,-57.6 -13.5,-59.0" fill="none" stroke="rgb(120,84,60)" stroke-width="1.4591732231129262" stroke-linejoin="round" stroke-linecap="round" filter="url(#fuzzy_av_1779093954996_61umre51fz4)" opacity="0.9877284540708438"/><polyline points="-54.3,5.3 -55.1,4.8 -55.5,2.3 -55.9,-1.0 -56.3,-2.7 -56.8,-4.8 -57.2,-8.4 -57.6,-9.5 -57.9,-12.8 -58.1,-14.2 -58.0,-17.1 -57.7,-18.3 -57.3,-22.3 -56.8,-24.5 -56.1,-26.3 -55.4,-29.1 -54.7,-30.8 -54.0,-32.1 -53.3,-34.6 -52.5,-35.7 -51.7,-38.6 -50.7,-39.7 -49.4,-42.5 -48.0,-43.7 -46.3,-45.8 -44.4,-46.6 -42.4,-48.0 -40.2,-48.6 -38.1,-50.2 -35.8,-52.8 -33.5,-52.6 -31.1,-55.2 -28.6,-55.8 -26.1,-55.1 -23.5,-56.6 -20.7,-57.7 -18.2,-57.1 -16.0,-57.9 -13.8,-58.9" fill="none" stroke="rgb(120,84,60)" stroke-width="0.7776150465107867" stroke-linejoin="round" stroke-linecap="round" filter="url(#fuzzy_av_1779093954996_61umre51fz4)" opacity="0.8571953771610485"/><polyline points="-52.8,8.3 -55.2,7.3 -56.8,6.3 -58.4,3.6 -60.4,2.2 -62.4,-0.0 -63.8,-4.0 -64.3,-4.6 -64.0,-8.4 -63.6,-10.0 -63.4,-13.3 -63.5,-16.1 -64.1,-18.0 -64.8,-20.9 -65.5,-22.6 -66.1,-25.6 -66.6,-27.3 -67.0,-29.7 -67.1,-30.6 -66.9,-32.4 -66.2,-35.6 -65.3,-37.0 -64.2,-38.0 -63.2,-40.6 -62.1,-42.4 -60.7,-44.1 -58.4,-45.2" fill="none" stroke="rgb(120,84,60)" stroke-width="2.2448334155273364" stroke-linejoin="round" stroke-linecap="round" filter="url(#fuzzy_av_1779093954996_61umre51fz4)" opacity="0.9993387218092427"/><polyline points="-50.8,13.3 -52.0,13.1 -53.5,10.1 -54.4,7.6 -55.0,6.0 -55.3,3.5 -55.7,2.5 -56.1,0.4 -56.4,-1.7 -56.7,-4.5 -57.0,-7.4 -57.3,-10.6 -57.4,-11.4 -57.5,-14.7 -57.5,-16.4 -57.3,-18.7 -57.0,-21.9 -56.6,-23.7 -56.0,-26.6 -55.3,-28.8 -54.5,-31.0 -53.6,-32.2 -52.6,-34.7 -51.5,-36.5 -50.3,-38.0 -49.0,-40.6 -47.5,-41.1 -45.8,-42.5 -43.9,-45.0 -42.0,-46.9 -40.0,-47.3 -38.0,-50.0 -36.1,-49.9 -34.1,-51.6 -31.9,-53.4 -29.2,-54.0" fill="none" stroke="rgb(120,84,60)" stroke-width="1.1947584562688185" stroke-linejoin="round" stroke-linecap="round" filter="url(#fuzzy_av_1779093954996_61umre51fz4)" opacity="0.7702335724213606"/><polyline points="-48.5,18.3 -50.0,16.2 -51.2,14.4 -52.1,11.3 -52.9,10.5 -53.6,8.4 -54.2,6.9 -54.8,3.5 -55.4,1.4 -56.0,-1.0 -56.5,-2.7 -56.9,-5.7 -57.1,-7.4 -57.3,-10.7 -57.4,-11.8 -57.3,-14.9 -57.2,-17.9 -56.9,-19.7 -56.5,-21.6 -56.1,-24.6 -55.5,-26.5 -54.9,-29.0 -54.1,-31.0 -53.2,-32.2 -52.1,-34.8 -50.4,-37.0" fill="none" stroke="rgb(120,84,60)" stroke-width="0.9702934395546164" stroke-linejoin="round" stroke-linecap="round" filter="url(#fuzzy_av_1779093954996_61umre51fz4)" opacity="0.8697429625621129"/><polyline points="-45.4,23.1 -43.9,24.3 -42.4,27.3 -41.0,29.0 -39.7,30.9 -38.4,32.7 -37.1,34.3 -35.7,34.4 -34.2,35.5 -32.5,37.4 -30.6,37.6 -28.5,40.5 -26.3,40.5 -24.1,41.3 -21.9,43.1 -19.7,43.3 -17.6,43.4 -15.3,44.0 -12.8,43.6 -10.2,43.8 -7.5,44.9 -4.8,45.2 -1.9,44.6 2.0,44.6" fill="none" stroke="rgb(120,84,60)" stroke-width="1.680303690006921" stroke-linejoin="round" stroke-linecap="round" filter="url(#fuzzy_av_1779093954996_61umre51fz4)" opacity="0.9148620939471706"/><polyline points="-43.9,24.0 -42.7,26.4 -41.0,29.2 -39.2,30.4 -37.2,32.9 -35.1,34.4 -33.0,34.1 -30.8,37.0 -28.7,37.9 -26.6,37.6 -24.5,39.6 -22.4,41.5 -20.3,42.0 -18.2,41.2 -16.1,42.5 -14.0,43.6 -11.8,44.2 -9.6,44.7 -7.3,45.0 -5.1,43.8 -2.8,44.4 -0.5,44.0 1.8,44.7 4.2,45.0 6.6,44.1 9.1,43.3 11.6,44.3 14.2,42.5 16.7,42.2 19.3,41.8 21.7,39.6 24.0,39.5 26.3,38.2 28.6,38.2 30.7,37.2 32.6,36.5" fill="none" stroke="rgb(120,84,60)" stroke-width="2.262987348714313" stroke-linejoin="round" stroke-linecap="round" filter="url(#fuzzy_av_1779093954996_61umre51fz4)" opacity="0.8183427914954579"/><polyline points="-39.7,30.0 -38.2,30.1 -36.5,31.6 -35.0,33.2 -33.4,34.3 -31.7,36.2 -29.8,37.3 -27.8,37.9 -25.8,39.7 -23.8,41.1 -21.7,41.2 -19.6,41.3 -17.4,43.2 -15.2,44.0 -13.0,44.8 -10.7,44.0 -8.3,44.8 -5.9,44.4 -3.5,44.8 -1.1,45.0 1.5,45.6 4.1,45.1 6.4,45.6 8.1,44.1" fill="none" stroke="rgb(120,84,60)" stroke-width="1.383975461719833" stroke-linejoin="round" stroke-linecap="round" filter="url(#fuzzy_av_1779093954996_61umre51fz4)" opacity="0.8976211560946055"/><polyline points="-37.2,31.5 -35.5,34.0 -33.9,34.3 -32.6,35.9 -31.2,37.2 -29.5,37.6 -27.6,40.1 -25.6,39.4 -23.5,41.5 -21.4,42.0 -19.4,41.7 -17.4,43.8 -15.3,44.1 -13.0,44.5 -10.5,44.5 -7.9,45.0 -5.0,44.0 -2.1,44.0 1.0,45.6 4.1,44.2 7.2,44.9 10.4,43.4 13.7,44.3 16.9,42.8 20.2,42.3 23.5,41.9 26.8,40.6 30.2,39.2 33.5,38.7 36.8,38.8 40.0,36.9 42.9,35.8 45.7,34.8 48.5,32.3 51.5,30.7 54.8,29.8 58.1,28.7 61.7,26.9" fill="none" stroke="rgb(120,84,60)" stroke-width="2.369616908684022" stroke-linejoin="round" stroke-linecap="round" filter="url(#fuzzy_av_1779093954996_61umre51fz4)" opacity="0.9706041572912462"/><polyline points="-37.2,32.1 -35.3,32.2 -33.4,35.0 -31.4,36.6 -29.5,36.8 -27.6,37.7 -25.6,39.2 -23.6,39.3 -21.6,41.0 -19.6,42.5 -17.6,42.3 -15.5,42.1 -13.4,43.6 -11.2,43.8 -8.9,43.8 -6.5,43.8 -4.1,44.1 -1.8,44.4 0.6,44.6 2.9,45.5 5.3,43.7 7.6,44.3 9.9,44.0 12.1,43.2 14.3,41.6 16.5,42.2 18.7,41.5 20.8,40.3 22.9,38.6 25.0,38.4 27.0,36.2 29.0,35.3 30.9,35.1 32.7,33.5 34.7,32.2" fill="none" stroke="rgb(120,84,60)" stroke-width="1.9651435920867857" stroke-linejoin="round" stroke-linecap="round" filter="url(#fuzzy_av_1779093954996_61umre51fz4)" opacity="0.7894908412123752"/><polyline points="-35.6,33.5 -34.8,34.4 -33.9,35.7 -32.0,36.3 -29.7,38.6 -27.3,40.0 -25.2,39.1 -23.3,41.0 -21.5,42.3 -19.8,43.2 -18.0,43.2 -16.1,44.2 -13.9,43.2 -11.4,45.1 -8.6,44.5 -5.7,45.0 -2.7,45.4 0.3,45.7 3.4,45.2 6.5,43.7 9.8,45.1 13.2,43.9 16.7,42.7 20.3,43.5 24.3,42.5 28.5,41.4" fill="none" stroke="rgb(120,84,60)" stroke-width="2.2931708832749833" stroke-linejoin="round" stroke-linecap="round" filter="url(#fuzzy_av_1779093954996_61umre51fz4)" opacity="0.8261370097081833"/><polyline points="-32.9,35.3 -32.3,35.7 -30.6,37.1 -28.5,37.9 -26.4,39.4 -24.3,39.5 -22.2,40.7 -20.2,41.2 -18.2,42.9 -16.1,42.4 -13.9,43.2 -11.7,44.9 -9.2,44.7 -6.8,44.7 -4.2,44.6 -1.7,44.3 0.8,45.2 3.4,43.7 5.9,43.9 8.5,43.0 11.1,42.5 13.7,43.4 16.3,41.4 18.9,42.4 21.6,41.1 24.1,40.2 26.6,38.9 29.1,38.6 31.5,36.7 34.0,36.3 36.4,34.3 38.9,32.6 41.4,31.7 43.9,29.9 46.3,27.6 49.5,25.5" fill="none" stroke="rgb(120,84,60)" stroke-width="1.0574441323707036" stroke-linejoin="round" stroke-linecap="round" filter="url(#fuzzy_av_1779093954996_61umre51fz4)" opacity="0.7571801202732837"/></g><path d="M -8.250976512318102 8.914729842581814 Q 8.089842709946558 17.888867747994965, -0.08056690118577237 4.417662776098091" fill="none" stroke="#111" stroke-width="2.4321489654508577" stroke-linejoin="round" filter="url(#fuzzy_av_1779093954996_61umre51fz4)"/><polyline points="11.4,32.0 11.3,32.6 11.1,33.0 10.9,33.5 11.2,33.1 10.6,34.1 10.5,34.3 10.5,34.4 10.5,34.3 10.5,34.3 9.7,35.0 9.5,35.1 9.0,35.7 9.1,35.6 8.9,35.7 8.4,35.9 8.0,36.2 6.9,36.7 6.8,36.8 7.1,36.7 5.4,37.4 6.0,37.1 5.5,37.3 3.8,37.8 4.5,37.6 3.4,37.9 2.2,38.3 2.8,38.1 2.8,38.1 1.0,38.5 0.3,38.6 1.2,38.5 0.2,38.6 -0.6,38.7 -1.5,38.8 -3.6,39.0 -3.9,39.0 -3.0,39.0 -5.7,39.1 -6.1,39.1 -7.3,39.1 -7.7,39.1 -8.3,39.1 -8.8,39.1 -8.3,39.1 -8.8,39.1 -10.5,39.0 -12.1,38.9 -11.9,38.9 -11.7,39.0 -13.8,38.8 -13.9,38.8 -15.3,38.6 -16.5,38.4 -15.9,38.5 -17.9,38.2 -17.0,38.3 -17.4,38.3 -18.6,38.1 -20.8,37.6 -20.6,37.6 -21.6,37.4 -21.6,37.4 -23.6,36.9 -22.8,37.1 -23.3,36.9 -25.8,36.2 -26.4,36.0 -25.0,36.5 -27.6,35.5 -28.1,35.2 -28.3,35.2 -27.9,35.4 -28.2,35.3 -28.9,35.0 -30.2,34.4 -30.7,34.1 -31.0,33.9 -32.1,33.3 -32.0,33.3 -32.2,33.2 -33.3,32.4 -33.2,32.5 -33.0,32.6 -34.0,31.8 -34.1,31.8 -34.8,31.1 -35.2,30.7 -35.5,30.3 -35.1,30.8 -35.3,30.3 -35.9,29.6 -36.0,29.2 -36.1,29.2 -36.1,29.3 -36.1,29.1 -36.2,28.7 -36.3,28.5 -36.4,27.7 -36.3,27.9 -36.5,27.6 -36.2,26.6 -36.4,27.1 -36.2,26.2 -35.9,25.8 -35.9,25.9 -36.0,26.0 -35.5,25.3 -35.0,24.8 -35.4,25.1 -34.5,24.3 -34.8,24.4 -34.2,23.9 -34.5,24.3 -34.2,23.9 -33.4,23.4 -32.9,23.2 -31.9,22.7 -31.6,22.5 -32.4,23.0 -31.3,22.5 -31.3,22.4 -30.5,22.2 -30.8,22.2 -29.3,21.8 -29.3,21.8 -27.3,21.3 -28.0,21.4 -27.8,21.4 -27.4,21.3 -26.9,21.2 -25.9,21.0 -24.6,20.8 -24.7,20.8 -24.1,20.8 -21.4,20.5 -22.1,20.6 -20.1,20.5 -21.5,20.5 -20.6,20.4 -18.9,20.4 -18.4,20.4 -17.8,20.4 -16.8,20.4 -15.3,20.5 -16.6,20.4 -14.3,20.5 -13.0,20.6 -12.1,20.7 -12.7,20.6 -11.1,20.8 -11.5,20.7 -9.3,21.0 -8.6,21.1 -9.3,21.0 -7.2,21.3 -6.3,21.5 -6.3,21.5 -5.7,21.6 -3.6,22.1 -3.5,22.1 -2.3,22.4 -1.9,22.5 -1.6,22.6 -1.6,22.6 -1.7,22.6 0.4,23.2 -0.5,22.9 1.9,23.7 2.1,23.8 1.4,23.6 2.7,24.0 3.6,24.5 4.4,24.8 4.0,24.6 4.8,25.0 5.1,25.1 6.0,25.6 6.2,25.7 6.7,26.0 7.2,26.4 8.1,26.9 8.0,26.9 8.6,27.2 8.9,27.5 9.7,28.4 10.1,28.6 9.8,28.4 9.6,28.3 10.1,28.8 10.6,29.3 10.9,30.0 11.2,30.4 11.2,30.5 11.2,30.8 11.2,31.0 11.3,30.8 11.3,31.5 11.4,31.8 11.4,32.0" fill="rgb(215,127,140)" stroke="#111" stroke-width="2.5142217770815343" stroke-linejoin="round" filter="url(#fuzzy_av_1779093954996_61umre51fz4)"/></g><g class="accessory-svg accessory-book" transform="translate(68.1 31.3) rotate(-6.2) scale(0.989)">
      <path d="M-10-10h9c2 0 3 1 3 3v18c0-2-1-3-3-3h-9z" fill="#7C3AED" stroke="#111827" stroke-width="1.1"/><path d="M2-10h8v18H2c-2 0-3 1-3 3V-7c0-2 1-3 3-3z" fill="#f8fafc" stroke="#111827" stroke-width="1.1"/><path d="M4-5h4M4 0h4" stroke="#6D28D9" stroke-width=".8"/>
    </g><g class="accessory-svg accessory-zen" transform="translate(18.0 73.0) rotate(-4.6) scale(1.024)">
      <circle cx="0" cy="0" r="11" fill="#f8fafc" stroke="#111827" stroke-width="1.1"/><path d="M0-10c6 4 6 16 0 20-6-4-6-16 0-20z" fill="#6D28D9"/><circle cx="0" cy="-5" r="2" fill="#f8fafc"/><circle cx="0" cy="5" r="2" fill="#6D28D9"/>
    </g><g class="accessory-svg accessory-bamboo" transform="translate(-65.3 24.5) rotate(2.8) scale(1.342)">
      <path d="M-4 12l5-24M4 11l4-20" stroke="#22c55e" stroke-width="3" stroke-linecap="round"/><path d="M-6-3l-6-4M-1 2l-6 3M5-4l7-5M6 3l7 2" stroke="#22c55e" stroke-width="1.5" stroke-linecap="round"/>
    </g><g class="accessory-svg accessory-yin-yang" transform="translate(30.5 -64.9) rotate(-1.3) scale(1.024)">
      <circle cx="0" cy="0" r="11" fill="#f8fafc" stroke="#111827" stroke-width="1.1"/><path d="M0-11a5.5 5.5 0 0 1 0 11 5.5 5.5 0 0 0 0 11 11 11 0 0 0 0-22z" fill="#6D28D9"/><circle cx="0" cy="-5.5" r="1.7" fill="#6D28D9"/><circle cx="0" cy="5.5" r="1.7" fill="#f8fafc"/>
    </g></svg>