<svg xmlns="http://www.w3.org/2000/svg" viewBox="-100 -100 200 200" width="400" height="400" role="img" aria-label="工蚁 avatar"><defs>
      <filter id="fuzzy_av_1779093954987_359mm0g5e4q" x="-8%" y="-8%" width="116%" height="116%">
        <feTurbulence baseFrequency="0.045" numOctaves="3" type="fractalNoise" result="noise"/>
        <feDisplacementMap in="SourceGraphic" in2="noise" scale="1.6"/>
      </filter>
      <clipPath id="leftEye_av_1779093954987_359mm0g5e4q"><polyline points="-15.4,-5.4 -15.2,-5.5 -15.0,-5.6 -14.8,-5.7 -14.6,-5.7 -14.3,-5.8 -14.1,-5.9 -13.8,-5.9 -13.6,-6.0 -13.3,-6.1 -13.0,-6.1 -12.7,-6.2 -12.4,-6.2 -12.0,-6.2 -11.7,-6.3 -11.3,-6.3 -11.0,-6.4 -10.6,-6.4 -10.2,-6.4 -9.8,-6.5 -9.4,-6.5 -8.9,-6.5 -8.5,-6.5 -8.0,-6.6 -7.5,-6.6 -7.0,-6.6 -6.5,-6.6 -6.0,-6.6 -5.5,-6.6 -4.9,-6.6 -4.4,-6.6 -3.9,-6.6 -3.3,-6.6 -2.8,-6.6 -2.2,-6.6 -1.7,-6.6 -1.1,-6.6 -0.6,-6.6 -0.1,-6.6 0.5,-6.5 1.0,-6.5 1.5,-6.5 2.0,-6.5 2.5,-6.4 3.0,-6.4 3.5,-6.4 4.0,-6.3 4.4,-6.3 4.9,-6.2 5.3,-6.2 5.7,-6.1 6.1,-6.1 6.5,-6.0 6.9,-6.0 7.3,-5.9 7.6,-5.9 8.0,-5.8 8.3,-5.7 8.6,-5.6 8.9,-5.6 9.2,-5.5 9.4,-5.4 9.7,-5.3 9.9,-5.2 10.1,-5.1 10.4,-5.0 10.6,-4.9 10.8,-4.8 10.9,-4.7 11.1,-4.6 11.3,-4.4 11.4,-4.3 11.5,-4.2 11.7,-4.1 11.8,-3.9 11.9,-3.8 12.0,-3.6 12.1,-3.5 12.1,-3.3 12.2,-3.2 12.0,-1.3 11.9,-1.1 11.7,-0.9 11.5,-0.6 11.3,-0.4 11.1,-0.2 10.9,0.1 10.7,0.3 10.4,0.6 10.2,0.8 10.0,1.1 9.7,1.3 9.4,1.5 9.2,1.8 8.9,2.0 8.6,2.3 8.3,2.5 8.0,2.8 7.7,3.0 7.4,3.3 7.0,3.5 6.7,3.7 6.4,4.0 6.0,4.2 5.6,4.4 5.2,4.7 4.8,4.9 4.4,5.1 4.0,5.3 3.6,5.4 3.2,5.6 2.7,5.8 2.3,5.9 1.8,6.0 1.4,6.2 0.9,6.3 0.4,6.3 -0.0,6.4 -0.5,6.5 -1.0,6.5 -1.5,6.5 -2.0,6.5 -2.5,6.5 -3.0,6.5 -3.4,6.5 -3.9,6.4 -4.4,6.3 -4.9,6.2 -5.4,6.1 -5.9,5.9 -6.3,5.8 -6.8,5.6 -7.3,5.4 -7.7,5.2 -8.2,5.0 -8.6,4.7 -9.0,4.5 -9.4,4.2 -9.8,3.9 -10.2,3.6 -10.6,3.3 -11.0,3.0 -11.3,2.7 -11.6,2.3 -11.9,2.0 -12.3,1.7 -12.5,1.4 -12.8,1.2 -13.1,0.9 -13.4,0.6 -13.6,0.4 -13.9,0.1 -14.1,-0.2 -14.3,-0.5 -14.5,-0.7 -14.7,-1.0 -14.9,-1.3 -15.1,-1.5 -15.2,-1.8 -15.4,-2.1"/></clipPath>
      <clipPath id="rightEye_av_1779093954987_359mm0g5e4q"><polyline points="-14.6,-5.2 -14.5,-5.3 -14.4,-5.5 -14.2,-5.6 -14.0,-5.7 -13.8,-5.8 -13.6,-5.9 -13.4,-6.0 -13.2,-6.1 -12.9,-6.2 -12.7,-6.2 -12.4,-6.3 -12.1,-6.4 -11.8,-6.4 -11.5,-6.5 -11.2,-6.5 -10.9,-6.6 -10.6,-6.7 -10.2,-6.7 -9.8,-6.8 -9.4,-6.8 -9.0,-6.8 -8.6,-6.9 -8.2,-6.9 -7.7,-6.9 -7.2,-7.0 -6.8,-7.0 -6.3,-7.0 -5.8,-7.0 -5.2,-7.0 -4.7,-7.0 -4.2,-7.0 -3.7,-7.0 -3.1,-7.0 -2.6,-7.0 -2.1,-7.0 -1.5,-7.0 -1.0,-6.9 -0.5,-6.9 0.1,-6.9 0.6,-6.9 1.1,-6.8 1.6,-6.8 2.1,-6.8 2.6,-6.7 3.1,-6.7 3.6,-6.6 4.0,-6.6 4.5,-6.5 4.9,-6.5 5.3,-6.4 5.7,-6.3 6.1,-6.3 6.5,-6.2 6.9,-6.1 7.2,-6.0 7.5,-6.0 7.9,-5.9 8.2,-5.8 8.5,-5.7 8.7,-5.6 9.0,-5.5 9.2,-5.4 9.5,-5.2 9.7,-5.1 9.9,-5.0 10.1,-4.9 10.3,-4.7 10.4,-4.6 10.6,-4.5 10.7,-4.3 10.8,-4.2 10.9,-4.0 11.0,-3.8 11.1,-3.7 11.2,-3.5 11.3,-3.3 11.3,-3.1 11.4,-2.9 11.4,-2.7 11.8,-1.7 11.7,-1.5 11.5,-1.3 11.3,-1.0 11.1,-0.8 10.9,-0.6 10.7,-0.3 10.5,-0.1 10.2,0.2 10.0,0.4 9.8,0.7 9.5,0.9 9.3,1.2 9.0,1.5 8.7,1.7 8.4,2.0 8.2,2.2 7.9,2.5 7.6,2.8 7.2,3.0 6.9,3.3 6.6,3.5 6.2,3.8 5.9,4.0 5.5,4.3 5.2,4.5 4.8,4.8 4.4,5.0 4.0,5.2 3.6,5.4 3.2,5.6 2.8,5.8 2.4,6.0 2.0,6.2 1.6,6.3 1.2,6.5 0.7,6.6 0.3,6.7 -0.1,6.8 -0.6,6.9 -1.0,6.9 -1.5,7.0 -1.9,7.0 -2.4,7.0 -2.8,7.0 -3.2,6.9 -3.7,6.9 -4.1,6.8 -4.6,6.7 -5.0,6.6 -5.4,6.5 -5.9,6.3 -6.3,6.1 -6.7,5.9 -7.1,5.7 -7.6,5.5 -8.0,5.2 -8.3,4.9 -8.7,4.6 -9.1,4.3 -9.5,4.0 -9.9,3.7 -10.2,3.3 -10.5,3.0 -10.9,2.6 -11.2,2.3 -11.5,2.0 -11.8,1.8 -12.1,1.5 -12.3,1.2 -12.6,0.9 -12.9,0.6 -13.1,0.3 -13.4,-0.0 -13.6,-0.3 -13.8,-0.6 -14.0,-0.9 -14.2,-1.2 -14.4,-1.5 -14.6,-1.7"/></clipPath>
      <linearGradient id="rainbow_av_1779093954987_359mm0g5e4q" x1="0%" y1="0%" x2="100%" y2="0%">
        <stop offset="0%" stop-color="#CA8A04"/><stop offset="78%" stop-color="#22D3EE"/><stop offset="100%" stop-color="#A16207"/>
      </linearGradient>
      <linearGradient id="splitHair_av_1779093954987_359mm0g5e4q" x1="0%" y1="0%" x2="100%" y2="0%">
        <stop offset="49%" stop-color="#111827"/><stop offset="51%" stop-color="#F9FAFB"/>
      </linearGradient>
      <radialGradient id="halo_av_1779093954987_359mm0g5e4q"><stop offset="0%" stop-color="#CA8A04" stop-opacity=".45"/><stop offset="100%" stop-color="#CA8A04" stop-opacity="0"/></radialGradient>
    </defs><rect x="-100" y="-100" width="200" height="200" fill="#87CEEB"/><g opacity="1"><polyline id="faceContour" class="face-shape" points="47.1,-7.7 46.8,-5.1 46.8,-3.1 46.7,-3.1 46.6,-0.6 46.2,2.7 46.2,3.4 46.0,4.4 45.3,8.2 45.1,10.1 45.0,10.4 44.6,11.7 44.3,13.2 44.5,12.9 44.4,13.2 43.4,17.2 43.4,16.6 43.0,17.8 41.5,22.9 42.0,21.9 41.4,23.2 40.7,25.7 39.8,27.3 40.3,25.9 38.7,30.5 38.3,31.2 39.0,29.8 36.7,34.7 37.3,33.3 35.8,36.2 34.6,38.1 34.9,37.9 34.4,38.6 33.1,41.0 32.7,41.6 32.6,41.3 31.5,43.1 31.2,43.3 29.8,45.2 29.3,45.9 27.1,48.6 27.2,48.7 25.9,49.9 25.4,50.5 24.4,51.8 24.6,51.1 23.4,52.3 22.4,53.1 21.8,53.9 19.4,55.8 20.6,54.7 18.4,56.2 17.9,56.8 17.9,56.6 15.5,58.0 15.1,58.0 12.3,59.6 13.1,59.3 11.4,60.0 10.7,60.3 8.7,60.9 9.8,60.6 7.7,61.1 6.8,61.4 5.5,61.6 6.0,61.6 3.0,61.9 4.3,61.8 3.4,62.0 1.1,62.1 -0.6,62.1 -0.4,62.1 -2.3,61.9 -3.5,61.8 -5.0,61.5 -5.3,61.4 -6.5,61.3 -6.5,61.3 -8.1,60.7 -8.9,60.4 -8.9,60.6 -11.2,59.7 -11.2,59.6 -11.8,59.3 -14.0,58.4 -14.2,58.2 -14.9,58.0 -16.1,57.1 -17.9,55.9 -17.4,56.3 -19.4,55.1 -19.6,54.8 -21.7,53.1 -21.5,53.5 -22.2,52.5 -24.5,50.5 -24.7,50.5 -26.9,48.0 -26.8,47.9 -27.5,47.4 -26.7,48.2 -29.5,44.9 -30.0,44.3 -29.8,44.5 -31.6,42.2 -32.1,41.4 -32.3,41.4 -33.5,38.9 -33.9,38.6 -34.5,37.6 -35.2,36.3 -36.1,34.7 -36.4,34.4 -37.4,32.4 -38.3,29.8 -39.3,28.3 -39.4,27.7 -39.9,26.2 -39.9,26.6 -41.1,23.8 -41.6,22.1 -41.3,23.3 -42.6,19.2 -43.1,17.4 -43.1,17.6 -44.1,13.8 -44.2,13.4 -44.0,14.1 -44.7,11.1 -44.9,10.1 -45.1,9.0 -45.3,9.0 -45.3,7.8 -45.9,4.0 -46.2,2.3 -46.5,0.1 -46.6,0.2 -46.9,-2.9 -46.6,-1.0 -47.1,-5.7 -47.0,-6.4 -47.0,-6.9 -46.9,-7.3 -47.2,-9.5 -47.2,-13.5 -47.0,-13.7 -47.2,-13.1 -46.9,-14.7 -46.5,-19.9 -46.3,-21.7 -46.3,-21.2 -46.1,-23.0 -46.1,-24.3 -45.9,-25.0 -45.4,-28.4 -45.0,-29.2 -45.1,-29.1 -44.8,-30.6 -44.3,-32.0 -44.2,-32.2 -43.3,-35.5 -43.8,-34.8 -43.3,-35.9 -42.8,-37.4 -41.0,-42.6 -41.9,-40.4 -41.3,-42.0 -40.0,-43.9 -39.1,-46.7 -39.2,-46.3 -38.7,-47.0 -37.0,-50.1 -36.9,-50.5 -36.0,-52.0 -35.4,-52.9 -34.8,-53.7 -35.1,-53.5 -33.2,-56.1 -33.5,-55.7 -31.0,-58.6 -31.7,-57.8 -30.3,-59.4 -29.1,-60.5 -28.6,-61.4 -27.9,-61.9 -26.7,-63.1 -24.3,-65.1 -24.8,-64.4 -24.0,-65.2 -22.8,-66.2 -22.3,-66.4 -20.1,-68.0 -20.8,-67.3 -19.3,-68.4 -16.0,-70.1 -17.5,-69.4 -15.1,-70.5 -13.9,-71.0 -13.7,-71.2 -12.0,-71.8 -11.4,-71.9 -9.1,-72.8 -8.2,-72.9 -7.3,-73.0 -5.6,-73.4 -6.9,-73.1 -5.4,-73.4 -4.3,-73.6 -2.3,-73.9 -0.8,-73.9 1.5,-73.9 0.3,-73.9 2.0,-74.0 2.9,-73.8 5.2,-73.6 5.6,-73.5 7.6,-73.4 7.7,-73.3 8.9,-73.0 11.1,-72.5 11.9,-72.3 12.0,-72.1 13.4,-71.8 15.6,-70.9 15.0,-71.1 15.3,-71.0 17.9,-69.9 17.8,-69.7 18.3,-69.5 20.5,-68.3 23.2,-66.3 22.0,-67.5 22.8,-66.7 25.8,-64.4 26.4,-64.1 25.8,-64.5 27.2,-63.3 28.0,-62.5 28.7,-62.0 30.2,-60.5 32.0,-58.4 32.4,-57.7 32.3,-57.9 32.6,-57.7 33.6,-56.3 35.1,-54.0 35.0,-54.0 36.9,-51.4 36.8,-51.7 37.8,-49.3 38.5,-48.7 38.9,-47.7 39.7,-45.6 39.5,-46.2 40.5,-44.0 40.9,-43.0 41.6,-41.8 42.2,-39.7 43.0,-37.8 42.7,-38.7 42.8,-38.1 43.7,-35.3 44.1,-33.3 44.8,-31.3 45.1,-30.7 45.0,-29.4 45.8,-26.0 46.1,-23.5 46.3,-23.2 46.2,-23.1 46.6,-18.8 46.6,-19.0 46.8,-16.5 46.7,-17.6 47.1,-14.6 47.1,-15.1 47.0,-12.6 47.2,-11.3 47.0,-8.0 46.9,-8.3 47.1,-7.7 46.8,-5.1" fill="#ffc9a9" stroke="#111" stroke-width="2.2" stroke-linejoin="round" filter="url(#fuzzy_av_1779093954987_359mm0g5e4q)"/><g id="leftEye" transform="translate(-28.3 -27.7)"><polyline points="-15.4,-5.4 -15.2,-5.5 -15.0,-5.6 -14.8,-5.7 -14.6,-5.7 -14.3,-5.8 -14.1,-5.9 -13.8,-5.9 -13.6,-6.0 -13.3,-6.1 -13.0,-6.1 -12.7,-6.2 -12.4,-6.2 -12.0,-6.2 -11.7,-6.3 -11.3,-6.3 -11.0,-6.4 -10.6,-6.4 -10.2,-6.4 -9.8,-6.5 -9.4,-6.5 -8.9,-6.5 -8.5,-6.5 -8.0,-6.6 -7.5,-6.6 -7.0,-6.6 -6.5,-6.6 -6.0,-6.6 -5.5,-6.6 -4.9,-6.6 -4.4,-6.6 -3.9,-6.6 -3.3,-6.6 -2.8,-6.6 -2.2,-6.6 -1.7,-6.6 -1.1,-6.6 -0.6,-6.6 -0.1,-6.6 0.5,-6.5 1.0,-6.5 1.5,-6.5 2.0,-6.5 2.5,-6.4 3.0,-6.4 3.5,-6.4 4.0,-6.3 4.4,-6.3 4.9,-6.2 5.3,-6.2 5.7,-6.1 6.1,-6.1 6.5,-6.0 6.9,-6.0 7.3,-5.9 7.6,-5.9 8.0,-5.8 8.3,-5.7 8.6,-5.6 8.9,-5.6 9.2,-5.5 9.4,-5.4 9.7,-5.3 9.9,-5.2 10.1,-5.1 10.4,-5.0 10.6,-4.9 10.8,-4.8 10.9,-4.7 11.1,-4.6 11.3,-4.4 11.4,-4.3 11.5,-4.2 11.7,-4.1 11.8,-3.9 11.9,-3.8 12.0,-3.6 12.1,-3.5 12.1,-3.3 12.2,-3.2 12.0,-1.3 11.9,-1.1 11.7,-0.9 11.5,-0.6 11.3,-0.4 11.1,-0.2 10.9,0.1 10.7,0.3 10.4,0.6 10.2,0.8 10.0,1.1 9.7,1.3 9.4,1.5 9.2,1.8 8.9,2.0 8.6,2.3 8.3,2.5 8.0,2.8 7.7,3.0 7.4,3.3 7.0,3.5 6.7,3.7 6.4,4.0 6.0,4.2 5.6,4.4 5.2,4.7 4.8,4.9 4.4,5.1 4.0,5.3 3.6,5.4 3.2,5.6 2.7,5.8 2.3,5.9 1.8,6.0 1.4,6.2 0.9,6.3 0.4,6.3 -0.0,6.4 -0.5,6.5 -1.0,6.5 -1.5,6.5 -2.0,6.5 -2.5,6.5 -3.0,6.5 -3.4,6.5 -3.9,6.4 -4.4,6.3 -4.9,6.2 -5.4,6.1 -5.9,5.9 -6.3,5.8 -6.8,5.6 -7.3,5.4 -7.7,5.2 -8.2,5.0 -8.6,4.7 -9.0,4.5 -9.4,4.2 -9.8,3.9 -10.2,3.6 -10.6,3.3 -11.0,3.0 -11.3,2.7 -11.6,2.3 -11.9,2.0 -12.3,1.7 -12.5,1.4 -12.8,1.2 -13.1,0.9 -13.4,0.6 -13.6,0.4 -13.9,0.1 -14.1,-0.2 -14.3,-0.5 -14.5,-0.7 -14.7,-1.0 -14.9,-1.3 -15.1,-1.5 -15.2,-1.8 -15.4,-2.1" fill="#fff" stroke="#fff" stroke-width="0" stroke-linejoin="round" filter="url(#fuzzy_av_1779093954987_359mm0g5e4q)"/><polyline points="16.3,-4.3 16.3,-4.5 16.2,-4.6 16.2,-4.7 16.1,-4.8 16.0,-4.9 15.9,-5.0 15.8,-5.1 15.7,-5.2 15.5,-5.3 -15.4,-5.4 -15.2,-5.5 -15.0,-5.6 -14.8,-5.7 -14.6,-5.7 -14.3,-5.8 -14.1,-5.9 -13.8,-5.9 -13.6,-6.0 -13.3,-6.1 -13.0,-6.1 -12.7,-6.2 -12.4,-6.2 -12.0,-6.2 -11.7,-6.3 -11.3,-6.3 -11.0,-6.4 -10.6,-6.4 -10.2,-6.4 -9.8,-6.5 -9.4,-6.5 -8.9,-6.5 -8.5,-6.5 -8.0,-6.6 -7.5,-6.6 -7.0,-6.6 -6.5,-6.6 -6.0,-6.6 -5.5,-6.6 -4.9,-6.6 -4.4,-6.6 -3.9,-6.6 -3.3,-6.6 -2.8,-6.6 -2.2,-6.6 -1.7,-6.6 -1.1,-6.6 -0.6,-6.6 -0.1,-6.6 0.5,-6.5 1.0,-6.5 1.5,-6.5 2.0,-6.5 2.5,-6.4 3.0,-6.4 3.5,-6.4 4.0,-6.3 4.4,-6.3 4.9,-6.2 5.3,-6.2 5.7,-6.1 6.1,-6.1 6.5,-6.0 6.9,-6.0 7.3,-5.9 7.6,-5.9 8.0,-5.8 8.3,-5.7 8.6,-5.6 8.9,-5.6 9.2,-5.5 9.4,-5.4 9.7,-5.3 9.9,-5.2 10.1,-5.1 10.4,-5.0 10.6,-4.9 10.8,-4.8 10.9,-4.7 11.1,-4.6 11.3,-4.4 11.4,-4.3 11.5,-4.2 11.7,-4.1 11.8,-3.9 11.9,-3.8 12.0,-3.6 12.1,-3.5 12.1,-3.3 12.2,-3.2 -12.3,-3.0 -12.3,-2.8 -12.4,-2.7 -12.4,-2.5 -12.4,-2.3 -12.4,-2.1 -12.5,-1.9 -12.5,-1.7 -12.5,-1.5 -12.4,-1.3" fill="none" stroke="#111" stroke-width="2.975765401279789" stroke-linejoin="round" stroke-linecap="round" filter="url(#fuzzy_av_1779093954987_359mm0g5e4q)"/><polyline points="16.0,-4.0 16.0,-3.9 16.0,-3.7 15.9,-3.6 15.9,-3.4 15.9,-3.2 15.8,-3.0 15.7,-2.8 15.6,-2.5 15.5,-2.3 -15.4,-2.1 -15.2,-1.8 -15.1,-1.5 -14.9,-1.3 -14.7,-1.0 -14.5,-0.7 -14.3,-0.5 -14.1,-0.2 -13.9,0.1 -13.6,0.4 -13.4,0.6 -13.1,0.9 -12.8,1.2 -12.5,1.4 -12.3,1.7 -11.9,2.0 -11.6,2.3 -11.3,2.7 -11.0,3.0 -10.6,3.3 -10.2,3.6 -9.8,3.9 -9.4,4.2 -9.0,4.5 -8.6,4.7 -8.2,5.0 -7.7,5.2 -7.3,5.4 -6.8,5.6 -6.3,5.8 -5.9,5.9 -5.4,6.1 -4.9,6.2 -4.4,6.3 -3.9,6.4 -3.4,6.5 -3.0,6.5 -2.5,6.5 -2.0,6.5 -1.5,6.5 -1.0,6.5 -0.5,6.5 -0.0,6.4 0.4,6.3 0.9,6.3 1.4,6.2 1.8,6.0 2.3,5.9 2.7,5.8 3.2,5.6 3.6,5.4 4.0,5.3 4.4,5.1 4.8,4.9 5.2,4.7 5.6,4.4 6.0,4.2 6.4,4.0 6.7,3.7 7.0,3.5 7.4,3.3 7.7,3.0 8.0,2.8 8.3,2.5 8.6,2.3 8.9,2.0 9.2,1.8 9.4,1.5 9.7,1.3 10.0,1.1 10.2,0.8 10.4,0.6 10.7,0.3 10.9,0.1 11.1,-0.2 11.3,-0.4 11.5,-0.6 11.7,-0.9 11.9,-1.1 12.0,-1.3 -12.2,-1.6 -12.4,-1.8 -12.5,-2.0 -12.6,-2.2 -12.8,-2.4 -12.9,-2.6 -13.0,-2.8 -13.2,-3.0 -13.3,-3.2 -13.4,-3.4" fill="none" stroke="#111" stroke-width="2.347081396773585" stroke-linejoin="round" stroke-linecap="round" filter="url(#fuzzy_av_1779093954987_359mm0g5e4q)"/><circle r="4.313841292248216" cx="10.045864320168217" cy="-3.8362723693767418" stroke="#111" fill="none" stroke-width="1.3939633461134728" filter="url(#fuzzy_av_1779093954987_359mm0g5e4q)" clip-path="url(#leftEye_av_1779093954987_359mm0g5e4q)"/><circle r="3.454371119474045" cx="10.21454282704887" cy="-2.8614548033045812" stroke="#111" fill="none" stroke-width="1.3100384552290694" filter="url(#fuzzy_av_1779093954987_359mm0g5e4q)" clip-path="url(#leftEye_av_1779093954987_359mm0g5e4q)"/><circle r="3.492747478886664" cx="8.5937568325963" cy="-1.2501072553077728" stroke="#111" fill="none" stroke-width="0.9581127812680645" filter="url(#fuzzy_av_1779093954987_359mm0g5e4q)" clip-path="url(#leftEye_av_1779093954987_359mm0g5e4q)"/><circle r="4.111171757430419" cx="9.878339085102397" cy="-2.7074553567162436" stroke="#111" fill="none" stroke-width="0.822475822387004" filter="url(#fuzzy_av_1779093954987_359mm0g5e4q)" clip-path="url(#leftEye_av_1779093954987_359mm0g5e4q)"/><circle r="2.9754057040658393" cx="9.229351557969391" cy="-2.7541543548760736" stroke="#111" fill="none" stroke-width="0.8573557148653892" filter="url(#fuzzy_av_1779093954987_359mm0g5e4q)" clip-path="url(#leftEye_av_1779093954987_359mm0g5e4q)"/><circle r="2.7095109354061275" cx="8.040673459182354" cy="-1.2265568879126885" stroke="#111" fill="none" stroke-width="1.2889467007809747" filter="url(#fuzzy_av_1779093954987_359mm0g5e4q)" clip-path="url(#leftEye_av_1779093954987_359mm0g5e4q)"/><circle r="4.066093429792783" cx="11.184001995888718" cy="0.42001846073462024" stroke="#111" fill="none" stroke-width="1.1883678110793414" filter="url(#fuzzy_av_1779093954987_359mm0g5e4q)" clip-path="url(#leftEye_av_1779093954987_359mm0g5e4q)"/><circle r="3.303282124422192" cx="7.657625637128428" cy="-0.5021280196695603" stroke="#111" fill="none" stroke-width="1.3679741539392314" filter="url(#fuzzy_av_1779093954987_359mm0g5e4q)" clip-path="url(#leftEye_av_1779093954987_359mm0g5e4q)"/><circle r="4.186127363061614" cx="10.443356956150621" cy="-3.0584661339936376" stroke="#111" fill="none" stroke-width="1.195434301984183" filter="url(#fuzzy_av_1779093954987_359mm0g5e4q)" clip-path="url(#leftEye_av_1779093954987_359mm0g5e4q)"/><circle r="2.8987084321930308" cx="11.338231362667688" cy="-1.2131955542993744" stroke="#111" fill="none" stroke-width="1.2469076802781014" filter="url(#fuzzy_av_1779093954987_359mm0g5e4q)" clip-path="url(#leftEye_av_1779093954987_359mm0g5e4q)"/></g><g id="rightEye" transform="translate(23.3 -28.9)"><polyline points="-14.6,-5.2 -14.5,-5.3 -14.4,-5.5 -14.2,-5.6 -14.0,-5.7 -13.8,-5.8 -13.6,-5.9 -13.4,-6.0 -13.2,-6.1 -12.9,-6.2 -12.7,-6.2 -12.4,-6.3 -12.1,-6.4 -11.8,-6.4 -11.5,-6.5 -11.2,-6.5 -10.9,-6.6 -10.6,-6.7 -10.2,-6.7 -9.8,-6.8 -9.4,-6.8 -9.0,-6.8 -8.6,-6.9 -8.2,-6.9 -7.7,-6.9 -7.2,-7.0 -6.8,-7.0 -6.3,-7.0 -5.8,-7.0 -5.2,-7.0 -4.7,-7.0 -4.2,-7.0 -3.7,-7.0 -3.1,-7.0 -2.6,-7.0 -2.1,-7.0 -1.5,-7.0 -1.0,-6.9 -0.5,-6.9 0.1,-6.9 0.6,-6.9 1.1,-6.8 1.6,-6.8 2.1,-6.8 2.6,-6.7 3.1,-6.7 3.6,-6.6 4.0,-6.6 4.5,-6.5 4.9,-6.5 5.3,-6.4 5.7,-6.3 6.1,-6.3 6.5,-6.2 6.9,-6.1 7.2,-6.0 7.5,-6.0 7.9,-5.9 8.2,-5.8 8.5,-5.7 8.7,-5.6 9.0,-5.5 9.2,-5.4 9.5,-5.2 9.7,-5.1 9.9,-5.0 10.1,-4.9 10.3,-4.7 10.4,-4.6 10.6,-4.5 10.7,-4.3 10.8,-4.2 10.9,-4.0 11.0,-3.8 11.1,-3.7 11.2,-3.5 11.3,-3.3 11.3,-3.1 11.4,-2.9 11.4,-2.7 11.8,-1.7 11.7,-1.5 11.5,-1.3 11.3,-1.0 11.1,-0.8 10.9,-0.6 10.7,-0.3 10.5,-0.1 10.2,0.2 10.0,0.4 9.8,0.7 9.5,0.9 9.3,1.2 9.0,1.5 8.7,1.7 8.4,2.0 8.2,2.2 7.9,2.5 7.6,2.8 7.2,3.0 6.9,3.3 6.6,3.5 6.2,3.8 5.9,4.0 5.5,4.3 5.2,4.5 4.8,4.8 4.4,5.0 4.0,5.2 3.6,5.4 3.2,5.6 2.8,5.8 2.4,6.0 2.0,6.2 1.6,6.3 1.2,6.5 0.7,6.6 0.3,6.7 -0.1,6.8 -0.6,6.9 -1.0,6.9 -1.5,7.0 -1.9,7.0 -2.4,7.0 -2.8,7.0 -3.2,6.9 -3.7,6.9 -4.1,6.8 -4.6,6.7 -5.0,6.6 -5.4,6.5 -5.9,6.3 -6.3,6.1 -6.7,5.9 -7.1,5.7 -7.6,5.5 -8.0,5.2 -8.3,4.9 -8.7,4.6 -9.1,4.3 -9.5,4.0 -9.9,3.7 -10.2,3.3 -10.5,3.0 -10.9,2.6 -11.2,2.3 -11.5,2.0 -11.8,1.8 -12.1,1.5 -12.3,1.2 -12.6,0.9 -12.9,0.6 -13.1,0.3 -13.4,-0.0 -13.6,-0.3 -13.8,-0.6 -14.0,-0.9 -14.2,-1.2 -14.4,-1.5 -14.6,-1.7" fill="#fff" stroke="#fff" stroke-width="0" stroke-linejoin="round" filter="url(#fuzzy_av_1779093954987_359mm0g5e4q)"/><polyline points="-15.1,-3.4 -15.1,-3.7 -15.1,-3.9 -15.1,-4.1 -15.1,-4.2 -15.0,-4.4 -15.0,-4.6 -14.9,-4.8 -14.8,-4.9 -14.7,-5.1 -14.6,-5.2 -14.5,-5.3 -14.4,-5.5 -14.2,-5.6 -14.0,-5.7 -13.8,-5.8 -13.6,-5.9 -13.4,-6.0 -13.2,-6.1 -12.9,-6.2 -12.7,-6.2 -12.4,-6.3 -12.1,-6.4 -11.8,-6.4 -11.5,-6.5 -11.2,-6.5 -10.9,-6.6 -10.6,-6.7 -10.2,-6.7 -9.8,-6.8 -9.4,-6.8 -9.0,-6.8 -8.6,-6.9 -8.2,-6.9 -7.7,-6.9 -7.2,-7.0 -6.8,-7.0 -6.3,-7.0 -5.8,-7.0 -5.2,-7.0 -4.7,-7.0 -4.2,-7.0 -3.7,-7.0 -3.1,-7.0 -2.6,-7.0 -2.1,-7.0 -1.5,-7.0 -1.0,-6.9 -0.5,-6.9 0.1,-6.9 0.6,-6.9 1.1,-6.8 1.6,-6.8 2.1,-6.8 2.6,-6.7 3.1,-6.7 3.6,-6.6 4.0,-6.6 4.5,-6.5 4.9,-6.5 5.3,-6.4 5.7,-6.3 6.1,-6.3 6.5,-6.2 6.9,-6.1 7.2,-6.0 7.5,-6.0 7.9,-5.9 8.2,-5.8 8.5,-5.7 8.7,-5.6 9.0,-5.5 9.2,-5.4 9.5,-5.2 9.7,-5.1 9.9,-5.0 10.1,-4.9 10.3,-4.7 10.4,-4.6 10.6,-4.5 10.7,-4.3 10.8,-4.2 10.9,-4.0 11.0,-3.8 11.1,-3.7 11.2,-3.5 11.3,-3.3 11.3,-3.1 11.4,-2.9 11.4,-2.7 11.4,-2.5 11.4,-2.3 11.4,-2.1 11.4,-1.9 11.4,-1.7 11.4,-1.4 11.3,-1.2 11.3,-1.0 11.2,-0.7 11.2,-0.5" fill="none" stroke="#111" stroke-width="2.7463560117358723" stroke-linejoin="round" stroke-linecap="round" filter="url(#fuzzy_av_1779093954987_359mm0g5e4q)"/><polyline points="-15.7,-3.9 -15.7,-3.8 -15.6,-3.6 -15.5,-3.4 -15.4,-3.2 -15.3,-3.0 -15.2,-2.8 -15.1,-2.5 -14.9,-2.3 -14.8,-2.0 -14.6,-1.7 -14.4,-1.5 -14.2,-1.2 -14.0,-0.9 -13.8,-0.6 -13.6,-0.3 -13.4,-0.0 -13.1,0.3 -12.9,0.6 -12.6,0.9 -12.3,1.2 -12.1,1.5 -11.8,1.8 -11.5,2.0 -11.2,2.3 -10.9,2.6 -10.5,3.0 -10.2,3.3 -9.9,3.7 -9.5,4.0 -9.1,4.3 -8.7,4.6 -8.3,4.9 -8.0,5.2 -7.6,5.5 -7.1,5.7 -6.7,5.9 -6.3,6.1 -5.9,6.3 -5.4,6.5 -5.0,6.6 -4.6,6.7 -4.1,6.8 -3.7,6.9 -3.2,6.9 -2.8,7.0 -2.4,7.0 -1.9,7.0 -1.5,7.0 -1.0,6.9 -0.6,6.9 -0.1,6.8 0.3,6.7 0.7,6.6 1.2,6.5 1.6,6.3 2.0,6.2 2.4,6.0 2.8,5.8 3.2,5.6 3.6,5.4 4.0,5.2 4.4,5.0 4.8,4.8 5.2,4.5 5.5,4.3 5.9,4.0 6.2,3.8 6.6,3.5 6.9,3.3 7.2,3.0 7.6,2.8 7.9,2.5 8.2,2.2 8.4,2.0 8.7,1.7 9.0,1.5 9.3,1.2 9.5,0.9 9.8,0.7 10.0,0.4 10.2,0.2 10.5,-0.1 10.7,-0.3 10.9,-0.6 11.1,-0.8 11.3,-1.0 11.5,-1.3 11.7,-1.5 11.8,-1.7 12.0,-2.0 12.2,-2.2 12.3,-2.4 12.5,-2.6 12.6,-2.8 12.7,-3.0 12.9,-3.2 13.0,-3.4 13.1,-3.6 13.2,-3.8" fill="none" stroke="#111" stroke-width="2.4911072175976177" stroke-linejoin="round" stroke-linecap="round" filter="url(#fuzzy_av_1779093954987_359mm0g5e4q)"/><circle r="2.3003628077808105" cx="-0.34214467014742844" cy="2.768629168644604" stroke="#111" fill="none" stroke-width="1.0008732123748272" filter="url(#fuzzy_av_1779093954987_359mm0g5e4q)" clip-path="url(#rightEye_av_1779093954987_359mm0g5e4q)"/><circle r="2.783116253865805" cx="-0.05580350709909343" cy="0.01678140826783947" stroke="#111" fill="none" stroke-width="1.0465704506715672" filter="url(#fuzzy_av_1779093954987_359mm0g5e4q)" clip-path="url(#rightEye_av_1779093954987_359mm0g5e4q)"/><circle r="4.153728465104162" cx="-2.585175522794998" cy="-0.03432665957052561" stroke="#111" fill="none" stroke-width="1.2450348021336721" filter="url(#fuzzy_av_1779093954987_359mm0g5e4q)" clip-path="url(#rightEye_av_1779093954987_359mm0g5e4q)"/><circle r="3.7428076028847617" cx="1.4141635366407939" cy="2.731482805774292" stroke="#111" fill="none" stroke-width="1.27129945306941" filter="url(#fuzzy_av_1779093954987_359mm0g5e4q)" clip-path="url(#rightEye_av_1779093954987_359mm0g5e4q)"/><circle r="2.6219864533683697" cx="-2.233937898844718" cy="1.3197709420292099" stroke="#111" fill="none" stroke-width="1.194764664277407" filter="url(#fuzzy_av_1779093954987_359mm0g5e4q)" clip-path="url(#rightEye_av_1779093954987_359mm0g5e4q)"/><circle r="4.287309450907905" cx="0.5973129803874344" cy="2.971516784608746" stroke="#111" fill="none" stroke-width="1.3763656483585451" filter="url(#fuzzy_av_1779093954987_359mm0g5e4q)" clip-path="url(#rightEye_av_1779093954987_359mm0g5e4q)"/><circle r="4.09590835531172" cx="-1.8100748601048378" cy="-0.7088638719628837" stroke="#111" fill="none" stroke-width="1.0589166663163052" filter="url(#fuzzy_av_1779093954987_359mm0g5e4q)" clip-path="url(#rightEye_av_1779093954987_359mm0g5e4q)"/><circle r="2.735470663863994" cx="-0.0072376425578726256" cy="1.5061586556044468" stroke="#111" fill="none" stroke-width="1.2164848041016314" filter="url(#fuzzy_av_1779093954987_359mm0g5e4q)" clip-path="url(#rightEye_av_1779093954987_359mm0g5e4q)"/><circle r="2.540494480993157" cx="1.492083474029044" cy="1.416145822633423" stroke="#111" fill="none" stroke-width="0.8013816942287556" filter="url(#fuzzy_av_1779093954987_359mm0g5e4q)" clip-path="url(#rightEye_av_1779093954987_359mm0g5e4q)"/><circle r="3.2960493852764694" cx="-2.399030479562163" cy="-0.494621290634919" stroke="#111" fill="none" stroke-width="1.1096197978321465" filter="url(#fuzzy_av_1779093954987_359mm0g5e4q)" clip-path="url(#rightEye_av_1779093954987_359mm0g5e4q)"/></g><g id="hairs"><polyline points="32.3,-59.9 32.6,-58.2 32.9,-56.7 32.7,-56.6 32.1,-54.9 30.9,-56.3 29.1,-54.8 26.7,-55.0 23.7,-55.1 19.9,-55.5 15.5,-55.8 10.4,-57.3 4.5,-57.7 -2.0,-59.2 -9.2,-60.6 -17.2,-61.8 -26.7,-64.6" fill="none" stroke="rgb(128,128,128)" stroke-width="1.8379561414260217" stroke-linejoin="round" stroke-linecap="round" filter="url(#fuzzy_av_1779093954987_359mm0g5e4q)" opacity="0.9564157412900577"/><polyline points="-46.3,-22.2 -46.1,-23.7 -45.6,-24.9 -44.9,-27.3 -44.1,-29.2 -43.1,-30.3 -41.9,-33.7 -40.7,-35.9 -39.3,-37.4 -37.9,-39.9 -36.3,-42.4 -34.7,-43.8 -33.1,-46.2 -31.4,-48.5 -29.6,-52.1 -27.8,-54.7 -25.9,-57.5 -24.2,-60.0 -22.5,-60.8 -20.9,-62.9 -19.5,-65.4 -18.3,-66.2 -17.1,-69.8 -16.0,-69.3 -15.1,-70.8" fill="none" stroke="rgb(128,128,128)" stroke-width="1.047930073636038" stroke-linejoin="round" stroke-linecap="round" filter="url(#fuzzy_av_1779093954987_359mm0g5e4q)" opacity="0.9958000768271424"/><polyline points="17.9,-71.9 18.1,-69.9 18.7,-69.2 19.3,-69.8 19.7,-67.2 19.8,-67.5 19.6,-64.7 19.0,-62.8 18.1,-61.3 16.9,-60.9 15.4,-58.6 13.6,-55.5 11.5,-53.3 9.1,-50.9 6.4,-49.6 3.3,-46.2 -0.2,-43.4 -4.1,-39.0 -8.2,-35.4 -12.7,-31.0 -17.6,-28.3 -22.7,-24.5 -28.2,-20.1 -34.1,-15.0 -40.4,-10.3 -47.1,-7.4" fill="none" stroke="rgb(128,128,128)" stroke-width="1.0684393432590276" stroke-linejoin="round" stroke-linecap="round" filter="url(#fuzzy_av_1779093954987_359mm0g5e4q)" opacity="0.8690911111021822"/><polyline points="-46.1,-24.7 -45.7,-27.5 -45.1,-28.7 -44.3,-29.9 -43.4,-31.7 -42.4,-33.3 -41.2,-35.0 -39.8,-38.4 -38.4,-40.7 -36.8,-42.2 -35.2,-44.8 -33.5,-49.0 -31.7,-49.9 -30.1,-54.0 -28.4,-55.5 -26.8,-59.0 -25.2,-60.1 -23.8,-63.3 -22.5,-63.7 -21.4,-65.9 -20.8,-68.1 -20.8,-69.1" fill="none" stroke="rgb(128,128,128)" stroke-width="2.1483805848803064" stroke-linejoin="round" stroke-linecap="round" filter="url(#fuzzy_av_1779093954987_359mm0g5e4q)" opacity="0.8773091929011916"/><polyline points="-39.2,-48.1 -38.5,-48.5 -37.7,-50.4 -37.1,-50.4 -36.7,-50.2 -36.5,-50.3 -36.3,-49.1 -36.2,-48.4 -36.2,-48.0 -36.2,-46.1 -36.4,-44.0 -36.7,-40.4 -37.1,-37.6 -37.7,-33.6 -38.4,-28.8 -39.3,-22.2 -40.4,-14.8 -41.7,-9.0 -43.2,0.3 -45.1,8.0" fill="none" stroke="rgb(128,128,128)" stroke-width="1.7999804667628545" stroke-linejoin="round" stroke-linecap="round" filter="url(#fuzzy_av_1779093954987_359mm0g5e4q)" opacity="0.7937114900595054"/><polyline points="33.6,-56.4 34.3,-55.9 34.0,-55.1 32.9,-53.3 31.0,-50.3 28.2,-47.6 24.6,-46.0 20.2,-43.1 14.9,-41.7 8.7,-37.2 1.6,-34.7 -6.3,-30.7 -15.2,-26.4 -24.9,-21.6 -35.5,-18.3 -47.2,-14.6" fill="none" stroke="rgb(128,128,128)" stroke-width="1.913902271110995" stroke-linejoin="round" stroke-linecap="round" filter="url(#fuzzy_av_1779093954987_359mm0g5e4q)" opacity="0.9391676763733791"/><polyline points="15.6,-71.8 15.4,-71.7 15.7,-72.6 16.2,-71.4 16.5,-71.0 16.7,-69.4 16.5,-70.5 16.0,-69.3 15.1,-68.4 13.7,-69.3 11.8,-67.6 9.4,-68.6 6.4,-68.1 2.8,-67.8 -1.3,-67.4 -6.0,-66.0 -11.3,-66.6 -17.2,-66.7 -24.0,-66.8" fill="none" stroke="rgb(128,128,128)" stroke-width="1.615455507348281" stroke-linejoin="round" stroke-linecap="round" filter="url(#fuzzy_av_1779093954987_359mm0g5e4q)" opacity="0.8560503977260864"/><polyline points="-31.7,-59.4 -30.5,-59.1 -29.6,-60.1 -28.9,-60.6 -28.3,-61.1 -27.8,-60.9 -27.4,-61.5 -27.3,-60.0 -27.3,-59.8 -27.5,-58.2 -27.8,-56.1 -28.4,-54.3 -29.1,-52.1 -30.0,-47.1 -31.1,-45.2 -32.5,-39.1 -34.1,-35.5 -36.0,-30.2 -38.3,-24.0 -40.8,-17.2 -43.6,-9.6 -46.9,-3.9" fill="none" stroke="rgb(128,128,128)" stroke-width="1.870303669457904" stroke-linejoin="round" stroke-linecap="round" filter="url(#fuzzy_av_1779093954987_359mm0g5e4q)" opacity="0.7999053351471664"/><polyline points="20.5,-69.6 21.9,-68.7 22.1,-67.0 22.2,-66.9 22.0,-65.0 21.4,-63.2 20.3,-62.4 18.9,-59.6 17.1,-58.0 14.9,-54.6 12.3,-51.7 9.3,-47.7 5.8,-45.1 1.7,-41.9 -2.7,-36.2 -7.6,-32.0 -13.0,-27.8 -18.8,-23.6 -25.0,-18.6 -31.7,-12.0 -39.0,-8.0 -46.6,-1.5" fill="none" stroke="rgb(128,128,128)" stroke-width="0.9597930521467746" stroke-linejoin="round" stroke-linecap="round" filter="url(#fuzzy_av_1779093954987_359mm0g5e4q)" opacity="0.9020381695569821"/><polyline points="-45.0,-30.2 -44.8,-30.6 -44.3,-31.8 -43.5,-33.4 -42.5,-34.7 -41.3,-38.0 -40.1,-39.9 -38.7,-42.5 -37.2,-46.0 -35.6,-47.5 -34.1,-49.6 -32.5,-52.3 -31.0,-55.3 -29.6,-57.3 -28.4,-60.6 -27.2,-61.1 -26.2,-63.6 -25.4,-63.5 -24.8,-65.9" fill="none" stroke="rgb(128,128,128)" stroke-width="1.3883428079377858" stroke-linejoin="round" stroke-linecap="round" filter="url(#fuzzy_av_1779093954987_359mm0g5e4q)" opacity="0.9707378587878074"/><polyline points="27.2,-63.6 28.0,-62.8 28.9,-63.2 29.9,-61.7 30.7,-61.7 31.2,-59.5 31.4,-59.0 31.5,-58.6 31.4,-58.4 31.1,-59.0 30.5,-58.7 29.7,-58.6 28.7,-59.7 27.2,-60.3 25.5,-61.7 23.4,-64.2 20.8,-65.8 17.9,-67.0 14.6,-70.7 11.1,-72.6" fill="none" stroke="rgb(128,128,128)" stroke-width="2.42819575320539" stroke-linejoin="round" stroke-linecap="round" filter="url(#fuzzy_av_1779093954987_359mm0g5e4q)" opacity="0.8977410039902708"/><polyline points="-47.2,-13.8 -46.9,-15.7 -46.3,-16.1 -45.2,-19.0 -43.9,-22.4 -42.4,-26.7 -40.6,-28.5 -38.5,-32.8 -36.3,-37.2 -33.8,-40.2 -31.3,-44.5 -28.7,-49.0 -26.0,-54.3 -23.4,-57.6 -20.7,-63.4 -17.9,-68.1 -15.1,-71.4" fill="none" stroke="rgb(128,128,128)" stroke-width="1.804313097965444" stroke-linejoin="round" stroke-linecap="round" filter="url(#fuzzy_av_1779093954987_359mm0g5e4q)" opacity="0.9285819329358151"/><polyline points="5.6,-73.7 6.9,-75.1 7.6,-74.6 8.1,-72.7 8.3,-72.6 8.2,-71.5 7.7,-70.9 6.7,-70.2 5.4,-68.6 3.6,-68.0 1.5,-67.3 -1.2,-64.6 -4.3,-62.9 -7.8,-60.0 -11.9,-58.6 -16.5,-54.6 -21.8,-52.3 -27.8,-48.7 -34.5,-45.4 -41.9,-40.9" fill="none" stroke="rgb(128,128,128)" stroke-width="2.4144922732368577" stroke-linejoin="round" stroke-linecap="round" filter="url(#fuzzy_av_1779093954987_359mm0g5e4q)" opacity="0.872240449787925"/><polyline points="-35.4,-54.7 -34.9,-54.4 -34.0,-56.4 -32.8,-56.2 -31.4,-58.1 -29.8,-58.6 -28.2,-61.4 -26.5,-62.3 -24.7,-63.2 -23.0,-64.7 -21.4,-65.5 -20.0,-67.5 -18.7,-69.5 -17.7,-68.6 -17.0,-70.0 -16.5,-71.5 -16.5,-70.4 -17.5,-70.1" fill="none" stroke="rgb(128,128,128)" stroke-width="1.3484243270217031" stroke-linejoin="round" stroke-linecap="round" filter="url(#fuzzy_av_1779093954987_359mm0g5e4q)" opacity="0.9325248214359682"/><polyline points="-24.3,-66.3 -24.4,-66.5 -23.8,-65.6 -23.1,-67.4 -22.3,-67.9 -21.6,-67.4 -20.9,-67.8 -20.3,-69.0 -19.8,-67.4 -19.5,-69.1 -19.3,-68.2 -19.4,-67.5 -19.6,-66.7 -20.0,-65.0 -20.7,-64.2 -21.6,-64.0 -22.8,-61.1 -24.4,-58.7 -26.2,-56.3 -28.4,-53.9 -30.9,-50.5 -33.7,-48.1 -36.8,-43.0 -40.1,-38.9 -43.3,-36.6" fill="none" stroke="rgb(128,128,128)" stroke-width="0.8147320786597811" stroke-linejoin="round" stroke-linecap="round" filter="url(#fuzzy_av_1779093954987_359mm0g5e4q)" opacity="0.9246531489875391"/><polyline points="37.8,-50.3 38.3,-49.2 38.8,-48.1 39.0,-47.9 39.2,-47.7 39.3,-47.9 39.1,-46.2 38.7,-46.8 38.1,-47.6 37.0,-49.8 35.7,-51.4 34.0,-53.5 31.9,-56.2 29.3,-59.5 26.0,-62.2 22.0,-67.5" fill="none" stroke="rgb(128,128,128)" stroke-width="2.193656138573539" stroke-linejoin="round" stroke-linecap="round" filter="url(#fuzzy_av_1779093954987_359mm0g5e4q)" opacity="0.8186990484921117"/><polyline points="30.2,-61.1 31.4,-59.1 31.8,-58.4 32.0,-59.1 32.2,-57.8 32.2,-56.8 32.2,-56.6 32.0,-56.3 31.6,-55.7 31.0,-54.7 30.1,-55.4 28.8,-54.3 27.3,-53.8 25.4,-54.3 23.3,-55.2 20.8,-54.6 18.0,-55.2 14.9,-57.2 11.4,-56.4 7.5,-57.8 3.2,-58.9 -1.5,-59.3 -6.5,-61.4 -11.9,-62.6 -17.7,-64.8 -24.0,-66.1" fill="none" stroke="rgb(128,128,128)" stroke-width="0.7450424240480166" stroke-linejoin="round" stroke-linecap="round" filter="url(#fuzzy_av_1779093954987_359mm0g5e4q)" opacity="0.934957082228892"/><polyline points="36.8,-53.1 37.5,-51.1 37.9,-49.9 38.0,-48.1 37.8,-47.6 37.4,-47.7 36.7,-46.6 35.8,-46.5 34.6,-45.4 33.1,-45.1 31.2,-44.4 29.0,-45.9 26.5,-45.2 23.6,-45.4 20.4,-46.4 16.9,-45.9 12.9,-46.7 8.5,-45.9 3.7,-47.9 -1.5,-47.7 -7.1,-49.6 -13.1,-50.7 -19.5,-52.3 -26.3,-53.9 -33.2,-56.6" fill="none" stroke="rgb(128,128,128)" stroke-width="1.7767352881308864" stroke-linejoin="round" stroke-linecap="round" filter="url(#fuzzy_av_1779093954987_359mm0g5e4q)" opacity="0.7661339263768605"/><polyline points="-45.9,-25.6 -45.4,-28.2 -45.1,-30.2 -44.7,-31.9 -44.3,-32.1 -43.9,-33.5 -43.4,-35.3 -42.9,-36.5 -42.5,-37.5 -42.1,-39.4 -41.7,-41.5 -41.4,-41.0 -41.2,-43.4 -41.1,-42.0 -41.1,-43.7 -41.3,-42.8 -41.7,-41.7 -42.3,-40.0 -42.9,-38.3 -43.3,-36.7" fill="none" stroke="rgb(128,128,128)" stroke-width="2.141459569832006" stroke-linejoin="round" stroke-linecap="round" filter="url(#fuzzy_av_1779093954987_359mm0g5e4q)" opacity="0.9354618165713674"/><polyline points="-20.1,-68.0 -20.0,-68.3 -19.1,-69.6 -18.2,-69.6 -17.6,-69.5 -17.2,-69.4 -17.0,-69.3 -17.1,-69.0 -17.4,-67.5 -18.0,-67.9 -19.0,-64.7 -20.4,-64.1 -22.2,-62.2 -24.5,-59.5 -27.3,-55.0 -30.6,-51.9 -34.2,-47.9 -38.4,-43.8 -43.3,-37.6" fill="none" stroke="rgb(128,128,128)" stroke-width="1.6236896626190915" stroke-linejoin="round" stroke-linecap="round" filter="url(#fuzzy_av_1779093954987_359mm0g5e4q)" opacity="0.7511819490806398"/><polyline points="46.2,-23.7 46.7,-20.3 47.9,-18.2 49.6,-16.0 51.4,-13.6 52.7,-10.5 53.3,-6.3 53.2,-3.5 52.7,0.1 51.9,3.4 51.2,5.7 50.6,9.3 50.0,12.3 49.5,13.6 48.9,17.8 48.3,20.5 47.7,22.8 47.2,25.3 46.8,28.0 46.4,30.9 46.2,33.0 46.1,34.5 45.9,36.3 45.4,38.6 44.4,41.4 42.9,43.6 41.0,44.9 38.8,46.8 36.8,48.2 35.7,49.7" fill="none" stroke="rgb(128,128,128)" stroke-width="0.9496865806049124" stroke-linejoin="round" stroke-linecap="round" filter="url(#fuzzy_av_1779093954987_359mm0g5e4q)" opacity="0.8046921980318684"/><polyline points="42.7,-40.0 42.3,-36.1 42.8,-32.7 43.4,-30.3 43.7,-26.6 43.6,-24.9 42.9,-20.3 42.1,-19.0 41.2,-16.5 40.6,-12.4 40.1,-10.9 39.5,-6.6 38.8,-3.1 37.8,-0.9 36.7,2.2 35.4,6.3 34.0,9.3 32.6,10.3 31.3,14.4 30.2,16.3 29.2,20.2 28.3,22.5 27.4,25.5 26.4,28.0 25.3,30.4 24.1,32.8 22.9,34.9 21.6,37.7 20.3,40.1 18.8,41.1 17.1,43.0 15.1,44.3 13.2,48.1 11.4,48.8" fill="none" stroke="rgb(128,128,128)" stroke-width="1.863117396884771" stroke-linejoin="round" stroke-linecap="round" filter="url(#fuzzy_av_1779093954987_359mm0g5e4q)" opacity="0.9448200623145915"/><polyline points="43.0,-38.3 43.4,-37.5 44.4,-34.1 45.8,-30.9 47.2,-28.5 48.2,-25.0 48.7,-22.0 49.0,-18.7 49.0,-16.2 49.0,-12.5 49.0,-9.8 49.0,-7.8 48.9,-4.3 48.8,-2.2 48.6,1.3 48.4,3.3 48.2,7.4 47.9,9.4 47.6,12.4 47.2,16.2 46.8,18.7 46.3,21.6 45.7,23.5 45.0,25.3 44.3,29.6 43.3,30.7 42.2,34.2 41.0,36.4 39.6,37.7 38.1,39.9 36.5,42.4 34.9,45.8 33.2,47.3 31.5,48.0 29.8,50.6 28.2,52.1 26.6,52.4 24.8,53.7 22.5,56.5" fill="none" stroke="rgb(128,128,128)" stroke-width="0.8745609580697589" stroke-linejoin="round" stroke-linecap="round" filter="url(#fuzzy_av_1779093954987_359mm0g5e4q)" opacity="0.8811021058872301"/><polyline points="40.5,-45.5 41.6,-43.1 42.5,-40.0 43.3,-37.6 44.1,-33.8 44.9,-32.0 45.6,-28.1 46.3,-25.3 47.0,-21.6 47.6,-18.9 48.1,-17.0 48.5,-12.8 48.7,-10.3 48.8,-8.8 48.8,-5.7 48.8,-2.7 48.7,1.1 48.6,4.4 48.4,6.6 48.2,10.0 47.9,11.8 47.5,15.7 47.0,18.4 46.5,20.0 45.8,23.7 45.2,26.7 44.4,28.7 43.5,31.7 42.5,33.0 41.4,35.8 40.0,38.9 38.5,40.7 36.9,42.4 35.1,43.9 33.3,47.4 31.7,47.9 30.3,50.6 29.0,51.5" fill="none" stroke="rgb(128,128,128)" stroke-width="1.077416702461663" stroke-linejoin="round" stroke-linecap="round" filter="url(#fuzzy_av_1779093954987_359mm0g5e4q)" opacity="0.7624653992064783"/><polyline points="32.6,-59.4 34.8,-55.0 36.5,-52.6 37.9,-51.7 39.1,-49.6 40.4,-46.9 41.8,-44.5 43.2,-42.4 44.5,-38.5 45.5,-35.7 46.5,-33.3 47.3,-31.1 48.0,-27.1 48.8,-24.3 49.4,-22.8 50.0,-20.5 50.4,-17.8 50.8,-13.9 51.1,-11.2 51.4,-8.9 51.7,-5.1 51.9,-1.2 52.1,2.3 52.3,5.4 52.4,7.6 52.5,10.5 52.6,13.4 51.9,17.1" fill="none" stroke="rgb(128,128,128)" stroke-width="1.6307767392483221" stroke-linejoin="round" stroke-linecap="round" filter="url(#fuzzy_av_1779093954987_359mm0g5e4q)" opacity="0.941262146590141"/><polyline points="32.0,-59.4 32.7,-58.5 33.8,-56.0 35.2,-53.8 36.6,-53.2 37.9,-51.0 39.1,-48.7 40.2,-46.0 41.3,-42.7 42.2,-40.8 43.1,-37.2 43.8,-33.9 44.5,-31.6 45.2,-28.0 45.7,-26.6 46.1,-22.9 46.4,-20.6 46.7,-17.7 46.8,-14.1 46.8,-11.6 46.8,-8.1 46.7,-4.9 46.5,-2.9 46.2,-0.2 45.8,2.5 45.4,5.6 44.9,8.4 44.3,12.8 43.6,15.6 42.8,17.2 42.0,21.2 41.1,24.0 40.2,25.5 39.2,29.1 38.1,30.3 36.9,33.1 35.6,36.6 34.3,37.4 33.0,39.7" fill="none" stroke="rgb(128,128,128)" stroke-width="1.980129995243405" stroke-linejoin="round" stroke-linecap="round" filter="url(#fuzzy_av_1779093954987_359mm0g5e4q)" opacity="0.9020481036602875"/><polyline points="30.2,-61.2 32.1,-59.0 33.9,-57.0 35.5,-55.1 37.0,-53.7 38.3,-50.7 39.5,-48.4 40.8,-47.4 42.2,-45.1 43.7,-42.6 45.3,-40.0 47.1,-36.4 49.1,-33.4 51.0,-30.7 53.0,-28.1 54.9,-25.6 56.6,-22.2 58.1,-20.2 59.3,-16.7 60.1,-14.1 60.5,-11.8 60.6,-9.4 60.5,-4.8 60.6,-2.0 61.0,0.7 61.7,3.9 62.3,7.3 62.6,11.1 62.7,12.1" fill="none" stroke="rgb(128,128,128)" stroke-width="2.569302256524243" stroke-linejoin="round" stroke-linecap="round" filter="url(#fuzzy_av_1779093954987_359mm0g5e4q)" opacity="0.8054062310018606"/><polyline points="27.2,-64.0 29.1,-61.6 31.3,-60.1 33.3,-59.5 35.1,-57.7 36.7,-55.4 38.3,-52.2 39.9,-49.9 41.4,-48.9 42.9,-44.9 44.5,-44.1 46.0,-41.3 47.6,-39.2 49.3,-35.0 50.8,-31.9 52.3,-30.6 53.7,-25.9 55.1,-23.5 56.7,-19.8 58.3,-17.1 59.7,-14.6 60.9,-13.2 61.6,-10.6 62.3,-8.2" fill="none" stroke="rgb(128,128,128)" stroke-width="1.506512127125074" stroke-linejoin="round" stroke-linecap="round" filter="url(#fuzzy_av_1779093954987_359mm0g5e4q)" opacity="0.87219277562829"/><polyline points="23.2,-66.7 24.8,-66.9 26.2,-65.0 27.7,-64.3 29.4,-61.5 31.3,-60.6 33.3,-59.0 35.4,-57.2 37.6,-54.5 39.7,-53.7 41.8,-50.3 43.9,-48.7 46.2,-46.8 48.7,-43.5 51.1,-41.2 53.5,-38.8 55.7,-36.8 57.6,-33.7 59.4,-30.8 61.2,-25.9 62.9,-22.7 64.5,-20.9 65.7,-17.9 66.2,-15.3" fill="none" stroke="rgb(128,128,128)" stroke-width="2.173568117945022" stroke-linejoin="round" stroke-linecap="round" filter="url(#fuzzy_av_1779093954987_359mm0g5e4q)" opacity="0.8659835426859759"/><polyline points="23.2,-68.2 24.3,-66.4 26.1,-65.8 28.3,-64.6 30.4,-62.8 32.3,-60.1 34.0,-58.1 35.6,-56.7 37.1,-53.8 38.7,-52.5 40.2,-51.1 41.6,-47.9 42.9,-44.5 44.1,-43.5 45.2,-41.1 46.3,-36.8 47.3,-35.7 48.3,-31.4 49.1,-29.4 49.9,-25.7 50.5,-23.4 51.0,-20.5 51.4,-17.8 51.7,-14.6 52.0,-11.7 52.1,-8.9 52.2,-6.5 52.1,-3.3 52.1,-0.6 51.9,2.2 51.8,5.6 51.7,8.7 51.5,12.6 51.3,13.9 51.0,17.8 50.5,20.3 49.8,23.8 48.9,25.6 47.5,29.4" fill="none" stroke="rgb(128,128,128)" stroke-width="2.049894489301196" stroke-linejoin="round" stroke-linecap="round" filter="url(#fuzzy_av_1779093954987_359mm0g5e4q)" opacity="0.9661204480747332"/><polyline points="23.2,-67.8 24.0,-66.0 25.8,-65.4 27.9,-64.0 30.2,-61.5 32.5,-60.8 34.6,-58.4 36.5,-57.2 38.2,-55.4 40.0,-53.0 41.8,-51.2 43.6,-48.8 45.5,-45.7 47.4,-42.8 49.4,-42.0 51.4,-38.3 53.4,-35.6 55.4,-33.9 57.5,-29.9 59.5,-27.6 61.5,-22.9 63.2,-20.6 64.6,-18.6 66.0,-15.1 67.8,-13.9" fill="none" stroke="rgb(128,128,128)" stroke-width="1.7554659938988988" stroke-linejoin="round" stroke-linecap="round" filter="url(#fuzzy_av_1779093954987_359mm0g5e4q)" opacity="0.9281310335066518"/><polyline points="20.5,-69.3 22.5,-67.4 24.6,-67.1 26.5,-64.7 28.3,-63.8 30.2,-61.4 32.1,-60.0 33.8,-57.8 35.4,-55.2 36.8,-53.9 38.1,-52.1 39.3,-49.0 40.5,-46.4 41.6,-43.8 42.7,-42.3 43.9,-40.7 45.0,-36.8 46.1,-33.7 47.3,-30.9 48.5,-28.4 49.6,-25.6 50.6,-22.2 51.4,-20.7 51.9,-16.7 52.2,-14.9 52.4,-12.2 52.4,-9.9 52.5,-5.6 52.6,-4.2" fill="none" stroke="rgb(128,128,128)" stroke-width="1.136031925077229" stroke-linejoin="round" stroke-linecap="round" filter="url(#fuzzy_av_1779093954987_359mm0g5e4q)" opacity="0.9675437648993261"/><polyline points="17.9,-70.6 20.0,-70.0 22.4,-68.7 24.6,-66.7 26.5,-64.8 28.2,-63.3 30.0,-63.4 31.7,-59.8 33.5,-58.0 35.2,-56.1 36.9,-55.1 38.5,-52.4 40.1,-49.6 41.6,-48.2 43.0,-46.7 44.3,-42.9 45.7,-40.1 47.0,-37.9 48.3,-34.8 49.5,-32.3 50.7,-29.2 51.8,-25.5 52.7,-23.1 53.5,-21.1 54.2,-16.7 54.8,-15.6 55.2,-11.9 55.4,-8.9 55.4,-5.9 55.3,-3.0 55.3,0.1 55.5,2.7 55.3,7.3 54.8,9.6" fill="none" stroke="rgb(128,128,128)" stroke-width="2.5347554402895787" stroke-linejoin="round" stroke-linecap="round" filter="url(#fuzzy_av_1779093954987_359mm0g5e4q)" opacity="0.8872933415915947"/><polyline points="15.0,-71.2 17.4,-71.6 19.7,-70.0 22.3,-67.4 24.9,-66.0 27.4,-65.8 29.7,-63.8 31.9,-63.3 34.0,-60.9 36.0,-58.6 37.9,-56.7 39.7,-54.6 41.4,-53.3 43.2,-50.9 45.1,-48.4 47.0,-44.7 49.0,-43.8 51.0,-39.7 52.7,-38.3 54.3,-35.5 55.5,-31.5 56.5,-29.3 57.3,-26.6 57.9,-23.5 58.4,-20.9 58.8,-17.1 59.2,-14.1 59.5,-11.4 59.7,-9.1 59.9,-7.1 60.1,-2.8 60.3,0.4 60.8,3.7 61.3,6.3 61.8,8.2 62.0,11.5 61.8,13.1 61.4,16.4 60.5,21.8" fill="none" stroke="rgb(128,128,128)" stroke-width="2.150997070668711" stroke-linejoin="round" stroke-linecap="round" filter="url(#fuzzy_av_1779093954987_359mm0g5e4q)" opacity="0.8285110617287614"/><polyline points="13.4,-73.5 15.1,-72.1 17.1,-71.4 19.2,-70.0 21.2,-68.1 23.2,-67.6 25.0,-64.6 26.8,-64.0 28.4,-61.8 30.0,-60.4 31.5,-59.0 33.0,-56.3 34.4,-55.5 35.7,-53.5 36.9,-49.7 38.1,-48.0 39.2,-46.9 40.2,-43.5 41.1,-40.7 42.0,-37.4 42.7,-35.0 43.4,-33.1 44.1,-29.5 44.6,-26.0 44.9,-23.3 45.2,-20.1 45.4,-17.6 45.5,-14.7 45.6,-12.2 45.5,-9.2 45.4,-7.8 45.2,-4.6 44.8,0.2 44.3,3.1 43.5,7.9" fill="none" stroke="rgb(128,128,128)" stroke-width="1.6019775567583772" stroke-linejoin="round" stroke-linecap="round" filter="url(#fuzzy_av_1779093954987_359mm0g5e4q)" opacity="0.8737157945375748"/><polyline points="12.0,-72.6 15.3,-71.3 17.1,-71.7 18.8,-69.9 20.7,-69.6 22.9,-67.8 25.1,-67.2 27.4,-65.4 29.6,-63.5 31.6,-60.7 33.5,-60.3 35.3,-56.8 37.0,-56.3 38.6,-54.0 40.1,-50.8 41.6,-48.7 42.9,-47.5 44.2,-43.7 45.5,-41.4 46.7,-39.3 47.9,-36.4 49.1,-34.9 50.4,-31.9 51.7,-28.3 52.9,-24.9 54.0,-22.1 55.0,-20.5 55.8,-17.2 56.3,-14.2 56.7,-11.4 57.0,-8.5 57.1,-5.1 57.3,-2.0 57.4,2.1 57.6,4.1 57.6,8.2 57.5,11.2 57.0,12.0 56.1,16.1" fill="none" stroke="rgb(128,128,128)" stroke-width="0.8372039838153331" stroke-linejoin="round" stroke-linecap="round" filter="url(#fuzzy_av_1779093954987_359mm0g5e4q)" opacity="0.9629972952890657"/><polyline points="11.1,-74.0 12.7,-73.2 14.7,-73.1 16.7,-71.5 18.7,-71.3 20.8,-68.4 23.0,-68.3 25.4,-65.9 27.9,-64.9 30.4,-63.1 32.9,-62.5 35.2,-59.4 37.4,-57.8 39.4,-57.2 41.4,-54.1 43.4,-52.3 45.3,-50.8 47.0,-47.6 48.4,-45.9 49.7,-44.1 50.8,-40.3 52.1,-39.0 53.7,-36.4 55.8,-33.8 57.9,-30.5" fill="none" stroke="rgb(128,128,128)" stroke-width="1.3050334619266515" stroke-linejoin="round" stroke-linecap="round" filter="url(#fuzzy_av_1779093954987_359mm0g5e4q)" opacity="0.9385690715475636"/><polyline points="8.9,-74.1 11.7,-73.2 14.2,-72.9 16.4,-72.1 18.4,-71.6 20.5,-69.0 22.5,-68.4 24.6,-67.0 26.7,-66.6 28.8,-65.3 30.9,-63.5 33.0,-60.6 35.0,-58.8 36.9,-57.3 38.8,-55.6 40.6,-53.8 42.4,-51.4 44.3,-48.1 46.0,-45.9 47.7,-43.5 49.1,-42.1 50.4,-39.3 51.7,-36.9 53.4,-33.8 55.8,-31.1" fill="none" stroke="rgb(128,128,128)" stroke-width="1.9422657008931141" stroke-linejoin="round" stroke-linecap="round" filter="url(#fuzzy_av_1779093954987_359mm0g5e4q)" opacity="0.9580449572609604"/><polyline points="8.9,-73.2 11.4,-73.0 13.6,-73.7 15.6,-71.1 17.6,-70.1 19.7,-70.2 21.8,-68.3 23.9,-66.5 26.0,-65.2 28.1,-64.2 30.2,-63.3 32.3,-60.4 34.6,-58.2 36.8,-56.7 39.1,-54.9 41.2,-52.6 43.1,-49.8 44.9,-48.8 46.4,-46.3 47.9,-42.7 49.4,-39.8 51.0,-38.4 52.7,-35.5 54.5,-32.6 56.4,-28.6 58.1,-27.4 59.7,-22.9 61.0,-19.6 61.9,-17.7 62.5,-14.4 62.8,-13.1 63.0,-9.8 63.1,-5.7 63.3,-2.6 63.5,-0.3 63.4,2.0 63.0,6.0 62.6,8.5 63.0,11.7" fill="none" stroke="rgb(128,128,128)" stroke-width="2.422378012586622" stroke-linejoin="round" stroke-linecap="round" filter="url(#fuzzy_av_1779093954987_359mm0g5e4q)" opacity="0.8074341138881834"/><polyline points="7.7,-73.9 10.9,-73.3 13.3,-73.0 15.2,-72.6 17.0,-71.2 18.9,-71.4 20.9,-69.3 23.0,-68.5 25.1,-65.8 27.2,-64.6 29.3,-62.8 31.4,-62.1 33.5,-60.3 35.5,-57.6 37.6,-55.5 39.6,-53.0 41.8,-51.7 44.0,-50.1 46.3,-48.1 48.6,-45.6 51.0,-42.7 53.1,-39.9 55.1,-37.4 56.7,-34.8 58.0,-30.6 58.8,-29.3 59.5,-26.4 60.0,-22.3 60.7,-20.7 61.5,-17.6 62.5,-14.2 63.4,-11.0 64.1,-9.8 64.5,-5.3 64.4,-2.2 64.1,-0.3 64.1,2.7" fill="none" stroke="rgb(128,128,128)" stroke-width="1.1643075284738083" stroke-linejoin="round" stroke-linecap="round" filter="url(#fuzzy_av_1779093954987_359mm0g5e4q)" opacity="0.894663133995648"/><polyline points="7.7,-73.8 10.5,-74.3 12.8,-72.2 14.8,-71.5 16.9,-72.0 19.0,-69.7 21.4,-69.2 23.8,-67.7 26.2,-65.9 28.4,-65.3 30.4,-64.3 32.3,-62.2 34.1,-59.5 36.0,-58.2 37.8,-57.1 39.7,-54.4 41.6,-52.0 43.5,-50.1 45.3,-49.1 47.1,-45.8 49.0,-43.3 50.8,-40.8 52.7,-39.9" fill="none" stroke="rgb(128,128,128)" stroke-width="1.4272198037013033" stroke-linejoin="round" stroke-linecap="round" filter="url(#fuzzy_av_1779093954987_359mm0g5e4q)" opacity="0.8768645968903763"/><polyline points="2.0,-75.5 5.1,-74.3 7.6,-74.8 9.7,-74.6 11.7,-72.8 13.8,-72.8 16.0,-71.7 18.4,-70.5 20.9,-69.8 23.6,-67.7 26.3,-68.2 28.8,-65.5 31.2,-65.4 33.4,-61.9 35.4,-61.2 37.4,-59.9 39.6,-58.6 41.9,-56.6 44.5,-53.0 47.1,-52.3 49.6,-50.0 51.9,-46.9 54.1,-44.1 56.3,-42.2 58.5,-40.5 60.7,-37.0 63.1,-35.2" fill="none" stroke="rgb(128,128,128)" stroke-width="1.380786381714957" stroke-linejoin="round" stroke-linecap="round" filter="url(#fuzzy_av_1779093954987_359mm0g5e4q)" opacity="0.898831224311579"/><polyline points="2.0,-74.6 4.8,-75.1 7.1,-74.9 9.2,-74.3 11.4,-74.3 13.7,-73.3 16.0,-71.4 18.6,-71.5 21.2,-69.6 23.8,-69.5 26.3,-66.4 28.8,-66.5 31.2,-63.5 33.6,-63.5 36.0,-61.7 38.3,-59.8 40.7,-57.6 43.1,-56.5 45.7,-52.8 48.3,-51.6 50.8,-49.9 53.1,-47.1 55.1,-44.3 56.8,-42.5 58.4,-40.2 60.1,-37.9 62.1,-34.1 64.2,-30.7 65.0,-26.1" fill="none" stroke="rgb(128,128,128)" stroke-width="2.1521164605397156" stroke-linejoin="round" stroke-linecap="round" filter="url(#fuzzy_av_1779093954987_359mm0g5e4q)" opacity="0.8989778545573455"/><polyline points="-4.3,-73.7 -1.6,-74.8 0.7,-74.2 3.0,-75.1 5.3,-73.6 7.7,-74.5 10.0,-73.9 12.2,-73.5 14.4,-72.9 16.5,-70.6 18.5,-69.9 20.6,-69.9 22.6,-68.4 24.6,-66.0 26.6,-64.9 28.5,-64.6 30.3,-63.0 32.2,-60.7 34.1,-57.7 36.0,-56.0 37.9,-54.0 39.7,-52.8 41.5,-49.5 43.1,-47.3 44.6,-44.8 46.0,-44.4 47.3,-41.0 48.6,-39.6 49.9,-35.4 51.2,-32.8" fill="none" stroke="rgb(128,128,128)" stroke-width="2.03665759661175" stroke-linejoin="round" stroke-linecap="round" filter="url(#fuzzy_av_1779093954987_359mm0g5e4q)" opacity="0.9656195587948881"/><polyline points="-4.3,-75.3 -1.6,-75.6 0.7,-75.4 3.1,-74.3 5.5,-73.4 7.9,-73.3 10.2,-73.9 12.4,-72.3 14.4,-72.9 16.5,-70.9 18.6,-70.5 20.6,-69.6 22.7,-68.3 24.9,-66.7 27.0,-64.7 29.1,-63.6 31.1,-61.4 33.1,-60.1 35.0,-58.5 36.8,-55.8 38.5,-54.3 40.2,-53.1 41.8,-49.5 43.4,-48.1 44.8,-46.9 46.3,-42.8 48.0,-42.1 49.8,-39.5" fill="none" stroke="rgb(128,128,128)" stroke-width="1.403433510334514" stroke-linejoin="round" stroke-linecap="round" filter="url(#fuzzy_av_1779093954987_359mm0g5e4q)" opacity="0.9838318180284694"/><polyline points="-5.6,-75.0 -4.4,-75.2 -2.2,-74.1 0.1,-75.3 2.4,-75.0 4.7,-74.0 7.1,-73.5 9.4,-73.7 11.7,-73.7 14.0,-72.4 16.3,-71.8 18.6,-69.8 20.8,-69.7 23.0,-69.0 25.1,-68.2 27.2,-65.8 29.3,-65.4 31.4,-62.3 33.6,-62.0 35.8,-59.9 38.1,-57.1 40.3,-56.6 42.6,-54.5 45.0,-50.6 47.5,-49.7 50.0,-47.4 52.5,-43.6 54.7,-42.6 56.6,-39.7 58.1,-37.0 59.8,-35.3 62.7,-31.9" fill="none" stroke="rgb(128,128,128)" stroke-width="0.8216587583439781" stroke-linejoin="round" stroke-linecap="round" filter="url(#fuzzy_av_1779093954987_359mm0g5e4q)" opacity="0.9995444250726301"/><polyline points="-15.1,-71.2 -13.4,-71.3 -11.2,-73.2 -8.9,-74.0 -6.7,-74.2 -4.5,-74.6 -2.3,-74.5 -0.1,-75.5 2.2,-75.2 4.4,-74.9 6.6,-73.9 8.7,-74.7 10.9,-72.9 13.0,-71.8 15.1,-72.1 17.2,-70.3 19.3,-70.2 21.4,-69.2 23.4,-67.9 25.4,-66.2 27.3,-64.1 29.1,-63.9 30.9,-62.2 32.6,-60.4 34.3,-57.8 36.0,-56.6 37.6,-53.3 39.2,-52.4 40.8,-48.4 42.2,-47.3 43.6,-44.8 44.8,-42.3 45.9,-39.7 46.8,-37.6 48.0,-34.8" fill="none" stroke="rgb(128,128,128)" stroke-width="1.0626829978412247" stroke-linejoin="round" stroke-linecap="round" filter="url(#fuzzy_av_1779093954987_359mm0g5e4q)" opacity="0.9922282544576563"/><polyline points="-17.5,-71.4 -14.7,-72.0 -12.3,-72.4 -10.3,-74.0 -8.4,-73.5 -6.4,-75.0 -4.3,-74.8 -2.1,-74.3 0.4,-74.2 2.9,-73.9 5.5,-75.0 8.0,-74.5 10.5,-72.9 12.9,-73.2 15.2,-72.5 17.5,-72.2 19.9,-71.0 22.4,-69.7 25.1,-68.1 27.9,-66.1 30.8,-65.6 33.8,-64.7 36.7,-63.2 39.5,-60.4 42.2,-59.3 44.6,-57.1 46.9,-53.8 49.0,-52.5 51.0,-51.5 53.2,-48.7 55.8,-46.4 59.3,-43.3" fill="none" stroke="rgb(128,128,128)" stroke-width="1.996111959625709" stroke-linejoin="round" stroke-linecap="round" filter="url(#fuzzy_av_1779093954987_359mm0g5e4q)" opacity="0.7747452432718754"/><polyline points="-16.0,-71.8 -14.9,-71.3 -13.2,-72.8 -11.2,-72.0 -9.0,-74.0 -6.9,-74.0 -4.7,-75.2 -2.5,-75.0 -0.2,-74.1 2.0,-75.4 4.2,-74.4 6.4,-73.8 8.5,-74.6 10.6,-73.3 12.6,-73.5 14.7,-72.7 16.7,-70.4 18.7,-69.8 20.8,-67.9 22.8,-68.0 24.8,-65.7 26.7,-64.6 28.6,-62.6 30.5,-61.3 32.2,-59.2 33.9,-59.2 35.4,-57.3 36.9,-53.6 38.5,-51.2 40.0,-49.2 41.5,-45.7" fill="none" stroke="rgb(128,128,128)" stroke-width="1.7716872405550959" stroke-linejoin="round" stroke-linecap="round" filter="url(#fuzzy_av_1779093954987_359mm0g5e4q)" opacity="0.9418731227499986"/><polyline points="-19.3,-68.5 -17.1,-70.9 -14.7,-71.6 -12.5,-73.3 -10.4,-73.1 -8.3,-73.4 -6.3,-73.3 -4.2,-74.4 -2.1,-74.1 0.2,-75.0 2.6,-74.7 5.0,-74.8 7.4,-73.3 9.9,-73.7 12.3,-72.0 14.7,-71.4 17.1,-71.2 19.5,-70.6 21.9,-69.4 24.3,-68.2 26.7,-67.6 29.1,-65.2 31.5,-64.0 33.8,-63.0 36.1,-60.6 38.4,-59.0 40.5,-57.1 42.7,-54.2 44.8,-52.4 46.7,-50.8 48.4,-49.2 50.1,-46.7 52.1,-43.5 54.8,-41.4" fill="none" stroke="rgb(128,128,128)" stroke-width="2.2725567469704218" stroke-linejoin="round" stroke-linecap="round" filter="url(#fuzzy_av_1779093954987_359mm0g5e4q)" opacity="0.7989339892884859"/><polyline points="-20.8,-68.4 -17.6,-71.1 -15.5,-71.1 -13.4,-72.3 -11.4,-73.1 -9.2,-72.9 -7.0,-73.4 -4.8,-73.9 -2.5,-74.8 -0.2,-75.1 2.1,-75.3 4.4,-73.3 6.6,-73.4 8.9,-73.8 11.1,-72.9 13.2,-72.9 15.4,-72.0 17.5,-70.7 19.7,-69.6 21.9,-69.4 24.0,-67.4 26.2,-65.6 28.3,-65.0 30.4,-64.2 32.4,-62.0 34.4,-59.0 36.2,-57.3 38.0,-55.6 39.8,-54.5 41.5,-51.0 43.3,-48.6 45.1,-47.9 46.9,-44.9 48.4,-43.7" fill="none" stroke="rgb(128,128,128)" stroke-width="1.3055779722513483" stroke-linejoin="round" stroke-linecap="round" filter="url(#fuzzy_av_1779093954987_359mm0g5e4q)" opacity="0.9603574115053505"/><polyline points="-20.1,-69.2 -18.9,-69.9 -16.9,-70.1 -14.7,-71.1 -12.5,-72.3 -10.4,-74.0 -8.3,-73.4 -6.3,-73.5 -4.2,-74.1 -2.0,-74.5 0.3,-73.9 2.7,-73.8 5.1,-73.5 7.5,-74.7 9.9,-74.4 12.3,-72.6 14.6,-71.7 16.9,-72.5 19.3,-71.0 21.6,-68.8 24.0,-68.0 26.3,-67.7 28.7,-64.8 31.1,-63.6 33.4,-62.0 35.7,-61.4 37.9,-58.5 39.9,-57.8 41.9,-55.7 43.8,-52.9 45.8,-50.9 47.7,-48.8" fill="none" stroke="rgb(128,128,128)" stroke-width="1.5387983267863585" stroke-linejoin="round" stroke-linecap="round" filter="url(#fuzzy_av_1779093954987_359mm0g5e4q)" opacity="0.7952644475459869"/><polyline points="-22.8,-67.3 -21.0,-67.9 -19.1,-69.2 -17.1,-69.8 -14.9,-72.0 -12.7,-71.7 -10.6,-73.7 -8.5,-74.0 -6.4,-73.9 -4.3,-73.7 -2.1,-73.6 0.2,-74.3 2.6,-74.5 5.0,-73.7 7.3,-73.7 9.7,-74.4 11.9,-73.5 14.2,-71.4 16.5,-71.4 18.8,-71.5 21.1,-70.0 23.5,-67.7 25.9,-66.3 28.3,-66.3 30.6,-64.4 32.9,-63.0 35.2,-60.9 37.4,-59.8 39.5,-56.1 41.5,-55.6 43.5,-51.8 45.3,-51.1 47.0,-49.0 48.4,-46.5" fill="none" stroke="rgb(128,128,128)" stroke-width="2.577148980547915" stroke-linejoin="round" stroke-linecap="round" filter="url(#fuzzy_av_1779093954987_359mm0g5e4q)" opacity="0.8586025154552822"/><polyline points="-24.3,-66.3 -25.2,-66.9 -23.3,-68.4 -20.9,-68.9 -18.6,-69.4 -16.5,-71.6 -14.4,-72.4 -12.3,-73.4 -10.2,-72.3 -7.9,-74.2 -5.5,-73.1 -3.1,-73.7 -0.6,-74.8 2.0,-74.9 4.6,-73.5 7.2,-73.8 9.7,-72.9 12.2,-74.4 14.7,-73.9 17.2,-72.0 19.8,-71.4 22.6,-69.9 25.5,-68.4 28.4,-67.8 31.2,-67.7 34.5,-64.3" fill="none" stroke="rgb(128,128,128)" stroke-width="1.1822381102343011" stroke-linejoin="round" stroke-linecap="round" filter="url(#fuzzy_av_1779093954987_359mm0g5e4q)" opacity="0.8483903777266995"/><polyline points="-28.6,-62.8 -30.1,-60.9 -31.7,-59.9 -33.7,-57.6 -35.7,-55.1 -37.4,-53.3 -38.8,-50.3 -40.1,-48.9 -41.2,-45.5 -42.4,-42.9 -43.8,-39.4 -45.3,-37.0 -46.9,-35.8 -48.4,-31.8 -49.7,-29.6 -50.8,-27.7 -51.7,-24.4 -52.5,-21.7 -53.2,-20.1 -53.9,-16.5 -54.6,-14.4 -55.3,-11.5 -55.9,-8.8 -56.4,-4.7 -56.9,-2.8 -57.2,0.4 -57.2,4.6 -56.9,6.4 -56.5,9.3 -56.6,11.5 -57.4,12.0" fill="none" stroke="rgb(128,128,128)" stroke-width="2.3638937921770973" stroke-linejoin="round" stroke-linecap="round" filter="url(#fuzzy_av_1779093954987_359mm0g5e4q)" opacity="0.9957337078677075"/><polyline points="-29.1,-60.9 -31.5,-58.3 -33.3,-56.7 -34.7,-56.1 -36.0,-52.8 -37.2,-50.4 -38.5,-49.0 -39.8,-46.2 -41.1,-43.8 -42.4,-41.4 -43.6,-38.8 -44.6,-37.5 -45.5,-33.7 -46.2,-31.4 -46.7,-29.6 -47.2,-25.4 -47.6,-23.1 -47.9,-19.5 -48.2,-17.6 -48.5,-14.4 -48.7,-11.5 -48.9,-9.3 -48.9,-4.5 -48.9,-3.4 -48.8,-0.6 -48.6,2.7 -48.3,5.7 -48.0,8.1 -47.5,11.7 -46.9,13.9 -46.3,16.7 -45.6,18.6 -44.9,22.3 -44.0,24.1 -43.1,27.6 -41.9,29.5 -40.4,32.7" fill="none" stroke="rgb(128,128,128)" stroke-width="1.664982768272138" stroke-linejoin="round" stroke-linecap="round" filter="url(#fuzzy_av_1779093954987_359mm0g5e4q)" opacity="0.82987288235685"/><polyline points="-35.1,-53.5 -36.1,-53.7 -38.0,-51.5 -39.7,-48.2 -41.2,-47.2 -42.5,-44.9 -43.9,-41.4 -45.5,-39.4 -47.1,-37.3 -48.8,-33.9 -50.5,-32.1 -52.2,-29.6 -54.1,-27.5 -56.2,-24.3 -58.1,-21.8 -59.8,-17.2 -61.2,-14.4 -62.3,-12.9 -63.7,-8.8 -65.3,-6.7 -66.9,-3.3 -67.6,0.2 -66.4,0.7" fill="none" stroke="rgb(128,128,128)" stroke-width="1.7087762085498623" stroke-linejoin="round" stroke-linecap="round" filter="url(#fuzzy_av_1779093954987_359mm0g5e4q)" opacity="0.9586789195937031"/><polyline points="-34.8,-54.6 -37.0,-52.3 -38.2,-50.8 -39.5,-48.4 -41.1,-45.8 -42.6,-42.6 -43.9,-38.8 -45.0,-36.4 -45.9,-35.3 -46.7,-32.6 -47.4,-29.0 -48.1,-27.0 -48.7,-25.0 -49.3,-20.9 -49.9,-19.2 -50.5,-16.9 -51.2,-13.0 -51.9,-11.2 -52.5,-8.0 -53.1,-5.5 -53.5,-1.5 -53.9,0.7 -54.2,3.8 -54.6,6.2 -54.9,10.3 -55.2,12.9 -55.4,15.5 -55.3,16.8 -55.1,21.0 -54.6,23.8 -53.9,25.8 -53.0,28.3" fill="none" stroke="rgb(128,128,128)" stroke-width="2.3952852717624946" stroke-linejoin="round" stroke-linecap="round" filter="url(#fuzzy_av_1779093954987_359mm0g5e4q)" opacity="0.8964456752221929"/><polyline points="-38.7,-47.1 -38.9,-46.1 -39.9,-45.2 -40.3,-41.8 -40.1,-39.8 -39.3,-36.4 -38.6,-33.3 -38.4,-31.0 -38.7,-28.1 -39.4,-25.5 -40.2,-23.5 -40.9,-20.2 -41.2,-17.2 -41.3,-13.5 -41.0,-10.2 -40.6,-8.2 -40.2,-5.0 -39.7,-1.5 -39.2,0.8 -38.5,4.3 -37.6,5.6 -36.5,8.4 -35.3,11.4 -34.0,13.1 -32.5,15.8 -31.1,19.8 -29.6,21.7 -28.2,25.5 -26.8,27.8 -25.6,30.1 -24.6,31.9 -23.6,36.2 -22.4,37.2 -20.4,39.7" fill="none" stroke="rgb(128,128,128)" stroke-width="1.3604495557520884" stroke-linejoin="round" stroke-linecap="round" filter="url(#fuzzy_av_1779093954987_359mm0g5e4q)" opacity="0.7656995828999852"/><polyline points="-38.7,-48.1 -39.5,-45.7 -40.6,-44.2 -41.6,-41.0 -42.7,-39.7 -43.7,-37.5 -44.6,-33.5 -45.4,-30.8 -46.2,-29.8 -46.9,-25.4 -47.5,-22.7 -48.0,-20.2 -48.3,-18.0 -48.5,-15.1 -48.6,-11.9 -48.7,-9.0 -48.7,-4.6 -48.7,-2.7 -48.6,1.0 -48.3,3.4 -47.9,5.1 -47.5,8.4 -47.1,11.2 -46.7,13.9 -46.1,17.0" fill="none" stroke="rgb(128,128,128)" stroke-width="0.701693839736349" stroke-linejoin="round" stroke-linecap="round" filter="url(#fuzzy_av_1779093954987_359mm0g5e4q)" opacity="0.8274502761107868"/><polyline points="-39.2,-46.9 -40.3,-44.3 -41.5,-42.0 -42.5,-38.8 -43.5,-37.1 -44.2,-34.1 -44.9,-32.5 -45.4,-29.2 -45.9,-26.9 -46.2,-23.3 -46.6,-22.1 -46.9,-18.1 -47.1,-16.0 -47.3,-12.7 -47.4,-10.8 -47.4,-8.0 -47.2,-4.0 -46.9,-2.0 -46.6,1.3 -46.2,4.1 -45.7,6.5 -45.2,9.7 -44.6,12.7 -44.0,15.5 -43.3,17.8 -42.5,21.4 -41.6,23.3 -40.6,26.5 -39.5,28.6 -38.2,31.9 -36.9,34.6 -35.5,36.9 -34.2,38.7 -32.8,41.0 -31.4,42.3 -30.6,43.3" fill="none" stroke="rgb(128,128,128)" stroke-width="0.7492590340568045" stroke-linejoin="round" stroke-linecap="round" filter="url(#fuzzy_av_1779093954987_359mm0g5e4q)" opacity="0.8346186158811606"/><polyline points="-43.3,-36.9 -44.4,-35.5 -45.6,-33.6 -46.5,-31.7 -47.2,-27.6 -47.8,-25.1 -48.4,-22.2 -49.0,-20.7 -49.7,-16.9 -50.3,-14.3 -50.7,-11.3 -51.0,-7.7 -51.1,-4.3 -51.1,-1.8 -51.2,1.7 -51.3,3.6 -51.6,6.8 -51.9,9.1 -52.2,11.6 -52.4,14.7 -52.3,17.9 -51.9,20.5 -51.2,22.6 -50.3,25.4 -49.2,28.9 -48.1,30.1 -47.0,33.4 -45.8,35.5 -44.4,38.0 -43.0,40.1 -41.6,41.8 -40.0,44.1 -38.4,46.2 -36.7,47.0 -34.9,50.2 -33.0,50.3 -31.0,53.1 -28.9,54.6 -26.7,55.2" fill="none" stroke="rgb(128,128,128)" stroke-width="2.100885874309494" stroke-linejoin="round" stroke-linecap="round" filter="url(#fuzzy_av_1779093954987_359mm0g5e4q)" opacity="0.859956254394949"/><polyline points="-43.3,-35.6 -46.0,-32.6 -48.2,-30.8 -48.9,-29.3 -48.9,-26.0 -48.7,-22.3 -48.5,-19.9 -48.5,-16.0 -48.5,-14.2 -48.7,-11.3 -48.8,-6.7 -49.0,-4.3 -49.1,-2.3 -49.3,1.7 -49.6,4.6 -50.0,6.2 -50.3,10.0 -50.4,11.8 -50.2,14.8 -49.7,17.4 -48.7,20.4 -47.6,22.0 -46.3,25.1 -45.0,27.0 -43.8,30.9 -42.7,32.8 -41.7,36.0 -40.7,37.8 -39.7,39.0 -38.6,41.5 -37.3,43.1 -35.9,46.6 -34.3,47.8 -32.6,49.9 -30.9,51.6 -29.1,53.0 -26.7,53.6" fill="none" stroke="rgb(128,128,128)" stroke-width="1.4744766931413715" stroke-linejoin="round" stroke-linecap="round" filter="url(#fuzzy_av_1779093954987_359mm0g5e4q)" opacity="0.9355972224874373"/><polyline points="-43.3,-37.3 -44.4,-33.0 -45.0,-30.1 -45.5,-27.4 -46.0,-26.1 -46.4,-23.7 -46.7,-19.9 -47.0,-16.4 -47.2,-13.4 -47.4,-11.5 -47.4,-7.7 -47.4,-4.3 -47.3,-2.5 -47.1,0.1 -46.8,3.7 -46.4,5.8 -46.0,8.6 -45.5,11.2 -45.0,14.1 -44.4,16.9 -43.8,20.8 -43.1,23.4 -42.3,24.2 -41.4,27.0 -40.4,30.2 -39.2,33.3 -37.8,35.8 -36.4,37.2 -34.9,40.9 -33.5,41.2 -32.0,43.8 -30.4,45.2 -28.8,47.7 -27.0,48.6 -24.6,51.0" fill="none" stroke="rgb(128,128,128)" stroke-width="2.350232871136869" stroke-linejoin="round" stroke-linecap="round" filter="url(#fuzzy_av_1779093954987_359mm0g5e4q)" opacity="0.9416638872248669"/><polyline points="-45.1,-29.7 -45.6,-28.1 -46.3,-25.6 -46.9,-22.6 -47.6,-19.3 -48.4,-16.1 -49.5,-13.4 -50.4,-10.3 -51.0,-8.1 -51.3,-5.2 -51.3,-1.5 -51.1,1.0 -51.1,3.3 -51.1,6.3 -51.2,9.3 -51.2,12.0 -51.1,15.1 -50.8,17.3 -50.2,20.4 -49.5,22.0 -48.7,24.7 -48.0,27.1 -47.3,30.5 -46.6,32.9 -45.9,36.1 -45.2,36.7 -44.5,40.6 -43.5,41.7 -42.9,42.4" fill="none" stroke="rgb(128,128,128)" stroke-width="1.700464133658077" stroke-linejoin="round" stroke-linecap="round" filter="url(#fuzzy_av_1779093954987_359mm0g5e4q)" opacity="0.9730127013119028"/><polyline points="-45.1,-30.8 -45.7,-29.4 -46.8,-25.8 -48.4,-23.4 -50.0,-19.6 -51.4,-16.3 -52.4,-14.7 -53.1,-9.9 -53.5,-8.3 -53.7,-4.9 -53.7,-1.3 -53.8,0.4 -54.0,3.0 -54.5,5.8 -55.2,8.2 -55.8,12.1 -56.1,14.4 -55.8,17.0 -55.0,19.3 -54.1,21.6 -53.5,25.5 -53.6,26.5 -54.1,29.8 -54.8,33.5" fill="none" stroke="rgb(128,128,128)" stroke-width="0.7354175899643629" stroke-linejoin="round" stroke-linecap="round" filter="url(#fuzzy_av_1779093954987_359mm0g5e4q)" opacity="0.898780708839225"/><polyline points="-45.4,-29.5 -46.2,-25.4 -46.5,-23.3 -46.9,-18.8 -47.2,-16.8 -47.6,-13.2 -47.8,-11.2 -47.9,-7.1 -47.9,-3.7 -47.8,-2.3 -47.6,1.7 -47.3,4.7 -46.9,6.3 -46.4,10.3 -45.8,11.7 -45.2,13.8 -44.5,16.4 -43.6,19.1 -42.8,23.2 -41.9,24.5 -40.9,28.2 -39.9,31.0 -38.8,33.3 -37.6,36.3 -36.4,38.3 -35.1,39.6 -33.6,42.9 -32.1,43.1 -30.5,46.5 -28.8,46.9 -27.1,49.7 -24.8,51.0" fill="none" stroke="rgb(128,128,128)" stroke-width="1.3161204665532464" stroke-linejoin="round" stroke-linecap="round" filter="url(#fuzzy_av_1779093954987_359mm0g5e4q)" opacity="0.9697795349166145"/><polyline points="-46.1,-24.8 -48.4,-21.8 -48.5,-20.5 -48.3,-17.0 -48.0,-12.8 -47.9,-9.8 -47.9,-7.2 -47.9,-3.5 -48.1,-1.5 -48.2,1.6 -48.3,3.5 -48.2,6.3 -47.9,9.1 -47.6,12.0 -47.1,14.8 -46.5,17.2 -45.8,20.4 -44.9,22.9 -44.0,25.9 -43.0,28.1 -41.9,31.2 -40.8,32.6 -39.7,35.8 -38.7,38.4 -37.8,40.4 -36.8,42.0 -35.3,42.3" fill="none" stroke="rgb(128,128,128)" stroke-width="0.982653578254892" stroke-linejoin="round" stroke-linecap="round" filter="url(#fuzzy_av_1779093954987_359mm0g5e4q)" opacity="0.8107767166012708"/><polyline points="-46.1,-25.0 -48.0,-20.6 -50.2,-18.3 -51.1,-14.3 -50.8,-11.2 -50.3,-8.1 -49.9,-5.8 -49.6,-4.2 -49.4,-0.9 -49.0,3.1 -48.5,6.2 -48.0,7.4 -47.5,11.1 -47.0,14.1 -46.6,16.9 -46.1,19.8 -45.6,22.2 -45.0,25.2 -44.2,27.2 -43.1,30.2 -41.9,32.2 -40.5,34.9 -39.1,36.9 -37.6,38.2 -36.1,40.9 -34.6,42.1 -33.1,45.5 -31.4,46.9 -29.6,48.6 -27.7,50.1 -25.7,50.8 -23.7,52.4 -21.6,55.2 -19.6,55.4 -17.6,58.1 -15.6,58.0 -13.5,59.0 -11.3,58.6 -8.5,59.5" fill="none" stroke="rgb(128,128,128)" stroke-width="1.2665291402016565" stroke-linejoin="round" stroke-linecap="round" filter="url(#fuzzy_av_1779093954987_359mm0g5e4q)" opacity="0.8573222389107816"/><polyline points="-47.2,-13.2 -48.7,-12.4 -48.5,-10.3 -48.4,-5.9 -48.8,-3.7 -49.4,-1.7 -49.9,2.2 -50.2,3.4 -50.1,7.5 -49.8,9.0 -49.3,12.5 -48.6,14.8 -47.9,17.6 -47.4,20.6 -47.0,21.7 -46.8,25.7 -46.5,27.5 -46.0,31.0 -45.2,32.0 -44.3,34.7 -43.4,38.6 -42.4,39.4 -41.7,40.9" fill="none" stroke="rgb(128,128,128)" stroke-width="1.2296200315025865" stroke-linejoin="round" stroke-linecap="round" filter="url(#fuzzy_av_1779093954987_359mm0g5e4q)" opacity="0.7631041671750579"/><polyline points="-47.2,-13.5 -49.5,-9.8 -50.3,-6.1 -50.7,-3.8 -51.0,-1.1 -51.3,2.8 -51.3,4.7 -51.0,6.6 -50.5,9.7 -49.9,12.1 -49.2,15.8 -48.5,18.7 -47.6,20.1 -46.5,24.1 -45.3,25.4 -44.0,27.6 -42.5,31.9 -40.9,34.1 -39.3,36.4 -37.8,37.1 -36.4,40.7 -35.2,42.2 -33.9,45.1 -32.7,46.5 -31.4,47.2 -29.9,50.2 -28.3,51.3 -26.6,52.1 -24.7,53.1 -22.6,55.0 -20.3,57.0 -17.9,57.6 -15.5,58.9 -13.2,59.9 -11.1,59.4 -9.2,60.3" fill="none" stroke="rgb(128,128,128)" stroke-width="2.134573380589302" stroke-linejoin="round" stroke-linecap="round" filter="url(#fuzzy_av_1779093954987_359mm0g5e4q)" opacity="0.892695222736418"/><polyline points="-44.7,10.1 -44.1,12.3 -43.4,16.3 -42.9,17.5 -42.4,20.1 -41.9,23.5 -41.4,26.1 -40.8,29.7 -40.0,30.7 -39.0,34.7 -37.8,35.9 -36.6,39.2 -35.4,40.2 -34.2,42.2 -33.1,44.1 -32.0,46.2 -30.9,48.8 -29.7,49.1 -28.5,51.8 -27.0,53.5 -25.2,54.0 -23.3,55.3 -21.2,56.6 -19.0,57.9 -16.0,58.7" fill="none" stroke="rgb(128,128,128)" stroke-width="2.5544653174030887" stroke-linejoin="round" stroke-linecap="round" filter="url(#fuzzy_av_1779093954987_359mm0g5e4q)" opacity="0.8157052348110554"/><polyline points="-44.2,11.5 -43.5,15.7 -43.3,17.5 -43.5,21.3 -43.5,23.9 -43.1,27.4 -42.3,29.0 -41.3,30.8 -40.3,33.9 -39.4,35.4 -38.7,37.5 -38.0,41.2 -37.2,43.3 -36.2,45.1 -35.2,45.5 -34.0,48.7 -32.6,49.6 -30.9,50.5 -28.9,53.3 -26.8,54.0 -24.4,55.9 -22.1,55.8 -20.5,58.0" fill="none" stroke="rgb(128,128,128)" stroke-width="1.3209626737315425" stroke-linejoin="round" stroke-linecap="round" filter="url(#fuzzy_av_1779093954987_359mm0g5e4q)" opacity="0.8257125368139772"/><polyline points="-44.1,12.0 -43.2,17.3 -42.5,19.3 -42.0,23.1 -41.6,25.1 -41.2,28.3 -40.7,29.6 -40.0,32.8 -39.0,34.4 -37.8,36.8 -36.5,38.9 -35.0,41.1 -33.5,42.9 -31.9,45.2 -30.2,47.6 -28.5,49.0 -26.7,50.4 -24.9,52.3 -23.1,53.4 -21.3,55.0 -19.5,55.8 -17.6,57.3 -15.7,58.3 -13.6,59.2 -11.4,59.0 -9.0,60.7 -6.4,61.0 -3.7,60.7 -0.7,61.0 2.5,60.2 5.8,60.4 9.0,60.6" fill="none" stroke="rgb(128,128,128)" stroke-width="2.0118532068307466" stroke-linejoin="round" stroke-linecap="round" filter="url(#fuzzy_av_1779093954987_359mm0g5e4q)" opacity="0.9271701418959033"/><polyline points="-44.1,13.0 -44.1,16.0 -44.0,19.2 -43.6,22.5 -43.1,25.4 -42.4,27.2 -41.4,29.7 -40.2,31.9 -39.0,34.7 -37.8,38.3 -36.5,40.1 -35.1,41.0 -33.5,42.5 -31.8,45.6 -30.0,46.1 -28.1,49.2 -26.2,50.4 -24.4,52.7 -22.5,52.6 -20.6,54.8 -18.7,56.6 -16.7,56.4 -14.6,58.3 -12.5,59.3 -10.4,58.7 -8.2,60.8 -5.8,59.7 -3.3,61.2 -0.5,60.3 2.4,61.2 5.5,60.7 8.5,60.9" fill="none" stroke="rgb(128,128,128)" stroke-width="2.234038703131371" stroke-linejoin="round" stroke-linecap="round" filter="url(#fuzzy_av_1779093954987_359mm0g5e4q)" opacity="0.9277286584771469"/><polyline points="-43.1,17.3 -43.3,19.5 -42.9,21.5 -41.8,24.2 -40.6,27.0 -39.5,28.4 -38.6,30.8 -37.9,34.2 -37.1,35.8 -36.3,39.3 -35.3,40.0 -34.2,42.6 -32.8,44.3 -31.4,45.6 -29.9,49.0 -28.4,49.2 -26.8,52.2 -25.2,52.7 -23.3,54.4 -21.2,55.0 -18.8,55.9 -16.4,58.0 -14.1,57.8 -12.0,58.3 -10.3,59.5 -8.6,59.8" fill="none" stroke="rgb(128,128,128)" stroke-width="1.9385928425734658" stroke-linejoin="round" stroke-linecap="round" filter="url(#fuzzy_av_1779093954987_359mm0g5e4q)" opacity="0.8428630600219881"/><polyline points="-43.1,15.6 -42.7,20.6 -42.2,23.4 -41.4,25.8 -40.6,28.0 -40.0,30.6 -39.4,32.0 -38.9,35.5 -38.3,38.1 -37.4,38.9 -36.3,41.4 -34.8,43.5 -32.8,46.2 -30.6,46.9 -28.3,49.8 -25.9,50.7 -23.7,52.1 -21.6,53.8 -19.7,55.3 -17.8,57.0 -16.0,57.7 -14.2,58.7 -12.4,58.4 -10.4,58.5 -8.2,59.1 -5.9,60.8 -3.4,60.7 -0.6,60.2 2.4,60.1 5.6,60.4 8.6,59.6" fill="none" stroke="rgb(128,128,128)" stroke-width="2.4830741334406126" stroke-linejoin="round" stroke-linecap="round" filter="url(#fuzzy_av_1779093954987_359mm0g5e4q)" opacity="0.92936440510494"/><polyline points="-42.6,18.7 -41.5,20.4 -40.4,23.9 -39.3,27.5 -38.3,29.8 -37.4,32.4 -36.5,34.5 -35.4,36.1 -34.2,39.2 -32.8,41.0 -31.3,42.8 -29.6,44.1 -27.9,46.6 -26.1,48.2 -24.4,50.7 -22.7,51.0 -21.0,52.1 -19.2,54.8 -17.5,55.9 -15.7,56.0 -13.9,58.0 -12.1,57.5 -10.2,58.9 -8.3,59.9 -6.2,59.4 -4.1,61.2 -1.9,60.6 0.4,60.2 2.6,61.5 4.9,60.0 7.1,59.7 9.3,60.8 11.5,59.0 13.9,59.7 16.6,58.2 19.6,56.3 22.9,54.9 26.3,52.8" fill="none" stroke="rgb(128,128,128)" stroke-width="2.4388273933739173" stroke-linejoin="round" stroke-linecap="round" filter="url(#fuzzy_av_1779093954987_359mm0g5e4q)" opacity="0.9163738391143993"/><polyline points="-41.3,21.9 -40.9,24.3 -40.4,25.8 -40.0,26.9 -39.6,30.9 -39.1,32.9 -38.3,36.2 -37.3,36.8 -36.2,39.2 -35.1,41.8 -34.0,43.6 -32.8,44.4 -31.5,46.4 -29.9,49.5 -27.9,50.2 -25.5,53.1 -23.0,54.6 -20.5,55.6 -18.1,56.2 -15.9,57.6 -13.7,57.3 -11.7,59.4 -9.6,58.5 -7.4,59.8 -5.1,59.9 -2.6,59.5 0.0,61.4 2.7,60.3 5.5,59.8 8.2,60.1 11.0,59.7 13.7,59.5 16.4,59.1 19.4,57.4 22.8,57.8" fill="none" stroke="rgb(128,128,128)" stroke-width="1.7688137427989203" stroke-linejoin="round" stroke-linecap="round" filter="url(#fuzzy_av_1779093954987_359mm0g5e4q)" opacity="0.7605603789415724"/><polyline points="-41.6,20.3 -40.8,24.6 -39.6,26.1 -38.5,29.1 -37.5,31.6 -36.6,35.2 -35.6,35.9 -34.6,38.3 -33.3,40.2 -32.0,43.7 -30.4,45.7 -28.8,47.2 -27.1,47.8 -25.3,49.4 -23.5,50.8 -21.6,52.4 -19.6,55.1 -17.6,55.7 -15.6,55.6 -13.7,57.9 -11.7,57.4 -9.8,59.9 -7.9,59.6 -6.0,60.3 -3.9,59.7 -1.8,60.2 0.4,59.7 2.6,61.2 4.7,60.5 6.8,61.1 8.9,60.4 11.1,60.1 13.4,59.8 15.8,57.2 18.9,57.1" fill="none" stroke="rgb(128,128,128)" stroke-width="1.8398705128884212" stroke-linejoin="round" stroke-linecap="round" filter="url(#fuzzy_av_1779093954987_359mm0g5e4q)" opacity="0.8992642902367624"/><polyline points="-39.9,26.6 -39.2,27.5 -38.1,30.0 -36.8,32.6 -35.5,35.5 -34.2,36.0 -32.9,38.6 -31.4,40.3 -30.0,42.8 -28.5,44.4 -26.9,45.7 -25.3,48.1 -23.7,50.4 -22.0,52.2 -20.3,52.7 -18.5,54.0 -16.7,55.1 -14.9,56.7 -13.0,58.3 -11.2,57.5 -9.4,59.3 -7.8,59.0 -6.1,60.6 -4.4,61.0 -2.5,61.5 -0.6,61.5" fill="none" stroke="rgb(128,128,128)" stroke-width="2.165622295712666" stroke-linejoin="round" stroke-linecap="round" filter="url(#fuzzy_av_1779093954987_359mm0g5e4q)" opacity="0.7533095046297436"/><polyline points="-39.4,25.8 -38.7,29.2 -37.5,31.9 -36.0,34.3 -34.6,37.9 -33.3,39.5 -32.0,40.4 -30.7,44.0 -29.4,44.6 -28.0,46.7 -26.5,48.4 -24.9,50.9 -23.2,50.9 -21.4,52.8 -19.7,54.2 -17.8,56.2 -15.9,56.6 -14.0,57.2 -12.0,59.2 -10.1,58.2 -8.3,59.7 -6.4,59.7 -4.4,61.1 -2.2,61.2 0.1,61.5 2.4,60.7 3.5,60.7" fill="none" stroke="rgb(128,128,128)" stroke-width="1.9155049854214323" stroke-linejoin="round" stroke-linecap="round" filter="url(#fuzzy_av_1779093954987_359mm0g5e4q)" opacity="0.8197132795208367"/><polyline points="-38.3,29.3 -36.8,31.4 -35.5,35.2 -34.2,37.1 -32.9,39.0 -31.6,41.4 -30.2,43.4 -28.7,44.4 -27.2,46.2 -25.6,48.9 -24.0,50.1 -22.4,51.7 -20.7,53.3 -19.0,53.7 -17.1,55.2 -15.3,56.0 -13.4,58.4 -11.5,57.7 -9.7,58.6 -7.8,59.4 -5.9,60.9 -3.9,59.7 -1.9,61.1 0.2,60.1 2.3,59.8 4.2,61.3 6.2,60.2 8.0,61.1 9.5,60.8" fill="none" stroke="rgb(128,128,128)" stroke-width="1.6631834117436253" stroke-linejoin="round" stroke-linecap="round" filter="url(#fuzzy_av_1779093954987_359mm0g5e4q)" opacity="0.9901053442660326"/><polyline points="-35.2,34.8 -34.0,37.7 -32.7,39.8 -31.3,40.9 -29.9,44.1 -28.5,46.1 -27.2,47.6 -25.9,48.3 -24.6,49.7 -23.3,52.2 -21.9,52.6 -20.3,54.7 -18.6,55.7 -16.8,57.1 -14.9,57.8 -12.9,58.9 -10.9,58.8 -8.9,60.2 -6.7,59.3 -4.5,60.1 -2.1,61.5 0.4,61.1 2.9,59.9 5.3,60.2 7.7,61.0 10.6,60.4" fill="none" stroke="rgb(128,128,128)" stroke-width="1.9808484659165753" stroke-linejoin="round" stroke-linecap="round" filter="url(#fuzzy_av_1779093954987_359mm0g5e4q)" opacity="0.8128238234160186"/><polyline points="-33.9,37.0 -32.8,38.9 -31.5,41.2 -30.1,43.1 -28.7,45.4 -27.4,46.9 -26.1,48.5 -24.7,50.1 -23.1,51.9 -21.4,53.4 -19.6,54.5 -17.7,56.4 -15.7,56.3 -13.7,56.7 -11.8,57.8 -9.9,59.2 -8.0,58.7 -6.0,59.9 -3.9,60.7 -1.7,60.2 0.5,60.8 2.6,61.3 4.8,61.3 7.0,61.1 9.1,59.9 11.3,59.4 13.6,57.9 16.1,57.0 18.8,57.6 21.8,54.9 25.2,54.0" fill="none" stroke="rgb(128,128,128)" stroke-width="1.2543676802554498" stroke-linejoin="round" stroke-linecap="round" filter="url(#fuzzy_av_1779093954987_359mm0g5e4q)" opacity="0.8327746770533166"/><polyline points="-33.9,37.9 -32.7,40.1 -31.6,41.1 -30.3,42.7 -28.9,45.0 -27.4,47.2 -25.9,49.3 -24.4,51.4 -22.7,52.1 -20.9,53.5 -19.1,55.0 -17.2,56.2 -15.4,55.8 -13.5,58.6 -11.6,58.1 -9.7,59.5 -7.7,58.6 -5.7,59.7 -3.6,59.3 -1.4,59.8 0.8,60.8 3.0,59.7 5.2,60.2 7.5,59.5 9.8,60.4 12.1,58.6 14.6,57.3 17.2,57.6 19.8,56.0 22.6,54.9 25.2,53.7 27.8,53.5 30.2,52.3 32.4,49.9 34.7,49.3 37.2,45.7 40.0,43.4 43.0,41.8" fill="none" stroke="rgb(128,128,128)" stroke-width="2.4976848246182715" stroke-linejoin="round" stroke-linecap="round" filter="url(#fuzzy_av_1779093954987_359mm0g5e4q)" opacity="0.9097652417532495"/><polyline points="-33.5,36.9 -31.2,40.8 -29.4,43.1 -27.7,43.5 -25.9,45.5 -24.1,47.3 -22.1,48.8 -20.2,51.3 -18.2,52.6 -16.3,54.0 -14.6,54.4 -12.9,55.9 -11.2,57.9 -9.6,58.9 -7.9,58.1 -6.2,59.4 -4.6,59.2 -3.0,60.0 -1.5,61.1 -0.1,61.4 1.2,59.9 2.3,60.8 3.3,59.2 4.1,58.9 4.8,58.7 5.3,58.6 5.7,57.5 6.0,56.5 6.2,56.2 6.3,54.9 6.4,53.5 6.6,53.0 6.8,50.7" fill="none" stroke="rgb(128,128,128)" stroke-width="1.4023398589136638" stroke-linejoin="round" stroke-linecap="round" filter="url(#fuzzy_av_1779093954987_359mm0g5e4q)" opacity="0.9859042352378702"/><polyline points="-32.1,40.0 -30.5,42.7 -29.2,45.0 -27.9,45.2 -26.4,48.0 -24.7,49.5 -22.9,50.1 -21.1,52.9 -19.4,54.6 -17.7,54.8 -16.0,55.9 -14.3,56.4 -12.5,59.0 -10.7,59.8 -8.8,58.8 -6.8,60.3 -4.7,59.5 -2.6,61.4 -0.3,61.5 2.2,61.5 4.6,61.2 6.7,61.1 8.2,61.0" fill="none" stroke="rgb(128,128,128)" stroke-width="2.01477030784288" stroke-linejoin="round" stroke-linecap="round" filter="url(#fuzzy_av_1779093954987_359mm0g5e4q)" opacity="0.8061493830677511"/><polyline points="-29.8,43.4 -29.3,44.6 -28.0,46.1 -26.3,47.3 -24.5,48.7 -22.6,52.1 -20.8,52.8 -18.9,55.0 -17.2,54.9 -15.4,56.4 -13.7,58.1 -11.8,57.5 -10.0,58.1 -8.0,59.0 -5.9,58.9 -3.8,60.8 -1.7,60.4 0.5,61.4 2.7,59.8 4.9,60.1 7.0,59.9 9.2,58.6 11.4,58.8 13.5,57.6 15.7,57.7 17.9,57.3 20.0,54.8 22.2,54.6 24.3,54.2 26.5,52.5 28.8,51.1 31.1,48.7 33.5,47.2 36.0,44.5 38.5,42.6" fill="none" stroke="rgb(128,128,128)" stroke-width="1.971724604236396" stroke-linejoin="round" stroke-linecap="round" filter="url(#fuzzy_av_1779093954987_359mm0g5e4q)" opacity="0.7922140616118546"/><polyline points="-29.8,43.1 -29.1,44.2 -27.9,45.0 -26.4,48.6 -24.6,48.7 -22.7,51.8 -20.8,52.3 -19.0,53.8 -17.3,55.4 -15.7,57.0 -14.1,56.9 -12.4,57.8 -10.6,59.9 -8.6,58.9 -6.6,59.0 -4.4,60.8 -2.1,61.0 0.2,59.9 2.6,61.1 4.9,61.1 7.2,60.3 9.5,60.0 11.7,58.7 14.1,59.5 16.5,57.4 19.0,56.0 21.4,55.8 23.6,55.9 25.8,53.7 29.1,52.8" fill="none" stroke="rgb(128,128,128)" stroke-width="1.3121909452807619" stroke-linejoin="round" stroke-linecap="round" filter="url(#fuzzy_av_1779093954987_359mm0g5e4q)" opacity="0.959818470592935"/><polyline points="-29.5,43.0 -28.4,45.0 -27.6,48.1 -26.4,48.7 -24.9,52.1 -23.4,52.7 -21.8,53.4 -20.1,56.4 -18.3,57.5 -16.4,58.3 -14.2,59.1 -11.9,59.8 -9.5,60.2 -7.0,60.3 -4.5,60.4 -2.0,60.4 0.5,61.0 3.1,61.2 5.6,60.8 8.2,60.6 10.7,60.7 13.3,58.7 15.9,59.0 18.5,57.3 21.3,57.0 24.0,56.3 26.8,55.9 29.9,53.2 33.9,52.2" fill="none" stroke="rgb(128,128,128)" stroke-width="1.6330819728843102" stroke-linejoin="round" stroke-linecap="round" filter="url(#fuzzy_av_1779093954987_359mm0g5e4q)" opacity="0.7502231319655808"/><polyline points="-29.5,43.0 -27.4,45.1 -25.6,47.5 -23.6,49.8 -21.4,51.2 -19.0,53.0 -16.6,54.3 -14.4,54.9 -12.4,56.6 -10.6,58.2 -8.9,58.7 -7.3,59.6 -5.8,60.3 -4.3,60.9 -2.8,59.6 -1.4,61.1 0.1,60.7 1.5,60.7 2.8,61.0 4.1,59.4 5.3,59.7 6.3,58.8 7.2,59.0 7.8,56.9 8.2,56.7 8.3,55.8 8.2,54.5 8.0,53.6 7.9,52.1 7.9,49.6 8.0,48.3 8.4,45.7 8.9,45.2 9.3,43.5 9.3,40.8 8.8,39.5 8.0,37.5 7.6,35.7" fill="none" stroke="rgb(128,128,128)" stroke-width="2.0284610041959814" stroke-linejoin="round" stroke-linecap="round" filter="url(#fuzzy_av_1779093954987_359mm0g5e4q)" opacity="0.9935804737250142"/><polyline points="-26.7,46.3 -26.0,48.4 -24.7,50.1 -23.1,51.0 -21.5,51.2 -19.8,53.9 -18.0,53.9 -16.1,56.2 -14.3,56.0 -12.4,58.3 -10.6,57.8 -8.8,58.4 -7.0,59.8 -5.2,59.5 -3.4,60.8 -1.4,60.5 0.5,60.1 2.5,60.9 4.3,60.3 6.2,60.9 8.0,60.9 9.9,59.1 11.8,58.6 13.9,57.9 16.3,56.5 18.8,55.5" fill="none" stroke="rgb(128,128,128)" stroke-width="1.8742303025353322" stroke-linejoin="round" stroke-linecap="round" filter="url(#fuzzy_av_1779093954987_359mm0g5e4q)" opacity="0.9682904455830774"/></g><circle r="1.9021053295720838" cx="-8.401075155950998" cy="1.3302137506954037" stroke="#111" fill="none" stroke-width="0.9750956256600971" filter="url(#fuzzy_av_1779093954987_359mm0g5e4q)"/><circle r="1.853639227444856" cx="-6.729614520906818" cy="1.0228723547069685" stroke="#111" fill="none" stroke-width="1.1131577817847336" filter="url(#fuzzy_av_1779093954987_359mm0g5e4q)"/><circle r="1.2600966399051512" cx="-5.669817349950958" cy="2.034996487066146" stroke="#111" fill="none" stroke-width="1.1067778156031634" filter="url(#fuzzy_av_1779093954987_359mm0g5e4q)"/><circle r="1.11803201527098" cx="-7.91433172033603" cy="0.6233415490510124" stroke="#111" fill="none" stroke-width="1.0416701960612786" filter="url(#fuzzy_av_1779093954987_359mm0g5e4q)"/><circle r="1.5739672502759234" cx="-7.0151278723465325" cy="1.6561517708915596" stroke="#111" fill="none" stroke-width="1.1751279238014782" filter="url(#fuzzy_av_1779093954987_359mm0g5e4q)"/><circle r="1.8130663327878225" cx="-5.14507145234365" cy="2.4602742651503036" stroke="#111" fill="none" stroke-width="1.0393987984927036" filter="url(#fuzzy_av_1779093954987_359mm0g5e4q)"/><circle r="2.0330656598220704" cx="-5.971791463734352" cy="1.783963568080707" stroke="#111" fill="none" stroke-width="0.8689354557548197" filter="url(#fuzzy_av_1779093954987_359mm0g5e4q)"/><circle r="0.8748737566778282" cx="-8.14359507552433" cy="0.545436945523161" stroke="#111" fill="none" stroke-width="1.1531262802756739" filter="url(#fuzzy_av_1779093954987_359mm0g5e4q)"/><circle r="1.8062991668199324" cx="-5.407812372551853" cy="1.8421864903379344" stroke="#111" fill="none" stroke-width="0.8385455090810234" filter="url(#fuzzy_av_1779093954987_359mm0g5e4q)"/><circle r="1.2960152055203498" cx="-5.862444699366315" cy="1.4341386520640036" stroke="#111" fill="none" stroke-width="0.8794080537790849" filter="url(#fuzzy_av_1779093954987_359mm0g5e4q)"/><circle r="2.009200726478451" cx="6.548122772694165" cy="-2.000522555137032" stroke="#111" fill="none" stroke-width="1.196581524995038" filter="url(#fuzzy_av_1779093954987_359mm0g5e4q)"/><circle r="2.3071392270878075" cx="6.344430783780041" cy="-2.8393616029549227" stroke="#111" fill="none" stroke-width="0.9563994504491119" filter="url(#fuzzy_av_1779093954987_359mm0g5e4q)"/><circle r="1.8622353296506868" cx="8.056995651853285" cy="-2.960749746069367" stroke="#111" fill="none" stroke-width="1.1790546254441214" filter="url(#fuzzy_av_1779093954987_359mm0g5e4q)"/><circle r="1.4973190269970453" cx="6.218925086362185" cy="-2.4541422560021378" stroke="#111" fill="none" stroke-width="0.9563962196192514" filter="url(#fuzzy_av_1779093954987_359mm0g5e4q)"/><circle r="1.2694341787787533" cx="8.28337211890661" cy="-0.8606122155310698" stroke="#111" fill="none" stroke-width="1.238335752056464" filter="url(#fuzzy_av_1779093954987_359mm0g5e4q)"/><circle r="1.8843631116967743" cx="6.018251551414112" cy="-0.7816676967066083" stroke="#111" fill="none" stroke-width="1.0796406402618226" filter="url(#fuzzy_av_1779093954987_359mm0g5e4q)"/><circle r="1.63236980001969" cx="8.200064991411603" cy="-3.2344043279333734" stroke="#111" fill="none" stroke-width="0.987986833225708" filter="url(#fuzzy_av_1779093954987_359mm0g5e4q)"/><circle r="2.2993366368588526" cx="7.594461204480696" cy="-2.3778945310132267" stroke="#111" fill="none" stroke-width="1.1759985576154184" filter="url(#fuzzy_av_1779093954987_359mm0g5e4q)"/><circle r="2.002939886867156" cx="5.963613857225031" cy="-3.1464040146878793" stroke="#111" fill="none" stroke-width="1.2145510663991963" filter="url(#fuzzy_av_1779093954987_359mm0g5e4q)"/><circle r="1.063482104437791" cx="8.867783466345543" cy="-2.284424738122236" stroke="#111" fill="none" stroke-width="1.1614897771990287" filter="url(#fuzzy_av_1779093954987_359mm0g5e4q)"/><polyline points="-10.0,57.4 -10.0,56.3 -9.9,55.3 -9.9,54.3 -9.9,53.3 -9.8,52.3 -9.8,51.4 -9.7,50.5 -9.6,49.6 -9.6,48.8 -9.5,48.0 -9.4,47.1 -9.3,46.4 -9.2,45.6 -9.1,44.9 -9.0,44.2 -8.9,43.5 -8.8,42.8 -8.7,42.2 -8.6,41.6 -8.4,41.0 -8.3,40.4 -8.1,39.9 -8.0,39.4 -7.8,38.9 -7.7,38.4 -7.5,37.9 -7.4,37.5 -7.2,37.1 -7.0,36.7 -6.8,36.3 -6.6,36.0 -6.4,35.7 -6.2,35.4 -6.0,35.1 -5.8,34.8 -5.6,34.6 -5.4,34.4 -5.2,34.2 -5.0,34.0 -4.8,33.8 -4.5,33.7 -4.3,33.6 -4.1,33.5 -3.8,33.4 -3.6,33.4 -3.3,33.3 -3.1,33.3 -2.8,33.3 -2.6,33.3 -2.3,33.4 -2.0,33.4 -1.8,33.5 -1.5,33.6 -1.2,33.7 -0.9,33.8 -0.7,34.0 -0.4,34.1 -0.1,34.3 0.2,34.5 0.5,34.7 0.8,35.0 1.1,35.2 1.4,35.5 1.7,35.8 2.0,36.1 2.3,36.4 2.6,36.7 2.9,37.1 3.2,37.5 3.5,37.9 3.8,38.3 4.1,38.7 4.5,39.1 4.8,39.5 5.1,40.0 5.4,40.5 5.7,41.0 6.1,41.5 6.4,42.0 6.7,42.5 7.0,43.1 7.4,43.6 7.7,44.2 8.0,44.8 8.4,45.4 8.7,46.0 9.0,46.7 9.4,47.3 9.7,48.0 10.0,48.6 10.4,49.3 10.7,50.0 11.0,50.7 11.4,51.4 11.7,52.2 12.0,52.9 12.4,53.7 12.7,54.4 13.0,55.2 13.4,56.0 13.0,55.2 12.7,54.4 12.4,53.7 12.0,52.9 11.7,52.2 11.4,51.4 11.0,50.7 10.7,50.0 10.4,49.3 10.0,48.6 9.7,48.0 9.4,47.3 9.0,46.7 8.7,46.0 8.4,45.4 8.0,44.8 7.7,44.2 7.4,43.6 7.0,43.1 6.7,42.5 6.4,42.0 6.1,41.5 5.7,41.0 5.4,40.5 5.1,40.0 4.8,39.5 4.5,39.1 4.1,38.7 3.8,38.3 3.5,37.9 3.2,37.5 2.9,37.1 2.6,36.7 2.3,36.4 2.0,36.1 1.7,35.8 1.4,35.5 1.1,35.2 0.8,35.0 0.5,34.7 0.2,34.5 -0.1,34.3 -0.4,34.1 -0.7,34.0 -0.9,33.8 -1.2,33.7 -1.5,33.6 -1.8,33.5 -2.0,33.4 -2.3,33.4 -2.6,33.3 -2.8,33.3 -3.1,33.3 -3.3,33.3 -3.6,33.4 -3.8,33.4 -4.1,33.5 -4.3,33.6 -4.5,33.7 -4.8,33.8 -5.0,34.0 -5.2,34.2 -5.4,34.4 -5.6,34.6 -5.8,34.8 -6.0,35.1 -6.2,35.4 -6.4,35.7 -6.6,36.0 -6.8,36.3 -7.0,36.7 -7.2,37.1 -7.4,37.5 -7.5,37.9 -7.7,38.4 -7.8,38.9 -8.0,39.4 -8.1,39.9 -8.3,40.4 -8.4,41.0 -8.6,41.6 -8.7,42.2 -8.8,42.8 -8.9,43.5 -9.0,44.2 -9.1,44.9 -9.2,45.6 -9.3,46.4 -9.4,47.1 -9.5,48.0 -9.6,48.8 -9.6,49.6 -9.7,50.5 -9.8,51.4 -9.8,52.3 -9.9,53.3 -9.9,54.3 -9.9,55.3 -10.0,56.3" fill="rgb(215,127,140)" stroke="#111" stroke-width="3.039153103712405" stroke-linejoin="round" filter="url(#fuzzy_av_1779093954987_359mm0g5e4q)"/></g><g class="accessory-svg accessory-wrench" transform="translate(76.7 21.4) rotate(0.5) scale(1.027)">
      <path d="M7-10a6 6 0 0 0-7 7L-11 8l5 5L5 2a6 6 0 0 0 7-7l-4 4-5-5z" fill="#A16207" stroke="#111827" stroke-width="1.1"/><circle cx="-7" cy="9" r="1.3" fill="#f8fafc"/>
    </g><g class="accessory-svg accessory-clipboard" transform="translate(-19.8 76.3) rotate(0.5) scale(1.323)">
      <rect x="-9" y="-9" width="18" height="22" rx="3" fill="#f8fafc" stroke="#111827" stroke-width="1.1"/><rect x="-4" y="-12" width="8" height="5" rx="2" fill="#CA8A04" stroke="#111827" stroke-width="1"/><path d="M-5-2h9M-5 3h9M-5 8h6" stroke="#A16207" stroke-width="1"/><path d="M-7-2l1 1 2-3" fill="none" stroke="#22c55e" stroke-width="1.2"/>
    </g><g class="accessory-svg accessory-clock" transform="translate(-79.0 -11.3) rotate(-9.4) scale(1.106)">
      <circle cx="0" cy="0" r="10" fill="#f8fafc" stroke="#111827" stroke-width="1.3"/><path d="M0-6v7l5 3" stroke="#A16207" stroke-width="1.4" stroke-linecap="round"/><path d="M-6-11l-3-3M6-11l3-3" stroke="#111827" stroke-width="1.2"/>
    </g><g class="accessory-svg accessory-hammer" transform="translate(-1.4 -79.1) rotate(-4.3) scale(0.890)">
      <rect x="-2" y="-6" width="4" height="18" rx="1" fill="#92400e" stroke="#111827" stroke-width="1"/><path d="M-10-9H6l5 4-2 4H-10z" fill="#A16207" stroke="#111827" stroke-width="1.1"/>
    </g></svg>