<svg xmlns="http://www.w3.org/2000/svg" viewBox="-100 -100 200 200" width="400" height="400" role="img" aria-label="人形计算器 avatar"><defs>
      <filter id="fuzzy_av_1779093954990_lcytls2mgf" x="-8%" y="-8%" width="116%" height="116%">
        <feTurbulence baseFrequency="0.045" numOctaves="3" type="fractalNoise" result="noise"/>
        <feDisplacementMap in="SourceGraphic" in2="noise" scale="1.6"/>
      </filter>
      <clipPath id="leftEye_av_1779093954990_lcytls2mgf"><polyline points="-13.0,-0.5 -12.9,-0.7 -12.8,-0.9 -12.7,-1.1 -12.6,-1.3 -12.5,-1.5 -12.3,-1.7 -12.1,-1.9 -11.9,-2.1 -11.7,-2.2 -11.5,-2.4 -11.3,-2.6 -11.0,-2.8 -10.7,-2.9 -10.5,-3.1 -10.2,-3.2 -9.8,-3.4 -9.5,-3.6 -9.1,-3.8 -8.8,-4.0 -8.4,-4.2 -8.0,-4.3 -7.6,-4.5 -7.2,-4.6 -6.7,-4.8 -6.3,-4.9 -5.9,-5.0 -5.4,-5.1 -5.0,-5.2 -4.6,-5.3 -4.1,-5.4 -3.7,-5.4 -3.2,-5.5 -2.8,-5.6 -2.3,-5.6 -1.9,-5.6 -1.4,-5.6 -1.0,-5.6 -0.5,-5.6 -0.1,-5.6 0.3,-5.6 0.8,-5.6 1.2,-5.5 1.6,-5.5 2.0,-5.4 2.4,-5.4 2.8,-5.3 3.2,-5.2 3.5,-5.1 3.9,-5.1 4.3,-5.0 4.6,-4.9 4.9,-4.7 5.2,-4.6 5.6,-4.5 5.9,-4.4 6.1,-4.3 6.4,-4.1 6.7,-4.0 6.9,-3.8 7.2,-3.7 7.4,-3.6 7.6,-3.4 7.8,-3.3 8.0,-3.1 8.2,-3.0 8.4,-2.8 8.6,-2.7 8.7,-2.5 8.9,-2.4 9.0,-2.2 9.1,-2.1 9.2,-1.9 9.3,-1.8 9.4,-1.6 9.5,-1.5 9.6,-1.3 9.7,-1.1 9.7,-1.0 9.8,-0.8 9.3,0.8 9.2,1.0 9.0,1.1 8.9,1.3 8.7,1.4 8.5,1.6 8.3,1.7 8.1,1.9 7.9,2.0 7.7,2.2 7.5,2.3 7.3,2.5 7.1,2.6 6.9,2.8 6.7,2.9 6.4,3.0 6.2,3.2 5.9,3.3 5.7,3.5 5.4,3.6 5.2,3.7 4.9,3.9 4.7,4.0 4.4,4.1 4.1,4.3 3.8,4.4 3.5,4.5 3.3,4.6 3.0,4.7 2.7,4.8 2.4,4.9 2.1,5.0 1.8,5.1 1.5,5.2 1.2,5.3 0.9,5.4 0.6,5.4 0.3,5.5 -0.0,5.6 -0.3,5.6 -0.7,5.7 -1.0,5.7 -1.3,5.7 -1.6,5.7 -1.9,5.7 -2.3,5.7 -2.6,5.7 -2.9,5.7 -3.3,5.7 -3.6,5.6 -4.0,5.6 -4.3,5.5 -4.6,5.4 -5.0,5.4 -5.4,5.3 -5.7,5.2 -6.1,5.0 -6.4,4.9 -6.8,4.8 -7.2,4.6 -7.5,4.5 -7.9,4.3 -8.3,4.2 -8.7,4.0 -9.0,3.8 -9.3,3.6 -9.6,3.5 -9.8,3.3 -10.1,3.2 -10.3,3.0 -10.6,2.8 -10.8,2.6 -11.0,2.4 -11.2,2.3 -11.4,2.1 -11.6,1.8 -11.8,1.6 -11.9,1.4 -12.0,1.2 -12.2,1.0"/></clipPath>
      <clipPath id="rightEye_av_1779093954990_lcytls2mgf"><polyline points="-11.3,0.2 -11.3,0.0 -11.2,-0.2 -11.2,-0.4 -11.1,-0.6 -11.0,-0.7 -10.8,-0.9 -10.7,-1.1 -10.5,-1.3 -10.3,-1.4 -10.1,-1.6 -9.9,-1.8 -9.7,-2.0 -9.5,-2.1 -9.2,-2.3 -8.9,-2.4 -8.6,-2.6 -8.3,-2.8 -7.9,-2.9 -7.6,-3.1 -7.2,-3.3 -6.8,-3.4 -6.4,-3.6 -6.0,-3.7 -5.6,-3.9 -5.2,-4.0 -4.8,-4.1 -4.4,-4.3 -4.0,-4.4 -3.5,-4.5 -3.1,-4.6 -2.7,-4.7 -2.3,-4.8 -1.8,-4.9 -1.4,-5.0 -1.0,-5.0 -0.6,-5.1 -0.1,-5.1 0.3,-5.2 0.7,-5.2 1.1,-5.2 1.5,-5.2 1.9,-5.2 2.3,-5.2 2.7,-5.2 3.0,-5.2 3.4,-5.2 3.8,-5.1 4.1,-5.1 4.5,-5.0 4.8,-5.0 5.2,-4.9 5.5,-4.8 5.8,-4.7 6.1,-4.6 6.4,-4.5 6.7,-4.4 6.9,-4.3 7.2,-4.2 7.5,-4.1 7.7,-4.0 7.9,-3.8 8.2,-3.7 8.4,-3.6 8.6,-3.5 8.8,-3.3 9.0,-3.2 9.1,-3.0 9.3,-2.9 9.5,-2.8 9.6,-2.6 9.7,-2.5 9.9,-2.3 10.0,-2.2 10.1,-2.0 10.2,-1.9 10.3,-1.7 10.4,-1.6 10.5,-1.4 10.5,-1.3 10.1,1.2 9.9,1.3 9.6,1.5 9.4,1.6 9.2,1.7 9.0,1.9 8.7,2.0 8.5,2.1 8.2,2.3 8.0,2.4 7.7,2.5 7.5,2.6 7.2,2.8 6.9,2.9 6.7,3.0 6.4,3.1 6.1,3.3 5.8,3.4 5.5,3.5 5.2,3.6 4.9,3.7 4.6,3.8 4.3,4.0 4.0,4.1 3.7,4.2 3.4,4.3 3.1,4.4 2.8,4.5 2.4,4.6 2.1,4.6 1.8,4.7 1.5,4.8 1.2,4.9 0.8,4.9 0.5,5.0 0.2,5.1 -0.1,5.1 -0.4,5.2 -0.8,5.2 -1.1,5.2 -1.4,5.2 -1.7,5.3 -2.0,5.3 -2.4,5.3 -2.7,5.3 -3.0,5.2 -3.3,5.2 -3.6,5.2 -4.0,5.1 -4.3,5.1 -4.6,5.0 -4.9,5.0 -5.2,4.9 -5.6,4.8 -5.9,4.7 -6.2,4.6 -6.5,4.5 -6.8,4.4 -7.2,4.3 -7.5,4.1 -7.8,4.0 -8.1,3.8 -8.4,3.7 -8.7,3.5 -9.1,3.3 -9.3,3.2 -9.5,3.1 -9.7,2.9 -9.9,2.8 -10.1,2.6 -10.2,2.5 -10.4,2.3 -10.5,2.2 -10.7,2.0 -10.8,1.8 -10.9,1.6 -11.0,1.5 -11.0,1.3 -11.1,1.1 -11.1,0.9"/></clipPath>
      <linearGradient id="rainbow_av_1779093954990_lcytls2mgf" x1="0%" y1="0%" x2="100%" y2="0%">
        <stop offset="0%" stop-color="#9CA3AF"/><stop offset="48%" stop-color="#22D3EE"/><stop offset="100%" stop-color="#6B7280"/>
      </linearGradient>
      <linearGradient id="splitHair_av_1779093954990_lcytls2mgf" x1="0%" y1="0%" x2="100%" y2="0%">
        <stop offset="49%" stop-color="#111827"/><stop offset="51%" stop-color="#F9FAFB"/>
      </linearGradient>
      <radialGradient id="halo_av_1779093954990_lcytls2mgf"><stop offset="0%" stop-color="#9CA3AF" stop-opacity=".45"/><stop offset="100%" stop-color="#9CA3AF" stop-opacity="0"/></radialGradient>
    </defs><rect x="-100" y="-100" width="200" height="200" fill="#F9FAFB"/><g opacity="1"><polyline id="faceContour" class="face-shape" points="39.6,-4.9 39.8,-3.5 39.8,-4.9 39.3,-0.1 39.4,0.6 39.6,-1.1 39.1,2.8 38.9,4.2 38.8,4.3 38.5,7.2 38.3,7.4 37.9,9.5 37.6,10.6 37.5,11.3 37.5,11.8 36.7,14.5 36.7,14.7 36.3,16.1 36.0,17.5 35.5,18.7 34.9,20.5 34.3,22.7 34.8,21.5 34.3,22.2 33.5,24.8 32.4,27.4 32.3,27.1 32.4,27.3 31.3,29.7 30.9,30.5 30.7,30.8 30.4,31.4 28.8,34.6 28.6,34.7 27.5,36.5 27.8,36.1 26.8,37.8 25.4,39.6 25.6,39.2 24.5,41.0 23.4,42.1 23.7,41.8 23.5,42.0 21.5,44.2 21.3,44.6 20.1,45.9 20.3,45.6 19.8,46.1 18.5,47.3 16.1,49.3 16.8,48.8 16.0,49.3 14.7,50.2 14.5,50.5 13.5,51.1 11.6,52.1 13.0,51.4 11.4,52.4 10.1,53.0 9.8,53.1 9.0,53.5 7.4,54.2 6.2,54.4 5.6,54.6 5.4,54.7 3.6,55.2 2.8,55.3 3.2,55.2 2.6,55.3 1.3,55.5 -1.4,55.5 -0.1,55.5 -1.5,55.5 -2.8,55.4 -2.6,55.6 -4.3,55.1 -5.2,55.0 -5.2,55.2 -7.0,54.7 -8.0,54.3 -8.2,54.5 -8.4,54.3 -10.6,53.4 -12.1,52.9 -10.6,53.5 -13.3,52.0 -12.5,52.7 -14.4,51.5 -15.2,51.0 -16.2,50.1 -16.2,50.3 -18.3,48.7 -18.2,48.6 -19.9,47.1 -20.8,46.1 -19.7,47.4 -21.2,46.0 -21.3,45.9 -21.4,45.6 -22.6,44.2 -23.3,43.5 -24.4,42.1 -24.4,42.1 -25.4,40.8 -26.4,39.4 -28.1,37.0 -27.0,38.4 -28.9,35.6 -29.2,34.8 -29.3,35.0 -30.7,31.9 -31.3,30.8 -31.9,29.8 -31.5,30.8 -32.4,28.6 -32.6,27.6 -32.9,27.1 -33.9,24.7 -34.4,23.8 -35.1,21.3 -35.2,21.2 -35.2,21.5 -36.6,16.7 -36.5,16.5 -36.3,16.9 -37.4,13.0 -37.2,13.7 -37.3,13.4 -37.9,10.8 -38.3,9.3 -38.1,9.3 -38.8,4.8 -38.6,6.1 -39.1,3.9 -39.2,2.8 -39.2,2.4 -39.6,-1.1 -39.7,-2.5 -39.5,-2.4 -39.8,-2.6 -39.8,-7.6 -40.0,-7.1 -39.8,-10.9 -39.8,-10.6 -39.7,-12.1 -39.8,-13.0 -39.9,-13.9 -39.8,-15.6 -39.6,-17.3 -39.3,-19.9 -39.1,-21.0 -39.2,-19.9 -39.0,-22.0 -38.9,-22.3 -38.6,-23.9 -38.7,-24.7 -38.1,-27.5 -37.4,-30.5 -37.2,-30.9 -36.7,-33.4 -36.3,-34.5 -36.1,-35.3 -35.6,-36.4 -35.7,-36.6 -35.8,-36.1 -34.4,-39.7 -33.8,-41.0 -33.2,-42.7 -32.8,-43.6 -32.6,-43.7 -31.7,-45.7 -31.7,-45.6 -31.6,-46.1 -30.8,-47.7 -30.2,-48.3 -29.4,-49.9 -29.7,-49.4 -27.7,-52.3 -28.0,-52.0 -26.9,-53.2 -26.2,-54.3 -24.4,-56.2 -24.0,-56.7 -23.7,-57.1 -22.9,-58.0 -22.0,-58.8 -21.1,-59.4 -19.3,-61.1 -18.6,-61.6 -19.2,-61.2 -16.9,-62.6 -17.8,-62.0 -17.4,-62.3 -15.9,-63.1 -14.7,-64.0 -13.9,-64.2 -12.3,-65.1 -11.9,-65.3 -9.5,-66.1 -9.8,-66.0 -9.5,-66.0 -9.3,-66.1 -7.9,-66.4 -7.7,-66.4 -4.7,-67.2 -3.7,-67.2 -3.7,-67.3 -3.2,-67.3 -0.8,-67.5 -1.5,-67.5 1.5,-67.4 1.9,-67.4 1.7,-67.4 3.3,-67.0 4.8,-66.9 4.0,-67.1 4.7,-66.9 6.3,-66.5 7.1,-66.2 8.8,-65.7 8.6,-65.8 11.4,-64.7 9.8,-65.5 12.8,-64.1 11.7,-64.5 14.8,-63.0 14.3,-63.3 15.0,-62.8 15.7,-62.4 16.2,-62.0 16.9,-61.8 19.0,-60.3 20.0,-59.3 20.6,-58.9 21.2,-58.2 22.6,-57.0 22.9,-56.6 23.3,-56.2 24.1,-55.2 25.3,-53.9 25.9,-53.2 25.8,-53.6 26.7,-52.3 27.1,-51.7 28.4,-50.0 28.8,-49.5 29.7,-47.9 30.3,-46.9 30.8,-46.0 31.5,-44.8 32.4,-43.4 32.9,-42.2 33.0,-41.6 34.2,-39.1 34.1,-39.0 34.8,-37.7 35.3,-36.2 35.1,-36.5 36.2,-33.5 35.9,-34.6 36.2,-33.4 36.9,-30.9 36.8,-31.2 37.2,-30.1 38.2,-25.3 37.8,-26.9 38.5,-24.5 38.5,-23.6 38.7,-22.7 39.2,-20.0 38.9,-20.7 39.2,-17.6 39.4,-17.9 39.6,-14.6 39.6,-15.5 39.8,-13.8 39.6,-10.6 39.9,-9.5 39.7,-9.4 39.9,-7.1 39.6,-4.9 39.8,-3.5" fill="#ffc9a9" stroke="#111" stroke-width="2.2" stroke-linejoin="round" filter="url(#fuzzy_av_1779093954990_lcytls2mgf)"/><g id="leftEye" transform="translate(-19.1 -30.0)"><polyline points="-13.0,-0.5 -12.9,-0.7 -12.8,-0.9 -12.7,-1.1 -12.6,-1.3 -12.5,-1.5 -12.3,-1.7 -12.1,-1.9 -11.9,-2.1 -11.7,-2.2 -11.5,-2.4 -11.3,-2.6 -11.0,-2.8 -10.7,-2.9 -10.5,-3.1 -10.2,-3.2 -9.8,-3.4 -9.5,-3.6 -9.1,-3.8 -8.8,-4.0 -8.4,-4.2 -8.0,-4.3 -7.6,-4.5 -7.2,-4.6 -6.7,-4.8 -6.3,-4.9 -5.9,-5.0 -5.4,-5.1 -5.0,-5.2 -4.6,-5.3 -4.1,-5.4 -3.7,-5.4 -3.2,-5.5 -2.8,-5.6 -2.3,-5.6 -1.9,-5.6 -1.4,-5.6 -1.0,-5.6 -0.5,-5.6 -0.1,-5.6 0.3,-5.6 0.8,-5.6 1.2,-5.5 1.6,-5.5 2.0,-5.4 2.4,-5.4 2.8,-5.3 3.2,-5.2 3.5,-5.1 3.9,-5.1 4.3,-5.0 4.6,-4.9 4.9,-4.7 5.2,-4.6 5.6,-4.5 5.9,-4.4 6.1,-4.3 6.4,-4.1 6.7,-4.0 6.9,-3.8 7.2,-3.7 7.4,-3.6 7.6,-3.4 7.8,-3.3 8.0,-3.1 8.2,-3.0 8.4,-2.8 8.6,-2.7 8.7,-2.5 8.9,-2.4 9.0,-2.2 9.1,-2.1 9.2,-1.9 9.3,-1.8 9.4,-1.6 9.5,-1.5 9.6,-1.3 9.7,-1.1 9.7,-1.0 9.8,-0.8 9.3,0.8 9.2,1.0 9.0,1.1 8.9,1.3 8.7,1.4 8.5,1.6 8.3,1.7 8.1,1.9 7.9,2.0 7.7,2.2 7.5,2.3 7.3,2.5 7.1,2.6 6.9,2.8 6.7,2.9 6.4,3.0 6.2,3.2 5.9,3.3 5.7,3.5 5.4,3.6 5.2,3.7 4.9,3.9 4.7,4.0 4.4,4.1 4.1,4.3 3.8,4.4 3.5,4.5 3.3,4.6 3.0,4.7 2.7,4.8 2.4,4.9 2.1,5.0 1.8,5.1 1.5,5.2 1.2,5.3 0.9,5.4 0.6,5.4 0.3,5.5 -0.0,5.6 -0.3,5.6 -0.7,5.7 -1.0,5.7 -1.3,5.7 -1.6,5.7 -1.9,5.7 -2.3,5.7 -2.6,5.7 -2.9,5.7 -3.3,5.7 -3.6,5.6 -4.0,5.6 -4.3,5.5 -4.6,5.4 -5.0,5.4 -5.4,5.3 -5.7,5.2 -6.1,5.0 -6.4,4.9 -6.8,4.8 -7.2,4.6 -7.5,4.5 -7.9,4.3 -8.3,4.2 -8.7,4.0 -9.0,3.8 -9.3,3.6 -9.6,3.5 -9.8,3.3 -10.1,3.2 -10.3,3.0 -10.6,2.8 -10.8,2.6 -11.0,2.4 -11.2,2.3 -11.4,2.1 -11.6,1.8 -11.8,1.6 -11.9,1.4 -12.0,1.2 -12.2,1.0" fill="#fff" stroke="#fff" stroke-width="0" stroke-linejoin="round" filter="url(#fuzzy_av_1779093954990_lcytls2mgf)"/><polyline points="12.1,1.6 12.3,1.4 12.5,1.2 12.7,1.0 12.8,0.8 12.9,0.6 13.0,0.3 13.0,0.1 13.0,-0.1 13.0,-0.3 -13.0,-0.5 -12.9,-0.7 -12.8,-0.9 -12.7,-1.1 -12.6,-1.3 -12.5,-1.5 -12.3,-1.7 -12.1,-1.9 -11.9,-2.1 -11.7,-2.2 -11.5,-2.4 -11.3,-2.6 -11.0,-2.8 -10.7,-2.9 -10.5,-3.1 -10.2,-3.2 -9.8,-3.4 -9.5,-3.6 -9.1,-3.8 -8.8,-4.0 -8.4,-4.2 -8.0,-4.3 -7.6,-4.5 -7.2,-4.6 -6.7,-4.8 -6.3,-4.9 -5.9,-5.0 -5.4,-5.1 -5.0,-5.2 -4.6,-5.3 -4.1,-5.4 -3.7,-5.4 -3.2,-5.5 -2.8,-5.6 -2.3,-5.6 -1.9,-5.6 -1.4,-5.6 -1.0,-5.6 -0.5,-5.6 -0.1,-5.6 0.3,-5.6 0.8,-5.6 1.2,-5.5 1.6,-5.5 2.0,-5.4 2.4,-5.4 2.8,-5.3 3.2,-5.2 3.5,-5.1 3.9,-5.1 4.3,-5.0 4.6,-4.9 4.9,-4.7 5.2,-4.6 5.6,-4.5 5.9,-4.4 6.1,-4.3 6.4,-4.1 6.7,-4.0 6.9,-3.8 7.2,-3.7 7.4,-3.6 7.6,-3.4 7.8,-3.3 8.0,-3.1 8.2,-3.0 8.4,-2.8 8.6,-2.7 8.7,-2.5 8.9,-2.4 9.0,-2.2 9.1,-2.1 9.2,-1.9 9.3,-1.8 9.4,-1.6 9.5,-1.5 9.6,-1.3 9.7,-1.1 9.7,-1.0 9.8,-0.8 -9.8,-0.7 -9.8,-0.5 -9.9,-0.4 -9.9,-0.2 -9.9,-0.1 -9.9,0.1 -9.8,0.2 -9.8,0.4 -9.8,0.5 -9.8,0.7" fill="none" stroke="#111" stroke-width="3.0955128627342043" stroke-linejoin="round" stroke-linecap="round" filter="url(#fuzzy_av_1779093954990_lcytls2mgf)"/><polyline points="11.9,-1.5 12.0,-1.2 12.2,-1.0 12.3,-0.7 12.3,-0.5 12.4,-0.2 12.4,0.0 12.4,0.3 12.3,0.5 12.2,0.7 -12.2,1.0 -12.0,1.2 -11.9,1.4 -11.8,1.6 -11.6,1.8 -11.4,2.1 -11.2,2.3 -11.0,2.4 -10.8,2.6 -10.6,2.8 -10.3,3.0 -10.1,3.2 -9.8,3.3 -9.6,3.5 -9.3,3.6 -9.0,3.8 -8.7,4.0 -8.3,4.2 -7.9,4.3 -7.5,4.5 -7.2,4.6 -6.8,4.8 -6.4,4.9 -6.1,5.0 -5.7,5.2 -5.4,5.3 -5.0,5.4 -4.6,5.4 -4.3,5.5 -4.0,5.6 -3.6,5.6 -3.3,5.7 -2.9,5.7 -2.6,5.7 -2.3,5.7 -1.9,5.7 -1.6,5.7 -1.3,5.7 -1.0,5.7 -0.7,5.7 -0.3,5.6 -0.0,5.6 0.3,5.5 0.6,5.4 0.9,5.4 1.2,5.3 1.5,5.2 1.8,5.1 2.1,5.0 2.4,4.9 2.7,4.8 3.0,4.7 3.3,4.6 3.5,4.5 3.8,4.4 4.1,4.3 4.4,4.1 4.7,4.0 4.9,3.9 5.2,3.7 5.4,3.6 5.7,3.5 5.9,3.3 6.2,3.2 6.4,3.0 6.7,2.9 6.9,2.8 7.1,2.6 7.3,2.5 7.5,2.3 7.7,2.2 7.9,2.0 8.1,1.9 8.3,1.7 8.5,1.6 8.7,1.4 8.9,1.3 9.0,1.1 9.2,1.0 9.3,0.8 -9.5,0.6 -9.6,0.5 -9.8,0.3 -9.9,0.2 -10.0,0.0 -10.1,-0.1 -10.2,-0.3 -10.3,-0.5 -10.4,-0.6 -10.5,-0.8" fill="none" stroke="#111" stroke-width="2.707692539057237" stroke-linejoin="round" stroke-linecap="round" filter="url(#fuzzy_av_1779093954990_lcytls2mgf)"/><circle r="3.4103289821195024" cx="-4.164405825429277" cy="-2.7764309506149454" stroke="#111" fill="none" stroke-width="1.1762213448348362" filter="url(#fuzzy_av_1779093954990_lcytls2mgf)" clip-path="url(#leftEye_av_1779093954990_lcytls2mgf)"/><circle r="2.9453400212863317" cx="-1.0912736678043822" cy="-2.5911652215666416" stroke="#111" fill="none" stroke-width="1.1851750873117135" filter="url(#fuzzy_av_1779093954990_lcytls2mgf)" clip-path="url(#leftEye_av_1779093954990_lcytls2mgf)"/><circle r="4.127880137011157" cx="-2.6510005225228563" cy="-0.7773945508833553" stroke="#111" fill="none" stroke-width="1.2831254919235877" filter="url(#fuzzy_av_1779093954990_lcytls2mgf)" clip-path="url(#leftEye_av_1779093954990_lcytls2mgf)"/><circle r="3.466278586686426" cx="-1.343711256181673" cy="-1.6645518987268193" stroke="#111" fill="none" stroke-width="1.145061043276543" filter="url(#fuzzy_av_1779093954990_lcytls2mgf)" clip-path="url(#leftEye_av_1779093954990_lcytls2mgf)"/><circle r="3.2843777212548675" cx="-3.8099043696207664" cy="-0.4407032720214106" stroke="#111" fill="none" stroke-width="1.2293064602503538" filter="url(#fuzzy_av_1779093954990_lcytls2mgf)" clip-path="url(#leftEye_av_1779093954990_lcytls2mgf)"/><circle r="3.61172767048277" cx="-5.102140977021983" cy="-0.33971896276945013" stroke="#111" fill="none" stroke-width="1.3296496007437473" filter="url(#fuzzy_av_1779093954990_lcytls2mgf)" clip-path="url(#leftEye_av_1779093954990_lcytls2mgf)"/><circle r="3.4329517450034635" cx="-3.884486954806229" cy="-3.065821381374538" stroke="#111" fill="none" stroke-width="1.3788545094933156" filter="url(#fuzzy_av_1779093954990_lcytls2mgf)" clip-path="url(#leftEye_av_1779093954990_lcytls2mgf)"/><circle r="2.7214352577500907" cx="-2.2807047870531636" cy="-0.7819882145935215" stroke="#111" fill="none" stroke-width="0.9777314882227877" filter="url(#fuzzy_av_1779093954990_lcytls2mgf)" clip-path="url(#leftEye_av_1779093954990_lcytls2mgf)"/><circle r="3.006675436259965" cx="-4.761460014501121" cy="-0.318349306324192" stroke="#111" fill="none" stroke-width="1.0602511424030099" filter="url(#fuzzy_av_1779093954990_lcytls2mgf)" clip-path="url(#leftEye_av_1779093954990_lcytls2mgf)"/><circle r="2.9496390134461787" cx="-4.169637358199536" cy="-2.41944585334255" stroke="#111" fill="none" stroke-width="1.061916215175554" filter="url(#fuzzy_av_1779093954990_lcytls2mgf)" clip-path="url(#leftEye_av_1779093954990_lcytls2mgf)"/></g><g id="rightEye" transform="translate(17.8 -30.9)"><polyline points="-11.3,0.2 -11.3,0.0 -11.2,-0.2 -11.2,-0.4 -11.1,-0.6 -11.0,-0.7 -10.8,-0.9 -10.7,-1.1 -10.5,-1.3 -10.3,-1.4 -10.1,-1.6 -9.9,-1.8 -9.7,-2.0 -9.5,-2.1 -9.2,-2.3 -8.9,-2.4 -8.6,-2.6 -8.3,-2.8 -7.9,-2.9 -7.6,-3.1 -7.2,-3.3 -6.8,-3.4 -6.4,-3.6 -6.0,-3.7 -5.6,-3.9 -5.2,-4.0 -4.8,-4.1 -4.4,-4.3 -4.0,-4.4 -3.5,-4.5 -3.1,-4.6 -2.7,-4.7 -2.3,-4.8 -1.8,-4.9 -1.4,-5.0 -1.0,-5.0 -0.6,-5.1 -0.1,-5.1 0.3,-5.2 0.7,-5.2 1.1,-5.2 1.5,-5.2 1.9,-5.2 2.3,-5.2 2.7,-5.2 3.0,-5.2 3.4,-5.2 3.8,-5.1 4.1,-5.1 4.5,-5.0 4.8,-5.0 5.2,-4.9 5.5,-4.8 5.8,-4.7 6.1,-4.6 6.4,-4.5 6.7,-4.4 6.9,-4.3 7.2,-4.2 7.5,-4.1 7.7,-4.0 7.9,-3.8 8.2,-3.7 8.4,-3.6 8.6,-3.5 8.8,-3.3 9.0,-3.2 9.1,-3.0 9.3,-2.9 9.5,-2.8 9.6,-2.6 9.7,-2.5 9.9,-2.3 10.0,-2.2 10.1,-2.0 10.2,-1.9 10.3,-1.7 10.4,-1.6 10.5,-1.4 10.5,-1.3 10.1,1.2 9.9,1.3 9.6,1.5 9.4,1.6 9.2,1.7 9.0,1.9 8.7,2.0 8.5,2.1 8.2,2.3 8.0,2.4 7.7,2.5 7.5,2.6 7.2,2.8 6.9,2.9 6.7,3.0 6.4,3.1 6.1,3.3 5.8,3.4 5.5,3.5 5.2,3.6 4.9,3.7 4.6,3.8 4.3,4.0 4.0,4.1 3.7,4.2 3.4,4.3 3.1,4.4 2.8,4.5 2.4,4.6 2.1,4.6 1.8,4.7 1.5,4.8 1.2,4.9 0.8,4.9 0.5,5.0 0.2,5.1 -0.1,5.1 -0.4,5.2 -0.8,5.2 -1.1,5.2 -1.4,5.2 -1.7,5.3 -2.0,5.3 -2.4,5.3 -2.7,5.3 -3.0,5.2 -3.3,5.2 -3.6,5.2 -4.0,5.1 -4.3,5.1 -4.6,5.0 -4.9,5.0 -5.2,4.9 -5.6,4.8 -5.9,4.7 -6.2,4.6 -6.5,4.5 -6.8,4.4 -7.2,4.3 -7.5,4.1 -7.8,4.0 -8.1,3.8 -8.4,3.7 -8.7,3.5 -9.1,3.3 -9.3,3.2 -9.5,3.1 -9.7,2.9 -9.9,2.8 -10.1,2.6 -10.2,2.5 -10.4,2.3 -10.5,2.2 -10.7,2.0 -10.8,1.8 -10.9,1.6 -11.0,1.5 -11.0,1.3 -11.1,1.1 -11.1,0.9" fill="#fff" stroke="#fff" stroke-width="0" stroke-linejoin="round" filter="url(#fuzzy_av_1779093954990_lcytls2mgf)"/><polyline points="-9.8,2.3 -10.1,2.1 -10.3,1.9 -10.6,1.7 -10.8,1.4 -10.9,1.2 -11.1,1.0 -11.2,0.8 -11.2,0.6 -11.3,0.4 -11.3,0.2 -11.3,0.0 -11.2,-0.2 -11.2,-0.4 -11.1,-0.6 -11.0,-0.7 -10.8,-0.9 -10.7,-1.1 -10.5,-1.3 -10.3,-1.4 -10.1,-1.6 -9.9,-1.8 -9.7,-2.0 -9.5,-2.1 -9.2,-2.3 -8.9,-2.4 -8.6,-2.6 -8.3,-2.8 -7.9,-2.9 -7.6,-3.1 -7.2,-3.3 -6.8,-3.4 -6.4,-3.6 -6.0,-3.7 -5.6,-3.9 -5.2,-4.0 -4.8,-4.1 -4.4,-4.3 -4.0,-4.4 -3.5,-4.5 -3.1,-4.6 -2.7,-4.7 -2.3,-4.8 -1.8,-4.9 -1.4,-5.0 -1.0,-5.0 -0.6,-5.1 -0.1,-5.1 0.3,-5.2 0.7,-5.2 1.1,-5.2 1.5,-5.2 1.9,-5.2 2.3,-5.2 2.7,-5.2 3.0,-5.2 3.4,-5.2 3.8,-5.1 4.1,-5.1 4.5,-5.0 4.8,-5.0 5.2,-4.9 5.5,-4.8 5.8,-4.7 6.1,-4.6 6.4,-4.5 6.7,-4.4 6.9,-4.3 7.2,-4.2 7.5,-4.1 7.7,-4.0 7.9,-3.8 8.2,-3.7 8.4,-3.6 8.6,-3.5 8.8,-3.3 9.0,-3.2 9.1,-3.0 9.3,-2.9 9.5,-2.8 9.6,-2.6 9.7,-2.5 9.9,-2.3 10.0,-2.2 10.1,-2.0 10.2,-1.9 10.3,-1.7 10.4,-1.6 10.5,-1.4 10.5,-1.3 10.6,-1.1 10.6,-0.9 10.7,-0.8 10.7,-0.6 10.7,-0.5 10.7,-0.3 10.8,-0.2 10.8,-0.0 10.7,0.1 10.7,0.3" fill="none" stroke="#111" stroke-width="2.807015188295787" stroke-linejoin="round" stroke-linecap="round" filter="url(#fuzzy_av_1779093954990_lcytls2mgf)"/><polyline points="-9.7,-1.1 -10.0,-0.9 -10.2,-0.7 -10.5,-0.5 -10.6,-0.3 -10.8,-0.1 -10.9,0.1 -11.0,0.3 -11.1,0.5 -11.1,0.7 -11.1,0.9 -11.1,1.1 -11.0,1.3 -11.0,1.5 -10.9,1.6 -10.8,1.8 -10.7,2.0 -10.5,2.2 -10.4,2.3 -10.2,2.5 -10.1,2.6 -9.9,2.8 -9.7,2.9 -9.5,3.1 -9.3,3.2 -9.1,3.3 -8.7,3.5 -8.4,3.7 -8.1,3.8 -7.8,4.0 -7.5,4.1 -7.2,4.3 -6.8,4.4 -6.5,4.5 -6.2,4.6 -5.9,4.7 -5.6,4.8 -5.2,4.9 -4.9,5.0 -4.6,5.0 -4.3,5.1 -4.0,5.1 -3.6,5.2 -3.3,5.2 -3.0,5.2 -2.7,5.3 -2.4,5.3 -2.0,5.3 -1.7,5.3 -1.4,5.2 -1.1,5.2 -0.8,5.2 -0.4,5.2 -0.1,5.1 0.2,5.1 0.5,5.0 0.8,4.9 1.2,4.9 1.5,4.8 1.8,4.7 2.1,4.6 2.4,4.6 2.8,4.5 3.1,4.4 3.4,4.3 3.7,4.2 4.0,4.1 4.3,4.0 4.6,3.8 4.9,3.7 5.2,3.6 5.5,3.5 5.8,3.4 6.1,3.3 6.4,3.1 6.7,3.0 6.9,2.9 7.2,2.8 7.5,2.6 7.7,2.5 8.0,2.4 8.2,2.3 8.5,2.1 8.7,2.0 9.0,1.9 9.2,1.7 9.4,1.6 9.6,1.5 9.9,1.3 10.1,1.2 10.3,1.1 10.5,0.9 10.6,0.8 10.8,0.7 11.0,0.5 11.2,0.4 11.3,0.3 11.5,0.2 11.6,0.0 11.8,-0.1" fill="none" stroke="#111" stroke-width="2.269995079257764" stroke-linejoin="round" stroke-linecap="round" filter="url(#fuzzy_av_1779093954990_lcytls2mgf)"/><circle r="2.906111577248316" cx="-5.7064172963241475" cy="-0.788837569686641" stroke="#111" fill="none" stroke-width="1.3481853710093097" filter="url(#fuzzy_av_1779093954990_lcytls2mgf)" clip-path="url(#rightEye_av_1779093954990_lcytls2mgf)"/><circle r="3.1414490499068655" cx="-5.280753533754372" cy="0.04783197381252391" stroke="#111" fill="none" stroke-width="1.2769168440139933" filter="url(#fuzzy_av_1779093954990_lcytls2mgf)" clip-path="url(#rightEye_av_1779093954990_lcytls2mgf)"/><circle r="3.8521610883858273" cx="-6.04732956856674" cy="2.4749923608305453" stroke="#111" fill="none" stroke-width="0.8207243632170158" filter="url(#fuzzy_av_1779093954990_lcytls2mgf)" clip-path="url(#rightEye_av_1779093954990_lcytls2mgf)"/><circle r="3.9503019437176503" cx="-2.7634396594266826" cy="2.1270254802485558" stroke="#111" fill="none" stroke-width="1.0107876133123836" filter="url(#fuzzy_av_1779093954990_lcytls2mgf)" clip-path="url(#rightEye_av_1779093954990_lcytls2mgf)"/><circle r="2.438141495058081" cx="-3.2021241368167805" cy="1.4546914257998314" stroke="#111" fill="none" stroke-width="0.9259682178602094" filter="url(#fuzzy_av_1779093954990_lcytls2mgf)" clip-path="url(#rightEye_av_1779093954990_lcytls2mgf)"/><circle r="4.156493286002358" cx="-3.015187239817262" cy="0.8303831595185494" stroke="#111" fill="none" stroke-width="1.154381664615352" filter="url(#fuzzy_av_1779093954990_lcytls2mgf)" clip-path="url(#rightEye_av_1779093954990_lcytls2mgf)"/><circle r="4.173511649068516" cx="-4.954971877479049" cy="2.4459686582466293" stroke="#111" fill="none" stroke-width="0.9437077333425175" filter="url(#fuzzy_av_1779093954990_lcytls2mgf)" clip-path="url(#rightEye_av_1779093954990_lcytls2mgf)"/><circle r="3.7586414121229104" cx="-3.5542195485880863" cy="0.8861318951032593" stroke="#111" fill="none" stroke-width="1.2293543963564313" filter="url(#fuzzy_av_1779093954990_lcytls2mgf)" clip-path="url(#rightEye_av_1779093954990_lcytls2mgf)"/><circle r="2.3980939529002483" cx="-2.4769815382355818" cy="-0.6512927347229591" stroke="#111" fill="none" stroke-width="0.9266669230596211" filter="url(#fuzzy_av_1779093954990_lcytls2mgf)" clip-path="url(#rightEye_av_1779093954990_lcytls2mgf)"/><circle r="3.594846787150268" cx="-6.233134599243067" cy="-0.7719000579603934" stroke="#111" fill="none" stroke-width="1.3182115030581665" filter="url(#fuzzy_av_1779093954990_lcytls2mgf)" clip-path="url(#rightEye_av_1779093954990_lcytls2mgf)"/></g><g id="hairs"><polyline points="-15.9,-64.0 -14.8,-65.2 -13.6,-64.7 -12.4,-65.6 -11.2,-65.7 -10.1,-65.9 -9.2,-66.5 -8.3,-66.8 -7.6,-67.6 -6.8,-67.4 -6.1,-67.2 -5.5,-67.7 -5.1,-68.1 -4.9,-68.9 -5.1,-67.7 -5.5,-68.7 -6.1,-66.8 -6.8,-68.0 -7.8,-67.6 -9.3,-67.8 -11.9,-65.8" fill="none" stroke="rgb(80,68,68)" stroke-width="2.0262696994858223" stroke-linejoin="round" stroke-linecap="round" filter="url(#fuzzy_av_1779093954990_lcytls2mgf)" opacity="0.9525810851792548"/><polyline points="-24.4,-56.4 -24.0,-56.9 -23.5,-58.8 -22.7,-58.3 -21.9,-60.0 -21.1,-59.5 -20.4,-61.9 -19.9,-62.1 -19.5,-61.7 -19.4,-60.9 -19.3,-62.1 -19.5,-61.7 -19.7,-60.9 -20.1,-60.1 -20.7,-58.3 -21.4,-58.1 -22.4,-57.0 -23.8,-56.1 -25.4,-52.5 -27.4,-50.9 -29.6,-48.3 -31.7,-47.7" fill="none" stroke="rgb(80,68,68)" stroke-width="2.3559991606899047" stroke-linejoin="round" stroke-linecap="round" filter="url(#fuzzy_av_1779093954990_lcytls2mgf)" opacity="0.7631921815908838"/><polyline points="25.3,-54.0 25.7,-53.7 26.0,-53.9 26.4,-54.2 26.8,-53.5 27.2,-51.6 27.4,-52.7 27.4,-51.7 27.2,-50.3 26.8,-50.7 26.2,-51.5 25.3,-51.8 24.1,-52.5 22.5,-53.5 20.7,-55.1 18.4,-56.5 15.7,-58.7 12.6,-61.2 9.0,-63.5 4.7,-67.4" fill="none" stroke="rgb(80,68,68)" stroke-width="1.3155651384242966" stroke-linejoin="round" stroke-linecap="round" filter="url(#fuzzy_av_1779093954990_lcytls2mgf)" opacity="0.9308845902757922"/><polyline points="11.4,-65.6 11.2,-65.3 12.0,-65.2 13.2,-64.7 14.4,-63.3 15.6,-62.7 16.7,-63.0 17.7,-62.4 18.8,-60.0 19.7,-61.0 20.6,-59.3 21.3,-59.9 21.7,-59.2 21.8,-59.1 21.4,-58.3 20.6,-58.9" fill="none" stroke="rgb(80,68,68)" stroke-width="0.7146870327678058" stroke-linejoin="round" stroke-linecap="round" filter="url(#fuzzy_av_1779093954990_lcytls2mgf)" opacity="0.8010607418215"/><polyline points="-35.7,-38.3 -35.3,-39.2 -34.2,-40.5 -33.0,-40.9 -31.7,-42.6 -30.2,-45.0 -28.6,-45.8 -26.9,-46.5 -25.0,-48.1 -22.9,-48.9 -20.7,-49.8 -18.3,-50.6 -15.8,-51.7 -13.2,-53.5 -10.6,-55.6 -7.9,-56.0 -5.2,-56.7 -2.6,-58.9 0.1,-59.9 2.8,-61.2 5.5,-61.7 8.1,-62.2 10.5,-64.9 11.7,-64.7" fill="none" stroke="rgb(80,68,68)" stroke-width="1.5920393663258408" stroke-linejoin="round" stroke-linecap="round" filter="url(#fuzzy_av_1779093954990_lcytls2mgf)" opacity="0.8011205000668575"/><polyline points="-0.8,-69.1 -0.4,-69.0 0.6,-69.1 1.5,-68.3 2.4,-69.0 3.1,-68.5 3.8,-68.5 4.3,-67.4 4.7,-68.7 5.1,-68.4 5.2,-67.6 5.2,-68.0 4.8,-68.0 4.1,-67.6 3.0,-66.7 1.6,-68.5 -0.2,-68.6 -2.2,-67.5 -4.7,-68.2" fill="none" stroke="rgb(80,68,68)" stroke-width="0.9957101349607911" stroke-linejoin="round" stroke-linecap="round" filter="url(#fuzzy_av_1779093954990_lcytls2mgf)" opacity="0.8345738960451062"/><polyline points="-38.1,-29.4 -37.5,-31.3 -37.0,-32.2 -36.4,-33.9 -35.9,-35.9 -35.3,-37.1 -34.6,-39.5 -34.0,-39.6 -33.2,-41.2 -32.5,-42.9 -31.7,-44.9 -31.0,-45.5 -30.4,-48.2 -29.9,-47.9 -29.5,-49.2 -29.2,-50.9 -29.1,-49.8 -29.1,-51.1 -29.2,-51.7 -29.3,-50.1 -29.7,-50.7 -30.1,-50.0 -30.8,-49.5" fill="none" stroke="rgb(80,68,68)" stroke-width="2.0104820999250728" stroke-linejoin="round" stroke-linecap="round" filter="url(#fuzzy_av_1779093954990_lcytls2mgf)" opacity="0.9103164666800413"/><polyline points="7.1,-67.2 8.2,-66.4 8.9,-65.8 9.2,-66.0 9.4,-65.1 9.3,-64.9 8.9,-63.2 8.3,-63.0 7.4,-61.8 6.1,-59.9 4.6,-59.9 2.7,-56.7 0.5,-55.1 -2.0,-53.9 -4.9,-51.9 -8.2,-48.8 -11.9,-46.1 -16.1,-44.0 -20.6,-41.4 -25.7,-39.5 -31.2,-35.8 -37.2,-31.1" fill="none" stroke="rgb(80,68,68)" stroke-width="2.0888833180638122" stroke-linejoin="round" stroke-linecap="round" filter="url(#fuzzy_av_1779093954990_lcytls2mgf)" opacity="0.8437693656055656"/><polyline points="4.8,-68.3 4.6,-67.3 5.0,-68.5 5.8,-67.9 6.4,-68.0 7.0,-67.8 7.4,-65.6 7.5,-67.0 7.4,-65.4 7.2,-65.3 6.7,-64.6 6.0,-65.3 5.0,-62.9 3.7,-63.0 2.1,-62.3 0.3,-61.2 -1.9,-61.9 -4.4,-60.9 -7.2,-59.3 -10.3,-57.7 -14.0,-57.4 -18.1,-55.5 -22.8,-53.6 -28.0,-53.5" fill="none" stroke="rgb(80,68,68)" stroke-width="1.0533320028090043" stroke-linejoin="round" stroke-linecap="round" filter="url(#fuzzy_av_1779093954990_lcytls2mgf)" opacity="0.8043583888855468"/><polyline points="1.5,-67.8 1.8,-68.9 2.3,-68.9 2.9,-67.8 3.4,-68.3 3.9,-68.1 4.3,-67.0 4.6,-66.6 4.9,-67.5 5.0,-65.9 4.9,-66.6 4.7,-66.7 4.3,-65.2 3.6,-64.9 2.7,-65.0 1.6,-63.3 0.2,-63.7 -1.6,-63.3 -3.6,-62.8 -5.9,-61.2 -8.5,-60.2 -11.4,-58.5 -14.6,-58.9 -18.2,-58.0 -22.4,-56.3 -26.9,-55.2" fill="none" stroke="rgb(80,68,68)" stroke-width="2.2297913997160563" stroke-linejoin="round" stroke-linecap="round" filter="url(#fuzzy_av_1779093954990_lcytls2mgf)" opacity="0.9033431907232709"/><polyline points="6.3,-68.4 7.1,-67.7 7.8,-65.9 8.1,-66.1 8.2,-63.7 7.9,-62.8 7.4,-60.7 6.7,-58.0 5.6,-55.7 4.2,-54.0 2.4,-50.3 0.4,-46.7 -1.9,-42.2 -4.5,-37.6 -7.4,-33.6 -10.6,-28.5 -14.2,-22.1 -18.1,-17.3 -22.4,-10.3 -27.1,-3.3 -32.1,4.3 -37.3,12.9" fill="none" stroke="rgb(80,68,68)" stroke-width="1.1121292715633158" stroke-linejoin="round" stroke-linecap="round" filter="url(#fuzzy_av_1779093954990_lcytls2mgf)" opacity="0.987356052300321"/><polyline points="-39.6,-17.6 -39.3,-19.6 -39.1,-21.6 -38.8,-23.3 -38.5,-23.1 -38.2,-24.9 -37.8,-28.0 -37.3,-29.9 -36.8,-32.1 -36.3,-32.6 -35.8,-35.6 -35.3,-37.4 -34.9,-38.5 -34.6,-40.3 -34.3,-39.6 -34.1,-41.0 -34.0,-40.7 -34.0,-41.7 -34.2,-41.3 -34.6,-39.4 -35.2,-37.8 -35.7,-38.4" fill="none" stroke="rgb(80,68,68)" stroke-width="1.826064661944589" stroke-linejoin="round" stroke-linecap="round" filter="url(#fuzzy_av_1779093954990_lcytls2mgf)" opacity="0.8786997491972506"/><polyline points="-27.7,-52.7 -27.6,-53.1 -27.1,-54.5 -26.5,-55.0 -26.0,-54.3 -25.6,-53.1 -25.5,-51.0 -25.5,-50.1 -25.6,-48.4 -25.8,-45.7 -26.3,-42.4 -26.9,-38.2 -27.8,-33.8 -29.0,-28.5 -30.3,-20.6 -31.9,-14.7 -33.6,-7.3 -35.4,2.6 -37.3,12.7" fill="none" stroke="rgb(80,68,68)" stroke-width="2.2586389936014104" stroke-linejoin="round" stroke-linecap="round" filter="url(#fuzzy_av_1779093954990_lcytls2mgf)" opacity="0.949047873543293"/><polyline points="32.4,-45.4 32.7,-43.9 32.7,-42.6 32.4,-41.4 31.8,-40.5 30.7,-40.2 29.3,-41.2 27.4,-41.2 25.1,-40.9 22.4,-42.4 19.2,-42.6 15.6,-43.1 11.4,-45.1 6.7,-46.9 1.5,-47.7 -4.3,-50.2 -10.6,-50.9 -17.3,-54.2 -24.4,-58.1" fill="none" stroke="rgb(80,68,68)" stroke-width="1.7268676185869238" stroke-linejoin="round" stroke-linecap="round" filter="url(#fuzzy_av_1779093954990_lcytls2mgf)" opacity="0.8380841685158015"/><polyline points="22.6,-58.9 23.0,-57.1 23.4,-57.9 23.8,-55.5 24.2,-56.0 24.4,-56.2 24.4,-56.0 24.2,-54.7 24.0,-55.2 23.5,-55.0 22.8,-54.4 21.9,-54.4 20.7,-53.5 19.2,-54.3 17.4,-54.5 15.2,-56.9 12.7,-57.4 9.8,-58.0 6.4,-58.7 2.7,-61.3 -1.4,-62.5 -5.5,-64.0 -9.8,-67.1" fill="none" stroke="rgb(80,68,68)" stroke-width="1.7610711025944952" stroke-linejoin="round" stroke-linecap="round" filter="url(#fuzzy_av_1779093954990_lcytls2mgf)" opacity="0.8615861367740186"/><polyline points="-3.7,-67.7 -3.5,-68.2 -2.8,-67.4 -2.1,-68.5 -1.5,-69.0 -1.1,-67.3 -1.0,-66.9 -1.1,-66.1 -1.4,-67.2 -2.1,-65.9 -3.0,-63.9 -4.2,-64.2 -5.6,-62.8 -7.3,-60.6 -9.3,-59.9 -11.6,-58.1 -14.2,-55.6 -17.2,-53.5 -20.6,-50.6 -24.4,-48.2 -28.6,-45.9 -33.2,-43.2" fill="none" stroke="rgb(80,68,68)" stroke-width="1.0006391949452293" stroke-linejoin="round" stroke-linecap="round" filter="url(#fuzzy_av_1779093954990_lcytls2mgf)" opacity="0.8531211320885909"/><polyline points="19.0,-61.4 19.8,-60.8 20.5,-60.0 21.1,-58.7 21.6,-58.5 21.9,-58.4 22.1,-58.6 22.2,-57.1 22.0,-56.4 21.8,-57.2 21.3,-55.6 20.6,-57.0 19.7,-56.7 18.6,-55.6 17.3,-56.7 15.8,-56.1 14.0,-56.1 12.0,-56.6 9.7,-57.5 7.1,-58.2 4.0,-58.4 0.6,-59.2 -3.2,-61.0 -7.5,-61.2 -12.2,-61.8 -17.4,-62.4" fill="none" stroke="rgb(80,68,68)" stroke-width="2.596643689485576" stroke-linejoin="round" stroke-linecap="round" filter="url(#fuzzy_av_1779093954990_lcytls2mgf)" opacity="0.9976302689050668"/><polyline points="-11.9,-65.7 -10.5,-67.0 -10.2,-66.4 -10.3,-65.2 -10.5,-63.7 -10.8,-62.1 -11.1,-59.9 -11.7,-56.4 -12.6,-53.4 -13.9,-50.2 -15.6,-44.3 -17.7,-38.5 -20.1,-33.1 -22.8,-25.7 -26.0,-17.9 -29.7,-9.9 -33.7,-1.0 -38.3,7.7" fill="none" stroke="rgb(80,68,68)" stroke-width="2.474379072832585" stroke-linejoin="round" stroke-linecap="round" filter="url(#fuzzy_av_1779093954990_lcytls2mgf)" opacity="0.7642265310270164"/><polyline points="38.9,-22.4 39.4,-19.3 39.8,-16.0 40.3,-13.6 40.6,-9.7 40.8,-7.1 40.9,-4.7 41.0,-3.2 41.0,1.0 41.0,3.6 40.7,5.1 40.4,7.8 40.0,10.1 39.7,11.7 39.4,14.2 39.0,17.5 38.6,19.6 38.1,22.8 37.4,25.2 36.6,27.7 35.8,29.6 34.8,30.4 33.9,33.6 33.0,35.1 31.9,36.9 30.8,37.8 29.6,40.5 28.3,42.4 26.5,44.6" fill="none" stroke="rgb(80,68,68)" stroke-width="2.05895386391521" stroke-linejoin="round" stroke-linecap="round" filter="url(#fuzzy_av_1779093954990_lcytls2mgf)" opacity="0.838319417709694"/><polyline points="39.2,-21.6 39.4,-18.1 39.6,-16.7 39.7,-14.7 39.8,-10.8 39.8,-8.7 39.8,-6.2 39.7,-3.7 39.5,-1.2 39.2,1.7 38.8,4.3 38.3,6.5 37.7,9.2 37.1,12.3 36.4,14.8 35.7,16.2 35.0,19.1 34.3,21.5 33.5,23.0 32.6,26.6 31.7,27.8 30.7,29.3 29.7,32.9 28.5,34.9 27.4,35.7 26.1,37.2 24.8,39.0 23.4,41.3 21.9,43.4 20.5,44.5 19.0,45.5 17.4,46.9 15.9,48.0 14.4,49.9 12.8,50.5 11.3,51.4 9.7,53.2 7.8,52.5 5.9,53.7" fill="none" stroke="rgb(80,68,68)" stroke-width="0.7745138162265123" stroke-linejoin="round" stroke-linecap="round" filter="url(#fuzzy_av_1779093954990_lcytls2mgf)" opacity="0.7810393699895779"/><polyline points="37.8,-28.3 38.5,-24.8 39.0,-22.5 39.3,-18.7 39.6,-16.1 39.8,-13.7 39.9,-11.6 39.9,-8.4 39.8,-5.4 39.7,-3.8 39.6,-0.1 39.3,0.5 39.1,4.3 38.7,7.2 38.3,9.7 37.8,11.1 37.3,13.0 36.7,15.6 36.1,18.2 35.3,20.6 34.5,22.6 33.7,25.8 33.3,25.3" fill="none" stroke="rgb(80,68,68)" stroke-width="2.3721449508528933" stroke-linejoin="round" stroke-linecap="round" filter="url(#fuzzy_av_1779093954990_lcytls2mgf)" opacity="0.8307308049982011"/><polyline points="37.2,-31.9 40.6,-27.2 41.7,-25.0 42.4,-21.6 42.7,-19.7 42.6,-17.6 42.3,-13.8 41.9,-10.7 41.7,-9.4 41.7,-6.5 41.7,-2.6 41.8,-0.8 41.9,1.2 41.8,3.8 41.6,7.2 41.3,8.8 41.0,11.5 40.7,14.1 40.4,15.5 40.0,18.1 39.6,20.4 39.0,23.5 38.5,24.6 37.9,27.3 37.4,29.6 36.9,31.5 36.0,33.1" fill="none" stroke="rgb(80,68,68)" stroke-width="2.0671892460309143" stroke-linejoin="round" stroke-linecap="round" filter="url(#fuzzy_av_1779093954990_lcytls2mgf)" opacity="0.7672424456934057"/><polyline points="37.2,-31.6 39.1,-27.9 40.2,-25.7 40.4,-21.3 40.2,-18.9 40.2,-17.5 40.3,-14.9 40.4,-11.6 40.6,-8.8 40.8,-6.5 40.9,-2.9 41.0,-1.7 40.9,1.6 40.8,4.4 40.7,6.3 40.5,9.8 40.2,11.0 39.9,14.7 39.5,16.0 39.1,18.6 38.6,21.7 38.1,22.3 37.5,26.1 37.0,27.0 36.4,28.7 35.7,31.0 34.7,34.4 33.4,34.9 31.9,37.7 30.6,40.3 30.0,41.3" fill="none" stroke="rgb(80,68,68)" stroke-width="0.7149564216082623" stroke-linejoin="round" stroke-linecap="round" filter="url(#fuzzy_av_1779093954990_lcytls2mgf)" opacity="0.7617010566348054"/><polyline points="36.9,-31.3 37.1,-29.9 37.2,-27.1 37.4,-25.2 37.9,-21.2 38.3,-19.8 38.6,-16.7 38.7,-13.3 38.6,-11.4 38.3,-8.2 37.9,-6.5 37.5,-3.1 37.0,-0.5 36.6,0.7 36.1,4.0 35.5,6.7 34.8,10.0 34.0,12.1 33.1,13.6 32.2,15.4 31.3,19.2 30.4,20.3 29.6,22.2 28.7,24.5 27.8,27.7 26.9,30.0 25.7,31.0 24.5,34.1 23.0,36.8 21.1,38.1" fill="none" stroke="rgb(80,68,68)" stroke-width="1.2306494575807965" stroke-linejoin="round" stroke-linecap="round" filter="url(#fuzzy_av_1779093954990_lcytls2mgf)" opacity="0.7697027795349073"/><polyline points="32.4,-44.3 32.6,-41.7 32.1,-39.6 31.0,-37.2 30.2,-34.9 30.0,-34.0 30.0,-31.9 29.8,-29.4 29.2,-26.2 28.2,-23.4 27.0,-22.8 25.7,-19.5 24.5,-17.4 23.7,-14.6 23.3,-12.3 23.3,-8.0 23.4,-5.5 23.3,-2.7 22.6,-1.6 21.4,2.4 19.7,5.4 18.1,6.1 16.6,8.7 15.3,12.6 14.0,14.6 12.6,16.6 10.8,19.5" fill="none" stroke="rgb(80,68,68)" stroke-width="1.0780527179565602" stroke-linejoin="round" stroke-linecap="round" filter="url(#fuzzy_av_1779093954990_lcytls2mgf)" opacity="0.7517064129686921"/><polyline points="29.7,-48.1 30.7,-46.2 31.4,-44.1 31.7,-42.0 31.8,-40.6 31.9,-37.6 32.2,-36.4 32.9,-33.1 33.7,-32.2 34.2,-28.1 34.4,-27.1 34.1,-24.4 33.3,-22.3 32.3,-19.6 31.2,-16.3 30.3,-13.5 29.7,-10.4 29.4,-8.7 29.4,-6.2 29.4,-2.1 29.5,-0.6 29.3,3.0 29.0,3.8 28.4,7.9 27.6,9.0 26.6,12.6 25.5,15.3 24.2,16.9 22.9,18.4 21.6,21.2 20.4,24.0 19.2,25.5 18.0,27.8 16.6,31.4 15.2,34.0 13.9,35.0" fill="none" stroke="rgb(80,68,68)" stroke-width="1.1093527314194858" stroke-linejoin="round" stroke-linecap="round" filter="url(#fuzzy_av_1779093954990_lcytls2mgf)" opacity="0.7860315337726576"/><polyline points="25.8,-54.3 28.0,-52.7 29.8,-49.5 31.1,-49.0 32.3,-46.4 33.3,-44.7 34.2,-42.4 35.1,-40.5 36.0,-37.3 36.9,-35.5 37.7,-33.7 38.6,-30.1 39.6,-28.0 40.5,-26.8 41.4,-23.0 42.3,-20.2 42.9,-17.8 43.4,-15.3 43.7,-12.7 43.9,-9.3 44.1,-6.4 44.2,-4.5 44.3,-1.7 44.4,-0.5 44.4,3.0 44.5,6.5" fill="none" stroke="rgb(80,68,68)" stroke-width="1.4693469927116025" stroke-linejoin="round" stroke-linecap="round" filter="url(#fuzzy_av_1779093954990_lcytls2mgf)" opacity="0.7761706164644826"/><polyline points="25.9,-54.6 27.1,-53.4 28.8,-50.6 30.3,-48.4 31.6,-47.6 32.7,-44.6 33.8,-42.6 34.9,-39.9 36.0,-38.5 37.3,-35.5 38.7,-33.0 40.2,-32.2 41.9,-28.4 43.6,-27.5 45.2,-23.7 46.6,-21.0 47.6,-20.1 48.3,-16.9 48.6,-14.2 48.5,-12.2 48.3,-8.2 48.1,-5.9 47.9,-2.9 47.9,-1.7 48.1,2.1 48.5,3.3 48.9,5.9 49.2,9.4 49.3,11.7 49.1,14.3 48.6,16.0 48.3,19.4 49.1,21.2" fill="none" stroke="rgb(80,68,68)" stroke-width="1.4708415547319857" stroke-linejoin="round" stroke-linecap="round" filter="url(#fuzzy_av_1779093954990_lcytls2mgf)" opacity="0.8046203347041458"/><polyline points="23.3,-56.9 23.7,-54.8 24.3,-54.1 25.6,-51.4 26.9,-49.9 27.6,-48.9 27.6,-45.9 27.1,-43.8 26.6,-41.1 26.2,-40.4 26.2,-36.5 26.6,-35.4 27.1,-33.1 27.8,-31.4 28.4,-28.1 29.0,-26.6 29.6,-23.6 30.0,-20.5 30.2,-17.0 30.1,-15.5 29.8,-11.5 29.1,-9.1 28.2,-6.1 26.9,-3.7 25.5,-2.1 23.9,0.9 22.2,3.4 20.4,6.9 18.6,8.0 16.7,11.2 14.8,13.4 13.2,14.8 12.1,18.6 11.6,20.1 11.3,20.6" fill="none" stroke="rgb(80,68,68)" stroke-width="1.656681196916743" stroke-linejoin="round" stroke-linecap="round" filter="url(#fuzzy_av_1779093954990_lcytls2mgf)" opacity="0.9118456816378515"/><polyline points="19.0,-61.9 20.6,-60.7 22.2,-58.7 23.8,-57.6 25.4,-56.6 27.0,-54.5 28.5,-53.2 29.9,-51.0 31.3,-48.7 32.5,-46.8 33.6,-44.3 34.6,-42.2 35.4,-39.7 36.2,-37.8 37.0,-35.6 37.8,-32.9 38.6,-30.9 39.5,-29.5 40.5,-25.8 41.4,-23.3 42.3,-21.2 43.0,-19.3 43.6,-15.1 43.9,-14.2 44.4,-9.9" fill="none" stroke="rgb(80,68,68)" stroke-width="1.9604538244353953" stroke-linejoin="round" stroke-linecap="round" filter="url(#fuzzy_av_1779093954990_lcytls2mgf)" opacity="0.9128044019994777"/><polyline points="16.2,-62.6 18.5,-62.3 20.4,-60.0 22.1,-57.7 23.6,-57.3 25.0,-56.3 26.4,-54.5 27.7,-52.9 29.0,-50.2 30.3,-47.5 31.6,-46.9 32.7,-45.2 33.8,-42.8 34.8,-40.8 35.7,-37.7 36.6,-35.6 37.4,-33.7 38.1,-31.2 38.8,-29.5 39.5,-25.7 40.2,-23.2 40.7,-20.6 41.2,-18.7 41.6,-16.5 41.8,-13.7 42.0,-9.2 42.0,-7.6 42.0,-4.5 42.0,-2.5 42.0,0.2 41.6,2.9" fill="none" stroke="rgb(80,68,68)" stroke-width="1.9144845372681598" stroke-linejoin="round" stroke-linecap="round" filter="url(#fuzzy_av_1779093954990_lcytls2mgf)" opacity="0.9960722010883357"/><polyline points="15.0,-63.4 16.4,-63.4 17.9,-60.5 19.0,-59.1 19.9,-58.8 20.5,-56.8 21.0,-56.5 21.6,-55.1 22.4,-51.6 23.3,-49.9 24.3,-48.9 25.2,-47.3 25.9,-44.1 26.3,-42.9 26.4,-41.2 26.4,-38.6 26.3,-36.2 26.2,-34.9 26.3,-32.9 26.4,-30.1 26.2,-26.4 25.4,-23.5 24.7,-21.5" fill="none" stroke="rgb(80,68,68)" stroke-width="1.6111841094728734" stroke-linejoin="round" stroke-linecap="round" filter="url(#fuzzy_av_1779093954990_lcytls2mgf)" opacity="0.8354603368080573"/><polyline points="11.4,-65.0 12.9,-64.8 14.3,-63.6 15.6,-63.8 17.2,-62.7 18.9,-61.4 20.8,-59.5 22.6,-59.1 24.5,-56.6 26.5,-55.6 28.5,-54.3 30.5,-52.6 32.5,-50.4 34.3,-49.7 35.9,-46.3 37.2,-44.4 38.3,-43.5 39.4,-39.9 40.6,-37.8 42.0,-37.2 43.6,-34.0 45.3,-31.7 46.9,-29.3 48.5,-26.2 50.1,-23.5 51.7,-20.3 52.6,-19.4" fill="none" stroke="rgb(80,68,68)" stroke-width="1.4891394557887476" stroke-linejoin="round" stroke-linecap="round" filter="url(#fuzzy_av_1779093954990_lcytls2mgf)" opacity="0.7841828665165089"/><polyline points="11.4,-65.9 12.8,-64.4 14.2,-63.9 15.6,-62.7 17.1,-61.5 18.7,-60.9 20.3,-60.0 21.8,-57.8 23.3,-56.6 24.7,-56.1 26.0,-54.2 27.4,-52.4 28.7,-49.6 30.0,-48.9 31.2,-45.7 32.4,-44.5 33.6,-43.1 34.6,-40.7 35.6,-37.2 36.4,-35.0 37.2,-32.7 37.9,-32.0 38.6,-28.5 39.2,-27.3 39.8,-23.9 40.3,-20.3 40.7,-18.8 41.1,-15.0 41.4,-12.6 41.6,-9.6 41.6,-6.9 41.6,-4.0 41.4,-1.6" fill="none" stroke="rgb(80,68,68)" stroke-width="1.3311621461918017" stroke-linejoin="round" stroke-linecap="round" filter="url(#fuzzy_av_1779093954990_lcytls2mgf)" opacity="0.9633235592313589"/><polyline points="7.1,-67.8 8.6,-67.4 10.2,-66.8 12.2,-64.7 14.3,-64.5 16.3,-62.9 18.2,-62.9 20.0,-60.9 21.7,-59.6 23.6,-58.4 25.6,-56.8 27.7,-55.0 30.1,-52.6 32.5,-50.2 34.8,-48.4 36.9,-46.5 38.6,-45.7 39.9,-42.2 40.8,-40.9 41.5,-38.1 42.1,-36.3 42.8,-34.6 43.6,-32.4 44.7,-29.5 46.0,-26.5 47.4,-25.7 48.8,-21.9 50.3,-20.0 51.6,-18.1 52.7,-14.8 53.5,-11.8 54.0,-10.0 54.2,-5.8 54.4,-3.8 54.6,-1.6 54.9,1.0 55.4,3.0 55.7,7.5 55.7,9.9" fill="none" stroke="rgb(80,68,68)" stroke-width="2.2914222235512423" stroke-linejoin="round" stroke-linecap="round" filter="url(#fuzzy_av_1779093954990_lcytls2mgf)" opacity="0.8227224887243061"/><polyline points="6.3,-67.7 8.9,-67.4 10.9,-65.0 12.7,-64.6 14.2,-63.5 15.8,-62.6 17.4,-62.4 19.1,-60.6 20.9,-59.8 22.6,-58.9 24.3,-57.6 26.0,-54.9 27.6,-54.1 29.2,-51.8 30.8,-51.4 32.4,-49.0 33.9,-47.4 35.4,-44.9 36.7,-42.8 38.1,-39.3 39.4,-37.9 40.7,-35.5 41.9,-33.9 43.0,-31.2 44.0,-29.1 45.0,-27.2 46.0,-23.5 47.1,-21.1 48.2,-19.5 49.2,-14.9 50.0,-14.0 50.5,-10.2 51.0,-7.9 51.4,-4.4" fill="none" stroke="rgb(80,68,68)" stroke-width="0.7322539088744598" stroke-linejoin="round" stroke-linecap="round" filter="url(#fuzzy_av_1779093954990_lcytls2mgf)" opacity="0.8858620522248795"/><polyline points="4.8,-68.5 5.4,-68.2 6.7,-67.5 8.1,-66.1 9.5,-65.3 11.0,-64.9 12.5,-64.2 14.1,-64.0 15.5,-61.9 16.9,-60.2 18.2,-59.5 19.3,-59.0 20.4,-56.6 21.4,-55.1 22.4,-53.6 23.5,-51.3 24.6,-50.3 25.7,-48.8 26.6,-46.0 27.3,-44.6 27.9,-41.1 28.3,-39.8 28.6,-38.4 28.9,-35.9 29.2,-33.2 29.5,-31.5" fill="none" stroke="rgb(80,68,68)" stroke-width="1.5487701312714663" stroke-linejoin="round" stroke-linecap="round" filter="url(#fuzzy_av_1779093954990_lcytls2mgf)" opacity="0.9464672984661455"/><polyline points="4.8,-67.4 5.5,-67.2 6.8,-66.5 8.4,-65.8 10.1,-65.3 11.9,-64.7 13.8,-64.6 15.8,-62.6 17.8,-61.3 19.9,-61.3 22.0,-60.0 24.1,-57.8 26.0,-56.7 27.9,-55.4 29.8,-54.4 31.7,-52.4 33.7,-50.7 35.5,-48.4 37.3,-46.3 39.1,-43.4 40.8,-40.9 42.5,-38.6 44.2,-37.9 45.5,-35.8 46.1,-34.4" fill="none" stroke="rgb(80,68,68)" stroke-width="1.5315355533065806" stroke-linejoin="round" stroke-linecap="round" filter="url(#fuzzy_av_1779093954990_lcytls2mgf)" opacity="0.887944832603879"/><polyline points="3.3,-67.1 4.5,-68.2 6.4,-68.0 8.5,-66.4 10.6,-65.5 12.5,-65.7 14.2,-64.2 15.9,-62.7 17.5,-62.8 19.1,-60.7 20.7,-59.1 22.4,-58.6 24.0,-58.1 25.5,-56.8 27.0,-55.1 28.4,-53.6 29.7,-49.9 31.1,-48.5 32.4,-45.9 33.8,-43.8 35.1,-41.8 36.4,-41.0 37.6,-38.0 38.7,-37.1 39.6,-34.6 40.4,-32.8 41.1,-29.4 41.8,-28.1 42.6,-23.3 43.4,-21.9 44.0,-18.7" fill="none" stroke="rgb(80,68,68)" stroke-width="2.591948832648086" stroke-linejoin="round" stroke-linecap="round" filter="url(#fuzzy_av_1779093954990_lcytls2mgf)" opacity="0.8164679169468844"/><polyline points="-1.5,-67.6 1.1,-67.8 2.9,-68.9 4.7,-66.9 6.5,-66.6 8.5,-67.2 10.4,-66.6 12.3,-65.8 14.1,-64.2 15.9,-62.4 17.7,-61.5 19.4,-61.9 21.2,-59.4 22.8,-58.5 24.5,-57.6 26.1,-55.4 27.7,-53.4 29.2,-53.5 30.7,-51.1 32.2,-49.0 33.7,-46.9 35.2,-44.2 36.7,-42.4 38.1,-39.7 39.6,-38.5 40.9,-35.5 42.2,-33.1 43.4,-32.2 44.4,-28.7 45.4,-26.5 46.2,-24.6 46.8,-21.2 47.3,-18.3 47.9,-16.8 48.3,-14.8" fill="none" stroke="rgb(80,68,68)" stroke-width="1.6331934679828535" stroke-linejoin="round" stroke-linecap="round" filter="url(#fuzzy_av_1779093954990_lcytls2mgf)" opacity="0.8079290621642113"/><polyline points="-0.8,-68.7 0.9,-68.6 2.4,-67.9 3.9,-68.8 5.4,-67.6 7.0,-67.6 8.6,-66.1 10.4,-65.2 12.2,-66.0 14.1,-65.3 16.0,-64.2 18.1,-62.4 20.1,-61.3 22.0,-59.0 23.8,-57.4 25.5,-56.0 27.0,-55.1 28.5,-52.6 30.0,-51.3 31.5,-49.7 33.1,-48.1 34.7,-45.5 36.3,-44.4 37.8,-41.0 39.2,-39.4 40.6,-36.6 41.8,-35.4 42.7,-33.8 43.2,-32.2" fill="none" stroke="rgb(80,68,68)" stroke-width="1.3870841684706208" stroke-linejoin="round" stroke-linecap="round" filter="url(#fuzzy_av_1779093954990_lcytls2mgf)" opacity="0.7974806705682778"/><polyline points="-3.7,-68.8 -1.2,-69.1 0.6,-68.2 2.2,-67.4 3.7,-67.0 5.2,-67.2 6.7,-66.5 8.2,-67.7 9.8,-65.3 11.5,-65.4 13.2,-64.5 15.0,-63.9 16.8,-62.9 18.6,-61.0 20.3,-59.3 22.0,-59.0 23.6,-57.8 25.1,-54.9 26.5,-54.1 27.9,-52.2 29.3,-51.5 30.6,-48.4 32.0,-46.5 33.6,-43.7" fill="none" stroke="rgb(80,68,68)" stroke-width="2.3341485127330355" stroke-linejoin="round" stroke-linecap="round" filter="url(#fuzzy_av_1779093954990_lcytls2mgf)" opacity="0.7989207146940848"/><polyline points="-4.7,-68.8 -3.2,-68.3 -1.3,-67.8 0.5,-68.3 2.1,-69.1 3.6,-67.5 5.1,-66.7 6.6,-66.7 8.2,-66.3 9.8,-65.6 11.5,-65.7 13.3,-65.2 15.1,-63.4 16.9,-62.7 18.7,-62.1 20.5,-59.9 22.2,-59.3 23.9,-56.2 25.5,-55.3 27.0,-54.0 28.5,-53.3 30.1,-50.6 31.5,-48.2 32.7,-47.6" fill="none" stroke="rgb(80,68,68)" stroke-width="1.8341148415810398" stroke-linejoin="round" stroke-linecap="round" filter="url(#fuzzy_av_1779093954990_lcytls2mgf)" opacity="0.8601901569815266"/><polyline points="-7.7,-66.5 -5.0,-67.5 -3.1,-68.8 -1.1,-67.6 0.9,-67.3 2.8,-68.3 4.8,-67.5 6.8,-67.5 8.8,-67.4 10.8,-66.5 12.7,-65.1 14.6,-64.0 16.4,-64.3 18.3,-61.4 20.2,-60.3 22.3,-59.6 24.5,-59.1 26.7,-56.4 28.9,-55.0 31.0,-54.0 32.9,-53.5 34.7,-50.0 36.3,-48.8 37.7,-46.8 39.0,-44.3 40.3,-42.7 41.5,-40.8 42.7,-39.1 43.9,-37.1 45.1,-33.2 46.2,-32.6 47.4,-29.3 48.5,-26.9 49.7,-24.9 50.8,-20.7 51.9,-18.8 52.8,-15.1 53.3,-13.9 54.3,-10.2" fill="none" stroke="rgb(80,68,68)" stroke-width="2.1003161687393406" stroke-linejoin="round" stroke-linecap="round" filter="url(#fuzzy_av_1779093954990_lcytls2mgf)" opacity="0.8499590673520355"/><polyline points="-7.9,-67.3 -5.4,-68.1 -3.3,-67.8 -1.4,-69.1 0.4,-67.9 2.0,-67.7 3.6,-68.4 5.2,-68.0 6.7,-66.9 8.3,-67.6 9.9,-65.2 11.6,-66.2 13.3,-64.4 15.1,-63.5 16.9,-61.8 18.6,-61.2 20.3,-60.2 21.9,-58.3 23.5,-55.9 25.0,-56.0 26.4,-52.9 27.8,-51.7 29.1,-49.8 30.4,-47.8 31.6,-45.7 32.7,-43.9 33.8,-42.7 34.9,-40.3 35.8,-37.1 36.6,-34.4 37.3,-33.8 38.1,-30.3 38.8,-27.1 39.5,-25.8" fill="none" stroke="rgb(80,68,68)" stroke-width="2.485879037177025" stroke-linejoin="round" stroke-linecap="round" filter="url(#fuzzy_av_1779093954990_lcytls2mgf)" opacity="0.7943695016785983"/><polyline points="-9.8,-66.7 -8.8,-67.2 -7.1,-66.5 -5.1,-67.6 -3.2,-68.1 -1.2,-68.3 0.7,-67.9 2.7,-68.0 4.8,-67.4 7.0,-67.9 9.3,-66.9 11.7,-66.8 14.1,-65.9 16.4,-65.2 18.5,-64.7 20.6,-62.8 22.8,-62.3 25.0,-60.2 27.3,-58.4 29.8,-57.1 32.2,-56.4 34.4,-55.4 36.5,-53.2 38.6,-52.6 41.1,-49.9 44.2,-47.3 46.8,-46.1" fill="none" stroke="rgb(80,68,68)" stroke-width="2.32582035711983" stroke-linejoin="round" stroke-linecap="round" filter="url(#fuzzy_av_1779093954990_lcytls2mgf)" opacity="0.7635210593441979"/><polyline points="-9.8,-66.8 -8.8,-66.9 -7.1,-66.6 -5.1,-68.0 -3.2,-67.9 -1.2,-67.4 0.7,-67.2 2.6,-68.7 4.5,-68.3 6.4,-66.2 8.4,-66.8 10.3,-66.7 12.2,-66.0 14.1,-63.8 15.9,-62.8 17.8,-62.2 19.6,-61.4 21.5,-59.4 23.3,-58.6 25.2,-56.8 26.9,-56.8 28.6,-54.2 30.2,-52.9 31.8,-51.2 33.4,-50.0 35.1,-46.6 37.0,-46.0 38.9,-42.8 40.6,-41.7 42.2,-37.9 43.4,-36.7 44.5,-35.3 46.0,-31.3" fill="none" stroke="rgb(80,68,68)" stroke-width="1.4426252234249977" stroke-linejoin="round" stroke-linecap="round" filter="url(#fuzzy_av_1779093954990_lcytls2mgf)" opacity="0.8687237548775224"/><polyline points="-12.3,-66.1 -14.8,-65.4 -16.7,-64.0 -18.1,-63.7 -19.6,-61.4 -21.2,-61.5 -23.1,-60.1 -25.1,-56.9 -27.2,-56.1 -29.3,-54.2 -31.5,-52.6 -33.7,-50.8 -36.0,-48.4 -38.2,-46.2 -40.2,-45.3 -41.9,-42.7 -43.3,-41.4 -44.5,-38.3 -45.8,-35.4 -47.3,-33.4 -49.1,-30.7 -51.2,-28.4 -53.4,-24.5 -55.2,-23.2" fill="none" stroke="rgb(80,68,68)" stroke-width="1.7172809028727443" stroke-linejoin="round" stroke-linecap="round" filter="url(#fuzzy_av_1779093954990_lcytls2mgf)" opacity="0.9221175501619507"/><polyline points="-12.3,-65.7 -13.7,-65.7 -14.9,-63.5 -16.4,-63.0 -17.8,-62.1 -18.9,-60.5 -19.7,-59.6 -20.4,-57.4 -21.0,-55.6 -21.5,-54.4 -21.9,-52.3 -22.3,-49.3 -22.7,-47.0 -23.2,-46.1 -23.9,-44.8 -24.7,-41.8 -25.5,-39.7 -26.2,-37.1 -26.8,-35.7 -27.0,-32.0 -26.9,-30.8 -26.4,-27.5 -25.6,-24.8 -24.6,-21.9 -23.6,-20.5 -22.8,-16.9 -22.3,-14.4 -21.9,-11.8 -21.5,-8.8 -20.9,-6.9 -20.1,-4.4 -18.8,-1.4 -17.2,1.8 -15.2,5.4 -13.2,6.8 -11.5,11.3 -10.5,12.7 -9.0,15.1" fill="none" stroke="rgb(80,68,68)" stroke-width="1.0909868818634243" stroke-linejoin="round" stroke-linecap="round" filter="url(#fuzzy_av_1779093954990_lcytls2mgf)" opacity="0.8006159328391549"/><polyline points="-17.8,-63.2 -19.2,-62.8 -20.6,-60.9 -22.0,-60.6 -23.5,-58.4 -25.1,-56.4 -26.6,-55.8 -28.2,-52.5 -29.6,-51.4 -31.0,-50.3 -32.2,-46.8 -33.2,-45.0 -34.2,-43.7 -35.1,-41.6 -36.1,-38.2 -37.0,-35.8 -37.8,-34.9 -38.6,-32.2 -39.4,-28.7 -40.0,-26.4 -40.6,-23.3 -41.1,-20.9 -41.5,-17.8 -41.8,-15.2 -42.0,-12.7 -42.2,-9.6 -42.4,-7.4 -42.5,-4.9 -42.5,-1.3 -42.5,-0.1 -42.3,3.3 -42.1,6.1 -41.8,7.7" fill="none" stroke="rgb(80,68,68)" stroke-width="1.6650528774131237" stroke-linejoin="round" stroke-linecap="round" filter="url(#fuzzy_av_1779093954990_lcytls2mgf)" opacity="0.8380321285013723"/><polyline points="-16.9,-62.8 -18.8,-62.8 -20.7,-61.6 -22.6,-59.4 -24.4,-57.9 -26.3,-56.3 -28.0,-53.2 -29.5,-50.7 -30.8,-48.9 -31.9,-47.3 -32.9,-45.8 -33.9,-44.9 -34.9,-40.9 -35.8,-39.7 -36.8,-37.2 -37.7,-34.5 -38.5,-31.7 -39.3,-29.2 -40.0,-26.5 -40.6,-24.6 -41.1,-22.2 -41.6,-20.6 -41.9,-17.5 -42.2,-14.2 -42.3,-12.2 -42.4,-10.2 -42.4,-5.6 -42.2,-2.7 -42.1,-1.2 -41.9,1.7 -41.7,5.2 -41.5,7.7 -41.2,9.6 -40.9,12.9 -40.6,14.5 -40.1,17.6 -39.4,20.5 -38.5,23.5" fill="none" stroke="rgb(80,68,68)" stroke-width="0.9994403196813921" stroke-linejoin="round" stroke-linecap="round" filter="url(#fuzzy_av_1779093954990_lcytls2mgf)" opacity="0.8714068915973685"/><polyline points="-19.2,-63.0 -20.1,-61.0 -21.6,-59.7 -23.2,-57.6 -24.8,-56.5 -26.3,-55.2 -27.8,-52.1 -29.1,-51.9 -30.4,-49.8 -31.7,-46.7 -32.9,-45.1 -34.1,-42.6 -35.3,-40.5 -36.5,-38.0 -37.7,-37.0 -38.8,-33.7 -39.7,-30.5 -40.5,-28.0 -41.2,-25.4 -41.8,-24.2 -42.3,-21.4 -42.8,-17.9 -43.2,-14.8 -43.7,-11.6 -44.2,-9.4 -44.7,-6.6 -45.0,-5.2 -45.3,-2.3 -45.4,1.6 -45.3,2.8 -45.2,6.0 -44.9,9.1 -44.5,12.0 -44.1,13.1 -43.7,16.5 -43.2,19.4 -42.7,21.6 -41.9,24.2 -41.2,26.3" fill="none" stroke="rgb(80,68,68)" stroke-width="2.218813331065229" stroke-linejoin="round" stroke-linecap="round" filter="url(#fuzzy_av_1779093954990_lcytls2mgf)" opacity="0.8592845808207705"/><polyline points="-18.6,-62.8 -21.5,-59.9 -23.8,-59.2 -25.5,-57.9 -27.1,-55.6 -28.6,-53.0 -30.2,-51.8 -31.8,-50.2 -33.4,-47.4 -34.8,-46.2 -36.0,-43.7 -37.1,-41.7 -37.9,-38.9 -38.5,-38.2 -39.1,-35.0 -39.7,-33.6 -40.3,-30.3 -41.0,-26.9 -41.7,-24.4 -42.5,-22.4 -43.3,-20.2 -44.1,-18.1 -44.8,-15.3 -45.3,-12.0 -45.7,-9.3 -45.9,-6.7 -46.1,-4.7 -46.2,-0.2 -46.4,3.0 -46.6,5.3 -46.8,7.8 -46.9,9.9" fill="none" stroke="rgb(80,68,68)" stroke-width="2.102470005837887" stroke-linejoin="round" stroke-linecap="round" filter="url(#fuzzy_av_1779093954990_lcytls2mgf)" opacity="0.966868760190762"/><polyline points="-21.1,-60.6 -22.8,-58.8 -24.5,-57.8 -26.2,-55.2 -27.6,-53.6 -28.9,-51.9 -30.1,-50.2 -31.1,-46.9 -32.1,-45.4 -33.1,-43.5 -34.1,-42.9 -35.0,-38.8 -35.9,-38.2 -36.7,-34.3 -37.5,-33.3 -38.1,-30.3 -38.7,-26.5 -39.2,-25.4 -39.7,-21.7 -40.0,-19.8 -40.3,-17.5 -40.5,-15.3 -40.6,-12.7 -40.7,-8.8 -40.7,-6.2 -40.7,-3.4 -40.6,0.1 -40.4,3.0 -40.1,4.8 -39.7,7.5 -39.2,10.1 -38.7,13.7 -38.1,15.1" fill="none" stroke="rgb(80,68,68)" stroke-width="1.1511423104992766" stroke-linejoin="round" stroke-linecap="round" filter="url(#fuzzy_av_1779093954990_lcytls2mgf)" opacity="0.9019029527764605"/><polyline points="-22.9,-59.8 -25.7,-57.4 -27.2,-56.1 -28.5,-54.2 -29.8,-51.6 -31.0,-49.3 -32.2,-47.4 -33.3,-46.3 -34.5,-44.3 -35.8,-41.7 -37.1,-39.8 -38.5,-36.4 -39.9,-34.0 -41.2,-32.5 -42.4,-30.7 -43.5,-27.8 -44.4,-25.0 -45.2,-23.0 -45.7,-20.4 -46.1,-16.7 -46.3,-13.9 -46.4,-12.6 -46.6,-10.1 -46.7,-6.9 -46.8,-3.3 -46.9,-0.7 -46.8,1.6 -46.6,5.0 -46.2,8.7 -45.8,11.0 -45.6,12.7 -45.7,15.0 -45.8,17.2 -45.3,19.7" fill="none" stroke="rgb(80,68,68)" stroke-width="1.3921964258080222" stroke-linejoin="round" stroke-linecap="round" filter="url(#fuzzy_av_1779093954990_lcytls2mgf)" opacity="0.9023576517285609"/><polyline points="-24.0,-57.6 -26.7,-55.6 -28.6,-52.2 -30.0,-51.6 -31.2,-49.3 -32.2,-47.7 -33.2,-45.5 -34.1,-44.6 -35.1,-41.8 -36.1,-40.1 -37.0,-37.0 -38.0,-34.4 -38.8,-32.5 -39.7,-29.6 -40.4,-28.1 -41.0,-25.4 -41.5,-22.5 -41.9,-19.0 -42.2,-17.0 -42.4,-15.0 -42.6,-11.9 -42.8,-8.7 -42.9,-6.9 -42.9,-3.7 -42.9,-0.6 -42.9,1.5 -42.8,4.5 -42.6,7.4 -42.3,10.6 -42.0,13.3 -41.7,14.5 -41.6,18.1 -41.1,20.1" fill="none" stroke="rgb(80,68,68)" stroke-width="2.3283000661973317" stroke-linejoin="round" stroke-linecap="round" filter="url(#fuzzy_av_1779093954990_lcytls2mgf)" opacity="0.9666000769932896"/><polyline points="-24.0,-57.2 -26.7,-56.3 -28.2,-52.7 -29.4,-51.4 -30.5,-48.6 -31.6,-48.2 -32.6,-45.8 -33.6,-43.2 -34.5,-41.0 -35.4,-38.7 -36.3,-37.9 -37.1,-34.7 -37.8,-31.7 -38.6,-30.0 -39.2,-27.5 -39.9,-23.9 -40.4,-23.0 -40.9,-20.4 -41.3,-16.0 -41.6,-15.0 -41.8,-11.0 -41.9,-9.2 -41.8,-5.5 -41.7,-4.2 -41.5,-0.7 -41.2,2.1 -41.0,5.0 -40.7,8.4 -40.5,9.7 -40.2,12.9 -39.8,15.4 -39.3,17.5 -38.6,20.4 -37.8,22.4 -36.9,25.4 -36.3,27.1" fill="none" stroke="rgb(80,68,68)" stroke-width="1.0519371433655587" stroke-linejoin="round" stroke-linecap="round" filter="url(#fuzzy_av_1779093954990_lcytls2mgf)" opacity="0.8086774301230175"/><polyline points="-26.9,-54.6 -28.4,-53.6 -30.4,-50.3 -32.2,-48.7 -33.6,-46.1 -34.6,-45.5 -35.3,-42.3 -36.0,-41.7 -36.6,-38.0 -37.3,-36.3 -38.2,-32.9 -39.1,-31.9 -40.1,-27.7 -41.1,-24.8 -42.0,-23.4 -42.7,-20.1 -43.3,-17.5 -43.8,-15.9 -44.2,-12.1 -44.5,-9.7 -44.7,-6.2 -44.9,-4.7 -45.1,-2.0 -45.1,1.8 -45.1,3.5 -44.9,6.2 -44.7,8.8 -44.4,10.8 -44.1,14.2 -43.9,16.4 -43.7,18.8 -43.4,21.7 -42.7,23.3 -41.5,27.4" fill="none" stroke="rgb(80,68,68)" stroke-width="0.9320676365121976" stroke-linejoin="round" stroke-linecap="round" filter="url(#fuzzy_av_1779093954990_lcytls2mgf)" opacity="0.7633341563579477"/><polyline points="-28.0,-52.2 -29.3,-51.0 -30.3,-48.8 -31.2,-48.2 -32.0,-46.7 -32.9,-43.3 -33.8,-42.6 -34.7,-38.7 -35.5,-36.4 -36.2,-34.2 -36.9,-31.3 -37.5,-29.6 -38.1,-27.5 -38.6,-24.9 -39.0,-21.4 -39.3,-20.4 -39.5,-16.1 -39.7,-15.1 -39.8,-12.4 -39.8,-9.0 -39.8,-6.0 -39.6,-2.9 -39.4,-0.3 -39.1,2.9 -38.8,5.7 -38.4,8.5 -37.9,10.3 -37.4,13.3 -36.8,15.1 -36.2,18.8 -35.4,20.5 -34.6,23.5 -33.7,24.4 -33.0,28.1 -32.4,29.7" fill="none" stroke="rgb(80,68,68)" stroke-width="1.465419885827056" stroke-linejoin="round" stroke-linecap="round" filter="url(#fuzzy_av_1779093954990_lcytls2mgf)" opacity="0.8428180575164484"/><polyline points="-29.4,-51.9 -31.6,-48.7 -33.1,-47.2 -33.8,-44.3 -34.3,-44.0 -34.8,-41.1 -35.5,-39.3 -36.3,-36.6 -37.2,-34.0 -38.0,-31.7 -38.8,-28.5 -39.5,-25.8 -40.1,-23.5 -40.6,-20.5 -41.2,-18.0 -41.6,-15.5 -42.0,-13.3 -42.4,-10.2 -42.7,-7.1 -42.9,-4.7 -43.2,-0.8 -43.3,1.7 -43.4,4.0 -43.5,6.8 -43.5,8.0 -43.4,10.4 -43.3,14.1 -43.1,17.3 -42.6,20.9" fill="none" stroke="rgb(80,68,68)" stroke-width="1.2750347491822502" stroke-linejoin="round" stroke-linecap="round" filter="url(#fuzzy_av_1779093954990_lcytls2mgf)" opacity="0.9591548404220751"/><polyline points="-30.8,-48.3 -31.8,-46.4 -32.7,-45.2 -33.7,-42.3 -34.7,-40.9 -36.0,-39.3 -37.4,-36.7 -38.8,-33.4 -40.3,-30.6 -41.8,-27.3 -43.1,-24.7 -44.4,-23.4 -45.4,-20.5 -46.2,-17.1 -46.6,-14.7 -46.7,-12.0 -46.5,-10.4 -46.3,-7.1 -46.2,-4.1 -46.3,-0.6 -46.6,0.3 -46.9,3.2 -47.3,6.7 -47.5,8.4 -47.6,11.3 -47.4,13.7 -47.0,16.8 -46.5,19.6 -45.9,20.7 -45.2,24.4 -44.4,27.5" fill="none" stroke="rgb(80,68,68)" stroke-width="2.120408788668919" stroke-linejoin="round" stroke-linecap="round" filter="url(#fuzzy_av_1779093954990_lcytls2mgf)" opacity="0.8647140192279025"/><polyline points="-31.6,-46.4 -33.4,-46.8 -35.4,-43.6 -36.7,-42.1 -37.6,-39.9 -38.4,-36.5 -39.1,-33.8 -39.9,-31.8 -40.7,-29.1 -41.3,-26.1 -41.8,-24.7 -42.4,-22.2 -43.0,-19.8 -43.7,-16.1 -44.7,-15.1 -45.8,-11.2 -46.8,-8.6 -47.7,-6.2 -48.1,-2.9 -48.2,-0.6 -48.2,1.3 -48.2,4.1 -48.4,7.0 -48.7,11.0 -48.7,13.7 -48.3,15.1" fill="none" stroke="rgb(80,68,68)" stroke-width="2.239732615745144" stroke-linejoin="round" stroke-linecap="round" filter="url(#fuzzy_av_1779093954990_lcytls2mgf)" opacity="0.8475349628428451"/><polyline points="-31.7,-46.4 -32.9,-45.4 -34.1,-41.0 -35.3,-38.4 -36.4,-37.5 -37.5,-34.4 -38.4,-32.8 -39.2,-29.1 -39.8,-27.8 -40.3,-24.5 -40.7,-21.4 -41.0,-19.6 -41.2,-17.3 -41.3,-15.3 -41.4,-11.6 -41.5,-9.5 -41.6,-6.3 -41.6,-3.2 -41.5,-0.5 -41.2,2.9 -40.9,5.8 -40.6,7.0 -40.3,10.1 -40.0,13.1 -39.3,16.8" fill="none" stroke="rgb(80,68,68)" stroke-width="1.5600093208676256" stroke-linejoin="round" stroke-linecap="round" filter="url(#fuzzy_av_1779093954990_lcytls2mgf)" opacity="0.7858268722873829"/><polyline points="-31.7,-46.9 -33.2,-43.5 -34.3,-41.5 -35.3,-39.5 -36.2,-36.0 -37.2,-35.2 -38.2,-31.4 -39.3,-29.0 -40.4,-27.6 -41.4,-25.0 -42.2,-22.3 -42.9,-18.6 -43.4,-17.1 -43.8,-13.9 -43.9,-11.1 -43.9,-9.1 -43.7,-5.4 -43.6,-3.0 -43.4,-0.0 -43.4,3.1 -43.4,5.0 -43.4,7.0 -43.4,9.6 -43.3,12.3 -43.2,15.4 -42.9,17.0 -42.6,19.4 -42.0,23.0 -41.3,26.1 -40.6,27.9" fill="none" stroke="rgb(80,68,68)" stroke-width="1.7691051381070688" stroke-linejoin="round" stroke-linecap="round" filter="url(#fuzzy_av_1779093954990_lcytls2mgf)" opacity="0.753740275181091"/><polyline points="-35.6,-37.5 -36.6,-34.6 -38.0,-32.7 -39.3,-28.2 -40.5,-26.5 -41.3,-23.2 -41.8,-22.4 -42.2,-18.3 -42.4,-16.6 -42.5,-15.0 -42.6,-11.2 -42.8,-9.1 -43.0,-5.9 -43.4,-3.2 -44.0,0.8 -44.7,3.5 -45.4,4.7 -46.0,7.6 -46.2,9.9 -46.1,12.9 -45.7,15.8 -45.2,17.2 -44.8,19.4 -44.3,23.1 -43.8,26.4 -43.4,27.6" fill="none" stroke="rgb(80,68,68)" stroke-width="0.8355992779195806" stroke-linejoin="round" stroke-linecap="round" filter="url(#fuzzy_av_1779093954990_lcytls2mgf)" opacity="0.8440045708936784"/><polyline points="-36.7,-34.8 -37.5,-30.3 -38.2,-27.1 -38.8,-25.1 -39.1,-21.5 -39.4,-19.0 -39.6,-16.5 -39.7,-14.8 -39.8,-10.8 -39.7,-9.3 -39.7,-5.8 -39.5,-2.9 -39.3,0.2 -39.0,1.8 -38.7,4.4 -38.3,7.5 -37.8,9.5 -37.2,11.8 -36.6,14.5 -35.9,16.5 -35.2,19.8 -34.4,22.1 -33.5,25.3 -32.5,26.7 -31.6,28.5 -30.5,32.2 -29.4,32.8 -28.3,35.4 -27.0,37.3 -25.7,39.3 -24.3,40.9 -22.9,43.8 -21.6,44.8 -20.5,46.1 -19.4,47.0 -18.1,48.0 -16.4,49.9" fill="none" stroke="rgb(80,68,68)" stroke-width="1.5821537704702182" stroke-linejoin="round" stroke-linecap="round" filter="url(#fuzzy_av_1779093954990_lcytls2mgf)" opacity="0.8174574126185865"/><polyline points="-36.7,-33.4 -38.5,-30.8 -40.1,-27.0 -40.9,-24.8 -41.0,-22.7 -41.0,-19.8 -41.0,-16.6 -41.0,-14.9 -41.1,-11.1 -41.2,-9.7 -41.3,-6.6 -41.3,-2.8 -41.4,-0.4 -41.4,2.4 -41.4,5.0 -41.3,6.3 -41.1,9.1 -40.6,12.2 -40.0,14.2 -39.3,17.6 -38.5,19.3 -37.7,21.7 -36.9,25.2 -36.1,27.0 -35.3,28.0 -34.6,31.5 -33.8,34.0 -32.9,34.8 -31.7,37.0 -30.2,39.9 -28.8,40.1" fill="none" stroke="rgb(80,68,68)" stroke-width="2.235169155057209" stroke-linejoin="round" stroke-linecap="round" filter="url(#fuzzy_av_1779093954990_lcytls2mgf)" opacity="0.807339610503661"/><polyline points="-37.4,-30.5 -38.6,-27.4 -39.6,-23.4 -40.7,-22.8 -41.5,-19.7 -41.9,-17.9 -42.0,-14.0 -41.9,-11.7 -41.9,-9.4 -41.9,-6.4 -41.8,-3.2 -41.7,-0.8 -41.6,1.7 -41.3,4.9 -41.0,7.0 -40.6,8.6 -40.2,11.2 -39.7,13.9 -39.1,17.6 -38.5,19.2 -37.9,22.0 -37.2,25.1 -36.4,27.1 -35.7,28.8 -34.8,31.4 -33.9,32.6 -32.9,35.4 -31.6,37.8 -29.6,39.4" fill="none" stroke="rgb(80,68,68)" stroke-width="2.134383226744312" stroke-linejoin="round" stroke-linecap="round" filter="url(#fuzzy_av_1779093954990_lcytls2mgf)" opacity="0.8558949856585994"/><polyline points="-38.7,-25.2 -39.0,-22.7 -39.3,-22.2 -39.7,-18.8 -40.0,-16.8 -40.2,-14.4 -40.3,-10.8 -40.3,-9.6 -40.2,-6.7 -40.1,-3.8 -40.0,0.4 -39.8,1.5 -39.6,3.9 -39.3,6.3 -38.9,8.8 -38.3,12.8 -37.7,14.0 -37.0,17.2 -36.2,19.4 -35.3,21.6 -34.4,25.2 -33.5,27.5 -32.6,28.6 -31.6,31.6 -30.6,33.3 -29.5,35.8 -28.3,36.5 -27.0,39.8 -25.6,40.8 -24.3,43.7 -23.0,45.2 -21.7,44.9 -20.5,46.8 -19.1,47.6 -17.6,50.0 -16.0,49.6 -14.6,51.9" fill="none" stroke="rgb(80,68,68)" stroke-width="0.75031189277688" stroke-linejoin="round" stroke-linecap="round" filter="url(#fuzzy_av_1779093954990_lcytls2mgf)" opacity="0.9201601666553549"/><polyline points="-38.7,-25.9 -39.2,-23.9 -39.8,-21.9 -40.6,-18.8 -41.5,-17.0 -42.6,-14.5 -43.6,-12.4 -44.6,-8.9 -45.3,-7.3 -45.9,-3.2 -46.2,-1.2 -46.2,2.2 -46.0,4.4 -45.8,7.4 -45.9,9.5 -46.1,11.6 -46.3,13.1 -46.4,16.6 -46.3,18.9 -46.0,21.5 -45.5,24.9 -45.0,26.6 -44.5,30.5" fill="none" stroke="rgb(80,68,68)" stroke-width="1.8924410800935738" stroke-linejoin="round" stroke-linecap="round" filter="url(#fuzzy_av_1779093954990_lcytls2mgf)" opacity="0.9222672345061643"/><polyline points="-38.7,-25.6 -39.1,-23.8 -39.4,-21.7 -39.7,-19.8 -40.0,-17.5 -40.5,-14.9 -41.3,-10.7 -42.2,-8.5 -43.3,-6.0 -44.2,-3.3 -44.9,-1.5 -45.3,2.2 -45.4,5.2 -45.4,6.4 -45.3,8.6 -45.2,11.9 -44.9,14.1 -44.5,17.9 -43.7,20.3 -42.7,22.8 -41.7,24.7 -40.7,26.6 -39.8,29.9 -39.0,30.4 -38.4,32.1 -37.7,35.9 -36.8,36.0 -34.6,40.3" fill="none" stroke="rgb(80,68,68)" stroke-width="2.2603301026958333" stroke-linejoin="round" stroke-linecap="round" filter="url(#fuzzy_av_1779093954990_lcytls2mgf)" opacity="0.9219075549911324"/><polyline points="-38.6,-24.5 -38.0,-23.1 -37.5,-22.0 -37.3,-19.6 -37.0,-16.3 -36.6,-13.9 -36.2,-11.0 -35.8,-7.7 -35.5,-6.4 -35.1,-3.1 -34.5,-0.1 -33.8,2.5 -32.9,5.1 -31.9,9.3 -30.8,11.5 -29.5,12.7 -28.0,15.9 -26.5,18.9 -25.1,21.1 -23.8,23.9 -22.8,26.3 -21.8,28.4 -20.9,29.3 -19.7,32.1 -18.2,33.8 -16.7,36.7 -15.2,39.1 -13.3,41.7" fill="none" stroke="rgb(80,68,68)" stroke-width="1.355542672036719" stroke-linejoin="round" stroke-linecap="round" filter="url(#fuzzy_av_1779093954990_lcytls2mgf)" opacity="0.764901652030668"/><polyline points="-38.9,-24.2 -39.2,-20.5 -39.5,-19.0 -39.8,-17.9 -40.1,-13.6 -40.4,-11.7 -40.5,-7.7 -40.6,-4.9 -40.6,-2.8 -40.6,0.2 -40.5,1.7 -40.4,5.4 -40.1,6.5 -39.7,9.4 -39.3,13.0 -38.7,15.2 -38.1,17.2 -37.4,20.0 -36.6,22.4 -35.8,24.2 -35.0,26.7 -34.1,28.8 -33.1,31.6 -32.1,32.5 -30.9,35.9 -29.7,37.0 -28.3,39.7 -26.9,40.2 -25.5,43.3 -24.1,44.3 -22.8,46.4 -21.5,47.2 -20.1,48.3 -18.6,49.6 -16.9,49.5 -15.5,51.7" fill="none" stroke="rgb(80,68,68)" stroke-width="1.990993402578026" stroke-linejoin="round" stroke-linecap="round" filter="url(#fuzzy_av_1779093954990_lcytls2mgf)" opacity="0.8319260421064081"/><polyline points="-39.1,-21.8 -39.5,-17.7 -39.8,-16.8 -39.9,-14.4 -40.1,-11.5 -40.4,-7.6 -40.7,-5.3 -40.9,-2.5 -40.9,1.6 -40.6,3.6 -40.2,5.7 -39.6,8.1 -39.0,12.2 -38.4,13.2 -37.9,15.4 -37.4,18.4 -36.8,20.5 -36.2,23.4 -35.5,24.7 -34.7,28.3 -33.8,30.9 -32.9,31.6 -31.9,35.5 -30.7,36.6 -29.5,38.4 -28.1,40.3 -26.6,42.4 -25.4,43.3 -24.8,45.2" fill="none" stroke="rgb(80,68,68)" stroke-width="1.8744823001455202" stroke-linejoin="round" stroke-linecap="round" filter="url(#fuzzy_av_1779093954990_lcytls2mgf)" opacity="0.7899731941066908"/><polyline points="-39.3,-21.9 -41.8,-16.7 -43.3,-14.6 -43.2,-12.3 -42.5,-8.0 -41.7,-6.3 -41.3,-3.7 -41.1,0.3 -41.3,1.6 -41.6,4.6 -42.2,7.9 -42.8,9.5 -43.2,12.9 -43.4,14.8 -43.2,16.9 -42.7,18.9 -41.9,23.3 -41.1,24.5 -40.2,26.7 -39.3,28.4 -38.4,31.1 -37.4,32.7 -36.4,35.8 -35.4,36.4 -34.4,38.8 -33.4,40.4 -32.2,42.4 -31.0,45.2 -30.2,44.8 -30.2,45.3" fill="none" stroke="rgb(80,68,68)" stroke-width="1.9966659213791356" stroke-linejoin="round" stroke-linecap="round" filter="url(#fuzzy_av_1779093954990_lcytls2mgf)" opacity="0.842491302017356"/><polyline points="-39.8,-2.9 -39.6,-1.6 -39.6,0.6 -39.8,2.0 -40.0,5.4 -40.2,7.1 -40.2,10.7 -40.1,11.7 -39.7,15.6 -39.1,17.6 -38.4,20.5 -37.6,22.1 -36.9,24.0 -36.1,27.7 -35.2,28.9 -34.4,31.5 -33.5,34.4 -32.6,35.5 -31.6,36.9 -30.3,38.5 -28.8,41.2 -27.3,43.1 -25.8,45.7 -24.7,46.3" fill="none" stroke="rgb(80,68,68)" stroke-width="1.9215068537373932" stroke-linejoin="round" stroke-linecap="round" filter="url(#fuzzy_av_1779093954990_lcytls2mgf)" opacity="0.794624031769618"/><polyline points="-39.7,-3.1 -39.9,0.7 -40.9,2.8 -41.4,5.9 -41.3,7.6 -40.8,10.2 -40.2,12.5 -39.5,14.6 -38.6,17.7 -37.8,19.7 -36.9,22.1 -36.1,25.3 -35.4,27.0 -34.7,28.7 -33.8,32.6 -32.9,34.0 -31.8,35.4 -30.6,37.4 -29.4,39.2 -28.1,41.4 -27.0,42.4 -25.8,44.7 -24.8,45.7 -23.6,46.1 -22.3,48.4 -20.7,48.8 -18.9,51.0 -17.1,51.4 -15.8,51.0" fill="none" stroke="rgb(80,68,68)" stroke-width="1.3191233925518246" stroke-linejoin="round" stroke-linecap="round" filter="url(#fuzzy_av_1779093954990_lcytls2mgf)" opacity="0.8715375323030469"/><polyline points="-39.6,-1.9 -39.2,0.6 -38.7,5.3 -38.3,6.4 -37.9,9.6 -37.4,11.8 -36.8,13.8 -36.2,17.1 -35.4,19.4 -34.6,21.5 -33.7,24.0 -32.7,27.2 -31.7,27.6 -30.6,31.6 -29.5,33.5 -28.3,34.1 -27.0,36.9 -25.8,39.8 -24.5,40.2 -23.2,42.3 -21.9,44.5 -20.6,44.4 -19.2,47.0 -17.8,48.7 -16.2,49.3 -14.6,51.0 -13.0,51.4 -11.4,52.0 -9.9,53.1 -8.5,53.4 -7.0,54.3 -5.4,53.6" fill="none" stroke="rgb(80,68,68)" stroke-width="1.5640529672925525" stroke-linejoin="round" stroke-linecap="round" filter="url(#fuzzy_av_1779093954990_lcytls2mgf)" opacity="0.9119353413847678"/><polyline points="-38.6,5.0 -38.2,7.5 -37.8,9.5 -37.3,12.3 -36.8,15.6 -36.2,17.4 -35.5,18.7 -34.7,21.4 -33.8,25.2 -32.8,27.4 -31.8,29.4 -30.7,31.6 -29.5,33.5 -28.2,34.7 -27.0,37.8 -25.7,40.1 -24.4,40.8 -23.1,42.4 -21.8,43.3 -20.4,44.8 -19.0,46.0 -17.6,48.6 -16.1,48.2 -14.5,50.4 -12.9,51.2 -11.3,51.1 -9.8,53.5 -8.2,53.9 -6.6,54.2 -4.9,54.8 -3.3,54.1 -1.6,55.1 -0.0,55.3 1.7,54.7 2.9,54.1" fill="none" stroke="rgb(80,68,68)" stroke-width="0.8650474470722823" stroke-linejoin="round" stroke-linecap="round" filter="url(#fuzzy_av_1779093954990_lcytls2mgf)" opacity="0.9608196722483463"/><polyline points="-37.9,8.8 -37.6,13.5 -37.0,15.5 -36.3,17.2 -35.8,19.0 -35.2,21.1 -34.8,23.6 -34.3,26.9 -33.8,29.0 -33.1,30.7 -32.4,32.5 -31.5,34.6 -30.5,37.7 -29.5,40.3 -28.4,41.1 -27.2,42.5 -26.0,43.7 -24.5,45.0 -23.0,46.7 -21.3,47.1 -19.5,49.7 -17.7,49.2 -15.8,50.2 -13.8,52.5 -11.8,52.6 -9.9,52.4 -7.9,54.1 -5.8,54.7 -3.8,53.6 -1.7,54.9 0.5,54.5 2.6,54.1 4.9,53.8 7.2,53.2 9.6,52.6 12.2,52.7 15.1,51.5 18.5,50.5" fill="none" stroke="rgb(80,68,68)" stroke-width="2.4470987114932425" stroke-linejoin="round" stroke-linecap="round" filter="url(#fuzzy_av_1779093954990_lcytls2mgf)" opacity="0.7698699700793159"/><polyline points="-37.9,9.9 -37.3,12.5 -36.7,14.9 -36.1,16.9 -35.4,18.8 -34.5,21.2 -33.6,24.3 -32.6,25.9 -31.5,29.5 -30.4,31.1 -29.2,32.5 -27.9,36.1 -26.6,37.3 -25.3,40.3 -24.0,40.8 -22.7,42.9 -21.4,43.4 -20.1,45.1 -18.7,46.1 -17.2,48.0 -15.7,50.0 -14.1,50.0 -12.5,50.7 -10.9,51.2 -9.3,52.1 -7.8,52.9 -6.2,53.4 -4.6,54.0 -2.9,53.9 -1.3,54.7 0.3,54.1 2.0,54.5 3.7,53.6 5.4,53.9 7.1,52.4 8.9,52.6 10.8,52.4 12.5,51.3 13.7,50.6" fill="none" stroke="rgb(80,68,68)" stroke-width="0.9754805624394269" stroke-linejoin="round" stroke-linecap="round" filter="url(#fuzzy_av_1779093954990_lcytls2mgf)" opacity="0.8520025026084399"/><polyline points="-37.9,10.2 -37.4,12.2 -37.0,13.8 -36.4,17.8 -35.8,20.5 -35.1,21.7 -34.5,24.5 -34.1,27.0 -33.7,29.4 -33.4,30.2 -33.1,32.4 -32.8,36.0 -32.3,37.3 -31.6,38.6 -30.6,41.0 -29.4,43.0 -28.1,43.6 -26.7,45.9 -25.1,47.2 -23.4,47.1 -21.4,49.3 -19.4,51.1 -17.3,51.5 -15.5,51.8 -13.7,53.1 -11.9,53.0 -10.0,53.7 -8.1,53.3" fill="none" stroke="rgb(80,68,68)" stroke-width="2.048633127003178" stroke-linejoin="round" stroke-linecap="round" filter="url(#fuzzy_av_1779093954990_lcytls2mgf)" opacity="0.7824951498105044"/><polyline points="-37.2,12.5 -37.3,14.9 -37.2,16.5 -37.2,18.6 -37.0,22.2 -36.4,23.9 -35.7,26.2 -35.1,29.4 -34.6,30.7 -34.1,33.5 -33.5,35.7 -32.8,36.8 -31.8,40.1 -30.7,41.2 -29.3,43.4 -27.9,44.6 -26.4,46.2 -25.0,45.9 -23.6,47.5 -22.2,48.1 -20.7,49.6 -18.9,51.1 -17.1,52.0 -16.3,52.9" fill="none" stroke="rgb(80,68,68)" stroke-width="2.246440900601115" stroke-linejoin="round" stroke-linecap="round" filter="url(#fuzzy_av_1779093954990_lcytls2mgf)" opacity="0.9083017201545184"/><polyline points="-36.3,16.6 -37.2,17.3 -36.3,19.6 -35.4,23.0 -34.6,24.0 -34.0,26.8 -33.3,29.4 -32.5,30.2 -31.5,33.8 -30.4,36.4 -29.1,37.8 -27.8,38.7 -26.5,41.3 -25.3,42.5 -24.1,43.6 -23.0,44.5 -21.7,46.1 -20.4,47.0 -18.8,49.9 -17.1,50.7 -15.4,51.9 -13.5,51.9 -11.7,51.7 -9.8,54.1 -7.8,53.5 -5.9,53.1 -3.9,53.3 -2.0,55.1 0.1,54.1 2.3,54.3 3.9,55.0" fill="none" stroke="rgb(80,68,68)" stroke-width="1.4547714340938436" stroke-linejoin="round" stroke-linecap="round" filter="url(#fuzzy_av_1779093954990_lcytls2mgf)" opacity="0.7769424830205999"/><polyline points="-36.6,15.9 -36.9,18.9 -36.0,22.8 -35.0,24.4 -34.2,27.1 -33.4,29.3 -32.6,30.4 -31.9,33.6 -31.1,35.6 -30.3,37.5 -29.4,39.6 -28.2,41.3 -27.0,42.5 -25.6,43.7 -24.2,45.7 -22.7,45.8 -21.0,48.0 -19.2,48.5 -17.4,50.8 -15.6,50.8 -13.9,52.5 -12.2,52.8 -10.5,53.5 -8.6,53.8 -6.6,54.5 -4.5,54.8 -2.3,54.7 0.0,55.0 3.9,54.2" fill="none" stroke="rgb(80,68,68)" stroke-width="2.3389658481269135" stroke-linejoin="round" stroke-linecap="round" filter="url(#fuzzy_av_1779093954990_lcytls2mgf)" opacity="0.846234983395118"/><polyline points="-32.6,26.4 -31.8,29.5 -31.1,30.5 -30.2,32.3 -29.1,34.3 -27.9,37.4 -26.6,38.2 -25.3,39.4 -24.2,42.0 -23.1,43.6 -22.1,43.9 -21.1,46.4 -20.0,47.4 -18.7,47.4 -17.2,49.1 -15.4,49.8 -13.6,51.9 -11.8,51.6 -9.9,53.6 -8.0,53.8 -6.1,54.6 -4.2,54.2 -2.3,53.7 -0.3,54.7 1.5,53.4 3.3,53.6 4.9,54.8 6.8,52.7" fill="none" stroke="rgb(80,68,68)" stroke-width="2.585428298849741" stroke-linejoin="round" stroke-linecap="round" filter="url(#fuzzy_av_1779093954990_lcytls2mgf)" opacity="0.8639578957656857"/><polyline points="-30.7,30.7 -30.7,34.4 -29.0,36.0 -27.3,37.7 -26.0,39.8 -24.8,42.5 -23.8,43.8 -22.6,44.1 -21.3,45.3 -19.8,46.6 -18.2,48.7 -16.6,50.1 -15.0,50.0 -13.4,51.9 -11.8,52.9 -10.2,52.5 -8.5,53.6 -6.8,53.9 -5.0,54.6 -3.1,54.3 -1.2,54.6 0.7,53.1 2.7,53.9 4.7,54.6 6.8,52.9 9.0,51.9 11.2,51.2 13.4,51.2 15.7,51.2 17.8,50.8 20.0,48.7 22.6,47.2" fill="none" stroke="rgb(80,68,68)" stroke-width="1.476552185243484" stroke-linejoin="round" stroke-linecap="round" filter="url(#fuzzy_av_1779093954990_lcytls2mgf)" opacity="0.7638382507347656"/><polyline points="-23.3,41.7 -22.2,44.7 -21.5,44.7 -20.4,46.7 -19.0,46.9 -17.3,49.4 -15.5,50.5 -13.8,51.3 -12.1,50.9 -10.5,52.0 -8.9,52.4 -7.3,53.3 -5.7,52.6 -4.0,53.6 -2.4,53.6 -0.7,53.7 1.1,53.8 2.9,54.2 4.7,53.5 6.5,53.0 8.3,52.5 10.2,52.1 12.0,50.7 13.9,50.5 15.7,49.7 17.5,47.2 19.2,46.0 21.0,46.1 22.8,44.6 24.5,43.2 26.2,41.2 27.8,40.5 29.4,37.4 31.1,37.3 32.7,35.5 34.4,32.5 36.1,31.1 37.5,28.5" fill="none" stroke="rgb(80,68,68)" stroke-width="1.780642308318996" stroke-linejoin="round" stroke-linecap="round" filter="url(#fuzzy_av_1779093954990_lcytls2mgf)" opacity="0.921761085466582"/></g><path d="M -5.43123008248063 5.368192118657169 Q 5.202008443292593 0.015768128258697445, -0.11461081959401831 5.661504339024323" fill="none" stroke="#111" stroke-width="2.713603702826922" stroke-linejoin="round" filter="url(#fuzzy_av_1779093954990_lcytls2mgf)"/><polyline points="-16.7,12.8 -16.4,14.3 -16.0,15.9 -15.7,17.3 -15.4,18.7 -15.1,20.1 -14.7,21.4 -14.4,22.7 -14.1,23.9 -13.8,25.1 -13.5,26.2 -13.2,27.3 -12.8,28.4 -12.5,29.4 -12.2,30.3 -11.9,31.2 -11.6,32.1 -11.3,32.9 -11.0,33.7 -10.6,34.5 -10.3,35.2 -10.0,35.8 -9.7,36.5 -9.4,37.1 -9.1,37.6 -8.8,38.2 -8.5,38.6 -8.2,39.1 -7.9,39.5 -7.6,39.9 -7.3,40.2 -7.0,40.6 -6.7,40.8 -6.4,41.1 -6.1,41.3 -5.8,41.5 -5.5,41.7 -5.2,41.8 -4.9,41.9 -4.6,42.0 -4.3,42.1 -4.0,42.1 -3.7,42.1 -3.4,42.1 -3.1,42.1 -2.8,42.0 -2.5,41.9 -2.2,41.8 -1.9,41.7 -1.6,41.6 -1.3,41.4 -1.0,41.2 -0.7,41.0 -0.4,40.8 -0.1,40.5 0.2,40.3 0.5,40.0 0.8,39.7 1.0,39.4 1.3,39.1 1.6,38.8 1.9,38.5 2.2,38.1 2.5,37.8 2.8,37.4 3.1,37.0 3.4,36.7 3.7,36.3 3.9,35.9 4.2,35.5 4.5,35.0 4.8,34.6 5.1,34.2 5.4,33.8 5.7,33.3 6.0,32.9 6.3,32.5 6.5,32.0 6.8,31.6 7.1,31.2 7.4,30.7 7.7,30.3 8.0,29.9 8.3,29.4 8.5,29.0 8.8,28.6 9.1,28.2 9.4,27.7 9.7,27.3 10.0,26.9 10.3,26.5 10.6,26.2 10.8,25.8 11.1,25.4 11.4,25.1 11.7,24.7 12.0,24.4 12.3,24.1 12.6,23.8 12.8,23.5 13.1,23.2 12.8,23.5 12.6,23.8 12.3,24.1 12.0,24.4 11.7,24.7 11.4,25.1 11.1,25.4 10.8,25.8 10.6,26.2 10.3,26.5 10.0,26.9 9.7,27.3 9.4,27.7 9.1,28.2 8.8,28.6 8.5,29.0 8.3,29.4 8.0,29.9 7.7,30.3 7.4,30.7 7.1,31.2 6.8,31.6 6.5,32.0 6.3,32.5 6.0,32.9 5.7,33.3 5.4,33.8 5.1,34.2 4.8,34.6 4.5,35.0 4.2,35.5 3.9,35.9 3.7,36.3 3.4,36.7 3.1,37.0 2.8,37.4 2.5,37.8 2.2,38.1 1.9,38.5 1.6,38.8 1.3,39.1 1.0,39.4 0.8,39.7 0.5,40.0 0.2,40.3 -0.1,40.5 -0.4,40.8 -0.7,41.0 -1.0,41.2 -1.3,41.4 -1.6,41.6 -1.9,41.7 -2.2,41.8 -2.5,41.9 -2.8,42.0 -3.1,42.1 -3.4,42.1 -3.7,42.1 -4.0,42.1 -4.3,42.1 -4.6,42.0 -4.9,41.9 -5.2,41.8 -5.5,41.7 -5.8,41.5 -6.1,41.3 -6.4,41.1 -6.7,40.8 -7.0,40.6 -7.3,40.2 -7.6,39.9 -7.9,39.5 -8.2,39.1 -8.5,38.6 -8.8,38.2 -9.1,37.6 -9.4,37.1 -9.7,36.5 -10.0,35.8 -10.3,35.2 -10.6,34.5 -11.0,33.7 -11.3,32.9 -11.6,32.1 -11.9,31.2 -12.2,30.3 -12.5,29.4 -12.8,28.4 -13.2,27.3 -13.5,26.2 -13.8,25.1 -14.1,23.9 -14.4,22.7 -14.7,21.4 -15.1,20.1 -15.4,18.7 -15.7,17.3 -16.0,15.9 -16.4,14.3" fill="rgb(215,127,140)" stroke="#111" stroke-width="2.685569463605715" stroke-linejoin="round" filter="url(#fuzzy_av_1779093954990_lcytls2mgf)"/></g><g class="accessory-svg accessory-calculator" transform="translate(70.8 30.4) rotate(10.7) scale(1.267)">
      <rect x="-8" y="-12" width="16" height="24" rx="3" fill="#6B7280" stroke="#111827" stroke-width="1.1"/><rect x="-5" y="-9" width="10" height="5" rx="1" fill="#22c55e"/><g fill="#f8fafc"><circle cx="-4" cy="0" r="1.5"/><circle cx="0" cy="0" r="1.5"/><circle cx="4" cy="0" r="1.5"/><circle cx="-4" cy="5" r="1.5"/><circle cx="0" cy="5" r="1.5"/><circle cx="4" cy="5" r="1.5"/></g>
    </g><g class="accessory-svg accessory-chart" transform="translate(8.5 75.3) rotate(10.2) scale(1.226)">
      <rect x="-11" y="-10" width="22" height="20" rx="3" fill="#f8fafc" stroke="#111827" stroke-width="1.2"/><rect x="-7" y="1" width="3" height="6" rx="1" fill="#9CA3AF"/><rect x="-1.5" y="-4" width="3" height="11" rx="1" fill="#38bdf8"/><rect x="4" y="-8" width="3" height="15" rx="1" fill="#ef4444"/><path d="M-7 5l5-7 5 3 5-8" fill="none" stroke="#6B7280" stroke-width="1.3" stroke-linecap="round" stroke-linejoin="round"/>
    </g><g class="accessory-svg accessory-laptop" transform="translate(-73.4 8.8) rotate(1.0) scale(1.147)">
      <rect x="-10" y="-10" width="20" height="14" rx="2" fill="#6B7280" stroke="#111827" stroke-width="1"/><rect x="-13" y="5" width="26" height="5" rx="2" fill="#f8fafc" stroke="#111827" stroke-width="1"/><rect x="-7" y="-7" width="14" height="8" fill="#38bdf8" opacity=".65"/>
    </g><g class="accessory-svg accessory-phone" transform="translate(33.5 -65.6) rotate(3.1) scale(1.225)">
      <rect x="-6" y="-12" width="12" height="24" rx="3" fill="#6B7280" stroke="#111827" stroke-width="1.1"/><rect x="-4" y="-8" width="8" height="15" fill="#38bdf8" opacity=".7"/><circle cx="0" cy="9" r="1" fill="#f8fafc"/>
    </g></svg>