<svg xmlns="http://www.w3.org/2000/svg" viewBox="-100 -100 200 200" width="400" height="400" role="img" aria-label="薛定谔的打工人 avatar"><defs>
      <filter id="fuzzy_av_1779093955009_ryd3ho1zggi" x="-8%" y="-8%" width="116%" height="116%">
        <feTurbulence baseFrequency="0.045" numOctaves="3" type="fractalNoise" result="noise"/>
        <feDisplacementMap in="SourceGraphic" in2="noise" scale="1.6"/>
      </filter>
      <clipPath id="leftEye_av_1779093955009_ryd3ho1zggi"><polyline points="-25.0,-7.5 -25.1,-8.1 -25.1,-8.6 -25.1,-9.1 -25.1,-9.6 -25.0,-10.1 -24.8,-10.6 -24.7,-11.0 -24.5,-11.4 -24.2,-11.8 -23.9,-12.1 -23.6,-12.5 -23.3,-12.8 -22.9,-13.1 -22.5,-13.4 -22.0,-13.7 -21.6,-14.0 -21.2,-14.2 -20.7,-14.5 -20.1,-14.7 -19.5,-15.0 -18.9,-15.2 -18.2,-15.4 -17.4,-15.6 -16.7,-15.8 -15.9,-16.0 -15.0,-16.1 -14.1,-16.3 -13.2,-16.5 -12.3,-16.6 -11.3,-16.8 -10.4,-16.9 -9.4,-17.0 -8.4,-17.2 -7.4,-17.3 -6.4,-17.4 -5.3,-17.5 -4.3,-17.6 -3.3,-17.6 -2.3,-17.7 -1.3,-17.8 -0.3,-17.8 0.7,-17.9 1.6,-17.9 2.6,-18.0 3.5,-18.0 4.4,-18.0 5.3,-18.0 6.1,-18.0 6.9,-18.0 7.8,-18.0 8.5,-18.0 9.3,-17.9 10.0,-17.9 10.7,-17.9 11.4,-17.8 12.0,-17.8 12.6,-17.7 13.2,-17.6 13.8,-17.6 14.3,-17.5 14.8,-17.4 15.3,-17.4 15.7,-17.3 16.2,-17.2 16.6,-17.1 17.0,-17.0 17.4,-17.0 17.7,-16.9 18.1,-16.8 18.4,-16.7 18.7,-16.6 19.0,-16.5 19.2,-16.4 19.5,-16.3 19.7,-16.2 20.0,-16.1 20.2,-16.0 20.4,-15.9 20.5,-15.8 18.3,-3.7 18.0,-3.1 17.7,-2.4 17.4,-1.8 17.1,-1.1 16.8,-0.5 16.5,0.2 16.2,0.9 15.9,1.6 15.5,2.2 15.2,2.9 14.9,3.6 14.5,4.2 14.2,4.9 13.8,5.6 13.4,6.2 13.0,6.9 12.6,7.5 12.2,8.2 11.8,8.9 11.4,9.5 11.0,10.1 10.5,10.8 10.1,11.4 9.6,12.0 9.1,12.6 8.6,13.1 8.1,13.7 7.6,14.2 7.1,14.7 6.6,15.1 6.0,15.6 5.5,16.0 4.9,16.3 4.3,16.7 3.8,17.0 3.2,17.2 2.6,17.5 1.9,17.6 1.3,17.8 0.7,17.9 0.0,17.9 -0.6,17.9 -1.3,17.9 -2.0,17.8 -2.6,17.7 -3.3,17.5 -4.0,17.3 -4.7,17.0 -5.4,16.7 -6.2,16.3 -6.9,15.9 -7.6,15.4 -8.3,14.9 -9.1,14.4 -9.8,13.8 -10.6,13.2 -11.3,12.5 -12.0,11.8 -12.8,11.1 -13.5,10.3 -14.3,9.5 -15.0,8.6 -15.7,7.8 -16.4,6.9 -17.1,6.3 -17.7,5.6 -18.3,5.0 -18.8,4.3 -19.4,3.6 -20.0,2.9 -20.6,2.2 -21.1,1.5 -21.7,0.8 -22.2,0.1 -22.7,-0.5 -23.2,-1.2 -23.7,-1.9 -24.2,-2.5 -24.6,-3.2"/></clipPath>
      <clipPath id="rightEye_av_1779093955009_ryd3ho1zggi"><polyline points="-23.6,-2.0 -23.6,-2.9 -23.5,-3.7 -23.4,-4.5 -23.3,-5.2 -23.1,-5.9 -22.9,-6.5 -22.7,-7.1 -22.5,-7.7 -22.2,-8.2 -21.8,-8.7 -21.5,-9.2 -21.1,-9.7 -20.6,-10.1 -20.2,-10.5 -19.7,-10.8 -19.3,-11.2 -18.8,-11.5 -18.3,-11.8 -17.7,-12.1 -17.1,-12.3 -16.4,-12.6 -15.7,-12.8 -14.9,-13.0 -14.2,-13.2 -13.3,-13.4 -12.5,-13.6 -11.6,-13.8 -10.7,-13.9 -9.7,-14.0 -8.8,-14.2 -7.8,-14.3 -6.8,-14.4 -5.8,-14.5 -4.8,-14.6 -3.7,-14.7 -2.7,-14.7 -1.7,-14.8 -0.7,-14.8 0.4,-14.9 1.4,-14.9 2.4,-15.0 3.3,-15.0 4.3,-15.0 5.3,-15.0 6.2,-15.0 7.1,-15.1 8.0,-15.1 8.9,-15.0 9.7,-15.0 10.5,-15.0 11.3,-15.0 12.1,-15.0 12.8,-15.0 13.5,-14.9 14.2,-14.9 14.8,-14.9 15.4,-14.8 16.0,-14.8 16.6,-14.7 17.1,-14.7 17.6,-14.7 18.1,-14.6 18.6,-14.6 19.0,-14.5 19.5,-14.5 19.9,-14.4 20.3,-14.4 20.6,-14.3 21.0,-14.2 21.3,-14.2 21.6,-14.1 21.9,-14.1 22.2,-14.0 22.4,-14.0 22.7,-13.9 22.9,-13.9 23.1,-13.8 23.3,-13.7 23.5,-13.7 19.8,-5.9 19.5,-5.4 19.1,-5.0 18.8,-4.5 18.4,-4.1 18.0,-3.6 17.6,-3.1 17.2,-2.7 16.8,-2.2 16.4,-1.7 16.0,-1.1 15.5,-0.6 15.1,-0.1 14.6,0.5 14.1,1.0 13.6,1.6 13.2,2.1 12.6,2.7 12.1,3.3 11.6,3.9 11.1,4.5 10.5,5.1 9.9,5.7 9.3,6.3 8.8,6.9 8.1,7.5 7.5,8.1 6.9,8.7 6.3,9.3 5.6,9.9 5.0,10.5 4.3,11.1 3.6,11.6 2.9,12.2 2.2,12.7 1.5,13.2 0.8,13.7 0.1,14.1 -0.6,14.5 -1.4,14.9 -2.1,15.3 -2.8,15.6 -3.6,15.9 -4.3,16.2 -5.0,16.4 -5.8,16.5 -6.5,16.6 -7.2,16.7 -8.0,16.7 -8.7,16.7 -9.4,16.6 -10.1,16.4 -10.8,16.2 -11.5,16.0 -12.2,15.7 -12.9,15.3 -13.5,14.8 -14.2,14.3 -14.8,13.8 -15.4,13.2 -16.0,12.5 -16.6,11.8 -17.2,11.0 -17.8,10.2 -18.3,9.3 -18.8,8.7 -19.3,8.2 -19.8,7.6 -20.3,7.0 -20.7,6.3 -21.2,5.7 -21.6,5.0 -22.0,4.4 -22.4,3.7 -22.8,3.0 -23.2,2.3 -23.6,1.6 -23.9,0.9 -24.2,0.2 -24.5,-0.4"/></clipPath>
      <linearGradient id="rainbow_av_1779093955009_ryd3ho1zggi" x1="0%" y1="0%" x2="100%" y2="0%">
        <stop offset="0%" stop-color="#6B7280"/><stop offset="42%" stop-color="#22D3EE"/><stop offset="100%" stop-color="#4B5563"/>
      </linearGradient>
      <linearGradient id="splitHair_av_1779093955009_ryd3ho1zggi" x1="0%" y1="0%" x2="100%" y2="0%">
        <stop offset="49%" stop-color="#111827"/><stop offset="51%" stop-color="#F9FAFB"/>
      </linearGradient>
      <radialGradient id="halo_av_1779093955009_ryd3ho1zggi"><stop offset="0%" stop-color="#6B7280" stop-opacity=".45"/><stop offset="100%" stop-color="#6B7280" stop-opacity="0"/></radialGradient>
    </defs><rect x="-100" y="-100" width="200" height="200" fill="#FFFDD0"/><g opacity="0.72"><polyline id="faceContour" class="face-shape" points="62.9,-5.7 63.0,-5.0 63.1,-4.6 63.4,-1.8 63.4,-1.4 63.4,-0.2 63.5,2.5 63.5,5.5 63.5,4.1 63.5,8.1 63.5,9.6 63.4,9.4 63.3,9.5 63.2,14.0 62.6,15.4 62.4,16.3 62.8,16.2 62.3,18.7 62.0,19.9 61.4,21.5 61.1,23.2 61.7,21.8 60.3,25.4 60.1,26.4 60.5,26.7 59.7,28.3 58.3,31.4 59.4,30.0 58.7,32.0 56.7,35.3 57.0,35.5 56.3,36.6 56.3,37.2 55.3,39.5 54.5,40.9 54.6,41.4 52.6,44.2 52.2,43.9 49.9,45.4 48.2,46.6 47.3,47.0 46.7,46.6 43.7,48.5 42.7,48.9 39.9,50.2 40.1,49.8 38.1,50.6 36.9,50.9 33.8,52.4 33.1,52.5 33.6,52.0 30.5,53.3 29.7,53.4 26.5,54.3 27.0,54.0 26.1,54.2 24.2,54.7 20.5,55.5 19.3,55.8 18.3,55.9 15.6,56.4 15.8,56.2 13.8,56.6 13.1,56.6 10.4,56.9 7.5,57.2 6.6,57.2 6.5,57.2 1.8,57.4 1.7,57.4 -1.3,57.4 -2.2,57.4 -3.4,57.3 -5.7,57.2 -7.3,57.2 -9.8,56.9 -8.7,57.1 -13.1,56.6 -13.3,56.6 -16.2,56.1 -15.6,56.3 -18.7,55.8 -21.0,55.3 -19.4,55.8 -23.5,54.9 -25.8,54.2 -26.9,53.9 -28.1,53.6 -29.1,53.4 -30.9,53.0 -31.3,53.1 -34.9,51.5 -36.5,50.9 -38.2,50.3 -39.0,50.2 -37.9,51.1 -41.4,49.4 -41.6,49.5 -43.9,48.3 -45.7,47.5 -47.9,46.4 -47.7,46.6 -48.5,46.5 -51.5,44.6 -52.0,44.7 -54.4,41.6 -54.1,41.3 -55.3,39.2 -55.4,38.3 -57.3,35.5 -56.7,35.6 -56.7,34.8 -58.4,31.7 -58.5,31.5 -58.9,29.7 -59.6,28.7 -59.8,27.0 -59.3,27.4 -60.7,24.1 -61.5,22.3 -61.0,23.0 -61.8,20.3 -61.9,18.5 -62.6,16.7 -63.1,14.7 -62.7,15.2 -63.0,14.1 -63.4,11.0 -63.3,9.3 -63.1,10.7 -63.6,6.9 -63.2,8.6 -63.7,4.8 -63.5,3.1 -63.6,0.6 -63.3,1.1 -63.5,-1.2 -63.5,-1.8 -63.4,-1.5 -63.2,-3.7 -63.1,-4.3 -62.8,-7.8 -62.8,-7.3 -62.5,-9.3 -62.1,-11.9 -61.9,-12.9 -61.4,-15.4 -61.6,-14.7 -60.4,-18.9 -60.3,-19.3 -59.6,-21.8 -59.5,-22.7 -59.5,-22.7 -59.5,-22.4 -58.9,-25.0 -57.3,-28.8 -58.5,-26.4 -56.6,-30.6 -56.1,-31.8 -57.1,-30.8 -54.8,-34.9 -55.2,-34.5 -55.0,-35.8 -54.1,-37.2 -52.1,-40.9 -53.7,-39.2 -51.8,-42.5 -51.3,-43.1 -50.9,-44.2 -49.3,-46.8 -48.9,-48.0 -49.7,-47.7 -48.9,-49.2 -46.4,-52.5 -47.3,-52.2 -44.8,-55.3 -46.1,-54.7 -44.7,-55.7 -41.4,-58.2 -41.8,-57.0 -39.4,-58.6 -37.3,-60.2 -35.4,-61.2 -36.2,-60.0 -34.0,-61.2 -31.8,-62.4 -32.2,-61.9 -30.7,-62.7 -29.2,-63.4 -26.2,-64.8 -24.9,-65.0 -24.1,-65.2 -23.1,-65.7 -22.3,-65.8 -20.2,-66.5 -19.8,-66.4 -16.5,-67.5 -15.9,-67.5 -14.2,-68.0 -15.7,-67.4 -12.9,-68.1 -10.2,-68.6 -11.2,-68.4 -10.8,-68.4 -8.7,-68.7 -6.2,-69.1 -4.8,-69.1 -3.5,-69.2 -1.8,-69.3 -1.4,-69.3 0.6,-69.3 1.9,-69.3 4.0,-69.2 3.3,-69.3 6.3,-69.0 8.2,-68.8 8.2,-68.9 7.9,-69.0 9.3,-68.8 10.9,-68.5 14.8,-67.6 13.6,-68.1 14.9,-67.8 15.5,-67.7 19.3,-66.6 19.1,-66.8 21.9,-65.9 23.6,-65.2 21.9,-66.2 24.6,-65.1 24.6,-65.3 26.8,-64.4 28.5,-63.6 28.9,-63.7 30.4,-63.0 33.2,-61.8 34.4,-61.1 34.3,-61.5 37.8,-59.5 37.0,-60.6 40.8,-57.8 39.6,-59.1 42.7,-57.0 42.5,-58.0 44.8,-55.9 45.5,-54.8 45.6,-53.9 46.5,-52.7 49.4,-48.9 47.6,-50.0 48.6,-48.7 50.6,-45.6 51.3,-43.7 51.0,-44.0 51.3,-43.0 52.6,-41.0 53.5,-39.2 54.4,-37.6 54.8,-36.2 54.2,-36.5 56.1,-32.9 56.5,-31.8 55.9,-32.7 57.4,-29.2 58.3,-27.2 58.3,-27.2 58.6,-26.2 59.2,-24.2 59.5,-23.3 59.8,-21.4 60.9,-18.1 61.3,-16.8 60.8,-17.5 61.0,-16.7 61.3,-15.7 62.1,-11.6 62.2,-11.1 62.3,-11.3 62.7,-8.7 63.1,-7.2 62.9,-5.7 63.0,-5.0" fill="#ffc9a9" stroke="#111" stroke-width="2.2" stroke-linejoin="round" filter="url(#fuzzy_av_1779093955009_ryd3ho1zggi)"/><g id="leftEye" transform="translate(-25.1 -29.9)"><polyline points="-25.0,-7.5 -25.1,-8.1 -25.1,-8.6 -25.1,-9.1 -25.1,-9.6 -25.0,-10.1 -24.8,-10.6 -24.7,-11.0 -24.5,-11.4 -24.2,-11.8 -23.9,-12.1 -23.6,-12.5 -23.3,-12.8 -22.9,-13.1 -22.5,-13.4 -22.0,-13.7 -21.6,-14.0 -21.2,-14.2 -20.7,-14.5 -20.1,-14.7 -19.5,-15.0 -18.9,-15.2 -18.2,-15.4 -17.4,-15.6 -16.7,-15.8 -15.9,-16.0 -15.0,-16.1 -14.1,-16.3 -13.2,-16.5 -12.3,-16.6 -11.3,-16.8 -10.4,-16.9 -9.4,-17.0 -8.4,-17.2 -7.4,-17.3 -6.4,-17.4 -5.3,-17.5 -4.3,-17.6 -3.3,-17.6 -2.3,-17.7 -1.3,-17.8 -0.3,-17.8 0.7,-17.9 1.6,-17.9 2.6,-18.0 3.5,-18.0 4.4,-18.0 5.3,-18.0 6.1,-18.0 6.9,-18.0 7.8,-18.0 8.5,-18.0 9.3,-17.9 10.0,-17.9 10.7,-17.9 11.4,-17.8 12.0,-17.8 12.6,-17.7 13.2,-17.6 13.8,-17.6 14.3,-17.5 14.8,-17.4 15.3,-17.4 15.7,-17.3 16.2,-17.2 16.6,-17.1 17.0,-17.0 17.4,-17.0 17.7,-16.9 18.1,-16.8 18.4,-16.7 18.7,-16.6 19.0,-16.5 19.2,-16.4 19.5,-16.3 19.7,-16.2 20.0,-16.1 20.2,-16.0 20.4,-15.9 20.5,-15.8 18.3,-3.7 18.0,-3.1 17.7,-2.4 17.4,-1.8 17.1,-1.1 16.8,-0.5 16.5,0.2 16.2,0.9 15.9,1.6 15.5,2.2 15.2,2.9 14.9,3.6 14.5,4.2 14.2,4.9 13.8,5.6 13.4,6.2 13.0,6.9 12.6,7.5 12.2,8.2 11.8,8.9 11.4,9.5 11.0,10.1 10.5,10.8 10.1,11.4 9.6,12.0 9.1,12.6 8.6,13.1 8.1,13.7 7.6,14.2 7.1,14.7 6.6,15.1 6.0,15.6 5.5,16.0 4.9,16.3 4.3,16.7 3.8,17.0 3.2,17.2 2.6,17.5 1.9,17.6 1.3,17.8 0.7,17.9 0.0,17.9 -0.6,17.9 -1.3,17.9 -2.0,17.8 -2.6,17.7 -3.3,17.5 -4.0,17.3 -4.7,17.0 -5.4,16.7 -6.2,16.3 -6.9,15.9 -7.6,15.4 -8.3,14.9 -9.1,14.4 -9.8,13.8 -10.6,13.2 -11.3,12.5 -12.0,11.8 -12.8,11.1 -13.5,10.3 -14.3,9.5 -15.0,8.6 -15.7,7.8 -16.4,6.9 -17.1,6.3 -17.7,5.6 -18.3,5.0 -18.8,4.3 -19.4,3.6 -20.0,2.9 -20.6,2.2 -21.1,1.5 -21.7,0.8 -22.2,0.1 -22.7,-0.5 -23.2,-1.2 -23.7,-1.9 -24.2,-2.5 -24.6,-3.2" fill="#fff" stroke="#fff" stroke-width="0" stroke-linejoin="round" filter="url(#fuzzy_av_1779093955009_ryd3ho1zggi)"/><polyline points="21.9,0.3 22.4,-0.6 22.9,-1.6 23.3,-2.4 23.6,-3.3 24.0,-4.1 24.3,-4.8 24.5,-5.5 24.7,-6.2 24.9,-6.9 -25.0,-7.5 -25.1,-8.1 -25.1,-8.6 -25.1,-9.1 -25.1,-9.6 -25.0,-10.1 -24.8,-10.6 -24.7,-11.0 -24.5,-11.4 -24.2,-11.8 -23.9,-12.1 -23.6,-12.5 -23.3,-12.8 -22.9,-13.1 -22.5,-13.4 -22.0,-13.7 -21.6,-14.0 -21.2,-14.2 -20.7,-14.5 -20.1,-14.7 -19.5,-15.0 -18.9,-15.2 -18.2,-15.4 -17.4,-15.6 -16.7,-15.8 -15.9,-16.0 -15.0,-16.1 -14.1,-16.3 -13.2,-16.5 -12.3,-16.6 -11.3,-16.8 -10.4,-16.9 -9.4,-17.0 -8.4,-17.2 -7.4,-17.3 -6.4,-17.4 -5.3,-17.5 -4.3,-17.6 -3.3,-17.6 -2.3,-17.7 -1.3,-17.8 -0.3,-17.8 0.7,-17.9 1.6,-17.9 2.6,-18.0 3.5,-18.0 4.4,-18.0 5.3,-18.0 6.1,-18.0 6.9,-18.0 7.8,-18.0 8.5,-18.0 9.3,-17.9 10.0,-17.9 10.7,-17.9 11.4,-17.8 12.0,-17.8 12.6,-17.7 13.2,-17.6 13.8,-17.6 14.3,-17.5 14.8,-17.4 15.3,-17.4 15.7,-17.3 16.2,-17.2 16.6,-17.1 17.0,-17.0 17.4,-17.0 17.7,-16.9 18.1,-16.8 18.4,-16.7 18.7,-16.6 19.0,-16.5 19.2,-16.4 19.5,-16.3 19.7,-16.2 20.0,-16.1 20.2,-16.0 20.4,-15.9 20.5,-15.8 -20.7,-15.7 -20.9,-15.6 -21.0,-15.5 -21.2,-15.4 -21.3,-15.4 -21.4,-15.3 -21.5,-15.2 -21.6,-15.1 -21.7,-15.0 -21.8,-14.9" fill="none" stroke="#111" stroke-width="2.5823796891519666" stroke-linejoin="round" stroke-linecap="round" filter="url(#fuzzy_av_1779093955009_ryd3ho1zggi)"/><polyline points="27.9,-8.0 27.7,-7.7 27.4,-7.4 27.2,-7.0 26.9,-6.5 26.6,-6.0 26.2,-5.5 25.9,-5.0 25.5,-4.4 25.1,-3.8 -24.6,-3.2 -24.2,-2.5 -23.7,-1.9 -23.2,-1.2 -22.7,-0.5 -22.2,0.1 -21.7,0.8 -21.1,1.5 -20.6,2.2 -20.0,2.9 -19.4,3.6 -18.8,4.3 -18.3,5.0 -17.7,5.6 -17.1,6.3 -16.4,6.9 -15.7,7.8 -15.0,8.6 -14.3,9.5 -13.5,10.3 -12.8,11.1 -12.0,11.8 -11.3,12.5 -10.6,13.2 -9.8,13.8 -9.1,14.4 -8.3,14.9 -7.6,15.4 -6.9,15.9 -6.2,16.3 -5.4,16.7 -4.7,17.0 -4.0,17.3 -3.3,17.5 -2.6,17.7 -2.0,17.8 -1.3,17.9 -0.6,17.9 0.0,17.9 0.7,17.9 1.3,17.8 1.9,17.6 2.6,17.5 3.2,17.2 3.8,17.0 4.3,16.7 4.9,16.3 5.5,16.0 6.0,15.6 6.6,15.1 7.1,14.7 7.6,14.2 8.1,13.7 8.6,13.1 9.1,12.6 9.6,12.0 10.1,11.4 10.5,10.8 11.0,10.1 11.4,9.5 11.8,8.9 12.2,8.2 12.6,7.5 13.0,6.9 13.4,6.2 13.8,5.6 14.2,4.9 14.5,4.2 14.9,3.6 15.2,2.9 15.5,2.2 15.9,1.6 16.2,0.9 16.5,0.2 16.8,-0.5 17.1,-1.1 17.4,-1.8 17.7,-2.4 18.0,-3.1 18.3,-3.7 -18.6,-4.3 -18.8,-5.0 -19.1,-5.6 -19.3,-6.2 -19.6,-6.8 -19.8,-7.4 -20.0,-8.0 -20.3,-8.6 -20.5,-9.2 -20.7,-9.7" fill="none" stroke="#111" stroke-width="2.6192863135787867" stroke-linejoin="round" stroke-linecap="round" filter="url(#fuzzy_av_1779093955009_ryd3ho1zggi)"/><circle r="3.7493588313938115" cx="-7.163270325650741" cy="-5.584304847271061" stroke="#111" fill="none" stroke-width="0.923935174319066" filter="url(#fuzzy_av_1779093955009_ryd3ho1zggi)" clip-path="url(#leftEye_av_1779093955009_ryd3ho1zggi)"/><circle r="2.5309529593162297" cx="-8.407972659816483" cy="-5.3601464863215735" stroke="#111" fill="none" stroke-width="1.1021591984535997" filter="url(#fuzzy_av_1779093955009_ryd3ho1zggi)" clip-path="url(#leftEye_av_1779093955009_ryd3ho1zggi)"/><circle r="3.3614391424992047" cx="-6.772717755614309" cy="-3.660720659752446" stroke="#111" fill="none" stroke-width="1.1327251855243874" filter="url(#fuzzy_av_1779093955009_ryd3ho1zggi)" clip-path="url(#leftEye_av_1779093955009_ryd3ho1zggi)"/><circle r="3.259253017029405" cx="-7.467855791440995" cy="-5.277769398062768" stroke="#111" fill="none" stroke-width="0.9273457188750656" filter="url(#fuzzy_av_1779093955009_ryd3ho1zggi)" clip-path="url(#leftEye_av_1779093955009_ryd3ho1zggi)"/><circle r="3.8136032525026433" cx="-7.805077573695767" cy="-4.640963556687162" stroke="#111" fill="none" stroke-width="1.1882984562103123" filter="url(#fuzzy_av_1779093955009_ryd3ho1zggi)" clip-path="url(#leftEye_av_1779093955009_ryd3ho1zggi)"/><circle r="2.590079643378261" cx="-6.673236477684551" cy="-3.547191201440664" stroke="#111" fill="none" stroke-width="1.0338099930041693" filter="url(#fuzzy_av_1779093955009_ryd3ho1zggi)" clip-path="url(#leftEye_av_1779093955009_ryd3ho1zggi)"/><circle r="3.8070728590181115" cx="-5.809264288894793" cy="-3.766623061204161" stroke="#111" fill="none" stroke-width="1.2574299327815555" filter="url(#fuzzy_av_1779093955009_ryd3ho1zggi)" clip-path="url(#leftEye_av_1779093955009_ryd3ho1zggi)"/><circle r="2.8787744661514587" cx="-6.014853897695973" cy="-4.058410072719752" stroke="#111" fill="none" stroke-width="0.9456419572022181" filter="url(#fuzzy_av_1779093955009_ryd3ho1zggi)" clip-path="url(#leftEye_av_1779093955009_ryd3ho1zggi)"/><circle r="2.438536952504841" cx="-4.286531724659283" cy="-2.2818149358085726" stroke="#111" fill="none" stroke-width="0.8683228064288032" filter="url(#fuzzy_av_1779093955009_ryd3ho1zggi)" clip-path="url(#leftEye_av_1779093955009_ryd3ho1zggi)"/><circle r="4.363653337047686" cx="-6.336185432912266" cy="-5.475651708473104" stroke="#111" fill="none" stroke-width="0.8074193282872678" filter="url(#fuzzy_av_1779093955009_ryd3ho1zggi)" clip-path="url(#leftEye_av_1779093955009_ryd3ho1zggi)"/></g><g id="rightEye" transform="translate(38.3 -27.5)"><polyline points="-23.6,-2.0 -23.6,-2.9 -23.5,-3.7 -23.4,-4.5 -23.3,-5.2 -23.1,-5.9 -22.9,-6.5 -22.7,-7.1 -22.5,-7.7 -22.2,-8.2 -21.8,-8.7 -21.5,-9.2 -21.1,-9.7 -20.6,-10.1 -20.2,-10.5 -19.7,-10.8 -19.3,-11.2 -18.8,-11.5 -18.3,-11.8 -17.7,-12.1 -17.1,-12.3 -16.4,-12.6 -15.7,-12.8 -14.9,-13.0 -14.2,-13.2 -13.3,-13.4 -12.5,-13.6 -11.6,-13.8 -10.7,-13.9 -9.7,-14.0 -8.8,-14.2 -7.8,-14.3 -6.8,-14.4 -5.8,-14.5 -4.8,-14.6 -3.7,-14.7 -2.7,-14.7 -1.7,-14.8 -0.7,-14.8 0.4,-14.9 1.4,-14.9 2.4,-15.0 3.3,-15.0 4.3,-15.0 5.3,-15.0 6.2,-15.0 7.1,-15.1 8.0,-15.1 8.9,-15.0 9.7,-15.0 10.5,-15.0 11.3,-15.0 12.1,-15.0 12.8,-15.0 13.5,-14.9 14.2,-14.9 14.8,-14.9 15.4,-14.8 16.0,-14.8 16.6,-14.7 17.1,-14.7 17.6,-14.7 18.1,-14.6 18.6,-14.6 19.0,-14.5 19.5,-14.5 19.9,-14.4 20.3,-14.4 20.6,-14.3 21.0,-14.2 21.3,-14.2 21.6,-14.1 21.9,-14.1 22.2,-14.0 22.4,-14.0 22.7,-13.9 22.9,-13.9 23.1,-13.8 23.3,-13.7 23.5,-13.7 19.8,-5.9 19.5,-5.4 19.1,-5.0 18.8,-4.5 18.4,-4.1 18.0,-3.6 17.6,-3.1 17.2,-2.7 16.8,-2.2 16.4,-1.7 16.0,-1.1 15.5,-0.6 15.1,-0.1 14.6,0.5 14.1,1.0 13.6,1.6 13.2,2.1 12.6,2.7 12.1,3.3 11.6,3.9 11.1,4.5 10.5,5.1 9.9,5.7 9.3,6.3 8.8,6.9 8.1,7.5 7.5,8.1 6.9,8.7 6.3,9.3 5.6,9.9 5.0,10.5 4.3,11.1 3.6,11.6 2.9,12.2 2.2,12.7 1.5,13.2 0.8,13.7 0.1,14.1 -0.6,14.5 -1.4,14.9 -2.1,15.3 -2.8,15.6 -3.6,15.9 -4.3,16.2 -5.0,16.4 -5.8,16.5 -6.5,16.6 -7.2,16.7 -8.0,16.7 -8.7,16.7 -9.4,16.6 -10.1,16.4 -10.8,16.2 -11.5,16.0 -12.2,15.7 -12.9,15.3 -13.5,14.8 -14.2,14.3 -14.8,13.8 -15.4,13.2 -16.0,12.5 -16.6,11.8 -17.2,11.0 -17.8,10.2 -18.3,9.3 -18.8,8.7 -19.3,8.2 -19.8,7.6 -20.3,7.0 -20.7,6.3 -21.2,5.7 -21.6,5.0 -22.0,4.4 -22.4,3.7 -22.8,3.0 -23.2,2.3 -23.6,1.6 -23.9,0.9 -24.2,0.2 -24.5,-0.4" fill="#fff" stroke="#fff" stroke-width="0" stroke-linejoin="round" filter="url(#fuzzy_av_1779093955009_ryd3ho1zggi)"/><polyline points="-21.8,9.9 -22.1,8.4 -22.4,7.0 -22.7,5.6 -22.9,4.3 -23.1,3.1 -23.3,2.0 -23.4,0.9 -23.5,-0.1 -23.6,-1.1 -23.6,-2.0 -23.6,-2.9 -23.5,-3.7 -23.4,-4.5 -23.3,-5.2 -23.1,-5.9 -22.9,-6.5 -22.7,-7.1 -22.5,-7.7 -22.2,-8.2 -21.8,-8.7 -21.5,-9.2 -21.1,-9.7 -20.6,-10.1 -20.2,-10.5 -19.7,-10.8 -19.3,-11.2 -18.8,-11.5 -18.3,-11.8 -17.7,-12.1 -17.1,-12.3 -16.4,-12.6 -15.7,-12.8 -14.9,-13.0 -14.2,-13.2 -13.3,-13.4 -12.5,-13.6 -11.6,-13.8 -10.7,-13.9 -9.7,-14.0 -8.8,-14.2 -7.8,-14.3 -6.8,-14.4 -5.8,-14.5 -4.8,-14.6 -3.7,-14.7 -2.7,-14.7 -1.7,-14.8 -0.7,-14.8 0.4,-14.9 1.4,-14.9 2.4,-15.0 3.3,-15.0 4.3,-15.0 5.3,-15.0 6.2,-15.0 7.1,-15.1 8.0,-15.1 8.9,-15.0 9.7,-15.0 10.5,-15.0 11.3,-15.0 12.1,-15.0 12.8,-15.0 13.5,-14.9 14.2,-14.9 14.8,-14.9 15.4,-14.8 16.0,-14.8 16.6,-14.7 17.1,-14.7 17.6,-14.7 18.1,-14.6 18.6,-14.6 19.0,-14.5 19.5,-14.5 19.9,-14.4 20.3,-14.4 20.6,-14.3 21.0,-14.2 21.3,-14.2 21.6,-14.1 21.9,-14.1 22.2,-14.0 22.4,-14.0 22.7,-13.9 22.9,-13.9 23.1,-13.8 23.3,-13.7 23.5,-13.7 23.7,-13.6 23.8,-13.6 24.0,-13.5 24.1,-13.5 24.3,-13.4 24.4,-13.4 24.5,-13.3 24.6,-13.3 24.7,-13.2 24.8,-13.1" fill="none" stroke="#111" stroke-width="2.445340843909947" stroke-linejoin="round" stroke-linecap="round" filter="url(#fuzzy_av_1779093955009_ryd3ho1zggi)"/><polyline points="-26.7,-5.8 -26.5,-5.4 -26.4,-5.0 -26.2,-4.6 -26.0,-4.1 -25.8,-3.6 -25.6,-3.0 -25.4,-2.4 -25.1,-1.8 -24.8,-1.1 -24.5,-0.4 -24.2,0.2 -23.9,0.9 -23.6,1.6 -23.2,2.3 -22.8,3.0 -22.4,3.7 -22.0,4.4 -21.6,5.0 -21.2,5.7 -20.7,6.3 -20.3,7.0 -19.8,7.6 -19.3,8.2 -18.8,8.7 -18.3,9.3 -17.8,10.2 -17.2,11.0 -16.6,11.8 -16.0,12.5 -15.4,13.2 -14.8,13.8 -14.2,14.3 -13.5,14.8 -12.9,15.3 -12.2,15.7 -11.5,16.0 -10.8,16.2 -10.1,16.4 -9.4,16.6 -8.7,16.7 -8.0,16.7 -7.2,16.7 -6.5,16.6 -5.8,16.5 -5.0,16.4 -4.3,16.2 -3.6,15.9 -2.8,15.6 -2.1,15.3 -1.4,14.9 -0.6,14.5 0.1,14.1 0.8,13.7 1.5,13.2 2.2,12.7 2.9,12.2 3.6,11.6 4.3,11.1 5.0,10.5 5.6,9.9 6.3,9.3 6.9,8.7 7.5,8.1 8.1,7.5 8.8,6.9 9.3,6.3 9.9,5.7 10.5,5.1 11.1,4.5 11.6,3.9 12.1,3.3 12.6,2.7 13.2,2.1 13.6,1.6 14.1,1.0 14.6,0.5 15.1,-0.1 15.5,-0.6 16.0,-1.1 16.4,-1.7 16.8,-2.2 17.2,-2.7 17.6,-3.1 18.0,-3.6 18.4,-4.1 18.8,-4.5 19.1,-5.0 19.5,-5.4 19.8,-5.9 20.2,-6.3 20.5,-6.7 20.8,-7.1 21.1,-7.5 21.4,-7.8 21.7,-8.2 22.0,-8.6 22.2,-8.9 22.5,-9.3 22.8,-9.6" fill="none" stroke="#111" stroke-width="1.9568169090973144" stroke-linejoin="round" stroke-linecap="round" filter="url(#fuzzy_av_1779093955009_ryd3ho1zggi)"/><circle r="3.542954484128816" cx="-8.519198996969486" cy="2.073036310925553" stroke="#111" fill="none" stroke-width="0.9634441118191436" filter="url(#fuzzy_av_1779093955009_ryd3ho1zggi)" clip-path="url(#rightEye_av_1779093955009_ryd3ho1zggi)"/><circle r="3.526637502308124" cx="-6.002989552121257" cy="6.070833235484544" stroke="#111" fill="none" stroke-width="0.9158104356229824" filter="url(#fuzzy_av_1779093955009_ryd3ho1zggi)" clip-path="url(#rightEye_av_1779093955009_ryd3ho1zggi)"/><circle r="2.7227375670718668" cx="-5.340406716665145" cy="3.448695138803539" stroke="#111" fill="none" stroke-width="1.296960787330818" filter="url(#fuzzy_av_1779093955009_ryd3ho1zggi)" clip-path="url(#rightEye_av_1779093955009_ryd3ho1zggi)"/><circle r="4.145683516008779" cx="-6.363256645796184" cy="4.3110851698820385" stroke="#111" fill="none" stroke-width="0.8349539794157922" filter="url(#fuzzy_av_1779093955009_ryd3ho1zggi)" clip-path="url(#rightEye_av_1779093955009_ryd3ho1zggi)"/><circle r="4.525577300770156" cx="-7.78807663473068" cy="5.347290696265084" stroke="#111" fill="none" stroke-width="1.241543258356106" filter="url(#fuzzy_av_1779093955009_ryd3ho1zggi)" clip-path="url(#rightEye_av_1779093955009_ryd3ho1zggi)"/><circle r="3.00386690126616" cx="-8.985938950237966" cy="3.6565536398989265" stroke="#111" fill="none" stroke-width="1.0062190402911564" filter="url(#fuzzy_av_1779093955009_ryd3ho1zggi)" clip-path="url(#rightEye_av_1779093955009_ryd3ho1zggi)"/><circle r="4.664924100791278" cx="-7.001361818911305" cy="2.9104250987085027" stroke="#111" fill="none" stroke-width="1.1422413319826448" filter="url(#fuzzy_av_1779093955009_ryd3ho1zggi)" clip-path="url(#rightEye_av_1779093955009_ryd3ho1zggi)"/><circle r="4.179432330074168" cx="-8.26590161712309" cy="4.488334135345137" stroke="#111" fill="none" stroke-width="1.0869610988472482" filter="url(#fuzzy_av_1779093955009_ryd3ho1zggi)" clip-path="url(#rightEye_av_1779093955009_ryd3ho1zggi)"/><circle r="4.195640871469195" cx="-6.790728227111732" cy="3.0892742828793027" stroke="#111" fill="none" stroke-width="1.0143291378340225" filter="url(#fuzzy_av_1779093955009_ryd3ho1zggi)" clip-path="url(#rightEye_av_1779093955009_ryd3ho1zggi)"/><circle r="4.686473074454791" cx="-5.667007710571628" cy="3.1172219766732496" stroke="#111" fill="none" stroke-width="0.8447645316458845" filter="url(#fuzzy_av_1779093955009_ryd3ho1zggi)" clip-path="url(#rightEye_av_1779093955009_ryd3ho1zggi)"/></g><g id="hairs"><polyline points="45.5,-55.2 45.8,-54.5 46.3,-52.5 46.5,-52.8 46.2,-51.9 45.6,-49.0 44.6,-49.8 43.3,-47.9 41.5,-47.7 39.3,-46.9 36.6,-45.5 33.5,-46.7 29.9,-45.8 25.8,-46.9 21.2,-45.6 16.0,-45.6 10.2,-47.2 3.8,-47.4 -3.2,-48.6 -10.9,-48.5 -19.1,-49.8 -27.9,-50.6 -37.0,-51.7 -47.3,-53.8" fill="none" stroke="rgb(128,128,128)" stroke-width="1.4994759187425193" stroke-linejoin="round" stroke-linecap="round" filter="url(#fuzzy_av_1779093955009_ryd3ho1zggi)" opacity="0.8645980009881626"/><polyline points="-48.9,-49.1 -48.9,-48.9 -48.0,-50.5 -46.7,-52.0 -45.2,-53.4 -43.7,-54.8 -42.0,-56.9 -40.2,-59.3 -38.3,-59.4 -36.3,-60.6 -34.5,-60.8 -32.8,-62.2 -31.3,-64.0 -30.1,-63.1 -29.3,-63.2 -28.8,-64.9 -28.8,-64.6 -29.5,-63.9 -30.7,-63.4 -32.2,-62.2" fill="none" stroke="rgb(128,128,128)" stroke-width="1.7375145607140725" stroke-linejoin="round" stroke-linecap="round" filter="url(#fuzzy_av_1779093955009_ryd3ho1zggi)" opacity="0.8805034202638125"/><polyline points="-24.1,-66.8 -23.2,-67.4 -22.3,-67.6 -21.3,-66.0 -20.5,-66.0 -20.0,-65.5 -19.8,-66.6 -19.9,-64.4 -20.4,-63.5 -21.3,-61.8 -22.4,-61.5 -23.9,-59.5 -25.7,-55.5 -27.8,-52.5 -30.3,-49.3 -33.2,-47.1 -36.5,-43.0 -40.2,-38.5 -44.6,-35.5 -49.5,-29.4 -55.1,-23.6 -61.6,-16.6" fill="none" stroke="rgb(128,128,128)" stroke-width="2.184449902058697" stroke-linejoin="round" stroke-linecap="round" filter="url(#fuzzy_av_1779093955009_ryd3ho1zggi)" opacity="0.8282636841586217"/><polyline points="-32.2,-62.9 -30.7,-62.9 -29.1,-64.0 -27.6,-64.8 -26.4,-66.1 -25.5,-65.9 -24.8,-66.1 -24.3,-66.1 -23.9,-64.3 -23.7,-63.3 -23.7,-63.1 -24.0,-62.1 -24.6,-61.4 -25.5,-60.3 -26.6,-59.0 -28.1,-56.3 -29.8,-53.8 -31.8,-51.9 -34.0,-49.5 -36.6,-47.0 -39.5,-43.1 -42.8,-39.9 -46.5,-36.0 -50.6,-30.2 -54.9,-27.2 -59.6,-22.4" fill="none" stroke="rgb(128,128,128)" stroke-width="1.4278075411915174" stroke-linejoin="round" stroke-linecap="round" filter="url(#fuzzy_av_1779093955009_ryd3ho1zggi)" opacity="0.9751896213946327"/><polyline points="40.8,-59.2 40.8,-58.2 41.8,-59.3 42.9,-57.8 43.9,-56.5 44.7,-55.5 45.3,-55.5 45.7,-53.7 45.8,-54.6 45.7,-53.0 45.3,-53.4 44.6,-52.8 43.5,-53.7 42.0,-53.1 40.1,-55.7 37.8,-55.7 35.1,-57.6 31.9,-61.2 28.2,-63.9 24.6,-65.9" fill="none" stroke="rgb(128,128,128)" stroke-width="1.9014121968759918" stroke-linejoin="round" stroke-linecap="round" filter="url(#fuzzy_av_1779093955009_ryd3ho1zggi)" opacity="0.9409142739424174"/><polyline points="-62.8,-9.5 -62.7,-9.8 -62.4,-11.6 -62.0,-11.9 -61.6,-14.3 -61.2,-15.4 -60.8,-17.9 -60.4,-18.9 -60.1,-21.3 -59.8,-21.7 -59.6,-22.5 -59.5,-23.8 -59.4,-24.0 -59.4,-23.0 -59.5,-23.6 -59.7,-22.6 -60.1,-21.0 -60.6,-17.6 -61.3,-15.1 -62.1,-13.7" fill="none" stroke="rgb(128,128,128)" stroke-width="1.6993858866823814" stroke-linejoin="round" stroke-linecap="round" filter="url(#fuzzy_av_1779093955009_ryd3ho1zggi)" opacity="0.8146065522253894"/><polyline points="-1.4,-70.3 0.1,-70.9 1.1,-69.1 1.6,-69.8 1.6,-68.5 1.2,-67.0 0.3,-63.8 -1.1,-61.7 -2.9,-58.4 -5.1,-56.4 -7.8,-51.3 -10.8,-47.5 -14.4,-43.9 -18.4,-38.2 -23.0,-31.2 -28.2,-25.8 -33.8,-19.3 -40.1,-11.5 -47.1,-3.1 -54.6,4.9 -62.7,13.7" fill="none" stroke="rgb(128,128,128)" stroke-width="1.3482789419014738" stroke-linejoin="round" stroke-linecap="round" filter="url(#fuzzy_av_1779093955009_ryd3ho1zggi)" opacity="0.9740652152528815"/><polyline points="48.6,-48.7 49.8,-46.9 50.0,-45.2 49.6,-44.1 48.8,-44.6 47.7,-42.8 46.1,-41.9 44.0,-42.8 41.4,-41.5 38.1,-41.5 34.3,-40.5 29.9,-40.7 24.9,-41.0 19.2,-42.8 12.9,-42.8 5.9,-43.3 -1.6,-44.8 -9.8,-45.5 -18.6,-46.7 -28.1,-47.0 -38.5,-47.1 -49.7,-48.0" fill="none" stroke="rgb(128,128,128)" stroke-width="1.6983322630395816" stroke-linejoin="round" stroke-linecap="round" filter="url(#fuzzy_av_1779093955009_ryd3ho1zggi)" opacity="0.8774164944860099"/><polyline points="-62.5,-9.3 -62.2,-12.1 -61.9,-14.2 -61.6,-15.4 -61.3,-17.0 -61.0,-17.6 -60.7,-17.1 -60.5,-19.3 -60.4,-17.7 -60.4,-16.7 -60.3,-16.8 -60.3,-14.3 -60.4,-14.0 -60.4,-11.6 -60.6,-7.9 -60.8,-4.1 -61.1,-1.6 -61.5,4.5 -62.1,9.9 -62.6,15.6" fill="none" stroke="rgb(128,128,128)" stroke-width="1.9126204171231578" stroke-linejoin="round" stroke-linecap="round" filter="url(#fuzzy_av_1779093955009_ryd3ho1zggi)" opacity="0.9742110903917869"/><polyline points="15.5,-69.3 17.7,-66.9 18.2,-67.0 17.6,-64.3 15.9,-62.9 13.4,-59.7 9.9,-55.2 5.6,-51.3 0.6,-46.8 -5.4,-39.7 -12.4,-33.0 -20.3,-26.8 -29.3,-17.5 -39.4,-9.9 -50.8,-0.5 -63.4,9.2" fill="none" stroke="rgb(128,128,128)" stroke-width="2.256774432951868" stroke-linejoin="round" stroke-linecap="round" filter="url(#fuzzy_av_1779093955009_ryd3ho1zggi)" opacity="0.9721012359349649"/><polyline points="-15.7,-68.0 -13.5,-69.3 -12.5,-68.6 -12.4,-67.8 -12.6,-66.1 -13.1,-65.1 -13.9,-63.7 -15.2,-61.6 -17.0,-58.1 -19.5,-53.9 -22.6,-50.0 -26.4,-45.2 -30.8,-39.2 -35.9,-33.1 -41.7,-25.9 -48.2,-18.8 -55.4,-11.2 -63.5,-3.2" fill="none" stroke="rgb(128,128,128)" stroke-width="1.930072204681088" stroke-linejoin="round" stroke-linecap="round" filter="url(#fuzzy_av_1779093955009_ryd3ho1zggi)" opacity="0.8395851929753648"/><polyline points="-51.8,-44.3 -50.9,-44.9 -49.1,-45.0 -46.6,-47.5 -43.5,-49.2 -39.9,-50.0 -35.6,-52.5 -30.8,-54.6 -25.4,-55.6 -19.7,-59.0 -13.6,-59.7 -7.2,-61.4 -0.3,-63.2 6.9,-64.3 14.5,-65.9 21.9,-65.9" fill="none" stroke="rgb(128,128,128)" stroke-width="2.3938421296373322" stroke-linejoin="round" stroke-linecap="round" filter="url(#fuzzy_av_1779093955009_ryd3ho1zggi)" opacity="0.8219696483340423"/><polyline points="-44.8,-56.9 -44.9,-57.3 -43.5,-56.5 -41.4,-59.0 -39.1,-59.2 -36.5,-59.8 -34.0,-60.8 -31.5,-62.5 -29.2,-63.1 -27.0,-65.1 -24.9,-64.4 -22.9,-64.9 -21.1,-67.2 -19.4,-67.8 -18.0,-67.5 -17.0,-67.4 -16.2,-67.6 -15.9,-69.4" fill="none" stroke="rgb(128,128,128)" stroke-width="0.9829841921955176" stroke-linejoin="round" stroke-linecap="round" filter="url(#fuzzy_av_1779093955009_ryd3ho1zggi)" opacity="0.8249880852716815"/><polyline points="-62.8,-8.6 -62.4,-9.6 -61.6,-12.3 -60.7,-13.7 -59.4,-16.9 -58.0,-19.1 -56.3,-20.6 -54.4,-24.0 -52.4,-25.6 -50.3,-27.8 -48.0,-30.0 -45.6,-32.6 -43.0,-36.7 -40.2,-39.3 -37.4,-41.8 -34.4,-43.5 -31.4,-47.3 -28.4,-50.4 -25.5,-53.2 -22.5,-55.9 -19.6,-58.8 -16.7,-61.1 -13.9,-63.6 -11.2,-65.1 -8.6,-68.8 -6.2,-70.9" fill="none" stroke="rgb(128,128,128)" stroke-width="2.5503512609508245" stroke-linejoin="round" stroke-linecap="round" filter="url(#fuzzy_av_1779093955009_ryd3ho1zggi)" opacity="0.9446113350144539"/><polyline points="-41.4,-59.2 -40.9,-59.4 -39.6,-60.3 -38.3,-59.3 -37.2,-61.1 -36.4,-59.9 -35.7,-60.2 -35.2,-60.3 -34.9,-58.9 -34.7,-58.9 -34.6,-56.6 -34.8,-56.3 -35.2,-54.7 -35.9,-52.3 -37.0,-51.1 -38.4,-48.2 -40.0,-45.0 -42.1,-42.3 -44.4,-36.6 -47.2,-33.4 -50.4,-29.3 -54.1,-23.2 -58.1,-17.5 -62.5,-10.4" fill="none" stroke="rgb(128,128,128)" stroke-width="2.08941395749999" stroke-linejoin="round" stroke-linecap="round" filter="url(#fuzzy_av_1779093955009_ryd3ho1zggi)" opacity="0.8336337059155591"/><polyline points="8.2,-69.2 8.3,-70.2 8.7,-69.9 9.6,-70.3 10.6,-68.8 11.5,-69.6 12.0,-69.5 12.2,-69.2 12.0,-68.6 11.4,-67.9 10.4,-68.6 8.7,-68.9 6.3,-67.9 3.0,-68.9 -1.2,-68.4 -6.1,-70.1 -11.2,-69.6" fill="none" stroke="rgb(128,128,128)" stroke-width="1.1847636637046437" stroke-linejoin="round" stroke-linecap="round" filter="url(#fuzzy_av_1779093955009_ryd3ho1zggi)" opacity="0.767449134427679"/><polyline points="-22.3,-67.2 -20.8,-67.0 -19.6,-67.0 -18.7,-68.2 -18.3,-67.2 -18.5,-67.9 -19.2,-66.9 -20.4,-66.0 -22.0,-65.8 -24.2,-63.7 -27.0,-61.6 -30.3,-59.1 -34.2,-56.8 -38.6,-53.0 -44.0,-50.7 -50.9,-44.9" fill="none" stroke="rgb(128,128,128)" stroke-width="1.6434915862942028" stroke-linejoin="round" stroke-linecap="round" filter="url(#fuzzy_av_1779093955009_ryd3ho1zggi)" opacity="0.93534420689381"/><polyline points="-1.8,-69.5 -0.9,-71.0 0.5,-70.9 2.0,-70.8 3.5,-69.7 4.9,-70.0 6.2,-70.5 7.3,-70.7 8.2,-70.5 9.0,-70.7 9.6,-69.2 10.2,-70.4 10.5,-70.2 10.6,-70.3 10.4,-69.9 9.8,-69.2 8.9,-68.6 7.4,-68.5 5.5,-68.7 3.1,-69.1 0.1,-70.1 -3.5,-70.8" fill="none" stroke="rgb(128,128,128)" stroke-width="2.404799047534958" stroke-linejoin="round" stroke-linecap="round" filter="url(#fuzzy_av_1779093955009_ryd3ho1zggi)" opacity="0.9409684512381972"/><polyline points="-54.8,-35.8 -54.7,-36.6 -54.0,-37.0 -52.8,-38.1 -51.4,-41.8 -49.7,-42.2 -47.9,-43.9 -45.9,-45.5 -43.8,-47.8 -41.7,-50.7 -39.4,-53.3 -37.2,-54.8 -34.9,-55.5 -32.6,-58.1 -30.3,-60.1 -28.1,-62.1 -25.9,-63.0 -23.8,-63.7 -21.7,-64.5 -19.7,-66.3 -18.0,-67.8 -16.5,-69.0 -14.2,-68.7" fill="none" stroke="rgb(128,128,128)" stroke-width="2.002101471825145" stroke-linejoin="round" stroke-linecap="round" filter="url(#fuzzy_av_1779093955009_ryd3ho1zggi)" opacity="0.9302981286489822"/><polyline points="-62.8,-8.7 -62.4,-11.0 -61.5,-13.3 -60.5,-14.9 -59.1,-17.2 -57.4,-19.8 -55.6,-24.0 -53.5,-28.0 -51.3,-30.6 -49.1,-33.6 -46.8,-36.6 -44.4,-41.0 -42.0,-44.3 -39.5,-47.5 -37.0,-50.5 -34.4,-55.6 -32.1,-57.7 -30.2,-61.4 -29.2,-64.7" fill="none" stroke="rgb(128,128,128)" stroke-width="1.5022833483556135" stroke-linejoin="round" stroke-linecap="round" filter="url(#fuzzy_av_1779093955009_ryd3ho1zggi)" opacity="0.781529364633629"/><polyline points="-54.8,-36.7 -54.9,-36.2 -54.4,-37.0 -53.8,-38.2 -53.1,-39.8 -52.4,-41.4 -51.8,-42.8 -51.2,-44.4 -50.8,-44.6 -50.5,-45.7 -50.5,-46.4 -50.6,-44.9 -51.0,-44.9 -51.6,-42.8 -52.4,-41.7 -53.7,-39.3 -55.2,-34.9" fill="none" stroke="rgb(128,128,128)" stroke-width="2.3379139856534628" stroke-linejoin="round" stroke-linecap="round" filter="url(#fuzzy_av_1779093955009_ryd3ho1zggi)" opacity="0.9012974337226738"/><polyline points="21.9,-66.4 22.4,-66.7 21.9,-66.7 21.0,-65.4 19.6,-63.2 17.6,-59.6 14.9,-57.2 11.3,-54.0 6.9,-50.6 1.7,-46.1 -4.6,-39.8 -11.8,-34.5 -20.0,-27.5 -29.3,-21.4 -39.6,-13.8 -51.0,-7.7 -63.5,1.8" fill="none" stroke="rgb(128,128,128)" stroke-width="1.5870017544826784" stroke-linejoin="round" stroke-linecap="round" filter="url(#fuzzy_av_1779093955009_ryd3ho1zggi)" opacity="0.7927659144673294"/><polyline points="34.4,-61.2 35.1,-62.3 36.0,-61.6 36.7,-59.7 36.9,-60.0 36.7,-60.2 36.1,-59.7 35.0,-58.7 33.3,-57.9 31.2,-55.7 28.6,-55.3 25.5,-54.7 21.8,-53.6 17.7,-51.8 13.0,-50.6 7.9,-48.5 2.2,-47.3 -4.0,-47.5 -10.8,-45.7 -18.1,-44.8 -26.0,-43.7 -34.6,-41.7 -43.5,-40.8 -52.1,-41.6" fill="none" stroke="rgb(128,128,128)" stroke-width="0.847502823195115" stroke-linejoin="round" stroke-linecap="round" filter="url(#fuzzy_av_1779093955009_ryd3ho1zggi)" opacity="0.9906295394628444"/><polyline points="-60.3,-20.0 -59.8,-21.9 -59.3,-22.4 -58.7,-24.8 -57.9,-27.0 -56.9,-27.5 -55.8,-29.2 -54.6,-31.5 -53.3,-33.3 -52.0,-36.6 -50.6,-38.2 -49.3,-39.5 -48.0,-43.4 -46.7,-44.9 -45.4,-46.7 -44.3,-49.4 -43.2,-50.5 -42.3,-52.3 -41.4,-54.4 -40.7,-55.8 -40.0,-55.5 -39.6,-57.6 -39.4,-59.3 -39.6,-59.6 -40.3,-58.9 -41.8,-58.6" fill="none" stroke="rgb(128,128,128)" stroke-width="1.6362792775401243" stroke-linejoin="round" stroke-linecap="round" filter="url(#fuzzy_av_1779093955009_ryd3ho1zggi)" opacity="0.9950961859644167"/><polyline points="-26.2,-65.3 -25.1,-65.4 -24.0,-66.9 -22.9,-67.4 -21.7,-66.2 -20.3,-66.8 -19.0,-67.6 -17.8,-68.5 -16.7,-68.3 -15.8,-67.7 -15.1,-69.0 -14.6,-67.8 -14.3,-68.7 -14.2,-69.4 -14.3,-67.8 -14.6,-67.6 -15.2,-67.1 -16.0,-66.9 -17.3,-67.4 -19.0,-67.0 -21.0,-64.9 -23.4,-64.5 -26.2,-64.6 -29.5,-62.4 -33.0,-62.7 -37.3,-60.3" fill="none" stroke="rgb(128,128,128)" stroke-width="0.93169208884978" stroke-linejoin="round" stroke-linecap="round" filter="url(#fuzzy_av_1779093955009_ryd3ho1zggi)" opacity="0.8179397982898025"/><polyline points="-6.2,-70.6 -5.0,-70.3 -4.0,-70.3 -3.3,-69.2 -2.8,-69.4 -2.6,-68.8 -2.7,-66.8 -3.1,-67.1 -3.9,-64.6 -5.1,-64.4 -6.7,-61.0 -8.8,-60.7 -11.3,-57.4 -14.2,-54.7 -17.4,-51.5 -21.1,-48.5 -25.2,-45.5 -29.9,-41.2 -35.0,-36.4 -40.7,-33.4 -47.0,-27.7 -54.0,-22.1 -61.4,-17.1" fill="none" stroke="rgb(128,128,128)" stroke-width="1.6673469270773582" stroke-linejoin="round" stroke-linecap="round" filter="url(#fuzzy_av_1779093955009_ryd3ho1zggi)" opacity="0.767579658486607"/><polyline points="-57.1,-31.1 -55.5,-34.3 -54.3,-35.9 -52.8,-38.3 -50.9,-39.8 -48.7,-42.4 -46.2,-43.5 -43.5,-46.3 -40.5,-49.2 -37.4,-50.0 -34.0,-52.2 -30.5,-55.4 -27.0,-57.3 -23.3,-59.9 -19.6,-62.4 -15.9,-64.0 -12.4,-66.2 -8.9,-66.6 -5.5,-67.8 -1.8,-70.5" fill="none" stroke="rgb(128,128,128)" stroke-width="1.9075059089049993" stroke-linejoin="round" stroke-linecap="round" filter="url(#fuzzy_av_1779093955009_ryd3ho1zggi)" opacity="0.8075003328341939"/><polyline points="-51.3,-43.7 -50.7,-45.1 -50.1,-47.3 -49.7,-46.6 -49.4,-47.1 -49.1,-48.7 -48.9,-47.6 -48.7,-47.2 -48.5,-47.4 -48.5,-45.0 -48.5,-43.8 -48.6,-39.7 -48.8,-37.5 -49.1,-33.7 -49.7,-28.6 -50.6,-25.0 -51.8,-18.5 -53.3,-12.5 -55.1,-7.4 -57.3,1.1 -59.6,9.4 -61.9,17.6" fill="none" stroke="rgb(128,128,128)" stroke-width="1.453950433381164" stroke-linejoin="round" stroke-linecap="round" filter="url(#fuzzy_av_1779093955009_ryd3ho1zggi)" opacity="0.9339235926710862"/><polyline points="40.8,-59.4 40.7,-59.4 41.1,-57.6 41.3,-57.8 41.0,-56.9 40.2,-54.8 39.0,-53.3 37.2,-50.9 35.0,-50.8 32.2,-47.7 29.0,-46.1 25.2,-44.4 21.0,-42.6 16.2,-39.0 10.8,-38.4 5.0,-35.6 -1.3,-33.7 -8.2,-30.3 -15.6,-29.3 -23.6,-26.3 -32.2,-23.2 -41.4,-22.2 -51.2,-17.7 -61.4,-15.8" fill="none" stroke="rgb(128,128,128)" stroke-width="1.125420838973302" stroke-linejoin="round" stroke-linecap="round" filter="url(#fuzzy_av_1779093955009_ryd3ho1zggi)" opacity="0.837732444216647"/><polyline points="-6.2,-70.5 -4.9,-69.6 -3.7,-69.7 -2.7,-70.8 -1.8,-70.3 -1.0,-70.8 -0.4,-70.4 -0.1,-69.3 -0.0,-69.6 -0.3,-69.9 -0.9,-69.4 -1.9,-68.0 -3.2,-66.8 -4.9,-67.0 -7.0,-66.7 -9.5,-65.0 -12.5,-65.2 -16.0,-63.3 -20.1,-61.5 -24.6,-60.0 -29.5,-59.4 -34.8,-57.1 -40.6,-54.6 -46.4,-52.5" fill="none" stroke="rgb(128,128,128)" stroke-width="1.8600241759222034" stroke-linejoin="round" stroke-linecap="round" filter="url(#fuzzy_av_1779093955009_ryd3ho1zggi)" opacity="0.9760459497859042"/><polyline points="37.0,-62.0 39.0,-59.4 39.3,-58.4 38.9,-58.6 37.7,-56.5 35.7,-56.0 32.8,-55.1 29.1,-53.6 24.6,-51.0 19.2,-50.0 12.9,-46.8 5.7,-45.4 -2.4,-42.3 -11.4,-40.5 -21.4,-38.3 -32.3,-35.7 -44.1,-33.9 -56.6,-31.5" fill="none" stroke="rgb(128,128,128)" stroke-width="1.5183927507314" stroke-linejoin="round" stroke-linecap="round" filter="url(#fuzzy_av_1779093955009_ryd3ho1zggi)" opacity="0.7833773267776281"/><polyline points="-55.0,-37.2 -53.9,-38.7 -52.7,-39.6 -51.4,-41.2 -49.9,-43.7 -48.2,-46.0 -46.2,-48.6 -44.2,-50.6 -42.2,-51.1 -40.0,-53.2 -37.8,-54.8 -35.5,-56.5 -33.2,-59.2 -30.8,-61.9 -28.6,-62.4 -26.3,-63.4 -24.3,-64.3 -22.5,-66.0 -21.3,-67.6 -20.2,-67.8" fill="none" stroke="rgb(128,128,128)" stroke-width="2.40850136571055" stroke-linejoin="round" stroke-linecap="round" filter="url(#fuzzy_av_1779093955009_ryd3ho1zggi)" opacity="0.9648175421383771"/><polyline points="-34.0,-62.5 -32.7,-62.8 -31.8,-62.0 -30.9,-62.6 -29.9,-62.6 -29.1,-63.2 -28.5,-60.9 -28.2,-61.6 -28.2,-59.3 -28.4,-56.4 -28.9,-54.4 -29.6,-53.6 -30.6,-49.5 -31.9,-45.8 -33.5,-42.2 -35.5,-38.8 -37.8,-34.0 -40.4,-28.7 -43.3,-23.7 -46.6,-16.9 -50.2,-10.6 -54.1,-3.2 -58.4,3.8 -63.0,12.6" fill="none" stroke="rgb(128,128,128)" stroke-width="1.865943012495846" stroke-linejoin="round" stroke-linecap="round" filter="url(#fuzzy_av_1779093955009_ryd3ho1zggi)" opacity="0.875345428204136"/><polyline points="19.3,-67.7 19.9,-67.6 21.0,-66.7 21.9,-67.7 22.4,-66.0 22.9,-65.9 23.2,-66.8 23.4,-65.1 23.3,-65.5 23.0,-64.9 22.3,-65.5 21.2,-66.4 19.6,-64.6 17.5,-65.6 14.7,-66.6 11.4,-65.2 7.5,-66.9 3.2,-66.4 -1.9,-67.8 -8.0,-67.7 -15.7,-68.0" fill="none" stroke="rgb(128,128,128)" stroke-width="1.5866430366896693" stroke-linejoin="round" stroke-linecap="round" filter="url(#fuzzy_av_1779093955009_ryd3ho1zggi)" opacity="0.8877895098521351"/><polyline points="7.9,-70.2 9.3,-70.6 10.6,-69.2 11.5,-69.4 11.9,-67.9 12.0,-66.7 11.8,-66.1 11.2,-66.1 10.4,-64.5 9.1,-62.5 7.3,-61.9 5.0,-59.7 2.3,-57.2 -0.9,-55.0 -4.5,-54.4 -8.5,-50.2 -13.0,-47.9 -18.0,-45.4 -23.5,-42.0 -29.7,-36.8 -36.4,-34.2 -43.6,-30.8 -51.3,-26.6 -59.6,-23.2" fill="none" stroke="rgb(128,128,128)" stroke-width="2.459308690325214" stroke-linejoin="round" stroke-linecap="round" filter="url(#fuzzy_av_1779093955009_ryd3ho1zggi)" opacity="0.7558173942322948"/><polyline points="48.6,-50.4 49.9,-46.8 50.2,-45.6 50.1,-45.3 49.7,-44.7 49.0,-44.2 48.0,-44.1 46.6,-42.3 44.6,-42.6 42.2,-43.5 39.3,-44.8 35.9,-44.5 32.1,-45.7 27.7,-48.1 22.8,-48.4 17.3,-51.8 11.2,-53.0 4.5,-57.5 -3.0,-59.9 -11.4,-63.3 -20.2,-67.1" fill="none" stroke="rgb(128,128,128)" stroke-width="1.4997865888986839" stroke-linejoin="round" stroke-linecap="round" filter="url(#fuzzy_av_1779093955009_ryd3ho1zggi)" opacity="0.7729637383692647"/><polyline points="-57.1,-32.2 -55.6,-33.8 -54.8,-36.8 -54.0,-37.2 -53.0,-38.6 -51.9,-40.5 -50.8,-43.1 -49.7,-43.8 -48.5,-46.5 -47.4,-47.2 -46.3,-49.7 -45.3,-51.0 -44.4,-53.3 -43.6,-53.9 -42.8,-55.6 -42.2,-56.5 -41.8,-58.0 -41.6,-57.7 -41.6,-57.7 -41.9,-57.6 -42.6,-57.2 -43.5,-58.2 -44.5,-57.6 -44.8,-57.0" fill="none" stroke="rgb(128,128,128)" stroke-width="1.8866766134442312" stroke-linejoin="round" stroke-linecap="round" filter="url(#fuzzy_av_1779093955009_ryd3ho1zggi)" opacity="0.890846129034345"/><polyline points="-55.2,-36.1 -54.7,-37.3 -54.0,-39.4 -53.3,-39.3 -52.7,-42.0 -52.1,-43.0 -51.5,-43.7 -51.0,-45.2 -50.6,-45.3 -50.4,-46.6 -50.2,-47.3 -50.2,-45.8 -50.2,-46.2 -50.4,-46.7 -50.7,-45.4 -51.2,-43.2 -51.9,-40.9 -52.8,-38.8 -54.0,-35.1 -55.5,-32.1 -57.4,-27.1 -59.5,-23.2" fill="none" stroke="rgb(128,128,128)" stroke-width="2.379875895153501" stroke-linejoin="round" stroke-linecap="round" filter="url(#fuzzy_av_1779093955009_ryd3ho1zggi)" opacity="0.8929555482002267"/><polyline points="-50.9,-45.6 -49.9,-46.0 -49.5,-48.6 -49.2,-47.9 -49.0,-48.2 -48.7,-49.4 -48.7,-48.4 -48.8,-48.1 -49.2,-47.2 -49.7,-44.3 -50.5,-42.4 -51.5,-39.4 -53.0,-34.5 -55.0,-29.6 -57.7,-24.5 -61.6,-15.9" fill="none" stroke="rgb(128,128,128)" stroke-width="1.8982490255025741" stroke-linejoin="round" stroke-linecap="round" filter="url(#fuzzy_av_1779093955009_ryd3ho1zggi)" opacity="0.8093303451433821"/><polyline points="-36.2,-62.0 -34.1,-61.4 -32.2,-63.6 -30.1,-64.0 -27.7,-63.4 -25.0,-63.3 -21.9,-64.4 -18.8,-65.6 -15.6,-65.1 -12.4,-65.3 -9.1,-65.3 -5.8,-66.0 -2.4,-66.9 0.9,-66.2 4.0,-66.6 7.0,-66.9 9.9,-66.4 12.6,-67.0 15.1,-66.4 17.5,-67.7 20.0,-66.3 23.6,-66.0" fill="none" stroke="rgb(128,128,128)" stroke-width="1.511092900804223" stroke-linejoin="round" stroke-linecap="round" filter="url(#fuzzy_av_1779093955009_ryd3ho1zggi)" opacity="0.797247177805852"/></g><circle r="2.4194099741397173" cx="-10.303427313453037" cy="14.11843816805083" stroke="#111" fill="none" stroke-width="1.2447335536831234" filter="url(#fuzzy_av_1779093955009_ryd3ho1zggi)"/><circle r="1.2091598884444126" cx="-11.746656702888362" cy="14.612855792876124" stroke="#111" fill="none" stroke-width="0.8039506986874685" filter="url(#fuzzy_av_1779093955009_ryd3ho1zggi)"/><circle r="1.0814541503018038" cx="-8.611898910977043" cy="15.023684193533011" stroke="#111" fill="none" stroke-width="1.1114375248762018" filter="url(#fuzzy_av_1779093955009_ryd3ho1zggi)"/><circle r="0.9776240079428604" cx="-9.673436823346623" cy="13.629587769525957" stroke="#111" fill="none" stroke-width="0.8209819021355625" filter="url(#fuzzy_av_1779093955009_ryd3ho1zggi)"/><circle r="2.404456435857953" cx="-11.15289032443504" cy="15.69048144450982" stroke="#111" fill="none" stroke-width="1.2930573272141983" filter="url(#fuzzy_av_1779093955009_ryd3ho1zggi)"/><circle r="1.4056251486123923" cx="-9.061520979537109" cy="12.787680416626664" stroke="#111" fill="none" stroke-width="1.1764842894701593" filter="url(#fuzzy_av_1779093955009_ryd3ho1zggi)"/><circle r="1.4389053192551877" cx="-10.684314805909464" cy="15.434500661570185" stroke="#111" fill="none" stroke-width="1.1783600004859058" filter="url(#fuzzy_av_1779093955009_ryd3ho1zggi)"/><circle r="2.0433576581888246" cx="-8.653947079222618" cy="14.00452680117135" stroke="#111" fill="none" stroke-width="1.1870397971042208" filter="url(#fuzzy_av_1779093955009_ryd3ho1zggi)"/><circle r="2.377642374210645" cx="-9.691319910127335" cy="15.40225907971138" stroke="#111" fill="none" stroke-width="1.065154237702474" filter="url(#fuzzy_av_1779093955009_ryd3ho1zggi)"/><circle r="1.4074708709539023" cx="-11.491433496654086" cy="14.381083524139349" stroke="#111" fill="none" stroke-width="0.85308084162297" filter="url(#fuzzy_av_1779093955009_ryd3ho1zggi)"/><circle r="1.5516527643993738" cx="8.561439763223278" cy="8.227543104716995" stroke="#111" fill="none" stroke-width="0.9639389858401828" filter="url(#fuzzy_av_1779093955009_ryd3ho1zggi)"/><circle r="1.0662167311106758" cx="11.658518778839621" cy="6.832175177582254" stroke="#111" fill="none" stroke-width="1.0401479276202967" filter="url(#fuzzy_av_1779093955009_ryd3ho1zggi)"/><circle r="1.6986792983195136" cx="9.082239520945766" cy="8.404355693093024" stroke="#111" fill="none" stroke-width="1.2450053240207695" filter="url(#fuzzy_av_1779093955009_ryd3ho1zggi)"/><circle r="1.8078892945524703" cx="11.511076254860505" cy="8.51565782294391" stroke="#111" fill="none" stroke-width="1.1362708025948562" filter="url(#fuzzy_av_1779093955009_ryd3ho1zggi)"/><circle r="1.6357446844560855" cx="9.961219520482748" cy="8.81471209245941" stroke="#111" fill="none" stroke-width="1.1753513957462662" filter="url(#fuzzy_av_1779093955009_ryd3ho1zggi)"/><circle r="2.01839602627476" cx="9.74010941327008" cy="8.417151919310898" stroke="#111" fill="none" stroke-width="0.9512178503742976" filter="url(#fuzzy_av_1779093955009_ryd3ho1zggi)"/><circle r="2.27840322825609" cx="10.243272228298968" cy="7.326296464389223" stroke="#111" fill="none" stroke-width="1.0533481338593935" filter="url(#fuzzy_av_1779093955009_ryd3ho1zggi)"/><circle r="0.9646294114785724" cx="9.120009271167945" cy="8.982201275115768" stroke="#111" fill="none" stroke-width="0.8244129275126989" filter="url(#fuzzy_av_1779093955009_ryd3ho1zggi)"/><circle r="2.2445448963701833" cx="11.394829088545176" cy="7.466363297170126" stroke="#111" fill="none" stroke-width="1.277030414964112" filter="url(#fuzzy_av_1779093955009_ryd3ho1zggi)"/><circle r="1.9570513349681142" cx="9.449218624897068" cy="8.994819377107389" stroke="#111" fill="none" stroke-width="0.9089784896552868" filter="url(#fuzzy_av_1779093955009_ryd3ho1zggi)"/><polyline points="35.9,38.2 35.9,38.5 35.9,39.1 35.9,38.5 35.9,39.2 35.4,40.1 35.7,39.7 35.3,40.7 35.2,40.7 35.3,40.8 34.9,41.2 34.9,41.1 34.7,41.5 34.4,42.2 33.5,43.0 33.6,42.9 33.4,43.1 33.1,43.5 33.1,43.5 31.6,44.6 32.4,44.0 31.0,45.1 30.4,45.4 31.0,45.1 29.2,46.2 30.1,45.7 28.8,46.4 29.3,46.2 27.7,46.9 27.2,47.1 25.7,47.8 26.9,47.3 25.3,48.0 25.3,48.0 24.8,48.1 22.1,49.0 22.8,48.8 21.6,49.1 20.9,49.3 21.9,49.1 19.8,49.6 19.5,49.7 17.2,50.1 17.8,50.1 17.9,50.0 15.6,50.4 14.7,50.6 14.1,50.6 14.4,50.6 12.6,50.8 11.3,50.9 11.4,50.9 12.0,50.8 10.6,50.9 10.3,51.0 9.0,51.0 7.3,51.0 8.4,51.0 5.9,51.0 5.3,51.0 4.9,51.0 4.3,51.0 2.7,50.8 1.7,50.7 3.5,50.9 1.1,50.6 0.2,50.5 -0.0,50.5 0.4,50.6 -1.6,50.2 -1.3,50.2 -2.7,49.9 -3.8,49.7 -3.7,49.7 -4.1,49.6 -4.2,49.5 -4.5,49.4 -5.6,49.1 -6.9,48.5 -7.5,48.3 -7.0,48.5 -8.0,48.1 -8.6,47.7 -9.4,47.2 -9.5,47.0 -10.2,46.6 -9.3,47.2 -10.6,46.1 -11.0,45.9 -10.8,46.1 -10.7,46.1 -11.4,45.5 -11.4,45.5 -11.9,44.8 -12.4,43.9 -12.2,44.5 -12.2,44.1 -12.5,43.7 -12.7,42.9 -12.8,42.8 -12.6,42.8 -12.8,42.7 -12.8,41.6 -12.9,41.9 -12.6,40.9 -12.7,40.8 -12.7,40.8 -12.5,40.3 -12.4,40.1 -12.3,39.8 -11.9,38.9 -12.0,39.0 -11.8,39.0 -10.9,37.6 -10.8,37.7 -10.3,37.1 -9.9,36.7 -10.1,36.8 -10.1,36.8 -9.9,36.6 -8.7,35.7 -8.2,35.4 -7.2,34.7 -7.8,35.0 -6.2,34.2 -7.2,34.7 -5.2,33.6 -4.7,33.4 -4.7,33.4 -3.6,32.9 -4.0,33.1 -3.7,32.9 -1.5,32.1 -1.4,32.0 -1.0,31.9 -0.7,31.8 0.2,31.5 -0.2,31.7 1.6,31.1 3.5,30.7 2.7,30.9 2.9,30.8 5.3,30.3 6.3,30.1 4.8,30.4 5.4,30.3 7.8,29.9 9.2,29.7 9.2,29.7 10.3,29.6 11.9,29.4 12.3,29.4 11.6,29.4 11.8,29.4 14.2,29.3 15.6,29.3 15.6,29.3 15.3,29.3 16.8,29.3 16.2,29.3 19.2,29.4 18.2,29.4 18.8,29.4 20.1,29.5 21.9,29.7 22.6,29.8 21.7,29.6 21.8,29.7 22.6,29.8 24.6,30.1 24.5,30.1 25.6,30.4 27.1,30.8 27.6,30.9 26.5,30.6 28.3,31.1 29.3,31.5 28.7,31.3 30.5,31.9 30.7,32.0 31.2,32.4 31.3,32.4 32.2,32.9 32.5,33.1 32.0,32.7 32.6,33.2 33.2,33.5 33.5,33.8 33.4,33.8 34.5,34.8 34.1,34.3 34.8,35.2 34.6,35.1 34.8,35.3 35.4,36.0 35.3,36.0 35.5,36.6 35.7,37.3 35.7,37.1 35.9,37.5" fill="rgb(215,127,140)" stroke="#111" stroke-width="2.7357505247391165" stroke-linejoin="round" filter="url(#fuzzy_av_1779093955009_ryd3ho1zggi)"/></g><g class="accessory-svg accessory-question" transform="translate(76.7 -3.2) rotate(-9.6) scale(0.808)">
      <circle cx="0" cy="0" r="11" fill="#f8fafc" stroke="#111827" stroke-width="1.1"/><path d="M-4-5c1-5 10-4 9 2-.5 4-5 4-5 8" fill="none" stroke="#6B7280" stroke-width="2.2" stroke-linecap="round"/><circle cx="0" cy="9" r="1.5" fill="#6B7280"/>
    </g><g class="accessory-svg accessory-atom" transform="translate(11.4 75.1) rotate(6.6) scale(1.278)">
      <circle cx="0" cy="0" r="2.3" fill="#6B7280"/><ellipse cx="0" cy="0" rx="11" ry="4" fill="none" stroke="#111827" stroke-width="1"/><ellipse cx="0" cy="0" rx="11" ry="4" fill="none" stroke="#111827" stroke-width="1" transform="rotate(60)"/><ellipse cx="0" cy="0" rx="11" ry="4" fill="none" stroke="#111827" stroke-width="1" transform="rotate(-60)"/>
    </g><g class="accessory-svg accessory-box" transform="translate(-68.9 -34.8) rotate(-9.0) scale(1.195)">
      <rect x="-11" y="-5" width="22" height="15" rx="2" fill="#c08457" stroke="#111827" stroke-width="1.1"/><path d="M-5-5v-4h10v4M-11 0h22M0-5v15" fill="none" stroke="#111827" stroke-width="1"/><rect x="-2" y="1" width="4" height="3" fill="#fbbf24"/>
    </g><g class="accessory-svg accessory-mist" transform="translate(21.9 -72.6) rotate(7.2) scale(1.087)">
      <path d="M-10 5c-3-5 2-9 6-6 2-7 12-5 12 2 5 0 6 8 0 9h-15c-2 0-3-1-3-5z" fill="#f8fafc" stroke="#111827" stroke-width="1.1"/><path d="M-7 13h14" stroke="#6B7280" stroke-width="1.3" stroke-linecap="round" opacity=".65"/>
    </g></svg>