<svg xmlns="http://www.w3.org/2000/svg" viewBox="-100 -100 200 200" width="400" height="400" role="img" aria-label="居委会大妈 avatar"><defs>
      <filter id="fuzzy_av_1779093955003_s1dla7wyhcc" x="-8%" y="-8%" width="116%" height="116%">
        <feTurbulence baseFrequency="0.045" numOctaves="3" type="fractalNoise" result="noise"/>
        <feDisplacementMap in="SourceGraphic" in2="noise" scale="1.6"/>
      </filter>
      <clipPath id="leftEye_av_1779093955003_s1dla7wyhcc"><polyline points="-17.2,2.9 -17.1,2.9 -16.9,2.9 -16.7,2.9 -16.5,2.9 -16.3,2.9 -16.0,2.8 -15.7,2.8 -15.4,2.7 -15.1,2.6 -14.8,2.5 -14.4,2.5 -14.1,2.4 -13.7,2.3 -13.3,2.1 -12.8,2.0 -12.4,1.9 -11.9,1.8 -11.4,1.7 -10.9,1.5 -10.3,1.4 -9.8,1.2 -9.2,1.1 -8.7,0.9 -8.1,0.7 -7.5,0.5 -6.9,0.3 -6.3,0.2 -5.7,-0.0 -5.1,-0.2 -4.5,-0.4 -3.9,-0.6 -3.3,-0.8 -2.7,-0.9 -2.1,-1.1 -1.5,-1.2 -0.9,-1.4 -0.3,-1.5 0.3,-1.7 0.9,-1.8 1.5,-1.9 2.0,-2.0 2.6,-2.1 3.1,-2.2 3.6,-2.2 4.1,-2.3 4.6,-2.3 5.1,-2.3 5.6,-2.3 6.0,-2.3 6.5,-2.3 6.9,-2.3 7.3,-2.3 7.7,-2.2 8.1,-2.1 8.4,-2.1 8.8,-2.0 9.1,-1.9 9.4,-1.8 9.7,-1.7 10.0,-1.6 10.3,-1.4 10.5,-1.3 10.8,-1.2 11.0,-1.0 11.2,-0.9 11.4,-0.7 11.6,-0.6 11.7,-0.4 11.9,-0.3 12.1,-0.1 12.2,0.1 12.3,0.3 12.4,0.4 12.5,0.6 12.6,0.8 12.7,1.0 12.7,1.1 12.8,1.3 12.8,1.5 11.9,2.4 11.6,2.5 11.4,2.6 11.2,2.7 10.9,2.8 10.7,2.9 10.4,3.0 10.2,3.1 9.9,3.1 9.6,3.2 9.3,3.2 9.0,3.3 8.7,3.3 8.4,3.3 8.1,3.4 7.8,3.4 7.5,3.4 7.2,3.4 6.8,3.4 6.5,3.4 6.1,3.3 5.8,3.3 5.4,3.3 5.0,3.2 4.7,3.2 4.3,3.1 3.9,3.1 3.5,3.0 3.1,2.9 2.7,2.9 2.3,2.8 1.9,2.7 1.5,2.6 1.1,2.5 0.7,2.4 0.3,2.3 -0.2,2.2 -0.6,2.1 -1.0,2.0 -1.5,1.9 -1.9,1.8 -2.3,1.7 -2.8,1.6 -3.2,1.5 -3.6,1.4 -4.1,1.3 -4.5,1.3 -5.0,1.2 -5.4,1.1 -5.9,1.1 -6.3,1.0 -6.8,1.0 -7.3,1.0 -7.7,1.0 -8.2,1.0 -8.6,1.0 -9.1,1.0 -9.6,1.0 -10.0,1.1 -10.5,1.1 -10.9,1.2 -11.4,1.3 -11.8,1.4 -12.3,1.5 -12.7,1.6 -13.1,1.6 -13.4,1.7 -13.7,1.8 -14.0,1.8 -14.3,1.9 -14.6,2.0 -14.9,2.0 -15.2,2.1 -15.4,2.2 -15.7,2.3 -15.9,2.4 -16.1,2.5 -16.3,2.5 -16.4,2.6 -16.6,2.7"/></clipPath>
      <clipPath id="rightEye_av_1779093955003_s1dla7wyhcc"><polyline points="-16.6,4.5 -16.4,4.5 -16.3,4.4 -16.1,4.4 -15.9,4.3 -15.6,4.2 -15.4,4.1 -15.1,4.0 -14.8,3.9 -14.5,3.8 -14.2,3.6 -13.8,3.5 -13.4,3.3 -13.1,3.1 -12.7,3.0 -12.2,2.8 -11.8,2.6 -11.4,2.4 -10.9,2.2 -10.4,2.0 -9.9,1.8 -9.4,1.6 -8.8,1.3 -8.2,1.1 -7.6,0.8 -7.0,0.5 -6.4,0.3 -5.7,-0.0 -5.1,-0.3 -4.4,-0.5 -3.7,-0.8 -3.0,-1.1 -2.3,-1.3 -1.6,-1.6 -0.9,-1.8 -0.2,-2.1 0.4,-2.3 1.1,-2.5 1.8,-2.7 2.5,-2.9 3.2,-3.0 3.8,-3.2 4.5,-3.3 5.1,-3.4 5.7,-3.5 6.3,-3.6 6.9,-3.7 7.5,-3.7 8.1,-3.8 8.6,-3.8 9.1,-3.8 9.6,-3.7 10.1,-3.7 10.6,-3.6 11.0,-3.5 11.4,-3.4 11.8,-3.3 12.2,-3.2 12.5,-3.1 12.9,-2.9 13.2,-2.8 13.5,-2.6 13.7,-2.4 14.0,-2.2 14.2,-2.0 14.4,-1.8 14.6,-1.6 14.8,-1.4 15.0,-1.2 15.1,-1.0 15.2,-0.8 15.4,-0.5 15.4,-0.3 15.5,-0.1 15.6,0.2 15.6,0.4 15.7,0.7 15.7,0.9 15.7,1.2 15.7,1.4 13.3,1.3 13.0,1.6 12.6,1.8 12.3,2.0 11.9,2.2 11.5,2.4 11.2,2.6 10.8,2.8 10.4,3.0 10.0,3.1 9.6,3.2 9.2,3.4 8.8,3.5 8.4,3.6 7.9,3.7 7.5,3.8 7.1,3.9 6.7,3.9 6.2,4.0 5.8,4.0 5.3,4.0 4.9,4.1 4.4,4.1 4.0,4.1 3.5,4.1 3.0,4.1 2.6,4.0 2.1,4.0 1.7,3.9 1.2,3.9 0.8,3.8 0.3,3.8 -0.1,3.7 -0.6,3.6 -1.0,3.5 -1.5,3.4 -1.9,3.3 -2.3,3.2 -2.8,3.1 -3.2,3.0 -3.6,2.9 -4.0,2.9 -4.4,2.8 -4.8,2.7 -5.2,2.6 -5.6,2.5 -6.0,2.4 -6.4,2.4 -6.8,2.3 -7.1,2.2 -7.5,2.2 -7.9,2.2 -8.3,2.1 -8.6,2.1 -9.0,2.1 -9.4,2.1 -9.7,2.2 -10.1,2.2 -10.5,2.3 -10.8,2.3 -11.2,2.4 -11.5,2.5 -11.9,2.6 -12.2,2.7 -12.6,2.9 -12.9,2.9 -13.2,3.0 -13.4,3.1 -13.7,3.1 -13.9,3.2 -14.2,3.3 -14.4,3.4 -14.6,3.5 -14.9,3.6 -15.1,3.7 -15.3,3.8 -15.5,3.9 -15.7,4.0 -15.8,4.1 -16.0,4.2"/></clipPath>
      <linearGradient id="rainbow_av_1779093955003_s1dla7wyhcc" x1="0%" y1="0%" x2="100%" y2="0%">
        <stop offset="0%" stop-color="#EC4899"/><stop offset="58%" stop-color="#22D3EE"/><stop offset="100%" stop-color="#DB2777"/>
      </linearGradient>
      <linearGradient id="splitHair_av_1779093955003_s1dla7wyhcc" x1="0%" y1="0%" x2="100%" y2="0%">
        <stop offset="49%" stop-color="#111827"/><stop offset="51%" stop-color="#F9FAFB"/>
      </linearGradient>
      <radialGradient id="halo_av_1779093955003_s1dla7wyhcc"><stop offset="0%" stop-color="#EC4899" stop-opacity=".45"/><stop offset="100%" stop-color="#EC4899" stop-opacity="0"/></radialGradient>
    </defs><rect x="-100" y="-100" width="200" height="200" fill="#FCE7F3"/><g opacity="1"><polyline id="faceContour" class="face-shape" points="55.7,-5.8 55.6,-5.4 55.4,-3.2 55.2,-3.6 55.2,-1.7 54.7,0.2 54.6,1.5 54.6,2.0 54.1,4.1 53.7,5.2 53.7,6.3 53.1,7.6 52.3,9.8 52.5,9.1 51.6,11.7 50.3,14.4 51.2,12.8 50.3,14.6 50.1,15.7 49.0,17.7 48.4,18.8 48.5,18.6 47.8,19.7 47.0,20.9 46.7,21.4 45.9,22.6 44.4,24.8 43.6,25.8 42.4,27.6 42.1,28.0 41.5,28.5 41.4,28.7 40.3,29.7 39.3,31.0 39.2,31.2 37.5,32.8 37.0,33.2 35.4,34.5 35.2,34.7 34.4,35.5 32.8,36.7 31.9,37.3 32.7,36.8 28.7,39.4 28.6,39.4 29.0,39.0 27.1,40.2 25.5,41.1 23.7,42.0 24.8,41.4 21.7,42.9 22.8,42.3 19.7,43.5 20.2,43.3 19.4,43.5 18.5,43.9 17.8,44.2 16.3,44.5 13.3,45.4 12.9,45.5 11.2,45.6 9.0,46.1 9.4,46.1 8.4,46.0 8.5,46.0 4.9,46.4 3.9,46.5 3.8,46.3 1.3,46.6 1.6,46.5 -0.8,46.3 -1.6,46.2 -3.6,46.0 -3.7,46.0 -5.5,45.7 -5.1,45.8 -7.0,45.5 -8.9,45.1 -10.0,44.9 -10.6,44.7 -10.2,44.9 -13.9,43.8 -13.0,44.1 -15.5,43.3 -16.4,43.1 -17.9,42.4 -17.3,42.6 -20.2,41.4 -20.2,41.3 -21.5,40.8 -23.0,40.0 -24.8,39.2 -25.1,39.1 -26.1,38.5 -27.2,37.8 -27.1,37.7 -29.4,36.4 -29.2,36.3 -31.7,34.9 -33.5,33.3 -33.0,33.8 -34.5,32.6 -34.2,32.8 -36.7,30.7 -35.4,31.8 -36.9,30.6 -39.4,28.1 -38.6,28.9 -40.6,26.6 -42.0,25.4 -40.6,26.7 -42.4,25.0 -42.5,24.6 -45.3,21.1 -45.7,20.3 -45.4,20.8 -47.0,18.3 -46.3,19.9 -47.1,18.6 -47.7,17.4 -48.5,16.4 -48.5,16.2 -49.3,14.9 -50.5,12.1 -50.9,11.3 -51.5,10.1 -51.7,10.2 -52.1,8.2 -52.1,8.9 -53.5,5.1 -53.2,5.7 -53.6,4.0 -53.9,2.4 -54.7,-0.1 -54.5,0.9 -54.9,-1.8 -54.8,-2.0 -55.1,-3.5 -55.1,-2.3 -55.1,-4.2 -55.4,-5.9 -55.6,-6.3 -55.4,-8.8 -55.4,-8.3 -55.6,-11.3 -55.6,-10.4 -55.2,-13.6 -55.3,-13.6 -55.3,-14.8 -55.2,-15.3 -54.8,-17.6 -54.6,-17.5 -54.8,-18.3 -54.4,-19.7 -53.9,-21.6 -53.4,-23.5 -53.4,-23.2 -53.0,-24.5 -52.2,-26.0 -51.5,-27.6 -50.6,-29.4 -51.0,-28.7 -50.8,-29.6 -49.3,-31.6 -48.6,-33.0 -49.5,-31.8 -48.6,-33.0 -48.0,-33.9 -46.7,-35.8 -46.6,-36.0 -45.2,-37.7 -45.2,-37.7 -44.0,-39.1 -42.4,-40.9 -41.4,-41.7 -42.5,-40.6 -41.1,-41.9 -39.7,-43.2 -38.3,-44.5 -39.3,-43.8 -37.4,-45.2 -36.7,-45.7 -35.6,-46.5 -34.7,-47.2 -33.2,-48.1 -32.7,-48.6 -31.3,-49.4 -30.6,-49.6 -29.1,-50.6 -25.5,-52.3 -26.3,-52.0 -23.4,-53.1 -23.4,-53.1 -21.5,-54.0 -19.3,-54.8 -19.1,-54.7 -17.7,-55.4 -17.6,-55.4 -17.1,-55.5 -15.0,-56.2 -13.2,-56.7 -11.8,-56.7 -10.8,-56.9 -7.7,-57.4 -8.4,-57.4 -7.5,-57.8 -3.7,-58.1 -3.8,-58.0 -1.9,-58.3 -1.2,-58.2 0.6,-58.5 1.0,-58.4 3.9,-58.3 3.4,-58.6 4.9,-58.3 6.7,-58.4 7.6,-58.3 11.1,-58.0 13.1,-57.8 11.8,-57.9 14.2,-57.6 15.4,-57.3 15.1,-57.5 17.4,-57.0 18.1,-56.6 19.2,-56.5 20.6,-56.1 22.3,-55.7 23.7,-55.0 25.0,-54.5 26.9,-53.9 26.1,-54.2 27.4,-53.7 29.7,-52.6 31.4,-51.8 32.0,-51.3 33.0,-50.7 32.9,-50.7 36.3,-48.7 35.8,-49.2 37.2,-47.8 36.3,-48.6 37.7,-47.7 39.5,-46.3 40.8,-45.2 40.9,-44.8 41.9,-44.0 43.2,-42.8 44.0,-42.0 44.2,-41.6 45.0,-40.4 45.9,-39.3 46.9,-38.0 47.5,-37.2 47.7,-37.0 48.5,-35.7 48.7,-35.3 49.9,-33.2 50.9,-31.6 51.4,-30.2 51.4,-30.6 52.0,-29.3 52.0,-28.9 52.6,-27.6 53.6,-24.7 53.6,-24.8 53.9,-23.2 54.4,-21.2 54.2,-21.9 54.4,-20.5 54.8,-19.3 55.2,-17.6 55.4,-16.4 55.2,-15.6 55.3,-13.7 55.5,-12.6 55.5,-10.2 55.6,-8.9 55.5,-8.4 55.5,-6.7 55.7,-5.8 55.6,-5.4" fill="#ffc9a9" stroke="#111" stroke-width="2.2" stroke-linejoin="round" filter="url(#fuzzy_av_1779093955003_s1dla7wyhcc)"/><g id="leftEye" transform="translate(-23.8 -26.4)"><polyline points="-17.2,2.9 -17.1,2.9 -16.9,2.9 -16.7,2.9 -16.5,2.9 -16.3,2.9 -16.0,2.8 -15.7,2.8 -15.4,2.7 -15.1,2.6 -14.8,2.5 -14.4,2.5 -14.1,2.4 -13.7,2.3 -13.3,2.1 -12.8,2.0 -12.4,1.9 -11.9,1.8 -11.4,1.7 -10.9,1.5 -10.3,1.4 -9.8,1.2 -9.2,1.1 -8.7,0.9 -8.1,0.7 -7.5,0.5 -6.9,0.3 -6.3,0.2 -5.7,-0.0 -5.1,-0.2 -4.5,-0.4 -3.9,-0.6 -3.3,-0.8 -2.7,-0.9 -2.1,-1.1 -1.5,-1.2 -0.9,-1.4 -0.3,-1.5 0.3,-1.7 0.9,-1.8 1.5,-1.9 2.0,-2.0 2.6,-2.1 3.1,-2.2 3.6,-2.2 4.1,-2.3 4.6,-2.3 5.1,-2.3 5.6,-2.3 6.0,-2.3 6.5,-2.3 6.9,-2.3 7.3,-2.3 7.7,-2.2 8.1,-2.1 8.4,-2.1 8.8,-2.0 9.1,-1.9 9.4,-1.8 9.7,-1.7 10.0,-1.6 10.3,-1.4 10.5,-1.3 10.8,-1.2 11.0,-1.0 11.2,-0.9 11.4,-0.7 11.6,-0.6 11.7,-0.4 11.9,-0.3 12.1,-0.1 12.2,0.1 12.3,0.3 12.4,0.4 12.5,0.6 12.6,0.8 12.7,1.0 12.7,1.1 12.8,1.3 12.8,1.5 11.9,2.4 11.6,2.5 11.4,2.6 11.2,2.7 10.9,2.8 10.7,2.9 10.4,3.0 10.2,3.1 9.9,3.1 9.6,3.2 9.3,3.2 9.0,3.3 8.7,3.3 8.4,3.3 8.1,3.4 7.8,3.4 7.5,3.4 7.2,3.4 6.8,3.4 6.5,3.4 6.1,3.3 5.8,3.3 5.4,3.3 5.0,3.2 4.7,3.2 4.3,3.1 3.9,3.1 3.5,3.0 3.1,2.9 2.7,2.9 2.3,2.8 1.9,2.7 1.5,2.6 1.1,2.5 0.7,2.4 0.3,2.3 -0.2,2.2 -0.6,2.1 -1.0,2.0 -1.5,1.9 -1.9,1.8 -2.3,1.7 -2.8,1.6 -3.2,1.5 -3.6,1.4 -4.1,1.3 -4.5,1.3 -5.0,1.2 -5.4,1.1 -5.9,1.1 -6.3,1.0 -6.8,1.0 -7.3,1.0 -7.7,1.0 -8.2,1.0 -8.6,1.0 -9.1,1.0 -9.6,1.0 -10.0,1.1 -10.5,1.1 -10.9,1.2 -11.4,1.3 -11.8,1.4 -12.3,1.5 -12.7,1.6 -13.1,1.6 -13.4,1.7 -13.7,1.8 -14.0,1.8 -14.3,1.9 -14.6,2.0 -14.9,2.0 -15.2,2.1 -15.4,2.2 -15.7,2.3 -15.9,2.4 -16.1,2.5 -16.3,2.5 -16.4,2.6 -16.6,2.7" fill="#fff" stroke="#fff" stroke-width="0" stroke-linejoin="round" filter="url(#fuzzy_av_1779093955003_s1dla7wyhcc)"/><polyline points="17.0,2.2 17.2,2.3 17.3,2.5 17.4,2.6 17.5,2.6 17.5,2.7 17.5,2.8 17.5,2.8 17.4,2.9 17.4,2.9 -17.2,2.9 -17.1,2.9 -16.9,2.9 -16.7,2.9 -16.5,2.9 -16.3,2.9 -16.0,2.8 -15.7,2.8 -15.4,2.7 -15.1,2.6 -14.8,2.5 -14.4,2.5 -14.1,2.4 -13.7,2.3 -13.3,2.1 -12.8,2.0 -12.4,1.9 -11.9,1.8 -11.4,1.7 -10.9,1.5 -10.3,1.4 -9.8,1.2 -9.2,1.1 -8.7,0.9 -8.1,0.7 -7.5,0.5 -6.9,0.3 -6.3,0.2 -5.7,-0.0 -5.1,-0.2 -4.5,-0.4 -3.9,-0.6 -3.3,-0.8 -2.7,-0.9 -2.1,-1.1 -1.5,-1.2 -0.9,-1.4 -0.3,-1.5 0.3,-1.7 0.9,-1.8 1.5,-1.9 2.0,-2.0 2.6,-2.1 3.1,-2.2 3.6,-2.2 4.1,-2.3 4.6,-2.3 5.1,-2.3 5.6,-2.3 6.0,-2.3 6.5,-2.3 6.9,-2.3 7.3,-2.3 7.7,-2.2 8.1,-2.1 8.4,-2.1 8.8,-2.0 9.1,-1.9 9.4,-1.8 9.7,-1.7 10.0,-1.6 10.3,-1.4 10.5,-1.3 10.8,-1.2 11.0,-1.0 11.2,-0.9 11.4,-0.7 11.6,-0.6 11.7,-0.4 11.9,-0.3 12.1,-0.1 12.2,0.1 12.3,0.3 12.4,0.4 12.5,0.6 12.6,0.8 12.7,1.0 12.7,1.1 12.8,1.3 12.8,1.5 -12.9,1.7 -12.9,1.8 -12.9,2.0 -12.9,2.2 -12.9,2.4 -12.8,2.5 -12.8,2.7 -12.8,2.9 -12.7,3.1 -12.7,3.2" fill="none" stroke="#111" stroke-width="2.945624365060711" stroke-linejoin="round" stroke-linecap="round" filter="url(#fuzzy_av_1779093955003_s1dla7wyhcc)"/><polyline points="16.2,3.3 16.4,3.3 16.6,3.2 16.7,3.2 16.8,3.1 16.8,3.1 16.8,3.0 16.8,3.0 16.7,2.9 16.7,2.8 -16.6,2.7 -16.4,2.6 -16.3,2.5 -16.1,2.5 -15.9,2.4 -15.7,2.3 -15.4,2.2 -15.2,2.1 -14.9,2.0 -14.6,2.0 -14.3,1.9 -14.0,1.8 -13.7,1.8 -13.4,1.7 -13.1,1.6 -12.7,1.6 -12.3,1.5 -11.8,1.4 -11.4,1.3 -10.9,1.2 -10.5,1.1 -10.0,1.1 -9.6,1.0 -9.1,1.0 -8.6,1.0 -8.2,1.0 -7.7,1.0 -7.3,1.0 -6.8,1.0 -6.3,1.0 -5.9,1.1 -5.4,1.1 -5.0,1.2 -4.5,1.3 -4.1,1.3 -3.6,1.4 -3.2,1.5 -2.8,1.6 -2.3,1.7 -1.9,1.8 -1.5,1.9 -1.0,2.0 -0.6,2.1 -0.2,2.2 0.3,2.3 0.7,2.4 1.1,2.5 1.5,2.6 1.9,2.7 2.3,2.8 2.7,2.9 3.1,2.9 3.5,3.0 3.9,3.1 4.3,3.1 4.7,3.2 5.0,3.2 5.4,3.3 5.8,3.3 6.1,3.3 6.5,3.4 6.8,3.4 7.2,3.4 7.5,3.4 7.8,3.4 8.1,3.4 8.4,3.3 8.7,3.3 9.0,3.3 9.3,3.2 9.6,3.2 9.9,3.1 10.2,3.1 10.4,3.0 10.7,2.9 10.9,2.8 11.2,2.7 11.4,2.6 11.6,2.5 11.9,2.4 -12.1,2.3 -12.3,2.2 -12.5,2.0 -12.7,1.9 -12.9,1.8 -13.0,1.6 -13.2,1.5 -13.4,1.3 -13.5,1.1 -13.7,1.0" fill="none" stroke="#111" stroke-width="1.8101892756291074" stroke-linejoin="round" stroke-linecap="round" filter="url(#fuzzy_av_1779093955003_s1dla7wyhcc)"/><circle r="3.618662416137528" cx="-1.1338152503979677" cy="1.6257479931515346" stroke="#111" fill="none" stroke-width="0.9656418412898478" filter="url(#fuzzy_av_1779093955003_s1dla7wyhcc)" clip-path="url(#leftEye_av_1779093955003_s1dla7wyhcc)"/><circle r="4.198449635978368" cx="-0.8077903586566586" cy="0.9661590350624005" stroke="#111" fill="none" stroke-width="1.1216498054041755" filter="url(#fuzzy_av_1779093955003_s1dla7wyhcc)" clip-path="url(#leftEye_av_1779093955003_s1dla7wyhcc)"/><circle r="3.98944492097225" cx="-1.275582501496559" cy="-1.6207886515225332" stroke="#111" fill="none" stroke-width="1.2722833279029093" filter="url(#fuzzy_av_1779093955003_s1dla7wyhcc)" clip-path="url(#leftEye_av_1779093955003_s1dla7wyhcc)"/><circle r="2.856387094284467" cx="-1.351957829490422" cy="1.5783402530081194" stroke="#111" fill="none" stroke-width="1.2913280910613565" filter="url(#fuzzy_av_1779093955003_s1dla7wyhcc)" clip-path="url(#leftEye_av_1779093955003_s1dla7wyhcc)"/><circle r="4.075254592885079" cx="-2.2341045847630574" cy="1.5293239917472625" stroke="#111" fill="none" stroke-width="1.0944696222511952" filter="url(#fuzzy_av_1779093955003_s1dla7wyhcc)" clip-path="url(#leftEye_av_1779093955003_s1dla7wyhcc)"/><circle r="3.9543931502357825" cx="-0.3421116080259139" cy="1.6581805601358661" stroke="#111" fill="none" stroke-width="1.2107344536362512" filter="url(#fuzzy_av_1779093955003_s1dla7wyhcc)" clip-path="url(#leftEye_av_1779093955003_s1dla7wyhcc)"/><circle r="3.75948244060461" cx="0.4652789973961784" cy="-0.21337997527631214" stroke="#111" fill="none" stroke-width="1.2854739295294682" filter="url(#fuzzy_av_1779093955003_s1dla7wyhcc)" clip-path="url(#leftEye_av_1779093955003_s1dla7wyhcc)"/><circle r="3.8126837934445668" cx="0.5776595038571173" cy="-1.0654825152500411" stroke="#111" fill="none" stroke-width="1.2374257501682877" filter="url(#fuzzy_av_1779093955003_s1dla7wyhcc)" clip-path="url(#leftEye_av_1779093955003_s1dla7wyhcc)"/><circle r="3.5164080937707975" cx="-1.8269734784685085" cy="-0.49083184936840585" stroke="#111" fill="none" stroke-width="1.2064682851291813" filter="url(#fuzzy_av_1779093955003_s1dla7wyhcc)" clip-path="url(#leftEye_av_1779093955003_s1dla7wyhcc)"/><circle r="2.745210913588398" cx="-0.6622158461209404" cy="-1.9066254089279102" stroke="#111" fill="none" stroke-width="1.3018650021118692" filter="url(#fuzzy_av_1779093955003_s1dla7wyhcc)" clip-path="url(#leftEye_av_1779093955003_s1dla7wyhcc)"/></g><g id="rightEye" transform="translate(22.6 -28.2)"><polyline points="-16.6,4.5 -16.4,4.5 -16.3,4.4 -16.1,4.4 -15.9,4.3 -15.6,4.2 -15.4,4.1 -15.1,4.0 -14.8,3.9 -14.5,3.8 -14.2,3.6 -13.8,3.5 -13.4,3.3 -13.1,3.1 -12.7,3.0 -12.2,2.8 -11.8,2.6 -11.4,2.4 -10.9,2.2 -10.4,2.0 -9.9,1.8 -9.4,1.6 -8.8,1.3 -8.2,1.1 -7.6,0.8 -7.0,0.5 -6.4,0.3 -5.7,-0.0 -5.1,-0.3 -4.4,-0.5 -3.7,-0.8 -3.0,-1.1 -2.3,-1.3 -1.6,-1.6 -0.9,-1.8 -0.2,-2.1 0.4,-2.3 1.1,-2.5 1.8,-2.7 2.5,-2.9 3.2,-3.0 3.8,-3.2 4.5,-3.3 5.1,-3.4 5.7,-3.5 6.3,-3.6 6.9,-3.7 7.5,-3.7 8.1,-3.8 8.6,-3.8 9.1,-3.8 9.6,-3.7 10.1,-3.7 10.6,-3.6 11.0,-3.5 11.4,-3.4 11.8,-3.3 12.2,-3.2 12.5,-3.1 12.9,-2.9 13.2,-2.8 13.5,-2.6 13.7,-2.4 14.0,-2.2 14.2,-2.0 14.4,-1.8 14.6,-1.6 14.8,-1.4 15.0,-1.2 15.1,-1.0 15.2,-0.8 15.4,-0.5 15.4,-0.3 15.5,-0.1 15.6,0.2 15.6,0.4 15.7,0.7 15.7,0.9 15.7,1.2 15.7,1.4 13.3,1.3 13.0,1.6 12.6,1.8 12.3,2.0 11.9,2.2 11.5,2.4 11.2,2.6 10.8,2.8 10.4,3.0 10.0,3.1 9.6,3.2 9.2,3.4 8.8,3.5 8.4,3.6 7.9,3.7 7.5,3.8 7.1,3.9 6.7,3.9 6.2,4.0 5.8,4.0 5.3,4.0 4.9,4.1 4.4,4.1 4.0,4.1 3.5,4.1 3.0,4.1 2.6,4.0 2.1,4.0 1.7,3.9 1.2,3.9 0.8,3.8 0.3,3.8 -0.1,3.7 -0.6,3.6 -1.0,3.5 -1.5,3.4 -1.9,3.3 -2.3,3.2 -2.8,3.1 -3.2,3.0 -3.6,2.9 -4.0,2.9 -4.4,2.8 -4.8,2.7 -5.2,2.6 -5.6,2.5 -6.0,2.4 -6.4,2.4 -6.8,2.3 -7.1,2.2 -7.5,2.2 -7.9,2.2 -8.3,2.1 -8.6,2.1 -9.0,2.1 -9.4,2.1 -9.7,2.2 -10.1,2.2 -10.5,2.3 -10.8,2.3 -11.2,2.4 -11.5,2.5 -11.9,2.6 -12.2,2.7 -12.6,2.9 -12.9,2.9 -13.2,3.0 -13.4,3.1 -13.7,3.1 -13.9,3.2 -14.2,3.3 -14.4,3.4 -14.6,3.5 -14.9,3.6 -15.1,3.7 -15.3,3.8 -15.5,3.9 -15.7,4.0 -15.8,4.1 -16.0,4.2" fill="#fff" stroke="#fff" stroke-width="0" stroke-linejoin="round" filter="url(#fuzzy_av_1779093955003_s1dla7wyhcc)"/><polyline points="-16.8,4.2 -16.9,4.3 -16.9,4.4 -17.0,4.4 -17.0,4.5 -17.0,4.5 -16.9,4.5 -16.9,4.6 -16.8,4.6 -16.7,4.5 -16.6,4.5 -16.4,4.5 -16.3,4.4 -16.1,4.4 -15.9,4.3 -15.6,4.2 -15.4,4.1 -15.1,4.0 -14.8,3.9 -14.5,3.8 -14.2,3.6 -13.8,3.5 -13.4,3.3 -13.1,3.1 -12.7,3.0 -12.2,2.8 -11.8,2.6 -11.4,2.4 -10.9,2.2 -10.4,2.0 -9.9,1.8 -9.4,1.6 -8.8,1.3 -8.2,1.1 -7.6,0.8 -7.0,0.5 -6.4,0.3 -5.7,-0.0 -5.1,-0.3 -4.4,-0.5 -3.7,-0.8 -3.0,-1.1 -2.3,-1.3 -1.6,-1.6 -0.9,-1.8 -0.2,-2.1 0.4,-2.3 1.1,-2.5 1.8,-2.7 2.5,-2.9 3.2,-3.0 3.8,-3.2 4.5,-3.3 5.1,-3.4 5.7,-3.5 6.3,-3.6 6.9,-3.7 7.5,-3.7 8.1,-3.8 8.6,-3.8 9.1,-3.8 9.6,-3.7 10.1,-3.7 10.6,-3.6 11.0,-3.5 11.4,-3.4 11.8,-3.3 12.2,-3.2 12.5,-3.1 12.9,-2.9 13.2,-2.8 13.5,-2.6 13.7,-2.4 14.0,-2.2 14.2,-2.0 14.4,-1.8 14.6,-1.6 14.8,-1.4 15.0,-1.2 15.1,-1.0 15.2,-0.8 15.4,-0.5 15.4,-0.3 15.5,-0.1 15.6,0.2 15.6,0.4 15.7,0.7 15.7,0.9 15.7,1.2 15.7,1.4 15.7,1.7 15.6,1.9 15.6,2.1 15.5,2.4 15.4,2.6 15.3,2.9 15.2,3.1 15.1,3.3 15.0,3.6 14.9,3.8" fill="none" stroke="#111" stroke-width="2.9929119898450627" stroke-linejoin="round" stroke-linecap="round" filter="url(#fuzzy_av_1779093955003_s1dla7wyhcc)"/><polyline points="-16.5,4.8 -16.5,4.8 -16.6,4.7 -16.6,4.7 -16.5,4.6 -16.5,4.6 -16.4,4.5 -16.3,4.4 -16.2,4.3 -16.1,4.2 -16.0,4.2 -15.8,4.1 -15.7,4.0 -15.5,3.9 -15.3,3.8 -15.1,3.7 -14.9,3.6 -14.6,3.5 -14.4,3.4 -14.2,3.3 -13.9,3.2 -13.7,3.1 -13.4,3.1 -13.2,3.0 -12.9,2.9 -12.6,2.9 -12.2,2.7 -11.9,2.6 -11.5,2.5 -11.2,2.4 -10.8,2.3 -10.5,2.3 -10.1,2.2 -9.7,2.2 -9.4,2.1 -9.0,2.1 -8.6,2.1 -8.3,2.1 -7.9,2.2 -7.5,2.2 -7.1,2.2 -6.8,2.3 -6.4,2.4 -6.0,2.4 -5.6,2.5 -5.2,2.6 -4.8,2.7 -4.4,2.8 -4.0,2.9 -3.6,2.9 -3.2,3.0 -2.8,3.1 -2.3,3.2 -1.9,3.3 -1.5,3.4 -1.0,3.5 -0.6,3.6 -0.1,3.7 0.3,3.8 0.8,3.8 1.2,3.9 1.7,3.9 2.1,4.0 2.6,4.0 3.0,4.1 3.5,4.1 4.0,4.1 4.4,4.1 4.9,4.1 5.3,4.0 5.8,4.0 6.2,4.0 6.7,3.9 7.1,3.9 7.5,3.8 7.9,3.7 8.4,3.6 8.8,3.5 9.2,3.4 9.6,3.2 10.0,3.1 10.4,3.0 10.8,2.8 11.2,2.6 11.5,2.4 11.9,2.2 12.3,2.0 12.6,1.8 13.0,1.6 13.3,1.3 13.6,1.1 14.0,0.8 14.3,0.6 14.6,0.3 14.9,0.0 15.2,-0.3 15.5,-0.6 15.8,-0.9 16.0,-1.2 16.3,-1.6" fill="none" stroke="#111" stroke-width="3.0787406099997927" stroke-linejoin="round" stroke-linecap="round" filter="url(#fuzzy_av_1779093955003_s1dla7wyhcc)"/><circle r="2.4556914785547432" cx="1.58676802071734" cy="-1.8120908516277865" stroke="#111" fill="none" stroke-width="0.9934127193309146" filter="url(#fuzzy_av_1779093955003_s1dla7wyhcc)" clip-path="url(#rightEye_av_1779093955003_s1dla7wyhcc)"/><circle r="4.613707798368547" cx="-0.9610015338415956" cy="-0.24415026206140067" stroke="#111" fill="none" stroke-width="1.3309276972247883" filter="url(#fuzzy_av_1779093955003_s1dla7wyhcc)" clip-path="url(#rightEye_av_1779093955003_s1dla7wyhcc)"/><circle r="4.680445627767973" cx="-0.05499586281116953" cy="-2.022075881386276" stroke="#111" fill="none" stroke-width="0.8834650818126502" filter="url(#fuzzy_av_1779093955003_s1dla7wyhcc)" clip-path="url(#rightEye_av_1779093955003_s1dla7wyhcc)"/><circle r="2.5535435827672512" cx="-0.15363047797231344" cy="-0.8902278167742874" stroke="#111" fill="none" stroke-width="0.8351681272054389" filter="url(#fuzzy_av_1779093955003_s1dla7wyhcc)" clip-path="url(#rightEye_av_1779093955003_s1dla7wyhcc)"/><circle r="2.497140338552879" cx="-0.20555640660660668" cy="-0.9872327260581688" stroke="#111" fill="none" stroke-width="0.8627024737749742" filter="url(#fuzzy_av_1779093955003_s1dla7wyhcc)" clip-path="url(#rightEye_av_1779093955003_s1dla7wyhcc)"/><circle r="4.1797326002691975" cx="-0.5880343449097247" cy="0.44235796736207855" stroke="#111" fill="none" stroke-width="1.2211442348777333" filter="url(#fuzzy_av_1779093955003_s1dla7wyhcc)" clip-path="url(#rightEye_av_1779093955003_s1dla7wyhcc)"/><circle r="3.828071737174888" cx="1.8086433712672507" cy="0.18371130691798343" stroke="#111" fill="none" stroke-width="1.1231199860685213" filter="url(#fuzzy_av_1779093955003_s1dla7wyhcc)" clip-path="url(#rightEye_av_1779093955003_s1dla7wyhcc)"/><circle r="2.5670739540278262" cx="-1.5846984104221098" cy="-1.8851018128905794" stroke="#111" fill="none" stroke-width="1.2961712450079188" filter="url(#fuzzy_av_1779093955003_s1dla7wyhcc)" clip-path="url(#rightEye_av_1779093955003_s1dla7wyhcc)"/><circle r="4.275260897022484" cx="-0.5424850425666408" cy="-2.0047505307394013" stroke="#111" fill="none" stroke-width="0.9786726073534016" filter="url(#fuzzy_av_1779093955003_s1dla7wyhcc)" clip-path="url(#rightEye_av_1779093955003_s1dla7wyhcc)"/><circle r="3.150776296561865" cx="1.5293899655092256" cy="1.1588084271041155" stroke="#111" fill="none" stroke-width="0.9989642897878765" filter="url(#fuzzy_av_1779093955003_s1dla7wyhcc)" clip-path="url(#rightEye_av_1779093955003_s1dla7wyhcc)"/></g><g id="hairs"><polyline points="-31.3,-50.6 -30.3,-51.3 -28.9,-50.3 -27.7,-51.1 -26.6,-51.5 -25.9,-51.3 -25.3,-50.9 -24.9,-48.8 -24.8,-48.9 -24.9,-47.3 -25.3,-44.7 -25.8,-41.8 -26.5,-39.7 -27.3,-37.3 -28.3,-33.9 -29.5,-30.7 -30.9,-26.5 -32.5,-20.6 -34.4,-16.4 -36.5,-9.8 -38.8,-4.5 -41.4,1.9 -44.4,10.1 -47.7,15.8" fill="none" stroke="rgb(44,34,43)" stroke-width="1.4714771916963882" stroke-linejoin="round" stroke-linecap="round" filter="url(#fuzzy_av_1779093955003_s1dla7wyhcc)" opacity="0.8076511494974217"/><polyline points="-41.4,-43.7 -41.6,-43.3 -40.9,-42.4 -40.0,-44.7 -39.1,-44.4 -38.3,-45.3 -37.5,-45.8 -36.7,-45.7 -36.0,-47.7 -35.3,-48.3 -34.7,-48.2 -34.2,-48.0 -33.8,-47.4 -33.6,-47.4 -33.5,-48.2 -33.6,-47.8 -34.0,-46.4 -34.6,-47.4 -35.7,-45.5 -37.0,-44.7 -38.7,-43.4 -40.8,-41.1 -43.3,-39.1 -46.2,-35.6 -49.5,-31.9" fill="none" stroke="rgb(44,34,43)" stroke-width="2.201132585854952" stroke-linejoin="round" stroke-linecap="round" filter="url(#fuzzy_av_1779093955003_s1dla7wyhcc)" opacity="0.7923023673694551"/><polyline points="37.2,-49.4 36.8,-48.9 36.4,-48.5 35.6,-46.2 34.0,-45.2 31.5,-42.4 28.1,-40.9 23.8,-37.6 18.6,-35.1 12.5,-32.7 5.6,-29.2 -2.2,-24.4 -10.9,-21.2 -20.5,-16.4 -31.1,-12.0 -42.5,-7.0 -54.8,-3.3" fill="none" stroke="rgb(44,34,43)" stroke-width="1.6124860533359135" stroke-linejoin="round" stroke-linecap="round" filter="url(#fuzzy_av_1779093955003_s1dla7wyhcc)" opacity="0.9962366563592444"/><polyline points="-55.6,-12.7 -55.5,-13.2 -55.4,-13.0 -55.3,-13.7 -55.2,-15.7 -55.1,-16.7 -54.9,-15.9 -54.7,-16.5 -54.5,-16.4 -54.2,-17.8 -53.9,-18.4 -53.5,-16.3 -53.1,-17.5 -52.7,-15.7 -52.3,-14.5 -51.8,-13.9 -51.3,-11.6 -50.8,-9.4 -50.2,-5.5 -49.6,-3.1 -49.0,1.0 -48.4,4.7 -47.8,9.6 -47.1,12.9 -46.3,19.1" fill="none" stroke="rgb(44,34,43)" stroke-width="1.613079706893727" stroke-linejoin="round" stroke-linecap="round" filter="url(#fuzzy_av_1779093955003_s1dla7wyhcc)" opacity="0.9374193437636406"/><polyline points="-3.7,-58.2 -3.1,-58.8 -1.9,-58.7 -0.5,-58.7 1.1,-59.9 2.8,-58.6 4.4,-59.9 6.1,-58.5 7.7,-58.9 9.3,-59.7 10.9,-58.4 12.2,-59.5 13.4,-58.9 14.2,-59.2 14.7,-57.5 14.9,-58.9 14.9,-58.7 14.6,-58.1 14.0,-58.6 12.9,-58.3 11.0,-59.3 7.6,-58.9" fill="none" stroke="rgb(44,34,43)" stroke-width="0.8480925243891" stroke-linejoin="round" stroke-linecap="round" filter="url(#fuzzy_av_1779093955003_s1dla7wyhcc)" opacity="0.9202929419609236"/><polyline points="3.9,-59.0 4.1,-59.6 5.1,-59.8 6.3,-59.9 7.6,-60.0 8.7,-59.1 9.4,-58.0 9.6,-58.3 9.3,-59.0 8.5,-59.2 7.2,-58.7 5.4,-57.5 3.1,-57.5 0.1,-57.1 -3.5,-58.6 -7.9,-58.7 -13.2,-57.0" fill="none" stroke="rgb(44,34,43)" stroke-width="1.8305782652981528" stroke-linejoin="round" stroke-linecap="round" filter="url(#fuzzy_av_1779093955003_s1dla7wyhcc)" opacity="0.7606003202293055"/><polyline points="7.6,-59.5 10.3,-59.8 12.1,-58.6 13.6,-58.3 15.2,-58.5 16.8,-58.0 18.5,-57.4 20.2,-57.3 22.0,-56.8 23.7,-56.1 25.4,-54.4 26.9,-54.4 28.1,-53.5 29.1,-53.2 29.6,-53.9 29.6,-53.8 29.0,-54.7 27.4,-54.4" fill="none" stroke="rgb(44,34,43)" stroke-width="0.7558451973757074" stroke-linejoin="round" stroke-linecap="round" filter="url(#fuzzy_av_1779093955003_s1dla7wyhcc)" opacity="0.899758987142907"/><polyline points="-50.8,-30.4 -49.7,-31.4 -48.9,-32.9 -48.1,-34.5 -47.1,-35.3 -45.9,-36.4 -44.6,-38.6 -43.1,-40.0 -41.6,-41.1 -40.1,-41.6 -38.7,-43.4 -37.4,-43.8 -36.2,-45.2 -35.2,-47.0 -34.5,-46.7 -34.0,-47.2 -33.6,-48.4 -33.5,-48.6 -33.6,-48.8 -33.9,-49.3 -34.7,-48.8" fill="none" stroke="rgb(44,34,43)" stroke-width="1.8674294796851152" stroke-linejoin="round" stroke-linecap="round" filter="url(#fuzzy_av_1779093955003_s1dla7wyhcc)" opacity="0.7669217397047002"/><polyline points="-46.7,-37.5 -46.3,-37.3 -45.7,-38.7 -45.0,-37.6 -44.3,-38.4 -43.7,-39.2 -43.2,-39.7 -42.8,-38.9 -42.5,-37.4 -42.2,-38.3 -42.0,-35.9 -41.8,-36.1 -41.7,-33.5 -41.7,-30.5 -41.7,-28.7 -41.9,-27.0 -42.1,-23.7 -42.4,-20.4 -42.8,-16.7 -43.3,-12.3 -43.8,-7.2 -44.4,-1.4 -45.3,3.2 -46.4,10.3 -47.7,16.0" fill="none" stroke="rgb(44,34,43)" stroke-width="1.198634272905022" stroke-linejoin="round" stroke-linecap="round" filter="url(#fuzzy_av_1779093955003_s1dla7wyhcc)" opacity="0.8266356799237712"/><polyline points="14.2,-58.0 15.1,-59.2 16.1,-58.6 17.2,-57.8 18.5,-56.7 19.9,-57.4 21.2,-57.2 22.6,-55.3 23.7,-56.4 24.8,-55.3 25.6,-56.3 26.2,-54.4 26.6,-54.9 26.7,-55.6 26.6,-55.7 26.1,-55.4 25.3,-55.5 24.1,-55.3 22.6,-56.3 20.7,-57.2 18.5,-56.4 15.7,-58.2 11.8,-58.6" fill="none" stroke="rgb(44,34,43)" stroke-width="1.356561797268073" stroke-linejoin="round" stroke-linecap="round" filter="url(#fuzzy_av_1779093955003_s1dla7wyhcc)" opacity="0.8543453926419982"/><polyline points="-55.3,-15.6 -55.1,-16.1 -54.9,-18.4 -54.7,-18.6 -54.6,-18.7 -54.3,-19.8 -54.0,-21.4 -53.7,-22.4 -53.4,-22.6 -53.1,-23.3 -52.7,-22.6 -52.4,-23.3 -52.0,-22.0 -51.7,-22.0 -51.4,-20.5 -51.1,-17.9 -50.9,-17.0 -50.6,-14.9 -50.4,-11.5 -50.1,-9.9 -49.9,-5.7 -49.5,-3.6 -49.2,0.4 -48.8,5.7 -48.5,9.9 -48.5,15.3" fill="none" stroke="rgb(44,34,43)" stroke-width="1.6506305236695278" stroke-linejoin="round" stroke-linecap="round" filter="url(#fuzzy_av_1779093955003_s1dla7wyhcc)" opacity="0.8587426073458864"/><polyline points="-46.7,-36.3 -46.2,-37.9 -45.4,-39.1 -44.4,-38.8 -43.4,-40.0 -42.4,-41.3 -41.5,-41.9 -40.6,-43.6 -39.8,-43.1 -39.1,-43.9 -38.5,-46.0 -38.0,-45.3 -37.6,-46.9 -37.3,-45.7 -37.2,-45.7 -37.3,-46.5 -37.7,-45.4 -38.3,-45.1 -39.1,-43.5 -40.2,-44.1 -41.6,-43.0 -44.0,-40.5" fill="none" stroke="rgb(44,34,43)" stroke-width="1.5951219228665368" stroke-linejoin="round" stroke-linecap="round" filter="url(#fuzzy_av_1779093955003_s1dla7wyhcc)" opacity="0.9003600572253796"/><polyline points="-17.1,-55.9 -15.1,-57.0 -13.2,-58.2 -11.3,-56.6 -9.4,-57.0 -7.4,-58.6 -5.3,-57.4 -3.2,-57.3 -1.1,-58.0 1.0,-58.6 3.1,-58.5 5.1,-58.3 7.0,-57.2 8.8,-58.6 10.4,-57.4 12.0,-58.3 13.3,-57.9 14.5,-58.3 15.5,-56.9 16.2,-57.8 16.6,-57.8 16.6,-58.9 16.3,-58.1 15.7,-59.0 15.4,-59.0" fill="none" stroke="rgb(44,34,43)" stroke-width="1.2381514552845976" stroke-linejoin="round" stroke-linecap="round" filter="url(#fuzzy_av_1779093955003_s1dla7wyhcc)" opacity="0.9242445275599571"/><polyline points="-17.6,-57.4 -16.7,-56.4 -15.6,-56.8 -14.5,-56.8 -13.8,-55.7 -13.3,-55.2 -13.2,-54.2 -13.4,-53.2 -13.9,-50.7 -14.7,-50.2 -15.8,-48.5 -17.3,-45.1 -19.2,-41.7 -21.4,-37.8 -24.1,-34.9 -27.1,-31.7 -30.5,-26.2 -34.4,-21.5 -38.6,-16.8 -43.2,-11.0 -48.2,-4.5 -53.6,3.3" fill="none" stroke="rgb(44,34,43)" stroke-width="1.3324205502571385" stroke-linejoin="round" stroke-linecap="round" filter="url(#fuzzy_av_1779093955003_s1dla7wyhcc)" opacity="0.9336393386626287"/><polyline points="-53.4,-24.8 -52.8,-24.9 -51.8,-27.5 -50.7,-29.7 -49.6,-30.3 -48.3,-31.6 -47.0,-33.9 -45.7,-35.9 -44.4,-37.6 -43.1,-39.3 -41.8,-39.8 -40.7,-42.4 -39.6,-43.2 -38.5,-43.2 -37.7,-45.9 -37.1,-46.3 -36.7,-46.1 -36.7,-47.3" fill="none" stroke="rgb(44,34,43)" stroke-width="1.174240022350244" stroke-linejoin="round" stroke-linecap="round" filter="url(#fuzzy_av_1779093955003_s1dla7wyhcc)" opacity="0.9912720025834042"/><polyline points="-54.6,-18.7 -54.6,-19.6 -54.3,-21.7 -53.8,-23.0 -53.4,-23.0 -52.9,-25.9 -52.4,-26.5 -51.9,-27.1 -51.5,-28.4 -51.2,-28.7 -50.9,-29.1 -50.8,-29.8 -50.8,-30.5 -51.0,-30.2 -51.4,-27.8 -51.9,-28.0 -52.5,-25.6 -53.3,-22.9 -54.4,-20.2" fill="none" stroke="rgb(44,34,43)" stroke-width="2.4798395164775378" stroke-linejoin="round" stroke-linecap="round" filter="url(#fuzzy_av_1779093955003_s1dla7wyhcc)" opacity="0.8340156604983835"/><polyline points="-55.4,-8.8 -55.4,-9.4 -55.1,-11.9 -54.5,-12.6 -53.8,-15.9 -52.8,-17.9 -51.8,-19.6 -50.5,-20.2 -49.2,-23.1 -47.8,-26.0 -46.2,-26.8 -44.6,-30.7 -42.8,-31.8 -41.1,-35.1 -39.4,-37.2 -37.8,-39.6 -36.2,-41.8 -34.8,-43.3 -33.6,-45.8 -32.8,-47.1 -32.2,-48.2 -31.3,-51.2" fill="none" stroke="rgb(44,34,43)" stroke-width="2.2434793477473955" stroke-linejoin="round" stroke-linecap="round" filter="url(#fuzzy_av_1779093955003_s1dla7wyhcc)" opacity="0.8176508969371352"/><polyline points="45.0,-41.9 45.9,-41.0 46.5,-39.3 47.1,-37.9 47.5,-38.7 47.8,-36.7 48.0,-37.5 48.2,-36.9 48.2,-35.9 48.0,-34.8 47.5,-35.4 46.9,-36.5 46.0,-36.3 44.9,-36.7 43.5,-36.0 41.9,-38.2 40.0,-39.7 37.8,-40.0 35.2,-42.8 32.3,-43.6 29.2,-45.8 25.8,-48.7 22.2,-51.5 18.3,-55.3 14.2,-59.3" fill="none" stroke="rgb(44,34,43)" stroke-width="2.2030462301022737" stroke-linejoin="round" stroke-linecap="round" filter="url(#fuzzy_av_1779093955003_s1dla7wyhcc)" opacity="0.896073744093665"/><polyline points="-17.7,-56.0 -17.3,-56.1 -16.1,-57.6 -14.5,-58.1 -12.6,-56.8 -10.7,-56.8 -8.8,-57.6 -6.9,-57.9 -5.1,-59.2 -3.3,-57.8 -1.6,-58.0 0.0,-58.4 1.5,-58.1 2.7,-58.7 3.7,-60.0 4.5,-58.5 4.9,-58.3 5.0,-58.8 4.8,-58.8 4.4,-59.8 3.7,-59.9 2.7,-59.3 1.1,-58.7 -1.2,-59.2" fill="none" stroke="rgb(44,34,43)" stroke-width="2.0403634910555724" stroke-linejoin="round" stroke-linecap="round" filter="url(#fuzzy_av_1779093955003_s1dla7wyhcc)" opacity="0.9468283350791172"/><polyline points="-42.4,-42.5 -41.9,-43.1 -41.5,-42.9 -40.9,-42.2 -40.1,-43.8 -39.4,-44.0 -38.8,-44.8 -38.2,-45.8 -37.7,-44.9 -37.3,-45.8 -37.1,-46.1 -36.9,-46.8 -37.0,-45.5 -37.2,-45.3 -37.6,-45.2 -38.2,-43.0 -39.1,-41.7 -40.2,-41.5 -41.7,-39.0 -43.6,-35.9 -45.8,-34.2 -48.3,-31.9 -51.5,-29.4" fill="none" stroke="rgb(44,34,43)" stroke-width="1.6997889724828097" stroke-linejoin="round" stroke-linecap="round" filter="url(#fuzzy_av_1779093955003_s1dla7wyhcc)" opacity="0.9581800864390128"/><polyline points="27.4,-55.5 29.3,-54.1 30.7,-53.7 31.8,-51.9 32.7,-52.1 33.5,-52.1 34.2,-51.3 34.6,-50.7 34.9,-49.5 34.9,-50.7 34.7,-49.9 34.3,-49.5 33.6,-50.1 32.6,-50.5 31.1,-51.2 29.3,-50.8 27.0,-53.1 24.3,-54.4 21.3,-55.5 18.0,-57.6 14.2,-58.7" fill="none" stroke="rgb(44,34,43)" stroke-width="2.176718168731616" stroke-linejoin="round" stroke-linecap="round" filter="url(#fuzzy_av_1779093955003_s1dla7wyhcc)" opacity="0.7838534849123061"/><polyline points="29.7,-54.3 30.9,-52.5 31.4,-51.3 31.7,-51.0 31.7,-50.6 31.4,-50.6 30.6,-48.5 29.6,-47.9 28.1,-47.6 26.4,-45.2 24.3,-43.8 21.9,-42.0 19.1,-40.3 15.9,-39.0 12.2,-37.9 8.2,-36.1 3.7,-33.9 -1.2,-31.4 -6.5,-28.9 -12.3,-27.7 -18.4,-24.8 -25.0,-22.9 -32.0,-20.7 -39.5,-17.4 -47.3,-15.1 -55.6,-12.2" fill="none" stroke="rgb(44,34,43)" stroke-width="2.121068942975107" stroke-linejoin="round" stroke-linecap="round" filter="url(#fuzzy_av_1779093955003_s1dla7wyhcc)" opacity="0.8187949824892014"/><polyline points="-44.0,-41.0 -42.6,-41.8 -41.3,-42.1 -39.9,-43.8 -38.0,-44.5 -35.7,-44.0 -33.2,-45.1 -30.5,-46.9 -27.5,-47.9 -24.4,-49.3 -21.2,-51.0 -17.9,-52.9 -14.8,-52.4 -11.7,-55.2 -8.8,-55.9 -6.0,-56.5 -3.2,-57.2 -0.6,-58.4 1.0,-58.6" fill="none" stroke="rgb(44,34,43)" stroke-width="1.2703349542241402" stroke-linejoin="round" stroke-linecap="round" filter="url(#fuzzy_av_1779093955003_s1dla7wyhcc)" opacity="0.921972777731497"/><polyline points="15.4,-57.3 15.7,-58.9 16.3,-57.0 16.6,-58.1 16.6,-56.8 16.2,-57.4 15.3,-55.8 13.8,-56.4 11.5,-54.4 8.5,-54.3 4.7,-54.0 0.1,-53.3 -5.3,-51.2 -11.4,-50.4 -18.5,-49.6 -26.5,-48.1 -35.6,-47.4" fill="none" stroke="rgb(44,34,43)" stroke-width="1.6444072109296473" stroke-linejoin="round" stroke-linecap="round" filter="url(#fuzzy_av_1779093955003_s1dla7wyhcc)" opacity="0.7931136211201816"/><polyline points="-44.0,-40.0 -42.8,-40.6 -42.2,-42.7 -41.7,-42.2 -41.2,-43.2 -40.7,-42.8 -40.2,-44.2 -39.9,-42.8 -39.6,-44.2 -39.5,-43.1 -39.5,-43.1 -39.6,-42.8 -39.9,-40.2 -40.3,-39.8 -41.0,-37.2 -41.8,-35.2 -42.8,-33.8 -44.1,-31.0 -45.7,-27.6 -47.6,-25.4 -49.9,-21.9 -52.5,-17.5 -55.6,-11.5" fill="none" stroke="rgb(44,34,43)" stroke-width="1.5379521419584408" stroke-linejoin="round" stroke-linecap="round" filter="url(#fuzzy_av_1779093955003_s1dla7wyhcc)" opacity="0.7528811090032368"/><polyline points="44.0,-43.6 44.4,-42.9 44.9,-41.2 45.4,-41.2 45.7,-40.3 45.8,-40.6 45.6,-40.6 45.1,-40.2 44.4,-39.9 43.3,-40.5 41.9,-40.8 40.1,-41.3 37.8,-43.3 35.0,-45.5 31.6,-48.0 27.6,-51.1 23.1,-53.4 18.1,-57.8" fill="none" stroke="rgb(44,34,43)" stroke-width="1.2646176346100626" stroke-linejoin="round" stroke-linecap="round" filter="url(#fuzzy_av_1779093955003_s1dla7wyhcc)" opacity="0.8098643989040568"/><polyline points="-1.9,-58.7 -1.1,-59.4 -0.2,-59.6 0.4,-58.7 0.7,-58.0 0.8,-58.4 0.5,-56.6 -0.0,-56.0 -0.9,-54.7 -2.2,-54.5 -3.9,-53.3 -6.3,-50.9 -9.2,-49.4 -12.7,-48.4 -16.7,-44.3 -21.2,-43.6 -26.3,-41.0 -31.9,-37.2 -38.1,-34.6 -45.1,-30.4 -53.0,-25.1" fill="none" stroke="rgb(44,34,43)" stroke-width="2.5748930661875216" stroke-linejoin="round" stroke-linecap="round" filter="url(#fuzzy_av_1779093955003_s1dla7wyhcc)" opacity="0.8370745159248887"/><polyline points="54.8,-19.6 56.5,-17.4 57.8,-15.3 58.5,-11.9 59.0,-9.3 59.4,-7.3 59.6,-5.6 59.5,-1.8 59.2,-1.4 58.8,1.5 58.3,5.3 57.7,5.9 57.1,9.9 56.3,10.2 55.4,13.0 54.4,15.9 53.5,17.7 52.5,19.4 51.6,21.9 50.6,24.4 49.5,26.2 48.6,27.7 48.1,28.3" fill="none" stroke="rgb(44,34,43)" stroke-width="2.0853457886372415" stroke-linejoin="round" stroke-linecap="round" filter="url(#fuzzy_av_1779093955003_s1dla7wyhcc)" opacity="0.9513013894249327"/><polyline points="54.8,-21.0 55.2,-17.4 55.4,-14.1 55.6,-11.9 55.8,-10.5 55.9,-7.2 56.0,-4.7 56.0,-1.7 55.8,0.3 55.4,2.4 54.8,5.2 54.1,6.8 53.3,9.1 52.4,12.3 51.5,13.6 50.5,16.6 49.4,17.6 48.3,19.6 47.0,21.8 45.7,24.8 44.3,26.6 42.9,27.8 41.5,28.3 40.1,31.7 38.6,31.4 37.0,34.3 35.3,34.6 33.4,36.1 30.7,38.7" fill="none" stroke="rgb(44,34,43)" stroke-width="1.4862482695636516" stroke-linejoin="round" stroke-linecap="round" filter="url(#fuzzy_av_1779093955003_s1dla7wyhcc)" opacity="0.7773516203474841"/><polyline points="54.2,-23.3 57.6,-19.8 59.7,-17.1 60.9,-14.2 61.1,-11.8 61.1,-9.9 61.0,-7.0 61.1,-4.4 61.3,-3.5 61.5,-0.5 61.4,1.5 61.1,3.8 60.4,6.5 59.4,9.2 58.3,10.6 57.2,14.0 56.2,15.0 55.3,17.3 54.5,19.2 53.7,21.1 52.7,23.6 51.6,25.9 50.4,26.9 49.1,28.7 47.8,30.9 46.6,32.7 45.3,34.1 43.8,35.1 41.8,36.6 38.6,38.8" fill="none" stroke="rgb(44,34,43)" stroke-width="1.087845312103373" stroke-linejoin="round" stroke-linecap="round" filter="url(#fuzzy_av_1779093955003_s1dla7wyhcc)" opacity="0.8444440369870159"/><polyline points="54.4,-22.6 54.9,-20.1 55.5,-19.7 56.0,-16.2 56.2,-13.4 56.4,-10.8 56.4,-8.2 56.2,-5.8 56.0,-3.5 55.6,-1.4 55.2,0.3 54.6,2.7 54.0,4.9 53.3,8.8 52.5,11.1 51.7,12.6 50.7,14.8 49.8,16.4 48.8,18.0 47.7,19.8 46.6,22.9 45.4,24.6 44.0,27.1 42.5,27.8 40.9,31.0 39.3,31.3 37.5,33.9 35.7,34.1 33.5,37.0 30.7,38.3" fill="none" stroke="rgb(44,34,43)" stroke-width="1.9431804663252163" stroke-linejoin="round" stroke-linecap="round" filter="url(#fuzzy_av_1779093955003_s1dla7wyhcc)" opacity="0.9628085480154058"/><polyline points="53.6,-25.2 53.9,-24.2 54.3,-22.8 54.7,-19.8 55.0,-16.8 55.2,-15.5 55.4,-13.0 55.4,-9.9 55.4,-7.8 55.2,-5.7 54.9,-3.1 54.5,-0.3 54.0,1.1 53.4,3.7 52.8,6.4 52.0,10.0 51.2,11.2 50.2,13.2 49.2,15.4 48.1,17.7 46.9,18.9 45.6,21.1 44.2,23.4 42.8,25.9 41.4,27.1 40.0,29.0 38.5,30.1 36.9,31.4 35.2,34.7 33.4,34.5 31.6,37.0 28.8,37.5" fill="none" stroke="rgb(44,34,43)" stroke-width="1.4597969601914569" stroke-linejoin="round" stroke-linecap="round" filter="url(#fuzzy_av_1779093955003_s1dla7wyhcc)" opacity="0.8942453892703224"/><polyline points="52.0,-30.2 53.1,-26.7 53.8,-24.5 54.3,-21.5 54.8,-19.2 55.3,-17.8 55.7,-15.5 56.0,-12.8 56.1,-9.7 56.2,-7.2 56.1,-6.2 55.9,-3.4 55.6,0.4 55.2,2.7 54.8,4.8 54.3,6.4 53.7,8.5 53.0,10.5 52.3,13.3 51.5,15.6 50.6,18.0 49.6,19.9 48.5,21.0 47.3,23.1 46.0,25.2 44.5,26.9 42.9,28.8 41.3,30.9 39.6,32.9 37.9,34.4 36.2,34.3 34.3,36.4 31.5,38.5" fill="none" stroke="rgb(44,34,43)" stroke-width="2.36370794696192" stroke-linejoin="round" stroke-linecap="round" filter="url(#fuzzy_av_1779093955003_s1dla7wyhcc)" opacity="0.9988702065028741"/><polyline points="50.9,-33.0 56.2,-30.6 56.8,-29.7 57.0,-27.0 58.0,-24.3 59.7,-23.5 61.5,-20.2 62.7,-17.4 63.1,-15.2 63.0,-13.0 62.7,-10.0 62.4,-7.1 62.4,-5.5 62.5,-2.8 62.9,-0.4 63.3,0.8 63.8,2.8 64.5,6.5 65.4,7.8 66.5,10.4 67.4,12.3 67.9,15.0 67.9,17.3 67.9,19.4" fill="none" stroke="rgb(44,34,43)" stroke-width="1.3482673203523166" stroke-linejoin="round" stroke-linecap="round" filter="url(#fuzzy_av_1779093955003_s1dla7wyhcc)" opacity="0.8661216510679292"/><polyline points="48.7,-36.9 50.4,-33.1 51.5,-32.2 52.5,-28.3 53.6,-26.7 54.6,-24.3 55.5,-23.1 56.1,-20.5 56.4,-17.2 56.6,-16.0 56.6,-12.4 56.6,-9.6 56.6,-8.3 56.6,-5.9 56.6,-3.2 56.5,0.1 56.3,0.7 56.0,3.1 55.7,6.1 55.3,9.3 54.8,10.7 54.3,13.8 53.5,16.3 52.6,18.1 51.6,19.5 50.5,21.9 49.4,23.5 48.2,26.1 47.1,27.1 46.1,30.0 44.9,31.2 43.3,32.2 41.2,32.9" fill="none" stroke="rgb(44,34,43)" stroke-width="0.8546649948814979" stroke-linejoin="round" stroke-linecap="round" filter="url(#fuzzy_av_1779093955003_s1dla7wyhcc)" opacity="0.84636368332637"/><polyline points="47.5,-38.4 48.6,-36.7 49.8,-34.8 50.9,-32.6 51.9,-29.5 52.9,-29.1 53.8,-26.9 54.6,-24.2 55.3,-21.1 55.9,-20.2 56.4,-17.1 56.7,-14.9 57.0,-12.2 57.3,-9.3 57.5,-8.0 57.6,-5.3 57.6,-3.1 57.3,0.4 56.8,2.6 56.2,5.1 55.6,7.5 54.8,9.2 54.1,11.7 53.5,14.8 52.9,16.3 52.1,17.6 51.1,19.7" fill="none" stroke="rgb(44,34,43)" stroke-width="1.803941325336269" stroke-linejoin="round" stroke-linecap="round" filter="url(#fuzzy_av_1779093955003_s1dla7wyhcc)" opacity="0.9887856830302992"/><polyline points="40.8,-46.5 42.3,-44.2 44.2,-44.0 46.3,-41.7 48.2,-38.9 49.8,-37.0 51.1,-36.1 52.1,-33.8 53.2,-31.9 54.3,-30.5 55.4,-27.8 56.6,-24.2 57.6,-22.4 58.6,-20.7 59.4,-18.9 60.1,-16.0 60.9,-13.3 61.7,-11.7 62.5,-8.5 63.2,-5.4 63.7,-3.8 64.0,-0.9 64.1,1.1 64.1,4.5 64.2,5.1 64.4,7.7 64.4,10.7 64.2,13.8 63.8,14.0 63.1,16.4 62.4,18.4 61.5,20.9" fill="none" stroke="rgb(44,34,43)" stroke-width="1.033571430716436" stroke-linejoin="round" stroke-linecap="round" filter="url(#fuzzy_av_1779093955003_s1dla7wyhcc)" opacity="0.8256211318711227"/><polyline points="37.7,-49.1 41.3,-47.6 43.1,-44.5 44.7,-43.8 46.7,-41.1 49.2,-39.3 51.9,-37.2 54.5,-36.0 56.7,-34.1 58.5,-32.1 60.0,-30.2 61.4,-28.5 62.7,-26.0 63.8,-22.8 64.9,-22.1 65.9,-18.8 67.1,-15.8 68.3,-13.7 69.5,-10.8 70.3,-8.6 70.9,-6.0 71.6,-4.1 73.0,-2.2" fill="none" stroke="rgb(44,34,43)" stroke-width="1.8036430090855458" stroke-linejoin="round" stroke-linecap="round" filter="url(#fuzzy_av_1779093955003_s1dla7wyhcc)" opacity="0.9712947970222418"/><polyline points="36.3,-50.4 39.1,-48.3 41.3,-46.4 43.1,-43.9 44.7,-42.3 46.6,-40.5 48.8,-38.9 51.4,-37.3 54.1,-34.9 56.6,-32.2 58.8,-31.2 60.7,-29.3 62.5,-26.7 64.2,-25.3 65.8,-22.8 67.4,-19.6 68.9,-17.5 70.3,-16.3 71.8,-11.9 73.2,-10.6 74.7,-8.4 76.2,-6.6 78.0,-3.7 80.4,-1.4" fill="none" stroke="rgb(44,34,43)" stroke-width="1.1927780113806137" stroke-linejoin="round" stroke-linecap="round" filter="url(#fuzzy_av_1779093955003_s1dla7wyhcc)" opacity="0.9786330902304342"/><polyline points="35.8,-49.2 38.9,-49.9 41.9,-47.4 43.8,-46.2 45.5,-43.6 47.6,-42.5 49.7,-41.1 51.6,-38.3 53.2,-36.3 54.3,-34.9 55.4,-32.4 56.5,-29.7 57.7,-27.7 59.2,-26.1 60.8,-24.1 62.8,-20.9 64.9,-19.9 67.0,-18.0 68.8,-14.9 70.3,-12.7 71.1,-9.3 71.5,-7.5 71.4,-5.8 71.1,-2.6 70.8,-0.1 70.6,1.1 70.4,5.3 70.0,7.8 69.3,9.4 68.7,12.4 68.6,14.9 68.8,16.4 68.0,17.5" fill="none" stroke="rgb(44,34,43)" stroke-width="2.405039892296705" stroke-linejoin="round" stroke-linecap="round" filter="url(#fuzzy_av_1779093955003_s1dla7wyhcc)" opacity="0.7795748254208048"/><polyline points="31.4,-53.7 33.6,-52.5 36.3,-50.4 39.0,-49.8 41.6,-48.1 44.3,-46.7 47.1,-45.0 49.9,-43.8 52.6,-41.5 54.9,-38.8 56.7,-38.4 58.1,-36.4 59.2,-34.9 60.3,-33.0 61.4,-29.8 62.6,-27.9 63.9,-24.8 65.4,-23.9 66.8,-20.3 68.2,-18.8 69.5,-15.8 70.5,-13.4 71.3,-11.8 71.9,-8.9 72.4,-7.4 73.0,-4.7 73.8,-1.1 74.8,0.6 75.9,3.4 76.6,6.5 76.7,9.7" fill="none" stroke="rgb(44,34,43)" stroke-width="1.038172324893987" stroke-linejoin="round" stroke-linecap="round" filter="url(#fuzzy_av_1779093955003_s1dla7wyhcc)" opacity="0.8720651973642876"/><polyline points="31.4,-51.9 33.9,-52.5 36.2,-50.5 38.3,-49.3 40.1,-47.9 41.7,-46.2 43.1,-44.6 44.6,-42.9 46.1,-40.7 47.6,-40.7 49.1,-38.5 50.7,-36.1 52.2,-33.3 53.7,-31.5 55.2,-29.4 56.7,-28.1 58.0,-26.5 59.3,-23.2 60.4,-21.2 61.3,-18.1 62.2,-17.3 63.0,-13.8 63.6,-10.7 64.2,-8.1 64.6,-7.4 65.0,-4.0 65.6,-1.0 66.2,1.0 66.7,2.3 66.7,4.4" fill="none" stroke="rgb(44,34,43)" stroke-width="1.7791749431039965" stroke-linejoin="round" stroke-linecap="round" filter="url(#fuzzy_av_1779093955003_s1dla7wyhcc)" opacity="0.7605003541248146"/><polyline points="29.7,-52.9 31.6,-52.1 33.4,-50.6 35.2,-51.2 37.1,-49.0 38.9,-48.4 40.6,-46.7 42.3,-43.8 43.9,-42.6 45.4,-41.8 46.8,-39.2 48.1,-38.1 49.4,-35.9 50.6,-32.5 51.7,-30.7 52.7,-29.3 53.6,-27.4 54.4,-25.1 55.0,-22.5 55.6,-21.0 56.0,-19.4 56.4,-16.7 56.8,-14.4" fill="none" stroke="rgb(44,34,43)" stroke-width="0.8575864281762677" stroke-linejoin="round" stroke-linecap="round" filter="url(#fuzzy_av_1779093955003_s1dla7wyhcc)" opacity="0.7680268541874866"/><polyline points="17.4,-58.8 19.5,-56.8 22.0,-56.9 24.6,-56.7 27.0,-54.2 29.4,-53.8 31.6,-52.2 33.6,-51.7 35.5,-50.6 37.4,-49.8 39.2,-48.3 41.0,-46.7 42.9,-44.8 44.7,-43.1 46.4,-42.0 48.1,-40.2 49.6,-37.9 51.0,-36.2 52.3,-34.1 53.5,-31.4 54.6,-28.8 55.6,-26.7 56.5,-25.3 57.4,-22.8 58.1,-20.7 58.9,-19.0 59.6,-15.9 60.4,-14.4" fill="none" stroke="rgb(44,34,43)" stroke-width="1.2517416566962296" stroke-linejoin="round" stroke-linecap="round" filter="url(#fuzzy_av_1779093955003_s1dla7wyhcc)" opacity="0.8260574895280265"/><polyline points="15.1,-57.9 18.3,-56.7 22.2,-57.3 25.9,-57.0 29.3,-54.2 32.5,-55.0 35.7,-52.5 38.7,-52.4 41.6,-51.4 44.3,-49.0 46.8,-48.1 49.2,-46.2 51.4,-46.1 53.4,-43.4 55.3,-42.4 57.0,-40.0 58.7,-38.3 60.3,-37.4 62.0,-34.9 63.9,-31.9 66.0,-30.6 68.3,-29.5 70.7,-27.4 73.2,-23.6 75.8,-23.1 78.1,-20.8 80.3,-16.9" fill="none" stroke="rgb(44,34,43)" stroke-width="0.8161613207022816" stroke-linejoin="round" stroke-linecap="round" filter="url(#fuzzy_av_1779093955003_s1dla7wyhcc)" opacity="0.7744819272121568"/><polyline points="11.8,-59.9 15.1,-59.1 18.2,-57.7 21.0,-57.3 23.6,-57.2 26.3,-56.2 29.1,-55.5 32.0,-53.9 35.0,-52.5 37.8,-52.5 40.4,-50.5 43.0,-48.9 45.6,-46.8 48.2,-46.7 50.9,-43.9 53.6,-43.9 56.2,-41.3 58.6,-39.4 60.7,-38.2 62.4,-35.2 63.9,-33.7 65.3,-31.4 66.7,-28.5 68.6,-27.8 70.7,-25.4 73.1,-22.4 75.3,-19.7 77.4,-17.6 79.7,-15.5 82.9,-13.8" fill="none" stroke="rgb(44,34,43)" stroke-width="1.57451032644111" stroke-linejoin="round" stroke-linecap="round" filter="url(#fuzzy_av_1779093955003_s1dla7wyhcc)" opacity="0.9627396833099625"/><polyline points="11.8,-59.3 16.1,-57.5 18.3,-57.6 20.5,-57.7 23.1,-57.5 26.3,-56.7 29.8,-55.0 33.1,-54.6 36.1,-53.0 38.8,-52.4 41.3,-50.5 43.6,-49.8 45.7,-46.8 47.8,-46.8 49.5,-44.0 51.1,-42.4 52.4,-40.0 53.8,-39.0 55.2,-37.5 56.8,-35.2 58.8,-33.2 61.0,-30.7 63.4,-29.3 65.7,-27.7 67.7,-25.1 69.4,-22.6 70.7,-19.3 71.7,-16.8 72.5,-15.3 73.4,-13.8 74.4,-10.6 75.6,-8.0 76.8,-5.8 78.0,-4.0 78.9,0.0 79.4,1.5 79.6,4.0 79.8,5.3 80.7,8.3" fill="none" stroke="rgb(44,34,43)" stroke-width="1.72820832084911" stroke-linejoin="round" stroke-linecap="round" filter="url(#fuzzy_av_1779093955003_s1dla7wyhcc)" opacity="0.9298636744514478"/><polyline points="13.1,-58.3 14.4,-58.8 16.2,-57.6 18.8,-58.1 21.7,-57.0 24.6,-56.6 27.3,-55.2 29.8,-53.7 32.2,-53.9 34.4,-52.2 36.5,-50.4 38.5,-49.1 40.5,-48.6 42.5,-46.3 44.4,-44.9 46.2,-44.1 48.0,-41.2 49.7,-39.6 51.4,-37.7 53.1,-37.0 54.8,-33.5 56.3,-32.1 57.8,-29.4 59.1,-28.3 60.2,-25.6 61.3,-23.4 62.3,-20.7 63.3,-19.8 64.3,-16.7 65.4,-13.6 66.5,-12.1 67.5,-8.4 68.2,-5.9 68.5,-3.7 68.6,-0.9 68.7,-0.4 69.0,2.9 69.8,5.4" fill="none" stroke="rgb(44,34,43)" stroke-width="1.6265506032175332" stroke-linejoin="round" stroke-linecap="round" filter="url(#fuzzy_av_1779093955003_s1dla7wyhcc)" opacity="0.926104982230884"/><polyline points="7.6,-59.3 11.8,-59.0 14.6,-59.1 17.0,-59.1 19.5,-58.5 22.2,-57.1 25.3,-55.5 28.6,-55.0 32.0,-54.2 35.3,-53.7 38.3,-51.9 40.9,-51.0 43.3,-48.8 45.5,-47.9 47.6,-47.0 49.8,-45.1 51.9,-43.6 53.9,-42.7 56.0,-40.5 58.2,-38.4 61.0,-37.0 64.2,-35.8 67.6,-33.3 70.4,-31.0 72.7,-30.1" fill="none" stroke="rgb(44,34,43)" stroke-width="2.5114843444368047" stroke-linejoin="round" stroke-linecap="round" filter="url(#fuzzy_av_1779093955003_s1dla7wyhcc)" opacity="0.8482567675001824"/><polyline points="3.4,-59.0 6.9,-59.4 10.0,-58.6 13.2,-57.8 16.5,-58.3 20.0,-58.7 23.4,-56.4 26.6,-55.7 29.6,-55.9 32.5,-54.5 35.4,-54.1 38.4,-53.2 41.3,-52.2 44.3,-51.6 47.1,-49.7 49.7,-47.3 52.0,-47.5 54.3,-45.1 56.5,-44.0 59.0,-41.1 62.0,-41.0 65.4,-37.9 69.5,-37.3 74.8,-34.7" fill="none" stroke="rgb(44,34,43)" stroke-width="1.9233806001841247" stroke-linejoin="round" stroke-linecap="round" filter="url(#fuzzy_av_1779093955003_s1dla7wyhcc)" opacity="0.9516012620922552"/><polyline points="3.4,-58.7 6.8,-59.3 10.0,-58.8 12.7,-59.7 15.1,-59.3 17.4,-57.7 19.8,-57.4 22.2,-56.9 24.8,-56.3 27.4,-55.3 30.0,-53.7 32.6,-51.9 35.2,-51.3 37.6,-50.4 40.0,-49.0 42.2,-47.1 44.3,-45.8 46.3,-43.8 48.1,-42.8 50.0,-41.3 51.7,-39.0 53.3,-36.7 54.9,-34.9 56.5,-32.9 58.1,-30.5 59.6,-30.2 61.1,-27.5 62.5,-25.3 63.7,-23.1 64.9,-20.5 66.1,-18.2 67.4,-15.1 68.5,-12.7 69.6,-10.4" fill="none" stroke="rgb(44,34,43)" stroke-width="2.448328433595387" stroke-linejoin="round" stroke-linecap="round" filter="url(#fuzzy_av_1779093955003_s1dla7wyhcc)" opacity="0.817968907223702"/><polyline points="3.9,-59.2 5.6,-59.4 8.5,-58.9 11.5,-59.1 14.3,-58.7 16.8,-57.4 19.4,-58.1 22.0,-56.4 24.7,-56.2 27.5,-54.7 30.3,-53.5 32.9,-53.1 35.4,-51.5 37.8,-50.8 40.3,-49.6 42.7,-47.3 45.0,-46.9 47.3,-45.5 49.4,-44.8 51.4,-43.2 53.3,-41.3 55.2,-38.0 57.1,-37.7 59.1,-34.9 61.0,-33.3 63.1,-30.8 65.2,-29.7 67.4,-24.7" fill="none" stroke="rgb(44,34,43)" stroke-width="2.217644819566751" stroke-linejoin="round" stroke-linecap="round" filter="url(#fuzzy_av_1779093955003_s1dla7wyhcc)" opacity="0.8929262264405844"/><polyline points="-11.8,-58.4 -8.9,-57.5 -6.6,-57.9 -4.2,-58.3 -1.7,-59.4 0.9,-59.6 3.5,-60.0 6.2,-58.9 8.9,-58.4 11.5,-58.6 14.0,-59.0 16.5,-57.2 18.8,-56.7 21.2,-56.3 23.5,-56.1 25.8,-55.1 28.1,-54.6 30.2,-53.8 32.4,-51.2 34.4,-51.6 36.4,-48.5 38.3,-49.0 40.2,-46.7 42.0,-45.0 43.8,-44.0 45.5,-42.7 47.1,-40.2 48.6,-37.0 50.0,-36.8 51.3,-33.8 52.5,-31.6 53.5,-29.4" fill="none" stroke="rgb(44,34,43)" stroke-width="1.45949672753114" stroke-linejoin="round" stroke-linecap="round" filter="url(#fuzzy_av_1779093955003_s1dla7wyhcc)" opacity="0.9594777137136669"/><polyline points="-17.6,-56.6 -14.8,-57.8 -11.9,-57.5 -9.3,-59.0 -6.7,-59.4 -4.3,-59.8 -1.7,-59.8 0.8,-59.7 3.4,-59.8 6.1,-59.9 8.7,-57.9 11.2,-57.9 13.7,-59.2 16.1,-57.4 18.4,-57.8 20.7,-55.8 22.9,-55.1 25.1,-55.2 27.2,-53.0 29.3,-52.9 31.3,-51.8 33.2,-50.2 35.0,-49.9 36.8,-47.4 38.6,-46.4 40.3,-44.1 41.9,-44.0 43.4,-40.6 44.8,-40.1 46.1,-36.8 47.3,-35.4 48.4,-34.1 49.4,-31.7 50.2,-30.0 51.0,-28.6 51.6,-25.0 52.2,-22.1" fill="none" stroke="rgb(44,34,43)" stroke-width="0.8806715640543119" stroke-linejoin="round" stroke-linecap="round" filter="url(#fuzzy_av_1779093955003_s1dla7wyhcc)" opacity="0.7545903450608771"/><polyline points="-19.1,-55.1 -18.1,-55.5 -15.5,-56.2 -12.6,-57.9 -9.9,-58.2 -7.3,-58.6 -4.7,-58.5 -2.1,-58.7 0.6,-58.3 3.3,-58.8 6.2,-59.1 9.0,-58.6 11.9,-59.0 14.7,-58.8 17.5,-57.5 20.2,-57.0 22.8,-57.6 25.4,-55.9 28.0,-54.9 30.7,-53.4 33.4,-53.2 36.3,-52.3 39.1,-52.2 41.8,-50.0 44.4,-48.8 47.2,-46.8 50.0,-45.0" fill="none" stroke="rgb(44,34,43)" stroke-width="2.0384968220833892" stroke-linejoin="round" stroke-linecap="round" filter="url(#fuzzy_av_1779093955003_s1dla7wyhcc)" opacity="0.8657682488338947"/><polyline points="-19.1,-56.4 -17.4,-56.3 -15.0,-57.5 -12.4,-56.6 -9.8,-58.9 -7.2,-59.4 -4.6,-58.7 -1.9,-59.0 0.8,-58.2 3.6,-59.7 6.3,-59.8 9.1,-59.2 11.8,-59.0 14.4,-58.7 17.0,-57.0 19.5,-57.8 22.0,-56.9 24.5,-56.5 27.0,-54.2 29.5,-54.6 31.9,-53.7 34.2,-51.9 36.5,-50.8 38.8,-49.2 41.1,-47.9 43.3,-46.7 45.5,-46.1 47.6,-42.5 49.6,-41.5 51.5,-40.9 53.4,-37.8 55.3,-35.5 57.1,-33.4 58.8,-31.4 60.3,-30.2 61.3,-29.5" fill="none" stroke="rgb(44,34,43)" stroke-width="2.3605585229625863" stroke-linejoin="round" stroke-linecap="round" filter="url(#fuzzy_av_1779093955003_s1dla7wyhcc)" opacity="0.7599144041076669"/><polyline points="-21.5,-54.8 -19.9,-54.7 -17.6,-57.1 -15.1,-56.5 -12.4,-56.6 -9.8,-57.0 -7.2,-58.5 -4.7,-59.1 -2.0,-59.0 0.7,-58.4 3.5,-58.4 6.4,-58.4 9.4,-59.3 12.4,-58.1 15.3,-57.6 18.1,-58.9 20.9,-58.3 23.7,-56.2 26.5,-55.2 29.3,-54.3 32.2,-55.0 35.1,-53.2 37.9,-53.2 40.8,-50.7 43.6,-50.6 46.5,-49.4 49.7,-46.7" fill="none" stroke="rgb(44,34,43)" stroke-width="1.6791321538547477" stroke-linejoin="round" stroke-linecap="round" filter="url(#fuzzy_av_1779093955003_s1dla7wyhcc)" opacity="0.7899364715562358"/><polyline points="-30.6,-51.3 -26.7,-53.3 -24.1,-54.0 -21.8,-53.8 -19.6,-56.2 -17.3,-57.0 -14.9,-57.8 -12.4,-57.8 -9.9,-57.5 -7.4,-58.1 -4.9,-58.4 -2.3,-59.7 0.2,-58.2 2.9,-59.6 5.5,-59.2 8.2,-58.7 10.8,-59.5 13.4,-57.6 15.9,-57.5 18.3,-56.9 20.7,-56.9 23.1,-56.0 25.5,-55.0 27.9,-55.0 30.2,-54.0 32.4,-52.6 34.5,-50.7 36.8,-49.4" fill="none" stroke="rgb(44,34,43)" stroke-width="1.8833629490140893" stroke-linejoin="round" stroke-linecap="round" filter="url(#fuzzy_av_1779093955003_s1dla7wyhcc)" opacity="0.8829731362991666"/><polyline points="-31.3,-50.5 -29.0,-51.9 -26.3,-52.8 -23.7,-54.0 -21.2,-54.1 -18.9,-56.5 -16.6,-57.5 -14.1,-57.5 -11.5,-57.5 -8.8,-57.2 -6.0,-59.4 -3.1,-58.3 -0.2,-58.0 2.6,-58.8 5.5,-59.8 8.4,-59.3 11.2,-58.3 14.0,-59.3 16.8,-58.7 19.6,-58.3 22.5,-56.4 25.4,-56.0 28.5,-56.1 31.5,-53.7 34.5,-54.0 37.4,-53.0 40.2,-51.0 42.9,-50.7 45.6,-47.9 48.3,-47.4 51.0,-45.8 53.7,-45.1 56.8,-42.2" fill="none" stroke="rgb(44,34,43)" stroke-width="1.1212067113086728" stroke-linejoin="round" stroke-linecap="round" filter="url(#fuzzy_av_1779093955003_s1dla7wyhcc)" opacity="0.9172765472998603"/><polyline points="-33.2,-49.6 -32.1,-50.1 -29.9,-51.2 -27.2,-51.9 -24.4,-52.9 -21.7,-55.9 -19.2,-56.7 -16.7,-57.3 -14.3,-56.3 -11.7,-57.7 -9.0,-58.8 -6.2,-59.4 -3.4,-58.1 -0.6,-59.9 2.3,-60.0 5.1,-58.5 8.0,-59.3 10.9,-58.6 13.8,-58.5 16.6,-59.2 19.5,-58.5 22.5,-57.6 25.6,-56.1 28.7,-55.0 31.8,-54.7 34.6,-53.6 38.5,-52.6" fill="none" stroke="rgb(44,34,43)" stroke-width="2.331558277945428" stroke-linejoin="round" stroke-linecap="round" filter="url(#fuzzy_av_1779093955003_s1dla7wyhcc)" opacity="0.9699188864033381"/><polyline points="-34.7,-47.3 -32.5,-48.8 -29.9,-51.9 -27.1,-52.7 -24.6,-52.8 -22.2,-54.2 -19.9,-55.3 -17.6,-56.6 -15.2,-57.5 -12.7,-57.1 -10.2,-57.0 -7.6,-57.4 -5.1,-57.8 -2.5,-58.6 0.1,-59.8 2.8,-59.0 5.4,-58.7 8.1,-58.2 10.7,-59.3 13.3,-58.5 15.8,-58.6 18.3,-58.0 20.7,-57.9 23.2,-55.9 25.6,-56.3 28.0,-55.0 30.4,-53.8 32.7,-51.9 34.8,-50.5 37.1,-50.1" fill="none" stroke="rgb(44,34,43)" stroke-width="1.3144449083822787" stroke-linejoin="round" stroke-linecap="round" filter="url(#fuzzy_av_1779093955003_s1dla7wyhcc)" opacity="0.9898042321911923"/><polyline points="-35.6,-46.5 -33.5,-48.1 -31.3,-49.5 -28.9,-51.3 -26.5,-51.9 -24.0,-53.8 -21.6,-54.3 -19.3,-56.2 -16.9,-56.7 -14.4,-56.9 -11.7,-58.6 -8.9,-57.4 -6.1,-58.1 -3.1,-57.9 -0.2,-58.7 2.8,-59.6 5.8,-58.2 8.8,-59.3 11.9,-59.0 15.0,-57.3 18.3,-58.6 21.5,-58.4 24.9,-57.7 28.2,-55.3 31.5,-55.8 34.7,-54.4 37.8,-52.8 40.8,-52.7 43.7,-51.5 46.4,-50.6 49.0,-48.2 51.4,-46.9 53.9,-46.1 56.5,-44.8 59.3,-43.3 62.1,-40.1 65.1,-38.5 67.9,-37.0 70.2,-37.2" fill="none" stroke="rgb(44,34,43)" stroke-width="1.3043255610941236" stroke-linejoin="round" stroke-linecap="round" filter="url(#fuzzy_av_1779093955003_s1dla7wyhcc)" opacity="0.764271547128666"/><polyline points="-36.7,-47.1 -33.9,-47.9 -30.9,-49.0 -28.1,-51.3 -25.3,-53.1 -22.5,-53.5 -19.8,-54.2 -17.4,-55.9 -15.1,-55.4 -12.9,-56.0 -10.7,-57.9 -8.5,-57.1 -6.4,-57.8 -4.3,-58.7 -2.2,-58.7 -0.1,-59.3 2.0,-59.1 4.0,-59.5 5.9,-59.5 7.7,-58.7 9.3,-58.5 10.8,-57.5 12.1,-57.6 13.4,-56.3 14.5,-56.5 15.5,-55.0 16.5,-55.1 17.4,-52.7 18.2,-53.2 18.8,-51.8 19.1,-50.1 19.0,-48.5 18.8,-47.9 18.8,-46.4" fill="none" stroke="rgb(44,34,43)" stroke-width="2.205193235744728" stroke-linejoin="round" stroke-linecap="round" filter="url(#fuzzy_av_1779093955003_s1dla7wyhcc)" opacity="0.8351581798522882"/><polyline points="-38.3,-45.7 -37.1,-46.5 -35.8,-47.5 -34.5,-47.9 -33.0,-50.0 -31.1,-52.1 -28.8,-52.8 -26.2,-53.8 -23.5,-53.7 -20.8,-56.0 -18.1,-57.3 -15.4,-56.9 -12.6,-57.3 -9.7,-58.6 -6.6,-57.6 -3.5,-59.4 -0.4,-58.5 2.9,-59.1 6.2,-59.4 9.6,-58.4 13.0,-58.4 16.4,-57.7 19.7,-58.5 23.0,-56.8 26.2,-57.3 29.4,-57.3 32.8,-55.6 36.4,-55.6 40.4,-54.4 44.8,-52.4 49.9,-51.1 55.0,-49.9" fill="none" stroke="rgb(44,34,43)" stroke-width="1.6526417215573077" stroke-linejoin="round" stroke-linecap="round" filter="url(#fuzzy_av_1779093955003_s1dla7wyhcc)" opacity="0.9451233381729833"/><polyline points="-39.7,-43.7 -38.7,-45.9 -37.0,-46.8 -35.0,-47.1 -32.7,-49.5 -30.2,-51.3 -27.7,-51.0 -25.3,-52.8 -23.0,-54.5 -20.8,-56.2 -18.6,-55.0 -16.3,-56.6 -13.8,-57.4 -11.3,-57.3 -8.6,-58.4 -6.0,-59.0 -3.3,-58.9 -0.6,-59.8 2.3,-58.4 5.2,-59.9 8.2,-60.1 11.3,-59.0 14.2,-58.7 17.0,-59.1 19.6,-57.9" fill="none" stroke="rgb(44,34,43)" stroke-width="2.584022658642432" stroke-linejoin="round" stroke-linecap="round" filter="url(#fuzzy_av_1779093955003_s1dla7wyhcc)" opacity="0.7528612484502266"/><polyline points="-49.5,-33.0 -51.4,-35.4 -51.2,-36.4 -50.3,-37.9 -48.8,-40.5 -47.0,-42.2 -45.0,-42.9 -43.0,-44.6 -41.2,-45.2 -39.7,-48.4 -38.2,-49.5 -36.5,-49.8 -34.5,-51.1 -32.0,-52.5 -29.2,-54.3 -26.2,-55.3 -23.0,-56.6 -19.9,-57.2 -16.9,-56.4 -13.9,-57.2 -11.0,-58.7 -8.0,-58.2 -4.9,-59.9 -1.6,-59.5 1.9,-58.7 5.6,-60.2 9.7,-60.1" fill="none" stroke="rgb(44,34,43)" stroke-width="1.9425440603859183" stroke-linejoin="round" stroke-linecap="round" filter="url(#fuzzy_av_1779093955003_s1dla7wyhcc)" opacity="0.8070334577388558"/><polyline points="-53.0,-26.2 -54.0,-22.9 -55.6,-21.7 -56.9,-19.9 -57.9,-16.4 -58.9,-15.3 -60.1,-13.3 -61.5,-10.9 -62.8,-8.8 -63.8,-6.4 -64.1,-3.8 -63.9,-3.2 -63.3,-1.2 -62.5,0.7 -61.9,2.7 -61.5,5.6 -61.3,8.5 -61.1,10.9 -60.8,12.7 -60.2,15.4 -59.3,17.2 -58.2,17.6 -57.0,20.2 -55.8,22.5 -54.7,23.2 -53.4,26.2 -51.9,26.5 -50.3,29.0 -48.7,29.3 -47.0,31.6 -45.8,33.0" fill="none" stroke="rgb(44,34,43)" stroke-width="1.520070092604021" stroke-linejoin="round" stroke-linecap="round" filter="url(#fuzzy_av_1779093955003_s1dla7wyhcc)" opacity="0.8896039996212666"/><polyline points="-53.4,-23.2 -54.1,-22.3 -54.7,-20.4 -55.2,-18.4 -55.6,-15.9 -56.1,-14.3 -56.7,-11.9 -57.5,-9.7 -58.4,-8.5 -59.3,-4.8 -60.1,-2.6 -60.9,-0.3 -61.5,0.7 -61.9,2.6 -62.1,5.7 -62.2,7.4 -62.0,10.6 -61.6,11.4 -61.0,13.9 -60.3,14.6 -59.4,16.5 -58.3,19.1 -57.0,20.0 -55.5,23.7 -54.0,25.1 -52.7,27.2 -51.1,27.8 -48.1,31.5" fill="none" stroke="rgb(44,34,43)" stroke-width="1.5259512976848923" stroke-linejoin="round" stroke-linecap="round" filter="url(#fuzzy_av_1779093955003_s1dla7wyhcc)" opacity="0.8821076379953189"/><polyline points="-53.4,-24.7 -54.2,-22.8 -54.8,-20.1 -55.4,-18.1 -56.2,-17.3 -57.0,-15.2 -57.8,-13.3 -58.5,-9.8 -59.0,-8.3 -59.3,-4.8 -59.4,-3.1 -59.4,-1.9 -59.3,0.5 -59.3,2.4 -59.5,6.1 -59.9,8.2 -60.2,10.3 -60.2,12.3 -59.8,12.8 -58.8,15.1 -57.8,17.5 -56.8,19.3 -55.7,21.2 -53.8,23.0" fill="none" stroke="rgb(44,34,43)" stroke-width="1.1882418658206872" stroke-linejoin="round" stroke-linecap="round" filter="url(#fuzzy_av_1779093955003_s1dla7wyhcc)" opacity="0.8241375314747541"/><polyline points="-54.8,-19.4 -55.6,-17.2 -57.1,-16.6 -57.9,-14.6 -58.0,-11.2 -57.7,-9.8 -57.2,-7.9 -56.8,-4.9 -56.4,-3.3 -56.2,-1.5 -56.1,1.0 -56.1,3.8 -55.9,5.7 -55.6,8.6 -55.0,9.9 -54.2,13.0 -53.2,13.4 -52.1,15.1 -50.9,17.2 -49.7,19.1 -48.3,21.7 -46.9,23.2 -45.3,25.6 -43.7,27.2 -42.1,27.4 -40.5,30.9 -38.9,32.1 -37.4,32.5 -35.9,33.8 -34.2,36.1 -32.3,35.9 -30.1,38.3 -27.6,38.3 -25.0,41.1 -21.9,41.4" fill="none" stroke="rgb(44,34,43)" stroke-width="2.4185756929584556" stroke-linejoin="round" stroke-linecap="round" filter="url(#fuzzy_av_1779093955003_s1dla7wyhcc)" opacity="0.8861705947564172"/><polyline points="-55.2,-16.8 -55.3,-14.4 -55.1,-11.7 -54.5,-10.0 -53.7,-8.1 -52.6,-6.8 -51.1,-3.4 -49.2,-3.1 -47.2,0.3 -45.1,1.2 -43.2,4.0 -41.6,6.6 -40.3,8.1 -39.3,9.8 -38.4,11.7 -37.5,15.6 -36.6,17.0 -35.5,18.2 -34.2,19.5 -32.8,22.4 -31.2,23.8 -29.4,24.9 -27.5,28.0 -25.6,29.1 -23.8,30.1 -22.1,31.5 -20.4,33.9 -18.2,34.8 -15.4,36.5" fill="none" stroke="rgb(44,34,43)" stroke-width="1.5412481539042968" stroke-linejoin="round" stroke-linecap="round" filter="url(#fuzzy_av_1779093955003_s1dla7wyhcc)" opacity="0.777512636272029"/><polyline points="-55.3,-16.4 -55.4,-13.5 -55.5,-11.7 -55.5,-9.0 -55.5,-6.5 -55.4,-4.5 -55.2,-3.3 -55.1,-1.3 -54.9,1.7 -54.7,4.1 -54.3,5.6 -53.7,7.3 -53.0,9.5 -52.2,12.8 -51.3,14.1 -50.2,15.2 -49.1,17.2 -47.9,19.1 -46.6,20.8 -45.1,23.8 -43.7,25.6 -42.1,27.3 -40.5,29.0 -38.9,29.3 -37.2,30.8 -35.6,32.0 -33.8,35.3 -32.0,35.9 -29.9,36.6 -27.7,37.4 -25.3,39.0 -22.8,39.6 -20.4,40.4 -18.8,42.5" fill="none" stroke="rgb(44,34,43)" stroke-width="1.668168333674278" stroke-linejoin="round" stroke-linecap="round" filter="url(#fuzzy_av_1779093955003_s1dla7wyhcc)" opacity="0.7720995505291602"/><polyline points="-55.6,-12.7 -55.5,-10.6 -55.5,-7.1 -55.5,-4.1 -55.4,-2.5 -55.2,-1.2 -54.9,2.8 -54.4,4.9 -53.8,7.0 -53.3,9.2 -52.7,11.0 -52.2,12.9 -51.6,14.9 -51.0,15.5 -50.3,17.9 -49.5,19.3 -48.6,21.2 -47.5,22.9 -46.2,24.2 -44.7,26.2 -43.0,28.5 -41.1,29.3 -39.0,31.1 -36.9,33.1 -34.7,33.9 -32.5,36.6 -30.2,36.0 -27.9,37.5 -25.6,39.5 -23.3,39.6 -21.0,40.5 -18.6,42.9 -16.1,43.7 -13.6,44.4 -11.3,44.1 -9.1,43.5 -6.9,43.7" fill="none" stroke="rgb(44,34,43)" stroke-width="1.7129578534352345" stroke-linejoin="round" stroke-linecap="round" filter="url(#fuzzy_av_1779093955003_s1dla7wyhcc)" opacity="0.8972657890934858"/><polyline points="-54.9,-3.3 -54.9,-0.5 -54.3,1.4 -53.5,4.1 -52.7,6.6 -52.0,9.5 -51.2,12.1 -50.4,13.3 -49.5,15.3 -48.5,17.2 -47.4,18.7 -46.1,20.3 -44.6,23.0 -43.1,24.5 -41.4,26.3 -39.7,27.6 -37.9,28.3 -36.1,30.7 -34.3,32.9 -32.4,34.0 -30.5,34.2 -28.6,35.4 -26.7,37.0 -24.8,39.3 -22.8,38.9 -20.7,41.5 -18.6,40.5 -16.4,42.8 -14.1,42.5 -11.6,44.5 -9.0,44.3 -6.4,44.9 -4.0,45.3 -1.8,46.0" fill="none" stroke="rgb(44,34,43)" stroke-width="2.337141680417429" stroke-linejoin="round" stroke-linecap="round" filter="url(#fuzzy_av_1779093955003_s1dla7wyhcc)" opacity="0.9878855705492016"/><polyline points="-54.9,-3.7 -54.6,-0.3 -54.1,2.6 -53.5,4.2 -52.6,6.5 -51.6,9.1 -50.6,10.8 -49.5,12.4 -48.4,16.4 -47.5,18.1 -46.5,18.7 -45.5,20.0 -44.5,21.8 -43.3,24.9 -42.0,26.3 -40.5,28.1 -38.9,29.2 -37.1,29.8 -35.2,31.8 -33.3,33.2 -31.3,35.4 -29.3,35.9 -27.2,37.0 -25.1,37.9 -23.0,40.3 -20.9,40.4 -18.8,42.0 -16.6,41.7 -14.3,42.0 -11.8,43.1 -9.1,43.3 -6.4,44.4 -4.1,45.5" fill="none" stroke="rgb(44,34,43)" stroke-width="2.09162809081942" stroke-linejoin="round" stroke-linecap="round" filter="url(#fuzzy_av_1779093955003_s1dla7wyhcc)" opacity="0.9418530837103563"/><polyline points="-53.9,0.5 -54.6,4.9 -55.2,6.9 -55.2,8.8 -54.5,10.5 -53.5,13.6 -52.3,13.6 -51.2,15.5 -50.1,19.0 -49.1,19.1 -48.0,21.2 -46.6,22.7 -45.1,24.2 -43.6,27.5 -42.0,28.4 -40.5,29.7 -39.1,31.8 -37.9,32.9 -36.7,34.5 -35.4,35.3 -33.8,37.3 -31.8,37.5 -29.4,39.2" fill="none" stroke="rgb(44,34,43)" stroke-width="0.8193553585934977" stroke-linejoin="round" stroke-linecap="round" filter="url(#fuzzy_av_1779093955003_s1dla7wyhcc)" opacity="0.9064262752206631"/><polyline points="-46.3,18.5 -45.1,20.6 -43.2,20.2 -40.6,22.1 -38.1,25.7 -36.1,27.2 -34.6,27.7 -33.3,30.5 -31.8,30.2 -29.9,32.3 -27.6,34.5 -25.2,35.3 -22.6,36.3 -20.3,37.6 -18.2,39.1 -16.2,39.2 -14.4,41.1 -12.7,41.2 -10.9,42.5 -9.1,43.0 -7.2,43.2 -5.3,44.4 -3.2,44.2" fill="none" stroke="rgb(44,34,43)" stroke-width="1.369597694189701" stroke-linejoin="round" stroke-linecap="round" filter="url(#fuzzy_av_1779093955003_s1dla7wyhcc)" opacity="0.7772957323028455"/><polyline points="-45.3,19.9 -43.2,22.5 -41.5,25.9 -39.9,26.2 -38.3,29.4 -36.6,29.6 -34.8,31.1 -32.8,32.3 -30.9,33.5 -28.9,34.6 -26.9,36.0 -24.9,37.8 -22.9,39.0 -20.9,40.4 -18.8,41.7 -16.7,40.9 -14.5,42.5 -12.3,43.7 -10.0,44.0 -7.6,43.4 -5.3,45.3 -2.9,44.6 -0.6,44.9 1.7,45.6 3.9,45.8 6.1,45.9 8.5,45.8 10.9,45.6 13.6,45.0 16.5,43.8 19.1,42.6" fill="none" stroke="rgb(44,34,43)" stroke-width="2.061501941050752" stroke-linejoin="round" stroke-linecap="round" filter="url(#fuzzy_av_1779093955003_s1dla7wyhcc)" opacity="0.8537076852423142"/><polyline points="-42.5,24.1 -41.4,24.2 -40.2,25.7 -38.7,27.6 -37.1,29.2 -35.4,30.7 -33.7,32.5 -32.0,33.6 -30.3,35.5 -28.4,36.6 -26.5,36.4 -24.4,38.7 -22.3,40.3 -20.1,40.9 -17.8,40.5 -15.6,42.4 -13.4,43.5 -11.3,43.1 -9.1,44.1 -7.0,44.2 -4.8,45.2 -2.4,44.5 0.0,45.5 2.6,46.1 5.3,44.9 7.9,45.2 10.5,45.6 13.0,44.2 15.8,43.8 19.8,42.4" fill="none" stroke="rgb(44,34,43)" stroke-width="2.5393174032032446" stroke-linejoin="round" stroke-linecap="round" filter="url(#fuzzy_av_1779093955003_s1dla7wyhcc)" opacity="0.8823459909530307"/><polyline points="-42.5,23.6 -41.6,24.6 -40.8,26.1 -39.5,28.8 -37.7,29.2 -35.9,31.7 -34.1,33.1 -32.2,33.1 -30.2,35.2 -28.2,36.9 -26.1,37.3 -23.9,38.7 -21.7,38.9 -19.5,41.3 -17.3,41.0 -15.1,42.4 -13.0,42.7 -10.8,42.9 -8.7,44.7 -6.6,44.9 -4.4,44.7 -2.0,45.1 0.4,44.6 2.9,44.2 5.5,45.1 8.0,45.7 10.6,45.0 13.2,44.9 15.7,44.4 18.1,42.5 20.3,43.2 22.3,42.5 24.1,40.9 26.2,41.1" fill="none" stroke="rgb(44,34,43)" stroke-width="1.6388037432346747" stroke-linejoin="round" stroke-linecap="round" filter="url(#fuzzy_av_1779093955003_s1dla7wyhcc)" opacity="0.7628875085793279"/><polyline points="-38.6,27.1 -40.9,28.4 -39.1,30.8 -36.9,30.8 -34.9,32.0 -33.3,34.9 -31.9,36.3 -30.5,36.0 -29.0,37.7 -27.2,38.7 -25.1,39.2 -22.8,40.0 -20.4,40.8 -17.9,42.7 -15.4,43.6 -12.8,42.9 -10.1,44.1 -7.2,44.2 -4.1,45.0 -1.0,44.8 2.1,45.8 5.0,44.7 7.0,45.0" fill="none" stroke="rgb(44,34,43)" stroke-width="2.2685210846720576" stroke-linejoin="round" stroke-linecap="round" filter="url(#fuzzy_av_1779093955003_s1dla7wyhcc)" opacity="0.8169586101994175"/><polyline points="-38.6,27.7 -37.4,28.3 -36.2,29.5 -34.5,31.9 -32.6,33.0 -30.5,34.7 -28.5,34.8 -26.5,36.1 -24.5,38.5 -22.5,38.4 -20.5,39.9 -18.4,40.1 -16.2,41.1 -14.0,42.1 -11.8,42.2 -9.4,44.1 -7.1,44.0 -4.8,44.0 -2.4,44.4 -0.1,43.9 2.2,44.5 4.5,45.5 6.9,43.9 9.2,43.6 11.6,44.3 14.1,43.8 16.5,44.1 18.8,42.9 21.1,40.8 23.3,42.0 25.3,40.2 27.3,39.8 29.3,38.0 31.3,36.5 33.3,36.1 35.3,33.7 37.2,32.7 39.1,31.8 40.9,30.7" fill="none" stroke="rgb(44,34,43)" stroke-width="2.055342447506448" stroke-linejoin="round" stroke-linecap="round" filter="url(#fuzzy_av_1779093955003_s1dla7wyhcc)" opacity="0.9500072991207351"/></g><path d="M -8.691922754687736 7.821270000634561 Q 7.756684680393514 5.736923023539896, -0.46761903714711117 4.722926024574004" fill="none" stroke="#111" stroke-width="2.652473272613549" stroke-linejoin="round" filter="url(#fuzzy_av_1779093955003_s1dla7wyhcc)"/><polyline points="-38.2,20.0 -37.6,20.6 -37.0,21.3 -36.4,21.9 -35.7,22.5 -35.1,23.0 -34.4,23.6 -33.8,24.2 -33.1,24.8 -32.4,25.3 -31.7,25.9 -31.1,26.5 -30.4,27.0 -29.7,27.5 -28.9,28.1 -28.2,28.6 -27.5,29.1 -26.8,29.6 -26.0,30.1 -25.3,30.5 -24.6,31.0 -23.8,31.5 -23.1,31.9 -22.3,32.4 -21.5,32.8 -20.8,33.2 -20.0,33.6 -19.2,34.0 -18.4,34.4 -17.6,34.7 -16.8,35.1 -16.0,35.4 -15.2,35.8 -14.4,36.1 -13.6,36.4 -12.8,36.7 -12.0,36.9 -11.1,37.2 -10.3,37.5 -9.5,37.7 -8.7,37.9 -7.8,38.1 -7.0,38.3 -6.1,38.4 -5.3,38.6 -4.5,38.7 -3.6,38.9 -2.8,39.0 -1.9,39.0 -1.0,39.1 -0.2,39.2 0.7,39.2 1.5,39.2 2.4,39.2 3.2,39.2 4.1,39.1 5.0,39.1 5.8,39.0 6.7,38.9 7.6,38.7 8.4,38.6 9.3,38.4 10.1,38.3 11.0,38.1 11.9,37.8 12.7,37.6 13.6,37.3 14.5,37.0 15.3,36.7 16.2,36.4 17.1,36.0 17.9,35.6 18.8,35.2 19.6,34.8 20.5,34.3 21.3,33.8 22.2,33.3 23.0,32.8 23.9,32.2 24.7,31.7 25.6,31.0 26.4,30.4 27.3,29.8 28.1,29.1 28.9,28.4 29.8,27.6 30.6,26.9 31.4,26.1 32.2,25.2 33.0,24.4 33.9,23.5 34.7,22.6 35.5,21.7 36.3,20.7 37.1,19.7 37.9,18.7 38.6,17.7 39.4,16.6 40.2,15.5 41.0,14.3 41.8,13.1 41.0,14.3 40.2,15.5 39.4,16.6 38.6,17.7 37.9,18.7 37.1,19.7 36.3,20.7 35.5,21.7 34.7,22.6 33.9,23.5 33.0,24.4 32.2,25.2 31.4,26.1 30.6,26.9 29.8,27.6 28.9,28.4 28.1,29.1 27.3,29.8 26.4,30.4 25.6,31.0 24.7,31.7 23.9,32.2 23.0,32.8 22.2,33.3 21.3,33.8 20.5,34.3 19.6,34.8 18.8,35.2 17.9,35.6 17.1,36.0 16.2,36.4 15.3,36.7 14.5,37.0 13.6,37.3 12.7,37.6 11.9,37.8 11.0,38.1 10.1,38.3 9.3,38.4 8.4,38.6 7.6,38.7 6.7,38.9 5.8,39.0 5.0,39.1 4.1,39.1 3.2,39.2 2.4,39.2 1.5,39.2 0.7,39.2 -0.2,39.2 -1.0,39.1 -1.9,39.0 -2.8,39.0 -3.6,38.9 -4.5,38.7 -5.3,38.6 -6.1,38.4 -7.0,38.3 -7.8,38.1 -8.7,37.9 -9.5,37.7 -10.3,37.5 -11.1,37.2 -12.0,36.9 -12.8,36.7 -13.6,36.4 -14.4,36.1 -15.2,35.8 -16.0,35.4 -16.8,35.1 -17.6,34.7 -18.4,34.4 -19.2,34.0 -20.0,33.6 -20.8,33.2 -21.5,32.8 -22.3,32.4 -23.1,31.9 -23.8,31.5 -24.6,31.0 -25.3,30.5 -26.0,30.1 -26.8,29.6 -27.5,29.1 -28.2,28.6 -28.9,28.1 -29.7,27.5 -30.4,27.0 -31.1,26.5 -31.7,25.9 -32.4,25.3 -33.1,24.8 -33.8,24.2 -34.4,23.6 -35.1,23.0 -35.7,22.5 -36.4,21.9 -37.0,21.3 -37.6,20.6" fill="rgb(215,127,140)" stroke="#111" stroke-width="2.5038450879069667" stroke-linejoin="round" filter="url(#fuzzy_av_1779093955003_s1dla7wyhcc)"/></g><g class="accessory-svg accessory-speech" transform="translate(66.5 -23.9) rotate(0.9) scale(1.044)">
      <path d="M-11-7h22v13H1l-6 6 1-6h-7z" fill="#f8fafc" stroke="#111827" stroke-width="1.1"/><circle cx="-5" cy="0" r="1.3" fill="#EC4899"/><circle cx="0" cy="0" r="1.3" fill="#EC4899"/><circle cx="5" cy="0" r="1.3" fill="#EC4899"/>
    </g><g class="accessory-svg accessory-tea" transform="translate(17.2 69.6) rotate(-2.4) scale(1.057)">
      <path d="M-8 -1h14v8a6 6 0 0 1-6 6h-2a6 6 0 0 1-6-6z" fill="#f8fafc" stroke="#111827" stroke-width="1.2"/><path d="M6 1h4a3 3 0 0 1 0 6H6" fill="none" stroke="#111827" stroke-width="1.2"/><path d="M-5 -5c2-2-1-3 1-5M0-5c2-2-1-3 1-5M5-5c2-2-1-3 1-5" stroke="#DB2777" stroke-width="1" stroke-linecap="round" opacity=".7"/><ellipse cx="-1" cy="-1" rx="7" ry="2" fill="#EC4899" opacity=".25"/>
    </g><g class="accessory-svg accessory-flower" transform="translate(-69.4 7.6) rotate(-11.3) scale(1.337)">
      <circle cx="0" cy="0" r="3" fill="#fbbf24" stroke="#111827" stroke-width=".8"/><g fill="#ef4444" stroke="#111827" stroke-width=".7"><ellipse cx="0" cy="-7" rx="3" ry="5"/><ellipse cx="0" cy="7" rx="3" ry="5"/><ellipse cx="-7" cy="0" rx="5" ry="3"/><ellipse cx="7" cy="0" rx="5" ry="3"/></g><path d="M0 3v9" stroke="#22c55e" stroke-width="1.3"/>
    </g><g class="accessory-svg accessory-gift" transform="translate(-12.9 -66.8) rotate(9.8) scale(1.333)">
      <rect x="-10" y="-2" width="20" height="14" rx="2" fill="#ef4444" stroke="#111827" stroke-width="1.1"/><rect x="-12" y="-7" width="24" height="6" rx="1.5" fill="#fbbf24" stroke="#111827" stroke-width="1"/><path d="M0-7v19" stroke="#f8fafc" stroke-width="1.3"/><path d="M0-7c-8-8-10 1 0 0 8-8 10 1 0 0z" fill="none" stroke="#111827" stroke-width="1"/>
    </g></svg>