<svg xmlns="http://www.w3.org/2000/svg" viewBox="-100 -100 200 200" width="400" height="400" role="img" aria-label="职场空气 avatar"><defs>
      <filter id="fuzzy_av_1779093955006_znw1h2173z" x="-8%" y="-8%" width="116%" height="116%">
        <feTurbulence baseFrequency="0.045" numOctaves="3" type="fractalNoise" result="noise"/>
        <feDisplacementMap in="SourceGraphic" in2="noise" scale="1.6"/>
      </filter>
      <clipPath id="leftEye_av_1779093955006_znw1h2173z"><polyline points="-20.6,4.8 -20.5,4.4 -20.4,4.0 -20.3,3.6 -20.2,3.1 -20.0,2.7 -19.8,2.2 -19.6,1.8 -19.3,1.4 -19.1,0.9 -18.8,0.5 -18.4,0.0 -18.1,-0.4 -17.7,-0.9 -17.4,-1.3 -17.0,-1.7 -16.6,-2.3 -16.3,-2.8 -15.8,-3.4 -15.4,-3.9 -14.9,-4.4 -14.4,-4.9 -13.8,-5.4 -13.2,-5.8 -12.6,-6.2 -11.9,-6.6 -11.3,-7.0 -10.6,-7.3 -9.8,-7.6 -9.1,-7.9 -8.3,-8.1 -7.5,-8.3 -6.7,-8.5 -5.9,-8.6 -5.1,-8.7 -4.3,-8.8 -3.5,-8.8 -2.7,-8.8 -1.9,-8.8 -1.1,-8.8 -0.3,-8.7 0.5,-8.6 1.3,-8.5 2.1,-8.3 2.8,-8.2 3.5,-8.0 4.3,-7.7 5.0,-7.5 5.6,-7.2 6.3,-7.0 6.9,-6.7 7.5,-6.3 8.1,-6.0 8.7,-5.7 9.2,-5.3 9.8,-5.0 10.3,-4.6 10.7,-4.2 11.2,-3.8 11.6,-3.4 12.0,-3.0 12.4,-2.7 12.8,-2.3 13.1,-1.9 13.4,-1.5 13.7,-1.1 14.0,-0.7 14.3,-0.3 14.5,0.1 14.8,0.5 15.0,0.8 15.2,1.2 15.4,1.6 15.5,1.9 15.7,2.3 15.8,2.7 16.0,3.0 16.1,3.4 16.2,3.7 16.3,4.0 15.7,5.7 15.5,5.9 15.2,6.0 15.0,6.2 14.7,6.4 14.5,6.6 14.2,6.7 13.9,6.9 13.7,7.0 13.4,7.1 13.1,7.3 12.8,7.4 12.5,7.5 12.1,7.6 11.8,7.7 11.5,7.8 11.1,7.9 10.8,7.9 10.4,8.0 10.0,8.1 9.6,8.1 9.2,8.2 8.8,8.3 8.4,8.3 8.0,8.3 7.5,8.4 7.1,8.4 6.6,8.4 6.1,8.5 5.7,8.5 5.2,8.5 4.7,8.6 4.1,8.6 3.6,8.6 3.1,8.6 2.5,8.6 2.0,8.7 1.4,8.7 0.9,8.7 0.3,8.7 -0.3,8.7 -0.9,8.8 -1.5,8.8 -2.1,8.8 -2.7,8.8 -3.3,8.8 -3.9,8.9 -4.5,8.9 -5.1,8.9 -5.7,8.9 -6.3,9.0 -6.8,9.0 -7.4,9.0 -8.0,9.0 -8.6,9.0 -9.2,9.1 -9.7,9.1 -10.3,9.1 -10.8,9.1 -11.4,9.1 -11.9,9.0 -12.4,9.0 -12.9,9.0 -13.4,9.0 -13.9,8.9 -14.3,8.8 -14.7,8.8 -15.2,8.7 -15.6,8.5 -16.0,8.4 -16.4,8.3 -16.7,8.1 -17.1,7.9 -17.5,7.7 -17.8,7.5 -18.2,7.2 -18.5,7.0 -18.8,6.7 -19.1,6.4 -19.4,6.0"/></clipPath>
      <clipPath id="rightEye_av_1779093955006_znw1h2173z"><polyline points="-21.6,4.2 -21.5,3.7 -21.3,3.1 -21.2,2.5 -21.0,1.9 -20.8,1.3 -20.5,0.7 -20.3,0.1 -20.0,-0.5 -19.7,-1.1 -19.4,-1.6 -19.1,-2.2 -18.7,-2.8 -18.4,-3.3 -18.0,-3.8 -17.5,-4.3 -17.2,-5.1 -16.8,-5.8 -16.4,-6.6 -15.9,-7.2 -15.5,-7.8 -14.9,-8.4 -14.4,-9.0 -13.8,-9.5 -13.1,-9.9 -12.5,-10.4 -11.8,-10.7 -11.1,-11.1 -10.4,-11.3 -9.6,-11.6 -8.9,-11.8 -8.1,-11.9 -7.3,-12.0 -6.5,-12.1 -5.7,-12.1 -4.9,-12.1 -4.1,-12.0 -3.3,-11.9 -2.5,-11.8 -1.7,-11.6 -0.9,-11.4 -0.1,-11.1 0.7,-10.9 1.5,-10.6 2.2,-10.2 3.0,-9.9 3.7,-9.5 4.4,-9.1 5.1,-8.7 5.7,-8.3 6.4,-7.8 7.0,-7.4 7.6,-6.9 8.2,-6.4 8.7,-5.9 9.3,-5.4 9.8,-4.9 10.3,-4.4 10.7,-3.9 11.2,-3.4 11.6,-2.9 12.0,-2.4 12.4,-1.9 12.7,-1.4 13.1,-0.9 13.4,-0.4 13.7,0.1 14.0,0.6 14.3,1.1 14.6,1.5 14.8,2.0 15.0,2.4 15.3,2.9 15.5,3.3 15.6,3.8 15.8,4.2 16.0,4.6 16.1,5.0 16.3,5.4 16.4,5.8 16.1,6.7 15.9,6.9 15.7,7.2 15.5,7.4 15.2,7.7 15.0,7.9 14.8,8.1 14.5,8.3 14.3,8.5 14.0,8.7 13.7,8.9 13.5,9.1 13.2,9.2 12.9,9.4 12.6,9.5 12.2,9.7 11.9,9.8 11.6,9.9 11.2,10.0 10.9,10.1 10.5,10.2 10.1,10.3 9.7,10.4 9.3,10.5 8.8,10.6 8.4,10.7 8.0,10.7 7.5,10.8 7.0,10.9 6.5,10.9 6.0,11.0 5.5,11.0 4.9,11.1 4.4,11.1 3.8,11.2 3.2,11.2 2.7,11.3 2.1,11.3 1.5,11.3 0.9,11.4 0.2,11.4 -0.4,11.4 -1.0,11.5 -1.7,11.5 -2.3,11.5 -2.9,11.6 -3.6,11.6 -4.2,11.6 -4.9,11.6 -5.5,11.6 -6.2,11.6 -6.8,11.7 -7.4,11.7 -8.1,11.6 -8.7,11.6 -9.3,11.6 -9.9,11.6 -10.5,11.6 -11.0,11.5 -11.6,11.5 -12.1,11.4 -12.7,11.3 -13.2,11.2 -13.7,11.1 -14.2,11.0 -14.6,10.9 -15.1,10.7 -15.5,10.5 -15.9,10.3 -16.4,10.1 -16.8,9.8 -17.2,9.6 -17.5,9.3 -17.9,8.9 -18.3,8.6 -18.6,8.2 -18.9,7.8 -19.2,7.4 -19.5,6.9 -19.8,6.4"/></clipPath>
      <linearGradient id="rainbow_av_1779093955006_znw1h2173z" x1="0%" y1="0%" x2="100%" y2="0%">
        <stop offset="0%" stop-color="#E5E7EB"/><stop offset="50%" stop-color="#22D3EE"/><stop offset="100%" stop-color="#D1D5DB"/>
      </linearGradient>
      <linearGradient id="splitHair_av_1779093955006_znw1h2173z" x1="0%" y1="0%" x2="100%" y2="0%">
        <stop offset="49%" stop-color="#111827"/><stop offset="51%" stop-color="#F9FAFB"/>
      </linearGradient>
      <radialGradient id="halo_av_1779093955006_znw1h2173z"><stop offset="0%" stop-color="#E5E7EB" stop-opacity=".45"/><stop offset="100%" stop-color="#E5E7EB" stop-opacity="0"/></radialGradient>
    </defs><rect x="-100" y="-100" width="200" height="200" fill="#F9FAFB"/><g opacity="1"><polyline id="faceContour" class="face-shape" points="49.8,-5.0 49.7,-5.2 50.1,-3.1 50.0,-2.3 50.1,0.1 49.8,2.1 49.9,0.9 50.2,1.0 49.6,4.7 49.6,6.3 49.6,6.9 49.6,6.6 49.1,9.0 48.7,10.6 48.6,11.5 48.1,13.1 47.6,15.5 47.6,15.0 47.4,16.8 47.4,16.4 46.6,18.4 45.6,20.8 45.2,22.3 44.7,23.4 44.1,23.9 44.5,23.6 43.3,25.8 43.1,26.1 41.9,28.0 42.0,27.9 41.3,28.9 39.9,30.6 38.8,32.2 38.3,32.6 37.9,33.2 37.3,33.8 37.5,34.0 37.2,34.0 35.6,35.8 35.1,36.2 33.2,38.1 30.9,39.7 31.4,39.2 31.2,39.6 29.1,40.8 27.8,41.7 28.2,41.6 25.1,43.1 25.7,43.2 23.8,43.9 24.9,43.4 20.7,45.4 21.2,45.1 20.5,45.5 20.7,45.4 19.7,45.8 14.7,47.4 16.8,46.7 13.8,47.6 14.0,47.6 11.4,48.1 12.1,47.9 10.7,48.2 8.0,48.6 7.8,48.7 5.5,48.8 4.9,48.8 4.4,48.9 0.6,49.1 0.3,49.0 -1.6,48.9 -1.6,48.9 -3.1,48.7 -2.3,48.9 -4.7,48.7 -4.3,48.6 -8.3,48.2 -8.9,48.1 -9.4,48.0 -10.8,47.5 -10.8,47.3 -13.1,47.1 -15.3,46.4 -15.9,46.2 -17.5,45.6 -16.5,45.9 -19.4,45.0 -20.8,44.5 -22.0,43.6 -22.7,43.3 -22.0,43.5 -25.5,41.8 -24.8,41.9 -26.5,41.2 -28.8,39.8 -29.6,39.0 -28.3,40.1 -29.7,38.8 -32.7,36.7 -31.7,37.7 -32.9,36.6 -34.4,35.1 -34.3,35.1 -35.5,34.1 -37.8,32.1 -37.7,31.9 -37.3,32.5 -38.4,31.0 -40.2,28.9 -40.9,27.8 -40.6,28.3 -42.5,25.4 -43.0,24.6 -43.4,23.8 -44.2,22.7 -44.5,22.2 -45.1,21.1 -44.9,20.8 -46.5,17.9 -46.2,18.4 -47.0,16.2 -46.5,17.0 -47.1,16.5 -47.5,14.0 -47.9,13.2 -48.3,11.9 -48.3,11.3 -48.3,11.1 -48.8,9.5 -49.3,8.2 -49.5,6.0 -49.5,6.1 -50.0,2.2 -49.8,3.0 -49.8,0.0 -50.1,0.1 -50.2,-0.8 -49.8,-1.8 -49.8,-5.2 -50.1,-4.6 -49.8,-5.9 -49.4,-8.5 -49.9,-7.1 -49.4,-9.8 -48.9,-12.6 -48.8,-13.6 -48.5,-14.1 -48.9,-13.6 -48.3,-15.7 -48.3,-16.3 -48.1,-16.5 -47.4,-19.7 -47.6,-19.4 -47.1,-20.8 -46.2,-22.9 -45.3,-25.5 -45.7,-24.8 -45.6,-24.6 -44.8,-26.9 -44.0,-27.8 -43.2,-30.1 -42.6,-31.0 -43.3,-30.2 -41.1,-34.2 -40.6,-34.5 -40.2,-35.0 -40.2,-35.1 -39.0,-36.8 -38.2,-38.1 -37.2,-39.7 -37.3,-39.2 -37.0,-40.1 -34.7,-42.6 -35.3,-42.4 -34.3,-43.4 -33.0,-44.6 -31.8,-45.7 -31.3,-46.4 -32.2,-45.6 -30.5,-47.0 -29.5,-48.3 -27.9,-49.8 -27.8,-49.8 -25.8,-51.3 -26.7,-50.7 -24.8,-52.0 -22.6,-53.7 -24.0,-52.6 -21.4,-54.4 -22.3,-53.8 -19.8,-55.2 -19.1,-55.5 -18.1,-56.2 -18.8,-55.9 -17.6,-56.6 -16.0,-57.2 -15.0,-57.8 -12.9,-58.4 -14.0,-58.2 -10.5,-59.3 -10.7,-59.3 -11.2,-59.2 -7.8,-60.1 -7.9,-59.9 -4.8,-60.6 -5.7,-60.5 -2.7,-60.8 -3.2,-60.8 -2.9,-60.8 -0.6,-61.0 0.3,-61.1 0.2,-61.2 1.6,-61.0 3.2,-61.0 3.4,-61.1 6.2,-60.8 7.8,-60.6 8.1,-60.6 8.4,-60.5 8.7,-60.5 10.5,-60.1 10.7,-60.0 11.4,-59.9 12.6,-59.5 14.0,-59.0 16.5,-58.2 15.4,-58.6 17.3,-57.9 16.8,-57.8 20.1,-56.5 21.0,-55.9 22.3,-55.1 22.0,-55.3 23.4,-54.3 23.9,-54.1 25.0,-53.4 26.8,-52.1 25.7,-52.7 27.3,-51.7 28.9,-50.3 30.2,-49.2 30.9,-48.3 32.2,-47.5 32.6,-46.7 31.4,-48.1 34.6,-44.6 35.2,-43.8 35.7,-43.2 35.5,-43.7 36.0,-42.5 36.1,-42.7 39.1,-38.5 39.5,-37.9 38.5,-39.5 38.9,-38.5 41.2,-35.3 40.5,-36.1 42.1,-33.5 41.6,-34.4 43.6,-30.3 43.1,-32.0 44.4,-28.4 45.1,-27.2 44.7,-27.6 45.8,-25.3 45.8,-24.8 45.9,-24.3 46.8,-22.1 46.8,-22.0 47.9,-18.9 47.5,-19.0 48.5,-16.5 48.5,-16.2 48.5,-16.2 49.0,-13.5 49.3,-11.3 49.5,-10.0 49.8,-8.6 49.4,-9.3 50.0,-7.2 49.8,-5.0 49.7,-5.2" fill="#ffc9a9" stroke="#111" stroke-width="2.2" stroke-linejoin="round" filter="url(#fuzzy_av_1779093955006_znw1h2173z)"/><g id="leftEye" transform="translate(-22.8 -28.1)"><polyline points="-20.6,4.8 -20.5,4.4 -20.4,4.0 -20.3,3.6 -20.2,3.1 -20.0,2.7 -19.8,2.2 -19.6,1.8 -19.3,1.4 -19.1,0.9 -18.8,0.5 -18.4,0.0 -18.1,-0.4 -17.7,-0.9 -17.4,-1.3 -17.0,-1.7 -16.6,-2.3 -16.3,-2.8 -15.8,-3.4 -15.4,-3.9 -14.9,-4.4 -14.4,-4.9 -13.8,-5.4 -13.2,-5.8 -12.6,-6.2 -11.9,-6.6 -11.3,-7.0 -10.6,-7.3 -9.8,-7.6 -9.1,-7.9 -8.3,-8.1 -7.5,-8.3 -6.7,-8.5 -5.9,-8.6 -5.1,-8.7 -4.3,-8.8 -3.5,-8.8 -2.7,-8.8 -1.9,-8.8 -1.1,-8.8 -0.3,-8.7 0.5,-8.6 1.3,-8.5 2.1,-8.3 2.8,-8.2 3.5,-8.0 4.3,-7.7 5.0,-7.5 5.6,-7.2 6.3,-7.0 6.9,-6.7 7.5,-6.3 8.1,-6.0 8.7,-5.7 9.2,-5.3 9.8,-5.0 10.3,-4.6 10.7,-4.2 11.2,-3.8 11.6,-3.4 12.0,-3.0 12.4,-2.7 12.8,-2.3 13.1,-1.9 13.4,-1.5 13.7,-1.1 14.0,-0.7 14.3,-0.3 14.5,0.1 14.8,0.5 15.0,0.8 15.2,1.2 15.4,1.6 15.5,1.9 15.7,2.3 15.8,2.7 16.0,3.0 16.1,3.4 16.2,3.7 16.3,4.0 15.7,5.7 15.5,5.9 15.2,6.0 15.0,6.2 14.7,6.4 14.5,6.6 14.2,6.7 13.9,6.9 13.7,7.0 13.4,7.1 13.1,7.3 12.8,7.4 12.5,7.5 12.1,7.6 11.8,7.7 11.5,7.8 11.1,7.9 10.8,7.9 10.4,8.0 10.0,8.1 9.6,8.1 9.2,8.2 8.8,8.3 8.4,8.3 8.0,8.3 7.5,8.4 7.1,8.4 6.6,8.4 6.1,8.5 5.7,8.5 5.2,8.5 4.7,8.6 4.1,8.6 3.6,8.6 3.1,8.6 2.5,8.6 2.0,8.7 1.4,8.7 0.9,8.7 0.3,8.7 -0.3,8.7 -0.9,8.8 -1.5,8.8 -2.1,8.8 -2.7,8.8 -3.3,8.8 -3.9,8.9 -4.5,8.9 -5.1,8.9 -5.7,8.9 -6.3,9.0 -6.8,9.0 -7.4,9.0 -8.0,9.0 -8.6,9.0 -9.2,9.1 -9.7,9.1 -10.3,9.1 -10.8,9.1 -11.4,9.1 -11.9,9.0 -12.4,9.0 -12.9,9.0 -13.4,9.0 -13.9,8.9 -14.3,8.8 -14.7,8.8 -15.2,8.7 -15.6,8.5 -16.0,8.4 -16.4,8.3 -16.7,8.1 -17.1,7.9 -17.5,7.7 -17.8,7.5 -18.2,7.2 -18.5,7.0 -18.8,6.7 -19.1,6.4 -19.4,6.0" fill="#fff" stroke="#fff" stroke-width="0" stroke-linejoin="round" filter="url(#fuzzy_av_1779093955006_znw1h2173z)"/><polyline points="20.4,7.7 20.5,7.5 20.6,7.3 20.6,7.1 20.7,6.8 20.7,6.5 20.7,6.2 20.7,5.9 20.7,5.6 20.7,5.2 -20.6,4.8 -20.5,4.4 -20.4,4.0 -20.3,3.6 -20.2,3.1 -20.0,2.7 -19.8,2.2 -19.6,1.8 -19.3,1.4 -19.1,0.9 -18.8,0.5 -18.4,0.0 -18.1,-0.4 -17.7,-0.9 -17.4,-1.3 -17.0,-1.7 -16.6,-2.3 -16.3,-2.8 -15.8,-3.4 -15.4,-3.9 -14.9,-4.4 -14.4,-4.9 -13.8,-5.4 -13.2,-5.8 -12.6,-6.2 -11.9,-6.6 -11.3,-7.0 -10.6,-7.3 -9.8,-7.6 -9.1,-7.9 -8.3,-8.1 -7.5,-8.3 -6.7,-8.5 -5.9,-8.6 -5.1,-8.7 -4.3,-8.8 -3.5,-8.8 -2.7,-8.8 -1.9,-8.8 -1.1,-8.8 -0.3,-8.7 0.5,-8.6 1.3,-8.5 2.1,-8.3 2.8,-8.2 3.5,-8.0 4.3,-7.7 5.0,-7.5 5.6,-7.2 6.3,-7.0 6.9,-6.7 7.5,-6.3 8.1,-6.0 8.7,-5.7 9.2,-5.3 9.8,-5.0 10.3,-4.6 10.7,-4.2 11.2,-3.8 11.6,-3.4 12.0,-3.0 12.4,-2.7 12.8,-2.3 13.1,-1.9 13.4,-1.5 13.7,-1.1 14.0,-0.7 14.3,-0.3 14.5,0.1 14.8,0.5 15.0,0.8 15.2,1.2 15.4,1.6 15.5,1.9 15.7,2.3 15.8,2.7 16.0,3.0 16.1,3.4 16.2,3.7 16.3,4.0 -16.4,4.4 -16.4,4.7 -16.5,5.0 -16.5,5.3 -16.6,5.6 -16.6,5.9 -16.6,6.2 -16.6,6.5 -16.6,6.7 -16.6,7.0" fill="none" stroke="#111" stroke-width="2.8940551746733103" stroke-linejoin="round" stroke-linecap="round" filter="url(#fuzzy_av_1779093955006_znw1h2173z)"/><polyline points="21.4,0.8 21.3,1.5 21.1,2.2 21.0,2.8 20.8,3.4 20.6,3.9 20.4,4.4 20.2,4.8 19.9,5.3 19.7,5.7 -19.4,6.0 -19.1,6.4 -18.8,6.7 -18.5,7.0 -18.2,7.2 -17.8,7.5 -17.5,7.7 -17.1,7.9 -16.7,8.1 -16.4,8.3 -16.0,8.4 -15.6,8.5 -15.2,8.7 -14.7,8.8 -14.3,8.8 -13.9,8.9 -13.4,9.0 -12.9,9.0 -12.4,9.0 -11.9,9.0 -11.4,9.1 -10.8,9.1 -10.3,9.1 -9.7,9.1 -9.2,9.1 -8.6,9.0 -8.0,9.0 -7.4,9.0 -6.8,9.0 -6.3,9.0 -5.7,8.9 -5.1,8.9 -4.5,8.9 -3.9,8.9 -3.3,8.8 -2.7,8.8 -2.1,8.8 -1.5,8.8 -0.9,8.8 -0.3,8.7 0.3,8.7 0.9,8.7 1.4,8.7 2.0,8.7 2.5,8.6 3.1,8.6 3.6,8.6 4.1,8.6 4.7,8.6 5.2,8.5 5.7,8.5 6.1,8.5 6.6,8.4 7.1,8.4 7.5,8.4 8.0,8.3 8.4,8.3 8.8,8.3 9.2,8.2 9.6,8.1 10.0,8.1 10.4,8.0 10.8,7.9 11.1,7.9 11.5,7.8 11.8,7.7 12.1,7.6 12.5,7.5 12.8,7.4 13.1,7.3 13.4,7.1 13.7,7.0 13.9,6.9 14.2,6.7 14.5,6.6 14.7,6.4 15.0,6.2 15.2,6.0 15.5,5.9 15.7,5.7 -15.9,5.4 -16.2,5.2 -16.4,5.0 -16.6,4.8 -16.8,4.5 -17.0,4.3 -17.2,4.0 -17.3,3.8 -17.5,3.5 -17.7,3.2" fill="none" stroke="#111" stroke-width="2.3303057135204215" stroke-linejoin="round" stroke-linecap="round" filter="url(#fuzzy_av_1779093955006_znw1h2173z)"/><circle r="4.618849139545284" cx="-3.3140520382659506" cy="2.08673571815381" stroke="#111" fill="none" stroke-width="0.8833425968152011" filter="url(#fuzzy_av_1779093955006_znw1h2173z)" clip-path="url(#leftEye_av_1779093955006_znw1h2173z)"/><circle r="2.6287078296092714" cx="-3.975026887185252" cy="4.896936123766252" stroke="#111" fill="none" stroke-width="1.0788876174311544" filter="url(#fuzzy_av_1779093955006_znw1h2173z)" clip-path="url(#leftEye_av_1779093955006_znw1h2173z)"/><circle r="3.4134765943254326" cx="-3.9974375672382294" cy="3.9185651940553434" stroke="#111" fill="none" stroke-width="1.0199440803569289" filter="url(#fuzzy_av_1779093955006_znw1h2173z)" clip-path="url(#leftEye_av_1779093955006_znw1h2173z)"/><circle r="3.275503750100633" cx="-7.389434126015926" cy="3.113169676069044" stroke="#111" fill="none" stroke-width="0.9869554823714468" filter="url(#fuzzy_av_1779093955006_znw1h2173z)" clip-path="url(#leftEye_av_1779093955006_znw1h2173z)"/><circle r="4.554186500118689" cx="-5.566204493324349" cy="4.202602642706502" stroke="#111" fill="none" stroke-width="1.02985633984764" filter="url(#fuzzy_av_1779093955006_znw1h2173z)" clip-path="url(#leftEye_av_1779093955006_znw1h2173z)"/><circle r="3.0887450194226784" cx="-7.293683870844056" cy="1.9120121855382708" stroke="#111" fill="none" stroke-width="1.386486882956412" filter="url(#fuzzy_av_1779093955006_znw1h2173z)" clip-path="url(#leftEye_av_1779093955006_znw1h2173z)"/><circle r="2.4437100188053322" cx="-6.996751718198332" cy="4.827968791917584" stroke="#111" fill="none" stroke-width="1.1804871200265308" filter="url(#fuzzy_av_1779093955006_znw1h2173z)" clip-path="url(#leftEye_av_1779093955006_znw1h2173z)"/><circle r="4.295237553431754" cx="-5.214195316533174" cy="3.15303012017306" stroke="#111" fill="none" stroke-width="0.8277865354057823" filter="url(#fuzzy_av_1779093955006_znw1h2173z)" clip-path="url(#leftEye_av_1779093955006_znw1h2173z)"/><circle r="2.8408541662312725" cx="-4.840691481921853" cy="5.522541684360549" stroke="#111" fill="none" stroke-width="1.0523947317219726" filter="url(#fuzzy_av_1779093955006_znw1h2173z)" clip-path="url(#leftEye_av_1779093955006_znw1h2173z)"/><circle r="2.625835791547477" cx="-6.503402319902204" cy="2.411547997490173" stroke="#111" fill="none" stroke-width="1.1773394352854285" filter="url(#fuzzy_av_1779093955006_znw1h2173z)" clip-path="url(#leftEye_av_1779093955006_znw1h2173z)"/></g><g id="rightEye" transform="translate(27.0 -26.9)"><polyline points="-21.6,4.2 -21.5,3.7 -21.3,3.1 -21.2,2.5 -21.0,1.9 -20.8,1.3 -20.5,0.7 -20.3,0.1 -20.0,-0.5 -19.7,-1.1 -19.4,-1.6 -19.1,-2.2 -18.7,-2.8 -18.4,-3.3 -18.0,-3.8 -17.5,-4.3 -17.2,-5.1 -16.8,-5.8 -16.4,-6.6 -15.9,-7.2 -15.5,-7.8 -14.9,-8.4 -14.4,-9.0 -13.8,-9.5 -13.1,-9.9 -12.5,-10.4 -11.8,-10.7 -11.1,-11.1 -10.4,-11.3 -9.6,-11.6 -8.9,-11.8 -8.1,-11.9 -7.3,-12.0 -6.5,-12.1 -5.7,-12.1 -4.9,-12.1 -4.1,-12.0 -3.3,-11.9 -2.5,-11.8 -1.7,-11.6 -0.9,-11.4 -0.1,-11.1 0.7,-10.9 1.5,-10.6 2.2,-10.2 3.0,-9.9 3.7,-9.5 4.4,-9.1 5.1,-8.7 5.7,-8.3 6.4,-7.8 7.0,-7.4 7.6,-6.9 8.2,-6.4 8.7,-5.9 9.3,-5.4 9.8,-4.9 10.3,-4.4 10.7,-3.9 11.2,-3.4 11.6,-2.9 12.0,-2.4 12.4,-1.9 12.7,-1.4 13.1,-0.9 13.4,-0.4 13.7,0.1 14.0,0.6 14.3,1.1 14.6,1.5 14.8,2.0 15.0,2.4 15.3,2.9 15.5,3.3 15.6,3.8 15.8,4.2 16.0,4.6 16.1,5.0 16.3,5.4 16.4,5.8 16.1,6.7 15.9,6.9 15.7,7.2 15.5,7.4 15.2,7.7 15.0,7.9 14.8,8.1 14.5,8.3 14.3,8.5 14.0,8.7 13.7,8.9 13.5,9.1 13.2,9.2 12.9,9.4 12.6,9.5 12.2,9.7 11.9,9.8 11.6,9.9 11.2,10.0 10.9,10.1 10.5,10.2 10.1,10.3 9.7,10.4 9.3,10.5 8.8,10.6 8.4,10.7 8.0,10.7 7.5,10.8 7.0,10.9 6.5,10.9 6.0,11.0 5.5,11.0 4.9,11.1 4.4,11.1 3.8,11.2 3.2,11.2 2.7,11.3 2.1,11.3 1.5,11.3 0.9,11.4 0.2,11.4 -0.4,11.4 -1.0,11.5 -1.7,11.5 -2.3,11.5 -2.9,11.6 -3.6,11.6 -4.2,11.6 -4.9,11.6 -5.5,11.6 -6.2,11.6 -6.8,11.7 -7.4,11.7 -8.1,11.6 -8.7,11.6 -9.3,11.6 -9.9,11.6 -10.5,11.6 -11.0,11.5 -11.6,11.5 -12.1,11.4 -12.7,11.3 -13.2,11.2 -13.7,11.1 -14.2,11.0 -14.6,10.9 -15.1,10.7 -15.5,10.5 -15.9,10.3 -16.4,10.1 -16.8,9.8 -17.2,9.6 -17.5,9.3 -17.9,8.9 -18.3,8.6 -18.6,8.2 -18.9,7.8 -19.2,7.4 -19.5,6.9 -19.8,6.4" fill="#fff" stroke="#fff" stroke-width="0" stroke-linejoin="round" filter="url(#fuzzy_av_1779093955006_znw1h2173z)"/><polyline points="-22.0,8.5 -22.0,8.3 -22.0,8.0 -22.0,7.6 -22.0,7.2 -22.0,6.8 -21.9,6.3 -21.9,5.8 -21.8,5.3 -21.7,4.8 -21.6,4.2 -21.5,3.7 -21.3,3.1 -21.2,2.5 -21.0,1.9 -20.8,1.3 -20.5,0.7 -20.3,0.1 -20.0,-0.5 -19.7,-1.1 -19.4,-1.6 -19.1,-2.2 -18.7,-2.8 -18.4,-3.3 -18.0,-3.8 -17.5,-4.3 -17.2,-5.1 -16.8,-5.8 -16.4,-6.6 -15.9,-7.2 -15.5,-7.8 -14.9,-8.4 -14.4,-9.0 -13.8,-9.5 -13.1,-9.9 -12.5,-10.4 -11.8,-10.7 -11.1,-11.1 -10.4,-11.3 -9.6,-11.6 -8.9,-11.8 -8.1,-11.9 -7.3,-12.0 -6.5,-12.1 -5.7,-12.1 -4.9,-12.1 -4.1,-12.0 -3.3,-11.9 -2.5,-11.8 -1.7,-11.6 -0.9,-11.4 -0.1,-11.1 0.7,-10.9 1.5,-10.6 2.2,-10.2 3.0,-9.9 3.7,-9.5 4.4,-9.1 5.1,-8.7 5.7,-8.3 6.4,-7.8 7.0,-7.4 7.6,-6.9 8.2,-6.4 8.7,-5.9 9.3,-5.4 9.8,-4.9 10.3,-4.4 10.7,-3.9 11.2,-3.4 11.6,-2.9 12.0,-2.4 12.4,-1.9 12.7,-1.4 13.1,-0.9 13.4,-0.4 13.7,0.1 14.0,0.6 14.3,1.1 14.6,1.5 14.8,2.0 15.0,2.4 15.3,2.9 15.5,3.3 15.6,3.8 15.8,4.2 16.0,4.6 16.1,5.0 16.3,5.4 16.4,5.8 16.5,6.2 16.6,6.6 16.7,6.9 16.8,7.3 16.9,7.6 17.0,7.9 17.0,8.3 17.1,8.6 17.1,8.9 17.2,9.2" fill="none" stroke="#111" stroke-width="2.7748262972528583" stroke-linejoin="round" stroke-linecap="round" filter="url(#fuzzy_av_1779093955006_znw1h2173z)"/><polyline points="-21.8,-1.1 -21.7,-0.1 -21.6,0.8 -21.4,1.7 -21.2,2.5 -21.0,3.2 -20.8,4.0 -20.6,4.6 -20.4,5.3 -20.1,5.8 -19.8,6.4 -19.5,6.9 -19.2,7.4 -18.9,7.8 -18.6,8.2 -18.3,8.6 -17.9,8.9 -17.5,9.3 -17.2,9.6 -16.8,9.8 -16.4,10.1 -15.9,10.3 -15.5,10.5 -15.1,10.7 -14.6,10.9 -14.2,11.0 -13.7,11.1 -13.2,11.2 -12.7,11.3 -12.1,11.4 -11.6,11.5 -11.0,11.5 -10.5,11.6 -9.9,11.6 -9.3,11.6 -8.7,11.6 -8.1,11.6 -7.4,11.7 -6.8,11.7 -6.2,11.6 -5.5,11.6 -4.9,11.6 -4.2,11.6 -3.6,11.6 -2.9,11.6 -2.3,11.5 -1.7,11.5 -1.0,11.5 -0.4,11.4 0.2,11.4 0.9,11.4 1.5,11.3 2.1,11.3 2.7,11.3 3.2,11.2 3.8,11.2 4.4,11.1 4.9,11.1 5.5,11.0 6.0,11.0 6.5,10.9 7.0,10.9 7.5,10.8 8.0,10.7 8.4,10.7 8.8,10.6 9.3,10.5 9.7,10.4 10.1,10.3 10.5,10.2 10.9,10.1 11.2,10.0 11.6,9.9 11.9,9.8 12.2,9.7 12.6,9.5 12.9,9.4 13.2,9.2 13.5,9.1 13.7,8.9 14.0,8.7 14.3,8.5 14.5,8.3 14.8,8.1 15.0,7.9 15.2,7.7 15.5,7.4 15.7,7.2 15.9,6.9 16.1,6.7 16.3,6.4 16.5,6.1 16.7,5.8 16.8,5.5 17.0,5.2 17.2,4.9 17.3,4.5 17.5,4.2 17.6,3.9 17.8,3.5" fill="none" stroke="#111" stroke-width="1.916482929787426" stroke-linejoin="round" stroke-linecap="round" filter="url(#fuzzy_av_1779093955006_znw1h2173z)"/><circle r="3.6699127515576597" cx="-5.31077258218223" cy="-7.677645758555347" stroke="#111" fill="none" stroke-width="1.2368688945640165" filter="url(#fuzzy_av_1779093955006_znw1h2173z)" clip-path="url(#rightEye_av_1779093955006_znw1h2173z)"/><circle r="4.302215794605594" cx="-3.4494752229920147" cy="-4.358427410789396" stroke="#111" fill="none" stroke-width="1.1198703460791737" filter="url(#fuzzy_av_1779093955006_znw1h2173z)" clip-path="url(#rightEye_av_1779093955006_znw1h2173z)"/><circle r="3.3078445802795846" cx="-6.236881367301007" cy="-7.165703802310847" stroke="#111" fill="none" stroke-width="1.0125053010673375" filter="url(#fuzzy_av_1779093955006_znw1h2173z)" clip-path="url(#rightEye_av_1779093955006_znw1h2173z)"/><circle r="3.713579033107772" cx="-3.147671450485051" cy="-3.4916174712262205" stroke="#111" fill="none" stroke-width="1.2930585955429872" filter="url(#fuzzy_av_1779093955006_znw1h2173z)" clip-path="url(#rightEye_av_1779093955006_znw1h2173z)"/><circle r="2.7126539355206756" cx="-4.927070048479778" cy="-5.0680887304837094" stroke="#111" fill="none" stroke-width="1.2111147432785894" filter="url(#fuzzy_av_1779093955006_znw1h2173z)" clip-path="url(#rightEye_av_1779093955006_znw1h2173z)"/><circle r="2.5813673475779537" cx="-5.194783782049227" cy="-3.5327215163720407" stroke="#111" fill="none" stroke-width="0.9170604611342765" filter="url(#fuzzy_av_1779093955006_znw1h2173z)" clip-path="url(#rightEye_av_1779093955006_znw1h2173z)"/><circle r="4.583154592171232" cx="-7.157686713183557" cy="-7.586510275661431" stroke="#111" fill="none" stroke-width="1.3808164078115974" filter="url(#fuzzy_av_1779093955006_znw1h2173z)" clip-path="url(#rightEye_av_1779093955006_znw1h2173z)"/><circle r="3.1636294390724364" cx="-2.866687631867406" cy="-4.986348439817947" stroke="#111" fill="none" stroke-width="1.2437856325453325" filter="url(#fuzzy_av_1779093955006_znw1h2173z)" clip-path="url(#rightEye_av_1779093955006_znw1h2173z)"/><circle r="3.9728923514600303" cx="-5.705439692630637" cy="-7.162265190596228" stroke="#111" fill="none" stroke-width="1.1095181085837824" filter="url(#fuzzy_av_1779093955006_znw1h2173z)" clip-path="url(#rightEye_av_1779093955006_znw1h2173z)"/><circle r="2.9799775579177568" cx="-6.11483211788811" cy="-5.300377644023207" stroke="#111" fill="none" stroke-width="0.9249704501840844" filter="url(#fuzzy_av_1779093955006_znw1h2173z)" clip-path="url(#rightEye_av_1779093955006_znw1h2173z)"/></g><g id="hairs"><polyline points="45.1,-27.3 46.0,-25.8 47.3,-24.9 48.6,-23.1 49.6,-20.9 50.3,-16.9 50.9,-14.0 51.4,-12.8 51.8,-10.6 52.3,-7.6 52.8,-4.7 53.4,-1.7 54.0,0.1 54.5,2.0 54.9,4.6 55.1,8.1 54.9,10.5 54.5,11.4 53.8,14.9 52.9,16.7 51.9,19.3 50.8,22.0 49.6,22.7 48.4,25.4 47.1,26.8 45.9,28.7 44.7,30.7 43.4,32.9 42.2,33.8 40.8,35.4 39.3,37.4 37.7,38.8 36.0,39.4 34.2,40.8 32.4,41.7 30.4,43.5 28.2,42.8 26.7,44.3" fill="none" stroke="rgb(44,34,43)" stroke-width="1.8770967211298395" stroke-linejoin="round" stroke-linecap="round" filter="url(#fuzzy_av_1779093955006_znw1h2173z)" opacity="0.8998218937766734"/><polyline points="44.4,-29.9 44.9,-28.9 45.4,-25.8 45.8,-23.7 45.8,-20.5 45.0,-18.0 43.6,-15.3 42.0,-13.3 40.5,-11.2 39.5,-9.3 39.2,-6.9 39.3,-3.3 39.6,-1.7 40.0,1.1 40.3,4.1 40.1,5.4 39.5,8.4 38.4,11.2 36.7,12.6 34.8,14.1 32.8,18.1 30.8,18.8 29.2,21.9 27.7,24.0 26.3,26.1 24.9,27.6 23.2,28.4 21.3,32.0 19.4,32.8 17.5,34.0 15.9,36.7 14.5,37.5 13.1,39.0 11.7,40.9 9.6,41.6" fill="none" stroke="rgb(44,34,43)" stroke-width="1.2617858784718394" stroke-linejoin="round" stroke-linecap="round" filter="url(#fuzzy_av_1779093955006_znw1h2173z)" opacity="0.8637264523010016"/><polyline points="43.1,-33.0 44.7,-28.6 45.7,-27.3 46.4,-25.1 47.1,-23.4 47.8,-19.6 48.4,-18.2 49.0,-15.3 49.5,-12.6 49.9,-10.2 50.3,-7.8 50.6,-4.3 50.8,-1.5 50.9,-1.0 50.9,2.3 50.8,5.2 50.6,7.1 50.4,10.3 50.0,13.0 49.6,14.3 49.0,17.2 48.4,17.9 47.7,20.9 46.8,23.2 45.8,24.6 44.8,26.4 43.6,28.0 42.4,31.2 41.0,32.1 39.6,33.5 38.0,35.4 36.3,36.3 34.6,38.0 32.8,39.7 31.0,40.1 29.2,41.2 27.8,41.4" fill="none" stroke="rgb(44,34,43)" stroke-width="1.2087946814914043" stroke-linejoin="round" stroke-linecap="round" filter="url(#fuzzy_av_1779093955006_znw1h2173z)" opacity="0.9365699295536014"/><polyline points="40.5,-36.8 41.7,-35.1 43.1,-32.3 44.4,-29.2 45.3,-27.5 46.2,-25.6 46.9,-23.6 47.6,-20.7 48.3,-17.2 48.9,-15.9 49.4,-13.1 49.8,-10.3 50.2,-6.9 50.4,-5.6 50.5,-3.2 50.5,-0.2 50.4,3.1 50.2,4.0 49.9,7.5 49.5,8.8 49.0,11.6 48.4,14.3 47.7,16.3 47.0,17.9 46.1,21.9 45.2,23.9 44.2,24.6 43.1,26.4 41.9,28.8 40.7,29.7 39.4,32.5 38.0,33.5 36.5,34.4 34.8,36.1 33.0,38.0 31.2,39.6 29.4,41.5 27.3,42.8" fill="none" stroke="rgb(44,34,43)" stroke-width="1.5017236478749867" stroke-linejoin="round" stroke-linecap="round" filter="url(#fuzzy_av_1779093955006_znw1h2173z)" opacity="0.7564672932674035"/><polyline points="38.9,-39.5 40.3,-36.6 41.8,-34.4 43.3,-31.9 44.7,-29.2 45.8,-28.5 46.7,-24.3 47.5,-22.3 48.2,-19.9 49.0,-17.8 49.8,-14.5 50.5,-13.6 51.2,-11.2 51.7,-8.4 52.2,-4.6 52.4,-2.7 52.6,-0.5 52.6,0.7 52.5,5.0 52.3,6.8 52.0,9.2 51.6,11.8 51.1,13.2 50.6,15.4 50.1,17.7 49.4,21.3 48.4,23.3" fill="none" stroke="rgb(44,34,43)" stroke-width="1.5020142229570859" stroke-linejoin="round" stroke-linecap="round" filter="url(#fuzzy_av_1779093955006_znw1h2173z)" opacity="0.8250043221380194"/><polyline points="39.5,-39.2 40.1,-37.8 40.9,-37.3 42.0,-35.6 43.2,-32.7 44.3,-29.4 45.4,-27.6 46.3,-25.8 47.1,-22.9 47.9,-19.8 48.5,-18.0 49.1,-14.5 49.6,-12.2 50.0,-10.9 50.3,-7.8 50.6,-6.1 50.8,-3.4 50.9,-0.4 51.0,1.9 51.0,5.3 50.8,7.1 50.5,9.7 50.0,12.3 49.3,14.1 48.6,17.4 47.7,18.0 46.8,19.9 45.9,22.1 44.9,25.8 43.8,27.2 42.7,27.9 41.6,31.0 40.4,31.6 39.1,33.0 37.6,34.9 35.9,37.3 34.0,38.0" fill="none" stroke="rgb(44,34,43)" stroke-width="2.025184538729081" stroke-linejoin="round" stroke-linecap="round" filter="url(#fuzzy_av_1779093955006_znw1h2173z)" opacity="0.7710631264982832"/><polyline points="39.1,-39.7 39.6,-38.8 40.9,-36.8 42.4,-34.7 43.9,-31.6 45.2,-29.3 46.2,-28.8 47.0,-25.9 47.8,-24.0 48.6,-20.5 49.5,-17.8 50.4,-15.4 51.4,-13.7 52.2,-11.2 52.9,-8.3 53.4,-6.7 53.7,-4.3 53.8,-1.6 54.0,1.4 54.1,3.5 54.1,5.2 54.2,7.3 54.1,9.6 53.9,11.6 53.6,15.4 53.1,17.5 52.6,20.0 51.9,22.1 51.0,23.7 49.9,25.5 48.7,27.9 47.4,29.6 46.3,30.9 45.5,31.6 44.7,32.9 43.0,35.5" fill="none" stroke="rgb(44,34,43)" stroke-width="1.181437288738731" stroke-linejoin="round" stroke-linecap="round" filter="url(#fuzzy_av_1779093955006_znw1h2173z)" opacity="0.8534222976004822"/><polyline points="36.1,-42.8 39.2,-40.0 42.7,-38.4 45.7,-36.9 47.7,-35.3 49.1,-33.3 50.3,-29.4 51.7,-28.7 53.2,-25.2 54.7,-22.4 56.1,-21.3 57.3,-17.4 58.3,-15.3 59.1,-13.6 59.6,-10.8 59.8,-8.9 59.7,-5.4 59.4,-2.8 59.2,-0.3 59.3,1.6 59.7,5.0 60.5,7.1 61.7,8.9 63.0,11.7 64.4,14.5 65.5,15.4 65.8,17.5 65.0,20.6 64.1,23.8" fill="none" stroke="rgb(44,34,43)" stroke-width="1.7781417445379293" stroke-linejoin="round" stroke-linecap="round" filter="url(#fuzzy_av_1779093955006_znw1h2173z)" opacity="0.8786894381306692"/><polyline points="36.0,-43.0 38.6,-41.7 40.9,-40.0 43.6,-36.9 46.3,-34.7 48.5,-32.8 50.3,-30.7 51.7,-28.2 52.9,-26.3 53.9,-23.8 55.1,-20.8 56.6,-18.9 58.3,-15.8 60.2,-14.7 62.0,-11.5 63.4,-9.9 64.5,-7.9 65.3,-4.8 65.9,-1.8 66.4,-0.2 66.8,1.4 67.1,3.9 67.4,6.5 68.0,8.6 69.1,11.8 71.1,13.1" fill="none" stroke="rgb(44,34,43)" stroke-width="1.7659253395588592" stroke-linejoin="round" stroke-linecap="round" filter="url(#fuzzy_av_1779093955006_znw1h2173z)" opacity="0.7968194584345224"/><polyline points="35.2,-44.7 36.1,-45.0 37.4,-41.7 38.7,-40.9 40.0,-38.7 41.4,-37.4 42.7,-35.4 44.0,-32.6 45.2,-29.5 46.2,-27.6 47.1,-25.5 47.9,-22.7 48.6,-19.6 49.3,-17.4 49.9,-15.4 50.5,-12.3 51.1,-10.7 51.5,-7.4 51.8,-5.8 52.0,-3.8 52.1,-0.0 52.1,2.7 52.0,3.6 51.9,6.0 51.7,10.1 51.3,11.8 50.9,14.5 50.4,15.4 49.7,19.0 49.0,21.1 48.0,22.3 47.0,25.8 45.8,27.0 44.5,28.3 43.2,31.2 42.1,31.6" fill="none" stroke="rgb(44,34,43)" stroke-width="0.9591961774426576" stroke-linejoin="round" stroke-linecap="round" filter="url(#fuzzy_av_1779093955006_znw1h2173z)" opacity="0.9430481847157003"/><polyline points="32.2,-47.7 33.5,-48.6 35.6,-46.0 37.7,-44.2 39.6,-43.3 41.4,-40.6 42.8,-39.6 44.1,-37.2 45.3,-36.2 46.7,-32.5 48.5,-30.8 50.7,-28.8 53.1,-25.6 55.5,-24.0 57.7,-22.3 59.4,-19.1 60.5,-16.1 61.1,-13.3 61.5,-10.7 62.0,-8.3 63.0,-5.4 64.5,-2.8 66.4,-0.9" fill="none" stroke="rgb(44,34,43)" stroke-width="1.1850651486599346" stroke-linejoin="round" stroke-linecap="round" filter="url(#fuzzy_av_1779093955006_znw1h2173z)" opacity="0.9916045007709253"/><polyline points="30.9,-49.1 32.8,-48.7 34.4,-45.3 35.8,-45.0 37.1,-42.1 38.4,-41.7 39.7,-39.1 41.0,-36.3 42.3,-36.0 43.5,-32.3 44.7,-31.8 45.8,-27.7 46.9,-27.3 48.0,-23.3 49.0,-22.0 49.9,-19.3 50.7,-16.2 51.3,-15.7 51.9,-11.6 52.4,-9.9 52.8,-7.6 53.1,-4.7 53.4,-2.6 53.6,1.9" fill="none" stroke="rgb(44,34,43)" stroke-width="1.0046025728520247" stroke-linejoin="round" stroke-linecap="round" filter="url(#fuzzy_av_1779093955006_znw1h2173z)" opacity="0.8756843428707362"/><polyline points="28.9,-50.4 31.0,-48.6 32.8,-48.6 34.7,-46.1 36.5,-43.8 38.3,-43.0 40.0,-41.9 41.6,-39.7 43.2,-37.1 44.9,-34.9 46.4,-32.1 47.9,-31.5 49.4,-27.9 50.9,-26.8 52.4,-24.2 54.0,-22.8 55.7,-19.5 57.5,-16.7 59.3,-15.0 61.0,-11.5 62.3,-10.1 63.3,-8.3 63.9,-5.0 64.6,-2.2 65.5,1.3" fill="none" stroke="rgb(44,34,43)" stroke-width="1.955665502569432" stroke-linejoin="round" stroke-linecap="round" filter="url(#fuzzy_av_1779093955006_znw1h2173z)" opacity="0.927968932598846"/><polyline points="28.9,-50.6 31.3,-50.1 34.3,-47.8 36.7,-45.6 38.3,-43.6 39.4,-42.7 40.4,-41.7 41.6,-38.5 43.1,-36.0 44.7,-34.2 46.4,-33.6 48.2,-30.1 49.8,-27.6 51.3,-26.1 52.5,-24.5 53.7,-21.8 54.7,-18.4 55.7,-16.3 56.7,-13.9 57.6,-12.3 58.4,-9.0 59.2,-7.4 59.9,-4.2 60.7,-1.8 61.4,-0.7 62.2,3.0 62.9,4.7 63.5,7.2 63.7,8.6 63.7,12.1 63.5,14.5 63.0,16.2 62.5,18.2 62.1,20.7 61.8,22.9 60.7,25.4" fill="none" stroke="rgb(44,34,43)" stroke-width="2.3030921992915685" stroke-linejoin="round" stroke-linecap="round" filter="url(#fuzzy_av_1779093955006_znw1h2173z)" opacity="0.8289481047555006"/><polyline points="27.3,-52.6 32.8,-50.7 34.8,-48.2 35.8,-48.3 36.4,-45.3 37.3,-45.5 38.7,-43.2 40.6,-41.6 42.8,-39.4 45.0,-37.5 46.9,-35.3 48.5,-32.7 49.7,-30.6 50.7,-27.3 51.6,-25.9 52.3,-24.3 53.1,-20.2 53.8,-19.5 54.5,-16.0 55.3,-14.4 56.2,-10.5 57.4,-8.9 58.8,-6.9 60.3,-4.2 61.6,-0.5 62.6,1.7 63.0,4.2 63.1,6.5 63.1,7.8 63.6,10.3" fill="none" stroke="rgb(44,34,43)" stroke-width="2.089258113482482" stroke-linejoin="round" stroke-linecap="round" filter="url(#fuzzy_av_1779093955006_znw1h2173z)" opacity="0.9018586500458099"/><polyline points="25.7,-53.5 28.5,-51.0 31.5,-49.4 34.4,-47.6 36.9,-45.4 38.7,-44.0 40.3,-43.1 41.7,-40.8 43.3,-39.2 44.9,-36.4 46.5,-35.7 48.1,-32.8 49.4,-31.5 50.6,-27.8 51.6,-25.8 52.5,-23.7 53.4,-21.9 54.2,-20.0 55.1,-17.4 55.9,-14.5 56.8,-11.4 57.8,-8.8 58.9,-7.1 60.0,-5.4 61.1,-1.8 62.0,-0.5 62.6,2.9 62.8,5.4 62.7,7.9 62.6,9.8 62.5,10.9 62.6,13.2 62.7,17.1 61.7,19.5" fill="none" stroke="rgb(44,34,43)" stroke-width="1.081173267055584" stroke-linejoin="round" stroke-linecap="round" filter="url(#fuzzy_av_1779093955006_znw1h2173z)" opacity="0.8623529643965542"/><polyline points="23.4,-55.0 24.9,-54.7 26.6,-53.7 28.6,-50.9 30.6,-49.5 32.6,-48.0 34.4,-46.7 36.1,-44.3 37.7,-42.9 39.4,-41.4 41.0,-39.1 42.7,-36.6 44.2,-36.0 45.6,-33.7 46.9,-31.1 48.1,-28.9 49.1,-26.0 50.0,-23.3 50.8,-21.8 51.6,-19.0 52.3,-17.9 52.9,-15.0 53.5,-12.1 54.0,-10.0 54.5,-6.5 55.0,-5.7 55.4,-2.5 55.8,-0.0 56.1,1.4 56.3,5.2 56.2,7.9 55.9,9.2 55.5,12.0 55.3,13.8 55.5,15.1" fill="none" stroke="rgb(44,34,43)" stroke-width="2.5747580086054507" stroke-linejoin="round" stroke-linecap="round" filter="url(#fuzzy_av_1779093955006_znw1h2173z)" opacity="0.9816390795631376"/><polyline points="21.0,-57.4 22.7,-56.8 25.0,-55.6 27.6,-54.3 30.4,-52.7 33.0,-50.8 35.2,-49.6 37.1,-47.0 38.9,-47.3 40.8,-44.2 42.9,-42.3 45.3,-41.0 47.9,-40.2 50.7,-37.8 53.6,-35.2 56.3,-33.0 58.7,-31.6 60.7,-28.7 62.3,-27.5 63.7,-24.4 65.3,-21.2 67.2,-20.1 69.9,-18.0 73.9,-13.8" fill="none" stroke="rgb(44,34,43)" stroke-width="2.0189711210148786" stroke-linejoin="round" stroke-linecap="round" filter="url(#fuzzy_av_1779093955006_znw1h2173z)" opacity="0.9483265982234426"/><polyline points="16.8,-58.0 18.9,-56.9 20.7,-55.9 22.2,-54.9 23.3,-53.3 24.4,-51.9 25.5,-50.9 26.9,-50.4 28.4,-47.4 29.8,-45.9 30.8,-44.6 31.3,-43.5 31.3,-41.1 31.0,-39.6 30.5,-38.3 30.0,-35.6 29.8,-34.1 29.6,-31.3 29.4,-28.5 29.2,-27.5 29.0,-24.9 28.9,-22.8 28.3,-19.7 26.2,-16.9" fill="none" stroke="rgb(44,34,43)" stroke-width="0.943422475464288" stroke-linejoin="round" stroke-linecap="round" filter="url(#fuzzy_av_1779093955006_znw1h2173z)" opacity="0.8134011997762596"/><polyline points="16.5,-60.1 18.0,-58.3 20.0,-56.8 21.8,-56.5 23.5,-56.0 25.3,-55.2 27.1,-52.5 28.9,-52.0 30.8,-49.5 32.6,-49.2 34.5,-46.9 36.2,-44.5 37.9,-42.8 39.4,-40.9 40.9,-39.3 42.2,-36.7 43.4,-36.3 44.6,-33.7 45.8,-30.7 46.9,-29.9 48.1,-27.0 49.4,-24.8 50.6,-23.0 51.7,-19.8 52.7,-17.9 53.5,-16.1 54.2,-13.0 55.1,-10.1" fill="none" stroke="rgb(44,34,43)" stroke-width="1.0235469895084692" stroke-linejoin="round" stroke-linecap="round" filter="url(#fuzzy_av_1779093955006_znw1h2173z)" opacity="0.9228277311625214"/><polyline points="14.0,-59.8 15.7,-60.0 17.7,-57.8 19.8,-57.6 22.0,-55.8 24.0,-54.3 26.1,-52.8 28.1,-53.1 30.1,-50.9 32.1,-49.3 34.2,-48.0 36.4,-47.2 38.7,-45.1 41.1,-42.7 43.6,-41.8 46.0,-38.7 48.4,-36.7 50.8,-34.8 53.0,-33.6 55.2,-31.7 57.2,-29.2 59.1,-26.3 60.8,-23.2 62.3,-21.8 63.7,-18.7 65.1,-16.7 66.6,-14.5 68.4,-12.2 70.1,-8.8 70.8,-5.1" fill="none" stroke="rgb(44,34,43)" stroke-width="2.2315260463578013" stroke-linejoin="round" stroke-linecap="round" filter="url(#fuzzy_av_1779093955006_znw1h2173z)" opacity="0.8826815866540304"/><polyline points="7.8,-61.2 8.6,-62.2 9.8,-61.8 11.4,-61.0 13.2,-60.3 15.0,-60.2 16.7,-58.3 18.5,-57.8 20.1,-57.0 21.6,-54.9 23.0,-53.8 24.3,-52.8 25.6,-52.0 26.8,-48.9 28.2,-48.8 29.5,-47.3 30.8,-44.7 32.0,-43.6 33.1,-41.8 34.0,-40.4 34.7,-37.3 35.3,-35.4 36.0,-33.1 36.6,-30.8 37.1,-28.5 37.5,-27.8 37.6,-23.8 37.9,-22.0 38.6,-20.2" fill="none" stroke="rgb(44,34,43)" stroke-width="2.5868910791103965" stroke-linejoin="round" stroke-linecap="round" filter="url(#fuzzy_av_1779093955006_znw1h2173z)" opacity="0.9560052072004028"/><polyline points="3.2,-62.5 5.6,-61.7 7.5,-62.0 9.3,-60.5 11.3,-61.1 13.6,-60.8 16.3,-60.3 19.1,-58.1 21.8,-57.2 24.3,-55.7 26.5,-54.6 28.7,-54.4 30.8,-53.1 33.1,-51.5 35.6,-50.9 38.0,-49.2 40.4,-47.8 42.5,-45.3 44.3,-44.3 46.1,-42.1 48.0,-39.4 50.3,-37.2 53.0,-36.0 55.9,-32.9 58.8,-30.8 61.3,-30.4 63.4,-26.9 65.2,-24.8 67.1,-22.0 69.3,-19.7 71.1,-17.2" fill="none" stroke="rgb(44,34,43)" stroke-width="0.7816924978684809" stroke-linejoin="round" stroke-linecap="round" filter="url(#fuzzy_av_1779093955006_znw1h2173z)" opacity="0.9073084577923443"/><polyline points="0.3,-62.4 -1.9,-62.3 -3.6,-61.4 -5.6,-61.0 -7.8,-61.3 -10.1,-59.4 -12.3,-58.8 -14.4,-58.5 -16.3,-57.5 -18.1,-56.4 -19.9,-56.4 -21.6,-55.3 -23.4,-52.8 -25.2,-52.9 -27.0,-51.6 -28.7,-48.7 -30.4,-47.6 -32.0,-45.7 -33.5,-44.3 -35.0,-44.2 -36.5,-41.6 -37.9,-39.5 -39.3,-38.2 -40.7,-35.7 -42.0,-33.9 -43.3,-30.7 -44.4,-30.0 -45.5,-27.5 -46.5,-25.5 -47.3,-22.2 -48.1,-19.9 -48.8,-17.9 -49.4,-15.5 -50.0,-13.8 -50.5,-11.1 -51.0,-9.2 -51.4,-7.2" fill="none" stroke="rgb(44,34,43)" stroke-width="2.2230435648050224" stroke-linejoin="round" stroke-linecap="round" filter="url(#fuzzy_av_1779093955006_znw1h2173z)" opacity="0.914741658595417"/><polyline points="-2.7,-62.6 -5.1,-61.1 -7.9,-60.9 -10.5,-60.0 -12.9,-58.8 -15.1,-59.4 -17.1,-58.5 -19.1,-56.2 -21.4,-55.5 -23.7,-55.9 -26.1,-54.3 -28.6,-53.3 -31.0,-50.2 -33.4,-49.2 -35.8,-48.0 -38.1,-45.8 -40.4,-45.5 -42.7,-43.6 -44.9,-42.4 -47.2,-40.2 -49.7,-38.4 -52.3,-36.4 -55.0,-33.6 -57.8,-32.0 -60.5,-29.2 -62.8,-27.5 -64.7,-25.2 -66.4,-23.0 -68.0,-20.6 -70.2,-17.3 -73.0,-16.8" fill="none" stroke="rgb(44,34,43)" stroke-width="1.9442626275476147" stroke-linejoin="round" stroke-linecap="round" filter="url(#fuzzy_av_1779093955006_znw1h2173z)" opacity="0.760755870928382"/><polyline points="-10.7,-61.0 -13.7,-60.2 -15.6,-59.6 -17.2,-58.5 -18.8,-56.5 -20.5,-57.1 -22.3,-55.9 -24.3,-54.7 -26.3,-52.7 -28.4,-51.4 -30.5,-49.5 -32.6,-49.0 -34.5,-46.6 -36.5,-44.6 -38.4,-43.7 -40.3,-41.0 -42.4,-40.3 -44.5,-37.6 -46.5,-36.5 -48.5,-33.7 -50.4,-31.3 -52.2,-29.9 -53.9,-27.1 -55.6,-25.6 -57.4,-23.7 -59.1,-20.8 -60.6,-18.5 -61.8,-16.5 -62.6,-14.3 -63.2,-11.7 -64.1,-8.9" fill="none" stroke="rgb(44,34,43)" stroke-width="1.1783526045184516" stroke-linejoin="round" stroke-linecap="round" filter="url(#fuzzy_av_1779093955006_znw1h2173z)" opacity="0.8842160754378059"/><polyline points="-18.1,-56.3 -20.0,-55.3 -22.0,-54.7 -24.0,-54.0 -25.9,-52.1 -27.8,-51.8 -29.5,-48.6 -31.2,-47.1 -32.8,-45.5 -34.3,-44.0 -35.8,-43.7 -37.3,-41.3 -38.8,-39.6 -40.3,-36.6 -41.8,-35.4 -43.3,-32.7 -44.9,-31.4 -46.4,-28.8 -47.8,-27.3 -49.2,-25.2 -50.4,-23.1 -51.3,-20.1 -52.1,-17.7 -52.7,-16.4 -53.1,-12.6 -53.5,-11.9 -53.9,-9.1 -54.3,-6.5 -54.6,-3.7 -55.0,-2.8 -55.3,0.4 -55.6,3.3 -55.7,4.8 -55.6,7.6 -55.3,9.5" fill="none" stroke="rgb(44,34,43)" stroke-width="1.2950865736183124" stroke-linejoin="round" stroke-linecap="round" filter="url(#fuzzy_av_1779093955006_znw1h2173z)" opacity="0.9949424647004067"/><polyline points="-19.1,-56.7 -21.7,-54.6 -23.7,-54.3 -25.7,-52.9 -28.0,-51.1 -30.3,-50.5 -32.5,-48.0 -34.8,-47.2 -36.8,-45.4 -38.8,-43.6 -40.5,-42.7 -42.0,-39.8 -43.3,-38.0 -44.7,-35.6 -46.1,-35.1 -47.5,-31.8 -49.1,-31.0 -50.7,-27.5 -52.4,-25.2 -54.0,-24.1 -55.7,-21.7 -57.3,-18.3 -58.9,-18.0 -60.4,-14.6 -61.8,-12.0 -63.0,-10.4 -64.1,-8.2 -65.0,-5.5 -65.7,-2.3 -66.2,-1.0 -66.6,2.0 -66.8,4.6 -67.0,7.5 -67.4,9.2 -68.5,10.1" fill="none" stroke="rgb(44,34,43)" stroke-width="0.8037860450713029" stroke-linejoin="round" stroke-linecap="round" filter="url(#fuzzy_av_1779093955006_znw1h2173z)" opacity="0.9576588942793892"/><polyline points="-21.4,-54.7 -23.1,-54.4 -25.1,-51.5 -26.8,-51.6 -28.0,-49.5 -28.7,-47.1 -28.9,-46.4 -28.9,-44.6 -28.9,-43.2 -29.4,-40.3 -30.3,-40.0 -31.6,-38.0 -33.0,-34.8 -34.1,-34.2 -34.6,-31.5 -34.5,-28.4 -34.0,-26.4 -33.2,-25.5 -32.6,-23.6 -32.0,-20.6 -31.4,-18.8 -30.6,-17.2 -29.4,-13.4 -28.4,-12.1 -27.9,-8.5 -27.5,-7.9" fill="none" stroke="rgb(44,34,43)" stroke-width="2.557617346338361" stroke-linejoin="round" stroke-linecap="round" filter="url(#fuzzy_av_1779093955006_znw1h2173z)" opacity="0.9929441511319558"/><polyline points="-24.0,-52.7 -25.0,-53.0 -26.4,-52.7 -28.3,-50.5 -30.3,-49.3 -32.2,-48.0 -34.0,-44.5 -35.7,-44.3 -37.3,-42.7 -38.8,-40.4 -40.3,-38.9 -41.8,-36.0 -43.3,-33.9 -44.8,-32.2 -46.1,-30.0 -47.3,-28.3 -48.3,-26.1 -49.1,-24.1 -49.9,-21.8 -50.6,-19.2 -51.3,-17.4 -52.0,-15.5 -52.6,-12.9 -53.2,-10.3 -53.7,-8.3 -54.1,-4.2 -54.5,-1.8 -54.9,-0.2 -55.2,2.7 -55.6,5.7 -55.9,6.7 -56.0,10.3 -55.9,10.8 -55.6,13.7 -55.0,16.2 -54.5,17.6 -54.1,19.5 -54.0,21.9" fill="none" stroke="rgb(44,34,43)" stroke-width="2.27664979010447" stroke-linejoin="round" stroke-linecap="round" filter="url(#fuzzy_av_1779093955006_znw1h2173z)" opacity="0.7851206914218839"/><polyline points="-24.0,-54.4 -25.0,-52.5 -26.3,-51.2 -28.0,-51.0 -29.7,-49.5 -31.3,-47.5 -32.9,-45.5 -34.5,-43.6 -35.9,-41.4 -37.3,-40.6 -38.6,-37.8 -39.8,-36.0 -41.1,-34.9 -42.3,-32.5 -43.5,-30.6 -44.6,-28.8 -45.6,-25.7 -46.6,-22.9 -47.4,-20.4 -48.2,-18.9 -48.9,-17.0 -49.4,-15.2 -49.9,-12.1 -50.3,-11.1 -50.6,-8.6 -50.8,-5.2 -51.0,-2.1 -51.1,0.8 -51.0,2.0 -50.9,4.3 -50.6,8.0 -50.2,9.4 -49.8,12.0 -49.2,12.2" fill="none" stroke="rgb(44,34,43)" stroke-width="1.6975462710992546" stroke-linejoin="round" stroke-linecap="round" filter="url(#fuzzy_av_1779093955006_znw1h2173z)" opacity="0.7915457571669263"/><polyline points="-26.7,-51.8 -28.3,-51.5 -30.4,-50.1 -32.3,-48.4 -33.8,-46.7 -35.1,-44.8 -36.5,-43.6 -37.9,-40.2 -39.4,-38.7 -40.9,-37.9 -42.4,-35.1 -43.7,-34.0 -45.1,-30.4 -46.4,-29.8 -47.8,-26.1 -49.1,-24.8 -50.4,-22.0 -51.6,-20.7 -52.7,-16.9 -53.6,-16.4 -54.4,-13.5 -55.0,-10.5 -55.6,-8.4 -56.2,-7.3 -56.9,-3.9 -57.7,-2.5 -58.4,-0.6 -58.8,2.3 -58.8,4.4 -58.0,7.7" fill="none" stroke="rgb(44,34,43)" stroke-width="0.7426244895216152" stroke-linejoin="round" stroke-linecap="round" filter="url(#fuzzy_av_1779093955006_znw1h2173z)" opacity="0.8507877573428326"/><polyline points="-29.5,-49.1 -31.7,-48.2 -33.4,-46.9 -35.3,-43.7 -37.9,-42.1 -41.1,-40.9 -44.1,-38.2 -46.5,-38.1 -48.1,-35.1 -49.4,-33.8 -50.6,-30.5 -51.9,-28.4 -53.5,-26.1 -55.3,-24.9 -57.4,-22.9 -59.6,-20.8 -61.9,-18.6 -64.2,-16.7 -66.5,-12.8 -68.6,-11.3 -70.5,-8.5 -72.1,-7.3 -73.2,-4.8 -73.9,-3.2 -74.1,-0.0 -74.1,1.1 -73.8,4.4" fill="none" stroke="rgb(44,34,43)" stroke-width="2.425252496516064" stroke-linejoin="round" stroke-linecap="round" filter="url(#fuzzy_av_1779093955006_znw1h2173z)" opacity="0.8308692993984487"/><polyline points="-30.5,-47.6 -30.5,-46.4 -32.2,-45.4 -33.7,-43.1 -34.7,-41.6 -35.1,-39.3 -35.3,-38.4 -35.3,-36.1 -35.4,-34.0 -35.6,-33.1 -36.0,-30.8 -36.4,-27.1 -36.8,-25.8 -37.0,-23.4 -37.1,-22.3 -36.8,-19.1 -36.3,-16.9 -35.6,-15.1 -34.9,-12.0 -34.4,-10.2 -34.2,-7.4 -34.1,-5.1 -33.8,-2.7 -33.0,-0.5 -31.7,2.1 -30.8,5.2" fill="none" stroke="rgb(44,34,43)" stroke-width="2.3457772580147536" stroke-linejoin="round" stroke-linecap="round" filter="url(#fuzzy_av_1779093955006_znw1h2173z)" opacity="0.9290837354857016"/><polyline points="-30.5,-48.9 -32.0,-46.8 -34.1,-45.1 -36.1,-43.0 -37.6,-41.1 -38.7,-39.7 -39.8,-38.5 -40.9,-36.3 -42.3,-34.5 -43.9,-32.5 -45.6,-30.0 -47.3,-28.0 -49.0,-25.6 -50.6,-23.0 -52.0,-21.5 -53.3,-18.8 -54.5,-16.2 -55.5,-14.4 -56.2,-12.6 -56.8,-10.3 -57.1,-7.0 -57.2,-4.5 -57.3,-2.8 -57.4,0.9 -57.6,2.2 -58.0,5.5 -58.3,7.1 -58.7,10.1 -58.8,11.5 -58.8,14.6 -58.6,15.2 -58.1,17.2 -57.5,20.5 -56.7,21.5 -55.7,23.6 -54.4,25.5 -52.9,27.6 -51.4,29.9 -50.8,30.5" fill="none" stroke="rgb(44,34,43)" stroke-width="0.7901652132052471" stroke-linejoin="round" stroke-linecap="round" filter="url(#fuzzy_av_1779093955006_znw1h2173z)" opacity="0.9040439775897081"/><polyline points="-30.5,-47.4 -31.8,-47.9 -34.7,-46.0 -38.2,-44.1 -41.2,-42.9 -43.0,-41.2 -44.1,-38.4 -45.0,-35.7 -45.8,-33.5 -47.0,-32.6 -48.5,-30.7 -50.1,-28.5 -52.0,-26.1 -53.8,-23.8 -55.6,-21.9 -57.2,-18.6 -58.6,-16.5 -59.8,-14.2 -60.9,-12.0 -61.9,-9.2 -62.9,-7.8 -63.9,-4.5 -64.8,-2.2 -65.6,-0.7 -66.2,2.3 -66.9,4.2 -68.0,8.2 -69.1,10.0" fill="none" stroke="rgb(44,34,43)" stroke-width="2.0735787878254293" stroke-linejoin="round" stroke-linecap="round" filter="url(#fuzzy_av_1779093955006_znw1h2173z)" opacity="0.9328681414332199"/><polyline points="-32.2,-46.2 -33.0,-46.7 -34.8,-44.0 -36.5,-42.1 -37.9,-40.4 -39.3,-38.7 -40.6,-37.8 -41.8,-34.1 -43.0,-33.5 -44.1,-30.0 -45.2,-27.8 -46.2,-27.1 -47.2,-24.4 -48.2,-22.0 -49.1,-19.8 -50.0,-16.8 -50.7,-15.7 -51.3,-13.4 -51.7,-10.6 -52.0,-8.3 -52.2,-7.1 -52.3,-4.9 -52.3,-1.9 -52.2,1.2 -52.0,4.1 -51.8,5.8 -51.6,7.6 -51.3,11.1 -51.1,12.4 -50.7,14.7 -50.3,16.8 -49.7,17.8 -48.9,19.9 -47.9,21.2 -46.7,23.6 -45.3,27.3 -44.3,28.1" fill="none" stroke="rgb(44,34,43)" stroke-width="2.58747322289227" stroke-linejoin="round" stroke-linecap="round" filter="url(#fuzzy_av_1779093955006_znw1h2173z)" opacity="0.8928298670456245"/><polyline points="-31.3,-47.1 -33.1,-44.9 -34.9,-44.1 -36.7,-42.2 -38.7,-39.5 -41.2,-39.1 -44.0,-35.8 -46.9,-34.1 -49.4,-32.3 -51.3,-29.3 -52.6,-27.7 -53.7,-26.8 -54.5,-23.3 -55.2,-22.2 -56.0,-18.5 -56.8,-16.6 -57.9,-14.3 -59.3,-11.8 -61.0,-9.8 -62.9,-9.1 -64.8,-5.4 -66.8,-3.5 -69.1,-0.9" fill="none" stroke="rgb(44,34,43)" stroke-width="2.072775758031152" stroke-linejoin="round" stroke-linecap="round" filter="url(#fuzzy_av_1779093955006_znw1h2173z)" opacity="0.9935918517358284"/><polyline points="-34.3,-44.7 -35.3,-42.9 -36.7,-40.9 -38.1,-38.0 -39.5,-36.1 -40.8,-34.3 -42.0,-32.5 -43.1,-31.6 -44.2,-28.4 -45.1,-26.5 -45.9,-24.1 -46.7,-21.1 -47.3,-20.6 -47.9,-18.0 -48.4,-15.1 -48.8,-12.4 -49.1,-12.0 -49.4,-8.6 -49.7,-6.6 -49.8,-4.8 -49.9,-3.2 -49.8,0.3 -49.7,2.8 -49.4,4.7 -48.9,7.5 -48.4,11.3" fill="none" stroke="rgb(44,34,43)" stroke-width="0.9858576787961688" stroke-linejoin="round" stroke-linecap="round" filter="url(#fuzzy_av_1779093955006_znw1h2173z)" opacity="0.9991768554537986"/><polyline points="-37.0,-40.7 -37.8,-40.5 -39.1,-37.3 -40.5,-36.7 -42.1,-34.3 -43.8,-31.1 -45.5,-30.2 -47.3,-27.7 -49.3,-24.9 -51.3,-22.1 -53.2,-20.4 -54.9,-18.8 -56.2,-17.1 -57.1,-14.1 -57.6,-12.7 -57.8,-8.5 -57.9,-6.3 -58.0,-5.0 -58.0,-2.2 -58.2,0.5 -58.4,3.5 -58.6,5.0 -58.9,7.4 -59.1,10.2 -59.1,12.7 -59.1,13.6 -59.0,15.7 -58.8,18.6 -58.5,18.8 -58.1,20.6 -57.4,24.3 -56.3,26.2 -55.0,27.8 -53.5,29.0 -52.0,30.9 -50.7,33.4 -49.3,35.6 -47.2,37.1" fill="none" stroke="rgb(44,34,43)" stroke-width="1.4210077398075702" stroke-linejoin="round" stroke-linecap="round" filter="url(#fuzzy_av_1779093955006_znw1h2173z)" opacity="0.938765136373001"/><polyline points="-37.2,-41.2 -39.0,-39.3 -40.4,-37.0 -41.7,-35.1 -43.2,-31.5 -44.8,-29.3 -46.7,-28.2 -48.9,-25.4 -51.1,-23.3 -53.2,-19.9 -54.7,-18.3 -55.6,-15.6 -55.9,-14.2 -55.9,-12.6 -55.8,-8.6 -55.9,-6.9 -56.2,-3.7 -56.8,-2.5 -57.5,-0.2 -58.3,2.0 -59.1,6.0 -59.8,7.7 -60.1,8.7 -60.1,12.6 -59.8,13.5 -59.5,14.9 -59.2,16.8 -59.0,20.0 -58.4,22.0 -57.9,23.2" fill="none" stroke="rgb(44,34,43)" stroke-width="2.2952454880102895" stroke-linejoin="round" stroke-linecap="round" filter="url(#fuzzy_av_1779093955006_znw1h2173z)" opacity="0.8674355115613278"/><polyline points="-39.0,-37.7 -40.4,-35.5 -41.7,-33.5 -42.9,-31.3 -44.0,-29.1 -45.0,-27.4 -46.0,-25.0 -46.9,-22.5 -47.8,-21.3 -48.7,-18.3 -49.5,-16.9 -50.3,-14.6 -51.0,-12.5 -51.7,-9.2 -52.2,-7.8 -52.7,-4.1 -53.1,-2.8 -53.3,-0.4 -53.4,3.0 -53.3,5.9 -53.1,7.9 -52.8,10.2 -52.5,11.7 -52.2,14.3 -51.9,15.3 -51.7,17.8 -51.3,19.1 -50.9,21.8 -50.3,23.5 -49.4,24.3 -48.1,27.7" fill="none" stroke="rgb(44,34,43)" stroke-width="1.0002510673986817" stroke-linejoin="round" stroke-linecap="round" filter="url(#fuzzy_av_1779093955006_znw1h2173z)" opacity="0.869507141683767"/><polyline points="-40.6,-36.0 -42.8,-33.1 -44.3,-30.9 -45.5,-28.3 -46.5,-26.9 -47.5,-23.8 -48.4,-22.0 -49.0,-18.6 -49.5,-16.6 -49.9,-15.7 -50.3,-12.6 -50.6,-10.0 -50.9,-7.7 -51.2,-6.1 -51.4,-4.2 -51.5,-2.3 -51.5,0.2 -51.3,4.4 -51.1,5.9 -50.8,8.3 -50.3,11.2 -49.9,13.3 -49.3,15.5 -48.7,15.6 -48.1,17.8 -47.3,20.0 -46.3,23.1 -45.2,25.4 -43.8,25.7 -42.3,29.3 -40.8,31.4 -39.2,32.3 -37.5,34.4 -35.8,35.6" fill="none" stroke="rgb(44,34,43)" stroke-width="0.8012867403165751" stroke-linejoin="round" stroke-linecap="round" filter="url(#fuzzy_av_1779093955006_znw1h2173z)" opacity="0.795071024646799"/><polyline points="-43.3,-30.4 -47.5,-30.6 -48.9,-27.7 -49.7,-25.4 -51.0,-22.8 -52.5,-21.2 -54.1,-19.3 -55.3,-16.9 -56.3,-15.3 -56.9,-13.4 -57.3,-11.2 -57.7,-8.0 -58.2,-6.7 -58.8,-4.3 -59.4,-1.0 -59.8,0.8 -60.1,2.4 -60.2,4.7 -60.2,7.3 -60.2,11.0 -60.2,11.7 -60.3,14.0 -60.5,15.4 -60.9,18.7 -61.1,19.7 -61.4,21.8" fill="none" stroke="rgb(44,34,43)" stroke-width="2.453729193322199" stroke-linejoin="round" stroke-linecap="round" filter="url(#fuzzy_av_1779093955006_znw1h2173z)" opacity="0.9291570239748501"/><polyline points="-44.8,-27.4 -45.9,-25.7 -47.2,-22.7 -48.2,-22.1 -48.9,-18.6 -49.3,-16.6 -49.7,-14.1 -50.2,-12.6 -50.7,-10.4 -51.3,-8.2 -51.7,-5.6 -51.9,-4.2 -52.0,-0.2 -51.9,2.3 -51.7,3.3 -51.4,5.3 -51.1,8.5 -50.7,11.5 -50.3,12.4 -49.7,14.5 -49.1,17.7 -48.3,18.5 -47.4,21.3 -46.3,22.3 -45.1,24.6 -43.8,27.7 -42.4,28.0 -40.9,30.2 -39.5,32.6 -38.0,33.2 -36.4,34.9 -34.6,35.9 -32.6,37.3 -30.5,39.8 -28.2,41.5 -26.1,42.3 -24.4,43.7 -22.3,44.1" fill="none" stroke="rgb(44,34,43)" stroke-width="1.1778554722026189" stroke-linejoin="round" stroke-linecap="round" filter="url(#fuzzy_av_1779093955006_znw1h2173z)" opacity="0.834135782496684"/><polyline points="-45.6,-25.6 -46.0,-25.7 -46.8,-23.2 -47.7,-20.7 -48.4,-18.6 -48.9,-16.8 -49.2,-13.7 -49.5,-11.2 -49.7,-8.9 -49.9,-6.3 -50.0,-3.8 -50.1,-2.1 -50.1,1.7 -50.0,3.7 -49.7,5.9 -49.4,7.9 -48.9,11.1 -48.4,12.1 -47.8,15.3 -47.0,16.3 -46.3,17.4 -45.4,19.2 -44.5,21.7 -43.4,24.1 -42.3,24.8 -41.1,28.5 -39.7,30.3 -38.2,31.8 -36.6,33.5 -34.9,35.2 -33.2,35.6 -31.4,37.2 -29.6,38.1 -27.7,40.9 -25.7,41.7 -23.5,42.4 -21.0,43.6 -18.5,44.6 -16.7,45.4" fill="none" stroke="rgb(44,34,43)" stroke-width="2.1829826803325014" stroke-linejoin="round" stroke-linecap="round" filter="url(#fuzzy_av_1779093955006_znw1h2173z)" opacity="0.8582597018221091"/><polyline points="-45.7,-25.3 -46.6,-24.0 -47.5,-20.7 -48.2,-19.8 -48.8,-16.2 -49.2,-15.6 -49.7,-12.0 -50.3,-10.7 -50.9,-7.8 -51.4,-4.9 -51.8,-2.8 -52.1,-1.6 -52.3,1.6 -52.4,3.0 -52.5,5.9 -52.3,8.3 -51.9,9.7 -51.4,11.9 -50.8,15.1 -50.1,16.2 -49.3,18.7 -48.6,19.6 -47.7,21.5 -46.6,24.6 -45.3,26.8 -43.8,28.0 -41.4,32.4" fill="none" stroke="rgb(44,34,43)" stroke-width="0.8560151953595336" stroke-linejoin="round" stroke-linecap="round" filter="url(#fuzzy_av_1779093955006_znw1h2173z)" opacity="0.9190407907229471"/><polyline points="-45.3,-26.4 -46.6,-22.4 -47.6,-20.8 -48.7,-18.3 -49.9,-16.7 -51.1,-13.3 -52.3,-10.8 -53.3,-9.7 -54.1,-6.0 -54.7,-4.0 -55.1,-0.9 -55.4,1.2 -55.6,3.4 -55.7,6.1 -55.6,7.5 -55.5,9.3 -55.5,11.2 -55.6,13.9 -55.9,16.8 -56.3,17.8 -56.8,19.5 -57.1,21.0 -57.1,23.6 -57.1,24.5" fill="none" stroke="rgb(44,34,43)" stroke-width="0.8220759533947027" stroke-linejoin="round" stroke-linecap="round" filter="url(#fuzzy_av_1779093955006_znw1h2173z)" opacity="0.7933646824562202"/><polyline points="-45.3,-27.4 -47.7,-22.8 -49.6,-21.0 -51.0,-18.4 -51.7,-16.0 -51.9,-13.9 -52.0,-11.4 -52.2,-9.7 -52.6,-5.8 -53.4,-5.1 -54.1,-0.9 -54.7,0.9 -54.9,3.6 -54.8,5.9 -54.3,8.4 -53.8,9.7 -53.3,11.9 -53.0,15.0 -52.9,16.4 -52.8,18.3 -52.7,20.4 -52.4,22.0 -51.9,24.0 -51.0,25.4 -49.9,28.2 -48.5,29.8 -47.2,30.9" fill="none" stroke="rgb(44,34,43)" stroke-width="2.586964199077597" stroke-linejoin="round" stroke-linecap="round" filter="url(#fuzzy_av_1779093955006_znw1h2173z)" opacity="0.7855150794423797"/><polyline points="-48.1,-18.4 -45.5,-15.7 -45.1,-14.5 -45.1,-13.3 -44.6,-9.9 -43.7,-8.1 -42.8,-4.8 -42.2,-2.9 -41.7,-1.6 -41.2,1.6 -40.6,3.6 -39.7,6.6 -38.7,8.4 -37.5,10.9 -36.1,13.8 -34.3,15.6 -32.1,15.8 -29.5,18.6 -26.7,21.0 -24.0,22.7 -21.7,24.7 -19.7,27.0 -17.7,28.8 -15.8,30.6 -15.4,30.7" fill="none" stroke="rgb(44,34,43)" stroke-width="0.7899734437380848" stroke-linejoin="round" stroke-linecap="round" filter="url(#fuzzy_av_1779093955006_znw1h2173z)" opacity="0.7714415993020308"/><polyline points="-48.8,-13.9 -49.8,-11.4 -50.1,-8.7 -50.3,-6.1 -50.3,-3.7 -50.3,-1.7 -50.2,1.4 -50.1,4.6 -49.9,5.4 -49.6,8.3 -49.4,10.8 -49.0,13.3 -48.7,14.8 -48.4,16.4 -48.0,19.1 -47.4,20.5 -46.6,21.6 -45.6,23.4 -44.4,26.6 -43.0,26.5 -41.5,28.8 -40.1,32.2 -38.6,33.0 -36.9,34.3 -35.0,36.3 -32.9,38.6" fill="none" stroke="rgb(44,34,43)" stroke-width="1.2237970704641286" stroke-linejoin="round" stroke-linecap="round" filter="url(#fuzzy_av_1779093955006_znw1h2173z)" opacity="0.8157632074539284"/><polyline points="-48.8,-15.2 -49.3,-12.2 -50.2,-9.3 -51.8,-6.1 -53.5,-2.8 -55.1,-1.6 -56.2,1.3 -56.9,4.4 -57.1,5.5 -57.0,8.2 -56.4,10.3 -55.5,11.9 -54.5,14.1 -53.5,16.6 -52.7,19.4 -52.0,20.2 -51.5,23.1 -51.0,23.6 -50.4,26.2 -49.6,28.2 -48.5,29.0 -47.1,30.7 -45.3,33.2 -43.5,35.0 -41.5,36.6 -39.5,37.5 -37.6,38.1 -35.5,39.9 -33.2,40.6 -30.7,43.0 -27.8,44.1 -24.7,44.3 -21.4,45.4 -18.1,46.3 -14.7,46.3 -11.1,46.5 -7.2,48.2 -3.4,46.9" fill="none" stroke="rgb(44,34,43)" stroke-width="1.5695404821389802" stroke-linejoin="round" stroke-linecap="round" filter="url(#fuzzy_av_1779093955006_znw1h2173z)" opacity="0.865080176960479"/><polyline points="-49.4,-11.0 -50.9,-9.4 -52.0,-6.9 -52.2,-4.4 -52.3,-1.4 -52.5,1.8 -52.6,4.5 -52.5,7.0 -52.4,9.0 -52.3,10.7 -52.3,12.2 -52.3,15.2 -52.2,15.7 -51.9,18.8 -51.1,20.6 -50.0,22.7 -48.7,24.1 -47.2,25.8 -45.6,28.1 -44.0,29.8 -42.4,31.8 -40.8,32.7 -39.2,35.3 -37.5,36.7 -35.6,37.7 -33.6,38.7 -31.5,40.9 -29.2,40.9 -26.8,42.1 -24.2,44.1 -21.5,44.2 -18.8,44.8 -16.1,45.0 -13.2,45.7 -10.1,47.4 -6.9,48.1 -3.9,48.8 -2.2,47.6" fill="none" stroke="rgb(44,34,43)" stroke-width="2.394178925733387" stroke-linejoin="round" stroke-linecap="round" filter="url(#fuzzy_av_1779093955006_znw1h2173z)" opacity="0.8396416036528298"/><polyline points="-49.4,-11.0 -49.6,-8.5 -49.8,-6.9 -49.9,-4.0 -49.8,-1.7 -49.7,1.1 -49.4,3.3 -49.0,6.0 -48.6,8.6 -48.0,9.7 -47.5,12.1 -46.8,14.8 -46.1,16.2 -45.3,19.2 -44.4,21.3 -43.4,22.1 -42.3,24.3 -41.0,26.6 -39.7,27.3 -38.2,28.9 -36.7,31.4 -35.1,32.4 -33.4,35.1 -31.7,35.8 -30.0,37.3 -28.3,38.3 -26.5,39.4 -24.5,40.3 -22.4,41.8 -20.0,42.7 -17.6,44.6 -15.9,44.6" fill="none" stroke="rgb(44,34,43)" stroke-width="1.3196092350795463" stroke-linejoin="round" stroke-linecap="round" filter="url(#fuzzy_av_1779093955006_znw1h2173z)" opacity="0.9798953360641994"/><polyline points="-49.9,-8.2 -50.0,-7.2 -50.3,-5.9 -50.5,-2.0 -50.8,-1.2 -51.0,1.3 -51.2,3.8 -51.2,7.3 -51.0,8.3 -50.5,12.1 -49.8,12.5 -49.0,14.5 -48.2,16.2 -47.4,18.3 -46.7,20.6 -45.9,22.8 -45.1,25.6 -44.1,26.7 -42.8,29.7 -41.4,31.3 -39.8,32.1 -38.0,34.2 -36.2,36.4 -34.4,36.3 -32.5,38.8 -30.5,40.1 -28.5,40.9 -26.4,42.6 -24.4,43.0 -22.5,44.0 -20.4,45.5 -18.1,44.7" fill="none" stroke="rgb(44,34,43)" stroke-width="2.017366141999968" stroke-linejoin="round" stroke-linecap="round" filter="url(#fuzzy_av_1779093955006_znw1h2173z)" opacity="0.7676850699971587"/><polyline points="-49.9,-9.1 -49.9,-6.7 -50.0,-4.5 -50.0,-4.0 -50.0,-1.3 -49.8,1.2 -49.6,3.1 -49.3,7.0 -49.0,8.4 -48.7,11.5 -48.3,13.8 -47.9,14.7 -47.4,16.0 -46.8,18.8 -46.0,20.8 -45.1,22.1 -44.0,25.0 -42.7,26.9 -41.4,29.6 -40.1,29.9 -38.6,32.3 -36.9,33.9 -35.1,35.7" fill="none" stroke="rgb(44,34,43)" stroke-width="2.3491741977431384" stroke-linejoin="round" stroke-linecap="round" filter="url(#fuzzy_av_1779093955006_znw1h2173z)" opacity="0.8012245477168409"/><polyline points="-49.8,-5.9 -50.1,-5.4 -50.2,-3.7 -50.5,0.1 -50.7,1.6 -50.7,4.9 -50.5,6.4 -50.2,8.7 -49.9,11.5 -49.7,14.3 -49.5,15.1 -49.4,18.0 -49.2,19.5 -48.8,20.8 -48.3,22.3 -47.6,25.2 -46.7,26.6 -45.5,28.0 -44.2,31.0 -42.7,32.9 -41.1,33.8 -39.4,35.7 -37.5,37.7 -35.5,38.1 -33.3,40.1 -31.0,40.8 -28.7,40.9 -26.5,42.5 -24.3,43.7 -22.0,45.3 -19.3,44.9 -16.0,45.9 -13.0,46.2" fill="none" stroke="rgb(44,34,43)" stroke-width="1.9455590336315014" stroke-linejoin="round" stroke-linecap="round" filter="url(#fuzzy_av_1779093955006_znw1h2173z)" opacity="0.8246805089505238"/><polyline points="-50.1,-5.3 -50.0,-2.5 -50.0,0.1 -49.8,2.7 -49.5,4.3 -49.2,5.9 -48.7,9.3 -48.2,10.7 -47.7,13.5 -47.1,14.1 -46.4,15.7 -45.6,18.3 -44.7,20.7 -43.8,21.7 -42.7,23.2 -41.4,25.4 -40.1,28.1 -38.6,29.5 -37.1,30.6 -35.5,33.1 -33.8,34.2 -32.2,36.5 -30.5,37.6 -28.9,39.2 -26.8,40.6" fill="none" stroke="rgb(44,34,43)" stroke-width="1.470130307935569" stroke-linejoin="round" stroke-linecap="round" filter="url(#fuzzy_av_1779093955006_znw1h2173z)" opacity="0.8710572518662313"/><polyline points="-49.8,-0.8 -49.8,0.8 -49.5,5.5 -49.0,7.0 -48.6,9.8 -48.2,11.9 -47.7,14.1 -47.2,15.4 -46.6,18.2 -46.0,20.3 -45.2,20.7 -44.2,23.3 -43.1,25.9 -41.7,27.9 -40.2,29.2 -38.6,30.8 -36.9,32.7 -35.1,34.1 -33.3,35.4 -31.5,37.5 -29.6,37.4 -27.7,39.9 -25.7,41.6 -23.6,42.0 -21.5,42.7 -19.3,44.2 -17.1,45.5 -14.8,44.5 -12.4,45.2 -10.1,45.6 -7.8,47.7 -5.5,48.2 -3.2,48.3 -0.7,47.2 2.0,48.1 5.1,47.6 8.5,46.8" fill="none" stroke="rgb(44,34,43)" stroke-width="2.1760219103520266" stroke-linejoin="round" stroke-linecap="round" filter="url(#fuzzy_av_1779093955006_znw1h2173z)" opacity="0.9737027541072661"/><polyline points="-50.0,2.0 -49.7,5.1 -49.1,8.3 -48.5,9.0 -48.0,11.5 -47.4,14.5 -46.8,16.4 -46.1,17.5 -45.3,18.6 -44.3,21.3 -43.1,23.0 -41.8,25.5 -40.5,27.9 -39.0,28.3 -37.5,31.3 -35.9,32.2 -34.3,34.0 -32.6,34.7 -30.9,36.7 -29.1,38.1 -27.2,40.6 -25.2,41.1 -23.3,40.9 -21.4,42.3 -19.4,44.2 -17.3,43.9 -14.6,46.3 -11.0,45.5" fill="none" stroke="rgb(44,34,43)" stroke-width="1.25163156708155" stroke-linejoin="round" stroke-linecap="round" filter="url(#fuzzy_av_1779093955006_znw1h2173z)" opacity="0.7799628001518351"/><polyline points="-48.3,10.5 -50.2,11.7 -50.9,12.4 -50.1,16.2 -49.1,17.6 -48.1,19.2 -47.1,20.8 -45.9,21.8 -44.4,25.5 -42.9,26.0 -41.4,28.8 -40.1,29.8 -39.0,31.2 -37.9,33.9 -36.8,34.6 -35.6,36.5 -34.2,38.1 -32.6,39.8 -30.7,40.8 -28.6,40.5 -26.2,43.1 -23.7,42.6 -21.1,43.5 -18.5,45.0 -15.9,45.5 -13.1,46.9 -10.0,46.7 -6.4,47.6 -3.0,48.9" fill="none" stroke="rgb(44,34,43)" stroke-width="0.9662906465999496" stroke-linejoin="round" stroke-linecap="round" filter="url(#fuzzy_av_1779093955006_znw1h2173z)" opacity="0.8145316657444024"/><polyline points="-48.3,10.2 -47.8,11.6 -47.5,14.3 -47.2,16.3 -46.9,16.5 -46.5,18.7 -46.1,20.8 -45.6,22.9 -45.0,25.3 -44.1,26.9 -42.9,29.9 -41.4,30.7 -39.6,32.8 -37.8,33.8 -36.0,34.7 -34.2,36.4 -32.5,38.5 -30.7,38.7 -28.8,40.5 -26.8,42.5 -25.0,42.9 -23.3,44.4 -21.3,44.0" fill="none" stroke="rgb(44,34,43)" stroke-width="0.7548013215803595" stroke-linejoin="round" stroke-linecap="round" filter="url(#fuzzy_av_1779093955006_znw1h2173z)" opacity="0.9777608551091812"/><polyline points="-47.9,13.0 -48.1,14.0 -48.7,15.7 -48.4,17.8 -47.2,20.2 -45.6,21.2 -44.1,24.3 -42.7,26.2 -41.5,27.6 -40.4,29.1 -39.1,32.1 -37.6,33.1 -36.0,34.8 -34.2,36.1 -32.3,36.6 -30.4,38.7 -28.4,39.5 -26.3,40.1 -24.1,41.3 -21.9,42.5 -19.6,43.5 -17.3,44.5 -15.0,45.9 -12.6,46.0 -10.3,46.0 -7.9,47.4 -5.5,48.2 -3.0,48.6 -0.3,47.3 2.6,48.7 5.8,47.5 9.0,46.7 11.9,47.4 13.8,48.0" fill="none" stroke="rgb(44,34,43)" stroke-width="2.4219967619273888" stroke-linejoin="round" stroke-linecap="round" filter="url(#fuzzy_av_1779093955006_znw1h2173z)" opacity="0.878449779625398"/><polyline points="-47.5,13.5 -47.2,14.9 -46.7,18.0 -46.3,20.0 -45.9,21.5 -45.1,22.0 -44.1,25.4 -42.8,26.1 -41.4,28.5 -39.8,30.5 -38.2,32.1 -36.5,33.6 -34.7,35.8 -32.9,35.6 -31.1,37.4 -29.2,38.7 -27.2,40.9 -25.1,41.2 -22.9,42.3 -20.6,44.1 -18.3,45.2 -15.8,45.9 -13.3,45.3 -10.8,47.2 -8.2,46.5 -5.6,46.4 -3.1,47.5 -0.5,47.4 2.2,47.4 4.9,47.3 7.8,47.7 10.9,47.3 14.1,47.7 17.4,46.1 20.7,44.9 24.1,44.1" fill="none" stroke="rgb(44,34,43)" stroke-width="1.1561395959756575" stroke-linejoin="round" stroke-linecap="round" filter="url(#fuzzy_av_1779093955006_znw1h2173z)" opacity="0.804620976399417"/><polyline points="-46.5,16.0 -47.7,17.7 -48.0,19.2 -46.8,22.0 -45.1,22.8 -43.3,24.0 -41.5,26.2 -39.9,27.8 -38.3,30.0 -36.8,31.8 -35.3,34.1 -33.8,34.8 -32.3,35.9 -30.7,37.6 -29.0,39.4 -27.1,39.8 -25.0,42.0 -22.7,43.2 -20.3,43.9 -17.8,45.2 -15.3,44.7 -12.7,46.4 -10.2,45.6 -7.7,46.4 -5.2,46.5 -2.7,47.7 -0.1,46.7 2.5,48.1 5.2,48.5 8.0,47.7 10.9,48.0 13.9,46.2 17.0,46.3 20.0,46.1 22.8,44.2 25.2,45.1 27.2,44.2 29.8,43.6" fill="none" stroke="rgb(44,34,43)" stroke-width="1.2264623408914486" stroke-linejoin="round" stroke-linecap="round" filter="url(#fuzzy_av_1779093955006_znw1h2173z)" opacity="0.7555751041217411"/><polyline points="-47.0,14.5 -46.4,16.6 -45.6,19.0 -44.6,20.9 -43.3,23.4 -41.9,25.3 -40.4,27.3 -39.0,29.9 -37.6,31.7 -36.1,32.7 -34.5,35.4 -32.9,36.8 -31.1,37.3 -29.3,38.7 -27.3,39.3 -25.3,40.9 -23.3,43.0 -21.2,42.1 -19.1,44.8 -16.9,44.3 -14.6,44.6 -12.3,45.8 -9.9,47.6 -7.6,47.0 -5.4,48.3 -3.1,47.7 -0.7,46.8 2.0,47.6 5.2,47.7 8.6,47.0" fill="none" stroke="rgb(44,34,43)" stroke-width="2.045053751598389" stroke-linejoin="round" stroke-linecap="round" filter="url(#fuzzy_av_1779093955006_znw1h2173z)" opacity="0.9815258301148039"/><polyline points="-46.2,17.5 -46.7,19.5 -47.8,20.8 -47.7,22.2 -46.5,24.6 -44.6,27.5 -42.5,29.6 -40.3,29.5 -38.3,31.3 -36.3,33.2 -34.4,34.8 -32.5,36.8 -30.7,37.1 -28.8,39.2 -26.9,40.7 -24.9,42.0 -22.8,41.8 -20.6,43.4 -18.3,44.4 -15.9,44.8 -13.4,45.7 -10.8,46.9 -8.2,47.8 -5.5,47.5 -2.9,47.9 -0.2,48.6 2.5,48.7 5.3,47.5 8.4,47.3 11.5,46.6 14.9,46.2 18.2,45.6 21.6,45.0 25.2,44.8" fill="none" stroke="rgb(44,34,43)" stroke-width="1.9290009202061704" stroke-linejoin="round" stroke-linecap="round" filter="url(#fuzzy_av_1779093955006_znw1h2173z)" opacity="0.9774489450759688"/><polyline points="-46.5,17.4 -45.4,20.5 -44.5,21.2 -43.4,24.6 -42.1,25.8 -40.7,27.6 -39.4,28.8 -38.1,31.4 -36.7,32.5 -35.3,34.6 -33.6,35.7 -31.8,37.8 -30.0,38.2 -28.0,39.7 -26.0,41.0 -24.0,42.7 -21.9,42.3 -19.7,43.8 -17.4,44.1 -15.1,44.5 -12.7,47.1 -10.3,47.4 -7.9,46.5 -5.7,47.8 -3.4,47.4 -1.0,47.6 1.8,47.9 5.6,46.8" fill="none" stroke="rgb(44,34,43)" stroke-width="2.385124255845403" stroke-linejoin="round" stroke-linecap="round" filter="url(#fuzzy_av_1779093955006_znw1h2173z)" opacity="0.9357817362178583"/><polyline points="-43.4,22.4 -43.4,24.1 -41.8,27.0 -39.9,28.8 -38.1,31.5 -36.4,32.0 -34.8,34.6 -33.1,35.4 -31.5,36.0 -29.8,37.2 -28.0,39.1 -26.2,41.4 -24.3,41.3 -22.2,42.1 -20.0,43.7 -17.7,44.1 -15.2,46.0 -12.7,46.9 -10.2,46.0 -7.7,46.0 -5.3,48.3 -2.9,48.3 -0.6,48.1 1.8,47.3 4.2,47.3 6.7,47.9 9.6,48.0 13.2,47.2" fill="none" stroke="rgb(44,34,43)" stroke-width="1.507331415079285" stroke-linejoin="round" stroke-linecap="round" filter="url(#fuzzy_av_1779093955006_znw1h2173z)" opacity="0.8768914259191575"/><polyline points="-40.6,26.4 -39.6,28.6 -38.3,30.7 -37.0,32.5 -35.9,34.0 -34.9,34.6 -33.8,37.2 -32.5,38.3 -30.9,39.6 -28.8,39.9 -26.6,40.9 -24.2,42.4 -21.8,43.4 -19.5,44.4 -17.1,44.5 -14.8,44.9 -12.4,46.9 -10.1,46.6 -7.6,47.1 -5.0,46.9 -2.3,47.8 0.6,46.8 3.7,47.0 7.0,48.4 10.3,48.3 13.6,46.7 16.8,47.1 20.1,45.6 23.5,46.4 27.1,43.8 30.8,44.2 34.1,42.2 36.6,41.9" fill="none" stroke="rgb(44,34,43)" stroke-width="1.9000746443429195" stroke-linejoin="round" stroke-linecap="round" filter="url(#fuzzy_av_1779093955006_znw1h2173z)" opacity="0.8349447360147443"/><polyline points="-40.2,28.6 -38.5,31.1 -38.0,31.9 -37.8,32.8 -37.2,34.4 -35.8,36.6 -33.9,36.9 -31.6,38.9 -29.3,40.7 -27.0,41.7 -24.7,42.2 -22.3,43.7 -19.8,43.4 -17.3,44.1 -14.7,45.4 -12.1,45.8 -9.5,46.6 -6.9,47.0 -4.3,46.8 -1.6,47.1 1.3,47.4 4.2,46.5 7.2,46.8 10.3,46.5 13.4,47.8 16.6,47.2 19.9,46.8 23.3,45.4 26.8,45.2 30.4,44.0 33.9,43.5 37.3,41.0 40.5,41.2 43.6,39.6 46.6,38.7 49.9,35.8 54.3,34.0" fill="none" stroke="rgb(44,34,43)" stroke-width="1.2981139980140775" stroke-linejoin="round" stroke-linecap="round" filter="url(#fuzzy_av_1779093955006_znw1h2173z)" opacity="0.9719087857171484"/></g><circle r="1.9725163971507664" cx="-5.274824962999419" cy="11.727427954682744" stroke="#111" fill="none" stroke-width="0.9572641176862224" filter="url(#fuzzy_av_1779093955006_znw1h2173z)"/><circle r="1.6015886895325322" cx="-7.384177487865229" cy="11.639788686762776" stroke="#111" fill="none" stroke-width="0.8083612115766461" filter="url(#fuzzy_av_1779093955006_znw1h2173z)"/><circle r="2.262285856998612" cx="-7.894860917721247" cy="12.303894561203142" stroke="#111" fill="none" stroke-width="0.8938837275748734" filter="url(#fuzzy_av_1779093955006_znw1h2173z)"/><circle r="1.5991991950496998" cx="-6.955414336819884" cy="11.437879154943921" stroke="#111" fill="none" stroke-width="1.1003012963816043" filter="url(#fuzzy_av_1779093955006_znw1h2173z)"/><circle r="1.8402428570785532" cx="-7.628781188349584" cy="12.06696007090209" stroke="#111" fill="none" stroke-width="1.2499884480976393" filter="url(#fuzzy_av_1779093955006_znw1h2173z)"/><circle r="1.5960042418917326" cx="-7.661118139111153" cy="9.591559631944106" stroke="#111" fill="none" stroke-width="0.8603958626652506" filter="url(#fuzzy_av_1779093955006_znw1h2173z)"/><circle r="1.1862576853847506" cx="-7.593092284913134" cy="10.593883982917555" stroke="#111" fill="none" stroke-width="1.0466353347436197" filter="url(#fuzzy_av_1779093955006_znw1h2173z)"/><circle r="2.2970280550908333" cx="-5.7443375501244365" cy="11.974581715905462" stroke="#111" fill="none" stroke-width="0.8777143363559685" filter="url(#fuzzy_av_1779093955006_znw1h2173z)"/><circle r="1.0387219963672254" cx="-8.816805501694212" cy="11.793462627090541" stroke="#111" fill="none" stroke-width="1.221841865120553" filter="url(#fuzzy_av_1779093955006_znw1h2173z)"/><circle r="2.1044109932577815" cx="-6.508844177236703" cy="11.036750974705585" stroke="#111" fill="none" stroke-width="0.959615902776386" filter="url(#fuzzy_av_1779093955006_znw1h2173z)"/><circle r="2.0738534511649327" cx="6.5567871038010335" cy="12.222374767271013" stroke="#111" fill="none" stroke-width="1.220351873403218" filter="url(#fuzzy_av_1779093955006_znw1h2173z)"/><circle r="1.2871678715470374" cx="4.994065822713928" cy="11.937795371951871" stroke="#111" fill="none" stroke-width="0.8711580713750025" filter="url(#fuzzy_av_1779093955006_znw1h2173z)"/><circle r="1.1863061505516554" cx="4.484577168346989" cy="12.314868069923033" stroke="#111" fill="none" stroke-width="1.1234041234397274" filter="url(#fuzzy_av_1779093955006_znw1h2173z)"/><circle r="2.4432480556596117" cx="7.423955657547341" cy="11.718090239788957" stroke="#111" fill="none" stroke-width="0.8367280723840061" filter="url(#fuzzy_av_1779093955006_znw1h2173z)"/><circle r="1.6551919844084255" cx="6.98586025868106" cy="11.78973754375799" stroke="#111" fill="none" stroke-width="1.2244576767101356" filter="url(#fuzzy_av_1779093955006_znw1h2173z)"/><circle r="1.4327057030797477" cx="5.868173349280656" cy="12.124323655330626" stroke="#111" fill="none" stroke-width="1.1782207969537097" filter="url(#fuzzy_av_1779093955006_znw1h2173z)"/><circle r="1.0629174432820312" cx="4.527606036227931" cy="14.094243184727674" stroke="#111" fill="none" stroke-width="1.1679610064942205" filter="url(#fuzzy_av_1779093955006_znw1h2173z)"/><circle r="1.4045034237023417" cx="7.482334939056531" cy="13.94697900529662" stroke="#111" fill="none" stroke-width="1.1686483832194559" filter="url(#fuzzy_av_1779093955006_znw1h2173z)"/><circle r="2.2763025917637827" cx="6.486266663042433" cy="12.272406320424182" stroke="#111" fill="none" stroke-width="0.8757400853038901" filter="url(#fuzzy_av_1779093955006_znw1h2173z)"/><circle r="1.1893999232795054" cx="4.2418637880755945" cy="12.315847054218985" stroke="#111" fill="none" stroke-width="1.1782605840859723" filter="url(#fuzzy_av_1779093955006_znw1h2173z)"/><polyline points="10.7,23.0 10.7,23.9 10.6,24.3 10.7,24.1 10.6,25.2 10.5,25.5 10.5,25.7 10.6,25.5 10.4,25.9 10.1,26.6 9.5,27.5 9.7,27.3 9.5,27.4 8.9,28.3 9.3,27.6 8.7,28.6 8.5,28.8 8.4,28.9 7.8,29.5 7.0,30.2 7.6,29.6 6.8,30.4 5.8,31.0 5.9,30.9 5.3,31.3 5.6,31.1 4.6,31.8 3.4,32.4 4.3,31.9 3.3,32.4 2.1,33.0 2.8,32.7 2.4,32.9 0.4,33.7 0.5,33.7 -1.0,34.1 -0.8,34.1 -0.9,34.1 -1.2,34.2 -2.7,34.6 -3.4,34.8 -3.7,34.9 -4.9,35.1 -4.2,35.0 -5.6,35.2 -6.7,35.4 -7.2,35.5 -7.4,35.5 -9.2,35.7 -8.0,35.6 -10.8,35.8 -10.1,35.7 -11.9,35.8 -10.9,35.8 -12.4,35.8 -12.9,35.8 -12.8,35.8 -13.3,35.8 -15.1,35.7 -14.6,35.7 -16.3,35.6 -16.3,35.6 -17.3,35.5 -17.2,35.5 -18.6,35.3 -19.3,35.2 -19.2,35.1 -21.1,34.7 -21.0,34.7 -22.3,34.4 -21.1,34.7 -21.8,34.5 -23.1,34.1 -23.5,34.0 -25.1,33.4 -25.1,33.3 -24.6,33.5 -26.3,32.8 -26.5,32.6 -26.1,32.8 -26.7,32.4 -26.9,32.4 -27.3,32.1 -28.0,31.5 -28.4,31.3 -28.4,31.2 -29.4,30.4 -28.8,30.9 -29.8,29.9 -30.1,29.4 -30.4,29.0 -30.5,29.0 -30.2,29.4 -30.7,28.4 -30.8,28.2 -31.0,27.8 -30.9,28.2 -31.1,27.6 -31.3,26.7 -31.4,26.2 -31.4,26.7 -31.3,26.3 -31.2,25.3 -31.3,24.8 -31.4,24.9 -31.2,24.7 -31.0,24.0 -31.1,24.0 -30.9,23.3 -30.8,23.4 -30.9,23.4 -30.5,22.7 -30.0,22.0 -30.1,22.2 -30.1,21.9 -29.3,21.1 -28.8,20.5 -29.1,20.7 -28.1,19.8 -28.6,20.4 -28.2,19.9 -27.2,19.2 -27.2,19.1 -25.9,18.3 -26.3,18.5 -26.3,18.5 -25.1,17.8 -24.8,17.7 -23.6,17.1 -23.3,16.9 -24.3,17.4 -22.2,16.5 -21.5,16.2 -22.4,16.5 -21.8,16.3 -20.8,16.0 -20.7,15.9 -18.2,15.2 -18.4,15.2 -17.9,15.1 -17.5,15.0 -16.0,14.7 -17.1,14.9 -15.2,14.5 -15.9,14.7 -14.6,14.4 -13.6,14.3 -14.1,14.4 -12.0,14.1 -11.3,14.1 -9.8,14.0 -10.7,14.0 -10.1,14.0 -9.1,14.0 -7.3,14.0 -6.9,14.0 -7.8,14.0 -6.5,14.0 -5.4,14.0 -6.1,14.0 -3.9,14.2 -4.3,14.1 -3.5,14.2 -1.6,14.5 -0.9,14.7 -0.4,14.8 -0.3,14.8 -1.1,14.7 -0.3,14.8 0.5,15.0 1.0,15.1 1.7,15.3 3.3,15.9 2.7,15.7 4.2,16.3 3.3,15.9 4.1,16.2 5.6,17.0 5.4,16.8 6.1,17.3 6.1,17.2 6.8,17.7 6.6,17.5 7.8,18.5 7.9,18.4 8.1,18.8 8.2,18.6 9.2,19.7 8.8,19.3 8.8,19.3 9.5,20.3 9.8,20.5 9.6,20.4 10.4,21.7 10.1,21.1 10.4,21.8 10.6,22.5 10.7,22.9 10.8,23.1 10.6,22.9" fill="rgb(215,127,140)" stroke="#111" stroke-width="2.7978574791880377" stroke-linejoin="round" filter="url(#fuzzy_av_1779093955006_znw1h2173z)"/></g><g class="accessory-svg accessory-wind" transform="translate(72.9 -9.7) rotate(-10.4) scale(0.803)">
      <path d="M-12-4H5c5 0 5-6 0-6-2 0-4 1-5 3M-11 3H9c4 0 4 6-1 6-2 0-4-1-5-3M-8-1h16" fill="none" stroke="#E5E7EB" stroke-width="2" stroke-linecap="round"/>
    </g><g class="accessory-svg accessory-cloud" transform="translate(34.8 65.1) rotate(4.8) scale(1.210)">
      <path d="M-10 5c-3-5 2-9 6-6 2-7 12-5 12 2 5 0 6 8 0 9h-15c-2 0-3-1-3-5z" fill="#f8fafc" stroke="#111827" stroke-width="1.1"/><path d="M-7 13h14" stroke="#E5E7EB" stroke-width="1.3" stroke-linecap="round" opacity=".65"/>
    </g><g class="accessory-svg accessory-quiet-face" transform="translate(-71.0 5.8) rotate(-8.0) scale(1.127)">
      <circle cx="0" cy="0" r="10" fill="#f8fafc" stroke="#111827" stroke-width="1.1"/><circle cx="-4" cy="-2" r="1.2" fill="#D1D5DB"/><circle cx="4" cy="-2" r="1.2" fill="#D1D5DB"/><path d="M-4 4h8" stroke="#D1D5DB" stroke-width="1.2" stroke-linecap="round"/>
    </g><g class="accessory-svg accessory-leaf" transform="translate(-28.4 -64.3) rotate(-9.0) scale(1.117)">
      <path d="M-10 8C-5-8 5-12 12-10 10-1 4 9-10 8z" fill="#22c55e" stroke="#111827" stroke-width="1.1"/><path d="M-9 7C-2 3 3-2 10-9" stroke="#f8fafc" stroke-width="1.1"/>
    </g></svg>