<svg xmlns="http://www.w3.org/2000/svg" viewBox="-100 -100 200 200" width="400" height="400" role="img" aria-label="大管家 avatar"><defs>
      <filter id="fuzzy_av_1779093955000_210kchiwqu1" x="-8%" y="-8%" width="116%" height="116%">
        <feTurbulence baseFrequency="0.045" numOctaves="3" type="fractalNoise" result="noise"/>
        <feDisplacementMap in="SourceGraphic" in2="noise" scale="1.6"/>
      </filter>
      <clipPath id="leftEye_av_1779093955000_210kchiwqu1"><polyline points="-16.8,-2.5 -16.6,-2.7 -16.4,-3.0 -16.2,-3.2 -16.0,-3.5 -15.7,-3.7 -15.4,-4.0 -15.1,-4.2 -14.8,-4.4 -14.5,-4.7 -14.2,-4.9 -13.8,-5.1 -13.5,-5.3 -13.1,-5.5 -12.7,-5.7 -12.4,-5.9 -11.9,-6.2 -11.5,-6.5 -11.0,-6.8 -10.5,-7.0 -10.0,-7.3 -9.6,-7.5 -9.1,-7.7 -8.5,-7.8 -8.0,-8.0 -7.5,-8.1 -7.0,-8.2 -6.5,-8.2 -6.0,-8.3 -5.4,-8.3 -4.9,-8.3 -4.4,-8.3 -3.9,-8.2 -3.4,-8.2 -2.8,-8.1 -2.3,-8.0 -1.8,-7.9 -1.3,-7.7 -0.9,-7.6 -0.4,-7.4 0.1,-7.3 0.5,-7.1 1.0,-6.9 1.4,-6.7 1.8,-6.5 2.2,-6.3 2.6,-6.0 3.0,-5.8 3.4,-5.6 3.8,-5.3 4.1,-5.1 4.4,-4.9 4.8,-4.6 5.1,-4.4 5.4,-4.1 5.7,-3.9 5.9,-3.6 6.2,-3.4 6.4,-3.2 6.7,-2.9 6.9,-2.7 7.1,-2.5 7.3,-2.2 7.5,-2.0 7.7,-1.8 7.9,-1.6 8.1,-1.4 8.3,-1.1 8.4,-0.9 8.6,-0.7 8.7,-0.5 8.9,-0.3 9.0,-0.1 9.1,0.0 9.2,0.2 9.3,0.4 9.4,0.6 9.5,0.8 9.6,0.9 9.7,1.1 9.5,5.3 9.4,5.5 9.3,5.7 9.2,5.8 9.1,6.0 9.0,6.1 8.9,6.3 8.7,6.4 8.6,6.6 8.5,6.7 8.3,6.9 8.2,7.0 8.0,7.1 7.8,7.2 7.6,7.4 7.5,7.5 7.3,7.6 7.1,7.7 6.9,7.8 6.6,7.8 6.4,7.9 6.2,8.0 5.9,8.0 5.7,8.1 5.4,8.1 5.1,8.2 4.8,8.2 4.5,8.2 4.2,8.2 3.9,8.1 3.5,8.1 3.2,8.1 2.8,8.0 2.4,7.9 2.0,7.9 1.6,7.8 1.2,7.7 0.8,7.5 0.4,7.4 -0.1,7.3 -0.5,7.1 -1.0,7.0 -1.4,6.8 -1.9,6.6 -2.4,6.5 -2.9,6.3 -3.4,6.1 -3.9,5.9 -4.4,5.7 -4.9,5.5 -5.4,5.3 -5.9,5.1 -6.4,4.9 -6.9,4.7 -7.4,4.5 -7.9,4.3 -8.4,4.1 -8.9,3.9 -9.4,3.7 -9.9,3.6 -10.4,3.4 -10.8,3.2 -11.3,3.1 -11.7,2.9 -12.2,2.8 -12.5,2.6 -12.9,2.4 -13.3,2.3 -13.6,2.1 -13.9,1.9 -14.3,1.7 -14.6,1.5 -14.8,1.4 -15.1,1.2 -15.4,1.0 -15.6,0.8 -15.8,0.6 -16.0,0.4 -16.2,0.2 -16.4,-0.0"/></clipPath>
      <clipPath id="rightEye_av_1779093955000_210kchiwqu1"><polyline points="-16.1,-2.0 -15.9,-2.3 -15.7,-2.6 -15.5,-3.0 -15.3,-3.3 -15.0,-3.6 -14.7,-3.9 -14.4,-4.2 -14.1,-4.5 -13.8,-4.8 -13.4,-5.1 -13.1,-5.4 -12.7,-5.7 -12.3,-6.0 -12.0,-6.2 -11.6,-6.5 -11.1,-6.9 -10.6,-7.3 -10.1,-7.7 -9.6,-8.0 -9.1,-8.3 -8.6,-8.6 -8.0,-8.8 -7.5,-9.1 -7.0,-9.3 -6.5,-9.4 -5.9,-9.5 -5.4,-9.6 -4.9,-9.7 -4.4,-9.8 -3.9,-9.8 -3.4,-9.7 -2.9,-9.7 -2.4,-9.6 -1.9,-9.5 -1.4,-9.4 -1.0,-9.3 -0.5,-9.1 -0.1,-9.0 0.4,-8.8 0.8,-8.5 1.2,-8.3 1.6,-8.1 2.0,-7.8 2.4,-7.5 2.7,-7.3 3.1,-7.0 3.4,-6.7 3.8,-6.4 4.1,-6.1 4.4,-5.8 4.7,-5.4 4.9,-5.1 5.2,-4.8 5.5,-4.5 5.7,-4.2 5.9,-3.8 6.2,-3.5 6.4,-3.2 6.6,-2.9 6.7,-2.6 6.9,-2.3 7.1,-2.0 7.3,-1.7 7.4,-1.4 7.6,-1.1 7.7,-0.8 7.8,-0.5 8.0,-0.2 8.1,0.0 8.2,0.3 8.3,0.6 8.4,0.8 8.5,1.1 8.6,1.3 8.7,1.6 8.7,1.8 8.8,2.1 8.9,2.3 9.0,2.5 8.6,6.8 8.5,7.0 8.4,7.1 8.3,7.3 8.1,7.4 8.0,7.6 7.9,7.7 7.8,7.9 7.6,8.0 7.5,8.1 7.4,8.3 7.2,8.4 7.0,8.5 6.9,8.6 6.7,8.7 6.5,8.8 6.3,8.9 6.1,9.0 5.9,9.1 5.7,9.2 5.5,9.2 5.3,9.3 5.0,9.3 4.8,9.4 4.5,9.4 4.2,9.4 3.9,9.4 3.7,9.4 3.3,9.4 3.0,9.4 2.7,9.4 2.3,9.3 2.0,9.3 1.6,9.2 1.2,9.1 0.9,9.0 0.5,8.9 0.0,8.8 -0.4,8.7 -0.8,8.5 -1.2,8.4 -1.7,8.3 -2.2,8.1 -2.6,7.9 -3.1,7.8 -3.6,7.6 -4.1,7.4 -4.5,7.2 -5.0,7.0 -5.5,6.9 -6.0,6.7 -6.6,6.5 -7.1,6.3 -7.6,6.1 -8.1,5.9 -8.6,5.8 -9.1,5.6 -9.6,5.4 -10.0,5.2 -10.5,5.1 -11.0,4.9 -11.5,4.8 -11.9,4.6 -12.4,4.5 -12.8,4.4 -13.2,4.2 -13.5,4.0 -13.9,3.9 -14.2,3.7 -14.5,3.5 -14.8,3.3 -15.1,3.1 -15.4,2.9 -15.7,2.7 -15.9,2.5 -16.2,2.3 -16.4,2.1 -16.6,1.9 -16.7,1.6 -16.9,1.4"/></clipPath>
      <linearGradient id="rainbow_av_1779093955000_210kchiwqu1" x1="0%" y1="0%" x2="100%" y2="0%">
        <stop offset="0%" stop-color="#1E40AF"/><stop offset="35%" stop-color="#22D3EE"/><stop offset="100%" stop-color="#1E3A8A"/>
      </linearGradient>
      <linearGradient id="splitHair_av_1779093955000_210kchiwqu1" x1="0%" y1="0%" x2="100%" y2="0%">
        <stop offset="49%" stop-color="#111827"/><stop offset="51%" stop-color="#F9FAFB"/>
      </linearGradient>
      <radialGradient id="halo_av_1779093955000_210kchiwqu1"><stop offset="0%" stop-color="#1E40AF" stop-opacity=".45"/><stop offset="100%" stop-color="#1E40AF" stop-opacity="0"/></radialGradient>
    </defs><rect x="-100" y="-100" width="200" height="200" fill="#B0E0E6"/><g opacity="1"><polyline id="faceContour" class="face-shape" points="41.9,-7.0 42.2,-4.8 42.2,-4.7 42.3,-2.2 42.4,-0.5 42.4,-0.1 42.4,1.6 42.3,3.9 42.2,4.1 42.4,5.2 42.2,6.0 42.3,8.8 42.2,8.5 41.9,9.6 41.7,12.7 41.7,11.6 41.4,14.3 41.3,15.9 40.8,18.1 40.6,18.9 40.6,18.2 40.0,20.2 39.5,22.3 39.8,21.5 39.1,23.6 38.2,26.1 38.4,25.2 37.3,28.1 36.9,29.1 37.2,28.1 36.1,30.2 35.2,32.0 35.5,31.5 34.7,33.0 33.6,34.2 32.4,36.0 31.6,37.1 32.3,36.2 30.7,38.1 30.2,38.8 30.6,38.2 28.3,40.6 27.9,40.9 28.2,40.7 26.4,42.2 26.2,42.3 25.7,42.8 23.7,44.1 23.0,44.5 22.7,44.7 20.5,45.9 21.6,45.5 20.3,46.1 17.4,47.5 17.1,47.5 15.1,48.2 15.1,48.3 14.2,48.6 12.1,49.0 11.2,49.4 9.7,49.6 10.4,49.4 7.9,49.9 8.1,49.9 8.5,49.8 4.7,50.3 5.2,50.2 3.4,50.2 1.2,50.4 2.8,50.2 -0.4,50.3 -0.1,50.2 -2.9,50.2 -4.8,49.8 -5.1,49.7 -4.4,49.7 -6.6,49.5 -6.5,49.5 -9.5,48.8 -9.4,48.9 -12.5,47.9 -11.1,48.3 -13.2,47.5 -15.5,46.9 -13.9,47.4 -17.1,46.1 -17.6,45.6 -17.3,45.8 -20.3,44.5 -21.2,43.9 -22.0,43.2 -21.5,43.3 -22.0,43.4 -24.5,41.7 -23.8,42.0 -25.0,41.0 -25.9,40.4 -25.9,40.4 -28.3,38.5 -29.4,37.1 -30.0,36.7 -30.7,35.8 -30.9,35.5 -32.9,33.4 -33.0,33.1 -32.2,33.9 -34.2,31.2 -34.8,30.5 -34.8,30.5 -36.2,28.1 -35.9,28.8 -36.2,28.2 -37.5,25.8 -38.0,24.4 -38.1,23.9 -37.8,24.7 -39.4,20.9 -39.4,20.3 -40.1,18.6 -40.2,18.1 -40.2,18.1 -40.6,17.0 -41.2,14.5 -41.4,13.6 -41.2,14.6 -41.5,12.7 -41.7,12.0 -41.7,11.1 -42.1,8.7 -42.2,7.4 -42.3,5.2 -42.3,3.5 -42.4,2.7 -42.3,3.7 -42.6,2.0 -42.7,1.2 -42.6,-0.4 -42.4,-3.2 -42.4,-2.4 -42.0,-5.0 -42.1,-6.4 -41.9,-7.3 -41.4,-9.5 -41.5,-10.4 -41.8,-9.4 -41.2,-13.1 -41.5,-12.1 -40.5,-15.6 -40.3,-16.3 -40.2,-16.7 -40.1,-18.1 -39.9,-18.7 -38.6,-22.3 -39.2,-20.9 -38.9,-22.2 -38.2,-23.7 -38.4,-23.4 -37.6,-25.4 -37.2,-27.0 -36.7,-28.2 -36.3,-28.8 -35.4,-30.9 -35.3,-31.3 -35.3,-31.7 -34.2,-33.8 -33.4,-35.3 -33.0,-36.2 -32.5,-36.7 -31.2,-39.4 -31.7,-38.1 -30.1,-41.1 -30.0,-41.2 -29.0,-42.7 -28.8,-42.8 -28.8,-43.0 -27.5,-44.7 -27.4,-45.1 -25.2,-47.7 -24.9,-47.8 -24.8,-48.1 -23.7,-49.2 -24.2,-48.9 -23.1,-49.9 -21.7,-51.4 -21.2,-51.7 -21.1,-52.0 -19.7,-53.3 -19.6,-53.6 -17.0,-55.6 -17.9,-54.9 -16.7,-55.7 -15.0,-57.0 -14.2,-57.6 -14.5,-57.4 -14.7,-57.1 -12.0,-58.6 -11.5,-59.0 -11.1,-59.1 -10.6,-59.5 -10.3,-59.6 -9.1,-60.2 -6.2,-61.1 -6.1,-61.2 -5.9,-61.2 -5.7,-61.2 -3.4,-61.9 -2.6,-62.0 -2.1,-62.1 -1.1,-62.0 -1.3,-62.1 0.3,-62.2 1.2,-62.3 2.1,-62.2 2.6,-62.2 4.0,-62.3 4.9,-62.0 5.8,-61.9 5.8,-62.0 5.5,-62.0 7.2,-61.8 8.4,-61.4 9.6,-60.9 10.7,-60.7 12.0,-60.0 10.7,-60.5 12.3,-60.1 14.0,-59.1 13.2,-59.5 15.8,-58.3 16.5,-57.6 15.8,-58.1 17.2,-57.2 18.3,-56.3 18.8,-56.1 19.8,-55.2 19.7,-55.5 21.3,-54.0 22.0,-53.3 23.1,-52.4 24.0,-51.3 24.2,-51.1 25.4,-49.7 25.4,-49.8 26.5,-48.4 27.3,-47.4 27.9,-46.6 28.1,-46.4 29.4,-44.5 28.6,-45.2 29.7,-43.6 31.4,-41.2 31.3,-41.4 31.3,-41.3 32.5,-38.8 33.1,-37.6 33.2,-37.6 34.3,-35.2 34.4,-34.9 34.9,-34.4 34.8,-34.4 35.9,-32.1 36.9,-28.7 37.4,-27.7 37.8,-26.0 37.3,-27.6 38.2,-25.7 38.0,-26.2 38.4,-24.1 39.1,-22.4 39.4,-21.6 39.8,-19.2 40.3,-16.5 40.4,-17.5 41.1,-14.4 41.2,-13.0 41.5,-11.3 41.6,-10.6 41.8,-8.2 41.5,-9.5 42.0,-7.6 41.9,-7.0 42.2,-4.8" fill="#ffc9a9" stroke="#111" stroke-width="2.2" stroke-linejoin="round" filter="url(#fuzzy_av_1779093955000_210kchiwqu1)"/><g id="leftEye" transform="translate(-18.6 -29.4)"><polyline points="-16.8,-2.5 -16.6,-2.7 -16.4,-3.0 -16.2,-3.2 -16.0,-3.5 -15.7,-3.7 -15.4,-4.0 -15.1,-4.2 -14.8,-4.4 -14.5,-4.7 -14.2,-4.9 -13.8,-5.1 -13.5,-5.3 -13.1,-5.5 -12.7,-5.7 -12.4,-5.9 -11.9,-6.2 -11.5,-6.5 -11.0,-6.8 -10.5,-7.0 -10.0,-7.3 -9.6,-7.5 -9.1,-7.7 -8.5,-7.8 -8.0,-8.0 -7.5,-8.1 -7.0,-8.2 -6.5,-8.2 -6.0,-8.3 -5.4,-8.3 -4.9,-8.3 -4.4,-8.3 -3.9,-8.2 -3.4,-8.2 -2.8,-8.1 -2.3,-8.0 -1.8,-7.9 -1.3,-7.7 -0.9,-7.6 -0.4,-7.4 0.1,-7.3 0.5,-7.1 1.0,-6.9 1.4,-6.7 1.8,-6.5 2.2,-6.3 2.6,-6.0 3.0,-5.8 3.4,-5.6 3.8,-5.3 4.1,-5.1 4.4,-4.9 4.8,-4.6 5.1,-4.4 5.4,-4.1 5.7,-3.9 5.9,-3.6 6.2,-3.4 6.4,-3.2 6.7,-2.9 6.9,-2.7 7.1,-2.5 7.3,-2.2 7.5,-2.0 7.7,-1.8 7.9,-1.6 8.1,-1.4 8.3,-1.1 8.4,-0.9 8.6,-0.7 8.7,-0.5 8.9,-0.3 9.0,-0.1 9.1,0.0 9.2,0.2 9.3,0.4 9.4,0.6 9.5,0.8 9.6,0.9 9.7,1.1 9.5,5.3 9.4,5.5 9.3,5.7 9.2,5.8 9.1,6.0 9.0,6.1 8.9,6.3 8.7,6.4 8.6,6.6 8.5,6.7 8.3,6.9 8.2,7.0 8.0,7.1 7.8,7.2 7.6,7.4 7.5,7.5 7.3,7.6 7.1,7.7 6.9,7.8 6.6,7.8 6.4,7.9 6.2,8.0 5.9,8.0 5.7,8.1 5.4,8.1 5.1,8.2 4.8,8.2 4.5,8.2 4.2,8.2 3.9,8.1 3.5,8.1 3.2,8.1 2.8,8.0 2.4,7.9 2.0,7.9 1.6,7.8 1.2,7.7 0.8,7.5 0.4,7.4 -0.1,7.3 -0.5,7.1 -1.0,7.0 -1.4,6.8 -1.9,6.6 -2.4,6.5 -2.9,6.3 -3.4,6.1 -3.9,5.9 -4.4,5.7 -4.9,5.5 -5.4,5.3 -5.9,5.1 -6.4,4.9 -6.9,4.7 -7.4,4.5 -7.9,4.3 -8.4,4.1 -8.9,3.9 -9.4,3.7 -9.9,3.6 -10.4,3.4 -10.8,3.2 -11.3,3.1 -11.7,2.9 -12.2,2.8 -12.5,2.6 -12.9,2.4 -13.3,2.3 -13.6,2.1 -13.9,1.9 -14.3,1.7 -14.6,1.5 -14.8,1.4 -15.1,1.2 -15.4,1.0 -15.6,0.8 -15.8,0.6 -16.0,0.4 -16.2,0.2 -16.4,-0.0" fill="#fff" stroke="#fff" stroke-width="0" stroke-linejoin="round" filter="url(#fuzzy_av_1779093955000_210kchiwqu1)"/><polyline points="17.4,-0.7 17.5,-0.8 17.5,-1.0 17.5,-1.1 17.5,-1.3 17.4,-1.4 17.4,-1.6 17.3,-1.8 17.1,-2.1 17.0,-2.3 -16.8,-2.5 -16.6,-2.7 -16.4,-3.0 -16.2,-3.2 -16.0,-3.5 -15.7,-3.7 -15.4,-4.0 -15.1,-4.2 -14.8,-4.4 -14.5,-4.7 -14.2,-4.9 -13.8,-5.1 -13.5,-5.3 -13.1,-5.5 -12.7,-5.7 -12.4,-5.9 -11.9,-6.2 -11.5,-6.5 -11.0,-6.8 -10.5,-7.0 -10.0,-7.3 -9.6,-7.5 -9.1,-7.7 -8.5,-7.8 -8.0,-8.0 -7.5,-8.1 -7.0,-8.2 -6.5,-8.2 -6.0,-8.3 -5.4,-8.3 -4.9,-8.3 -4.4,-8.3 -3.9,-8.2 -3.4,-8.2 -2.8,-8.1 -2.3,-8.0 -1.8,-7.9 -1.3,-7.7 -0.9,-7.6 -0.4,-7.4 0.1,-7.3 0.5,-7.1 1.0,-6.9 1.4,-6.7 1.8,-6.5 2.2,-6.3 2.6,-6.0 3.0,-5.8 3.4,-5.6 3.8,-5.3 4.1,-5.1 4.4,-4.9 4.8,-4.6 5.1,-4.4 5.4,-4.1 5.7,-3.9 5.9,-3.6 6.2,-3.4 6.4,-3.2 6.7,-2.9 6.9,-2.7 7.1,-2.5 7.3,-2.2 7.5,-2.0 7.7,-1.8 7.9,-1.6 8.1,-1.4 8.3,-1.1 8.4,-0.9 8.6,-0.7 8.7,-0.5 8.9,-0.3 9.0,-0.1 9.1,0.0 9.2,0.2 9.3,0.4 9.4,0.6 9.5,0.8 9.6,0.9 9.7,1.1 -9.8,1.3 -9.9,1.4 -10.0,1.6 -10.0,1.8 -10.1,1.9 -10.2,2.1 -10.2,2.2 -10.3,2.4 -10.3,2.5 -10.4,2.7" fill="none" stroke="#111" stroke-width="2.4742519382878605" stroke-linejoin="round" stroke-linecap="round" filter="url(#fuzzy_av_1779093955000_210kchiwqu1)"/><polyline points="16.6,-2.8 16.8,-2.4 16.8,-2.1 16.9,-1.8 16.9,-1.5 16.9,-1.2 16.8,-1.0 16.7,-0.7 16.7,-0.5 16.5,-0.3 -16.4,-0.0 -16.2,0.2 -16.0,0.4 -15.8,0.6 -15.6,0.8 -15.4,1.0 -15.1,1.2 -14.8,1.4 -14.6,1.5 -14.3,1.7 -13.9,1.9 -13.6,2.1 -13.3,2.3 -12.9,2.4 -12.5,2.6 -12.2,2.8 -11.7,2.9 -11.3,3.1 -10.8,3.2 -10.4,3.4 -9.9,3.6 -9.4,3.7 -8.9,3.9 -8.4,4.1 -7.9,4.3 -7.4,4.5 -6.9,4.7 -6.4,4.9 -5.9,5.1 -5.4,5.3 -4.9,5.5 -4.4,5.7 -3.9,5.9 -3.4,6.1 -2.9,6.3 -2.4,6.5 -1.9,6.6 -1.4,6.8 -1.0,7.0 -0.5,7.1 -0.1,7.3 0.4,7.4 0.8,7.5 1.2,7.7 1.6,7.8 2.0,7.9 2.4,7.9 2.8,8.0 3.2,8.1 3.5,8.1 3.9,8.1 4.2,8.2 4.5,8.2 4.8,8.2 5.1,8.2 5.4,8.1 5.7,8.1 5.9,8.0 6.2,8.0 6.4,7.9 6.6,7.8 6.9,7.8 7.1,7.7 7.3,7.6 7.5,7.5 7.6,7.4 7.8,7.2 8.0,7.1 8.2,7.0 8.3,6.9 8.5,6.7 8.6,6.6 8.7,6.4 8.9,6.3 9.0,6.1 9.1,6.0 9.2,5.8 9.3,5.7 9.4,5.5 9.5,5.3 -9.6,5.2 -9.7,5.0 -9.8,4.8 -9.8,4.7 -9.9,4.5 -10.0,4.3 -10.0,4.2 -10.1,4.0 -10.2,3.8 -10.2,3.6" fill="none" stroke="#111" stroke-width="2.230792661827764" stroke-linejoin="round" stroke-linecap="round" filter="url(#fuzzy_av_1779093955000_210kchiwqu1)"/><circle r="4.3586955235457445" cx="-5.976683071135144" cy="-3.6171693838263215" stroke="#111" fill="none" stroke-width="1.2619271963563379" filter="url(#fuzzy_av_1779093955000_210kchiwqu1)" clip-path="url(#leftEye_av_1779093955000_210kchiwqu1)"/><circle r="3.989524832161569" cx="-7.471207380603125" cy="-2.9846506036975913" stroke="#111" fill="none" stroke-width="1.150861954480917" filter="url(#fuzzy_av_1779093955000_210kchiwqu1)" clip-path="url(#leftEye_av_1779093955000_210kchiwqu1)"/><circle r="2.9271896505794137" cx="-7.645899402864137" cy="-1.9531556444065528" stroke="#111" fill="none" stroke-width="0.8282509394127839" filter="url(#fuzzy_av_1779093955000_210kchiwqu1)" clip-path="url(#leftEye_av_1779093955000_210kchiwqu1)"/><circle r="3.7470934032158576" cx="-6.046025396083138" cy="-1.333136087903772" stroke="#111" fill="none" stroke-width="1.0762472941328936" filter="url(#fuzzy_av_1779093955000_210kchiwqu1)" clip-path="url(#leftEye_av_1779093955000_210kchiwqu1)"/><circle r="3.8017801519782" cx="-5.1882580616424345" cy="-0.2797645315528885" stroke="#111" fill="none" stroke-width="1.0589452821019611" filter="url(#fuzzy_av_1779093955000_210kchiwqu1)" clip-path="url(#leftEye_av_1779093955000_210kchiwqu1)"/><circle r="2.3647331014217547" cx="-6.437033827275224" cy="-4.308196144596108" stroke="#111" fill="none" stroke-width="1.0118259775516474" filter="url(#fuzzy_av_1779093955000_210kchiwqu1)" clip-path="url(#leftEye_av_1779093955000_210kchiwqu1)"/><circle r="2.365567582060309" cx="-7.429164498656707" cy="-3.493532062584645" stroke="#111" fill="none" stroke-width="1.2776075007401606" filter="url(#fuzzy_av_1779093955000_210kchiwqu1)" clip-path="url(#leftEye_av_1779093955000_210kchiwqu1)"/><circle r="4.466667109597695" cx="-8.20371864863555" cy="-4.430189576703166" stroke="#111" fill="none" stroke-width="0.9280854973789723" filter="url(#fuzzy_av_1779093955000_210kchiwqu1)" clip-path="url(#leftEye_av_1779093955000_210kchiwqu1)"/><circle r="3.144114029503414" cx="-7.620018112630101" cy="-1.1310849768729283" stroke="#111" fill="none" stroke-width="1.2374305354216666" filter="url(#fuzzy_av_1779093955000_210kchiwqu1)" clip-path="url(#leftEye_av_1779093955000_210kchiwqu1)"/><circle r="4.054448166309012" cx="-6.013932341162649" cy="-2.602719178151093" stroke="#111" fill="none" stroke-width="0.8251399374238582" filter="url(#fuzzy_av_1779093955000_210kchiwqu1)" clip-path="url(#leftEye_av_1779093955000_210kchiwqu1)"/></g><g id="rightEye" transform="translate(25.1 -31.4)"><polyline points="-16.1,-2.0 -15.9,-2.3 -15.7,-2.6 -15.5,-3.0 -15.3,-3.3 -15.0,-3.6 -14.7,-3.9 -14.4,-4.2 -14.1,-4.5 -13.8,-4.8 -13.4,-5.1 -13.1,-5.4 -12.7,-5.7 -12.3,-6.0 -12.0,-6.2 -11.6,-6.5 -11.1,-6.9 -10.6,-7.3 -10.1,-7.7 -9.6,-8.0 -9.1,-8.3 -8.6,-8.6 -8.0,-8.8 -7.5,-9.1 -7.0,-9.3 -6.5,-9.4 -5.9,-9.5 -5.4,-9.6 -4.9,-9.7 -4.4,-9.8 -3.9,-9.8 -3.4,-9.7 -2.9,-9.7 -2.4,-9.6 -1.9,-9.5 -1.4,-9.4 -1.0,-9.3 -0.5,-9.1 -0.1,-9.0 0.4,-8.8 0.8,-8.5 1.2,-8.3 1.6,-8.1 2.0,-7.8 2.4,-7.5 2.7,-7.3 3.1,-7.0 3.4,-6.7 3.8,-6.4 4.1,-6.1 4.4,-5.8 4.7,-5.4 4.9,-5.1 5.2,-4.8 5.5,-4.5 5.7,-4.2 5.9,-3.8 6.2,-3.5 6.4,-3.2 6.6,-2.9 6.7,-2.6 6.9,-2.3 7.1,-2.0 7.3,-1.7 7.4,-1.4 7.6,-1.1 7.7,-0.8 7.8,-0.5 8.0,-0.2 8.1,0.0 8.2,0.3 8.3,0.6 8.4,0.8 8.5,1.1 8.6,1.3 8.7,1.6 8.7,1.8 8.8,2.1 8.9,2.3 9.0,2.5 8.6,6.8 8.5,7.0 8.4,7.1 8.3,7.3 8.1,7.4 8.0,7.6 7.9,7.7 7.8,7.9 7.6,8.0 7.5,8.1 7.4,8.3 7.2,8.4 7.0,8.5 6.9,8.6 6.7,8.7 6.5,8.8 6.3,8.9 6.1,9.0 5.9,9.1 5.7,9.2 5.5,9.2 5.3,9.3 5.0,9.3 4.8,9.4 4.5,9.4 4.2,9.4 3.9,9.4 3.7,9.4 3.3,9.4 3.0,9.4 2.7,9.4 2.3,9.3 2.0,9.3 1.6,9.2 1.2,9.1 0.9,9.0 0.5,8.9 0.0,8.8 -0.4,8.7 -0.8,8.5 -1.2,8.4 -1.7,8.3 -2.2,8.1 -2.6,7.9 -3.1,7.8 -3.6,7.6 -4.1,7.4 -4.5,7.2 -5.0,7.0 -5.5,6.9 -6.0,6.7 -6.6,6.5 -7.1,6.3 -7.6,6.1 -8.1,5.9 -8.6,5.8 -9.1,5.6 -9.6,5.4 -10.0,5.2 -10.5,5.1 -11.0,4.9 -11.5,4.8 -11.9,4.6 -12.4,4.5 -12.8,4.4 -13.2,4.2 -13.5,4.0 -13.9,3.9 -14.2,3.7 -14.5,3.5 -14.8,3.3 -15.1,3.1 -15.4,2.9 -15.7,2.7 -15.9,2.5 -16.2,2.3 -16.4,2.1 -16.6,1.9 -16.7,1.6 -16.9,1.4" fill="#fff" stroke="#fff" stroke-width="0" stroke-linejoin="round" filter="url(#fuzzy_av_1779093955000_210kchiwqu1)"/><polyline points="-16.2,0.2 -16.4,0.1 -16.5,-0.1 -16.6,-0.2 -16.6,-0.4 -16.6,-0.7 -16.5,-0.9 -16.5,-1.2 -16.4,-1.4 -16.3,-1.7 -16.1,-2.0 -15.9,-2.3 -15.7,-2.6 -15.5,-3.0 -15.3,-3.3 -15.0,-3.6 -14.7,-3.9 -14.4,-4.2 -14.1,-4.5 -13.8,-4.8 -13.4,-5.1 -13.1,-5.4 -12.7,-5.7 -12.3,-6.0 -12.0,-6.2 -11.6,-6.5 -11.1,-6.9 -10.6,-7.3 -10.1,-7.7 -9.6,-8.0 -9.1,-8.3 -8.6,-8.6 -8.0,-8.8 -7.5,-9.1 -7.0,-9.3 -6.5,-9.4 -5.9,-9.5 -5.4,-9.6 -4.9,-9.7 -4.4,-9.8 -3.9,-9.8 -3.4,-9.7 -2.9,-9.7 -2.4,-9.6 -1.9,-9.5 -1.4,-9.4 -1.0,-9.3 -0.5,-9.1 -0.1,-9.0 0.4,-8.8 0.8,-8.5 1.2,-8.3 1.6,-8.1 2.0,-7.8 2.4,-7.5 2.7,-7.3 3.1,-7.0 3.4,-6.7 3.8,-6.4 4.1,-6.1 4.4,-5.8 4.7,-5.4 4.9,-5.1 5.2,-4.8 5.5,-4.5 5.7,-4.2 5.9,-3.8 6.2,-3.5 6.4,-3.2 6.6,-2.9 6.7,-2.6 6.9,-2.3 7.1,-2.0 7.3,-1.7 7.4,-1.4 7.6,-1.1 7.7,-0.8 7.8,-0.5 8.0,-0.2 8.1,0.0 8.2,0.3 8.3,0.6 8.4,0.8 8.5,1.1 8.6,1.3 8.7,1.6 8.7,1.8 8.8,2.1 8.9,2.3 9.0,2.5 9.0,2.7 9.1,3.0 9.1,3.2 9.2,3.4 9.2,3.6 9.3,3.8 9.3,4.0 9.4,4.2 9.4,4.4 9.4,4.6" fill="none" stroke="#111" stroke-width="3.292865010036233" stroke-linejoin="round" stroke-linecap="round" filter="url(#fuzzy_av_1779093955000_210kchiwqu1)"/><polyline points="-16.8,-1.8 -17.0,-1.4 -17.1,-1.0 -17.2,-0.7 -17.2,-0.3 -17.2,-0.0 -17.2,0.3 -17.2,0.6 -17.1,0.9 -17.0,1.1 -16.9,1.4 -16.7,1.6 -16.6,1.9 -16.4,2.1 -16.2,2.3 -15.9,2.5 -15.7,2.7 -15.4,2.9 -15.1,3.1 -14.8,3.3 -14.5,3.5 -14.2,3.7 -13.9,3.9 -13.5,4.0 -13.2,4.2 -12.8,4.4 -12.4,4.5 -11.9,4.6 -11.5,4.8 -11.0,4.9 -10.5,5.1 -10.0,5.2 -9.6,5.4 -9.1,5.6 -8.6,5.8 -8.1,5.9 -7.6,6.1 -7.1,6.3 -6.6,6.5 -6.0,6.7 -5.5,6.9 -5.0,7.0 -4.5,7.2 -4.1,7.4 -3.6,7.6 -3.1,7.8 -2.6,7.9 -2.2,8.1 -1.7,8.3 -1.2,8.4 -0.8,8.5 -0.4,8.7 0.0,8.8 0.5,8.9 0.9,9.0 1.2,9.1 1.6,9.2 2.0,9.3 2.3,9.3 2.7,9.4 3.0,9.4 3.3,9.4 3.7,9.4 3.9,9.4 4.2,9.4 4.5,9.4 4.8,9.4 5.0,9.3 5.3,9.3 5.5,9.2 5.7,9.2 5.9,9.1 6.1,9.0 6.3,8.9 6.5,8.8 6.7,8.7 6.9,8.6 7.0,8.5 7.2,8.4 7.4,8.3 7.5,8.1 7.6,8.0 7.8,7.9 7.9,7.7 8.0,7.6 8.1,7.4 8.3,7.3 8.4,7.1 8.5,7.0 8.6,6.8 8.6,6.6 8.7,6.5 8.8,6.3 8.9,6.1 9.0,6.0 9.0,5.8 9.1,5.6 9.2,5.4 9.2,5.3 9.3,5.1" fill="none" stroke="#111" stroke-width="2.4532766451476706" stroke-linejoin="round" stroke-linecap="round" filter="url(#fuzzy_av_1779093955000_210kchiwqu1)"/><circle r="3.956097929115048" cx="-1.0222301700472278" cy="-1.696431406070903" stroke="#111" fill="none" stroke-width="1.3454251090508969" filter="url(#fuzzy_av_1779093955000_210kchiwqu1)" clip-path="url(#rightEye_av_1779093955000_210kchiwqu1)"/><circle r="3.544199418717091" cx="2.2516280096997905" cy="-0.460681212281441" stroke="#111" fill="none" stroke-width="1.2382130058820515" filter="url(#fuzzy_av_1779093955000_210kchiwqu1)" clip-path="url(#rightEye_av_1779093955000_210kchiwqu1)"/><circle r="3.688207996596292" cx="-0.6724010413903336" cy="-1.889905313775089" stroke="#111" fill="none" stroke-width="1.3387726036636636" filter="url(#fuzzy_av_1779093955000_210kchiwqu1)" clip-path="url(#rightEye_av_1779093955000_210kchiwqu1)"/><circle r="3.874232809048555" cx="2.9126098088982064" cy="-2.6631467457747804" stroke="#111" fill="none" stroke-width="1.165596277778221" filter="url(#fuzzy_av_1779093955000_210kchiwqu1)" clip-path="url(#rightEye_av_1779093955000_210kchiwqu1)"/><circle r="2.809191886562052" cx="-0.21248546078412112" cy="0.13646896022437494" stroke="#111" fill="none" stroke-width="1.2117998617658519" filter="url(#fuzzy_av_1779093955000_210kchiwqu1)" clip-path="url(#rightEye_av_1779093955000_210kchiwqu1)"/><circle r="4.300849760893956" cx="-1.0993540037155674" cy="-1.0399714042763706" stroke="#111" fill="none" stroke-width="1.1072659969338177" filter="url(#fuzzy_av_1779093955000_210kchiwqu1)" clip-path="url(#rightEye_av_1779093955000_210kchiwqu1)"/><circle r="3.6881178330139024" cx="1.9624240421033572" cy="0.6670196403720627" stroke="#111" fill="none" stroke-width="0.9942164923735313" filter="url(#fuzzy_av_1779093955000_210kchiwqu1)" clip-path="url(#rightEye_av_1779093955000_210kchiwqu1)"/><circle r="3.8101552682224704" cx="-0.9213507707770057" cy="-1.662531585456867" stroke="#111" fill="none" stroke-width="1.2643444956129206" filter="url(#fuzzy_av_1779093955000_210kchiwqu1)" clip-path="url(#rightEye_av_1779093955000_210kchiwqu1)"/><circle r="3.527015795523478" cx="1.8291811405215461" cy="-0.33926574766565" stroke="#111" fill="none" stroke-width="0.9713140061988542" filter="url(#fuzzy_av_1779093955000_210kchiwqu1)" clip-path="url(#rightEye_av_1779093955000_210kchiwqu1)"/><circle r="4.4292116873382135" cx="1.7143431307436918" cy="-0.6341560264424673" stroke="#111" fill="none" stroke-width="1.1479023680512246" filter="url(#fuzzy_av_1779093955000_210kchiwqu1)" clip-path="url(#rightEye_av_1779093955000_210kchiwqu1)"/></g><g id="hairs"><polyline points="-21.2,-51.9 -20.7,-52.7 -19.6,-54.5 -18.3,-55.8 -16.9,-55.5 -15.4,-56.0 -13.9,-56.9 -12.3,-58.8 -10.8,-58.4 -9.3,-58.4 -7.8,-60.8 -6.4,-59.8 -5.0,-61.5 -3.7,-61.4 -2.7,-62.6 -1.9,-63.0 -1.2,-61.9 -0.9,-62.4 -1.3,-62.4" fill="none" stroke="rgb(120,84,60)" stroke-width="0.7344673063824713" stroke-linejoin="round" stroke-linecap="round" filter="url(#fuzzy_av_1779093955000_210kchiwqu1)" opacity="0.9609285584584137"/><polyline points="-28.8,-43.7 -28.4,-43.8 -27.9,-44.4 -27.2,-46.3 -26.7,-45.8 -26.4,-46.2 -26.3,-46.7 -26.3,-46.3 -26.6,-44.3 -26.9,-44.1 -27.4,-41.3 -28.1,-40.6 -29.0,-38.3 -30.1,-34.7 -31.4,-31.7 -32.9,-28.4 -34.7,-23.3 -36.8,-19.9 -39.3,-14.2 -42.1,-7.7" fill="none" stroke="rgb(120,84,60)" stroke-width="1.8059279861472497" stroke-linejoin="round" stroke-linecap="round" filter="url(#fuzzy_av_1779093955000_210kchiwqu1)" opacity="0.865541348006819"/><polyline points="-1.3,-62.3 -0.2,-63.3 0.4,-61.7 0.6,-62.4 0.3,-60.1 -0.3,-57.9 -1.4,-55.9 -2.9,-54.1 -4.9,-51.5 -7.2,-47.6 -10.0,-44.4 -13.1,-39.8 -16.6,-34.3 -20.7,-28.3 -25.4,-21.7 -30.7,-13.9 -36.4,-6.7 -42.6,1.8" fill="none" stroke="rgb(120,84,60)" stroke-width="1.1594945324613026" stroke-linejoin="round" stroke-linecap="round" filter="url(#fuzzy_av_1779093955000_210kchiwqu1)" opacity="0.9614491148527032"/><polyline points="-23.1,-51.2 -22.0,-51.2 -21.2,-53.7 -20.2,-52.6 -19.1,-54.3 -18.0,-55.2 -16.8,-56.6 -15.5,-56.5 -14.4,-57.9 -13.3,-57.8 -12.3,-59.4 -11.5,-60.4 -10.7,-59.2 -10.1,-61.1 -9.7,-60.3 -9.5,-60.6 -9.6,-60.5 -9.9,-59.7 -10.4,-59.9 -10.8,-60.1 -11.5,-60.0" fill="none" stroke="rgb(120,84,60)" stroke-width="1.6478203180590165" stroke-linejoin="round" stroke-linecap="round" filter="url(#fuzzy_av_1779093955000_210kchiwqu1)" opacity="0.7583946287285187"/><polyline points="-29.0,-44.0 -28.7,-43.2 -28.0,-44.4 -27.1,-46.8 -25.9,-46.4 -24.6,-47.5 -23.4,-50.1 -22.1,-50.8 -20.9,-52.1 -19.6,-53.3 -18.4,-52.5 -17.1,-54.0 -15.8,-55.5 -14.6,-55.5 -13.4,-58.1 -12.4,-58.0 -11.5,-59.9 -10.7,-59.2 -10.1,-59.5 -9.8,-61.1 -9.9,-59.9 -10.3,-60.6 -10.6,-60.7" fill="none" stroke="rgb(120,84,60)" stroke-width="2.477981188736039" stroke-linejoin="round" stroke-linecap="round" filter="url(#fuzzy_av_1779093955000_210kchiwqu1)" opacity="0.8322194687893882"/><polyline points="-23.1,-50.4 -22.0,-51.0 -21.1,-53.4 -20.1,-54.2 -18.9,-55.3 -17.5,-55.8 -16.2,-55.4 -14.7,-56.1 -13.4,-57.0 -12.1,-59.2 -10.8,-59.9 -9.7,-59.6 -8.7,-59.9 -7.8,-61.2 -7.0,-61.3 -6.4,-61.0 -6.1,-61.0 -6.1,-61.9 -6.2,-62.7 -6.1,-62.1" fill="none" stroke="rgb(120,84,60)" stroke-width="2.3899701687121726" stroke-linejoin="round" stroke-linecap="round" filter="url(#fuzzy_av_1779093955000_210kchiwqu1)" opacity="0.9125871420558476"/><polyline points="-41.4,-10.6 -41.5,-11.1 -41.5,-11.3 -41.3,-12.9 -41.1,-14.9 -40.8,-14.8 -40.6,-17.2 -40.4,-16.6 -40.2,-18.7 -40.1,-19.0 -40.0,-18.9 -39.9,-17.4 -39.9,-18.1 -40.0,-17.3 -40.1,-16.2 -40.2,-13.1 -40.4,-12.5 -40.6,-9.7 -40.9,-7.2 -41.3,-4.2 -41.8,-1.1 -42.3,1.9" fill="none" stroke="rgb(120,84,60)" stroke-width="1.6316043561517102" stroke-linejoin="round" stroke-linecap="round" filter="url(#fuzzy_av_1779093955000_210kchiwqu1)" opacity="0.9286377467017944"/><polyline points="-35.3,-32.3 -34.3,-35.3 -33.5,-36.5 -32.6,-37.3 -31.7,-38.4 -30.8,-39.3 -29.9,-41.8 -28.9,-43.7 -28.0,-44.0 -27.1,-44.8 -26.2,-46.5 -25.3,-47.2 -24.6,-47.7 -23.8,-50.0 -23.2,-50.4 -22.7,-51.1 -22.4,-51.9 -22.3,-50.9 -22.3,-51.0 -22.6,-51.0 -23.0,-50.2 -23.5,-51.3 -23.7,-50.4" fill="none" stroke="rgb(120,84,60)" stroke-width="0.9797430429230213" stroke-linejoin="round" stroke-linecap="round" filter="url(#fuzzy_av_1779093955000_210kchiwqu1)" opacity="0.9630649213038986"/><polyline points="23.1,-52.4 23.7,-52.2 24.2,-51.2 24.6,-51.0 24.8,-52.1 24.8,-50.7 24.6,-51.1 24.1,-52.0 23.3,-51.7 22.1,-51.2 20.6,-52.1 18.6,-54.8 16.0,-56.0 12.9,-57.0 9.4,-60.0 5.8,-62.3" fill="none" stroke="rgb(120,84,60)" stroke-width="1.9281180056684144" stroke-linejoin="round" stroke-linecap="round" filter="url(#fuzzy_av_1779093955000_210kchiwqu1)" opacity="0.7863879113852723"/><polyline points="-6.1,-63.0 -5.7,-61.9 -4.8,-62.4 -3.6,-62.8 -2.4,-62.9 -1.3,-62.1 -0.2,-62.1 1.0,-62.8 2.1,-61.5 3.3,-62.8 4.5,-62.5 5.6,-62.4 6.6,-61.9 7.6,-61.3 8.4,-61.2 9.1,-61.1 9.7,-62.3 10.2,-60.8 10.5,-61.5 10.8,-60.8 10.9,-61.0 10.8,-61.1 10.5,-60.7 9.8,-62.4 8.7,-61.4 7.2,-62.7" fill="none" stroke="rgb(120,84,60)" stroke-width="1.4811383178666069" stroke-linejoin="round" stroke-linecap="round" filter="url(#fuzzy_av_1779093955000_210kchiwqu1)" opacity="0.9528326341589226"/><polyline points="-10.6,-60.4 -9.9,-61.2 -8.6,-60.2 -7.3,-61.1 -6.1,-62.0 -5.1,-61.6 -4.1,-62.6 -3.1,-63.5 -2.2,-62.9 -1.3,-62.5 -0.6,-62.1 -0.0,-62.2 0.4,-62.4 0.7,-64.1 0.8,-62.6 0.7,-63.8 0.4,-63.4 -0.1,-62.6 -1.0,-63.1 -2.3,-62.3 -4.1,-62.5 -5.9,-62.6" fill="none" stroke="rgb(120,84,60)" stroke-width="1.4349414680785766" stroke-linejoin="round" stroke-linecap="round" filter="url(#fuzzy_av_1779093955000_210kchiwqu1)" opacity="0.8371530934646109"/><polyline points="16.5,-59.5 16.2,-57.7 16.1,-56.9 15.6,-55.9 14.4,-53.7 12.7,-52.0 10.3,-49.9 7.3,-45.3 3.7,-43.5 -0.6,-38.8 -5.6,-34.9 -11.4,-28.6 -18.0,-23.4 -25.3,-18.7 -33.4,-10.8 -42.4,-3.8" fill="none" stroke="rgb(120,84,60)" stroke-width="2.4200786599881443" stroke-linejoin="round" stroke-linecap="round" filter="url(#fuzzy_av_1779093955000_210kchiwqu1)" opacity="0.8814310670203265"/><polyline points="28.1,-46.9 28.6,-45.7 28.3,-45.8 27.6,-42.9 26.4,-40.9 24.7,-39.2 22.4,-36.6 19.5,-34.4 16.0,-30.9 11.9,-28.2 7.3,-23.9 2.0,-19.8 -3.8,-16.5 -10.2,-13.2 -17.2,-7.9 -24.8,-3.1 -33.0,3.9 -41.7,9.2" fill="none" stroke="rgb(120,84,60)" stroke-width="1.1977767745857357" stroke-linejoin="round" stroke-linecap="round" filter="url(#fuzzy_av_1779093955000_210kchiwqu1)" opacity="0.8853784243470623"/><polyline points="-33.4,-35.7 -32.9,-37.9 -32.1,-38.7 -31.1,-38.9 -30.0,-41.2 -28.7,-42.0 -27.4,-43.8 -26.1,-45.0 -24.6,-45.9 -23.1,-47.1 -21.5,-48.2 -19.8,-50.2 -18.1,-52.4 -16.4,-53.2 -14.8,-54.7 -13.3,-54.3 -11.9,-56.5 -10.5,-56.6 -9.2,-58.1 -8.0,-60.1 -6.8,-60.6 -5.9,-62.2 -5.4,-61.0 -5.7,-62.7" fill="none" stroke="rgb(120,84,60)" stroke-width="1.566256069841622" stroke-linejoin="round" stroke-linecap="round" filter="url(#fuzzy_av_1779093955000_210kchiwqu1)" opacity="0.9822958155470852"/><polyline points="-40.5,-16.6 -40.3,-16.6 -40.2,-18.7 -40.0,-18.9 -39.8,-20.2 -39.6,-19.5 -39.4,-19.8 -39.3,-20.2 -39.2,-21.1 -39.2,-19.4 -39.3,-19.4 -39.4,-17.1 -39.7,-16.4 -40.0,-13.0 -40.5,-10.1 -41.0,-7.3 -41.7,-2.8 -42.3,3.3" fill="none" stroke="rgb(120,84,60)" stroke-width="1.2345063280986814" stroke-linejoin="round" stroke-linecap="round" filter="url(#fuzzy_av_1779093955000_210kchiwqu1)" opacity="0.9553594785583606"/><polyline points="-24.9,-48.3 -24.5,-48.7 -23.7,-50.2 -22.8,-50.0 -21.6,-51.3 -20.3,-52.0 -18.9,-53.0 -17.4,-54.3 -16.0,-55.3 -14.6,-57.8 -13.4,-57.3 -12.2,-58.3 -11.2,-59.7 -10.5,-60.1 -10.3,-60.5 -10.5,-59.7 -10.6,-61.5" fill="none" stroke="rgb(120,84,60)" stroke-width="2.5165918108338996" stroke-linejoin="round" stroke-linecap="round" filter="url(#fuzzy_av_1779093955000_210kchiwqu1)" opacity="0.7637888807740015"/><polyline points="15.8,-59.4 16.0,-58.4 15.8,-58.3 15.5,-57.5 14.9,-56.1 13.9,-52.9 12.5,-51.6 10.6,-48.1 8.3,-45.9 5.6,-41.3 2.4,-37.8 -1.3,-33.6 -5.6,-29.6 -10.4,-23.8 -15.7,-18.3 -21.5,-13.1 -27.8,-6.0 -34.7,0.5 -42.1,8.3" fill="none" stroke="rgb(120,84,60)" stroke-width="1.900515891794178" stroke-linejoin="round" stroke-linecap="round" filter="url(#fuzzy_av_1779093955000_210kchiwqu1)" opacity="0.7786409122446362"/><polyline points="12.0,-61.5 11.6,-60.4 12.0,-61.5 12.5,-60.9 12.8,-59.4 12.9,-59.0 12.8,-57.0 12.4,-56.1 11.8,-55.7 10.9,-54.3 9.9,-53.7 8.6,-52.4 7.0,-50.1 5.2,-47.9 3.1,-45.2 0.7,-42.9 -2.0,-41.4 -5.0,-38.8 -8.3,-36.5 -11.9,-34.0 -15.9,-31.3 -20.2,-28.7 -24.8,-26.6 -29.7,-23.5 -34.9,-18.6 -40.5,-16.4" fill="none" stroke="rgb(120,84,60)" stroke-width="1.5320481987077654" stroke-linejoin="round" stroke-linecap="round" filter="url(#fuzzy_av_1779093955000_210kchiwqu1)" opacity="0.9792895006779024"/><polyline points="-41.5,-12.3 -40.6,-15.9 -39.7,-17.7 -38.6,-19.0 -37.1,-21.5 -35.3,-22.7 -33.2,-25.8 -30.8,-28.3 -28.3,-31.0 -25.5,-34.5 -22.6,-38.7 -19.4,-41.6 -16.0,-45.5 -12.4,-49.2 -8.7,-51.8 -5.1,-55.0 -1.5,-58.8 2.1,-63.2" fill="none" stroke="rgb(120,84,60)" stroke-width="0.9447263447306824" stroke-linejoin="round" stroke-linecap="round" filter="url(#fuzzy_av_1779093955000_210kchiwqu1)" opacity="0.8904419292391967"/><polyline points="13.2,-60.7 14.9,-59.2 15.7,-59.7 16.1,-58.9 16.4,-58.4 16.6,-59.0 16.5,-58.0 16.3,-58.0 15.7,-56.8 14.9,-57.0 13.8,-58.4 12.3,-56.9 10.4,-57.5 8.0,-58.3 5.1,-58.9 1.7,-60.0 -2.2,-61.5 -6.1,-62.3" fill="none" stroke="rgb(120,84,60)" stroke-width="1.4552478607528547" stroke-linejoin="round" stroke-linecap="round" filter="url(#fuzzy_av_1779093955000_210kchiwqu1)" opacity="0.9831143950577477"/><polyline points="-11.1,-59.3 -10.5,-59.8 -9.5,-60.7 -8.0,-61.5 -6.4,-62.1 -4.8,-61.3 -3.3,-60.6 -1.7,-60.9 -0.1,-61.8 1.5,-60.5 3.1,-61.8 4.6,-60.8 6.0,-60.4 7.4,-61.0 8.6,-60.3 9.8,-60.2 10.8,-60.9 11.7,-60.0 12.2,-61.4 12.5,-60.3 12.3,-61.4" fill="none" stroke="rgb(120,84,60)" stroke-width="1.716153240334076" stroke-linejoin="round" stroke-linecap="round" filter="url(#fuzzy_av_1779093955000_210kchiwqu1)" opacity="0.8497358100987527"/><polyline points="13.2,-61.2 14.9,-60.5 15.5,-59.0 15.8,-57.6 15.8,-58.2 15.7,-56.2 15.4,-56.2 14.8,-54.9 14.0,-54.2 13.0,-53.0 11.7,-50.7 10.2,-48.3 8.3,-47.3 6.1,-45.8 3.6,-43.1 0.7,-41.7 -2.5,-38.7 -6.0,-36.8 -9.9,-34.4 -14.1,-31.7 -18.7,-29.3 -23.6,-27.1 -28.9,-24.1 -34.4,-19.5 -40.3,-16.8" fill="none" stroke="rgb(120,84,60)" stroke-width="1.1255155425416472" stroke-linejoin="round" stroke-linecap="round" filter="url(#fuzzy_av_1779093955000_210kchiwqu1)" opacity="0.8897675854802205"/><polyline points="5.8,-63.2 5.8,-63.1 6.0,-63.3 6.3,-61.5 6.6,-60.9 6.6,-61.7 6.3,-59.3 5.5,-59.3 4.4,-59.0 2.9,-57.7 1.1,-55.5 -1.0,-54.7 -3.5,-51.4 -6.5,-49.8 -10.0,-48.3 -13.9,-45.7 -18.4,-43.5 -23.3,-40.5 -28.9,-36.6 -35.3,-32.9" fill="none" stroke="rgb(120,84,60)" stroke-width="1.3796724594091168" stroke-linejoin="round" stroke-linecap="round" filter="url(#fuzzy_av_1779093955000_210kchiwqu1)" opacity="0.9480802473070804"/><polyline points="13.2,-60.7 14.9,-59.8 15.5,-59.6 15.7,-57.6 15.8,-56.8 15.6,-56.8 15.3,-55.4 14.7,-54.1 14.0,-52.8 13.0,-50.1 11.7,-48.7 10.2,-46.4 8.4,-43.4 6.3,-40.8 3.9,-38.9 1.2,-36.6 -1.8,-33.5 -5.1,-29.4 -8.7,-26.0 -12.6,-22.3 -16.9,-20.1 -21.4,-14.8 -26.3,-10.9 -31.4,-6.4 -36.7,-1.7 -42.3,2.4" fill="none" stroke="rgb(120,84,60)" stroke-width="2.190930337330302" stroke-linejoin="round" stroke-linecap="round" filter="url(#fuzzy_av_1779093955000_210kchiwqu1)" opacity="0.9269649938704049"/><polyline points="-16.7,-55.9 -15.5,-57.6 -14.9,-58.1 -14.5,-58.3 -14.2,-58.9 -13.9,-59.4 -13.7,-57.5 -13.8,-58.3 -14.0,-57.4 -14.5,-57.3 -15.3,-55.0 -16.3,-54.6 -17.7,-53.8 -19.5,-52.1 -21.7,-49.7 -24.4,-47.6 -27.5,-43.1 -31.7,-38.5" fill="none" stroke="rgb(120,84,60)" stroke-width="1.9580512649963797" stroke-linejoin="round" stroke-linecap="round" filter="url(#fuzzy_av_1779093955000_210kchiwqu1)" opacity="0.765718208390974"/><polyline points="-14.2,-58.6 -14.4,-57.7 -14.2,-58.7 -14.1,-56.9 -14.2,-56.3 -14.8,-53.3 -15.7,-51.3 -17.0,-48.2 -18.6,-44.3 -20.5,-39.5 -22.8,-34.5 -25.7,-27.8 -29.1,-21.8 -33.0,-13.9 -37.3,-5.0 -42.2,6.3" fill="none" stroke="rgb(120,84,60)" stroke-width="2.184152043316163" stroke-linejoin="round" stroke-linecap="round" filter="url(#fuzzy_av_1779093955000_210kchiwqu1)" opacity="0.9827636992624775"/><polyline points="-11.1,-60.6 -10.6,-60.1 -9.6,-59.9 -8.3,-61.6 -7.0,-60.9 -5.7,-61.5 -4.5,-61.9 -3.4,-63.0 -2.3,-62.9 -1.2,-62.6 -0.2,-63.6 0.7,-63.0 1.4,-63.5 2.1,-63.9 2.7,-63.4 3.1,-63.0 3.4,-63.0 3.4,-62.5 3.2,-62.4 2.6,-63.7 1.8,-63.2 0.5,-63.1 -1.3,-62.6" fill="none" stroke="rgb(120,84,60)" stroke-width="1.9323612295635897" stroke-linejoin="round" stroke-linecap="round" filter="url(#fuzzy_av_1779093955000_210kchiwqu1)" opacity="0.9393694210981818"/><polyline points="10.7,-61.3 11.3,-60.6 11.7,-60.6 12.4,-61.3 13.1,-60.7 13.8,-61.1 14.5,-60.0 15.0,-60.1 15.4,-58.4 15.6,-58.0 15.7,-58.4 15.7,-57.9 15.5,-58.0 15.1,-57.4 14.6,-57.7 13.8,-58.4 12.8,-58.9 11.4,-57.9 9.8,-58.7 7.8,-58.9 5.6,-59.3 3.1,-60.4 0.4,-62.7 -2.6,-62.5" fill="none" stroke="rgb(120,84,60)" stroke-width="0.8163329724761891" stroke-linejoin="round" stroke-linecap="round" filter="url(#fuzzy_av_1779093955000_210kchiwqu1)" opacity="0.9203097493982377"/><polyline points="-27.5,-46.5 -26.9,-47.1 -26.2,-46.8 -25.8,-46.9 -25.6,-48.0 -25.7,-47.0 -25.9,-45.1 -26.2,-43.2 -26.7,-43.0 -27.4,-39.3 -28.3,-37.0 -29.4,-34.4 -30.8,-29.4 -32.5,-24.6 -34.6,-20.2 -36.9,-13.0 -39.6,-5.9 -42.6,0.5" fill="none" stroke="rgb(120,84,60)" stroke-width="2.074505555729638" stroke-linejoin="round" stroke-linecap="round" filter="url(#fuzzy_av_1779093955000_210kchiwqu1)" opacity="0.8212061908360851"/><polyline points="25.4,-51.2 25.7,-51.3 26.2,-49.3 26.6,-49.0 26.8,-48.7 26.8,-48.5 26.5,-49.0 26.0,-49.2 25.3,-48.9 24.3,-48.4 23.0,-50.8 21.3,-50.4 19.1,-53.7 16.4,-55.4 13.1,-56.3 9.4,-60.3 5.8,-63.9" fill="none" stroke="rgb(120,84,60)" stroke-width="2.2709980216240258" stroke-linejoin="round" stroke-linecap="round" filter="url(#fuzzy_av_1779093955000_210kchiwqu1)" opacity="0.8109143102072389"/><polyline points="23.1,-53.2 23.7,-52.2 24.2,-52.2 24.5,-52.2 24.7,-50.1 24.7,-49.8 24.5,-48.7 24.1,-49.2 23.5,-49.2 22.7,-48.2 21.6,-48.3 20.3,-47.7 18.7,-46.4 16.9,-47.6 14.7,-46.3 12.3,-46.8 9.5,-46.5 6.4,-47.0 3.0,-45.9 -0.8,-46.1 -4.9,-46.9 -9.4,-47.7 -14.2,-47.3 -19.2,-48.5 -24.8,-48.6" fill="none" stroke="rgb(120,84,60)" stroke-width="1.5611025559223273" stroke-linejoin="round" stroke-linecap="round" filter="url(#fuzzy_av_1779093955000_210kchiwqu1)" opacity="0.8576364918223971"/><polyline points="-40.5,-16.2 -40.3,-17.8 -40.0,-17.5 -39.6,-20.4 -39.1,-22.0 -38.6,-22.0 -38.2,-24.5 -37.8,-25.0 -37.4,-25.8 -37.1,-28.2 -36.8,-28.5 -36.6,-29.1 -36.6,-29.8 -36.7,-28.2 -37.0,-28.6 -37.6,-27.0" fill="none" stroke="rgb(120,84,60)" stroke-width="1.2522436890359656" stroke-linejoin="round" stroke-linecap="round" filter="url(#fuzzy_av_1779093955000_210kchiwqu1)" opacity="0.7706926037868945"/><polyline points="-33.0,-36.3 -32.3,-38.1 -31.3,-39.5 -30.1,-41.6 -28.7,-42.6 -27.2,-44.2 -25.5,-44.1 -23.7,-47.5 -21.7,-48.5 -19.6,-49.9 -17.5,-52.4 -15.3,-54.0 -13.1,-54.6 -11.1,-56.5 -9.1,-58.5 -7.3,-59.9 -5.5,-60.2 -3.7,-62.6 -2.1,-63.2" fill="none" stroke="rgb(120,84,60)" stroke-width="2.545625975775723" stroke-linejoin="round" stroke-linecap="round" filter="url(#fuzzy_av_1779093955000_210kchiwqu1)" opacity="0.815301245635731"/><polyline points="-42.1,-6.8 -41.8,-8.9 -41.6,-10.6 -41.3,-11.6 -41.0,-14.1 -40.7,-14.3 -40.2,-16.6 -39.8,-17.7 -39.4,-20.6 -39.0,-21.0 -38.6,-21.9 -38.4,-23.1 -38.2,-24.9 -38.1,-25.6 -38.1,-25.5 -38.2,-23.9 -38.5,-25.0 -38.9,-23.0" fill="none" stroke="rgb(120,84,60)" stroke-width="1.8006902727444474" stroke-linejoin="round" stroke-linecap="round" filter="url(#fuzzy_av_1779093955000_210kchiwqu1)" opacity="0.8138606471977494"/><polyline points="28.1,-48.2 28.7,-47.0 28.8,-44.6 28.8,-44.0 28.5,-42.8 27.9,-40.7 27.0,-38.8 25.8,-36.7 24.4,-35.0 22.6,-33.8 20.5,-31.3 18.1,-28.3 15.4,-27.0 12.4,-23.7 9.1,-21.8 5.5,-18.3 1.6,-15.4 -2.7,-11.5 -7.3,-7.7 -12.2,-4.5 -17.4,-1.7 -22.9,1.7 -28.7,5.2 -34.8,9.1 -41.4,12.8" fill="none" stroke="rgb(120,84,60)" stroke-width="2.1985604107482333" stroke-linejoin="round" stroke-linecap="round" filter="url(#fuzzy_av_1779093955000_210kchiwqu1)" opacity="0.8173877275254443"/><polyline points="-24.9,-48.2 -24.6,-50.1 -24.3,-49.7 -23.9,-49.9 -23.6,-49.8 -23.3,-50.7 -23.1,-49.0 -23.1,-50.1 -23.2,-48.8 -23.4,-48.3 -23.8,-47.0 -24.5,-44.9 -25.3,-42.8 -26.5,-40.1 -27.9,-36.5 -29.6,-33.0 -31.5,-29.5 -33.7,-25.5 -36.1,-19.2 -38.7,-15.0 -41.9,-7.9" fill="none" stroke="rgb(120,84,60)" stroke-width="2.570862249168638" stroke-linejoin="round" stroke-linecap="round" filter="url(#fuzzy_av_1779093955000_210kchiwqu1)" opacity="0.9044180566327952"/><polyline points="-41.5,-11.3 -41.5,-12.6 -41.0,-13.6 -40.3,-15.7 -39.4,-16.8 -38.3,-17.8 -37.1,-20.1 -35.8,-23.7 -34.4,-25.6 -32.9,-27.4 -31.3,-30.5 -29.6,-32.0 -27.8,-33.7 -26.0,-37.8 -24.1,-40.2 -22.2,-42.3 -20.3,-44.6 -18.4,-47.9 -16.5,-49.5 -14.7,-52.5 -12.9,-54.4 -11.1,-57.4 -9.5,-59.1 -9.1,-61.4" fill="none" stroke="rgb(120,84,60)" stroke-width="1.004076006430053" stroke-linejoin="round" stroke-linecap="round" filter="url(#fuzzy_av_1779093955000_210kchiwqu1)" opacity="0.8511493480919855"/><polyline points="25.4,-51.7 24.3,-51.5 23.0,-53.2 21.7,-54.4 20.4,-55.5 18.9,-57.5 17.5,-58.9 15.9,-59.2 14.3,-59.5 12.7,-60.5 11.0,-61.7 9.4,-61.2 7.8,-61.6 6.2,-62.8 4.6,-61.9 3.1,-63.4 1.4,-62.3 -0.3,-62.4 -2.0,-62.7 -3.9,-61.7 -5.7,-61.6 -7.7,-62.3 -9.6,-61.0 -11.4,-59.9 -13.4,-60.3 -16.1,-59.0" fill="none" stroke="rgb(120,84,60)" stroke-width="2.5344565531747447" stroke-linejoin="round" stroke-linecap="round" filter="url(#fuzzy_av_1779093955000_210kchiwqu1)" opacity="0.7928323809415609"/><polyline points="18.3,-58.0 16.6,-59.1 15.1,-58.4 13.6,-60.3 12.0,-61.1 10.3,-60.6 8.7,-61.6 7.1,-62.2 5.6,-62.5 4.0,-62.8 2.5,-62.9 0.8,-63.6 -0.8,-63.0 -2.5,-61.6 -4.3,-61.9 -6.0,-62.3 -7.7,-60.4 -9.4,-59.7 -11.1,-60.7 -12.7,-58.9 -14.2,-58.4 -15.7,-57.5 -17.2,-55.9 -18.7,-54.8 -20.3,-54.5 -21.8,-51.7 -23.3,-51.8 -24.7,-49.0 -26.2,-48.0 -27.5,-47.1 -28.8,-45.5 -30.1,-43.9 -31.2,-40.5 -32.5,-39.2 -33.8,-36.7 -35.2,-35.5" fill="none" stroke="rgb(120,84,60)" stroke-width="2.1862275544031298" stroke-linejoin="round" stroke-linecap="round" filter="url(#fuzzy_av_1779093955000_210kchiwqu1)" opacity="0.7888066530561506"/><polyline points="12.3,-60.7 11.4,-61.4 9.8,-62.4 8.0,-63.3 6.3,-62.6 4.7,-63.4 3.0,-63.1 1.4,-62.0 -0.3,-63.4 -2.0,-62.6 -3.7,-62.5 -5.4,-62.5 -7.2,-61.8 -9.0,-61.4 -10.8,-60.8 -12.7,-58.4 -14.5,-57.9 -16.4,-57.8 -18.2,-55.6 -19.9,-55.3 -21.6,-53.2 -23.2,-52.4 -24.8,-51.5 -26.3,-48.8 -27.9,-48.4 -29.4,-47.1 -31.0,-45.5 -32.6,-43.1 -34.2,-42.0 -35.8,-38.8 -37.3,-37.8 -38.8,-35.9 -40.3,-32.8 -41.8,-30.6 -43.4,-28.1 -45.0,-25.9 -46.4,-24.9 -47.5,-21.5" fill="none" stroke="rgb(120,84,60)" stroke-width="2.375605703360372" stroke-linejoin="round" stroke-linecap="round" filter="url(#fuzzy_av_1779093955000_210kchiwqu1)" opacity="0.9240149891792893"/><polyline points="4.9,-63.9 2.9,-63.2 1.2,-63.8 -0.5,-63.4 -2.1,-63.7 -3.7,-63.5 -5.3,-62.6 -7.0,-61.1 -8.7,-60.3 -10.4,-60.6 -12.1,-60.3 -13.7,-57.7 -15.4,-56.9 -17.0,-56.1 -18.6,-54.8 -20.1,-53.6 -21.6,-52.6 -23.0,-50.6 -24.3,-50.0 -25.7,-49.1 -27.0,-46.0 -28.3,-45.4 -29.6,-42.1 -30.8,-42.0 -32.1,-38.7 -33.3,-36.4 -34.4,-35.5 -35.5,-33.2 -36.6,-31.0 -37.5,-29.7 -38.5,-26.8 -39.4,-24.4 -40.3,-21.7 -41.0,-18.7" fill="none" stroke="rgb(120,84,60)" stroke-width="1.9727566145661275" stroke-linejoin="round" stroke-linecap="round" filter="url(#fuzzy_av_1779093955000_210kchiwqu1)" opacity="0.9915683976968995"/><polyline points="2.6,-62.4 1.1,-63.8 -0.3,-62.7 -1.5,-62.3 -2.9,-62.4 -4.4,-62.7 -5.9,-60.9 -7.4,-59.9 -8.9,-61.0 -10.2,-58.9 -11.5,-57.4 -12.6,-57.9 -13.4,-55.5 -14.0,-54.7 -14.4,-53.6 -14.6,-52.7 -14.8,-51.6 -15.0,-49.6 -15.3,-48.2 -15.6,-46.0 -15.9,-44.3 -16.2,-42.1 -16.3,-41.0 -16.4,-39.7 -16.5,-36.9 -16.7,-34.0 -16.9,-32.0 -17.2,-30.9 -17.3,-28.7 -17.1,-26.1 -16.6,-24.6 -15.6,-22.2 -14.3,-19.3 -12.7,-17.0 -10.9,-15.2 -9.2,-14.5 -7.8,-10.5 -7.4,-8.5" fill="none" stroke="rgb(120,84,60)" stroke-width="1.0302873913543085" stroke-linejoin="round" stroke-linecap="round" filter="url(#fuzzy_av_1779093955000_210kchiwqu1)" opacity="0.7662407947276196"/><polyline points="2.1,-62.4 0.5,-63.1 -1.1,-63.3 -2.8,-62.9 -4.6,-62.4 -6.3,-61.5 -8.0,-61.2 -9.7,-61.3 -11.2,-59.3 -12.7,-58.7 -14.2,-57.6 -15.6,-58.1 -17.0,-55.8 -18.4,-54.4 -19.9,-53.1 -21.3,-53.1 -22.7,-50.5 -24.1,-50.2 -25.4,-47.4 -26.8,-46.7 -27.9,-44.7 -28.9,-43.9 -29.7,-41.8" fill="none" stroke="rgb(120,84,60)" stroke-width="2.230836781065653" stroke-linejoin="round" stroke-linecap="round" filter="url(#fuzzy_av_1779093955000_210kchiwqu1)" opacity="0.8909767933925925"/><polyline points="-2.1,-62.4 -3.7,-62.8 -5.5,-61.9 -7.4,-60.7 -9.4,-60.1 -11.2,-59.7 -12.9,-59.9 -14.6,-59.1 -16.3,-57.9 -18.0,-55.5 -19.7,-55.2 -21.5,-54.3 -23.2,-52.5 -25.0,-51.4 -26.8,-48.6 -28.6,-47.0 -30.4,-46.7 -32.3,-44.6 -34.2,-42.0 -36.0,-40.8 -37.8,-39.7 -39.6,-37.6 -41.4,-35.0 -43.3,-32.2 -45.2,-30.9 -47.0,-28.1 -48.6,-25.9 -50.0,-23.8 -51.2,-22.0 -52.5,-19.8 -53.8,-17.1 -55.3,-15.8 -56.6,-14.3" fill="none" stroke="rgb(120,84,60)" stroke-width="0.9747110458155013" stroke-linejoin="round" stroke-linecap="round" filter="url(#fuzzy_av_1779093955000_210kchiwqu1)" opacity="0.8211087865437523"/><polyline points="-5.9,-61.2 -7.4,-62.1 -9.7,-60.6 -11.9,-60.7 -14.0,-59.4 -15.8,-57.8 -17.6,-57.4 -19.3,-56.0 -21.0,-54.7 -22.7,-53.7 -24.4,-52.5 -26.1,-51.1 -27.8,-49.4 -29.4,-47.8 -31.0,-45.8 -32.6,-45.1 -34.3,-42.1 -35.9,-41.2 -37.5,-39.1 -39.3,-37.4 -41.2,-35.6 -43.3,-33.0 -45.6,-31.6 -47.8,-29.0 -49.6,-26.4 -50.8,-23.5 -52.2,-22.3" fill="none" stroke="rgb(120,84,60)" stroke-width="1.4785940002624463" stroke-linejoin="round" stroke-linecap="round" filter="url(#fuzzy_av_1779093955000_210kchiwqu1)" opacity="0.8183930694774668"/><polyline points="-6.1,-62.2 -8.7,-61.8 -10.6,-60.9 -12.2,-58.8 -13.7,-58.5 -15.3,-57.6 -16.8,-57.3 -18.5,-55.9 -20.2,-55.0 -21.9,-52.4 -23.7,-52.5 -25.5,-51.0 -27.3,-49.5 -29.0,-46.1 -30.7,-46.0 -32.2,-44.6 -33.7,-41.6 -35.1,-40.8 -36.5,-38.8 -37.9,-36.3 -39.3,-34.6 -40.7,-30.7 -42.0,-28.6 -43.3,-26.9 -44.4,-24.3 -45.7,-22.2 -46.9,-20.2 -48.3,-19.4 -49.8,-15.2 -51.3,-13.8 -52.8,-10.7 -54.1,-8.6 -55.1,-7.0 -55.6,-3.5 -56.1,-1.1" fill="none" stroke="rgb(120,84,60)" stroke-width="1.6397818863233953" stroke-linejoin="round" stroke-linecap="round" filter="url(#fuzzy_av_1779093955000_210kchiwqu1)" opacity="0.7972646974317075"/><polyline points="-11.1,-59.2 -12.4,-59.6 -14.0,-57.9 -15.7,-57.7 -17.5,-55.3 -19.2,-55.4 -20.8,-53.3 -22.3,-51.9 -23.7,-49.8 -25.0,-49.0 -26.3,-47.0 -27.7,-45.1 -29.1,-43.6 -30.5,-42.7 -31.9,-39.6 -33.4,-38.2 -34.7,-37.2 -36.1,-34.5 -37.3,-32.0 -38.4,-29.7 -39.5,-27.8 -40.4,-24.8 -41.3,-23.2 -42.1,-21.5 -42.9,-18.6 -43.6,-17.1 -44.3,-15.2 -44.9,-13.5 -45.5,-10.9 -45.9,-8.5 -46.2,-4.8 -46.5,-2.4 -46.6,-0.7 -46.8,2.8 -46.9,5.0 -46.9,6.1 -47.0,9.4 -47.0,11.6 -47.2,12.6" fill="none" stroke="rgb(120,84,60)" stroke-width="1.6302977941060108" stroke-linejoin="round" stroke-linecap="round" filter="url(#fuzzy_av_1779093955000_210kchiwqu1)" opacity="0.8073999515681116"/><polyline points="-17.9,-56.7 -19.6,-53.9 -21.0,-54.1 -22.5,-51.4 -24.0,-51.1 -25.6,-49.9 -27.3,-47.2 -29.2,-45.9 -31.3,-45.0 -33.8,-42.7 -36.4,-39.8 -39.0,-37.6 -41.4,-36.7 -43.5,-35.2 -45.2,-32.0 -46.6,-30.8 -47.9,-28.7 -49.4,-26.7 -51.0,-24.5 -52.8,-21.9 -54.4,-18.7 -55.6,-17.8 -56.5,-15.2 -57.2,-14.1 -58.1,-10.8 -59.3,-9.2 -60.8,-6.6" fill="none" stroke="rgb(120,84,60)" stroke-width="0.9249167434041746" stroke-linejoin="round" stroke-linecap="round" filter="url(#fuzzy_av_1779093955000_210kchiwqu1)" opacity="0.9785856082521611"/><polyline points="-24.2,-49.9 -27.2,-49.1 -28.7,-46.7 -29.5,-46.1 -30.5,-44.2 -31.9,-42.4 -33.4,-40.6 -34.8,-37.1 -36.0,-36.4 -37.1,-34.6 -38.0,-30.9 -39.0,-30.2 -40.0,-27.9 -41.0,-25.0 -42.0,-22.2 -43.1,-21.1 -44.1,-19.6 -45.2,-16.7 -46.2,-14.7 -47.4,-12.6 -48.5,-10.2 -49.5,-7.4 -50.6,-5.2 -51.5,-3.0 -52.3,-0.4 -53.2,1.8 -53.9,4.8 -54.6,6.0 -54.9,8.5 -54.9,12.2 -54.6,13.1 -54.2,16.3 -53.9,17.4 -53.7,20.4 -53.5,23.2 -53.2,23.7 -52.4,26.7" fill="none" stroke="rgb(120,84,60)" stroke-width="2.516793341291324" stroke-linejoin="round" stroke-linecap="round" filter="url(#fuzzy_av_1779093955000_210kchiwqu1)" opacity="0.991891168104732"/><polyline points="-23.7,-49.8 -25.2,-48.8 -26.7,-46.8 -28.0,-45.8 -29.1,-42.6 -30.3,-40.8 -31.4,-39.6 -32.6,-37.9 -33.8,-34.5 -34.9,-32.8 -36.0,-30.7 -37.0,-29.3 -37.9,-26.8 -38.7,-24.8 -39.5,-23.1 -40.1,-21.2 -40.7,-18.9 -41.3,-15.4 -41.8,-13.7 -42.2,-11.3 -42.6,-7.9 -42.9,-5.6 -43.2,-3.2 -43.5,-1.1 -43.6,0.2 -43.7,2.9 -43.7,4.3" fill="none" stroke="rgb(120,84,60)" stroke-width="1.590410544279006" stroke-linejoin="round" stroke-linecap="round" filter="url(#fuzzy_av_1779093955000_210kchiwqu1)" opacity="0.9997294841106285"/><polyline points="-28.8,-44.6 -31.0,-42.6 -32.1,-41.5 -33.7,-40.7 -35.7,-37.1 -37.5,-36.3 -39.0,-33.8 -40.1,-29.9 -41.2,-29.4 -42.3,-26.2 -43.4,-24.0 -44.5,-22.5 -45.6,-19.1 -46.7,-18.0 -47.9,-15.5 -49.0,-14.0 -50.3,-10.9 -51.7,-9.1 -53.1,-6.6 -54.5,-3.3 -55.7,-1.9 -56.6,0.8 -57.2,3.4 -57.8,6.0 -58.2,7.0 -58.0,11.3" fill="none" stroke="rgb(120,84,60)" stroke-width="1.3586888908286332" stroke-linejoin="round" stroke-linecap="round" filter="url(#fuzzy_av_1779093955000_210kchiwqu1)" opacity="0.9570049300233742"/><polyline points="-32.5,-38.3 -33.6,-35.3 -34.8,-34.1 -35.9,-32.0 -37.2,-28.4 -38.7,-27.3 -40.4,-24.5 -42.2,-23.4 -44.0,-21.1 -45.6,-17.7 -46.9,-15.4 -48.0,-15.0 -48.9,-12.1 -49.5,-8.9 -49.9,-7.0 -50.2,-5.3 -50.5,-1.3 -50.8,1.1 -51.1,3.3 -51.6,4.0 -52.1,6.8 -52.5,9.6 -52.8,11.5 -52.9,13.1 -52.7,15.2 -52.3,17.8 -51.9,20.2 -51.6,21.5 -51.6,23.9 -51.8,25.4 -51.9,26.8 -50.9,28.8" fill="none" stroke="rgb(120,84,60)" stroke-width="2.1298970815429907" stroke-linejoin="round" stroke-linecap="round" filter="url(#fuzzy_av_1779093955000_210kchiwqu1)" opacity="0.7556886700902461"/><polyline points="-35.3,-31.9 -36.0,-32.0 -37.2,-30.2 -38.6,-27.2 -39.8,-23.8 -40.8,-21.9 -41.4,-20.5 -42.0,-17.5 -42.5,-15.5 -43.1,-13.4 -43.8,-10.9 -44.5,-9.7 -45.2,-7.1 -45.8,-3.4 -46.3,-2.2 -46.7,1.5 -46.9,3.2 -46.9,6.0 -46.8,8.4 -46.5,10.7 -46.0,13.0 -45.5,13.3 -45.0,16.5 -44.5,18.2 -44.1,20.3 -43.6,23.1 -43.0,25.3 -42.2,26.5 -41.4,29.1 -40.3,30.8 -39.2,32.7 -38.0,32.8 -36.6,35.2 -35.1,36.1 -33.3,39.4 -31.7,40.6 -31.0,40.7" fill="none" stroke="rgb(120,84,60)" stroke-width="0.9124130000565982" stroke-linejoin="round" stroke-linecap="round" filter="url(#fuzzy_av_1779093955000_210kchiwqu1)" opacity="0.8312037047693144"/><polyline points="-40.5,-17.4 -41.3,-13.5 -41.8,-12.2 -42.1,-9.8 -42.3,-6.0 -42.5,-4.9 -42.7,-0.5 -42.9,1.0 -43.0,3.7 -43.1,6.3 -43.0,7.9 -42.9,10.9 -42.6,11.4 -42.2,13.8 -41.7,17.3 -41.0,17.9 -40.2,20.0 -39.4,22.3 -38.6,25.2 -37.8,27.3 -36.9,28.0 -36.0,29.1 -35.0,32.1 -34.9,32.4" fill="none" stroke="rgb(120,84,60)" stroke-width="2.3661868883356236" stroke-linejoin="round" stroke-linecap="round" filter="url(#fuzzy_av_1779093955000_210kchiwqu1)" opacity="0.8943509172680018"/><polyline points="-42.1,-6.9 -43.9,-3.4 -46.0,-1.4 -47.3,0.4 -47.9,2.8 -47.9,4.8 -47.5,6.5 -46.7,9.2 -45.8,11.1 -44.8,13.6 -44.0,15.5 -43.5,17.0 -43.3,19.4 -43.2,21.9 -43.1,24.4 -43.0,26.4 -42.7,26.7 -42.2,29.7 -41.5,30.4 -40.4,33.6 -39.1,34.6 -37.6,36.3 -36.1,36.9 -34.5,39.9 -32.9,40.0 -31.2,42.5 -29.2,43.5 -26.9,43.0 -24.2,45.2 -21.5,45.7 -19.4,46.6 -18.2,46.1" fill="none" stroke="rgb(120,84,60)" stroke-width="1.6302817879959832" stroke-linejoin="round" stroke-linecap="round" filter="url(#fuzzy_av_1779093955000_210kchiwqu1)" opacity="0.8790822645819089"/><polyline points="-41.2,14.0 -41.1,13.7 -41.2,16.8 -41.4,18.6 -41.3,19.5 -40.7,21.2 -40.0,25.1 -39.3,26.2 -38.6,27.5 -37.8,29.2 -36.9,31.6 -35.6,33.7 -34.2,34.9 -32.5,35.7 -30.9,38.7 -29.2,40.3 -27.5,40.5 -25.8,40.9 -24.1,42.2 -22.2,44.7 -20.2,45.5 -18.0,45.9 -16.3,47.1 -15.6,46.1" fill="none" stroke="rgb(120,84,60)" stroke-width="0.8071641398242652" stroke-linejoin="round" stroke-linecap="round" filter="url(#fuzzy_av_1779093955000_210kchiwqu1)" opacity="0.8682527419557253"/><polyline points="-30.7,34.8 -29.2,35.7 -27.7,38.8 -26.4,39.1 -24.9,40.0 -23.3,42.7 -21.6,42.5 -19.8,44.6 -17.9,45.7 -15.9,45.2 -13.7,46.7 -11.5,47.5 -9.2,46.8 -6.9,48.5 -4.5,48.7 -2.2,47.8 0.2,49.8 2.5,48.2 4.9,48.6 7.2,48.9 9.6,49.6 12.0,47.9 14.3,48.9 16.5,47.2 18.8,47.6 21.4,46.6" fill="none" stroke="rgb(120,84,60)" stroke-width="2.1346163123108264" stroke-linejoin="round" stroke-linecap="round" filter="url(#fuzzy_av_1779093955000_210kchiwqu1)" opacity="0.921665907004132"/></g><circle r="1.4903994485643755" cx="-6.559637787463993" cy="9.627171275266658" stroke="#111" fill="none" stroke-width="1.291308391936424" filter="url(#fuzzy_av_1779093955000_210kchiwqu1)"/><circle r="0.9244227536948406" cx="-4.283768237183765" cy="7.899032237994257" stroke="#111" fill="none" stroke-width="1.1324090515761371" filter="url(#fuzzy_av_1779093955000_210kchiwqu1)"/><circle r="1.933761159089458" cx="-5.636729841717095" cy="7.049013589848304" stroke="#111" fill="none" stroke-width="1.0445941632891134" filter="url(#fuzzy_av_1779093955000_210kchiwqu1)"/><circle r="0.9858001675799068" cx="-4.380680762766448" cy="7.938352541830247" stroke="#111" fill="none" stroke-width="1.1397116937765768" filter="url(#fuzzy_av_1779093955000_210kchiwqu1)"/><circle r="1.8763951956230394" cx="-4.683817674595463" cy="7.870045108658762" stroke="#111" fill="none" stroke-width="1.0754227239847176" filter="url(#fuzzy_av_1779093955000_210kchiwqu1)"/><circle r="0.8454726924216884" cx="-3.82339989305149" cy="6.682380064294129" stroke="#111" fill="none" stroke-width="0.8498582641436327" filter="url(#fuzzy_av_1779093955000_210kchiwqu1)"/><circle r="2.010857764324763" cx="-3.29061877218781" cy="7.440065164600584" stroke="#111" fill="none" stroke-width="0.8301006872870167" filter="url(#fuzzy_av_1779093955000_210kchiwqu1)"/><circle r="2.1775640051640988" cx="-4.16767960385715" cy="6.589847559358995" stroke="#111" fill="none" stroke-width="1.0952585958789884" filter="url(#fuzzy_av_1779093955000_210kchiwqu1)"/><circle r="1.1118294389516545" cx="-5.469658014090972" cy="7.3416530728786045" stroke="#111" fill="none" stroke-width="1.25618712565105" filter="url(#fuzzy_av_1779093955000_210kchiwqu1)"/><circle r="1.3144331928008102" cx="-4.746478966217448" cy="8.698120099037427" stroke="#111" fill="none" stroke-width="1.123175583559703" filter="url(#fuzzy_av_1779093955000_210kchiwqu1)"/><circle r="1.3958561305371724" cx="6.572009778487166" cy="2.0644421736923855" stroke="#111" fill="none" stroke-width="1.177705841568276" filter="url(#fuzzy_av_1779093955000_210kchiwqu1)"/><circle r="1.4069680388715784" cx="6.584352833468028" cy="3.2981232320375504" stroke="#111" fill="none" stroke-width="1.0624189116405518" filter="url(#fuzzy_av_1779093955000_210kchiwqu1)"/><circle r="1.3123033838153355" cx="4.891123753836565" cy="3.7363364810102997" stroke="#111" fill="none" stroke-width="0.9452038867770827" filter="url(#fuzzy_av_1779093955000_210kchiwqu1)"/><circle r="1.296576764908333" cx="6.050638863124106" cy="1.149781696574444" stroke="#111" fill="none" stroke-width="1.0398288665808073" filter="url(#fuzzy_av_1779093955000_210kchiwqu1)"/><circle r="2.354023308298413" cx="4.879833219823929" cy="3.056961706966132" stroke="#111" fill="none" stroke-width="1.1250026268144484" filter="url(#fuzzy_av_1779093955000_210kchiwqu1)"/><circle r="0.8743287189689202" cx="5.229086545631149" cy="1.2536904983099968" stroke="#111" fill="none" stroke-width="0.8764245831242545" filter="url(#fuzzy_av_1779093955000_210kchiwqu1)"/><circle r="0.8931969895400123" cx="5.385264738555329" cy="3.974665261708031" stroke="#111" fill="none" stroke-width="1.0378236784488828" filter="url(#fuzzy_av_1779093955000_210kchiwqu1)"/><circle r="0.8203494046790647" cx="3.4421501177902396" cy="1.3829659389624689" stroke="#111" fill="none" stroke-width="1.058310357578995" filter="url(#fuzzy_av_1779093955000_210kchiwqu1)"/><circle r="1.5087168541569485" cx="5.9683166788055475" cy="2.205252588178216" stroke="#111" fill="none" stroke-width="0.9396254217488875" filter="url(#fuzzy_av_1779093955000_210kchiwqu1)"/><circle r="1.547535899331692" cx="5.734610589857585" cy="1.9760492869746333" stroke="#111" fill="none" stroke-width="1.257098488131265" filter="url(#fuzzy_av_1779093955000_210kchiwqu1)"/><polyline points="10.5,30.1 10.3,31.1 10.3,31.3 10.3,31.0 10.2,31.4 10.2,31.4 10.0,32.0 9.8,32.5 9.3,33.4 9.6,32.9 9.1,33.8 9.0,33.9 8.4,34.6 8.8,34.0 8.0,35.1 7.9,35.2 7.4,35.5 7.6,35.5 7.0,35.9 7.3,35.6 7.1,35.9 5.8,36.8 6.1,36.6 6.2,36.6 5.3,37.0 4.7,37.4 4.8,37.4 4.3,37.6 4.0,37.7 2.6,38.3 3.0,38.1 3.0,38.1 1.7,38.5 1.0,38.7 0.3,38.9 0.1,38.9 0.3,38.9 0.3,38.9 -0.2,39.0 -2.1,39.2 -1.8,39.2 -1.5,39.1 -2.9,39.3 -3.6,39.3 -3.0,39.3 -3.8,39.3 -4.8,39.2 -4.4,39.3 -5.1,39.2 -6.7,39.1 -6.9,39.1 -6.7,39.1 -7.7,38.9 -7.7,38.9 -8.7,38.7 -8.9,38.7 -9.6,38.5 -9.9,38.5 -11.2,38.0 -11.1,38.1 -10.8,38.2 -12.5,37.5 -12.6,37.5 -12.5,37.6 -13.6,37.1 -14.5,36.6 -14.6,36.6 -14.7,36.5 -14.8,36.4 -14.7,36.5 -16.3,35.4 -16.5,35.3 -16.8,35.1 -17.3,34.7 -16.8,35.1 -17.8,34.2 -18.2,33.8 -18.4,33.6 -18.7,33.2 -19.0,32.9 -19.2,32.6 -18.8,33.1 -19.6,32.2 -19.3,32.5 -19.6,32.0 -19.6,32.0 -20.4,30.9 -20.6,30.4 -20.5,30.6 -20.5,30.5 -20.8,29.5 -20.9,29.4 -21.0,29.1 -21.1,28.6 -21.2,27.7 -21.3,27.8 -21.3,27.8 -21.3,26.9 -21.2,27.5 -21.3,27.0 -21.1,25.7 -21.0,25.8 -21.2,25.9 -21.1,25.6 -20.9,25.0 -20.7,24.3 -20.6,24.0 -20.4,23.7 -20.4,23.8 -20.4,23.9 -19.7,22.6 -20.0,23.2 -19.9,22.8 -19.3,22.0 -19.1,21.7 -18.9,21.6 -18.6,21.4 -18.1,20.9 -18.4,21.1 -17.6,20.5 -17.9,20.7 -16.9,20.0 -16.8,19.9 -16.1,19.5 -15.3,19.1 -14.9,18.9 -14.6,18.8 -14.3,18.6 -13.8,18.4 -13.3,18.3 -13.8,18.4 -13.6,18.3 -12.9,18.2 -12.1,17.9 -12.3,18.0 -11.6,17.8 -11.0,17.6 -11.0,17.7 -10.7,17.6 -9.6,17.4 -8.8,17.4 -8.4,17.3 -8.5,17.3 -6.6,17.3 -6.6,17.3 -7.4,17.3 -6.7,17.3 -6.3,17.3 -4.4,17.4 -4.1,17.5 -3.8,17.5 -2.6,17.7 -2.4,17.7 -2.6,17.7 -1.5,17.9 -1.8,17.9 -0.5,18.2 -1.4,17.9 0.5,18.5 0.7,18.6 0.3,18.4 1.0,18.7 1.5,18.8 1.9,19.0 2.6,19.3 3.7,19.9 4.0,20.1 4.6,20.4 3.7,19.9 5.2,20.8 5.6,21.1 6.1,21.4 5.5,21.0 6.6,21.9 6.9,22.2 7.2,22.3 7.1,22.2 7.7,22.9 7.9,23.2 8.0,23.1 8.0,23.2 8.2,23.5 8.8,24.2 9.0,24.6 9.0,24.6 9.2,24.7 9.5,25.5 9.9,26.2 10.0,26.8 9.9,26.4 9.9,26.3 10.4,27.5 10.5,28.1 10.3,27.3 10.6,28.6 10.4,28.0 10.6,28.7 10.6,29.4 10.5,29.1 10.5,30.0" fill="rgb(215,127,140)" stroke="#111" stroke-width="2.801099968261356" stroke-linejoin="round" filter="url(#fuzzy_av_1779093955000_210kchiwqu1)"/></g><g class="accessory-svg accessory-notebook" transform="translate(69.1 -21.9) rotate(-2.4) scale(1.088)">
      <path d="M-10-10h9c2 0 3 1 3 3v18c0-2-1-3-3-3h-9z" fill="#1E40AF" stroke="#111827" stroke-width="1.1"/><path d="M2-10h8v18H2c-2 0-3 1-3 3V-7c0-2 1-3 3-3z" fill="#f8fafc" stroke="#111827" stroke-width="1.1"/><path d="M4-5h4M4 0h4" stroke="#1E3A8A" stroke-width=".8"/>
    </g><g class="accessory-svg accessory-folder" transform="translate(24.4 68.6) rotate(4.4) scale(0.938)">
      <path d="M-12-7h9l3 3h12v15h-24z" fill="#fbbf24" stroke="#111827" stroke-width="1.1"/><path d="M-12-3h24" stroke="#111827" stroke-width="1"/>
    </g><g class="accessory-svg accessory-radio" transform="translate(-69.9 -12.3) rotate(-5.9) scale(1.319)">
      <rect x="-10" y="-7" width="20" height="17" rx="3" fill="#1E3A8A" stroke="#111827" stroke-width="1.1"/><path d="M-4-7l8-7" stroke="#111827" stroke-width="1.2"/><circle cx="-4" cy="2" r="4" fill="#f8fafc"/><path d="M4-1h4M4 3h4" stroke="#f8fafc" stroke-width="1"/>
    </g><g class="accessory-svg accessory-check" transform="translate(-29.8 -61.5) rotate(-10.0) scale(0.805)">
      <circle cx="0" cy="0" r="11" fill="#22c55e" stroke="#111827" stroke-width="1.1"/><path d="M-6 0l4 5 8-10" fill="none" stroke="#f8fafc" stroke-width="2.4" stroke-linecap="round" stroke-linejoin="round"/>
    </g></svg>