<svg xmlns="http://www.w3.org/2000/svg" viewBox="-100 -100 200 200" width="400" height="400" role="img" aria-label="质检警察 avatar"><defs>
      <filter id="fuzzy_av_1779093955002_3rmhgacz8ua" x="-8%" y="-8%" width="116%" height="116%">
        <feTurbulence baseFrequency="0.045" numOctaves="3" type="fractalNoise" result="noise"/>
        <feDisplacementMap in="SourceGraphic" in2="noise" scale="1.6"/>
      </filter>
      <clipPath id="leftEye_av_1779093955002_3rmhgacz8ua"><polyline points="-13.9,-0.4 -13.8,-0.4 -13.6,-0.5 -13.5,-0.5 -13.3,-0.5 -13.1,-0.5 -12.9,-0.6 -12.7,-0.6 -12.5,-0.6 -12.3,-0.6 -12.1,-0.6 -11.8,-0.7 -11.6,-0.7 -11.3,-0.7 -11.1,-0.7 -10.8,-0.7 -10.5,-0.7 -10.2,-0.8 -9.8,-0.8 -9.5,-0.8 -9.2,-0.8 -8.8,-0.8 -8.4,-0.9 -8.1,-0.9 -7.7,-0.9 -7.3,-0.9 -6.9,-0.9 -6.5,-0.9 -6.1,-0.9 -5.6,-0.9 -5.2,-0.9 -4.8,-0.9 -4.3,-0.9 -3.9,-0.9 -3.5,-0.9 -3.0,-0.9 -2.6,-0.9 -2.1,-0.9 -1.6,-0.9 -1.2,-0.9 -0.7,-0.9 -0.3,-0.9 0.2,-0.9 0.6,-0.9 1.1,-0.9 1.5,-0.9 2.0,-0.8 2.4,-0.8 2.8,-0.8 3.3,-0.8 3.7,-0.8 4.1,-0.8 4.5,-0.8 4.9,-0.7 5.3,-0.7 5.7,-0.7 6.1,-0.7 6.4,-0.7 6.8,-0.7 7.1,-0.6 7.5,-0.6 7.8,-0.6 8.1,-0.6 8.4,-0.6 8.7,-0.6 9.0,-0.5 9.3,-0.5 9.5,-0.5 9.8,-0.5 10.0,-0.5 10.2,-0.5 10.5,-0.4 10.7,-0.4 10.9,-0.4 11.0,-0.4 11.2,-0.4 11.4,-0.3 11.5,-0.3 11.7,-0.3 11.8,-0.3 11.8,-0.0 11.7,0.0 11.5,0.0 11.3,0.0 11.2,0.1 11.0,0.1 10.8,0.1 10.6,0.1 10.4,0.2 10.2,0.2 10.0,0.2 9.8,0.2 9.5,0.3 9.3,0.3 9.0,0.3 8.8,0.3 8.5,0.4 8.2,0.4 8.0,0.4 7.7,0.4 7.4,0.5 7.1,0.5 6.7,0.5 6.4,0.6 6.1,0.6 5.8,0.6 5.4,0.6 5.1,0.7 4.8,0.7 4.4,0.7 4.0,0.7 3.7,0.8 3.3,0.8 3.0,0.8 2.6,0.8 2.2,0.8 1.9,0.9 1.5,0.9 1.1,0.9 0.7,0.9 0.4,0.9 -0.0,0.9 -0.4,0.9 -0.8,0.9 -1.2,0.9 -1.6,1.0 -1.9,1.0 -2.3,1.0 -2.7,0.9 -3.1,0.9 -3.5,0.9 -3.8,0.9 -4.2,0.9 -4.6,0.9 -5.0,0.9 -5.4,0.9 -5.7,0.8 -6.1,0.8 -6.5,0.8 -6.8,0.8 -7.2,0.7 -7.6,0.7 -7.9,0.7 -8.3,0.6 -8.6,0.6 -8.9,0.5 -9.2,0.5 -9.5,0.5 -9.7,0.5 -10.0,0.4 -10.2,0.4 -10.5,0.4 -10.7,0.3 -10.9,0.3 -11.1,0.2 -11.3,0.2 -11.5,0.2 -11.7,0.1 -11.8,0.1 -12.0,0.0"/></clipPath>
      <clipPath id="rightEye_av_1779093955002_3rmhgacz8ua"><polyline points="-14.9,-0.4 -14.7,-0.5 -14.5,-0.5 -14.3,-0.5 -14.0,-0.5 -13.8,-0.5 -13.6,-0.6 -13.3,-0.6 -13.0,-0.6 -12.8,-0.6 -12.5,-0.6 -12.2,-0.7 -11.9,-0.7 -11.5,-0.7 -11.2,-0.7 -10.9,-0.7 -10.5,-0.7 -10.2,-0.7 -9.8,-0.8 -9.4,-0.8 -9.0,-0.8 -8.6,-0.8 -8.1,-0.8 -7.7,-0.8 -7.3,-0.9 -6.8,-0.9 -6.4,-0.9 -5.9,-0.9 -5.4,-0.9 -4.9,-0.9 -4.5,-0.9 -4.0,-0.9 -3.5,-0.9 -3.0,-0.9 -2.5,-0.9 -2.0,-0.9 -1.5,-0.9 -1.0,-0.9 -0.5,-0.9 -0.0,-0.9 0.4,-0.9 0.9,-0.9 1.4,-0.9 1.9,-0.9 2.4,-0.9 2.8,-0.8 3.3,-0.8 3.7,-0.8 4.2,-0.8 4.6,-0.8 5.0,-0.8 5.5,-0.8 5.9,-0.8 6.3,-0.8 6.7,-0.7 7.0,-0.7 7.4,-0.7 7.8,-0.7 8.1,-0.7 8.5,-0.7 8.8,-0.7 9.1,-0.6 9.4,-0.6 9.7,-0.6 10.0,-0.6 10.3,-0.6 10.5,-0.6 10.8,-0.6 11.0,-0.5 11.3,-0.5 11.5,-0.5 11.7,-0.5 11.9,-0.5 12.1,-0.5 12.3,-0.5 12.5,-0.4 12.6,-0.4 12.8,-0.4 12.9,-0.4 13.1,-0.4 11.7,-0.1 11.6,-0.1 11.4,-0.1 11.3,-0.1 11.1,-0.1 11.0,-0.0 10.8,-0.0 10.6,0.0 10.5,0.0 10.3,0.1 10.1,0.1 9.8,0.1 9.6,0.2 9.4,0.2 9.1,0.2 8.8,0.2 8.6,0.3 8.3,0.3 8.0,0.3 7.7,0.3 7.4,0.4 7.0,0.4 6.7,0.4 6.3,0.5 6.0,0.5 5.6,0.5 5.2,0.6 4.8,0.6 4.4,0.6 4.0,0.6 3.6,0.7 3.2,0.7 2.7,0.7 2.3,0.7 1.9,0.8 1.4,0.8 0.9,0.8 0.5,0.8 0.0,0.9 -0.4,0.9 -0.9,0.9 -1.4,0.9 -1.9,0.9 -2.3,0.9 -2.8,1.0 -3.3,1.0 -3.7,1.0 -4.2,1.0 -4.6,1.0 -5.1,1.0 -5.5,1.0 -6.0,1.0 -6.4,1.0 -6.8,0.9 -7.3,0.9 -7.7,0.9 -8.1,0.9 -8.5,0.9 -8.8,0.8 -9.2,0.8 -9.5,0.8 -9.9,0.7 -10.2,0.7 -10.5,0.7 -10.8,0.6 -11.1,0.6 -11.3,0.6 -11.6,0.5 -11.8,0.5 -12.0,0.5 -12.2,0.4 -12.4,0.4 -12.6,0.3 -12.7,0.3 -12.8,0.3 -13.0,0.2 -13.1,0.2 -13.2,0.1 -13.2,0.1 -13.3,0.0"/></clipPath>
      <linearGradient id="rainbow_av_1779093955002_3rmhgacz8ua" x1="0%" y1="0%" x2="100%" y2="0%">
        <stop offset="0%" stop-color="#1F2937"/><stop offset="56%" stop-color="#22D3EE"/><stop offset="100%" stop-color="#111827"/>
      </linearGradient>
      <linearGradient id="splitHair_av_1779093955002_3rmhgacz8ua" x1="0%" y1="0%" x2="100%" y2="0%">
        <stop offset="49%" stop-color="#111827"/><stop offset="51%" stop-color="#F9FAFB"/>
      </linearGradient>
      <radialGradient id="halo_av_1779093955002_3rmhgacz8ua"><stop offset="0%" stop-color="#1F2937" stop-opacity=".45"/><stop offset="100%" stop-color="#1F2937" stop-opacity="0"/></radialGradient>
    </defs><rect x="-100" y="-100" width="200" height="200" fill="#F9FAFB"/><g opacity="1"><polyline id="faceContour" class="face-shape" points="40.6,-6.0 40.6,-5.1 40.6,-4.2 40.6,-3.3 40.6,-2.3 40.6,-1.4 40.6,-0.5 40.6,0.5 40.6,1.3 40.6,2.3 40.6,3.3 40.6,4.3 40.6,5.1 40.6,6.2 40.6,7.2 40.6,8.3 40.6,9.2 40.6,10.3 40.6,11.4 40.6,12.6 40.6,13.7 40.6,14.7 40.6,15.9 40.6,17.1 40.6,18.3 40.6,19.7 40.6,21.0 40.6,22.2 40.6,23.4 40.6,25.2 40.6,26.4 40.6,27.9 40.6,29.4 40.6,31.2 40.6,32.9 40.6,34.7 40.6,36.3 40.2,38.1 39.4,39.1 38.9,40.6 38.1,42.0 37.7,43.3 36.9,45.2 36.5,46.5 36.0,48.5 35.4,50.1 34.6,51.9 32.8,51.9 31.2,51.9 29.7,51.9 27.7,51.9 26.2,51.9 24.5,51.9 23.3,51.9 21.7,51.9 20.3,51.9 18.8,51.9 17.5,51.9 16.1,51.9 14.7,51.9 13.2,51.9 11.9,51.9 10.5,51.9 9.1,51.9 7.9,51.9 6.7,51.9 5.1,51.9 3.8,51.9 2.7,51.9 1.2,51.9 -0.0,51.9 -1.3,51.9 -2.7,51.9 -3.8,51.9 -5.1,51.9 -6.6,51.9 -8.0,51.9 -9.1,51.9 -10.5,51.9 -11.8,51.9 -13.3,51.9 -14.4,51.9 -15.9,51.9 -17.6,51.9 -18.7,51.9 -20.1,51.9 -21.7,51.9 -23.2,51.9 -24.6,51.9 -26.4,51.9 -28.0,51.9 -29.4,51.9 -31.0,51.9 -32.7,51.9 -34.5,51.9 -35.4,50.5 -36.0,48.6 -36.5,46.9 -37.0,45.1 -37.7,43.6 -38.3,41.7 -38.9,40.6 -39.4,39.2 -40.1,38.0 -40.7,36.6 -40.7,34.7 -40.7,32.7 -40.7,31.2 -40.7,29.4 -40.7,27.9 -40.7,26.4 -40.7,24.9 -40.7,23.7 -40.7,22.3 -40.7,20.6 -40.7,19.6 -40.7,18.4 -40.7,17.1 -40.7,15.7 -40.7,14.7 -40.7,13.6 -40.7,12.4 -40.7,11.3 -40.7,10.3 -40.7,9.2 -40.7,8.2 -40.7,7.3 -40.7,6.1 -40.7,5.3 -40.7,4.1 -40.7,3.4 -40.7,2.3 -40.7,1.3 -40.7,0.4 -40.7,-0.6 -40.7,-1.4 -40.7,-2.3 -40.7,-3.3 -40.7,-4.1 -40.7,-5.0 -40.7,-6.1 -40.7,-6.8 -40.7,-7.8 -40.7,-8.6 -40.7,-9.6 -40.7,-10.5 -40.7,-11.4 -40.7,-12.3 -40.7,-13.3 -40.7,-14.3 -40.7,-15.3 -40.7,-16.3 -40.7,-17.2 -40.7,-18.4 -40.7,-19.2 -40.7,-20.3 -40.7,-21.2 -40.7,-22.4 -40.7,-23.2 -40.7,-24.4 -40.7,-25.5 -40.7,-26.6 -40.7,-27.9 -40.7,-29.0 -40.7,-30.2 -40.7,-31.6 -40.7,-32.8 -40.7,-34.4 -40.7,-35.6 -40.7,-37.0 -40.7,-38.4 -40.7,-40.1 -40.7,-41.4 -40.7,-43.3 -40.7,-44.8 -40.7,-46.7 -40.7,-48.2 -40.2,-50.0 -39.4,-51.4 -38.8,-52.6 -38.1,-54.0 -37.6,-55.5 -37.0,-56.8 -36.5,-58.8 -35.8,-60.5 -35.5,-62.6 -34.6,-63.9 -32.9,-63.9 -31.0,-63.9 -29.4,-63.9 -27.8,-63.9 -26.4,-63.9 -24.8,-63.9 -23.2,-63.9 -21.8,-63.9 -20.3,-63.9 -18.9,-63.9 -17.3,-63.9 -16.1,-63.9 -14.6,-63.9 -13.3,-63.9 -11.9,-63.9 -10.4,-63.9 -9.2,-63.9 -7.8,-63.9 -6.6,-63.9 -5.3,-63.9 -4.1,-63.9 -2.6,-63.9 -1.3,-63.9 0.1,-63.9 1.3,-63.9 2.5,-63.9 3.9,-63.9 5.1,-63.9 6.3,-63.9 8.0,-63.9 9.2,-63.9 10.4,-63.9 11.9,-63.9 13.2,-63.9 14.7,-63.9 16.1,-63.9 17.3,-63.9 18.8,-63.9 20.1,-63.9 21.9,-63.9 23.4,-63.9 24.9,-63.9 26.5,-63.9 28.1,-63.9 29.5,-63.9 31.2,-63.9 32.9,-63.9 34.7,-63.9 35.5,-62.3 35.9,-60.6 36.4,-58.4 37.0,-56.8 37.5,-55.4 38.3,-53.9 38.9,-52.5 39.4,-51.2 40.0,-49.9 40.6,-48.7 40.6,-46.5 40.6,-44.9 40.6,-43.2 40.6,-41.7 40.6,-40.1 40.6,-38.4 40.6,-37.0 40.6,-35.4 40.6,-34.2 40.6,-32.8 40.6,-31.7 40.6,-30.3 40.6,-29.0 40.6,-27.9 40.6,-26.8 40.6,-25.5 40.6,-24.4 40.6,-23.4 40.6,-22.4 40.6,-21.2 40.6,-20.2 40.6,-19.3 40.6,-18.3 40.6,-17.1 40.6,-16.2 40.6,-15.4 40.6,-14.5 40.6,-13.2 40.6,-12.5 40.6,-11.5 40.6,-10.6 40.6,-9.6 40.6,-8.8 40.6,-7.9 40.6,-7.0 40.6,-6.0 40.6,-5.1" fill="#ffc9a9" stroke="#111" stroke-width="2.2" stroke-linejoin="round" filter="url(#fuzzy_av_1779093955002_3rmhgacz8ua)"/><g id="leftEye" transform="translate(-25.8 -28.2)"><polyline points="-13.9,-0.4 -13.8,-0.4 -13.6,-0.5 -13.5,-0.5 -13.3,-0.5 -13.1,-0.5 -12.9,-0.6 -12.7,-0.6 -12.5,-0.6 -12.3,-0.6 -12.1,-0.6 -11.8,-0.7 -11.6,-0.7 -11.3,-0.7 -11.1,-0.7 -10.8,-0.7 -10.5,-0.7 -10.2,-0.8 -9.8,-0.8 -9.5,-0.8 -9.2,-0.8 -8.8,-0.8 -8.4,-0.9 -8.1,-0.9 -7.7,-0.9 -7.3,-0.9 -6.9,-0.9 -6.5,-0.9 -6.1,-0.9 -5.6,-0.9 -5.2,-0.9 -4.8,-0.9 -4.3,-0.9 -3.9,-0.9 -3.5,-0.9 -3.0,-0.9 -2.6,-0.9 -2.1,-0.9 -1.6,-0.9 -1.2,-0.9 -0.7,-0.9 -0.3,-0.9 0.2,-0.9 0.6,-0.9 1.1,-0.9 1.5,-0.9 2.0,-0.8 2.4,-0.8 2.8,-0.8 3.3,-0.8 3.7,-0.8 4.1,-0.8 4.5,-0.8 4.9,-0.7 5.3,-0.7 5.7,-0.7 6.1,-0.7 6.4,-0.7 6.8,-0.7 7.1,-0.6 7.5,-0.6 7.8,-0.6 8.1,-0.6 8.4,-0.6 8.7,-0.6 9.0,-0.5 9.3,-0.5 9.5,-0.5 9.8,-0.5 10.0,-0.5 10.2,-0.5 10.5,-0.4 10.7,-0.4 10.9,-0.4 11.0,-0.4 11.2,-0.4 11.4,-0.3 11.5,-0.3 11.7,-0.3 11.8,-0.3 11.8,-0.0 11.7,0.0 11.5,0.0 11.3,0.0 11.2,0.1 11.0,0.1 10.8,0.1 10.6,0.1 10.4,0.2 10.2,0.2 10.0,0.2 9.8,0.2 9.5,0.3 9.3,0.3 9.0,0.3 8.8,0.3 8.5,0.4 8.2,0.4 8.0,0.4 7.7,0.4 7.4,0.5 7.1,0.5 6.7,0.5 6.4,0.6 6.1,0.6 5.8,0.6 5.4,0.6 5.1,0.7 4.8,0.7 4.4,0.7 4.0,0.7 3.7,0.8 3.3,0.8 3.0,0.8 2.6,0.8 2.2,0.8 1.9,0.9 1.5,0.9 1.1,0.9 0.7,0.9 0.4,0.9 -0.0,0.9 -0.4,0.9 -0.8,0.9 -1.2,0.9 -1.6,1.0 -1.9,1.0 -2.3,1.0 -2.7,0.9 -3.1,0.9 -3.5,0.9 -3.8,0.9 -4.2,0.9 -4.6,0.9 -5.0,0.9 -5.4,0.9 -5.7,0.8 -6.1,0.8 -6.5,0.8 -6.8,0.8 -7.2,0.7 -7.6,0.7 -7.9,0.7 -8.3,0.6 -8.6,0.6 -8.9,0.5 -9.2,0.5 -9.5,0.5 -9.7,0.5 -10.0,0.4 -10.2,0.4 -10.5,0.4 -10.7,0.3 -10.9,0.3 -11.1,0.2 -11.3,0.2 -11.5,0.2 -11.7,0.1 -11.8,0.1 -12.0,0.0" fill="#fff" stroke="#fff" stroke-width="0" stroke-linejoin="round" filter="url(#fuzzy_av_1779093955002_3rmhgacz8ua)"/><polyline points="14.4,-0.2 14.4,-0.2 14.4,-0.2 14.4,-0.3 14.4,-0.3 14.3,-0.3 14.3,-0.3 14.2,-0.3 14.1,-0.4 14.0,-0.4 -13.9,-0.4 -13.8,-0.4 -13.6,-0.5 -13.5,-0.5 -13.3,-0.5 -13.1,-0.5 -12.9,-0.6 -12.7,-0.6 -12.5,-0.6 -12.3,-0.6 -12.1,-0.6 -11.8,-0.7 -11.6,-0.7 -11.3,-0.7 -11.1,-0.7 -10.8,-0.7 -10.5,-0.7 -10.2,-0.8 -9.8,-0.8 -9.5,-0.8 -9.2,-0.8 -8.8,-0.8 -8.4,-0.9 -8.1,-0.9 -7.7,-0.9 -7.3,-0.9 -6.9,-0.9 -6.5,-0.9 -6.1,-0.9 -5.6,-0.9 -5.2,-0.9 -4.8,-0.9 -4.3,-0.9 -3.9,-0.9 -3.5,-0.9 -3.0,-0.9 -2.6,-0.9 -2.1,-0.9 -1.6,-0.9 -1.2,-0.9 -0.7,-0.9 -0.3,-0.9 0.2,-0.9 0.6,-0.9 1.1,-0.9 1.5,-0.9 2.0,-0.8 2.4,-0.8 2.8,-0.8 3.3,-0.8 3.7,-0.8 4.1,-0.8 4.5,-0.8 4.9,-0.7 5.3,-0.7 5.7,-0.7 6.1,-0.7 6.4,-0.7 6.8,-0.7 7.1,-0.6 7.5,-0.6 7.8,-0.6 8.1,-0.6 8.4,-0.6 8.7,-0.6 9.0,-0.5 9.3,-0.5 9.5,-0.5 9.8,-0.5 10.0,-0.5 10.2,-0.5 10.5,-0.4 10.7,-0.4 10.9,-0.4 11.0,-0.4 11.2,-0.4 11.4,-0.3 11.5,-0.3 11.7,-0.3 11.8,-0.3 -11.9,-0.3 -12.1,-0.3 -12.2,-0.2 -12.2,-0.2 -12.3,-0.2 -12.4,-0.2 -12.5,-0.2 -12.5,-0.1 -12.5,-0.1 -12.6,-0.1" fill="none" stroke="#111" stroke-width="2.3429715061959246" stroke-linejoin="round" stroke-linecap="round" filter="url(#fuzzy_av_1779093955002_3rmhgacz8ua)"/><polyline points="12.2,-0.4 12.3,-0.3 12.4,-0.3 12.4,-0.3 12.4,-0.2 12.4,-0.2 12.3,-0.1 12.3,-0.1 12.2,-0.0 12.1,-0.0 -12.0,0.0 -11.8,0.1 -11.7,0.1 -11.5,0.2 -11.3,0.2 -11.1,0.2 -10.9,0.3 -10.7,0.3 -10.5,0.4 -10.2,0.4 -10.0,0.4 -9.7,0.5 -9.5,0.5 -9.2,0.5 -8.9,0.5 -8.6,0.6 -8.3,0.6 -7.9,0.7 -7.6,0.7 -7.2,0.7 -6.8,0.8 -6.5,0.8 -6.1,0.8 -5.7,0.8 -5.4,0.9 -5.0,0.9 -4.6,0.9 -4.2,0.9 -3.8,0.9 -3.5,0.9 -3.1,0.9 -2.7,0.9 -2.3,1.0 -1.9,1.0 -1.6,1.0 -1.2,0.9 -0.8,0.9 -0.4,0.9 -0.0,0.9 0.4,0.9 0.7,0.9 1.1,0.9 1.5,0.9 1.9,0.9 2.2,0.8 2.6,0.8 3.0,0.8 3.3,0.8 3.7,0.8 4.0,0.7 4.4,0.7 4.8,0.7 5.1,0.7 5.4,0.6 5.8,0.6 6.1,0.6 6.4,0.6 6.7,0.5 7.1,0.5 7.4,0.5 7.7,0.4 8.0,0.4 8.2,0.4 8.5,0.4 8.8,0.3 9.0,0.3 9.3,0.3 9.5,0.3 9.8,0.2 10.0,0.2 10.2,0.2 10.4,0.2 10.6,0.1 10.8,0.1 11.0,0.1 11.2,0.1 11.3,0.0 11.5,0.0 11.7,0.0 11.8,-0.0 -11.9,-0.0 -12.0,-0.1 -12.2,-0.1 -12.3,-0.1 -12.4,-0.1 -12.4,-0.2 -12.5,-0.2 -12.6,-0.2 -12.6,-0.2 -12.7,-0.2" fill="none" stroke="#111" stroke-width="2.8729854387762144" stroke-linejoin="round" stroke-linecap="round" filter="url(#fuzzy_av_1779093955002_3rmhgacz8ua)"/><circle r="2.9734587212207177" cx="4.503784511331611" cy="-1.0976291567066596" stroke="#111" fill="none" stroke-width="1.0512582607915382" filter="url(#fuzzy_av_1779093955002_3rmhgacz8ua)" clip-path="url(#leftEye_av_1779093955002_3rmhgacz8ua)"/><circle r="3.752944700540793" cx="4.05004243428551" cy="1.3865747090939706" stroke="#111" fill="none" stroke-width="1.3646309708105484" filter="url(#fuzzy_av_1779093955002_3rmhgacz8ua)" clip-path="url(#leftEye_av_1779093955002_3rmhgacz8ua)"/><circle r="3.841105229180701" cx="4.830341870453381" cy="1.7790981847568563" stroke="#111" fill="none" stroke-width="1.0236282037940674" filter="url(#fuzzy_av_1779093955002_3rmhgacz8ua)" clip-path="url(#leftEye_av_1779093955002_3rmhgacz8ua)"/><circle r="4.325442708723443" cx="6.174506924395082" cy="0.9712928416677687" stroke="#111" fill="none" stroke-width="1.0488323524827081" filter="url(#fuzzy_av_1779093955002_3rmhgacz8ua)" clip-path="url(#leftEye_av_1779093955002_3rmhgacz8ua)"/><circle r="2.3949224018127513" cx="7.493672955712647" cy="-1.3896180410571581" stroke="#111" fill="none" stroke-width="0.9180977273186752" filter="url(#fuzzy_av_1779093955002_3rmhgacz8ua)" clip-path="url(#leftEye_av_1779093955002_3rmhgacz8ua)"/><circle r="4.312504994987567" cx="5.13147273159186" cy="1.6712625468404814" stroke="#111" fill="none" stroke-width="0.8484388005509438" filter="url(#fuzzy_av_1779093955002_3rmhgacz8ua)" clip-path="url(#leftEye_av_1779093955002_3rmhgacz8ua)"/><circle r="4.0609846048476586" cx="4.3293651051690105" cy="1.652179360763696" stroke="#111" fill="none" stroke-width="0.9804650178240513" filter="url(#fuzzy_av_1779093955002_3rmhgacz8ua)" clip-path="url(#leftEye_av_1779093955002_3rmhgacz8ua)"/><circle r="3.2974776196608095" cx="5.0840564196725" cy="0.33839065153995784" stroke="#111" fill="none" stroke-width="1.1237908691164908" filter="url(#fuzzy_av_1779093955002_3rmhgacz8ua)" clip-path="url(#leftEye_av_1779093955002_3rmhgacz8ua)"/><circle r="3.885183151422021" cx="4.779478268821309" cy="1.2400921854161489" stroke="#111" fill="none" stroke-width="1.3644041839794763" filter="url(#fuzzy_av_1779093955002_3rmhgacz8ua)" clip-path="url(#leftEye_av_1779093955002_3rmhgacz8ua)"/><circle r="4.101084604714171" cx="6.553028350238948" cy="-1.882825437145438" stroke="#111" fill="none" stroke-width="1.380396066693856" filter="url(#fuzzy_av_1779093955002_3rmhgacz8ua)" clip-path="url(#leftEye_av_1779093955002_3rmhgacz8ua)"/></g><g id="rightEye" transform="translate(26.4 -25.2)"><polyline points="-14.9,-0.4 -14.7,-0.5 -14.5,-0.5 -14.3,-0.5 -14.0,-0.5 -13.8,-0.5 -13.6,-0.6 -13.3,-0.6 -13.0,-0.6 -12.8,-0.6 -12.5,-0.6 -12.2,-0.7 -11.9,-0.7 -11.5,-0.7 -11.2,-0.7 -10.9,-0.7 -10.5,-0.7 -10.2,-0.7 -9.8,-0.8 -9.4,-0.8 -9.0,-0.8 -8.6,-0.8 -8.1,-0.8 -7.7,-0.8 -7.3,-0.9 -6.8,-0.9 -6.4,-0.9 -5.9,-0.9 -5.4,-0.9 -4.9,-0.9 -4.5,-0.9 -4.0,-0.9 -3.5,-0.9 -3.0,-0.9 -2.5,-0.9 -2.0,-0.9 -1.5,-0.9 -1.0,-0.9 -0.5,-0.9 -0.0,-0.9 0.4,-0.9 0.9,-0.9 1.4,-0.9 1.9,-0.9 2.4,-0.9 2.8,-0.8 3.3,-0.8 3.7,-0.8 4.2,-0.8 4.6,-0.8 5.0,-0.8 5.5,-0.8 5.9,-0.8 6.3,-0.8 6.7,-0.7 7.0,-0.7 7.4,-0.7 7.8,-0.7 8.1,-0.7 8.5,-0.7 8.8,-0.7 9.1,-0.6 9.4,-0.6 9.7,-0.6 10.0,-0.6 10.3,-0.6 10.5,-0.6 10.8,-0.6 11.0,-0.5 11.3,-0.5 11.5,-0.5 11.7,-0.5 11.9,-0.5 12.1,-0.5 12.3,-0.5 12.5,-0.4 12.6,-0.4 12.8,-0.4 12.9,-0.4 13.1,-0.4 11.7,-0.1 11.6,-0.1 11.4,-0.1 11.3,-0.1 11.1,-0.1 11.0,-0.0 10.8,-0.0 10.6,0.0 10.5,0.0 10.3,0.1 10.1,0.1 9.8,0.1 9.6,0.2 9.4,0.2 9.1,0.2 8.8,0.2 8.6,0.3 8.3,0.3 8.0,0.3 7.7,0.3 7.4,0.4 7.0,0.4 6.7,0.4 6.3,0.5 6.0,0.5 5.6,0.5 5.2,0.6 4.8,0.6 4.4,0.6 4.0,0.6 3.6,0.7 3.2,0.7 2.7,0.7 2.3,0.7 1.9,0.8 1.4,0.8 0.9,0.8 0.5,0.8 0.0,0.9 -0.4,0.9 -0.9,0.9 -1.4,0.9 -1.9,0.9 -2.3,0.9 -2.8,1.0 -3.3,1.0 -3.7,1.0 -4.2,1.0 -4.6,1.0 -5.1,1.0 -5.5,1.0 -6.0,1.0 -6.4,1.0 -6.8,0.9 -7.3,0.9 -7.7,0.9 -8.1,0.9 -8.5,0.9 -8.8,0.8 -9.2,0.8 -9.5,0.8 -9.9,0.7 -10.2,0.7 -10.5,0.7 -10.8,0.6 -11.1,0.6 -11.3,0.6 -11.6,0.5 -11.8,0.5 -12.0,0.5 -12.2,0.4 -12.4,0.4 -12.6,0.3 -12.7,0.3 -12.8,0.3 -13.0,0.2 -13.1,0.2 -13.2,0.1 -13.2,0.1 -13.3,0.0" fill="#fff" stroke="#fff" stroke-width="0" stroke-linejoin="round" filter="url(#fuzzy_av_1779093955002_3rmhgacz8ua)"/><polyline points="-16.0,-0.3 -16.0,-0.3 -15.9,-0.3 -15.8,-0.3 -15.7,-0.3 -15.6,-0.3 -15.5,-0.4 -15.4,-0.4 -15.2,-0.4 -15.1,-0.4 -14.9,-0.4 -14.7,-0.5 -14.5,-0.5 -14.3,-0.5 -14.0,-0.5 -13.8,-0.5 -13.6,-0.6 -13.3,-0.6 -13.0,-0.6 -12.8,-0.6 -12.5,-0.6 -12.2,-0.7 -11.9,-0.7 -11.5,-0.7 -11.2,-0.7 -10.9,-0.7 -10.5,-0.7 -10.2,-0.7 -9.8,-0.8 -9.4,-0.8 -9.0,-0.8 -8.6,-0.8 -8.1,-0.8 -7.7,-0.8 -7.3,-0.9 -6.8,-0.9 -6.4,-0.9 -5.9,-0.9 -5.4,-0.9 -4.9,-0.9 -4.5,-0.9 -4.0,-0.9 -3.5,-0.9 -3.0,-0.9 -2.5,-0.9 -2.0,-0.9 -1.5,-0.9 -1.0,-0.9 -0.5,-0.9 -0.0,-0.9 0.4,-0.9 0.9,-0.9 1.4,-0.9 1.9,-0.9 2.4,-0.9 2.8,-0.8 3.3,-0.8 3.7,-0.8 4.2,-0.8 4.6,-0.8 5.0,-0.8 5.5,-0.8 5.9,-0.8 6.3,-0.8 6.7,-0.7 7.0,-0.7 7.4,-0.7 7.8,-0.7 8.1,-0.7 8.5,-0.7 8.8,-0.7 9.1,-0.6 9.4,-0.6 9.7,-0.6 10.0,-0.6 10.3,-0.6 10.5,-0.6 10.8,-0.6 11.0,-0.5 11.3,-0.5 11.5,-0.5 11.7,-0.5 11.9,-0.5 12.1,-0.5 12.3,-0.5 12.5,-0.4 12.6,-0.4 12.8,-0.4 12.9,-0.4 13.1,-0.4 13.2,-0.4 13.3,-0.4 13.5,-0.3 13.6,-0.3 13.7,-0.3 13.8,-0.3 13.8,-0.3 13.9,-0.3 14.0,-0.3 14.0,-0.3" fill="none" stroke="#111" stroke-width="2.7713852017473535" stroke-linejoin="round" stroke-linecap="round" filter="url(#fuzzy_av_1779093955002_3rmhgacz8ua)"/><polyline points="-12.5,-0.4 -12.7,-0.4 -12.8,-0.3 -13.0,-0.3 -13.1,-0.2 -13.2,-0.2 -13.2,-0.1 -13.3,-0.1 -13.3,-0.1 -13.3,-0.0 -13.3,0.0 -13.2,0.1 -13.2,0.1 -13.1,0.2 -13.0,0.2 -12.8,0.3 -12.7,0.3 -12.6,0.3 -12.4,0.4 -12.2,0.4 -12.0,0.5 -11.8,0.5 -11.6,0.5 -11.3,0.6 -11.1,0.6 -10.8,0.6 -10.5,0.7 -10.2,0.7 -9.9,0.7 -9.5,0.8 -9.2,0.8 -8.8,0.8 -8.5,0.9 -8.1,0.9 -7.7,0.9 -7.3,0.9 -6.8,0.9 -6.4,1.0 -6.0,1.0 -5.5,1.0 -5.1,1.0 -4.6,1.0 -4.2,1.0 -3.7,1.0 -3.3,1.0 -2.8,1.0 -2.3,0.9 -1.9,0.9 -1.4,0.9 -0.9,0.9 -0.4,0.9 0.0,0.9 0.5,0.8 0.9,0.8 1.4,0.8 1.9,0.8 2.3,0.7 2.7,0.7 3.2,0.7 3.6,0.7 4.0,0.6 4.4,0.6 4.8,0.6 5.2,0.6 5.6,0.5 6.0,0.5 6.3,0.5 6.7,0.4 7.0,0.4 7.4,0.4 7.7,0.3 8.0,0.3 8.3,0.3 8.6,0.3 8.8,0.2 9.1,0.2 9.4,0.2 9.6,0.2 9.8,0.1 10.1,0.1 10.3,0.1 10.5,0.0 10.6,0.0 10.8,-0.0 11.0,-0.0 11.1,-0.1 11.3,-0.1 11.4,-0.1 11.6,-0.1 11.7,-0.1 11.8,-0.2 11.9,-0.2 11.9,-0.2 12.0,-0.2 12.1,-0.3 12.1,-0.3 12.2,-0.3 12.2,-0.3 12.2,-0.3 12.2,-0.4" fill="none" stroke="#111" stroke-width="2.719529889029695" stroke-linejoin="round" stroke-linecap="round" filter="url(#fuzzy_av_1779093955002_3rmhgacz8ua)"/><circle r="2.950719758432697" cx="-6.454755453924651" cy="-1.8593273894282663" stroke="#111" fill="none" stroke-width="1.1108853217945862" filter="url(#fuzzy_av_1779093955002_3rmhgacz8ua)" clip-path="url(#rightEye_av_1779093955002_3rmhgacz8ua)"/><circle r="4.255008898691598" cx="-7.741122601967336" cy="1.8737097810651575" stroke="#111" fill="none" stroke-width="0.8577895847814248" filter="url(#fuzzy_av_1779093955002_3rmhgacz8ua)" clip-path="url(#rightEye_av_1779093955002_3rmhgacz8ua)"/><circle r="2.5425480515847174" cx="-4.416877432107015" cy="-0.541040929144524" stroke="#111" fill="none" stroke-width="1.3132565282045126" filter="url(#fuzzy_av_1779093955002_3rmhgacz8ua)" clip-path="url(#rightEye_av_1779093955002_3rmhgacz8ua)"/><circle r="3.2067611486926557" cx="-5.605656064912457" cy="1.371881223415705" stroke="#111" fill="none" stroke-width="1.0284102086602145" filter="url(#fuzzy_av_1779093955002_3rmhgacz8ua)" clip-path="url(#rightEye_av_1779093955002_3rmhgacz8ua)"/><circle r="4.6118854479003275" cx="-4.642723264079023" cy="0.6696854495073381" stroke="#111" fill="none" stroke-width="1.3780545706414942" filter="url(#fuzzy_av_1779093955002_3rmhgacz8ua)" clip-path="url(#rightEye_av_1779093955002_3rmhgacz8ua)"/><circle r="4.410746728773461" cx="-4.257521179530544" cy="1.0756404236246875" stroke="#111" fill="none" stroke-width="1.1609400719803247" filter="url(#fuzzy_av_1779093955002_3rmhgacz8ua)" clip-path="url(#rightEye_av_1779093955002_3rmhgacz8ua)"/><circle r="4.217497603372829" cx="-3.9571816098897212" cy="-0.5975544662486061" stroke="#111" fill="none" stroke-width="1.2199164899442554" filter="url(#fuzzy_av_1779093955002_3rmhgacz8ua)" clip-path="url(#rightEye_av_1779093955002_3rmhgacz8ua)"/><circle r="3.9862764333808074" cx="-4.797210576281461" cy="1.515207869189035" stroke="#111" fill="none" stroke-width="1.3474399053344608" filter="url(#fuzzy_av_1779093955002_3rmhgacz8ua)" clip-path="url(#rightEye_av_1779093955002_3rmhgacz8ua)"/><circle r="4.28619364416999" cx="-7.707637287353054" cy="0.7816836329620653" stroke="#111" fill="none" stroke-width="1.1175664805336765" filter="url(#fuzzy_av_1779093955002_3rmhgacz8ua)" clip-path="url(#rightEye_av_1779093955002_3rmhgacz8ua)"/><circle r="3.3309190675262084" cx="-5.814658546317126" cy="1.641731785677645" stroke="#111" fill="none" stroke-width="1.197835326239904" filter="url(#fuzzy_av_1779093955002_3rmhgacz8ua)" clip-path="url(#rightEye_av_1779093955002_3rmhgacz8ua)"/></g><g id="hairs"><polyline points="-38.8,-54.1 -38.1,-54.2 -37.3,-56.3 -36.3,-58.0 -35.2,-58.7 -34.0,-60.8 -32.7,-63.4 -31.2,-63.5 -29.6,-64.2 -28.0,-63.9 -26.6,-63.8 -25.4,-64.5 -24.5,-65.0 -24.0,-65.8 -24.0,-65.8 -24.5,-65.1 -25.5,-65.7 -27.1,-64.5 -29.4,-64.2" fill="none" stroke="url(#rainbow_av_1779093955002_3rmhgacz8ua)" stroke-width="1.0055433566718484" stroke-linejoin="round" stroke-linecap="round" filter="url(#fuzzy_av_1779093955002_3rmhgacz8ua)" opacity="0.8994965142363605"/><polyline points="40.6,-43.3 40.4,-42.0 39.7,-40.8 38.6,-38.9 37.0,-37.4 35.0,-36.0 32.5,-32.9 29.6,-31.0 26.2,-28.7 22.4,-27.8 18.1,-25.4 13.4,-23.9 8.2,-20.1 2.6,-18.1 -3.5,-16.5 -10.0,-13.2 -17.0,-11.3 -24.4,-8.4 -32.3,-6.9 -40.7,-3.1" fill="none" stroke="url(#rainbow_av_1779093955002_3rmhgacz8ua)" stroke-width="1.624068688664471" stroke-linejoin="round" stroke-linecap="round" filter="url(#fuzzy_av_1779093955002_3rmhgacz8ua)" opacity="0.9252027742411452"/><polyline points="-7.8,-65.1 -6.7,-64.4 -5.6,-64.2 -4.6,-64.5 -3.8,-64.3 -3.2,-65.7 -2.8,-65.8 -2.8,-65.5 -3.1,-65.3 -3.8,-64.6 -4.9,-63.9 -6.3,-63.9 -8.1,-63.8 -10.4,-63.6 -13.0,-61.1 -16.1,-60.8 -19.8,-59.1 -23.9,-56.8 -28.7,-56.3 -34.1,-53.0 -40.2,-50.5" fill="none" stroke="url(#rainbow_av_1779093955002_3rmhgacz8ua)" stroke-width="2.5581644135998958" stroke-linejoin="round" stroke-linecap="round" filter="url(#fuzzy_av_1779093955002_3rmhgacz8ua)" opacity="0.981074670437136"/><polyline points="40.6,-43.9 40.3,-42.0 39.3,-40.8 37.5,-41.4 35.1,-39.3 31.9,-38.6 28.0,-38.3 23.3,-38.9 17.8,-38.5 11.6,-38.4 4.6,-38.7 -3.0,-38.9 -11.4,-38.7 -20.4,-40.5 -30.2,-40.0 -40.7,-41.3" fill="none" stroke="url(#rainbow_av_1779093955002_3rmhgacz8ua)" stroke-width="0.9651114200659315" stroke-linejoin="round" stroke-linecap="round" filter="url(#fuzzy_av_1779093955002_3rmhgacz8ua)" opacity="0.754548421293802"/><polyline points="-40.7,-11.8 -40.5,-13.8 -40.0,-15.3 -39.1,-16.4 -38.0,-17.6 -36.6,-20.7 -34.9,-22.5 -33.0,-24.5 -30.8,-26.6 -28.5,-28.4 -26.0,-32.5 -23.3,-35.0 -20.5,-36.2 -17.5,-40.1 -14.4,-42.5 -11.2,-45.8 -7.9,-50.1 -4.6,-52.4 -1.2,-56.0 2.2,-59.3 5.7,-62.6 9.2,-65.6" fill="none" stroke="url(#rainbow_av_1779093955002_3rmhgacz8ua)" stroke-width="1.5459087674486889" stroke-linejoin="round" stroke-linecap="round" filter="url(#fuzzy_av_1779093955002_3rmhgacz8ua)" opacity="0.7769165198263042"/><polyline points="26.5,-65.6 27.9,-64.7 29.2,-64.7 30.3,-64.6 31.1,-65.2 31.5,-63.1 31.5,-62.8 31.0,-61.8 30.1,-61.1 28.9,-59.5 27.3,-58.3 25.3,-56.5 23.0,-57.2 20.3,-55.5 17.2,-56.4 13.7,-55.6 9.8,-55.4 5.5,-53.6 1.0,-53.5 -3.9,-52.3 -9.1,-51.9 -14.6,-51.9 -20.5,-51.7 -26.7,-52.1 -33.2,-50.9 -40.2,-51.0" fill="none" stroke="url(#rainbow_av_1779093955002_3rmhgacz8ua)" stroke-width="2.3660213696674752" stroke-linejoin="round" stroke-linecap="round" filter="url(#fuzzy_av_1779093955002_3rmhgacz8ua)" opacity="0.9330578705212942"/><polyline points="21.9,-64.5 23.2,-64.7 24.1,-65.0 24.8,-64.2 25.0,-62.7 24.9,-61.0 24.3,-59.3 23.2,-57.2 21.5,-55.7 19.2,-52.6 16.3,-48.6 12.8,-44.5 8.8,-38.7 4.3,-35.4 -0.6,-30.2 -6.1,-24.2 -12.0,-19.8 -18.4,-14.3 -25.3,-10.0 -32.7,-2.7 -40.7,1.9" fill="none" stroke="url(#rainbow_av_1779093955002_3rmhgacz8ua)" stroke-width="1.7304583892807486" stroke-linejoin="round" stroke-linecap="round" filter="url(#fuzzy_av_1779093955002_3rmhgacz8ua)" opacity="0.8396579650636387"/><polyline points="-40.7,-25.7 -40.6,-27.4 -40.6,-28.5 -40.6,-29.8 -40.5,-32.0 -40.5,-33.4 -40.5,-36.1 -40.5,-37.1 -40.6,-38.6 -40.6,-40.7 -40.6,-40.1 -40.6,-42.3 -40.7,-40.5 -40.7,-40.0 -40.7,-40.1 -40.7,-38.4" fill="none" stroke="url(#rainbow_av_1779093955002_3rmhgacz8ua)" stroke-width="2.12682824916407" stroke-linejoin="round" stroke-linecap="round" filter="url(#fuzzy_av_1779093955002_3rmhgacz8ua)" opacity="0.9171895331013245"/><polyline points="-40.7,-48.5 -40.1,-51.5 -39.3,-52.4 -38.4,-54.0 -37.5,-55.7 -36.6,-56.2 -35.7,-59.1 -34.7,-60.2 -33.8,-62.1 -32.8,-62.6 -31.8,-62.5 -30.8,-63.8 -29.9,-64.8 -29.2,-64.1 -28.7,-64.3 -28.6,-64.5 -28.9,-65.5 -29.5,-63.6 -30.4,-63.9 -31.7,-62.4 -33.2,-62.6 -34.9,-59.3 -37.0,-57.8" fill="none" stroke="url(#rainbow_av_1779093955002_3rmhgacz8ua)" stroke-width="2.496406170489422" stroke-linejoin="round" stroke-linecap="round" filter="url(#fuzzy_av_1779093955002_3rmhgacz8ua)" opacity="0.99132044773717"/><polyline points="-40.7,-8.9 -40.7,-10.4 -40.7,-11.4 -40.7,-12.1 -40.7,-14.7 -40.7,-14.8 -40.7,-17.6 -40.7,-16.9 -40.7,-18.9 -40.7,-20.7 -40.7,-21.9 -40.7,-22.7 -40.7,-23.5 -40.7,-22.4 -40.7,-22.3 -40.7,-22.3 -40.7,-22.2 -40.7,-22.9 -40.7,-21.2 -40.7,-19.9 -40.7,-18.9" fill="none" stroke="url(#rainbow_av_1779093955002_3rmhgacz8ua)" stroke-width="2.027223009012486" stroke-linejoin="round" stroke-linecap="round" filter="url(#fuzzy_av_1779093955002_3rmhgacz8ua)" opacity="0.9254470723988174"/><polyline points="-32.9,-65.2 -31.1,-65.3 -29.3,-64.6 -27.6,-63.9 -25.8,-64.6 -23.9,-64.4 -22.1,-65.4 -20.3,-65.8 -18.5,-65.2 -16.9,-65.5 -15.3,-64.7 -13.9,-65.1 -12.6,-65.6 -11.5,-64.3 -10.5,-63.9 -9.8,-65.3 -9.4,-65.2 -9.2,-64.4 -9.3,-65.5 -9.7,-65.9 -10.5,-65.4 -11.6,-64.9 -13.1,-63.9 -15.0,-64.4 -17.5,-64.5 -20.3,-64.3" fill="none" stroke="url(#rainbow_av_1779093955002_3rmhgacz8ua)" stroke-width="2.316852734908389" stroke-linejoin="round" stroke-linecap="round" filter="url(#fuzzy_av_1779093955002_3rmhgacz8ua)" opacity="0.7526945146960311"/><polyline points="-40.7,-12.0 -40.6,-14.3 -40.3,-14.4 -39.9,-15.7 -39.3,-18.0 -38.7,-18.9 -37.9,-22.3 -37.0,-23.4 -36.1,-26.5 -35.1,-28.6 -34.0,-30.9 -33.0,-32.5 -31.9,-35.5 -30.8,-39.7 -29.8,-42.6 -28.8,-45.1 -27.8,-47.4 -27.0,-50.8 -26.3,-52.6 -25.7,-56.2 -25.2,-59.9 -24.9,-62.9 -24.8,-64.3" fill="none" stroke="url(#rainbow_av_1779093955002_3rmhgacz8ua)" stroke-width="1.6833196958384038" stroke-linejoin="round" stroke-linecap="round" filter="url(#fuzzy_av_1779093955002_3rmhgacz8ua)" opacity="0.9817662336136749"/><polyline points="-35.5,-63.8 -34.1,-65.0 -31.7,-64.9 -28.6,-65.1 -25.0,-64.3 -20.9,-64.1 -16.4,-62.2 -11.6,-62.8 -6.5,-62.0 -1.1,-61.1 4.5,-63.0 10.3,-62.8 16.2,-62.2 22.1,-64.0 27.8,-65.4 32.9,-64.1" fill="none" stroke="url(#rainbow_av_1779093955002_3rmhgacz8ua)" stroke-width="1.3865938136098834" stroke-linejoin="round" stroke-linecap="round" filter="url(#fuzzy_av_1779093955002_3rmhgacz8ua)" opacity="0.998267285361363"/><polyline points="-40.7,-30.8 -40.7,-32.6 -40.7,-34.2 -40.7,-35.6 -40.7,-36.1 -40.7,-36.5 -40.7,-37.9 -40.7,-37.2 -40.6,-38.0 -40.6,-37.8 -40.6,-38.6 -40.5,-37.2 -40.3,-36.9 -40.1,-36.3 -39.9,-35.0 -39.6,-33.9 -39.4,-30.2 -39.2,-28.3 -39.1,-25.6 -39.1,-21.6 -39.1,-17.5 -39.2,-13.3 -39.4,-7.5 -39.6,-2.2 -40.0,4.9 -40.7,11.0" fill="none" stroke="url(#rainbow_av_1779093955002_3rmhgacz8ua)" stroke-width="0.9758494159635901" stroke-linejoin="round" stroke-linecap="round" filter="url(#fuzzy_av_1779093955002_3rmhgacz8ua)" opacity="0.8571986253585244"/><polyline points="28.1,-64.0 29.4,-64.1 30.5,-63.4 31.3,-63.7 31.5,-62.5 31.1,-60.3 30.3,-58.4 29.1,-55.7 27.4,-53.6 25.4,-49.6 23.1,-47.6 20.4,-44.7 17.3,-41.6 13.9,-37.2 10.0,-34.3 5.8,-30.5 1.2,-26.0 -3.8,-22.9 -9.2,-18.3 -14.8,-14.8 -20.8,-10.1 -27.1,-6.4 -33.7,-2.0 -40.7,0.5" fill="none" stroke="url(#rainbow_av_1779093955002_3rmhgacz8ua)" stroke-width="1.9441772457105158" stroke-linejoin="round" stroke-linecap="round" filter="url(#fuzzy_av_1779093955002_3rmhgacz8ua)" opacity="0.8850004902977514"/><polyline points="10.4,-65.7 11.7,-65.6 12.6,-65.3 13.3,-64.8 13.7,-62.9 13.8,-61.4 13.6,-60.3 13.1,-60.0 12.3,-57.7 11.1,-54.6 9.5,-53.3 7.5,-49.8 5.0,-46.4 2.1,-42.8 -1.3,-39.0 -5.3,-33.9 -9.8,-30.5 -14.9,-24.9 -20.5,-19.4 -26.8,-13.4 -33.5,-6.9 -40.7,-0.7" fill="none" stroke="url(#rainbow_av_1779093955002_3rmhgacz8ua)" stroke-width="2.0216222345184542" stroke-linejoin="round" stroke-linecap="round" filter="url(#fuzzy_av_1779093955002_3rmhgacz8ua)" opacity="0.7918428636624162"/><polyline points="40.6,-39.4 40.5,-37.6 40.1,-36.4 39.5,-35.7 38.6,-32.6 37.4,-32.3 36.0,-31.2 34.3,-29.1 32.3,-27.9 30.1,-25.9 27.6,-24.7 24.9,-21.8 21.9,-21.6 18.7,-20.1 15.1,-18.1 11.4,-15.7 7.3,-14.5 3.1,-12.3 -1.5,-9.9 -6.3,-8.5 -11.4,-5.7 -16.7,-3.6 -22.3,-1.3 -28.2,0.5 -34.3,2.8 -40.7,5.1" fill="none" stroke="url(#rainbow_av_1779093955002_3rmhgacz8ua)" stroke-width="2.104332930310438" stroke-linejoin="round" stroke-linecap="round" filter="url(#fuzzy_av_1779093955002_3rmhgacz8ua)" opacity="0.9793697092639758"/><polyline points="40.0,-50.4 40.2,-49.8 39.9,-47.9 39.1,-45.0 37.9,-43.5 36.4,-41.3 34.6,-38.7 32.4,-37.2 29.9,-34.1 27.0,-31.1 23.8,-28.4 20.3,-26.6 16.5,-23.0 12.3,-19.6 7.7,-16.4 2.8,-14.6 -2.4,-10.8 -7.9,-8.4 -13.8,-3.8 -20.0,-1.7 -26.5,3.5 -33.4,5.9 -40.7,9.6" fill="none" stroke="url(#rainbow_av_1779093955002_3rmhgacz8ua)" stroke-width="1.8066783901476136" stroke-linejoin="round" stroke-linecap="round" filter="url(#fuzzy_av_1779093955002_3rmhgacz8ua)" opacity="0.9963019114962509"/><polyline points="-4.1,-65.1 -2.8,-65.8 -1.5,-65.9 -0.4,-64.9 0.5,-65.5 1.2,-64.0 1.7,-65.0 1.8,-64.1 1.6,-64.7 0.9,-65.1 -0.3,-65.6 -2.1,-65.7 -4.5,-64.8 -7.6,-64.7 -11.5,-64.2 -16.2,-64.8 -21.8,-65.5" fill="none" stroke="url(#rainbow_av_1779093955002_3rmhgacz8ua)" stroke-width="2.5330675368217745" stroke-linejoin="round" stroke-linecap="round" filter="url(#fuzzy_av_1779093955002_3rmhgacz8ua)" opacity="0.7980808642168683"/><polyline points="-35.8,-61.7 -35.2,-63.6 -33.9,-64.7 -32.3,-65.0 -30.5,-64.6 -28.6,-64.6 -26.7,-64.8 -24.9,-64.9 -23.2,-63.9 -21.6,-65.4 -20.2,-64.8 -19.0,-64.0 -18.0,-65.7 -17.2,-65.8 -16.8,-64.0 -16.7,-65.6 -16.9,-65.6 -17.6,-65.1 -18.6,-65.0 -20.2,-65.3 -22.2,-63.9 -24.8,-64.2 -27.8,-64.2" fill="none" stroke="url(#rainbow_av_1779093955002_3rmhgacz8ua)" stroke-width="2.320255434682716" stroke-linejoin="round" stroke-linecap="round" filter="url(#fuzzy_av_1779093955002_3rmhgacz8ua)" opacity="0.8244897945974605"/><polyline points="2.5,-65.7 3.7,-65.4 4.7,-64.5 5.4,-63.8 6.0,-63.3 6.3,-63.5 6.4,-63.7 6.2,-62.0 5.7,-62.4 4.9,-59.5 3.8,-58.9 2.4,-57.6 0.6,-56.8 -1.5,-54.6 -4.0,-52.4 -6.9,-48.4 -10.3,-45.6 -14.1,-43.3 -18.4,-38.9 -23.1,-36.0 -28.4,-31.7 -34.3,-28.1 -40.7,-22.4" fill="none" stroke="url(#rainbow_av_1779093955002_3rmhgacz8ua)" stroke-width="1.2694653327230876" stroke-linejoin="round" stroke-linecap="round" filter="url(#fuzzy_av_1779093955002_3rmhgacz8ua)" opacity="0.9135676290331053"/><polyline points="37.5,-56.8 38.2,-55.6 38.8,-53.9 39.3,-51.3 39.8,-51.3 40.1,-50.0 40.3,-49.0 40.3,-47.9 40.2,-45.9 40.1,-45.5 39.9,-45.9 39.6,-44.9 39.2,-44.9 38.6,-45.2 37.9,-46.4 37.0,-48.2 35.8,-48.9 34.4,-50.3 32.7,-50.8 30.8,-53.7 28.6,-56.0 26.1,-57.8 23.3,-60.9 20.1,-65.3" fill="none" stroke="url(#rainbow_av_1779093955002_3rmhgacz8ua)" stroke-width="1.7107745448755423" stroke-linejoin="round" stroke-linecap="round" filter="url(#fuzzy_av_1779093955002_3rmhgacz8ua)" opacity="0.9917662671463529"/><polyline points="-16.1,-65.3 -14.8,-65.5 -13.8,-64.8 -13.1,-64.6 -12.7,-64.1 -12.6,-63.8 -12.9,-62.4 -13.6,-61.1 -14.6,-58.7 -16.1,-57.9 -18.0,-54.3 -20.4,-51.6 -23.3,-49.2 -26.8,-45.1 -30.8,-40.7 -35.4,-36.7 -40.7,-31.6" fill="none" stroke="url(#rainbow_av_1779093955002_3rmhgacz8ua)" stroke-width="1.8752649815186224" stroke-linejoin="round" stroke-linecap="round" filter="url(#fuzzy_av_1779093955002_3rmhgacz8ua)" opacity="0.7957128886576844"/><polyline points="-40.7,-26.3 -40.7,-28.2 -40.7,-29.7 -40.7,-30.9 -40.7,-30.6 -40.7,-31.6 -40.7,-32.0 -40.7,-32.7 -40.7,-33.7 -40.7,-33.4 -40.7,-34.2 -40.7,-33.7 -40.7,-32.9 -40.7,-30.0 -40.7,-28.1 -40.7,-26.3 -40.7,-22.7 -40.7,-17.8" fill="none" stroke="url(#rainbow_av_1779093955002_3rmhgacz8ua)" stroke-width="1.1757591465658663" stroke-linejoin="round" stroke-linecap="round" filter="url(#fuzzy_av_1779093955002_3rmhgacz8ua)" opacity="0.9307449373006283"/><polyline points="-14.6,-64.8 -13.4,-64.9 -12.3,-65.3 -11.4,-63.7 -10.7,-63.3 -10.2,-62.3 -10.0,-62.1 -10.0,-60.3 -10.3,-59.2 -10.8,-56.1 -11.7,-54.9 -12.8,-51.2 -14.3,-48.0 -16.2,-45.0 -18.4,-40.9 -21.0,-37.0 -24.1,-34.0 -27.5,-28.2 -31.4,-23.4 -35.8,-18.8 -40.7,-13.1" fill="none" stroke="url(#rainbow_av_1779093955002_3rmhgacz8ua)" stroke-width="0.9670715915052243" stroke-linejoin="round" stroke-linecap="round" filter="url(#fuzzy_av_1779093955002_3rmhgacz8ua)" opacity="0.95442429723102"/><polyline points="-40.7,-23.1 -40.4,-23.6 -39.7,-24.1 -38.4,-25.3 -36.6,-27.8 -34.4,-29.4 -31.7,-30.5 -28.5,-33.1 -24.9,-34.4 -20.9,-36.7 -16.4,-40.1 -11.5,-43.2 -6.2,-45.2 -0.5,-49.1 5.5,-52.7 11.8,-55.6 18.3,-60.1 24.8,-61.8 31.2,-65.2" fill="none" stroke="url(#rainbow_av_1779093955002_3rmhgacz8ua)" stroke-width="0.9698856978345323" stroke-linejoin="round" stroke-linecap="round" filter="url(#fuzzy_av_1779093955002_3rmhgacz8ua)" opacity="0.8978223539417798"/><polyline points="-23.2,-65.6 -21.9,-64.5 -20.6,-64.3 -19.4,-63.5 -18.3,-63.6 -17.4,-61.9 -16.6,-62.1 -16.0,-60.4 -15.5,-59.0 -15.2,-57.6 -15.1,-54.4 -15.3,-52.0 -15.6,-50.7 -16.2,-48.3 -17.0,-44.7 -18.0,-41.4 -19.3,-37.3 -20.9,-32.8 -22.7,-29.4 -24.9,-23.9 -27.4,-19.5 -30.2,-14.8 -33.3,-8.0 -36.8,-2.6 -40.7,3.7" fill="none" stroke="url(#rainbow_av_1779093955002_3rmhgacz8ua)" stroke-width="2.031976003518225" stroke-linejoin="round" stroke-linecap="round" filter="url(#fuzzy_av_1779093955002_3rmhgacz8ua)" opacity="0.8003393208783183"/><polyline points="-40.7,-38.8 -40.6,-40.2 -40.3,-41.6 -40.0,-42.2 -39.5,-45.8 -39.0,-47.0 -38.4,-49.5 -37.8,-52.0 -37.2,-53.8 -36.7,-55.2 -36.2,-56.5 -36.0,-59.1 -35.9,-59.6 -36.0,-59.7 -36.2,-60.2 -36.5,-60.1 -37.0,-58.4" fill="none" stroke="url(#rainbow_av_1779093955002_3rmhgacz8ua)" stroke-width="2.342109250006703" stroke-linejoin="round" stroke-linecap="round" filter="url(#fuzzy_av_1779093955002_3rmhgacz8ua)" opacity="0.8431440386786337"/><polyline points="-10.4,-64.5 -9.2,-65.9 -7.8,-64.1 -6.4,-65.2 -4.9,-65.0 -3.5,-64.7 -2.0,-64.5 -0.6,-65.5 0.7,-64.4 2.0,-65.1 3.1,-65.5 4.0,-64.4 4.9,-64.6 5.5,-63.9 5.9,-64.7 6.1,-65.7 6.0,-65.5 5.7,-64.3 5.0,-65.3 4.0,-64.7 2.7,-65.0 0.9,-65.4 -1.2,-64.2 -3.8,-65.6 -6.9,-65.2 -10.4,-64.1" fill="none" stroke="url(#rainbow_av_1779093955002_3rmhgacz8ua)" stroke-width="0.7115936749970461" stroke-linejoin="round" stroke-linecap="round" filter="url(#fuzzy_av_1779093955002_3rmhgacz8ua)" opacity="0.8558214737908157"/><polyline points="9.2,-65.3 10.3,-64.8 11.3,-64.7 12.1,-63.2 12.6,-63.5 12.8,-62.8 12.8,-61.7 12.4,-60.5 11.8,-58.2 10.9,-57.6 9.6,-54.0 8.0,-51.2 5.9,-48.5 3.5,-47.4 0.6,-44.0 -2.8,-39.1 -6.6,-34.6 -11.0,-31.6 -15.9,-26.5 -21.4,-21.0 -27.4,-14.8 -33.8,-9.4 -40.7,-3.4" fill="none" stroke="url(#rainbow_av_1779093955002_3rmhgacz8ua)" stroke-width="1.3144286550480113" stroke-linejoin="round" stroke-linecap="round" filter="url(#fuzzy_av_1779093955002_3rmhgacz8ua)" opacity="0.8560082377829352"/><polyline points="-18.9,-64.1 -17.3,-65.0 -15.3,-64.6 -13.0,-65.3 -10.3,-64.0 -7.3,-64.1 -4.1,-63.2 -0.7,-62.6 2.9,-62.5 6.6,-63.7 10.4,-62.6 14.2,-64.2 18.0,-64.8 21.5,-64.2 24.7,-63.9 27.4,-65.8 29.5,-65.2" fill="none" stroke="url(#rainbow_av_1779093955002_3rmhgacz8ua)" stroke-width="1.5369271933694781" stroke-linejoin="round" stroke-linecap="round" filter="url(#fuzzy_av_1779093955002_3rmhgacz8ua)" opacity="0.9384039974298941"/><polyline points="-1.3,-64.5 0.0,-64.0 1.5,-64.1 3.1,-64.8 4.8,-64.1 6.6,-64.2 8.5,-64.7 10.4,-64.8 12.4,-64.9 14.3,-63.3 16.2,-64.1 18.0,-64.4 19.6,-63.6 21.1,-63.8 22.2,-65.0 23.1,-65.0 23.7,-63.9 23.9,-65.0 23.8,-65.8 23.3,-65.3 22.3,-64.7 20.7,-65.2 18.8,-65.1" fill="none" stroke="url(#rainbow_av_1779093955002_3rmhgacz8ua)" stroke-width="1.4547366885056783" stroke-linejoin="round" stroke-linecap="round" filter="url(#fuzzy_av_1779093955002_3rmhgacz8ua)" opacity="0.7610661327362928"/><polyline points="35.5,-63.8 35.7,-61.7 35.6,-59.0 35.0,-58.2 34.0,-56.6 32.4,-55.0 30.4,-55.6 27.7,-53.9 24.5,-53.1 20.7,-52.4 16.2,-51.1 11.0,-50.2 5.2,-49.6 -1.2,-48.4 -8.1,-47.4 -15.6,-46.3 -23.5,-45.6 -31.9,-45.0 -40.7,-45.0" fill="none" stroke="url(#rainbow_av_1779093955002_3rmhgacz8ua)" stroke-width="1.9387971325140954" stroke-linejoin="round" stroke-linecap="round" filter="url(#fuzzy_av_1779093955002_3rmhgacz8ua)" opacity="0.943819448492347"/><polyline points="-13.3,-65.2 -12.0,-65.0 -10.9,-64.9 -9.9,-64.0 -9.1,-62.9 -8.5,-63.5 -8.0,-62.0 -7.7,-60.4 -7.7,-60.1 -7.8,-59.5 -8.2,-57.7 -8.8,-56.2 -9.7,-52.5 -10.8,-50.2 -12.3,-48.2 -14.0,-45.7 -16.1,-42.7 -18.5,-38.6 -21.2,-34.6 -24.3,-30.6 -27.8,-26.2 -31.7,-21.7 -35.9,-17.8 -40.7,-11.4" fill="none" stroke="url(#rainbow_av_1779093955002_3rmhgacz8ua)" stroke-width="1.6510278624582653" stroke-linejoin="round" stroke-linecap="round" filter="url(#fuzzy_av_1779093955002_3rmhgacz8ua)" opacity="0.9516302390434499"/><polyline points="-40.7,-17.8 -40.3,-17.9 -39.2,-19.5 -37.4,-21.2 -35.0,-23.5 -31.9,-24.8 -28.1,-27.7 -23.7,-31.0 -18.6,-34.3 -13.0,-38.7 -6.8,-41.7 -0.1,-46.8 7.0,-52.1 14.3,-56.0 21.9,-59.7 29.5,-65.3" fill="none" stroke="url(#rainbow_av_1779093955002_3rmhgacz8ua)" stroke-width="1.248540825118058" stroke-linejoin="round" stroke-linecap="round" filter="url(#fuzzy_av_1779093955002_3rmhgacz8ua)" opacity="0.7751649886430811"/><polyline points="9.2,-65.0 10.5,-65.4 11.9,-65.1 13.5,-65.3 15.0,-64.9 16.6,-64.8 18.2,-65.4 19.8,-63.9 21.4,-63.8 23.0,-63.8 24.4,-64.4 25.7,-65.2 26.8,-64.6 27.7,-64.3 28.3,-65.2 28.6,-64.4 28.7,-64.3 28.3,-64.5 27.5,-63.5 26.3,-63.2 24.8,-63.4 22.9,-62.4 20.7,-62.9 18.1,-62.8 15.2,-64.8 11.9,-65.2" fill="none" stroke="url(#rainbow_av_1779093955002_3rmhgacz8ua)" stroke-width="1.0549554331929958" stroke-linejoin="round" stroke-linecap="round" filter="url(#fuzzy_av_1779093955002_3rmhgacz8ua)" opacity="0.7808796045103428"/><polyline points="9.2,-65.3 10.3,-65.3 11.1,-65.1 11.5,-63.9 11.6,-63.4 11.3,-63.1 10.6,-62.4 9.4,-60.0 7.8,-59.5 5.7,-57.7 3.0,-56.5 -0.2,-52.3 -3.9,-50.8 -8.3,-47.5 -13.4,-42.9 -19.1,-40.0 -25.5,-34.9 -32.7,-30.2 -40.7,-25.9" fill="none" stroke="url(#rainbow_av_1779093955002_3rmhgacz8ua)" stroke-width="1.583141285765802" stroke-linejoin="round" stroke-linecap="round" filter="url(#fuzzy_av_1779093955002_3rmhgacz8ua)" opacity="0.7568884105285238"/><polyline points="18.8,-64.0 20.1,-64.3 21.5,-64.8 22.8,-65.8 23.9,-64.4 24.8,-64.6 25.4,-65.3 25.7,-64.5 25.7,-64.8 25.2,-65.4 24.2,-64.0 22.6,-64.0 20.4,-63.8 17.7,-62.7 14.4,-61.6 10.5,-62.9 6.2,-61.7 1.2,-63.8 -4.3,-63.3 -10.4,-64.1" fill="none" stroke="url(#rainbow_av_1779093955002_3rmhgacz8ua)" stroke-width="2.016724811320409" stroke-linejoin="round" stroke-linecap="round" filter="url(#fuzzy_av_1779093955002_3rmhgacz8ua)" opacity="0.7705823696551729"/><polyline points="-40.7,-26.5 -40.6,-28.2 -40.3,-28.2 -39.8,-31.2 -39.2,-32.3 -38.4,-34.6 -37.6,-36.3 -36.6,-39.2 -35.5,-40.8 -34.4,-42.8 -33.3,-44.9 -32.1,-48.0 -31.0,-51.0 -29.9,-52.7 -28.8,-55.6 -27.8,-56.3 -26.8,-59.0 -26.0,-61.1 -25.4,-62.9 -24.9,-63.9 -24.8,-65.6" fill="none" stroke="url(#rainbow_av_1779093955002_3rmhgacz8ua)" stroke-width="1.3309103786313194" stroke-linejoin="round" stroke-linecap="round" filter="url(#fuzzy_av_1779093955002_3rmhgacz8ua)" opacity="0.8425120360477023"/><polyline points="-36.5,-59.3 -35.9,-62.2 -35.2,-63.6 -34.3,-62.5 -33.2,-63.8 -32.1,-63.0 -31.1,-63.6 -30.2,-61.7 -29.4,-60.2 -29.0,-58.7 -28.7,-57.1 -28.7,-55.4 -29.0,-52.6 -29.6,-51.0 -30.5,-47.2 -31.8,-44.6 -33.4,-40.7 -35.4,-36.6 -37.8,-31.7 -40.7,-25.7" fill="none" stroke="url(#rainbow_av_1779093955002_3rmhgacz8ua)" stroke-width="2.5810707549926324" stroke-linejoin="round" stroke-linecap="round" filter="url(#fuzzy_av_1779093955002_3rmhgacz8ua)" opacity="0.8800119291214079"/><polyline points="-40.7,-14.4 -40.6,-16.2 -40.5,-17.2 -40.3,-19.7 -40.1,-23.0 -39.9,-24.1 -39.7,-27.3 -39.5,-29.9 -39.3,-32.8 -39.2,-37.3 -39.1,-38.7 -39.1,-42.1 -39.2,-45.6 -39.3,-46.9 -39.7,-48.5 -40.2,-50.6" fill="none" stroke="url(#rainbow_av_1779093955002_3rmhgacz8ua)" stroke-width="1.5318862521591017" stroke-linejoin="round" stroke-linecap="round" filter="url(#fuzzy_av_1779093955002_3rmhgacz8ua)" opacity="0.8490667449953155"/><polyline points="40.6,-43.4 40.5,-41.6 40.1,-39.0 39.4,-38.7 38.4,-36.3 37.1,-35.1 35.6,-33.8 33.7,-31.8 31.6,-30.0 29.2,-29.9 26.5,-27.5 23.6,-26.0 20.3,-23.4 16.8,-21.9 13.0,-20.9 8.9,-19.7 4.5,-17.8 -0.1,-16.3 -5.1,-15.7 -10.3,-14.4 -15.8,-11.1 -21.6,-9.7 -27.7,-7.8 -34.0,-6.9 -40.7,-5.5" fill="none" stroke="url(#rainbow_av_1779093955002_3rmhgacz8ua)" stroke-width="2.2733858415118666" stroke-linejoin="round" stroke-linecap="round" filter="url(#fuzzy_av_1779093955002_3rmhgacz8ua)" opacity="0.7500471292767119"/><polyline points="-35.8,-60.8 -35.3,-62.5 -34.2,-64.3 -33.0,-64.4 -31.6,-63.5 -30.3,-62.7 -29.0,-62.3 -27.9,-61.1 -26.9,-58.4 -26.1,-57.7 -25.4,-55.2 -24.8,-52.1 -24.5,-50.0 -24.3,-47.6 -24.3,-44.3 -24.6,-42.0 -25.0,-37.5 -25.7,-34.3 -26.6,-29.5 -27.8,-24.9 -29.2,-20.2 -30.9,-15.4 -32.9,-9.7 -35.2,-2.8 -37.8,3.5 -40.7,9.2" fill="none" stroke="url(#rainbow_av_1779093955002_3rmhgacz8ua)" stroke-width="1.3133243429591555" stroke-linejoin="round" stroke-linecap="round" filter="url(#fuzzy_av_1779093955002_3rmhgacz8ua)" opacity="0.8973638799544517"/><polyline points="16.1,-65.0 17.2,-65.7 18.1,-64.3 18.7,-64.3 19.0,-63.5 19.0,-63.3 18.6,-61.9 17.8,-61.5 16.5,-60.5 14.8,-58.8 12.6,-57.4 9.9,-54.8 6.5,-51.6 2.6,-47.7 -2.0,-44.9 -7.2,-42.4 -12.9,-37.2 -19.1,-34.3 -25.8,-30.1 -33.0,-24.5 -40.7,-21.8" fill="none" stroke="url(#rainbow_av_1779093955002_3rmhgacz8ua)" stroke-width="1.500952459292831" stroke-linejoin="round" stroke-linecap="round" filter="url(#fuzzy_av_1779093955002_3rmhgacz8ua)" opacity="0.8552634343594986"/><polyline points="40.6,-46.6 40.5,-45.2 40.2,-45.0 39.7,-43.2 38.9,-42.6 37.8,-42.0 36.4,-41.1 34.7,-42.1 32.6,-42.7 30.2,-43.2 27.3,-43.7 24.0,-45.8 20.2,-48.9 15.9,-50.2 11.1,-54.1 5.8,-55.8 -0.1,-59.7 -6.6,-65.2" fill="none" stroke="url(#rainbow_av_1779093955002_3rmhgacz8ua)" stroke-width="2.312044575825899" stroke-linejoin="round" stroke-linecap="round" filter="url(#fuzzy_av_1779093955002_3rmhgacz8ua)" opacity="0.7888544003264257"/><polyline points="40.6,-30.6 40.5,-28.7 40.2,-25.5 39.6,-23.9 38.9,-22.0 38.2,-19.9 37.7,-17.7 37.4,-15.3 37.2,-14.9 37.1,-12.4 36.9,-9.7 36.6,-8.5 36.3,-6.0 35.9,-4.3 35.6,-3.3 35.1,-0.8 34.6,1.5 34.2,2.9 33.7,5.1 33.3,5.9 32.9,9.0 32.6,9.9 32.4,12.4 32.2,14.1 31.8,17.2 31.4,20.4 30.8,21.7 30.1,24.8 29.5,28.6 28.8,30.9 28.2,33.9 27.3,36.6 26.2,39.1 24.8,43.5 23.1,46.6 21.2,47.2 19.2,50.6 17.1,51.4" fill="none" stroke="url(#rainbow_av_1779093955002_3rmhgacz8ua)" stroke-width="1.9821227493046831" stroke-linejoin="round" stroke-linecap="round" filter="url(#fuzzy_av_1779093955002_3rmhgacz8ua)" opacity="0.9714814144424762"/><polyline points="40.6,-46.7 42.1,-45.4 42.0,-41.1 41.9,-38.4 42.2,-35.8 42.6,-33.8 43.0,-31.2 43.4,-27.8 43.7,-25.8 43.9,-24.9 43.9,-21.8 43.9,-19.7 43.9,-19.2 44.0,-16.5 44.1,-13.6 44.3,-12.3 44.5,-10.2 44.7,-8.3 44.9,-8.3 45.2,-6.0 45.6,-4.1 45.9,-1.8 46.2,-0.1 46.3,2.3 46.4,3.2 46.9,5.8 47.8,7.2" fill="none" stroke="url(#rainbow_av_1779093955002_3rmhgacz8ua)" stroke-width="1.1075138879980275" stroke-linejoin="round" stroke-linecap="round" filter="url(#fuzzy_av_1779093955002_3rmhgacz8ua)" opacity="0.750450424496546"/><polyline points="26.5,-65.8 23.5,-64.1 20.6,-65.3 17.8,-64.9 15.1,-64.8 12.4,-64.9 9.8,-63.9 7.2,-64.3 4.5,-64.0 1.9,-65.4 -0.7,-64.5 -3.3,-64.0 -6.0,-64.2 -8.7,-65.5 -11.4,-65.6 -14.3,-65.0 -17.2,-64.9 -20.2,-65.0 -23.2,-63.6 -26.3,-63.7 -29.3,-64.6 -32.2,-62.3 -34.8,-60.5 -37.2,-60.0 -39.2,-57.8 -40.9,-54.6 -42.2,-51.9 -43.3,-49.5 -44.2,-46.4 -44.8,-44.4 -45.4,-41.5 -45.7,-37.3 -45.9,-35.5 -46.0,-32.0 -46.0,-30.8 -45.9,-28.6" fill="none" stroke="url(#rainbow_av_1779093955002_3rmhgacz8ua)" stroke-width="2.557333705635143" stroke-linejoin="round" stroke-linecap="round" filter="url(#fuzzy_av_1779093955002_3rmhgacz8ua)" opacity="0.7701009537128185"/><polyline points="18.8,-64.3 16.2,-64.6 13.5,-65.8 10.8,-65.3 8.2,-64.7 5.6,-65.8 3.1,-65.0 0.5,-64.4 -2.1,-64.3 -4.7,-65.0 -7.4,-65.8 -10.2,-64.6 -13.2,-65.6 -16.2,-65.4 -19.4,-64.9 -22.6,-64.3 -25.9,-64.2 -29.0,-63.5 -31.9,-62.8 -34.6,-62.8 -36.9,-60.1 -38.9,-57.8 -40.6,-55.3 -42.0,-53.0 -43.2,-50.1 -44.3,-48.9 -45.3,-45.3 -46.2,-42.4 -47.0,-39.9 -47.7,-35.6 -48.1,-33.8 -48.3,-30.6 -48.5,-28.6 -48.6,-26.1 -48.9,-23.5" fill="none" stroke="url(#rainbow_av_1779093955002_3rmhgacz8ua)" stroke-width="1.458893531931646" stroke-linejoin="round" stroke-linecap="round" filter="url(#fuzzy_av_1779093955002_3rmhgacz8ua)" opacity="0.988749286583336"/><polyline points="14.7,-65.1 12.0,-64.5 9.4,-65.2 6.8,-63.9 4.2,-65.7 1.7,-64.2 -0.9,-64.3 -3.5,-65.8 -6.1,-64.5 -8.8,-65.0 -11.6,-63.9 -14.4,-65.0 -17.3,-65.4 -20.2,-65.0 -23.1,-65.5 -26.1,-64.2 -28.9,-62.7 -31.6,-63.1 -34.2,-61.6 -36.4,-59.1 -38.4,-57.7 -40.1,-55.9 -41.5,-51.7 -42.7,-49.4 -43.6,-46.9 -44.3,-44.2 -45.0,-40.2 -45.5,-38.9 -46.0,-36.1 -46.3,-32.5 -46.5,-30.9 -46.8,-27.6" fill="none" stroke="url(#rainbow_av_1779093955002_3rmhgacz8ua)" stroke-width="0.9476134180768905" stroke-linejoin="round" stroke-linecap="round" filter="url(#fuzzy_av_1779093955002_3rmhgacz8ua)" opacity="0.8317795380645128"/><polyline points="-7.8,-65.5 -10.3,-65.8 -12.7,-63.9 -15.0,-63.9 -17.5,-65.4 -20.2,-65.2 -23.1,-64.4 -25.8,-65.2 -28.3,-63.4 -30.5,-61.6 -32.2,-61.0 -33.4,-58.2 -34.2,-57.0 -34.6,-54.3 -34.7,-50.1 -34.5,-47.2 -34.1,-45.5 -33.5,-41.8 -32.8,-39.2 -32.1,-36.2 -31.5,-34.3 -30.9,-31.9 -30.2,-28.4 -29.1,-26.7" fill="none" stroke="url(#rainbow_av_1779093955002_3rmhgacz8ua)" stroke-width="0.7887052820883445" stroke-linejoin="round" stroke-linecap="round" filter="url(#fuzzy_av_1779093955002_3rmhgacz8ua)" opacity="0.8757245560347644"/><polyline points="-36.5,-60.8 -38.0,-57.2 -39.1,-54.7 -39.9,-50.8 -40.6,-48.7 -41.1,-45.7 -41.5,-42.4 -41.9,-39.7 -42.2,-36.5 -42.3,-33.8 -42.4,-30.8 -42.4,-29.5 -42.5,-27.8 -42.8,-25.6 -43.1,-22.5 -43.7,-19.7 -44.3,-17.7 -44.9,-16.9 -45.4,-14.2 -45.7,-12.8 -45.9,-11.9 -46.1,-8.6 -46.5,-7.6 -47.0,-5.8 -47.6,-4.4" fill="none" stroke="url(#rainbow_av_1779093955002_3rmhgacz8ua)" stroke-width="1.7076084070821764" stroke-linejoin="round" stroke-linecap="round" filter="url(#fuzzy_av_1779093955002_3rmhgacz8ua)" opacity="0.8675246379855743"/><polyline points="-37.6,-57.3 -39.0,-53.0 -40.4,-50.2 -41.8,-48.7 -42.9,-44.0 -43.6,-42.8 -44.1,-38.9 -44.6,-37.1 -45.2,-33.3 -45.9,-31.2 -46.5,-28.6 -46.9,-27.4 -47.1,-23.7 -47.3,-22.2 -47.5,-19.7 -47.9,-18.8 -48.5,-16.4 -49.2,-14.1 -49.9,-13.9 -50.3,-11.7 -50.6,-9.0 -51.1,-7.5 -52.0,-4.9 -53.1,-5.1 -53.8,-2.1 -53.4,-0.7" fill="none" stroke="url(#rainbow_av_1779093955002_3rmhgacz8ua)" stroke-width="2.2666947112132148" stroke-linejoin="round" stroke-linecap="round" filter="url(#fuzzy_av_1779093955002_3rmhgacz8ua)" opacity="0.898888820465113"/><polyline points="-40.7,-33.4 -41.5,-29.7 -42.6,-27.3 -43.5,-26.5 -44.1,-24.5 -44.4,-20.9 -44.5,-20.2 -44.5,-17.4 -44.4,-16.9 -44.2,-14.8 -44.1,-11.5 -43.9,-10.8 -43.9,-8.5 -43.8,-6.0 -43.9,-4.3 -44.1,-2.8 -44.4,-2.5 -44.8,0.1 -45.3,1.8 -45.8,2.9 -46.3,5.2 -46.8,8.5 -47.3,10.6 -47.8,11.3 -48.2,14.4 -48.6,17.4 -48.9,18.5 -49.6,22.1" fill="none" stroke="url(#rainbow_av_1779093955002_3rmhgacz8ua)" stroke-width="1.4121138041069274" stroke-linejoin="round" stroke-linecap="round" filter="url(#fuzzy_av_1779093955002_3rmhgacz8ua)" opacity="0.7807323280594655"/><polyline points="-40.7,-23.3 -40.9,-22.6 -41.1,-20.7 -41.6,-17.7 -42.5,-16.2 -43.9,-15.4 -45.1,-12.5 -46.0,-12.1 -46.2,-8.5 -45.9,-6.8 -45.4,-6.3 -45.0,-3.8 -44.9,-2.8 -45.0,-1.2 -45.3,1.0 -45.7,4.0 -46.1,5.1 -46.6,7.8 -47.2,9.6 -47.9,11.2 -48.9,13.3 -50.1,15.5 -51.5,19.0 -52.8,20.1 -53.7,22.8 -54.2,25.1 -54.4,28.3 -55.2,31.9" fill="none" stroke="url(#rainbow_av_1779093955002_3rmhgacz8ua)" stroke-width="1.8239577529652136" stroke-linejoin="round" stroke-linecap="round" filter="url(#fuzzy_av_1779093955002_3rmhgacz8ua)" opacity="0.9579793854561245"/><polyline points="-40.7,-11.6 -40.7,-10.5 -40.7,-9.1 -40.8,-7.6 -41.0,-5.0 -41.2,-2.7 -41.4,-2.0 -41.6,1.0 -41.8,2.6 -42.0,4.8 -42.2,6.5 -42.4,6.9 -42.7,9.0 -43.0,11.5 -43.4,13.4 -43.7,15.9 -44.1,18.6 -44.4,21.3 -44.7,23.6 -44.9,27.6 -45.1,30.7 -45.1,32.8 -44.9,35.2 -44.4,39.2 -43.6,40.9 -42.5,43.5 -41.0,45.9 -39.0,47.8 -36.5,49.8 -33.4,50.3 -30.0,51.7 -26.6,51.0" fill="none" stroke="url(#rainbow_av_1779093955002_3rmhgacz8ua)" stroke-width="0.7306268825319506" stroke-linejoin="round" stroke-linecap="round" filter="url(#fuzzy_av_1779093955002_3rmhgacz8ua)" opacity="0.9417939449259842"/><polyline points="-40.7,-11.3 -40.4,-9.2 -40.4,-6.9 -40.4,-5.9 -40.5,-4.3 -40.5,-1.1 -40.5,-0.8 -40.5,1.8 -40.5,4.9 -40.5,6.3 -40.4,8.4 -40.4,9.3 -40.4,11.9 -40.3,15.0 -40.3,17.3 -40.2,20.1 -40.1,23.0 -40.0,24.6 -39.7,28.0 -39.4,30.2 -38.9,32.6 -38.2,36.2 -37.3,38.9 -36.1,40.7 -34.7,44.8 -33.0,46.1 -31.0,48.3 -28.7,49.0 -26.2,49.2 -23.5,50.1 -20.7,51.0 -18.0,50.2 -15.3,50.8 -12.6,50.2 -10.0,51.5 -7.5,49.9 -5.0,51.8 -2.5,50.9 -0.0,51.2" fill="none" stroke="url(#rainbow_av_1779093955002_3rmhgacz8ua)" stroke-width="2.4308410843397157" stroke-linejoin="round" stroke-linecap="round" filter="url(#fuzzy_av_1779093955002_3rmhgacz8ua)" opacity="0.8893286650591268"/><polyline points="-40.7,4.1 -40.7,4.6 -40.9,6.3 -41.4,8.5 -42.3,10.6 -43.1,14.4 -43.7,15.8 -43.8,17.9 -43.7,22.1 -43.4,24.0 -43.0,26.1 -42.6,30.2 -42.3,32.8 -41.9,35.0 -41.4,38.3 -40.7,41.3 -39.7,42.6 -38.4,45.4 -36.5,46.4 -34.2,49.3 -31.5,49.1 -28.6,50.1 -25.5,50.1 -22.3,50.6 -19.2,51.3 -16.1,50.7 -13.0,50.0 -10.0,50.2 -7.0,51.5 -4.0,50.5 -1.0,50.4 2.1,50.7 5.2,50.1 8.4,51.0 11.6,51.9 15.0,51.4 18.5,50.1" fill="none" stroke="url(#rainbow_av_1779093955002_3rmhgacz8ua)" stroke-width="1.2610819268067524" stroke-linejoin="round" stroke-linecap="round" filter="url(#fuzzy_av_1779093955002_3rmhgacz8ua)" opacity="0.8121449222143989"/><polyline points="-40.7,5.5 -40.7,6.1 -40.7,8.7 -40.7,10.6 -40.8,13.1 -40.9,15.2 -41.0,17.8 -41.0,21.5 -41.1,24.4 -41.0,25.8 -40.8,29.9 -40.4,31.5 -39.9,34.1 -39.1,38.1 -38.2,40.4 -37.0,43.2 -35.5,45.5 -33.7,48.5 -31.5,48.2 -29.0,49.5 -26.3,50.1 -23.5,50.3 -20.6,51.7 -17.7,51.5 -14.9,50.0 -12.2,51.1" fill="none" stroke="url(#rainbow_av_1779093955002_3rmhgacz8ua)" stroke-width="2.0428423095258643" stroke-linejoin="round" stroke-linecap="round" filter="url(#fuzzy_av_1779093955002_3rmhgacz8ua)" opacity="0.7683296131123056"/><polyline points="-40.7,8.1 -42.5,10.7 -43.5,12.9 -43.4,14.3 -43.3,18.1 -43.4,19.0 -43.7,21.5 -43.8,24.4 -43.7,28.6 -43.3,30.6 -42.9,34.4 -42.3,36.9 -41.7,39.0 -40.8,43.1 -39.6,43.8 -38.0,46.2 -35.8,47.5 -33.3,48.3 -30.4,49.3 -27.3,51.1 -24.2,51.1 -21.1,51.0 -18.1,50.8 -15.1,49.9 -12.0,51.8 -9.0,50.8 -5.8,51.2 -2.6,51.5 0.7,51.1 4.0,50.8 7.5,51.1 11.0,49.9 14.8,51.5 18.7,51.3 22.9,51.5" fill="none" stroke="url(#rainbow_av_1779093955002_3rmhgacz8ua)" stroke-width="1.8084380393856685" stroke-linejoin="round" stroke-linecap="round" filter="url(#fuzzy_av_1779093955002_3rmhgacz8ua)" opacity="0.7972187565280561"/><polyline points="-40.7,15.8 -40.8,18.1 -40.9,20.8 -41.2,24.1 -41.7,26.9 -42.2,29.3 -42.5,32.3 -42.4,35.8 -42.0,38.3 -41.1,41.8 -39.9,43.5 -38.4,46.1 -36.6,47.7 -34.6,48.2 -32.2,50.5 -29.6,51.3 -26.6,50.4 -23.5,51.8 -20.4,51.4 -17.3,51.1 -14.4,50.6 -11.5,51.3 -8.6,50.6" fill="none" stroke="url(#rainbow_av_1779093955002_3rmhgacz8ua)" stroke-width="1.864542077949711" stroke-linejoin="round" stroke-linecap="round" filter="url(#fuzzy_av_1779093955002_3rmhgacz8ua)" opacity="0.8078880318121175"/><polyline points="-40.7,20.1 -40.9,22.5 -41.0,25.7 -40.9,27.5 -40.8,32.2 -40.5,34.5 -40.3,37.2 -39.9,40.2 -39.3,43.5 -38.3,44.9 -36.7,47.2 -34.5,47.6 -31.9,48.8 -29.1,50.3 -26.2,50.0 -23.4,50.7 -20.6,51.0 -17.7,50.1 -14.8,51.8 -11.8,50.8 -8.7,51.4 -5.5,50.7 -2.4,50.1 0.8,50.9 4.1,50.2 7.4,50.7 10.8,51.2 14.4,50.4 18.1,50.6 21.9,51.2" fill="none" stroke="url(#rainbow_av_1779093955002_3rmhgacz8ua)" stroke-width="1.1335683612261982" stroke-linejoin="round" stroke-linecap="round" filter="url(#fuzzy_av_1779093955002_3rmhgacz8ua)" opacity="0.9262038129416803"/><polyline points="-40.7,31.3 -40.8,34.1 -40.4,38.7 -39.3,40.0 -37.7,43.4 -36.0,45.2 -34.1,47.7 -32.0,48.7 -29.9,49.0 -27.7,51.0 -25.3,51.3 -22.8,50.5 -20.0,51.5 -17.0,50.4 -14.0,51.0 -10.9,50.4 -7.8,50.3 -4.8,51.2 -1.8,51.0 1.3,50.4 4.4,50.7 7.6,50.8 10.9,51.8 14.3,50.5 18.0,51.7 21.9,51.8 25.9,51.2 30.1,51.3 34.5,50.3 39.6,50.1" fill="none" stroke="url(#rainbow_av_1779093955002_3rmhgacz8ua)" stroke-width="1.4378723297143965" stroke-linejoin="round" stroke-linecap="round" filter="url(#fuzzy_av_1779093955002_3rmhgacz8ua)" opacity="0.9412424351027181"/></g><circle r="2.3340803275504665" cx="-6.7257803276467225" cy="9.076677145042133" stroke="#111" fill="none" stroke-width="0.9741311280371792" filter="url(#fuzzy_av_1779093955002_3rmhgacz8ua)"/><circle r="1.9076557923739381" cx="-6.730567766178135" cy="8.235486195783041" stroke="#111" fill="none" stroke-width="1.2044701677298186" filter="url(#fuzzy_av_1779093955002_3rmhgacz8ua)"/><circle r="1.7677541117076578" cx="-5.552436298578442" cy="9.292698354019484" stroke="#111" fill="none" stroke-width="1.1641386151493598" filter="url(#fuzzy_av_1779093955002_3rmhgacz8ua)"/><circle r="2.2727581184208" cx="-3.4398004241683076" cy="8.877690157228042" stroke="#111" fill="none" stroke-width="0.9941652499579425" filter="url(#fuzzy_av_1779093955002_3rmhgacz8ua)"/><circle r="2.4633911901502326" cx="-4.296997355895886" cy="7.9447457137499935" stroke="#111" fill="none" stroke-width="0.970412087588145" filter="url(#fuzzy_av_1779093955002_3rmhgacz8ua)"/><circle r="2.0979078300275305" cx="-6.574952175346266" cy="6.7977988493610715" stroke="#111" fill="none" stroke-width="1.0238064003791683" filter="url(#fuzzy_av_1779093955002_3rmhgacz8ua)"/><circle r="1.777884690465196" cx="-4.9126963199546045" cy="8.850632004283757" stroke="#111" fill="none" stroke-width="0.9856043401659784" filter="url(#fuzzy_av_1779093955002_3rmhgacz8ua)"/><circle r="0.9503143624832224" cx="-4.790561229221349" cy="6.685922777497584" stroke="#111" fill="none" stroke-width="0.9867727614642114" filter="url(#fuzzy_av_1779093955002_3rmhgacz8ua)"/><circle r="2.4204123286418113" cx="-4.710878855033655" cy="9.371094177257897" stroke="#111" fill="none" stroke-width="0.891255620141413" filter="url(#fuzzy_av_1779093955002_3rmhgacz8ua)"/><circle r="1.5022255682616954" cx="-5.600644879602082" cy="9.298387968858608" stroke="#111" fill="none" stroke-width="1.2303063996918715" filter="url(#fuzzy_av_1779093955002_3rmhgacz8ua)"/><circle r="2.0069537603220344" cx="5.8344358917104495" cy="11.00299852840403" stroke="#111" fill="none" stroke-width="0.95074628231139" filter="url(#fuzzy_av_1779093955002_3rmhgacz8ua)"/><circle r="1.3985883429775265" cx="5.2796821481378755" cy="9.422648257725807" stroke="#111" fill="none" stroke-width="0.8438855709501496" filter="url(#fuzzy_av_1779093955002_3rmhgacz8ua)"/><circle r="1.7440115377208183" cx="5.834128913065974" cy="12.842616540040082" stroke="#111" fill="none" stroke-width="1.178961621965059" filter="url(#fuzzy_av_1779093955002_3rmhgacz8ua)"/><circle r="2.1245744601670533" cx="4.673217411168075" cy="10.44503981040945" stroke="#111" fill="none" stroke-width="0.8388970468726864" filter="url(#fuzzy_av_1779093955002_3rmhgacz8ua)"/><circle r="2.0405298489960435" cx="3.3257731475048242" cy="10.054151675007255" stroke="#111" fill="none" stroke-width="1.0707052038066236" filter="url(#fuzzy_av_1779093955002_3rmhgacz8ua)"/><circle r="2.4606015369050294" cx="5.227500616318969" cy="11.547859878027891" stroke="#111" fill="none" stroke-width="1.2676759789603333" filter="url(#fuzzy_av_1779093955002_3rmhgacz8ua)"/><circle r="1.8048739924172155" cx="4.594089062296625" cy="10.815158698081719" stroke="#111" fill="none" stroke-width="0.9044494591714001" filter="url(#fuzzy_av_1779093955002_3rmhgacz8ua)"/><circle r="1.9708328726971684" cx="3.6141912680847192" cy="11.822373973604362" stroke="#111" fill="none" stroke-width="1.2788338209854777" filter="url(#fuzzy_av_1779093955002_3rmhgacz8ua)"/><circle r="0.9070604792678539" cx="3.7522714452854564" cy="11.67618942114117" stroke="#111" fill="none" stroke-width="1.1430102016779133" filter="url(#fuzzy_av_1779093955002_3rmhgacz8ua)"/><circle r="1.371038702666446" cx="5.06689786976864" cy="12.935866661453092" stroke="#111" fill="none" stroke-width="0.8391919298281567" filter="url(#fuzzy_av_1779093955002_3rmhgacz8ua)"/><polyline points="-12.7,45.1 -12.5,44.4 -12.2,43.6 -12.0,42.9 -11.7,42.2 -11.5,41.5 -11.2,40.8 -11.0,40.2 -10.7,39.6 -10.5,38.9 -10.3,38.3 -10.0,37.8 -9.8,37.2 -9.5,36.6 -9.3,36.1 -9.0,35.6 -8.8,35.1 -8.6,34.6 -8.3,34.1 -8.1,33.7 -7.9,33.3 -7.6,32.8 -7.4,32.4 -7.2,32.1 -6.9,31.7 -6.7,31.4 -6.5,31.0 -6.2,30.7 -6.0,30.4 -5.8,30.1 -5.5,29.9 -5.3,29.6 -5.1,29.4 -4.8,29.2 -4.6,29.0 -4.4,28.8 -4.1,28.6 -3.9,28.4 -3.7,28.3 -3.5,28.2 -3.2,28.1 -3.0,28.0 -2.8,27.9 -2.5,27.8 -2.3,27.8 -2.1,27.8 -1.9,27.8 -1.6,27.8 -1.4,27.8 -1.2,27.8 -0.9,27.9 -0.7,27.9 -0.5,28.0 -0.2,28.1 -0.0,28.2 0.2,28.3 0.5,28.5 0.7,28.6 0.9,28.8 1.2,29.0 1.4,29.2 1.6,29.4 1.9,29.6 2.1,29.8 2.3,30.1 2.6,30.4 2.8,30.6 3.1,30.9 3.3,31.3 3.5,31.6 3.8,31.9 4.0,32.3 4.3,32.6 4.5,33.0 4.7,33.4 5.0,33.8 5.2,34.3 5.5,34.7 5.7,35.2 6.0,35.6 6.2,36.1 6.5,36.6 6.7,37.1 7.0,37.6 7.3,38.1 7.5,38.7 7.8,39.3 8.0,39.8 8.3,40.4 8.5,41.0 8.8,41.6 9.1,42.3 9.3,42.9 9.6,43.5 9.9,44.2 10.2,44.9 10.4,45.6 10.7,46.3 11.0,47.0 11.2,47.7 11.5,48.5 11.2,47.7 11.0,47.0 10.7,46.3 10.4,45.6 10.2,44.9 9.9,44.2 9.6,43.5 9.3,42.9 9.1,42.3 8.8,41.6 8.5,41.0 8.3,40.4 8.0,39.8 7.8,39.3 7.5,38.7 7.3,38.1 7.0,37.6 6.7,37.1 6.5,36.6 6.2,36.1 6.0,35.6 5.7,35.2 5.5,34.7 5.2,34.3 5.0,33.8 4.7,33.4 4.5,33.0 4.3,32.6 4.0,32.3 3.8,31.9 3.5,31.6 3.3,31.3 3.1,30.9 2.8,30.6 2.6,30.4 2.3,30.1 2.1,29.8 1.9,29.6 1.6,29.4 1.4,29.2 1.2,29.0 0.9,28.8 0.7,28.6 0.5,28.5 0.2,28.3 -0.0,28.2 -0.2,28.1 -0.5,28.0 -0.7,27.9 -0.9,27.9 -1.2,27.8 -1.4,27.8 -1.6,27.8 -1.9,27.8 -2.1,27.8 -2.3,27.8 -2.5,27.8 -2.8,27.9 -3.0,28.0 -3.2,28.1 -3.5,28.2 -3.7,28.3 -3.9,28.4 -4.1,28.6 -4.4,28.8 -4.6,29.0 -4.8,29.2 -5.1,29.4 -5.3,29.6 -5.5,29.9 -5.8,30.1 -6.0,30.4 -6.2,30.7 -6.5,31.0 -6.7,31.4 -6.9,31.7 -7.2,32.1 -7.4,32.4 -7.6,32.8 -7.9,33.3 -8.1,33.7 -8.3,34.1 -8.6,34.6 -8.8,35.1 -9.0,35.6 -9.3,36.1 -9.5,36.6 -9.8,37.2 -10.0,37.8 -10.3,38.3 -10.5,38.9 -10.7,39.6 -11.0,40.2 -11.2,40.8 -11.5,41.5 -11.7,42.2 -12.0,42.9 -12.2,43.6 -12.5,44.4" fill="rgb(215,127,140)" stroke="#111" stroke-width="2.504792500549714" stroke-linejoin="round" filter="url(#fuzzy_av_1779093955002_3rmhgacz8ua)"/></g><g class="accessory-svg accessory-magnifier" transform="translate(67.8 35.1) rotate(-3.7) scale(1.117)">
      <circle cx="-2" cy="-2" r="7" fill="#f8fafc" stroke="#111827" stroke-width="1.4"/><path d="M4 4l7 7" stroke="#111827" stroke-width="3" stroke-linecap="round"/><path d="M-5-4c2-2 5-2 7 0" stroke="#38bdf8" stroke-width="1" opacity=".7"/>
    </g><g class="accessory-svg accessory-check" transform="translate(9.6 76.4) rotate(-2.8) scale(0.858)">
      <circle cx="0" cy="0" r="11" fill="#22c55e" stroke="#111827" stroke-width="1.1"/><path d="M-6 0l4 5 8-10" fill="none" stroke="#f8fafc" stroke-width="2.4" stroke-linecap="round" stroke-linejoin="round"/>
    </g><g class="accessory-svg accessory-document" transform="translate(-72.6 26.1) rotate(9.1) scale(0.992)">
      <path d="M-8-11h11l5 5v18H-8z" fill="#f8fafc" stroke="#111827" stroke-width="1.1"/><path d="M3-11v5h5M-5-3h9M-5 2h10M-5 7h7" stroke="#111827" stroke-width="1"/>
    </g><g class="accessory-svg accessory-scales" transform="translate(2.9 -73.3) rotate(7.0) scale(0.894)">
      <path d="M0-11v22M-8-6h16M-5 11h10" stroke="#111827" stroke-width="1.4"/><path d="M-8-6l-5 8h10zM8-6L3 2h10z" fill="#f8fafc" stroke="#111827" stroke-width="1"/>
    </g></svg>