<svg xmlns="http://www.w3.org/2000/svg" viewBox="-100 -100 200 200" width="400" height="400" role="img" aria-label="职场双面人 avatar"><defs>
      <filter id="fuzzy_av_1779093955017_suu00u7e6dh" x="-8%" y="-8%" width="116%" height="116%">
        <feTurbulence baseFrequency="0.045" numOctaves="3" type="fractalNoise" result="noise"/>
        <feDisplacementMap in="SourceGraphic" in2="noise" scale="1.6"/>
      </filter>
      <clipPath id="leftEye_av_1779093955017_suu00u7e6dh"><polyline points="-17.7,-2.2 -17.6,-2.3 -17.4,-2.5 -17.2,-2.7 -17.0,-2.8 -16.8,-3.0 -16.5,-3.1 -16.2,-3.2 -15.9,-3.4 -15.6,-3.5 -15.3,-3.6 -14.9,-3.7 -14.6,-3.8 -14.2,-3.9 -13.8,-4.0 -13.4,-4.1 -13.0,-4.2 -12.5,-4.3 -12.0,-4.4 -11.6,-4.5 -11.0,-4.6 -10.5,-4.7 -10.0,-4.8 -9.4,-4.8 -8.9,-4.9 -8.3,-5.0 -7.7,-5.0 -7.1,-5.1 -6.5,-5.1 -5.9,-5.1 -5.3,-5.1 -4.7,-5.2 -4.1,-5.2 -3.4,-5.2 -2.8,-5.2 -2.2,-5.2 -1.6,-5.2 -1.0,-5.2 -0.4,-5.1 0.1,-5.1 0.7,-5.1 1.3,-5.1 1.8,-5.0 2.4,-5.0 2.9,-5.0 3.4,-4.9 3.9,-4.9 4.4,-4.8 4.8,-4.7 5.3,-4.7 5.7,-4.6 6.1,-4.6 6.5,-4.5 6.9,-4.4 7.3,-4.3 7.6,-4.3 8.0,-4.2 8.3,-4.1 8.6,-4.0 8.9,-4.0 9.2,-3.9 9.4,-3.8 9.7,-3.7 9.9,-3.6 10.2,-3.5 10.4,-3.4 10.6,-3.3 10.8,-3.2 11.0,-3.1 11.1,-3.0 11.3,-2.9 11.4,-2.8 11.6,-2.7 11.7,-2.6 11.8,-2.5 12.0,-2.4 12.1,-2.3 12.2,-2.2 12.3,-2.1 12.3,-2.0 11.9,-0.2 11.8,-0.1 11.6,0.1 11.5,0.3 11.3,0.4 11.1,0.6 11.0,0.8 10.8,0.9 10.6,1.1 10.4,1.3 10.2,1.5 9.9,1.6 9.7,1.8 9.5,2.0 9.2,2.1 9.0,2.3 8.7,2.5 8.4,2.6 8.1,2.8 7.8,2.9 7.5,3.1 7.2,3.3 6.9,3.4 6.5,3.6 6.2,3.7 5.8,3.9 5.4,4.0 5.0,4.1 4.6,4.3 4.2,4.4 3.7,4.5 3.3,4.6 2.8,4.7 2.4,4.8 1.9,4.9 1.4,4.9 0.9,5.0 0.4,5.0 -0.2,5.1 -0.7,5.1 -1.2,5.1 -1.8,5.1 -2.3,5.1 -2.9,5.1 -3.5,5.1 -4.0,5.0 -4.6,5.0 -5.2,4.9 -5.7,4.8 -6.3,4.8 -6.9,4.7 -7.4,4.5 -8.0,4.4 -8.5,4.3 -9.1,4.1 -9.6,4.0 -10.1,3.8 -10.7,3.7 -11.2,3.5 -11.7,3.3 -12.1,3.1 -12.6,2.9 -13.0,2.6 -13.4,2.4 -13.9,2.2 -14.2,2.0 -14.6,1.8 -14.9,1.6 -15.3,1.5 -15.6,1.3 -15.9,1.1 -16.2,0.9 -16.4,0.7 -16.7,0.5 -16.9,0.3 -17.1,0.1 -17.3,-0.1 -17.5,-0.3 -17.7,-0.5 -17.8,-0.7"/></clipPath>
      <clipPath id="rightEye_av_1779093955017_suu00u7e6dh"><polyline points="-18.2,-2.9 -18.1,-3.1 -18.0,-3.3 -17.8,-3.5 -17.7,-3.7 -17.5,-3.9 -17.3,-4.1 -17.0,-4.2 -16.8,-4.4 -16.5,-4.6 -16.2,-4.7 -15.9,-4.8 -15.6,-5.0 -15.2,-5.1 -14.9,-5.2 -14.5,-5.3 -14.1,-5.5 -13.7,-5.6 -13.3,-5.7 -12.9,-5.8 -12.4,-5.9 -11.9,-6.0 -11.4,-6.1 -10.9,-6.2 -10.3,-6.2 -9.8,-6.3 -9.2,-6.3 -8.6,-6.4 -8.0,-6.4 -7.4,-6.4 -6.7,-6.4 -6.1,-6.5 -5.4,-6.5 -4.8,-6.5 -4.1,-6.4 -3.5,-6.4 -2.9,-6.4 -2.2,-6.4 -1.6,-6.3 -0.9,-6.3 -0.3,-6.3 0.3,-6.2 0.9,-6.2 1.5,-6.1 2.1,-6.0 2.7,-6.0 3.3,-5.9 3.8,-5.9 4.3,-5.8 4.9,-5.7 5.4,-5.6 5.8,-5.6 6.3,-5.5 6.8,-5.4 7.2,-5.3 7.6,-5.3 8.0,-5.2 8.4,-5.1 8.8,-5.0 9.1,-5.0 9.5,-4.9 9.8,-4.8 10.1,-4.7 10.4,-4.6 10.7,-4.6 10.9,-4.5 11.2,-4.4 11.4,-4.3 11.7,-4.3 11.9,-4.2 12.1,-4.1 12.3,-4.0 12.5,-3.9 12.6,-3.9 12.8,-3.8 13.0,-3.7 13.1,-3.6 13.3,-3.5 13.4,-3.5 13.5,-3.4 13.2,-0.5 13.1,-0.4 13.0,-0.2 12.8,0.0 12.6,0.2 12.5,0.4 12.3,0.6 12.1,0.8 11.9,1.0 11.7,1.2 11.5,1.4 11.3,1.6 11.1,1.9 10.9,2.1 10.6,2.3 10.4,2.5 10.1,2.7 9.8,2.9 9.5,3.1 9.2,3.3 8.9,3.5 8.6,3.7 8.2,3.9 7.9,4.1 7.5,4.3 7.1,4.5 6.7,4.6 6.3,4.8 5.9,5.0 5.4,5.2 5.0,5.3 4.5,5.5 4.0,5.6 3.5,5.7 3.0,5.8 2.5,5.9 2.0,6.0 1.4,6.1 0.9,6.2 0.3,6.3 -0.3,6.3 -0.8,6.3 -1.4,6.3 -2.0,6.3 -2.6,6.3 -3.2,6.3 -3.8,6.3 -4.4,6.2 -5.0,6.1 -5.6,6.0 -6.2,5.9 -6.8,5.8 -7.4,5.7 -8.0,5.5 -8.6,5.4 -9.1,5.2 -9.7,5.0 -10.2,4.8 -10.7,4.5 -11.2,4.3 -11.7,4.0 -12.2,3.8 -12.7,3.5 -13.1,3.2 -13.5,2.9 -13.9,2.7 -14.3,2.5 -14.7,2.2 -15.1,2.0 -15.4,1.8 -15.8,1.5 -16.1,1.3 -16.4,1.0 -16.7,0.8 -17.0,0.5 -17.2,0.2 -17.5,-0.0 -17.7,-0.3 -17.9,-0.5 -18.1,-0.8"/></clipPath>
      <linearGradient id="rainbow_av_1779093955017_suu00u7e6dh" x1="0%" y1="0%" x2="100%" y2="0%">
        <stop offset="0%" stop-color="#1F2937"/><stop offset="41%" stop-color="#22D3EE"/><stop offset="100%" stop-color="#F9FAFB"/>
      </linearGradient>
      <linearGradient id="splitHair_av_1779093955017_suu00u7e6dh" x1="0%" y1="0%" x2="100%" y2="0%">
        <stop offset="49%" stop-color="#111827"/><stop offset="51%" stop-color="#F9FAFB"/>
      </linearGradient>
      <radialGradient id="halo_av_1779093955017_suu00u7e6dh"><stop offset="0%" stop-color="#1F2937" stop-opacity=".45"/><stop offset="100%" stop-color="#1F2937" stop-opacity="0"/></radialGradient>
    </defs><rect x="-100" y="-100" width="200" height="200" fill="#D1D5DB"/><rect x="0" y="-100" width="100" height="200" fill="#F9FAFB" opacity=".28"/><g opacity="1"><polyline id="faceContour" class="face-shape" points="51.1,-5.4 50.9,-4.7 50.4,-1.9 50.5,-1.9 50.7,-1.1 50.2,1.4 50.5,0.1 50.2,1.3 49.6,5.0 49.1,6.0 49.3,6.7 48.2,9.3 49.2,7.6 47.8,11.6 48.1,11.2 47.9,12.1 47.1,14.7 46.2,16.6 46.1,17.7 46.3,17.7 45.8,18.7 46.1,19.0 44.5,22.2 43.5,24.1 43.4,25.1 44.1,23.8 42.9,26.4 41.9,28.4 42.8,27.9 41.6,30.1 41.2,31.4 40.9,32.2 39.2,35.0 39.8,34.7 38.0,37.5 38.3,37.8 37.9,39.0 36.8,40.5 36.3,42.1 36.1,43.1 34.9,44.8 33.6,47.0 33.7,47.8 33.6,47.9 31.1,49.0 29.4,50.1 27.8,50.6 27.5,50.6 26.1,51.0 24.3,51.8 24.7,51.2 22.9,51.9 21.0,52.7 20.4,52.7 18.0,53.6 18.6,53.2 17.7,53.4 14.9,54.4 14.0,54.4 12.9,54.6 13.1,54.4 9.6,55.2 9.0,55.3 8.2,55.4 8.1,55.3 5.9,55.6 3.8,55.8 5.0,55.6 1.3,55.9 2.3,55.8 -0.4,55.9 -0.9,55.9 -3.1,55.8 -4.4,55.7 -5.4,55.6 -5.9,55.6 -7.4,55.4 -9.1,55.1 -9.4,55.2 -11.4,54.7 -10.3,55.2 -13.4,54.5 -14.8,54.2 -16.3,53.7 -15.9,54.1 -17.0,53.8 -18.8,53.3 -20.4,52.6 -22.3,52.0 -21.5,52.8 -23.1,52.1 -26.0,50.7 -27.6,50.1 -27.6,50.3 -28.2,50.3 -29.2,50.2 -30.3,49.8 -31.7,48.9 -32.8,48.5 -33.5,46.8 -35.0,44.4 -35.7,43.4 -35.3,42.9 -37.3,40.3 -36.8,39.8 -39.0,36.7 -39.5,35.7 -38.3,36.1 -38.8,35.1 -40.6,32.3 -40.7,31.5 -41.3,30.3 -42.7,27.8 -42.7,27.5 -42.4,27.2 -44.1,24.0 -44.7,22.7 -45.2,21.5 -43.8,22.9 -45.6,19.6 -46.0,18.2 -45.9,17.7 -46.0,17.5 -46.6,16.0 -47.7,12.7 -47.6,12.2 -47.2,13.0 -48.4,9.7 -48.7,8.5 -48.5,8.4 -49.3,5.7 -49.8,4.0 -49.2,5.4 -49.3,4.2 -50.1,1.7 -50.1,1.1 -50.2,0.1 -50.9,-3.8 -50.9,-4.3 -50.5,-3.2 -50.9,-6.7 -51.2,-7.1 -51.2,-7.6 -51.2,-10.4 -51.1,-10.3 -51.3,-10.9 -51.3,-15.2 -51.3,-15.1 -51.2,-17.5 -51.4,-17.7 -51.2,-19.9 -51.1,-19.7 -51.1,-22.0 -50.8,-21.6 -50.7,-24.2 -50.3,-25.4 -50.2,-26.5 -49.9,-28.3 -50.5,-27.2 -50.1,-29.1 -49.3,-31.3 -49.3,-31.8 -48.3,-35.0 -48.9,-33.8 -48.8,-35.0 -48.5,-36.0 -46.9,-39.7 -46.4,-41.1 -47.1,-40.1 -45.5,-43.5 -46.2,-42.9 -45.9,-43.5 -44.3,-46.5 -44.3,-47.2 -43.9,-48.2 -43.4,-49.6 -43.2,-50.6 -40.7,-53.6 -41.7,-53.5 -40.4,-55.5 -41.0,-55.7 -39.7,-57.7 -38.9,-59.5 -37.1,-60.7 -35.5,-61.4 -34.5,-61.5 -34.2,-61.3 -33.2,-61.7 -31.8,-62.1 -29.3,-63.2 -26.5,-64.4 -26.6,-64.0 -24.7,-64.8 -24.8,-64.4 -23.1,-64.9 -21.1,-65.5 -20.9,-65.4 -17.9,-66.3 -16.3,-66.6 -15.7,-66.6 -13.8,-66.9 -14.1,-66.8 -12.6,-67.0 -11.1,-67.2 -6.6,-67.8 -8.3,-67.5 -6.4,-67.7 -4.8,-67.8 -2.1,-67.9 -1.5,-67.9 1.3,-67.9 2.4,-67.9 1.7,-67.9 2.9,-67.9 4.5,-67.9 5.9,-67.8 8.4,-67.6 11.1,-67.2 9.5,-67.5 14.3,-66.8 12.6,-67.2 15.6,-66.6 18.2,-66.0 19.1,-65.8 19.3,-66.0 20.1,-65.9 23.9,-64.7 23.0,-65.2 26.1,-64.1 26.3,-64.3 29.4,-63.1 29.5,-63.2 31.8,-62.3 32.0,-62.6 34.5,-61.4 35.1,-61.2 35.7,-61.3 36.6,-61.0 38.6,-59.6 39.6,-58.1 40.7,-56.2 40.0,-56.1 40.9,-54.5 42.3,-52.4 41.6,-52.1 44.0,-49.2 44.5,-47.9 44.5,-47.1 45.4,-45.2 46.1,-43.7 45.9,-43.6 46.9,-41.3 46.2,-42.1 46.5,-40.8 47.5,-38.4 48.4,-36.6 47.7,-37.6 47.9,-36.2 48.9,-33.6 49.6,-31.0 49.6,-30.8 50.0,-28.9 50.5,-27.2 49.7,-28.9 50.1,-27.5 50.4,-26.3 50.5,-24.8 51.0,-22.8 50.8,-22.0 51.2,-20.9 51.4,-17.8 51.3,-18.0 51.5,-17.0 51.5,-15.0 51.4,-14.2 51.5,-12.9 51.4,-10.2 51.3,-8.4 51.3,-8.4 51.2,-8.0 51.1,-5.4 50.9,-4.7" fill="#ffc9a9" stroke="#111" stroke-width="2.2" stroke-linejoin="round" filter="url(#fuzzy_av_1779093955017_suu00u7e6dh)"/><g id="leftEye" transform="translate(-24.7 -30.4)"><polyline points="-17.7,-2.2 -17.6,-2.3 -17.4,-2.5 -17.2,-2.7 -17.0,-2.8 -16.8,-3.0 -16.5,-3.1 -16.2,-3.2 -15.9,-3.4 -15.6,-3.5 -15.3,-3.6 -14.9,-3.7 -14.6,-3.8 -14.2,-3.9 -13.8,-4.0 -13.4,-4.1 -13.0,-4.2 -12.5,-4.3 -12.0,-4.4 -11.6,-4.5 -11.0,-4.6 -10.5,-4.7 -10.0,-4.8 -9.4,-4.8 -8.9,-4.9 -8.3,-5.0 -7.7,-5.0 -7.1,-5.1 -6.5,-5.1 -5.9,-5.1 -5.3,-5.1 -4.7,-5.2 -4.1,-5.2 -3.4,-5.2 -2.8,-5.2 -2.2,-5.2 -1.6,-5.2 -1.0,-5.2 -0.4,-5.1 0.1,-5.1 0.7,-5.1 1.3,-5.1 1.8,-5.0 2.4,-5.0 2.9,-5.0 3.4,-4.9 3.9,-4.9 4.4,-4.8 4.8,-4.7 5.3,-4.7 5.7,-4.6 6.1,-4.6 6.5,-4.5 6.9,-4.4 7.3,-4.3 7.6,-4.3 8.0,-4.2 8.3,-4.1 8.6,-4.0 8.9,-4.0 9.2,-3.9 9.4,-3.8 9.7,-3.7 9.9,-3.6 10.2,-3.5 10.4,-3.4 10.6,-3.3 10.8,-3.2 11.0,-3.1 11.1,-3.0 11.3,-2.9 11.4,-2.8 11.6,-2.7 11.7,-2.6 11.8,-2.5 12.0,-2.4 12.1,-2.3 12.2,-2.2 12.3,-2.1 12.3,-2.0 11.9,-0.2 11.8,-0.1 11.6,0.1 11.5,0.3 11.3,0.4 11.1,0.6 11.0,0.8 10.8,0.9 10.6,1.1 10.4,1.3 10.2,1.5 9.9,1.6 9.7,1.8 9.5,2.0 9.2,2.1 9.0,2.3 8.7,2.5 8.4,2.6 8.1,2.8 7.8,2.9 7.5,3.1 7.2,3.3 6.9,3.4 6.5,3.6 6.2,3.7 5.8,3.9 5.4,4.0 5.0,4.1 4.6,4.3 4.2,4.4 3.7,4.5 3.3,4.6 2.8,4.7 2.4,4.8 1.9,4.9 1.4,4.9 0.9,5.0 0.4,5.0 -0.2,5.1 -0.7,5.1 -1.2,5.1 -1.8,5.1 -2.3,5.1 -2.9,5.1 -3.5,5.1 -4.0,5.0 -4.6,5.0 -5.2,4.9 -5.7,4.8 -6.3,4.8 -6.9,4.7 -7.4,4.5 -8.0,4.4 -8.5,4.3 -9.1,4.1 -9.6,4.0 -10.1,3.8 -10.7,3.7 -11.2,3.5 -11.7,3.3 -12.1,3.1 -12.6,2.9 -13.0,2.6 -13.4,2.4 -13.9,2.2 -14.2,2.0 -14.6,1.8 -14.9,1.6 -15.3,1.5 -15.6,1.3 -15.9,1.1 -16.2,0.9 -16.4,0.7 -16.7,0.5 -16.9,0.3 -17.1,0.1 -17.3,-0.1 -17.5,-0.3 -17.7,-0.5 -17.8,-0.7" fill="#fff" stroke="#fff" stroke-width="0" stroke-linejoin="round" filter="url(#fuzzy_av_1779093955017_suu00u7e6dh)"/><polyline points="17.8,-0.1 17.9,-0.4 18.0,-0.6 18.0,-0.8 18.1,-1.0 18.1,-1.2 18.1,-1.4 18.0,-1.6 17.9,-1.8 17.8,-2.0 -17.7,-2.2 -17.6,-2.3 -17.4,-2.5 -17.2,-2.7 -17.0,-2.8 -16.8,-3.0 -16.5,-3.1 -16.2,-3.2 -15.9,-3.4 -15.6,-3.5 -15.3,-3.6 -14.9,-3.7 -14.6,-3.8 -14.2,-3.9 -13.8,-4.0 -13.4,-4.1 -13.0,-4.2 -12.5,-4.3 -12.0,-4.4 -11.6,-4.5 -11.0,-4.6 -10.5,-4.7 -10.0,-4.8 -9.4,-4.8 -8.9,-4.9 -8.3,-5.0 -7.7,-5.0 -7.1,-5.1 -6.5,-5.1 -5.9,-5.1 -5.3,-5.1 -4.7,-5.2 -4.1,-5.2 -3.4,-5.2 -2.8,-5.2 -2.2,-5.2 -1.6,-5.2 -1.0,-5.2 -0.4,-5.1 0.1,-5.1 0.7,-5.1 1.3,-5.1 1.8,-5.0 2.4,-5.0 2.9,-5.0 3.4,-4.9 3.9,-4.9 4.4,-4.8 4.8,-4.7 5.3,-4.7 5.7,-4.6 6.1,-4.6 6.5,-4.5 6.9,-4.4 7.3,-4.3 7.6,-4.3 8.0,-4.2 8.3,-4.1 8.6,-4.0 8.9,-4.0 9.2,-3.9 9.4,-3.8 9.7,-3.7 9.9,-3.6 10.2,-3.5 10.4,-3.4 10.6,-3.3 10.8,-3.2 11.0,-3.1 11.1,-3.0 11.3,-2.9 11.4,-2.8 11.6,-2.7 11.7,-2.6 11.8,-2.5 12.0,-2.4 12.1,-2.3 12.2,-2.2 12.3,-2.1 12.3,-2.0 -12.4,-1.9 -12.5,-1.8 -12.5,-1.7 -12.6,-1.5 -12.7,-1.4 -12.7,-1.3 -12.7,-1.2 -12.8,-1.1 -12.8,-0.9 -12.8,-0.8" fill="none" stroke="#111" stroke-width="2.6530656923007974" stroke-linejoin="round" stroke-linecap="round" filter="url(#fuzzy_av_1779093955017_suu00u7e6dh)"/><polyline points="17.7,-2.6 17.8,-2.4 17.9,-2.3 18.0,-2.1 18.1,-1.9 18.1,-1.7 18.1,-1.5 18.0,-1.3 18.0,-1.1 17.9,-0.9 -17.8,-0.7 -17.7,-0.5 -17.5,-0.3 -17.3,-0.1 -17.1,0.1 -16.9,0.3 -16.7,0.5 -16.4,0.7 -16.2,0.9 -15.9,1.1 -15.6,1.3 -15.3,1.5 -14.9,1.6 -14.6,1.8 -14.2,2.0 -13.9,2.2 -13.4,2.4 -13.0,2.6 -12.6,2.9 -12.1,3.1 -11.7,3.3 -11.2,3.5 -10.7,3.7 -10.1,3.8 -9.6,4.0 -9.1,4.1 -8.5,4.3 -8.0,4.4 -7.4,4.5 -6.9,4.7 -6.3,4.8 -5.7,4.8 -5.2,4.9 -4.6,5.0 -4.0,5.0 -3.5,5.1 -2.9,5.1 -2.3,5.1 -1.8,5.1 -1.2,5.1 -0.7,5.1 -0.2,5.1 0.4,5.0 0.9,5.0 1.4,4.9 1.9,4.9 2.4,4.8 2.8,4.7 3.3,4.6 3.7,4.5 4.2,4.4 4.6,4.3 5.0,4.1 5.4,4.0 5.8,3.9 6.2,3.7 6.5,3.6 6.9,3.4 7.2,3.3 7.5,3.1 7.8,2.9 8.1,2.8 8.4,2.6 8.7,2.5 9.0,2.3 9.2,2.1 9.5,2.0 9.7,1.8 9.9,1.6 10.2,1.5 10.4,1.3 10.6,1.1 10.8,0.9 11.0,0.8 11.1,0.6 11.3,0.4 11.5,0.3 11.6,0.1 11.8,-0.1 11.9,-0.2 -12.1,-0.4 -12.2,-0.5 -12.3,-0.7 -12.4,-0.9 -12.6,-1.0 -12.7,-1.2 -12.8,-1.3 -12.9,-1.5 -13.0,-1.6 -13.0,-1.8" fill="none" stroke="#111" stroke-width="2.1935947621506346" stroke-linejoin="round" stroke-linecap="round" filter="url(#fuzzy_av_1779093955017_suu00u7e6dh)"/><circle r="2.3101568595173547" cx="-10.145113434668627" cy="-2.1348730983766875" stroke="#111" fill="none" stroke-width="1.0087354616516642" filter="url(#fuzzy_av_1779093955017_suu00u7e6dh)" clip-path="url(#leftEye_av_1779093955017_suu00u7e6dh)"/><circle r="3.317952406812909" cx="-11.249943008162095" cy="-1.8708415397108813" stroke="#111" fill="none" stroke-width="1.2889572261159803" filter="url(#fuzzy_av_1779093955017_suu00u7e6dh)" clip-path="url(#leftEye_av_1779093955017_suu00u7e6dh)"/><circle r="2.445445844782509" cx="-12.832767350663007" cy="-2.763853643235162" stroke="#111" fill="none" stroke-width="1.3412152390300478" filter="url(#fuzzy_av_1779093955017_suu00u7e6dh)" clip-path="url(#leftEye_av_1779093955017_suu00u7e6dh)"/><circle r="3.246319130168098" cx="-10.229854927239755" cy="-3.3561913994354593" stroke="#111" fill="none" stroke-width="1.2558401459589423" filter="url(#fuzzy_av_1779093955017_suu00u7e6dh)" clip-path="url(#leftEye_av_1779093955017_suu00u7e6dh)"/><circle r="4.019809968508653" cx="-11.800797552302942" cy="-3.5966249144666813" stroke="#111" fill="none" stroke-width="1.0567287640381005" filter="url(#fuzzy_av_1779093955017_suu00u7e6dh)" clip-path="url(#leftEye_av_1779093955017_suu00u7e6dh)"/><circle r="4.504185848333858" cx="-10.525053219804306" cy="-1.5456607497898909" stroke="#111" fill="none" stroke-width="1.3977919753263355" filter="url(#fuzzy_av_1779093955017_suu00u7e6dh)" clip-path="url(#leftEye_av_1779093955017_suu00u7e6dh)"/><circle r="2.303943669242719" cx="-12.031474675800224" cy="-4.581833312901846" stroke="#111" fill="none" stroke-width="0.9584167917878117" filter="url(#fuzzy_av_1779093955017_suu00u7e6dh)" clip-path="url(#leftEye_av_1779093955017_suu00u7e6dh)"/><circle r="4.088846245479809" cx="-9.572032778380954" cy="-1.0851844010816052" stroke="#111" fill="none" stroke-width="1.1519648084933696" filter="url(#fuzzy_av_1779093955017_suu00u7e6dh)" clip-path="url(#leftEye_av_1779093955017_suu00u7e6dh)"/><circle r="4.168643856243998" cx="-10.729268721069149" cy="-1.2251532270783256" stroke="#111" fill="none" stroke-width="1.2173255985114193" filter="url(#fuzzy_av_1779093955017_suu00u7e6dh)" clip-path="url(#leftEye_av_1779093955017_suu00u7e6dh)"/><circle r="4.428675642465952" cx="-9.174537065053006" cy="-1.430287485500208" stroke="#111" fill="none" stroke-width="1.1304077883234243" filter="url(#fuzzy_av_1779093955017_suu00u7e6dh)" clip-path="url(#leftEye_av_1779093955017_suu00u7e6dh)"/></g><g id="rightEye" transform="translate(21.0 -32.6)"><polyline points="-18.2,-2.9 -18.1,-3.1 -18.0,-3.3 -17.8,-3.5 -17.7,-3.7 -17.5,-3.9 -17.3,-4.1 -17.0,-4.2 -16.8,-4.4 -16.5,-4.6 -16.2,-4.7 -15.9,-4.8 -15.6,-5.0 -15.2,-5.1 -14.9,-5.2 -14.5,-5.3 -14.1,-5.5 -13.7,-5.6 -13.3,-5.7 -12.9,-5.8 -12.4,-5.9 -11.9,-6.0 -11.4,-6.1 -10.9,-6.2 -10.3,-6.2 -9.8,-6.3 -9.2,-6.3 -8.6,-6.4 -8.0,-6.4 -7.4,-6.4 -6.7,-6.4 -6.1,-6.5 -5.4,-6.5 -4.8,-6.5 -4.1,-6.4 -3.5,-6.4 -2.9,-6.4 -2.2,-6.4 -1.6,-6.3 -0.9,-6.3 -0.3,-6.3 0.3,-6.2 0.9,-6.2 1.5,-6.1 2.1,-6.0 2.7,-6.0 3.3,-5.9 3.8,-5.9 4.3,-5.8 4.9,-5.7 5.4,-5.6 5.8,-5.6 6.3,-5.5 6.8,-5.4 7.2,-5.3 7.6,-5.3 8.0,-5.2 8.4,-5.1 8.8,-5.0 9.1,-5.0 9.5,-4.9 9.8,-4.8 10.1,-4.7 10.4,-4.6 10.7,-4.6 10.9,-4.5 11.2,-4.4 11.4,-4.3 11.7,-4.3 11.9,-4.2 12.1,-4.1 12.3,-4.0 12.5,-3.9 12.6,-3.9 12.8,-3.8 13.0,-3.7 13.1,-3.6 13.3,-3.5 13.4,-3.5 13.5,-3.4 13.2,-0.5 13.1,-0.4 13.0,-0.2 12.8,0.0 12.6,0.2 12.5,0.4 12.3,0.6 12.1,0.8 11.9,1.0 11.7,1.2 11.5,1.4 11.3,1.6 11.1,1.9 10.9,2.1 10.6,2.3 10.4,2.5 10.1,2.7 9.8,2.9 9.5,3.1 9.2,3.3 8.9,3.5 8.6,3.7 8.2,3.9 7.9,4.1 7.5,4.3 7.1,4.5 6.7,4.6 6.3,4.8 5.9,5.0 5.4,5.2 5.0,5.3 4.5,5.5 4.0,5.6 3.5,5.7 3.0,5.8 2.5,5.9 2.0,6.0 1.4,6.1 0.9,6.2 0.3,6.3 -0.3,6.3 -0.8,6.3 -1.4,6.3 -2.0,6.3 -2.6,6.3 -3.2,6.3 -3.8,6.3 -4.4,6.2 -5.0,6.1 -5.6,6.0 -6.2,5.9 -6.8,5.8 -7.4,5.7 -8.0,5.5 -8.6,5.4 -9.1,5.2 -9.7,5.0 -10.2,4.8 -10.7,4.5 -11.2,4.3 -11.7,4.0 -12.2,3.8 -12.7,3.5 -13.1,3.2 -13.5,2.9 -13.9,2.7 -14.3,2.5 -14.7,2.2 -15.1,2.0 -15.4,1.8 -15.8,1.5 -16.1,1.3 -16.4,1.0 -16.7,0.8 -17.0,0.5 -17.2,0.2 -17.5,-0.0 -17.7,-0.3 -17.9,-0.5 -18.1,-0.8" fill="#fff" stroke="#fff" stroke-width="0" stroke-linejoin="round" filter="url(#fuzzy_av_1779093955017_suu00u7e6dh)"/><polyline points="-18.1,-0.2 -18.2,-0.5 -18.3,-0.8 -18.4,-1.1 -18.4,-1.4 -18.5,-1.7 -18.5,-1.9 -18.4,-2.2 -18.4,-2.4 -18.3,-2.7 -18.2,-2.9 -18.1,-3.1 -18.0,-3.3 -17.8,-3.5 -17.7,-3.7 -17.5,-3.9 -17.3,-4.1 -17.0,-4.2 -16.8,-4.4 -16.5,-4.6 -16.2,-4.7 -15.9,-4.8 -15.6,-5.0 -15.2,-5.1 -14.9,-5.2 -14.5,-5.3 -14.1,-5.5 -13.7,-5.6 -13.3,-5.7 -12.9,-5.8 -12.4,-5.9 -11.9,-6.0 -11.4,-6.1 -10.9,-6.2 -10.3,-6.2 -9.8,-6.3 -9.2,-6.3 -8.6,-6.4 -8.0,-6.4 -7.4,-6.4 -6.7,-6.4 -6.1,-6.5 -5.4,-6.5 -4.8,-6.5 -4.1,-6.4 -3.5,-6.4 -2.9,-6.4 -2.2,-6.4 -1.6,-6.3 -0.9,-6.3 -0.3,-6.3 0.3,-6.2 0.9,-6.2 1.5,-6.1 2.1,-6.0 2.7,-6.0 3.3,-5.9 3.8,-5.9 4.3,-5.8 4.9,-5.7 5.4,-5.6 5.8,-5.6 6.3,-5.5 6.8,-5.4 7.2,-5.3 7.6,-5.3 8.0,-5.2 8.4,-5.1 8.8,-5.0 9.1,-5.0 9.5,-4.9 9.8,-4.8 10.1,-4.7 10.4,-4.6 10.7,-4.6 10.9,-4.5 11.2,-4.4 11.4,-4.3 11.7,-4.3 11.9,-4.2 12.1,-4.1 12.3,-4.0 12.5,-3.9 12.6,-3.9 12.8,-3.8 13.0,-3.7 13.1,-3.6 13.3,-3.5 13.4,-3.5 13.5,-3.4 13.6,-3.3 13.7,-3.2 13.8,-3.2 13.9,-3.1 14.0,-3.0 14.1,-2.9 14.2,-2.8 14.3,-2.8 14.3,-2.7 14.4,-2.6" fill="none" stroke="#111" stroke-width="2.2413369715056284" stroke-linejoin="round" stroke-linecap="round" filter="url(#fuzzy_av_1779093955017_suu00u7e6dh)"/><polyline points="-19.1,-3.0 -19.1,-2.8 -19.1,-2.6 -19.0,-2.4 -18.9,-2.2 -18.9,-2.0 -18.7,-1.8 -18.6,-1.5 -18.5,-1.3 -18.3,-1.0 -18.1,-0.8 -17.9,-0.5 -17.7,-0.3 -17.5,-0.0 -17.2,0.2 -17.0,0.5 -16.7,0.8 -16.4,1.0 -16.1,1.3 -15.8,1.5 -15.4,1.8 -15.1,2.0 -14.7,2.2 -14.3,2.5 -13.9,2.7 -13.5,2.9 -13.1,3.2 -12.7,3.5 -12.2,3.8 -11.7,4.0 -11.2,4.3 -10.7,4.5 -10.2,4.8 -9.7,5.0 -9.1,5.2 -8.6,5.4 -8.0,5.5 -7.4,5.7 -6.8,5.8 -6.2,5.9 -5.6,6.0 -5.0,6.1 -4.4,6.2 -3.8,6.3 -3.2,6.3 -2.6,6.3 -2.0,6.3 -1.4,6.3 -0.8,6.3 -0.3,6.3 0.3,6.3 0.9,6.2 1.4,6.1 2.0,6.0 2.5,5.9 3.0,5.8 3.5,5.7 4.0,5.6 4.5,5.5 5.0,5.3 5.4,5.2 5.9,5.0 6.3,4.8 6.7,4.6 7.1,4.5 7.5,4.3 7.9,4.1 8.2,3.9 8.6,3.7 8.9,3.5 9.2,3.3 9.5,3.1 9.8,2.9 10.1,2.7 10.4,2.5 10.6,2.3 10.9,2.1 11.1,1.9 11.3,1.6 11.5,1.4 11.7,1.2 11.9,1.0 12.1,0.8 12.3,0.6 12.5,0.4 12.6,0.2 12.8,0.0 13.0,-0.2 13.1,-0.4 13.2,-0.5 13.4,-0.7 13.5,-0.9 13.6,-1.1 13.7,-1.3 13.8,-1.5 13.9,-1.6 14.0,-1.8 14.1,-2.0 14.1,-2.1 14.2,-2.3" fill="none" stroke="#111" stroke-width="2.6988234876436294" stroke-linejoin="round" stroke-linecap="round" filter="url(#fuzzy_av_1779093955017_suu00u7e6dh)"/><circle r="3.1928628209256216" cx="9.882788484448017" cy="-0.42718904289732884" stroke="#111" fill="none" stroke-width="1.277559538622473" filter="url(#fuzzy_av_1779093955017_suu00u7e6dh)" clip-path="url(#rightEye_av_1779093955017_suu00u7e6dh)"/><circle r="2.53716861143457" cx="12.907778737234986" cy="0.29071603939532475" stroke="#111" fill="none" stroke-width="1.0662403769366864" filter="url(#fuzzy_av_1779093955017_suu00u7e6dh)" clip-path="url(#rightEye_av_1779093955017_suu00u7e6dh)"/><circle r="2.8754425720895123" cx="12.750299961399968" cy="-3.2836783126123645" stroke="#111" fill="none" stroke-width="1.0767118897999852" filter="url(#fuzzy_av_1779093955017_suu00u7e6dh)" clip-path="url(#rightEye_av_1779093955017_suu00u7e6dh)"/><circle r="2.6234991115786093" cx="11.190017266769106" cy="0.6817794983907313" stroke="#111" fill="none" stroke-width="1.3320329392109107" filter="url(#fuzzy_av_1779093955017_suu00u7e6dh)" clip-path="url(#rightEye_av_1779093955017_suu00u7e6dh)"/><circle r="4.237736754809504" cx="8.98561511392902" cy="-1.1938967067853505" stroke="#111" fill="none" stroke-width="1.3115828280503545" filter="url(#fuzzy_av_1779093955017_suu00u7e6dh)" clip-path="url(#rightEye_av_1779093955017_suu00u7e6dh)"/><circle r="3.8116769749858124" cx="9.562672606536518" cy="-3.1996218693195093" stroke="#111" fill="none" stroke-width="1.153890634911599" filter="url(#fuzzy_av_1779093955017_suu00u7e6dh)" clip-path="url(#rightEye_av_1779093955017_suu00u7e6dh)"/><circle r="4.666052095150752" cx="10.980005515163585" cy="-2.9055859394483354" stroke="#111" fill="none" stroke-width="1.1811241625073778" filter="url(#fuzzy_av_1779093955017_suu00u7e6dh)" clip-path="url(#rightEye_av_1779093955017_suu00u7e6dh)"/><circle r="3.5543256814033173" cx="12.558428298749591" cy="-2.784158923800394" stroke="#111" fill="none" stroke-width="1.3899459393899123" filter="url(#fuzzy_av_1779093955017_suu00u7e6dh)" clip-path="url(#rightEye_av_1779093955017_suu00u7e6dh)"/><circle r="4.2039209658986305" cx="10.344448991284224" cy="-1.3533045427498565" stroke="#111" fill="none" stroke-width="0.9167878210942437" filter="url(#fuzzy_av_1779093955017_suu00u7e6dh)" clip-path="url(#rightEye_av_1779093955017_suu00u7e6dh)"/><circle r="3.168091601788385" cx="9.782254363915708" cy="-3.25067286601642" stroke="#111" fill="none" stroke-width="0.9012426406423925" filter="url(#fuzzy_av_1779093955017_suu00u7e6dh)" clip-path="url(#rightEye_av_1779093955017_suu00u7e6dh)"/></g><g id="hairs"></g><path d="M -6.0266786913294155 7.399906307923848 Q 6.859759645697819 4.409636796786308, 0.41654047718420184 5.427291066344613" fill="none" stroke="#111" stroke-width="2.7912001470694667" stroke-linejoin="round" filter="url(#fuzzy_av_1779093955017_suu00u7e6dh)"/><polyline points="-39.3,22.6 -38.6,23.0 -37.9,23.4 -37.2,23.8 -36.5,24.1 -35.8,24.5 -35.1,24.9 -34.3,25.3 -33.5,25.7 -32.7,26.1 -31.9,26.4 -31.0,26.8 -30.2,27.2 -29.3,27.6 -28.5,27.9 -27.6,28.3 -26.7,28.7 -25.7,29.0 -24.8,29.4 -23.9,29.7 -22.9,30.1 -22.0,30.4 -21.0,30.7 -20.0,31.1 -19.0,31.4 -18.0,31.7 -17.0,32.0 -16.0,32.3 -14.9,32.6 -13.9,32.9 -12.9,33.2 -11.8,33.5 -10.8,33.7 -9.7,34.0 -8.7,34.2 -7.6,34.5 -6.6,34.7 -5.5,34.9 -4.4,35.1 -3.4,35.3 -2.3,35.5 -1.2,35.7 -0.2,35.8 0.9,36.0 2.0,36.1 3.0,36.2 4.1,36.3 5.2,36.4 6.2,36.5 7.3,36.6 8.3,36.6 9.4,36.7 10.4,36.7 11.4,36.7 12.5,36.7 13.5,36.6 14.5,36.6 15.5,36.5 16.5,36.5 17.5,36.4 18.5,36.3 19.4,36.1 20.4,36.0 21.3,35.8 22.3,35.6 23.2,35.4 24.1,35.2 25.0,34.9 25.9,34.7 26.7,34.4 27.6,34.1 28.4,33.7 29.3,33.4 30.1,33.0 30.9,32.6 31.6,32.2 32.4,31.7 33.1,31.3 33.8,30.8 34.5,30.2 35.2,29.7 35.9,29.1 36.5,28.5 37.1,27.9 37.7,27.3 38.3,26.6 38.8,25.9 39.4,25.2 39.9,24.4 40.3,23.7 40.8,22.9 41.2,22.0 41.6,21.2 42.0,20.3 42.3,19.3 42.6,18.4 42.9,17.4 43.2,16.4 43.4,15.4 43.6,14.3 43.8,13.2 43.6,14.3 43.4,15.4 43.2,16.4 42.9,17.4 42.6,18.4 42.3,19.3 42.0,20.3 41.6,21.2 41.2,22.0 40.8,22.9 40.3,23.7 39.9,24.4 39.4,25.2 38.8,25.9 38.3,26.6 37.7,27.3 37.1,27.9 36.5,28.5 35.9,29.1 35.2,29.7 34.5,30.2 33.8,30.8 33.1,31.3 32.4,31.7 31.6,32.2 30.9,32.6 30.1,33.0 29.3,33.4 28.4,33.7 27.6,34.1 26.7,34.4 25.9,34.7 25.0,34.9 24.1,35.2 23.2,35.4 22.3,35.6 21.3,35.8 20.4,36.0 19.4,36.1 18.5,36.3 17.5,36.4 16.5,36.5 15.5,36.5 14.5,36.6 13.5,36.6 12.5,36.7 11.4,36.7 10.4,36.7 9.4,36.7 8.3,36.6 7.3,36.6 6.2,36.5 5.2,36.4 4.1,36.3 3.0,36.2 2.0,36.1 0.9,36.0 -0.2,35.8 -1.2,35.7 -2.3,35.5 -3.4,35.3 -4.4,35.1 -5.5,34.9 -6.6,34.7 -7.6,34.5 -8.7,34.2 -9.7,34.0 -10.8,33.7 -11.8,33.5 -12.9,33.2 -13.9,32.9 -14.9,32.6 -16.0,32.3 -17.0,32.0 -18.0,31.7 -19.0,31.4 -20.0,31.1 -21.0,30.7 -22.0,30.4 -22.9,30.1 -23.9,29.7 -24.8,29.4 -25.7,29.0 -26.7,28.7 -27.6,28.3 -28.5,27.9 -29.3,27.6 -30.2,27.2 -31.0,26.8 -31.9,26.4 -32.7,26.1 -33.5,25.7 -34.3,25.3 -35.1,24.9 -35.8,24.5 -36.5,24.1 -37.2,23.8 -37.9,23.4 -38.6,23.0" fill="rgb(215,127,140)" stroke="#111" stroke-width="2.4719823580917266" stroke-linejoin="round" filter="url(#fuzzy_av_1779093955017_suu00u7e6dh)"/></g><g class="accessory-svg accessory-mask" transform="translate(65.9 -35.0) rotate(-4.8) scale(0.997)">
      <path d="M-11-5c6-5 16-5 22 0-1 9-6 14-11 14S-10 4-11-5z" fill="#f8fafc" stroke="#111827" stroke-width="1.1"/><path d="M0-9v18" stroke="#F9FAFB" stroke-width="1"/><path d="M-7-1c3-2 5-2 7 0M7-1c-3-2-5-2-7 0" fill="none" stroke="#111827" stroke-width="1"/><path d="M-4 5c3 2 5 2 8 0" fill="none" stroke="#ef4444" stroke-width="1"/>
    </g><g class="accessory-svg accessory-half-moon" transform="translate(16.2 72.3) rotate(-11.0) scale(1.219)">
      <circle cx="0" cy="0" r="11" fill="#fbbf24" stroke="#111827" stroke-width="1.1"/><circle cx="4" cy="-2" r="11" fill="#f8fafc"/>
    </g><g class="accessory-svg accessory-moon" transform="translate(-70.6 32.2) rotate(5.9) scale(0.945)">
      <circle cx="0" cy="0" r="11" fill="#fbbf24" stroke="#111827" stroke-width="1.1"/><circle cx="4" cy="-2" r="11" fill="#f8fafc"/>
    </g><g class="accessory-svg accessory-sunglasses" transform="translate(3.7 -73.9) rotate(2.9) scale(1.039)">
      <circle cx="-5" cy="0" r="5" fill="#F9FAFB" stroke="#111827" stroke-width="1.4"/><circle cx="5" cy="0" r="5" fill="#F9FAFB" stroke="#111827" stroke-width="1.4"/><path d="M0 0h0M-10-1l-3-2M10-1l3-2" stroke="#111827" stroke-width="1.1"/>
    </g></svg>